<?xml version="1.0" encoding="us-ascii" standalone="no"?><svg xmlns="http://www.w3.org/2000/svg" xmlns:xlink="http://www.w3.org/1999/xlink" contentStyleType="text/css" height="615px" preserveAspectRatio="none" style="width:990px;height:615px;background:#FFFFFF;" version="1.1" viewBox="0 0 990 615" width="990px" zoomAndPan="magnify"><defs/><g><rect fill="none" height="199.9297" style="stroke:#000000;stroke-width:1.5;" width="974.5" x="10" y="53.2969"/><rect fill="none" height="108.5313" style="stroke:#000000;stroke-width:1.5;" width="821" x="10" y="267.2266"/><rect fill="none" height="108.5313" style="stroke:#000000;stroke-width:1.5;" width="761" x="10" y="389.7578"/><line style="stroke:#181818;stroke-width:0.5;stroke-dasharray:5.0,5.0;" x1="51" x2="51" y1="36.2969" y2="580.6875"/><line style="stroke:#181818;stroke-width:0.5;stroke-dasharray:5.0,5.0;" x1="594" x2="594" y1="36.2969" y2="580.6875"/><line style="stroke:#181818;stroke-width:0.5;stroke-dasharray:5.0,5.0;" x1="942.5" x2="942.5" y1="36.2969" y2="580.6875"/><rect fill="#E2E2F0" height="30.2969" rx="2.5" ry="2.5" style="stroke:#181818;stroke-width:0.5;" width="62" x="20" y="5"/><text fill="#000000" font-family="sans-serif" font-size="14" lengthAdjust="spacing" textLength="48" x="27" y="24.9951">ClientA</text><rect fill="#E2E2F0" height="30.2969" rx="2.5" ry="2.5" style="stroke:#181818;stroke-width:0.5;" width="62" x="20" y="579.6875"/><text fill="#000000" font-family="sans-serif" font-size="14" lengthAdjust="spacing" textLength="48" x="27" y="599.6826">ClientA</text><rect fill="#E2E2F0" height="30.2969" rx="2.5" ry="2.5" style="stroke:#181818;stroke-width:0.5;" width="58" x="565" y="5"/><text fill="#000000" font-family="sans-serif" font-size="14" lengthAdjust="spacing" textLength="44" x="572" y="24.9951">Server</text><rect fill="#E2E2F0" height="30.2969" rx="2.5" ry="2.5" style="stroke:#181818;stroke-width:0.5;" width="58" x="565" y="579.6875"/><text fill="#000000" font-family="sans-serif" font-size="14" lengthAdjust="spacing" textLength="44" x="572" y="599.6826">Server</text><rect fill="#E2E2F0" height="30.2969" rx="2.5" ry="2.5" style="stroke:#181818;stroke-width:0.5;" width="63" x="911.5" y="5"/><text fill="#000000" font-family="sans-serif" font-size="14" lengthAdjust="spacing" textLength="49" x="918.5" y="24.9951">ClientB</text><rect fill="#E2E2F0" height="30.2969" rx="2.5" ry="2.5" style="stroke:#181818;stroke-width:0.5;" width="63" x="911.5" y="579.6875"/><text fill="#000000" font-family="sans-serif" font-size="14" lengthAdjust="spacing" textLength="49" x="918.5" y="599.6826">ClientB</text><path d="M10,53.2969 L499,53.2969 L499,60.4297 L489,70.4297 L10,70.4297 L10,53.2969 " fill="#EEEEEE" style="stroke:#000000;stroke-width:1.5;"/><rect fill="none" height="199.9297" style="stroke:#000000;stroke-width:1.5;" width="974.5" x="10" y="53.2969"/><text fill="#000000" font-family="sans-serif" font-size="13" font-weight="bold" lengthAdjust="spacing" textLength="444" x="25" y="66.3638">"Choose Player Color [ok &amp; failed due to unallowed player]"</text><polygon fill="#181818" points="582,87.5625,592,91.5625,582,95.5625,586,91.5625" style="stroke:#181818;stroke-width:1.0;"/><line style="stroke:#181818;stroke-width:1.0;" x1="51" x2="588" y1="91.5625" y2="91.5625"/><text fill="#000000" font-family="sans-serif" font-size="13" lengthAdjust="spacing" textLength="286" x="58" y="86.4966">choosePlayerColor(playerName, playerColor)</text><rect fill="#D3D3D3" height="23" style="stroke:#181818;stroke-width:0.5;" width="335" x="426" y="104.5625"/><text fill="#000000" font-family="sans-serif" font-size="13" lengthAdjust="spacing" textLength="327" x="430" y="120.6294">game.choosePlayerColor(playerName, playerColor)</text><polygon fill="#181818" points="62,149.8281,52,153.8281,62,157.8281,58,153.8281" style="stroke:#181818;stroke-width:1.0;"/><line style="stroke:#181818;stroke-width:1.0;" x1="56" x2="593" y1="153.8281" y2="153.8281"/><text fill="#000000" font-family="sans-serif" font-size="13" lengthAdjust="spacing" textLength="250" x="68" y="148.7622">{status: "success"}, VirtualViewUpdate</text><polygon fill="#181818" points="605,178.9609,595,182.9609,605,186.9609,601,182.9609" style="stroke:#181818;stroke-width:1.0;"/><line style="stroke:#181818;stroke-width:1.0;" x1="599" x2="942" y1="182.9609" y2="182.9609"/><text fill="#000000" font-family="sans-serif" font-size="13" lengthAdjust="spacing" textLength="290" x="611" y="177.895">choosePlayerColor(gameName, playerName)</text><rect fill="#D3D3D3" height="23" style="stroke:#181818;stroke-width:0.5;" width="509" x="339" y="195.9609"/><text fill="#000000" font-family="sans-serif" font-size="13" lengthAdjust="spacing" textLength="501" x="343" y="212.0278">MainController.gameControllerMiddleWares[x].validatePlayerTurn(playerName)</text><polygon fill="#181818" points="931,241.2266,941,245.2266,931,249.2266,935,245.2266" style="stroke:#181818;stroke-width:1.0;"/><line style="stroke:#181818;stroke-width:1.0;" x1="594" x2="937" y1="245.2266" y2="245.2266"/><text fill="#000000" font-family="sans-serif" font-size="13" lengthAdjust="spacing" textLength="325" x="601" y="240.1606">{status: "failed", message: "It's not ClientB's turn"}</text><path d="M10,267.2266 L478,267.2266 L478,274.3594 L468,284.3594 L10,284.3594 L10,267.2266 " fill="#EEEEEE" style="stroke:#000000;stroke-width:1.5;"/><rect fill="none" height="108.5313" style="stroke:#000000;stroke-width:1.5;" width="821" x="10" y="267.2266"/><text fill="#000000" font-family="sans-serif" font-size="13" font-weight="bold" lengthAdjust="spacing" textLength="423" x="25" y="280.2935">"Choose Player Color [failed due to wrong game status]"</text><polygon fill="#181818" points="582,301.4922,592,305.4922,582,309.4922,586,305.4922" style="stroke:#181818;stroke-width:1.0;"/><line style="stroke:#181818;stroke-width:1.0;" x1="51" x2="588" y1="305.4922" y2="305.4922"/><text fill="#000000" font-family="sans-serif" font-size="13" lengthAdjust="spacing" textLength="286" x="58" y="300.4263">choosePlayerColor(playerName, playerColor)</text><rect fill="#D3D3D3" height="23" style="stroke:#181818;stroke-width:0.5;" width="455" x="366" y="318.4922"/><text fill="#000000" font-family="sans-serif" font-size="13" lengthAdjust="spacing" textLength="447" x="370" y="334.5591">GameControllerMiddleWare.getGameStatus() E POI???????? usages??</text><polygon fill="#181818" points="62,363.7578,52,367.7578,62,371.7578,58,367.7578" style="stroke:#181818;stroke-width:1.0;"/><line style="stroke:#181818;stroke-width:1.0;" x1="56" x2="593" y1="367.7578" y2="367.7578"/><text fill="#000000" font-family="sans-serif" font-size="13" lengthAdjust="spacing" textLength="519" x="68" y="362.6919">{status: "failed", message: "Cannot choose Player Color in current game status"}</text><path d="M10,389.7578 L487,389.7578 L487,396.8906 L477,406.8906 L10,406.8906 L10,389.7578 " fill="#EEEEEE" style="stroke:#000000;stroke-width:1.5;"/><rect fill="none" height="108.5313" style="stroke:#000000;stroke-width:1.5;" width="761" x="10" y="389.7578"/><text fill="#000000" font-family="sans-serif" font-size="13" font-weight="bold" lengthAdjust="spacing" textLength="432" x="25" y="402.8247">"Choose Player Color [failed due to color already chosen]"</text><polygon fill="#181818" points="582,424.0234,592,428.0234,582,432.0234,586,428.0234" style="stroke:#181818;stroke-width:1.0;"/><line style="stroke:#181818;stroke-width:1.0;" x1="51" x2="588" y1="428.0234" y2="428.0234"/><text fill="#000000" font-family="sans-serif" font-size="13" lengthAdjust="spacing" textLength="286" x="58" y="422.9575">choosePlayerColor(playerName, playerColor)</text><rect fill="#D3D3D3" height="23" style="stroke:#181818;stroke-width:0.5;" width="335" x="426" y="441.0234"/><text fill="#000000" font-family="sans-serif" font-size="13" lengthAdjust="spacing" textLength="327" x="430" y="457.0903">game.choosePlayerColor(playerName, playerColor)</text><polygon fill="#181818" points="62,486.2891,52,490.2891,62,494.2891,58,490.2891" style="stroke:#181818;stroke-width:1.0;"/><line style="stroke:#181818;stroke-width:1.0;" x1="56" x2="593" y1="490.2891" y2="490.2891"/><text fill="#000000" font-family="sans-serif" font-size="13" lengthAdjust="spacing" textLength="443" x="68" y="485.2231">{status: "failed", message: "Color already chosen by another player"}</text><path d="M599,510.2891 L599,565.2891 L911,565.2891 L911,520.2891 L901,510.2891 L599,510.2891 " fill="#00FFFF" style="stroke:#181818;stroke-width:0.5;"/><path d="M901,510.2891 L901,520.2891 L911,520.2891 L901,510.2891 " fill="#00FFFF" style="stroke:#181818;stroke-width:0.5;"/><text fill="#000000" font-family="sans-serif" font-size="13" lengthAdjust="spacing" textLength="268" x="605" y="527.356">Serve una classe Connection che associ a</text><text fill="#000000" font-family="sans-serif" font-size="13" lengthAdjust="spacing" textLength="256" x="605" y="542.4888">un gameName la connessione del client</text><text fill="#000000" font-family="sans-serif" font-size="13" lengthAdjust="spacing" textLength="291" x="605" y="557.6216">per sapere QUALE gameController chiamare?</text><!--SRC=[lLHTRnCn47o_Np4w94Yba1-G1wBsLA5A58fAoqFLXyMtlLWuTl17GuJwtrdxBf28qAWLmW-dyzxkpEnuVPrtQOcwcJiN61U6rkpHEECyRjnNlCGTQSCjsiI83icICMubWML9lQqho6gCPXkFyVeDBjdV2yGKga3sY0Lmr9UyfmMFX_8IFoeGthh8SBbsW7XXT3UFdUUre7LIDNaYv80ZeZRwflWH8iKKfgX3Kef3g1_6kDO-9ZBNcbTNovOYRpLrSg2fB6oRFxzd-WFzd9EsZRFHEsFOJpBAx-svRbl3dybpkFb-ExadexEgdlPJydQqo_LdgoSxhVPdM8-na8QfOmcTnLS18d6JBxiemFL3nRQjgkwHiTYTY9LtjYl7Wvvl68b_CHE7J7px5zSc7SVyxR886XtX51SVpcR3GieUXDcivtXyIlPOrv3DngaztcWBbRmNb6r7dcwgAa4odgbTPwR0zZ_w-fpBzWmVzpI9BskGY9iBKa-nCQyezbaatDqlrVGjKLKs-TS4PIY8jJ8JbbNKJevZpf2OKnfK9OlDTOMHx9mMWgGnMZPIdNLNIm4E94_6nwlZTwVOlPm2gMaXKpRBml8Tufy0]--></g></svg>