<?xml version="1.0" encoding="us-ascii" standalone="no"?><svg xmlns="http://www.w3.org/2000/svg" xmlns:xlink="http://www.w3.org/1999/xlink" contentStyleType="text/css" height="394px" preserveAspectRatio="none" style="width:997px;height:394px;background:#FFFFFF;" version="1.1" viewBox="0 0 997 394" width="997px" zoomAndPan="magnify"><defs/><g><rect fill="none" height="133.6641" style="stroke:#000000;stroke-width:1.5;" width="981.5" x="10" y="53.2969"/><rect fill="none" height="75.3984" style="stroke:#000000;stroke-width:1.5;" width="640" x="10" y="200.9609"/><line style="stroke:#181818;stroke-width:0.5;stroke-dasharray:5.0,5.0;" x1="51" x2="51" y1="36.2969" y2="358.7578"/><line style="stroke:#181818;stroke-width:0.5;stroke-dasharray:5.0,5.0;" x1="611" x2="611" y1="36.2969" y2="358.7578"/><line style="stroke:#181818;stroke-width:0.5;stroke-dasharray:5.0,5.0;" x1="949.5" x2="949.5" y1="36.2969" y2="358.7578"/><rect fill="#E2E2F0" height="30.2969" rx="2.5" ry="2.5" style="stroke:#181818;stroke-width:0.5;" width="62" x="20" y="5"/><text fill="#000000" font-family="sans-serif" font-size="14" lengthAdjust="spacing" textLength="48" x="27" y="24.9951">ClientA</text><rect fill="#E2E2F0" height="30.2969" rx="2.5" ry="2.5" style="stroke:#181818;stroke-width:0.5;" width="62" x="20" y="357.7578"/><text fill="#000000" font-family="sans-serif" font-size="14" lengthAdjust="spacing" textLength="48" x="27" y="377.7529">ClientA</text><rect fill="#E2E2F0" height="30.2969" rx="2.5" ry="2.5" style="stroke:#181818;stroke-width:0.5;" width="58" x="582" y="5"/><text fill="#000000" font-family="sans-serif" font-size="14" lengthAdjust="spacing" textLength="44" x="589" y="24.9951">Server</text><rect fill="#E2E2F0" height="30.2969" rx="2.5" ry="2.5" style="stroke:#181818;stroke-width:0.5;" width="58" x="582" y="357.7578"/><text fill="#000000" font-family="sans-serif" font-size="14" lengthAdjust="spacing" textLength="44" x="589" y="377.7529">Server</text><rect fill="#E2E2F0" height="30.2969" rx="2.5" ry="2.5" style="stroke:#181818;stroke-width:0.5;" width="63" x="918.5" y="5"/><text fill="#000000" font-family="sans-serif" font-size="14" lengthAdjust="spacing" textLength="49" x="925.5" y="24.9951">ClientB</text><rect fill="#E2E2F0" height="30.2969" rx="2.5" ry="2.5" style="stroke:#181818;stroke-width:0.5;" width="63" x="918.5" y="357.7578"/><text fill="#000000" font-family="sans-serif" font-size="14" lengthAdjust="spacing" textLength="49" x="925.5" y="377.7529">ClientB</text><path d="M10,53.2969 L188,53.2969 L188,60.4297 L178,70.4297 L10,70.4297 L10,53.2969 " fill="#EEEEEE" style="stroke:#000000;stroke-width:1.5;"/><rect fill="none" height="133.6641" style="stroke:#000000;stroke-width:1.5;" width="981.5" x="10" y="53.2969"/><text fill="#000000" font-family="sans-serif" font-size="13" font-weight="bold" lengthAdjust="spacing" textLength="128" x="25" y="66.3638">Choose Objective</text><text fill="#000000" font-family="sans-serif" font-size="11" font-weight="bold" lengthAdjust="spacing" textLength="25" x="203" y="65.5073">[ok]</text><polygon fill="#181818" points="599,87.5625,609,91.5625,599,95.5625,603,91.5625" style="stroke:#181818;stroke-width:1.0;"/><line style="stroke:#181818;stroke-width:1.0;" x1="51" x2="605" y1="91.5625" y2="91.5625"/><text fill="#000000" font-family="sans-serif" font-size="13" lengthAdjust="spacing" textLength="242" x="58" y="86.4966">setPlayerObjective(playerName, card)</text><polygon fill="#181818" points="62,116.6953,52,120.6953,62,124.6953,58,120.6953" style="stroke:#181818;stroke-width:1.0;"/><line style="stroke:#181818;stroke-width:1.0;" x1="56" x2="610" y1="120.6953" y2="120.6953"/><text fill="#000000" font-family="sans-serif" font-size="13" lengthAdjust="spacing" textLength="125" x="68" y="115.6294">{status: "success"}</text><polygon fill="#181818" points="622,145.8281,612,149.8281,622,153.8281,618,149.8281" style="stroke:#181818;stroke-width:1.0;"/><line style="stroke:#181818;stroke-width:1.0;" x1="616" x2="949" y1="149.8281" y2="149.8281"/><text fill="#000000" font-family="sans-serif" font-size="13" lengthAdjust="spacing" textLength="242" x="628" y="144.7622">setPlayerObjective(playerName, card)</text><polygon fill="#181818" points="938,174.9609,948,178.9609,938,182.9609,942,178.9609" style="stroke:#181818;stroke-width:1.0;"/><line style="stroke:#181818;stroke-width:1.0;" x1="611" x2="944" y1="178.9609" y2="178.9609"/><text fill="#000000" font-family="sans-serif" font-size="13" lengthAdjust="spacing" textLength="315" x="618" y="173.895">{status: failed, message: "It's not ClientB's turn"}</text><path d="M10,200.9609 L188,200.9609 L188,208.0938 L178,218.0938 L10,218.0938 L10,200.9609 " fill="#EEEEEE" style="stroke:#000000;stroke-width:1.5;"/><rect fill="none" height="75.3984" style="stroke:#000000;stroke-width:1.5;" width="640" x="10" y="200.9609"/><text fill="#000000" font-family="sans-serif" font-size="13" font-weight="bold" lengthAdjust="spacing" textLength="128" x="25" y="214.0278">Choose Objective</text><text fill="#000000" font-family="sans-serif" font-size="11" font-weight="bold" lengthAdjust="spacing" textLength="219" x="203" y="213.1714">[failed due to wrong game status]</text><polygon fill="#181818" points="599,235.2266,609,239.2266,599,243.2266,603,239.2266" style="stroke:#181818;stroke-width:1.0;"/><line style="stroke:#181818;stroke-width:1.0;" x1="51" x2="605" y1="239.2266" y2="239.2266"/><text fill="#000000" font-family="sans-serif" font-size="13" lengthAdjust="spacing" textLength="242" x="58" y="234.1606">setPlayerObjective(playerName, card)</text><polygon fill="#181818" points="62,264.3594,52,268.3594,62,272.3594,58,268.3594" style="stroke:#181818;stroke-width:1.0;"/><line style="stroke:#181818;stroke-width:1.0;" x1="56" x2="610" y1="268.3594" y2="268.3594"/><text fill="#000000" font-family="sans-serif" font-size="13" lengthAdjust="spacing" textLength="536" x="68" y="263.2935">{status: "failed", message: "Cannot choose Objective Card in current game status"}</text><path d="M56,288.3594 L56,343.3594 L417,343.3594 L417,298.3594 L407,288.3594 L56,288.3594 " fill="#FEFFDD" style="stroke:#181818;stroke-width:0.5;"/><path d="M407,288.3594 L407,298.3594 L417,298.3594 L407,288.3594 " fill="#FEFFDD" style="stroke:#181818;stroke-width:0.5;"/><text fill="#000000" font-family="sans-serif" font-size="13" lengthAdjust="spacing" textLength="261" x="62" y="305.4263">IDEA: per non duplicare msg, si potrebbe</text><text fill="#000000" font-family="sans-serif" font-size="13" lengthAdjust="spacing" textLength="242" x="62" y="320.5591">SUCCESS -&gt; invio indietro VirtualView</text><text fill="#000000" font-family="sans-serif" font-size="13" lengthAdjust="spacing" textLength="340" x="62" y="335.6919">FAILED -&gt; invio indietro specifico messaggio di errore</text><!--SRC=[hP71IiD048RlUOgX5nNg2-GWj6c5WAXGx4KyR3VJxMYw4sPtMqHyToT98q4K3xg7XM5dvl_-VvrmQg3OCGU4kyqpsaW7X4T-USf0Jr4J-ZY3oojOeHnG88U0yRushoYV_UTDLz-QFKx16gakkk7JXCuEQt9u2z7457AOX6GjXZ1v7mdD_qTeFXRQ6ggnci9UnOn3LIxZMG3FSUZMAYRnIeA-oZBtGoRz8gWIGcGu2di7JacWL-e3-rjYlqJM4qp6NWhZMoVsAssXEu4ys2IYUyQWWyzC1n64t2u2RmV1ZgDSB6SvD4hYsQlZfYQ5HDW7DuL0q70Kt6omJ_-XA9QhLGjD_a2iTqKOXM5D4fEfruJ7hlDwLjui5zyqXWOjRSdooPdJnue0HLYmfMs_2py0]--></g></svg>