<?xml version="1.0" encoding="us-ascii" standalone="no"?><svg xmlns="http://www.w3.org/2000/svg" xmlns:xlink="http://www.w3.org/1999/xlink" contentStyleType="text/css" height="483px" preserveAspectRatio="none" style="width:980px;height:483px;background:#FFFFFF;" version="1.1" viewBox="0 0 980 483" width="980px" zoomAndPan="magnify"><defs/><g><rect fill="none" height="133.6641" style="stroke:#000000;stroke-width:1.5;" width="964.5" x="10" y="53.2969"/><rect fill="none" height="75.3984" style="stroke:#000000;stroke-width:1.5;" width="623" x="10" y="200.9609"/><rect fill="none" height="75.3984" style="stroke:#000000;stroke-width:1.5;" width="623" x="10" y="290.3594"/><line style="stroke:#181818;stroke-width:0.5;stroke-dasharray:5.0,5.0;" x1="51" x2="51" y1="36.2969" y2="448.1563"/><line style="stroke:#181818;stroke-width:0.5;stroke-dasharray:5.0,5.0;" x1="594" x2="594" y1="36.2969" y2="448.1563"/><line style="stroke:#181818;stroke-width:0.5;stroke-dasharray:5.0,5.0;" x1="932.5" x2="932.5" y1="36.2969" y2="448.1563"/><rect fill="#E2E2F0" height="30.2969" rx="2.5" ry="2.5" style="stroke:#181818;stroke-width:0.5;" width="62" x="20" y="5"/><text fill="#000000" font-family="sans-serif" font-size="14" lengthAdjust="spacing" textLength="48" x="27" y="24.9951">ClientA</text><rect fill="#E2E2F0" height="30.2969" rx="2.5" ry="2.5" style="stroke:#181818;stroke-width:0.5;" width="62" x="20" y="447.1563"/><text fill="#000000" font-family="sans-serif" font-size="14" lengthAdjust="spacing" textLength="48" x="27" y="467.1514">ClientA</text><rect fill="#E2E2F0" height="30.2969" rx="2.5" ry="2.5" style="stroke:#181818;stroke-width:0.5;" width="58" x="565" y="5"/><text fill="#000000" font-family="sans-serif" font-size="14" lengthAdjust="spacing" textLength="44" x="572" y="24.9951">Server</text><rect fill="#E2E2F0" height="30.2969" rx="2.5" ry="2.5" style="stroke:#181818;stroke-width:0.5;" width="58" x="565" y="447.1563"/><text fill="#000000" font-family="sans-serif" font-size="14" lengthAdjust="spacing" textLength="44" x="572" y="467.1514">Server</text><rect fill="#E2E2F0" height="30.2969" rx="2.5" ry="2.5" style="stroke:#181818;stroke-width:0.5;" width="63" x="901.5" y="5"/><text fill="#000000" font-family="sans-serif" font-size="14" lengthAdjust="spacing" textLength="49" x="908.5" y="24.9951">ClientB</text><rect fill="#E2E2F0" height="30.2969" rx="2.5" ry="2.5" style="stroke:#181818;stroke-width:0.5;" width="63" x="901.5" y="447.1563"/><text fill="#000000" font-family="sans-serif" font-size="14" lengthAdjust="spacing" textLength="49" x="908.5" y="467.1514">ClientB</text><path d="M10,53.2969 L208,53.2969 L208,60.4297 L198,70.4297 L10,70.4297 L10,53.2969 " fill="#EEEEEE" style="stroke:#000000;stroke-width:1.5;"/><rect fill="none" height="133.6641" style="stroke:#000000;stroke-width:1.5;" width="964.5" x="10" y="53.2969"/><text fill="#000000" font-family="sans-serif" font-size="13" font-weight="bold" lengthAdjust="spacing" textLength="148" x="25" y="66.3638">Choose Player Color</text><text fill="#000000" font-family="sans-serif" font-size="11" font-weight="bold" lengthAdjust="spacing" textLength="240" x="223" y="65.5073">[ok &amp; failed due to unallowed player]</text><polygon fill="#181818" points="582,87.5625,592,91.5625,582,95.5625,586,91.5625" style="stroke:#181818;stroke-width:1.0;"/><line style="stroke:#181818;stroke-width:1.0;" x1="51" x2="588" y1="91.5625" y2="91.5625"/><text fill="#000000" font-family="sans-serif" font-size="13" lengthAdjust="spacing" textLength="286" x="58" y="86.4966">choosePlayerColor(playerName, playerColor)</text><polygon fill="#181818" points="62,116.6953,52,120.6953,62,124.6953,58,120.6953" style="stroke:#181818;stroke-width:1.0;"/><line style="stroke:#181818;stroke-width:1.0;" x1="56" x2="593" y1="120.6953" y2="120.6953"/><text fill="#000000" font-family="sans-serif" font-size="13" lengthAdjust="spacing" textLength="125" x="68" y="115.6294">{status: "success"}</text><polygon fill="#181818" points="605,145.8281,595,149.8281,605,153.8281,601,149.8281" style="stroke:#181818;stroke-width:1.0;"/><line style="stroke:#181818;stroke-width:1.0;" x1="599" x2="932" y1="149.8281" y2="149.8281"/><text fill="#000000" font-family="sans-serif" font-size="13" lengthAdjust="spacing" textLength="290" x="611" y="144.7622">choosePlayerColor(gameName, playerName)</text><polygon fill="#181818" points="921,174.9609,931,178.9609,921,182.9609,925,178.9609" style="stroke:#181818;stroke-width:1.0;"/><line style="stroke:#181818;stroke-width:1.0;" x1="594" x2="927" y1="178.9609" y2="178.9609"/><text fill="#000000" font-family="sans-serif" font-size="13" lengthAdjust="spacing" textLength="315" x="601" y="173.895">{status: failed, message: "It's not ClientB's turn"}</text><path d="M10,200.9609 L208,200.9609 L208,208.0938 L198,218.0938 L10,218.0938 L10,200.9609 " fill="#EEEEEE" style="stroke:#000000;stroke-width:1.5;"/><rect fill="none" height="75.3984" style="stroke:#000000;stroke-width:1.5;" width="623" x="10" y="200.9609"/><text fill="#000000" font-family="sans-serif" font-size="13" font-weight="bold" lengthAdjust="spacing" textLength="148" x="25" y="214.0278">Choose Player Color</text><text fill="#000000" font-family="sans-serif" font-size="11" font-weight="bold" lengthAdjust="spacing" textLength="219" x="223" y="213.1714">[failed due to wrong game status]</text><polygon fill="#181818" points="582,235.2266,592,239.2266,582,243.2266,586,239.2266" style="stroke:#181818;stroke-width:1.0;"/><line style="stroke:#181818;stroke-width:1.0;" x1="51" x2="588" y1="239.2266" y2="239.2266"/><text fill="#000000" font-family="sans-serif" font-size="13" lengthAdjust="spacing" textLength="286" x="58" y="234.1606">choosePlayerColor(playerName, playerColor)</text><polygon fill="#181818" points="62,264.3594,52,268.3594,62,272.3594,58,268.3594" style="stroke:#181818;stroke-width:1.0;"/><line style="stroke:#181818;stroke-width:1.0;" x1="56" x2="593" y1="268.3594" y2="268.3594"/><text fill="#000000" font-family="sans-serif" font-size="13" lengthAdjust="spacing" textLength="519" x="68" y="263.2935">{status: "failed", message: "Cannot choose Player Color in current game status"}</text><path d="M10,290.3594 L208,290.3594 L208,297.4922 L198,307.4922 L10,307.4922 L10,290.3594 " fill="#EEEEEE" style="stroke:#000000;stroke-width:1.5;"/><rect fill="none" height="75.3984" style="stroke:#000000;stroke-width:1.5;" width="623" x="10" y="290.3594"/><text fill="#000000" font-family="sans-serif" font-size="13" font-weight="bold" lengthAdjust="spacing" textLength="148" x="25" y="303.4263">Choose Player Color</text><text fill="#000000" font-family="sans-serif" font-size="11" font-weight="bold" lengthAdjust="spacing" textLength="213" x="223" y="302.5698">[failed due color already chosen]</text><polygon fill="#181818" points="582,324.625,592,328.625,582,332.625,586,328.625" style="stroke:#181818;stroke-width:1.0;"/><line style="stroke:#181818;stroke-width:1.0;" x1="51" x2="588" y1="328.625" y2="328.625"/><text fill="#000000" font-family="sans-serif" font-size="13" lengthAdjust="spacing" textLength="286" x="58" y="323.5591">choosePlayerColor(playerName, playerColor)</text><polygon fill="#181818" points="62,353.7578,52,357.7578,62,361.7578,58,357.7578" style="stroke:#181818;stroke-width:1.0;"/><line style="stroke:#181818;stroke-width:1.0;" x1="56" x2="593" y1="357.7578" y2="357.7578"/><text fill="#000000" font-family="sans-serif" font-size="13" lengthAdjust="spacing" textLength="368" x="68" y="352.6919">{status: "failed", message: "This color is already chosen"}</text><path d="M599,377.7578 L599,432.7578 L911,432.7578 L911,387.7578 L901,377.7578 L599,377.7578 " fill="#00FFFF" style="stroke:#181818;stroke-width:0.5;"/><path d="M901,377.7578 L901,387.7578 L911,387.7578 L901,377.7578 " fill="#00FFFF" style="stroke:#181818;stroke-width:0.5;"/><text fill="#000000" font-family="sans-serif" font-size="13" lengthAdjust="spacing" textLength="268" x="605" y="394.8247">Serve una classe Connection che associ a</text><text fill="#000000" font-family="sans-serif" font-size="13" lengthAdjust="spacing" textLength="256" x="605" y="409.9575">un gameName la connessione del client</text><text fill="#000000" font-family="sans-serif" font-size="13" lengthAdjust="spacing" textLength="291" x="605" y="425.0903">per sapere QUALE gameController chiamare?</text><!--SRC=[nL9BImCn4Bxlh_Yeu0Fg7-X1gOi7GKHHJ-9Xo4vtWsbIyx0KyRyxoNPX2vKY2EuX9BCptujflKihr9rpWN5lQCCUjJFEuyMzuHWBqeORD8aH7P8bOznQ2glI-bf1ljfejd6EymiyilyGX1bKGUm12zvfFt57Ivvkfqlzh41ivmHX09lXCqIAASmm2Kaf3c7oDQAxEa3N2j6OBD_tSrsDkNg_Koo5ZreMyfju4c1T7Bhb5PEt8ePjKrNjpm7kPhVsphR8ij2JzU7zHNe7ukjrJCQcQhBPajeZMrkevBsWZCN-pgug5JAUgTbabi3sF-q-TJfiHSbbLzVWh99065wtNOHR31n7z9weAe-y_L26WZYldRMiedOILiUGcbCQL2MBOV5Wf3ktXI1jZ8QDJ6UvrKg00yd9U7YUtrwN6O6CtXaZ_rIdQKcUBxEol7ly3G00]--></g></svg>