<?xml version="1.0" encoding="us-ascii" standalone="no"?><svg xmlns="http://www.w3.org/2000/svg" xmlns:xlink="http://www.w3.org/1999/xlink" contentStyleType="text/css" height="394px" preserveAspectRatio="none" style="width:978px;height:394px;background:#FFFFFF;" version="1.1" viewBox="0 0 978 394" width="978px" zoomAndPan="magnify"><defs/><g><rect fill="none" height="133.6641" style="stroke:#000000;stroke-width:1.5;" width="962.5" x="10" y="53.2969"/><rect fill="none" height="75.3984" style="stroke:#000000;stroke-width:1.5;" width="621" x="10" y="200.9609"/><line style="stroke:#181818;stroke-width:0.5;stroke-dasharray:5.0,5.0;" x1="51" x2="51" y1="36.2969" y2="358.7578"/><line style="stroke:#181818;stroke-width:0.5;stroke-dasharray:5.0,5.0;" x1="592" x2="592" y1="36.2969" y2="358.7578"/><line style="stroke:#181818;stroke-width:0.5;stroke-dasharray:5.0,5.0;" x1="930.5" x2="930.5" y1="36.2969" y2="358.7578"/><rect fill="#E2E2F0" height="30.2969" rx="2.5" ry="2.5" style="stroke:#181818;stroke-width:0.5;" width="62" x="20" y="5"/><text fill="#000000" font-family="sans-serif" font-size="14" lengthAdjust="spacing" textLength="48" x="27" y="24.9951">ClientA</text><rect fill="#E2E2F0" height="30.2969" rx="2.5" ry="2.5" style="stroke:#181818;stroke-width:0.5;" width="62" x="20" y="357.7578"/><text fill="#000000" font-family="sans-serif" font-size="14" lengthAdjust="spacing" textLength="48" x="27" y="377.7529">ClientA</text><rect fill="#E2E2F0" height="30.2969" rx="2.5" ry="2.5" style="stroke:#181818;stroke-width:0.5;" width="58" x="563" y="5"/><text fill="#000000" font-family="sans-serif" font-size="14" lengthAdjust="spacing" textLength="44" x="570" y="24.9951">Server</text><rect fill="#E2E2F0" height="30.2969" rx="2.5" ry="2.5" style="stroke:#181818;stroke-width:0.5;" width="58" x="563" y="357.7578"/><text fill="#000000" font-family="sans-serif" font-size="14" lengthAdjust="spacing" textLength="44" x="570" y="377.7529">Server</text><rect fill="#E2E2F0" height="30.2969" rx="2.5" ry="2.5" style="stroke:#181818;stroke-width:0.5;" width="63" x="899.5" y="5"/><text fill="#000000" font-family="sans-serif" font-size="14" lengthAdjust="spacing" textLength="49" x="906.5" y="24.9951">ClientB</text><rect fill="#E2E2F0" height="30.2969" rx="2.5" ry="2.5" style="stroke:#181818;stroke-width:0.5;" width="63" x="899.5" y="357.7578"/><text fill="#000000" font-family="sans-serif" font-size="14" lengthAdjust="spacing" textLength="49" x="906.5" y="377.7529">ClientB</text><path d="M10,53.2969 L208,53.2969 L208,60.4297 L198,70.4297 L10,70.4297 L10,53.2969 " fill="#EEEEEE" style="stroke:#000000;stroke-width:1.5;"/><rect fill="none" height="133.6641" style="stroke:#000000;stroke-width:1.5;" width="962.5" x="10" y="53.2969"/><text fill="#000000" font-family="sans-serif" font-size="13" font-weight="bold" lengthAdjust="spacing" textLength="148" x="25" y="66.3638">Choose Player Color</text><text fill="#000000" font-family="sans-serif" font-size="11" font-weight="bold" lengthAdjust="spacing" textLength="240" x="223" y="65.5073">[ok &amp; failed due to unallowed player]</text><polygon fill="#181818" points="580,87.5625,590,91.5625,580,95.5625,584,91.5625" style="stroke:#181818;stroke-width:1.0;"/><line style="stroke:#181818;stroke-width:1.0;" x1="51" x2="586" y1="91.5625" y2="91.5625"/><text fill="#000000" font-family="sans-serif" font-size="13" lengthAdjust="spacing" textLength="286" x="58" y="86.4966">choosePlayerColor(playerName, playerColor)</text><polygon fill="#181818" points="62,116.6953,52,120.6953,62,124.6953,58,120.6953" style="stroke:#181818;stroke-width:1.0;"/><line style="stroke:#181818;stroke-width:1.0;" x1="56" x2="591" y1="120.6953" y2="120.6953"/><text fill="#000000" font-family="sans-serif" font-size="13" lengthAdjust="spacing" textLength="125" x="68" y="115.6294">{status: "success"}</text><polygon fill="#181818" points="603,145.8281,593,149.8281,603,153.8281,599,149.8281" style="stroke:#181818;stroke-width:1.0;"/><line style="stroke:#181818;stroke-width:1.0;" x1="597" x2="930" y1="149.8281" y2="149.8281"/><text fill="#000000" font-family="sans-serif" font-size="13" lengthAdjust="spacing" textLength="290" x="609" y="144.7622">choosePlayerColor(gameName, playerName)</text><polygon fill="#181818" points="919,174.9609,929,178.9609,919,182.9609,923,178.9609" style="stroke:#181818;stroke-width:1.0;"/><line style="stroke:#181818;stroke-width:1.0;" x1="592" x2="925" y1="178.9609" y2="178.9609"/><text fill="#000000" font-family="sans-serif" font-size="13" lengthAdjust="spacing" textLength="315" x="599" y="173.895">{status: failed, message: "It's not ClientB's turn"}</text><path d="M10,200.9609 L208,200.9609 L208,208.0938 L198,218.0938 L10,218.0938 L10,200.9609 " fill="#EEEEEE" style="stroke:#000000;stroke-width:1.5;"/><rect fill="none" height="75.3984" style="stroke:#000000;stroke-width:1.5;" width="621" x="10" y="200.9609"/><text fill="#000000" font-family="sans-serif" font-size="13" font-weight="bold" lengthAdjust="spacing" textLength="148" x="25" y="214.0278">Choose Player Color</text><text fill="#000000" font-family="sans-serif" font-size="11" font-weight="bold" lengthAdjust="spacing" textLength="219" x="223" y="213.1714">[failed due to wrong game status]</text><polygon fill="#181818" points="580,235.2266,590,239.2266,580,243.2266,584,239.2266" style="stroke:#181818;stroke-width:1.0;"/><line style="stroke:#181818;stroke-width:1.0;" x1="51" x2="586" y1="239.2266" y2="239.2266"/><text fill="#000000" font-family="sans-serif" font-size="13" lengthAdjust="spacing" textLength="286" x="58" y="234.1606">choosePlayerColor(playerName, playerColor)</text><polygon fill="#181818" points="62,264.3594,52,268.3594,62,272.3594,58,268.3594" style="stroke:#181818;stroke-width:1.0;"/><line style="stroke:#181818;stroke-width:1.0;" x1="56" x2="591" y1="268.3594" y2="268.3594"/><text fill="#000000" font-family="sans-serif" font-size="13" lengthAdjust="spacing" textLength="517" x="68" y="263.2935">{status: "failed", message: "Cannot choose player color in current game status"}</text><path d="M597,288.3594 L597,343.3594 L909,343.3594 L909,298.3594 L899,288.3594 L597,288.3594 " fill="#00FFFF" style="stroke:#181818;stroke-width:0.5;"/><path d="M899,288.3594 L899,298.3594 L909,298.3594 L899,288.3594 " fill="#00FFFF" style="stroke:#181818;stroke-width:0.5;"/><text fill="#000000" font-family="sans-serif" font-size="13" lengthAdjust="spacing" textLength="268" x="603" y="305.4263">Serve una classe Connection che associ a</text><text fill="#000000" font-family="sans-serif" font-size="13" lengthAdjust="spacing" textLength="256" x="603" y="320.5591">un gameName la connessione del client</text><text fill="#000000" font-family="sans-serif" font-size="13" lengthAdjust="spacing" textLength="291" x="603" y="335.6919">per sapere QUALE gameController chiamare?</text><!--SRC=[hP9FImCn4CNl-HIF2lw1-WLwKDh5Wo2YY2Vn4BBJtT0qK_F78k9tTvBjmWfAB-vXsGppVk_DPBl0UOUcPuw41wS_AA1Xnm4llC4frjewQj5cGc9ahvtZlHHsjVLLGPx6MV9fYSihF55u5y82fX87OEMT3ufxlQNvGLth5nLnq0bXX2tm6PDEEIumYzaOYd7sDR5R7R7hn6XgLhv_zrfDlOPvvzYAd-v8p6_JMOJdD7RBAUNW9GpvLgdkxmN-tDq-iEzGOc4m6vRt7zixihuXnsmwLADz6MdmEG1XQcphON88Gfc67STL8YC4s_K9l1wDJ_HRrgeUoZy2utGKRiFUaqcM1TaJfCR6GgliCLuFd7INjXYbZT2I4tMPGUq47BMy2O_FoxkRgX5a2knSYTjRlTM1hakoSaFq3G00]--></g></svg>