<?xml version="1.0" encoding="us-ascii" standalone="no"?><svg xmlns="http://www.w3.org/2000/svg" xmlns:xlink="http://www.w3.org/1999/xlink" contentStyleType="text/css" height="428px" preserveAspectRatio="none" style="width:997px;height:428px;background:#FFFFFF;" version="1.1" viewBox="0 0 997 428" width="997px" zoomAndPan="magnify"><defs/><g><rect fill="none" height="199.9297" style="stroke:#000000;stroke-width:1.5;" width="981.5" x="10" y="53.2969"/><rect fill="none" height="108.5313" style="stroke:#000000;stroke-width:1.5;" width="884" x="10" y="267.2266"/><line style="stroke:#181818;stroke-width:0.5;stroke-dasharray:5.0,5.0;" x1="51" x2="51" y1="36.2969" y2="392.7578"/><line style="stroke:#181818;stroke-width:0.5;stroke-dasharray:5.0,5.0;" x1="611" x2="611" y1="36.2969" y2="392.7578"/><line style="stroke:#181818;stroke-width:0.5;stroke-dasharray:5.0,5.0;" x1="949.5" x2="949.5" y1="36.2969" y2="392.7578"/><rect fill="#E2E2F0" height="30.2969" rx="2.5" ry="2.5" style="stroke:#181818;stroke-width:0.5;" width="62" x="20" y="5"/><text fill="#000000" font-family="sans-serif" font-size="14" lengthAdjust="spacing" textLength="48" x="27" y="24.9951">ClientA</text><rect fill="#E2E2F0" height="30.2969" rx="2.5" ry="2.5" style="stroke:#181818;stroke-width:0.5;" width="62" x="20" y="391.7578"/><text fill="#000000" font-family="sans-serif" font-size="14" lengthAdjust="spacing" textLength="48" x="27" y="411.7529">ClientA</text><rect fill="#E2E2F0" height="30.2969" rx="2.5" ry="2.5" style="stroke:#181818;stroke-width:0.5;" width="58" x="582" y="5"/><text fill="#000000" font-family="sans-serif" font-size="14" lengthAdjust="spacing" textLength="44" x="589" y="24.9951">Server</text><rect fill="#E2E2F0" height="30.2969" rx="2.5" ry="2.5" style="stroke:#181818;stroke-width:0.5;" width="58" x="582" y="391.7578"/><text fill="#000000" font-family="sans-serif" font-size="14" lengthAdjust="spacing" textLength="44" x="589" y="411.7529">Server</text><rect fill="#E2E2F0" height="30.2969" rx="2.5" ry="2.5" style="stroke:#181818;stroke-width:0.5;" width="63" x="918.5" y="5"/><text fill="#000000" font-family="sans-serif" font-size="14" lengthAdjust="spacing" textLength="49" x="925.5" y="24.9951">ClientB</text><rect fill="#E2E2F0" height="30.2969" rx="2.5" ry="2.5" style="stroke:#181818;stroke-width:0.5;" width="63" x="918.5" y="391.7578"/><text fill="#000000" font-family="sans-serif" font-size="14" lengthAdjust="spacing" textLength="49" x="925.5" y="411.7529">ClientB</text><path d="M10,53.2969 L188,53.2969 L188,60.4297 L178,70.4297 L10,70.4297 L10,53.2969 " fill="#EEEEEE" style="stroke:#000000;stroke-width:1.5;"/><rect fill="none" height="199.9297" style="stroke:#000000;stroke-width:1.5;" width="981.5" x="10" y="53.2969"/><text fill="#000000" font-family="sans-serif" font-size="13" font-weight="bold" lengthAdjust="spacing" textLength="128" x="25" y="66.3638">Choose Objective</text><text fill="#000000" font-family="sans-serif" font-size="11" font-weight="bold" lengthAdjust="spacing" textLength="25" x="203" y="65.5073">[ok]</text><polygon fill="#181818" points="599,87.5625,609,91.5625,599,95.5625,603,91.5625" style="stroke:#181818;stroke-width:1.0;"/><line style="stroke:#181818;stroke-width:1.0;" x1="51" x2="605" y1="91.5625" y2="91.5625"/><text fill="#000000" font-family="sans-serif" font-size="13" lengthAdjust="spacing" textLength="242" x="58" y="86.4966">setPlayerObjective(playerName, card)</text><rect fill="#D3D3D3" height="23" style="stroke:#181818;stroke-width:0.5;" width="546" x="338" y="104.5625"/><text fill="#000000" font-family="sans-serif" font-size="13" lengthAdjust="spacing" textLength="538" x="342" y="120.6294">MainController.gameControllerMiddleWares[x].setPlayerObjective(playerName, card)</text><polygon fill="#181818" points="62,149.8281,52,153.8281,62,157.8281,58,153.8281" style="stroke:#181818;stroke-width:1.0;"/><line style="stroke:#181818;stroke-width:1.0;" x1="56" x2="610" y1="153.8281" y2="153.8281"/><text fill="#000000" font-family="sans-serif" font-size="13" lengthAdjust="spacing" textLength="250" x="68" y="148.7622">{status: "success"}, VirtualViewUpdate</text><polygon fill="#181818" points="622,178.9609,612,182.9609,622,186.9609,618,182.9609" style="stroke:#181818;stroke-width:1.0;"/><line style="stroke:#181818;stroke-width:1.0;" x1="616" x2="949" y1="182.9609" y2="182.9609"/><text fill="#000000" font-family="sans-serif" font-size="13" lengthAdjust="spacing" textLength="242" x="628" y="177.895">setPlayerObjective(playerName, card)</text><rect fill="#D3D3D3" height="23" style="stroke:#181818;stroke-width:0.5;" width="509" x="356" y="195.9609"/><text fill="#000000" font-family="sans-serif" font-size="13" lengthAdjust="spacing" textLength="501" x="360" y="212.0278">MainController.gameControllerMiddleWares[x].validatePlayerTurn(playerName)</text><polygon fill="#181818" points="938,241.2266,948,245.2266,938,249.2266,942,245.2266" style="stroke:#181818;stroke-width:1.0;"/><line style="stroke:#181818;stroke-width:1.0;" x1="611" x2="944" y1="245.2266" y2="245.2266"/><text fill="#000000" font-family="sans-serif" font-size="13" lengthAdjust="spacing" textLength="315" x="618" y="240.1606">{status: failed, message: "It's not ClientB's turn"}</text><path d="M10,267.2266 L188,267.2266 L188,274.3594 L178,284.3594 L10,284.3594 L10,267.2266 " fill="#EEEEEE" style="stroke:#000000;stroke-width:1.5;"/><rect fill="none" height="108.5313" style="stroke:#000000;stroke-width:1.5;" width="884" x="10" y="267.2266"/><text fill="#000000" font-family="sans-serif" font-size="13" font-weight="bold" lengthAdjust="spacing" textLength="128" x="25" y="280.2935">Choose Objective</text><text fill="#000000" font-family="sans-serif" font-size="11" font-weight="bold" lengthAdjust="spacing" textLength="219" x="203" y="279.437">[failed due to wrong game status]</text><polygon fill="#181818" points="599,301.4922,609,305.4922,599,309.4922,603,305.4922" style="stroke:#181818;stroke-width:1.0;"/><line style="stroke:#181818;stroke-width:1.0;" x1="51" x2="605" y1="305.4922" y2="305.4922"/><text fill="#000000" font-family="sans-serif" font-size="13" lengthAdjust="spacing" textLength="242" x="58" y="300.4263">setPlayerObjective(playerName, card)</text><rect fill="#D3D3D3" height="23" style="stroke:#181818;stroke-width:0.5;" width="546" x="338" y="318.4922"/><text fill="#000000" font-family="sans-serif" font-size="13" lengthAdjust="spacing" textLength="538" x="342" y="334.5591">MainController.gameControllerMiddleWares[x].setPlayerObjective(playerName, card)</text><polygon fill="#181818" points="62,363.7578,52,367.7578,62,371.7578,58,367.7578" style="stroke:#181818;stroke-width:1.0;"/><line style="stroke:#181818;stroke-width:1.0;" x1="56" x2="610" y1="367.7578" y2="367.7578"/><text fill="#000000" font-family="sans-serif" font-size="13" lengthAdjust="spacing" textLength="536" x="68" y="362.6919">{status: "failed", message: "Cannot choose Objective Card in current game status"}</text><!--SRC=[nLBDIWCn4BxlKmphGOMr3x07mUx9GrLGww7q49CnZQR9CfbiBT9tDzkqkeYYuA6v3UJxvTFaOmlDmlk0SFtuZ99DXp3pB_C2qckiGSSNS7OEjqWT4jGGa6-iM2Dz_3zfj_ULM685Kf0wtOB9UKRmFMe7Fh96BrWJhXFFH1ZNUCVahKKQwOJ-F2T6AOiFWZ3CNkUZFslkX9BVlVKQtW8BZg66CaGfCOHoKy7K44TXfmPNzwqIZ8EyuuFdxOGrlQaiV1V93JI_JpeU9dqIngAgO9dI2eqf-YKV1qW6zx_JnOcst1JeL57e7uQGYK151FQm8kyqzCuXA-ML_6yc1zd9BqF9iSjXWOrmVNtoQqLDuWJZG4QYn3Di9vVx3W00]--></g></svg>