<svg xmlns="http://www.w3.org/2000/svg" xmlns:xlink="http://www.w3.org/1999/xlink" contentStyleType="text/css" height="704px" preserveAspectRatio="none" style="width:657px;height:704px;background:#FFFFFF;" version="1.1" viewBox="0 0 657 704" width="657px" zoomAndPan="magnify"><defs/><g><rect fill="none" height="108.5313" style="stroke:#000000;stroke-width:1.5;" width="641" x="10" y="53.2969"/><rect fill="none" height="108.5313" style="stroke:#000000;stroke-width:1.5;" width="641" x="10" y="175.8281"/><rect fill="none" height="108.5313" style="stroke:#000000;stroke-width:1.5;" width="641" x="10" y="298.3594"/><rect fill="none" height="108.5313" style="stroke:#000000;stroke-width:1.5;" width="641" x="10" y="420.8906"/><rect fill="none" height="108.5313" style="stroke:#000000;stroke-width:1.5;" width="641" x="10" y="543.4219"/><line style="stroke:#181818;stroke-width:0.5;stroke-dasharray:5.0,5.0;" x1="51" x2="51" y1="36.2969" y2="668.9531"/><line style="stroke:#181818;stroke-width:0.5;stroke-dasharray:5.0,5.0;" x1="436" x2="436" y1="36.2969" y2="668.9531"/><rect fill="#E2E2F0" height="30.2969" rx="2.5" ry="2.5" style="stroke:#181818;stroke-width:0.5;" width="62" x="20" y="5"/><text fill="#000000" font-family="sans-serif" font-size="14" lengthAdjust="spacing" textLength="48" x="27" y="24.9951">ClientA</text><rect fill="#E2E2F0" height="30.2969" rx="2.5" ry="2.5" style="stroke:#181818;stroke-width:0.5;" width="62" x="20" y="667.9531"/><text fill="#000000" font-family="sans-serif" font-size="14" lengthAdjust="spacing" textLength="48" x="27" y="687.9482">ClientA</text><rect fill="#E2E2F0" height="30.2969" rx="2.5" ry="2.5" style="stroke:#181818;stroke-width:0.5;" width="58" x="407" y="5"/><text fill="#000000" font-family="sans-serif" font-size="14" lengthAdjust="spacing" textLength="44" x="414" y="24.9951">Server</text><rect fill="#E2E2F0" height="30.2969" rx="2.5" ry="2.5" style="stroke:#181818;stroke-width:0.5;" width="58" x="407" y="667.9531"/><text fill="#000000" font-family="sans-serif" font-size="14" lengthAdjust="spacing" textLength="44" x="414" y="687.9482">Server</text><path d="M10,53.2969 L157,53.2969 L157,60.4297 L147,70.4297 L10,70.4297 L10,53.2969 " fill="#EEEEEE" style="stroke:#000000;stroke-width:1.5;"/><rect fill="none" height="108.5313" style="stroke:#000000;stroke-width:1.5;" width="641" x="10" y="53.2969"/><text fill="#000000" font-family="sans-serif" font-size="13" font-weight="bold" lengthAdjust="spacing" textLength="97" x="25" y="66.3638">Create Game</text><text fill="#000000" font-family="sans-serif" font-size="11" font-weight="bold" lengthAdjust="spacing" textLength="25" x="172" y="65.5073">[ok]</text><polygon fill="#181818" points="424,87.5625,434,91.5625,424,95.5625,428,91.5625" style="stroke:#181818;stroke-width:1.0;"/><line style="stroke:#181818;stroke-width:1.0;" x1="51" x2="430" y1="91.5625" y2="91.5625"/><text fill="#000000" font-family="sans-serif" font-size="13" lengthAdjust="spacing" textLength="306" x="58" y="86.4966">createGame(gameName,nPlayers,playerName)</text><rect fill="#D3D3D3" height="23" style="stroke:#181818;stroke-width:0.5;" width="410" x="231" y="104.5625"/><text fill="#000000" font-family="sans-serif" font-size="13" lengthAdjust="spacing" textLength="402" x="235" y="120.6294">MainController.createGame(gameName,nPlayers,playerName)</text><polygon fill="#181818" points="62,149.8281,52,153.8281,62,157.8281,58,153.8281" style="stroke:#181818;stroke-width:1.0;"/><line style="stroke:#181818;stroke-width:1.0;" x1="56" x2="435" y1="153.8281" y2="153.8281"/><text fill="#000000" font-family="sans-serif" font-size="13" lengthAdjust="spacing" textLength="250" x="68" y="148.7622">{status: "success"}, VirtualViewUpdate</text><path d="M10,175.8281 L157,175.8281 L157,182.9609 L147,192.9609 L10,192.9609 L10,175.8281 " fill="#EEEEEE" style="stroke:#000000;stroke-width:1.5;"/><rect fill="none" height="108.5313" style="stroke:#000000;stroke-width:1.5;" width="641" x="10" y="175.8281"/><text fill="#000000" font-family="sans-serif" font-size="13" font-weight="bold" lengthAdjust="spacing" textLength="97" x="25" y="188.895">Create Game</text><text fill="#000000" font-family="sans-serif" font-size="11" font-weight="bold" lengthAdjust="spacing" textLength="47" x="172" y="188.0386">[failed]</text><polygon fill="#181818" points="424,210.0938,434,214.0938,424,218.0938,428,214.0938" style="stroke:#181818;stroke-width:1.0;"/><line style="stroke:#181818;stroke-width:1.0;" x1="51" x2="430" y1="214.0938" y2="214.0938"/><text fill="#000000" font-family="sans-serif" font-size="13" lengthAdjust="spacing" textLength="306" x="58" y="209.0278">createGame(gameName,nPlayers,playerName)</text><rect fill="#D3D3D3" height="23" style="stroke:#181818;stroke-width:0.5;" width="410" x="231" y="227.0938"/><text fill="#000000" font-family="sans-serif" font-size="13" lengthAdjust="spacing" textLength="402" x="235" y="243.1606">MainController.createGame(gameName,nPlayers,playerName)</text><polygon fill="#181818" points="62,272.3594,52,276.3594,62,280.3594,58,276.3594" style="stroke:#181818;stroke-width:1.0;"/><line style="stroke:#181818;stroke-width:1.0;" x1="56" x2="435" y1="276.3594" y2="276.3594"/><text fill="#000000" font-family="sans-serif" font-size="13" lengthAdjust="spacing" textLength="361" x="68" y="271.2935">{status: "failed", message: "gameName already exists"}</text><path d="M10,298.3594 L157,298.3594 L157,305.4922 L147,315.4922 L10,315.4922 L10,298.3594 " fill="#EEEEEE" style="stroke:#000000;stroke-width:1.5;"/><rect fill="none" height="108.5313" style="stroke:#000000;stroke-width:1.5;" width="641" x="10" y="298.3594"/><text fill="#000000" font-family="sans-serif" font-size="13" font-weight="bold" lengthAdjust="spacing" textLength="97" x="25" y="311.4263">Create Game</text><text fill="#000000" font-family="sans-serif" font-size="11" font-weight="bold" lengthAdjust="spacing" textLength="47" x="172" y="310.5698">[failed]</text><polygon fill="#181818" points="424,332.625,434,336.625,424,340.625,428,336.625" style="stroke:#181818;stroke-width:1.0;"/><line style="stroke:#181818;stroke-width:1.0;" x1="51" x2="430" y1="336.625" y2="336.625"/><text fill="#000000" font-family="sans-serif" font-size="13" lengthAdjust="spacing" textLength="306" x="58" y="331.5591">createGame(gameName,nPlayers,playerName)</text><rect fill="#D3D3D3" height="23" style="stroke:#181818;stroke-width:0.5;" width="410" x="231" y="349.625"/><text fill="#000000" font-family="sans-serif" font-size="13" lengthAdjust="spacing" textLength="402" x="235" y="365.6919">MainController.createGame(gameName,nPlayers,playerName)</text><polygon fill="#181818" points="62,394.8906,52,398.8906,62,402.8906,58,398.8906" style="stroke:#181818;stroke-width:1.0;"/><line style="stroke:#181818;stroke-width:1.0;" x1="56" x2="435" y1="398.8906" y2="398.8906"/><text fill="#000000" font-family="sans-serif" font-size="13" lengthAdjust="spacing" textLength="353" x="68" y="393.8247">{status: "failed", message: "invalid number of players"}</text><path d="M10,420.8906 L157,420.8906 L157,428.0234 L147,438.0234 L10,438.0234 L10,420.8906 " fill="#EEEEEE" style="stroke:#000000;stroke-width:1.5;"/><rect fill="none" height="108.5313" style="stroke:#000000;stroke-width:1.5;" width="641" x="10" y="420.8906"/><text fill="#000000" font-family="sans-serif" font-size="13" font-weight="bold" lengthAdjust="spacing" textLength="97" x="25" y="433.9575">Create Game</text><text fill="#000000" font-family="sans-serif" font-size="11" font-weight="bold" lengthAdjust="spacing" textLength="47" x="172" y="433.1011">[failed]</text><polygon fill="#181818" points="424,455.1563,434,459.1563,424,463.1563,428,459.1563" style="stroke:#181818;stroke-width:1.0;"/><line style="stroke:#181818;stroke-width:1.0;" x1="51" x2="430" y1="459.1563" y2="459.1563"/><text fill="#000000" font-family="sans-serif" font-size="13" lengthAdjust="spacing" textLength="306" x="58" y="454.0903">createGame(gameName,nPlayers,playerName)</text><rect fill="#D3D3D3" height="23" style="stroke:#181818;stroke-width:0.5;" width="410" x="231" y="472.1563"/><text fill="#000000" font-family="sans-serif" font-size="13" lengthAdjust="spacing" textLength="402" x="235" y="488.2231">MainController.createGame(gameName,nPlayers,playerName)</text><polygon fill="#181818" points="62,517.4219,52,521.4219,62,525.4219,58,521.4219" style="stroke:#181818;stroke-width:1.0;"/><line style="stroke:#181818;stroke-width:1.0;" x1="56" x2="435" y1="521.4219" y2="521.4219"/><text fill="#000000" font-family="sans-serif" font-size="13" lengthAdjust="spacing" textLength="313" x="68" y="516.356">{status: "failed", message: "invalid gameName"}</text><path d="M10,543.4219 L157,543.4219 L157,550.5547 L147,560.5547 L10,560.5547 L10,543.4219 " fill="#EEEEEE" style="stroke:#000000;stroke-width:1.5;"/><rect fill="none" height="108.5313" style="stroke:#000000;stroke-width:1.5;" width="641" x="10" y="543.4219"/><text fill="#000000" font-family="sans-serif" font-size="13" font-weight="bold" lengthAdjust="spacing" textLength="97" x="25" y="556.4888">Create Game</text><text fill="#000000" font-family="sans-serif" font-size="11" font-weight="bold" lengthAdjust="spacing" textLength="47" x="172" y="555.6323">[failed]</text><polygon fill="#181818" points="424,577.6875,434,581.6875,424,585.6875,428,581.6875" style="stroke:#181818;stroke-width:1.0;"/><line style="stroke:#181818;stroke-width:1.0;" x1="51" x2="430" y1="581.6875" y2="581.6875"/><text fill="#000000" font-family="sans-serif" font-size="13" lengthAdjust="spacing" textLength="306" x="58" y="576.6216">createGame(gameName,nPlayers,playerName)</text><rect fill="#D3D3D3" height="23" style="stroke:#181818;stroke-width:0.5;" width="410" x="231" y="594.6875"/><text fill="#000000" font-family="sans-serif" font-size="13" lengthAdjust="spacing" textLength="402" x="235" y="610.7544">MainController.createGame(gameName,nPlayers,playerName)</text><polygon fill="#181818" points="62,639.9531,52,643.9531,62,647.9531,58,643.9531" style="stroke:#181818;stroke-width:1.0;"/><line style="stroke:#181818;stroke-width:1.0;" x1="56" x2="435" y1="643.9531" y2="643.9531"/><text fill="#000000" font-family="sans-serif" font-size="13" lengthAdjust="spacing" textLength="315" x="68" y="638.8872">{status: "failed", message: "invalid playerName"}</text><!--SRC=[vP2nQiCm48PtFSNXB2suUG0FXUAXKqEW94l9SBKkgeWicPEKr9I-UyzsJ8TEfKC72oJ1SVVT__-6G-wWPi94y8WjmKiu7HJ8gPqbdnxWxXwUYS_4K44pDWvzDqQUZTpIRntsnB7ind-etOu0za6WOPYy0bREchTac7fXFQ7rTV29WtF4wr-XhpoHDgkiu2CcJ3bMKCJSD1HZyLd2tdBAwFQMBhjEomAbo6jbVje-edMa3-fFjl_DygI-AA4LusX8IZCIqCaUtGEzsvWabJ61HKHW_HcTrU1p-og3uGWJSf4XpEWbUly6JUw_0000]--></g></svg>