<?xml version="1.0" encoding="us-ascii" standalone="no"?><svg xmlns="http://www.w3.org/2000/svg" xmlns:xlink="http://www.w3.org/1999/xlink" contentStyleType="text/css" height="538px" preserveAspectRatio="none" style="width:481px;height:538px;background:#FFFFFF;" version="1.1" viewBox="0 0 481 538" width="481px" zoomAndPan="magnify"><defs/><g><rect fill="none" height="75.3984" style="stroke:#000000;stroke-width:1.5;" width="465" x="10" y="53.2969"/><rect fill="none" height="75.3984" style="stroke:#000000;stroke-width:1.5;" width="465" x="10" y="142.6953"/><rect fill="none" height="75.3984" style="stroke:#000000;stroke-width:1.5;" width="465" x="10" y="232.0938"/><rect fill="none" height="75.3984" style="stroke:#000000;stroke-width:1.5;" width="465" x="10" y="321.4922"/><rect fill="none" height="75.3984" style="stroke:#000000;stroke-width:1.5;" width="465" x="10" y="410.8906"/><line style="stroke:#181818;stroke-width:0.5;stroke-dasharray:5.0,5.0;" x1="51" x2="51" y1="36.2969" y2="503.2891"/><line style="stroke:#181818;stroke-width:0.5;stroke-dasharray:5.0,5.0;" x1="436" x2="436" y1="36.2969" y2="503.2891"/><rect fill="#E2E2F0" height="30.2969" rx="2.5" ry="2.5" style="stroke:#181818;stroke-width:0.5;" width="62" x="20" y="5"/><text fill="#000000" font-family="sans-serif" font-size="14" lengthAdjust="spacing" textLength="48" x="27" y="24.9951">ClientA</text><rect fill="#E2E2F0" height="30.2969" rx="2.5" ry="2.5" style="stroke:#181818;stroke-width:0.5;" width="62" x="20" y="502.2891"/><text fill="#000000" font-family="sans-serif" font-size="14" lengthAdjust="spacing" textLength="48" x="27" y="522.2842">ClientA</text><rect fill="#E2E2F0" height="30.2969" rx="2.5" ry="2.5" style="stroke:#181818;stroke-width:0.5;" width="58" x="407" y="5"/><text fill="#000000" font-family="sans-serif" font-size="14" lengthAdjust="spacing" textLength="44" x="414" y="24.9951">Server</text><rect fill="#E2E2F0" height="30.2969" rx="2.5" ry="2.5" style="stroke:#181818;stroke-width:0.5;" width="58" x="407" y="502.2891"/><text fill="#000000" font-family="sans-serif" font-size="14" lengthAdjust="spacing" textLength="44" x="414" y="522.2842">Server</text><path d="M10,53.2969 L157,53.2969 L157,60.4297 L147,70.4297 L10,70.4297 L10,53.2969 " fill="#EEEEEE" style="stroke:#000000;stroke-width:1.5;"/><rect fill="none" height="75.3984" style="stroke:#000000;stroke-width:1.5;" width="465" x="10" y="53.2969"/><text fill="#000000" font-family="sans-serif" font-size="13" font-weight="bold" lengthAdjust="spacing" textLength="97" x="25" y="66.3638">Create Game</text><text fill="#000000" font-family="sans-serif" font-size="11" font-weight="bold" lengthAdjust="spacing" textLength="25" x="172" y="65.5073">[ok]</text><polygon fill="#181818" points="424,87.5625,434,91.5625,424,95.5625,428,91.5625" style="stroke:#181818;stroke-width:1.0;"/><line style="stroke:#181818;stroke-width:1.0;" x1="51" x2="430" y1="91.5625" y2="91.5625"/><text fill="#000000" font-family="sans-serif" font-size="13" lengthAdjust="spacing" textLength="306" x="58" y="86.4966">createGame(gameName,nPlayers,playerName)</text><polygon fill="#181818" points="62,116.6953,52,120.6953,62,124.6953,58,120.6953" style="stroke:#181818;stroke-width:1.0;"/><line style="stroke:#181818;stroke-width:1.0;" x1="56" x2="435" y1="120.6953" y2="120.6953"/><text fill="#000000" font-family="sans-serif" font-size="13" lengthAdjust="spacing" textLength="250" x="68" y="115.6294">{status: "success"}, VirtualViewUpdate</text><path d="M10,142.6953 L157,142.6953 L157,149.8281 L147,159.8281 L10,159.8281 L10,142.6953 " fill="#EEEEEE" style="stroke:#000000;stroke-width:1.5;"/><rect fill="none" height="75.3984" style="stroke:#000000;stroke-width:1.5;" width="465" x="10" y="142.6953"/><text fill="#000000" font-family="sans-serif" font-size="13" font-weight="bold" lengthAdjust="spacing" textLength="97" x="25" y="155.7622">Create Game</text><text fill="#000000" font-family="sans-serif" font-size="11" font-weight="bold" lengthAdjust="spacing" textLength="47" x="172" y="154.9058">[failed]</text><polygon fill="#181818" points="424,176.9609,434,180.9609,424,184.9609,428,180.9609" style="stroke:#181818;stroke-width:1.0;"/><line style="stroke:#181818;stroke-width:1.0;" x1="51" x2="430" y1="180.9609" y2="180.9609"/><text fill="#000000" font-family="sans-serif" font-size="13" lengthAdjust="spacing" textLength="306" x="58" y="175.895">createGame(gameName,nPlayers,playerName)</text><polygon fill="#181818" points="62,206.0938,52,210.0938,62,214.0938,58,210.0938" style="stroke:#181818;stroke-width:1.0;"/><line style="stroke:#181818;stroke-width:1.0;" x1="56" x2="435" y1="210.0938" y2="210.0938"/><text fill="#000000" font-family="sans-serif" font-size="13" lengthAdjust="spacing" textLength="361" x="68" y="205.0278">{status: "failed", message: "gameName already exists"}</text><path d="M10,232.0938 L157,232.0938 L157,239.2266 L147,249.2266 L10,249.2266 L10,232.0938 " fill="#EEEEEE" style="stroke:#000000;stroke-width:1.5;"/><rect fill="none" height="75.3984" style="stroke:#000000;stroke-width:1.5;" width="465" x="10" y="232.0938"/><text fill="#000000" font-family="sans-serif" font-size="13" font-weight="bold" lengthAdjust="spacing" textLength="97" x="25" y="245.1606">Create Game</text><text fill="#000000" font-family="sans-serif" font-size="11" font-weight="bold" lengthAdjust="spacing" textLength="47" x="172" y="244.3042">[failed]</text><polygon fill="#181818" points="424,266.3594,434,270.3594,424,274.3594,428,270.3594" style="stroke:#181818;stroke-width:1.0;"/><line style="stroke:#181818;stroke-width:1.0;" x1="51" x2="430" y1="270.3594" y2="270.3594"/><text fill="#000000" font-family="sans-serif" font-size="13" lengthAdjust="spacing" textLength="306" x="58" y="265.2935">createGame(gameName,nPlayers,playerName)</text><polygon fill="#181818" points="62,295.4922,52,299.4922,62,303.4922,58,299.4922" style="stroke:#181818;stroke-width:1.0;"/><line style="stroke:#181818;stroke-width:1.0;" x1="56" x2="435" y1="299.4922" y2="299.4922"/><text fill="#000000" font-family="sans-serif" font-size="13" lengthAdjust="spacing" textLength="353" x="68" y="294.4263">{status: "failed", message: "invalid number of players"}</text><path d="M10,321.4922 L157,321.4922 L157,328.625 L147,338.625 L10,338.625 L10,321.4922 " fill="#EEEEEE" style="stroke:#000000;stroke-width:1.5;"/><rect fill="none" height="75.3984" style="stroke:#000000;stroke-width:1.5;" width="465" x="10" y="321.4922"/><text fill="#000000" font-family="sans-serif" font-size="13" font-weight="bold" lengthAdjust="spacing" textLength="97" x="25" y="334.5591">Create Game</text><text fill="#000000" font-family="sans-serif" font-size="11" font-weight="bold" lengthAdjust="spacing" textLength="47" x="172" y="333.7026">[failed]</text><polygon fill="#181818" points="424,355.7578,434,359.7578,424,363.7578,428,359.7578" style="stroke:#181818;stroke-width:1.0;"/><line style="stroke:#181818;stroke-width:1.0;" x1="51" x2="430" y1="359.7578" y2="359.7578"/><text fill="#000000" font-family="sans-serif" font-size="13" lengthAdjust="spacing" textLength="306" x="58" y="354.6919">createGame(gameName,nPlayers,playerName)</text><polygon fill="#181818" points="62,384.8906,52,388.8906,62,392.8906,58,388.8906" style="stroke:#181818;stroke-width:1.0;"/><line style="stroke:#181818;stroke-width:1.0;" x1="56" x2="435" y1="388.8906" y2="388.8906"/><text fill="#000000" font-family="sans-serif" font-size="13" lengthAdjust="spacing" textLength="313" x="68" y="383.8247">{status: "failed", message: "invalid gameName"}</text><path d="M10,410.8906 L157,410.8906 L157,418.0234 L147,428.0234 L10,428.0234 L10,410.8906 " fill="#EEEEEE" style="stroke:#000000;stroke-width:1.5;"/><rect fill="none" height="75.3984" style="stroke:#000000;stroke-width:1.5;" width="465" x="10" y="410.8906"/><text fill="#000000" font-family="sans-serif" font-size="13" font-weight="bold" lengthAdjust="spacing" textLength="97" x="25" y="423.9575">Create Game</text><text fill="#000000" font-family="sans-serif" font-size="11" font-weight="bold" lengthAdjust="spacing" textLength="47" x="172" y="423.1011">[failed]</text><polygon fill="#181818" points="424,445.1563,434,449.1563,424,453.1563,428,449.1563" style="stroke:#181818;stroke-width:1.0;"/><line style="stroke:#181818;stroke-width:1.0;" x1="51" x2="430" y1="449.1563" y2="449.1563"/><text fill="#000000" font-family="sans-serif" font-size="13" lengthAdjust="spacing" textLength="306" x="58" y="444.0903">createGame(gameName,nPlayers,playerName)</text><polygon fill="#181818" points="62,474.2891,52,478.2891,62,482.2891,58,478.2891" style="stroke:#181818;stroke-width:1.0;"/><line style="stroke:#181818;stroke-width:1.0;" x1="56" x2="435" y1="478.2891" y2="478.2891"/><text fill="#000000" font-family="sans-serif" font-size="13" lengthAdjust="spacing" textLength="315" x="68" y="473.2231">{status: "failed", message: "invalid playerName"}</text><!--SRC=[pOuz2y8m48Rt_8gZaqBz0nq4wU0cWjX5EfpDjGJJjEIZMiJ_xhMrE3WB3II1uzxdVIhRX1PII-W9zbWJN9fRBe1FgXKPluFD5avaExAGG34k3dkhYfy3tzWSDVPaNToE_p1RZu1FYlCpAe6dy-Y3Io1oeIZ8kUWLGwQi3wWpHVTpAxb0239ILBzk9IfDCXT_TfjgeXXgDiIAU3GZ0JNto1xeePnd_L5rMQxATAYL11FgAmUR4YRaicrdzA8blw19ymq0]--></g></svg>