<svg xmlns="http://www.w3.org/2000/svg" xmlns:xlink="http://www.w3.org/1999/xlink" contentStyleType="text/css" height="550px" preserveAspectRatio="none" style="width:914px;height:550px;background:#FFFFFF;" version="1.1" viewBox="0 0 914 550" width="914px" zoomAndPan="magnify"><defs/><g><rect fill="none" height="199.9297" style="stroke:#000000;stroke-width:1.5;" width="898.5" x="10" y="53.2969"/><rect fill="none" height="108.5313" style="stroke:#000000;stroke-width:1.5;" width="801" x="10" y="267.2266"/><rect fill="none" height="108.5313" style="stroke:#000000;stroke-width:1.5;" width="801" x="10" y="389.7578"/><line style="stroke:#181818;stroke-width:0.5;stroke-dasharray:5.0,5.0;" x1="51" x2="51" y1="36.2969" y2="515.2891"/><line style="stroke:#181818;stroke-width:0.5;stroke-dasharray:5.0,5.0;" x1="528" x2="528" y1="36.2969" y2="515.2891"/><line style="stroke:#181818;stroke-width:0.5;stroke-dasharray:5.0,5.0;" x1="866.5" x2="866.5" y1="36.2969" y2="515.2891"/><rect fill="#E2E2F0" height="30.2969" rx="2.5" ry="2.5" style="stroke:#181818;stroke-width:0.5;" width="62" x="20" y="5"/><text fill="#000000" font-family="sans-serif" font-size="14" lengthAdjust="spacing" textLength="48" x="27" y="24.9951">ClientA</text><rect fill="#E2E2F0" height="30.2969" rx="2.5" ry="2.5" style="stroke:#181818;stroke-width:0.5;" width="62" x="20" y="514.2891"/><text fill="#000000" font-family="sans-serif" font-size="14" lengthAdjust="spacing" textLength="48" x="27" y="534.2842">ClientA</text><rect fill="#E2E2F0" height="30.2969" rx="2.5" ry="2.5" style="stroke:#181818;stroke-width:0.5;" width="58" x="499" y="5"/><text fill="#000000" font-family="sans-serif" font-size="14" lengthAdjust="spacing" textLength="44" x="506" y="24.9951">Server</text><rect fill="#E2E2F0" height="30.2969" rx="2.5" ry="2.5" style="stroke:#181818;stroke-width:0.5;" width="58" x="499" y="514.2891"/><text fill="#000000" font-family="sans-serif" font-size="14" lengthAdjust="spacing" textLength="44" x="506" y="534.2842">Server</text><rect fill="#E2E2F0" height="30.2969" rx="2.5" ry="2.5" style="stroke:#181818;stroke-width:0.5;" width="63" x="835.5" y="5"/><text fill="#000000" font-family="sans-serif" font-size="14" lengthAdjust="spacing" textLength="49" x="842.5" y="24.9951">ClientB</text><rect fill="#E2E2F0" height="30.2969" rx="2.5" ry="2.5" style="stroke:#181818;stroke-width:0.5;" width="63" x="835.5" y="514.2891"/><text fill="#000000" font-family="sans-serif" font-size="14" lengthAdjust="spacing" textLength="49" x="842.5" y="534.2842">ClientB</text><path d="M10,53.2969 L177,53.2969 L177,60.4297 L167,70.4297 L10,70.4297 L10,53.2969 " fill="#EEEEEE" style="stroke:#000000;stroke-width:1.5;"/><rect fill="none" height="199.9297" style="stroke:#000000;stroke-width:1.5;" width="898.5" x="10" y="53.2969"/><text fill="#000000" font-family="sans-serif" font-size="13" font-weight="bold" lengthAdjust="spacing" textLength="117" x="25" y="66.3638">Draw Gold Card</text><text fill="#000000" font-family="sans-serif" font-size="11" font-weight="bold" lengthAdjust="spacing" textLength="25" x="192" y="65.5073">[ok]</text><polygon fill="#181818" points="516,87.5625,526,91.5625,516,95.5625,520,91.5625" style="stroke:#181818;stroke-width:1.0;"/><line style="stroke:#181818;stroke-width:1.0;" x1="51" x2="522" y1="91.5625" y2="91.5625"/><text fill="#000000" font-family="sans-serif" font-size="13" lengthAdjust="spacing" textLength="242" x="58" y="86.4966">drawCardFromGoldDeck(playerName)</text><rect fill="#D3D3D3" height="23" style="stroke:#181818;stroke-width:0.5;" width="546" x="255" y="104.5625"/><text fill="#000000" font-family="sans-serif" font-size="13" lengthAdjust="spacing" textLength="538" x="259" y="120.6294">MainController.gameControllerMiddleWares[x].drawCardFromGoldDeck(playerName)</text><polygon fill="#181818" points="62,149.8281,52,153.8281,62,157.8281,58,153.8281" style="stroke:#181818;stroke-width:1.0;"/><line style="stroke:#181818;stroke-width:1.0;" x1="56" x2="527" y1="153.8281" y2="153.8281"/><text fill="#000000" font-family="sans-serif" font-size="13" lengthAdjust="spacing" textLength="143" x="68" y="148.7622">{status: "success", []}</text><polygon fill="#181818" points="539,178.9609,529,182.9609,539,186.9609,535,182.9609" style="stroke:#181818;stroke-width:1.0;"/><line style="stroke:#181818;stroke-width:1.0;" x1="533" x2="866" y1="182.9609" y2="182.9609"/><text fill="#000000" font-family="sans-serif" font-size="13" lengthAdjust="spacing" textLength="242" x="545" y="177.895">drawCardFromGoldDeck(playerName)</text><rect fill="#D3D3D3" height="23" style="stroke:#181818;stroke-width:0.5;" width="509" x="273" y="195.9609"/><text fill="#000000" font-family="sans-serif" font-size="13" lengthAdjust="spacing" textLength="501" x="277" y="212.0278">MainController.gameControllerMiddleWares[x].validatePlayerTurn(playerName)</text><polygon fill="#181818" points="855,241.2266,865,245.2266,855,249.2266,859,245.2266" style="stroke:#181818;stroke-width:1.0;"/><line style="stroke:#181818;stroke-width:1.0;" x1="528" x2="861" y1="245.2266" y2="245.2266"/><text fill="#000000" font-family="sans-serif" font-size="13" lengthAdjust="spacing" textLength="315" x="535" y="240.1606">{status: failed, message: "It's not ClientB's turn"}</text><path d="M10,267.2266 L177,267.2266 L177,274.3594 L167,284.3594 L10,284.3594 L10,267.2266 " fill="#EEEEEE" style="stroke:#000000;stroke-width:1.5;"/><rect fill="none" height="108.5313" style="stroke:#000000;stroke-width:1.5;" width="801" x="10" y="267.2266"/><text fill="#000000" font-family="sans-serif" font-size="13" font-weight="bold" lengthAdjust="spacing" textLength="117" x="25" y="280.2935">Draw Gold Card</text><text fill="#000000" font-family="sans-serif" font-size="11" font-weight="bold" lengthAdjust="spacing" textLength="169" x="192" y="279.437">[failed due to empty deck]</text><polygon fill="#181818" points="516,301.4922,526,305.4922,516,309.4922,520,305.4922" style="stroke:#181818;stroke-width:1.0;"/><line style="stroke:#181818;stroke-width:1.0;" x1="51" x2="522" y1="305.4922" y2="305.4922"/><text fill="#000000" font-family="sans-serif" font-size="13" lengthAdjust="spacing" textLength="242" x="58" y="300.4263">drawCardFromGoldDeck(playerName)</text><rect fill="#D3D3D3" height="23" style="stroke:#181818;stroke-width:0.5;" width="546" x="255" y="318.4922"/><text fill="#000000" font-family="sans-serif" font-size="13" lengthAdjust="spacing" textLength="538" x="259" y="334.5591">MainController.gameControllerMiddleWares[x].drawCardFromGoldDeck(playerName)</text><polygon fill="#181818" points="62,363.7578,52,367.7578,62,371.7578,58,367.7578" style="stroke:#181818;stroke-width:1.0;"/><line style="stroke:#181818;stroke-width:1.0;" x1="56" x2="527" y1="367.7578" y2="367.7578"/><text fill="#000000" font-family="sans-serif" font-size="13" lengthAdjust="spacing" textLength="284" x="68" y="362.6919">{status: "failed", message: "Deck is empty"}</text><path d="M10,389.7578 L177,389.7578 L177,396.8906 L167,406.8906 L10,406.8906 L10,389.7578 " fill="#EEEEEE" style="stroke:#000000;stroke-width:1.5;"/><rect fill="none" height="108.5313" style="stroke:#000000;stroke-width:1.5;" width="801" x="10" y="389.7578"/><text fill="#000000" font-family="sans-serif" font-size="13" font-weight="bold" lengthAdjust="spacing" textLength="117" x="25" y="402.8247">Draw Gold Card</text><text fill="#000000" font-family="sans-serif" font-size="11" font-weight="bold" lengthAdjust="spacing" textLength="219" x="192" y="401.9683">[failed due to wrong game status]</text><polygon fill="#181818" points="516,424.0234,526,428.0234,516,432.0234,520,428.0234" style="stroke:#181818;stroke-width:1.0;"/><line style="stroke:#181818;stroke-width:1.0;" x1="51" x2="522" y1="428.0234" y2="428.0234"/><text fill="#000000" font-family="sans-serif" font-size="13" lengthAdjust="spacing" textLength="242" x="58" y="422.9575">drawCardFromGoldDeck(playerName)</text><rect fill="#D3D3D3" height="23" style="stroke:#181818;stroke-width:0.5;" width="546" x="255" y="441.0234"/><text fill="#000000" font-family="sans-serif" font-size="13" lengthAdjust="spacing" textLength="538" x="259" y="457.0903">MainController.gameControllerMiddleWares[x].drawCardFromGoldDeck(playerName)</text><polygon fill="#181818" points="62,486.2891,52,490.2891,62,494.2891,58,490.2891" style="stroke:#181818;stroke-width:1.0;"/><line style="stroke:#181818;stroke-width:1.0;" x1="56" x2="527" y1="490.2891" y2="490.2891"/><text fill="#000000" font-family="sans-serif" font-size="13" lengthAdjust="spacing" textLength="453" x="68" y="485.2231">{status: "failed", message: "Cannot drawCard in current game status"}</text><!--SRC=[vP91IyGm48Nl_HL3FQYmxW_eGN2xA1vM10KFfOVGZ35icfH9ickH_UzEDrliGLZre0Tx2ynxCz_hK-HY1qiIMxXnHa8fI4BbrdK6_9L6emrNS7493qWR92X0ykmmTKsk7IHBRDPddH4zqfreyNml9Ei2WXiK1-69qUebACAUFLP2szBPGCuOfBbYtSTpfQKq-2G8VVLQpx-qxx24xnnFBk3D1n6YBo3tiMdG-tm6LRsRW2t-56mZZ9OYuFr-nMCaUnHhCSLw5jgWd47BQ48XSzw6Kmzyu3ZDhy2s-Iv3AxDCVVglamt8Y10SODk57YIZfmRyl0A_te4Z9KYS-JIlmGQqJz3VIMbBpYeOJeRa_m_2AeKTgZMwWxRGH2AMJeD8ARu3]--></g></svg>