<?xml version="1.0" encoding="us-ascii" standalone="no"?><svg xmlns="http://www.w3.org/2000/svg" xmlns:xlink="http://www.w3.org/1999/xlink" contentStyleType="text/css" height="418px" preserveAspectRatio="none" style="width:914px;height:418px;background:#FFFFFF;" version="1.1" viewBox="0 0 914 418" width="914px" zoomAndPan="magnify"><defs/><g><rect fill="none" height="133.6641" style="stroke:#000000;stroke-width:1.5;" width="898.5" x="10" y="53.2969"/><rect fill="none" height="75.3984" style="stroke:#000000;stroke-width:1.5;" width="557" x="10" y="200.9609"/><rect fill="none" height="75.3984" style="stroke:#000000;stroke-width:1.5;" width="557" x="10" y="290.3594"/><line style="stroke:#181818;stroke-width:0.5;stroke-dasharray:5.0,5.0;" x1="51" x2="51" y1="36.2969" y2="382.7578"/><line style="stroke:#181818;stroke-width:0.5;stroke-dasharray:5.0,5.0;" x1="528" x2="528" y1="36.2969" y2="382.7578"/><line style="stroke:#181818;stroke-width:0.5;stroke-dasharray:5.0,5.0;" x1="866.5" x2="866.5" y1="36.2969" y2="382.7578"/><rect fill="#E2E2F0" height="30.2969" rx="2.5" ry="2.5" style="stroke:#181818;stroke-width:0.5;" width="62" x="20" y="5"/><text fill="#000000" font-family="sans-serif" font-size="14" lengthAdjust="spacing" textLength="48" x="27" y="24.9951">ClientA</text><rect fill="#E2E2F0" height="30.2969" rx="2.5" ry="2.5" style="stroke:#181818;stroke-width:0.5;" width="62" x="20" y="381.7578"/><text fill="#000000" font-family="sans-serif" font-size="14" lengthAdjust="spacing" textLength="48" x="27" y="401.7529">ClientA</text><rect fill="#E2E2F0" height="30.2969" rx="2.5" ry="2.5" style="stroke:#181818;stroke-width:0.5;" width="58" x="499" y="5"/><text fill="#000000" font-family="sans-serif" font-size="14" lengthAdjust="spacing" textLength="44" x="506" y="24.9951">Server</text><rect fill="#E2E2F0" height="30.2969" rx="2.5" ry="2.5" style="stroke:#181818;stroke-width:0.5;" width="58" x="499" y="381.7578"/><text fill="#000000" font-family="sans-serif" font-size="14" lengthAdjust="spacing" textLength="44" x="506" y="401.7529">Server</text><rect fill="#E2E2F0" height="30.2969" rx="2.5" ry="2.5" style="stroke:#181818;stroke-width:0.5;" width="63" x="835.5" y="5"/><text fill="#000000" font-family="sans-serif" font-size="14" lengthAdjust="spacing" textLength="49" x="842.5" y="24.9951">ClientB</text><rect fill="#E2E2F0" height="30.2969" rx="2.5" ry="2.5" style="stroke:#181818;stroke-width:0.5;" width="63" x="835.5" y="381.7578"/><text fill="#000000" font-family="sans-serif" font-size="14" lengthAdjust="spacing" textLength="49" x="842.5" y="401.7529">ClientB</text><path d="M10,53.2969 L219,53.2969 L219,60.4297 L209,70.4297 L10,70.4297 L10,53.2969 " fill="#EEEEEE" style="stroke:#000000;stroke-width:1.5;"/><rect fill="none" height="133.6641" style="stroke:#000000;stroke-width:1.5;" width="898.5" x="10" y="53.2969"/><text fill="#000000" font-family="sans-serif" font-size="13" font-weight="bold" lengthAdjust="spacing" textLength="159" x="25" y="66.3638">Draw Card from Field</text><text fill="#000000" font-family="sans-serif" font-size="11" font-weight="bold" lengthAdjust="spacing" textLength="25" x="234" y="65.5073">[ok]</text><polygon fill="#181818" points="516,87.5625,526,91.5625,516,95.5625,520,91.5625" style="stroke:#181818;stroke-width:1.0;"/><line style="stroke:#181818;stroke-width:1.0;" x1="51" x2="522" y1="91.5625" y2="91.5625"/><text fill="#000000" font-family="sans-serif" font-size="13" lengthAdjust="spacing" textLength="246" x="58" y="86.4966">drawCardFromField(playerName, card)</text><polygon fill="#181818" points="62,116.6953,52,120.6953,62,124.6953,58,120.6953" style="stroke:#181818;stroke-width:1.0;"/><line style="stroke:#181818;stroke-width:1.0;" x1="56" x2="527" y1="120.6953" y2="120.6953"/><text fill="#000000" font-family="sans-serif" font-size="13" lengthAdjust="spacing" textLength="143" x="68" y="115.6294">{status: "success", []}</text><polygon fill="#181818" points="539,145.8281,529,149.8281,539,153.8281,535,149.8281" style="stroke:#181818;stroke-width:1.0;"/><line style="stroke:#181818;stroke-width:1.0;" x1="533" x2="866" y1="149.8281" y2="149.8281"/><text fill="#000000" font-family="sans-serif" font-size="13" lengthAdjust="spacing" textLength="246" x="545" y="144.7622">drawCardFromField(playerName, card)</text><polygon fill="#181818" points="855,174.9609,865,178.9609,855,182.9609,859,178.9609" style="stroke:#181818;stroke-width:1.0;"/><line style="stroke:#181818;stroke-width:1.0;" x1="528" x2="861" y1="178.9609" y2="178.9609"/><text fill="#000000" font-family="sans-serif" font-size="13" lengthAdjust="spacing" textLength="315" x="535" y="173.895">{status: failed, message: "It's not ClientB's turn"}</text><path d="M10,200.9609 L219,200.9609 L219,208.0938 L209,218.0938 L10,218.0938 L10,200.9609 " fill="#EEEEEE" style="stroke:#000000;stroke-width:1.5;"/><rect fill="none" height="75.3984" style="stroke:#000000;stroke-width:1.5;" width="557" x="10" y="200.9609"/><text fill="#000000" font-family="sans-serif" font-size="13" font-weight="bold" lengthAdjust="spacing" textLength="159" x="25" y="214.0278">Draw Card from Field</text><text fill="#000000" font-family="sans-serif" font-size="11" font-weight="bold" lengthAdjust="spacing" textLength="192" x="234" y="213.1714">[failed due to wrong position]</text><polygon fill="#181818" points="516,235.2266,526,239.2266,516,243.2266,520,239.2266" style="stroke:#181818;stroke-width:1.0;"/><line style="stroke:#181818;stroke-width:1.0;" x1="51" x2="522" y1="239.2266" y2="239.2266"/><text fill="#000000" font-family="sans-serif" font-size="13" lengthAdjust="spacing" textLength="246" x="58" y="234.1606">drawCardFromField(playerName, card)</text><polygon fill="#181818" points="62,264.3594,52,268.3594,62,272.3594,58,268.3594" style="stroke:#181818;stroke-width:1.0;"/><line style="stroke:#181818;stroke-width:1.0;" x1="56" x2="527" y1="268.3594" y2="268.3594"/><text fill="#000000" font-family="sans-serif" font-size="13" lengthAdjust="spacing" textLength="415" x="68" y="263.2935">{status: "failed", message: "Card not found in playerName field"}</text><path d="M10,290.3594 L219,290.3594 L219,297.4922 L209,307.4922 L10,307.4922 L10,290.3594 " fill="#EEEEEE" style="stroke:#000000;stroke-width:1.5;"/><rect fill="none" height="75.3984" style="stroke:#000000;stroke-width:1.5;" width="557" x="10" y="290.3594"/><text fill="#000000" font-family="sans-serif" font-size="13" font-weight="bold" lengthAdjust="spacing" textLength="159" x="25" y="303.4263">Draw Card from Field</text><text fill="#000000" font-family="sans-serif" font-size="11" font-weight="bold" lengthAdjust="spacing" textLength="219" x="234" y="302.5698">[failed due to wrong game status]</text><polygon fill="#181818" points="516,324.625,526,328.625,516,332.625,520,328.625" style="stroke:#181818;stroke-width:1.0;"/><line style="stroke:#181818;stroke-width:1.0;" x1="51" x2="522" y1="328.625" y2="328.625"/><text fill="#000000" font-family="sans-serif" font-size="13" lengthAdjust="spacing" textLength="246" x="58" y="323.5591">drawCardFromField(playerName, card)</text><polygon fill="#181818" points="62,353.7578,52,357.7578,62,361.7578,58,357.7578" style="stroke:#181818;stroke-width:1.0;"/><line style="stroke:#181818;stroke-width:1.0;" x1="56" x2="527" y1="357.7578" y2="357.7578"/><text fill="#000000" font-family="sans-serif" font-size="13" lengthAdjust="spacing" textLength="453" x="68" y="352.6919">{status: "failed", message: "Cannot drawCard in current game status"}</text><!--SRC=[nP11IyGm48Nl_HMFNbQX_e4U17TbOIzUF2vx2Cqq1DjCcIGkY-n_DsaizgIWWhaDcVU-USy8nmcFeixOAT7eXKViBGqQHtuvLKXlDrXouG5tztWcUIL12vqKMR1F-_FwpJIe2ycJ6gb1btvkP-s784aNbnPlFgWGVOlQnwuZx-i6nzDrnTh-2MkxPlNA3gGRZ8cd32Nu8Mmy78TbEqqXYgkl5JbTLUQBPeePT2G4nbdO6KpiRR3iIcU_AksRrWgzNcUPBynPUevEmpfyEgFFg9_6CjcXeFyfcSkv5a2EraMH95sVLjAz0m00]--></g></svg>