<?xml version="1.0" encoding="us-ascii" standalone="no"?><svg xmlns="http://www.w3.org/2000/svg" xmlns:xlink="http://www.w3.org/1999/xlink" contentStyleType="text/css" height="1032px" preserveAspectRatio="none" style="width:558px;height:1032px;background:#FFFFFF;" version="1.1" viewBox="0 0 558 1032" width="558px" zoomAndPan="magnify"><defs/><g><ellipse cx="144.01" cy="16" fill="#222222" rx="10" ry="10" style="stroke:#222222;stroke-width:1.0;"/><g id="WAIT_FOR_PLAYERS"><rect fill="#F1F1F1" height="50" rx="12.5" ry="12.5" style="stroke:#181818;stroke-width:0.5;" width="159" x="64.52" y="87"/><line style="stroke:#181818;stroke-width:0.5;" x1="64.52" x2="223.52" y1="113.2969" y2="113.2969"/><text fill="#000000" font-family="sans-serif" font-size="14" lengthAdjust="spacing" textLength="139" x="74.52" y="104.9951">WAIT_FOR_PLAYERS</text></g><path d="M19.5,214 L268.53,214 A12.5,12.5 0 0 1 281.03,226.5 L281.03,240.2969 L7,240.2969 L7,226.5 A12.5,12.5 0 0 1 19.5,214 " fill="#F1F1F1" style="stroke:#F1F1F1;stroke-width:1.0;"/><rect fill="none" height="419.2969" rx="12.5" ry="12.5" style="stroke:#181818;stroke-width:0.5;" width="274.03" x="7" y="214"/><line style="stroke:#181818;stroke-width:0.5;" x1="7" x2="281.03" y1="240.2969" y2="240.2969"/><text fill="#000000" font-family="sans-serif" font-size="14" lengthAdjust="spacing" textLength="129" x="79.515" y="231.9951">initialization_phase</text><ellipse cx="138.5" cy="261.2969" fill="#222222" rx="10" ry="10" style="stroke:#222222;stroke-width:1.0;"/><g id="initialization_phase.INIT_PLACE_STARTER_CARD"><rect fill="#F1F1F1" height="50" rx="12.5" ry="12.5" style="stroke:#181818;stroke-width:0.5;" width="215" x="31" y="308.2969"/><line style="stroke:#181818;stroke-width:0.5;" x1="31" x2="246" y1="334.5938" y2="334.5938"/><text fill="#000000" font-family="sans-serif" font-size="14" lengthAdjust="spacing" textLength="195" x="41" y="326.292">INIT_PLACE_STARTER_CARD</text></g><g id="initialization_phase.INIT_CHOOSE_PLAYER_COLOR"><rect fill="#F1F1F1" height="50" rx="12.5" ry="12.5" style="stroke:#181818;stroke-width:0.5;" width="228" x="24.5" y="411.2969"/><line style="stroke:#181818;stroke-width:0.5;" x1="24.5" x2="252.5" y1="437.5938" y2="437.5938"/><text fill="#000000" font-family="sans-serif" font-size="14" lengthAdjust="spacing" textLength="208" x="34.5" y="429.292">INIT_CHOOSE_PLAYER_COLOR</text></g><g id="initialization_phase.INIT_CHOOSE_OBJECTIVE_CARD"><rect fill="#F1F1F1" height="50" rx="12.5" ry="12.5" style="stroke:#181818;stroke-width:0.5;" width="239" x="19" y="514.2969"/><line style="stroke:#181818;stroke-width:0.5;" x1="19" x2="258" y1="540.5938" y2="540.5938"/><text fill="#000000" font-family="sans-serif" font-size="14" lengthAdjust="spacing" textLength="219" x="29" y="532.292">INIT_CHOOSE_OBJECTIVE_CARD</text></g><ellipse cx="138.5" cy="612.2969" fill="none" rx="11" ry="11" style="stroke:#222222;stroke-width:1.0;"/><ellipse cx="138.5" cy="612.2969" fill="#222222" rx="6" ry="6" style="stroke:#222222;stroke-width:1.0;"/><!--link *start*initialization_phase to INIT_PLACE_STARTER_CARD--><g id="link_*start*initialization_phase_INIT_PLACE_STARTER_CARD"><path d="M138.5,271.7369 C138.5,280.9969 138.5,289.4869 138.5,301.9769 " fill="none" id="*start*initialization_phase-to-INIT_PLACE_STARTER_CARD" style="stroke:#181818;stroke-width:1.0;"/><polygon fill="#181818" points="138.5,307.9769,142.5,298.9769,138.5,302.9769,134.5,298.9769,138.5,307.9769" style="stroke:#181818;stroke-width:1.0;"/></g><!--link INIT_PLACE_STARTER_CARD to INIT_CHOOSE_PLAYER_COLOR--><g id="link_INIT_PLACE_STARTER_CARD_INIT_CHOOSE_PLAYER_COLOR"><path d="M138.5,358.7469 C138.5,374.6269 138.5,389.2369 138.5,405.0769 " fill="none" id="INIT_PLACE_STARTER_CARD-to-INIT_CHOOSE_PLAYER_COLOR" style="stroke:#181818;stroke-width:1.0;"/><polygon fill="#181818" points="138.5,411.0769,142.5,402.0769,138.5,406.0769,134.5,402.0769,138.5,411.0769" style="stroke:#181818;stroke-width:1.0;"/><text fill="#000000" font-family="sans-serif" font-size="13" lengthAdjust="spacing" textLength="123" x="139.5" y="389.3638">Starter card placed</text></g><!--link INIT_CHOOSE_PLAYER_COLOR to INIT_CHOOSE_PLAYER_COLOR--><g id="link_INIT_CHOOSE_PLAYER_COLOR_INIT_CHOOSE_PLAYER_COLOR"><path d="M252.55,428.4869 C263.54,430.0769 270.5,432.6769 270.5,436.2969 C270.5,439.9169 269.4782,441.6578 258.4882,443.2478 " fill="none" id="INIT_CHOOSE_PLAYER_COLOR-to-INIT_CHOOSE_PLAYER_COLOR" style="stroke:#181818;stroke-width:1.0;"/><polygon fill="#181818" points="252.55,444.1069,262.03,446.777,257.4985,443.3909,260.8845,438.8594,252.55,444.1069" style="stroke:#181818;stroke-width:1.0;"/></g><!--link INIT_CHOOSE_PLAYER_COLOR to INIT_CHOOSE_OBJECTIVE_CARD--><g id="link_INIT_CHOOSE_PLAYER_COLOR_INIT_CHOOSE_OBJECTIVE_CARD"><path d="M138.5,461.7469 C138.5,477.6269 138.5,492.2369 138.5,508.0769 " fill="none" id="INIT_CHOOSE_PLAYER_COLOR-to-INIT_CHOOSE_OBJECTIVE_CARD" style="stroke:#181818;stroke-width:1.0;"/><polygon fill="#181818" points="138.5,514.0769,142.5,505.0769,138.5,509.0769,134.5,505.0769,138.5,514.0769" style="stroke:#181818;stroke-width:1.0;"/><text fill="#000000" font-family="sans-serif" font-size="13" lengthAdjust="spacing" textLength="83" x="139.5" y="492.3638">Color chosen</text></g><!--link INIT_CHOOSE_OBJECTIVE_CARD to *end*initialization_phase--><g id="link_INIT_CHOOSE_OBJECTIVE_CARD_*end*initialization_phase"><path d="M138.5,564.7269 C138.5,577.0869 138.5,585.4269 138.5,594.8969 " fill="none" id="INIT_CHOOSE_OBJECTIVE_CARD-to-*end*initialization_phase" style="stroke:#181818;stroke-width:1.0;"/><polygon fill="#181818" points="138.5,600.8969,142.5,591.8969,138.5,595.8969,134.5,591.8969,138.5,600.8969" style="stroke:#181818;stroke-width:1.0;"/></g><path d="M79.27,694.29 L208.77,694.29 A12.5,12.5 0 0 1 221.27,706.79 L221.27,720.5869 L66.77,720.5869 L66.77,706.79 A12.5,12.5 0 0 1 79.27,694.29 " fill="#F1F1F1" style="stroke:#F1F1F1;stroke-width:1.0;"/><rect fill="none" height="332.2969" rx="12.5" ry="12.5" style="stroke:#181818;stroke-width:0.5;" width="154.5" x="66.77" y="694.29"/><line style="stroke:#181818;stroke-width:0.5;" x1="66.77" x2="221.27" y1="720.5869" y2="720.5869"/><text fill="#000000" font-family="sans-serif" font-size="14" lengthAdjust="spacing" textLength="76" x="106.02" y="712.2851">player_turn</text><ellipse cx="134.27" cy="741.5869" fill="#222222" rx="10" ry="10" style="stroke:#222222;stroke-width:1.0;"/><g id="player_turn.PLACE_CARD"><rect fill="#F1F1F1" height="50" rx="12.5" ry="12.5" style="stroke:#181818;stroke-width:0.5;" width="111" x="78.77" y="788.5869"/><line style="stroke:#181818;stroke-width:0.5;" x1="78.77" x2="189.77" y1="814.8838" y2="814.8838"/><text fill="#000000" font-family="sans-serif" font-size="14" lengthAdjust="spacing" textLength="91" x="88.77" y="806.582">PLACE_CARD</text></g><g id="player_turn.DRAW_CARD"><rect fill="#F1F1F1" height="50" rx="12.5" ry="12.5" style="stroke:#181818;stroke-width:0.5;" width="110" x="79.27" y="891.5869"/><line style="stroke:#181818;stroke-width:0.5;" x1="79.27" x2="189.27" y1="917.8838" y2="917.8838"/><text fill="#000000" font-family="sans-serif" font-size="14" lengthAdjust="spacing" textLength="90" x="89.27" y="909.582">DRAW_CARD</text></g><ellipse cx="134.27" cy="1005.5869" fill="none" rx="11" ry="11" style="stroke:#222222;stroke-width:1.0;"/><ellipse cx="134.27" cy="1005.5869" fill="#222222" rx="6" ry="6" style="stroke:#222222;stroke-width:1.0;"/><!--link *start*player_turn to PLACE_CARD--><g id="link_*start*player_turn_PLACE_CARD"><path d="M134.27,752.0269 C134.27,761.2869 134.27,769.7769 134.27,782.2669 " fill="none" id="*start*player_turn-to-PLACE_CARD" style="stroke:#181818;stroke-width:1.0;"/><polygon fill="#181818" points="134.27,788.2669,138.27,779.2669,134.27,783.2669,130.27,779.2669,134.27,788.2669" style="stroke:#181818;stroke-width:1.0;"/></g><!--link PLACE_CARD to DRAW_CARD--><g id="link_PLACE_CARD_DRAW_CARD"><path d="M134.27,839.0369 C134.27,854.9169 134.27,869.5269 134.27,885.3669 " fill="none" id="PLACE_CARD-to-DRAW_CARD" style="stroke:#181818;stroke-width:1.0;"/><polygon fill="#181818" points="134.27,891.3669,138.27,882.3669,134.27,886.3669,130.27,882.3669,134.27,891.3669" style="stroke:#181818;stroke-width:1.0;"/><text fill="#000000" font-family="sans-serif" font-size="13" lengthAdjust="spacing" textLength="76" x="135.27" y="869.6538">Card placed</text></g><!--link DRAW_CARD to *end*player_turn--><g id="link_DRAW_CARD_*end*player_turn"><path d="M134.27,941.8169 C134.27,959.1169 134.27,975.5069 134.27,988.3369 " fill="none" id="DRAW_CARD-to-*end*player_turn" style="stroke:#181818;stroke-width:1.0;"/><polygon fill="#181818" points="134.27,994.3369,138.27,985.3369,134.27,989.3369,130.27,985.3369,134.27,994.3369" style="stroke:#181818;stroke-width:1.0;"/><text fill="#000000" font-family="sans-serif" font-size="13" lengthAdjust="spacing" textLength="72" x="135.27" y="972.6538">Card drawn</text></g><!--link *start* to WAIT_FOR_PLAYERS--><g id="link_*start*_WAIT_FOR_PLAYERS"><path d="M144.01,26.35 C144.01,40.28 144.01,60.95 144.01,80.64 " fill="none" id="*start*-to-WAIT_FOR_PLAYERS" style="stroke:#181818;stroke-width:1.0;"/><polygon fill="#181818" points="144.01,86.64,148.01,77.64,144.01,81.64,140.01,77.64,144.01,86.64" style="stroke:#181818;stroke-width:1.0;"/></g><!--link WAIT_FOR_PLAYERS to WAIT_FOR_PLAYERS--><g id="link_WAIT_FOR_PLAYERS_WAIT_FOR_PLAYERS"><path d="M224.01,101.74 C243.77,102.48 258.51,105.9 258.51,112 C258.51,118.09 249.7658,121.2855 230.0058,122.0255 " fill="none" id="WAIT_FOR_PLAYERS-to-WAIT_FOR_PLAYERS" style="stroke:#181818;stroke-width:1.0;"/><polygon fill="#181818" points="224.01,122.25,233.1534,125.9104,229.0065,122.0629,232.854,117.916,224.01,122.25" style="stroke:#181818;stroke-width:1.0;"/><text fill="#000000" font-family="sans-serif" font-size="13" lengthAdjust="spacing" textLength="112" x="264.51" y="116.5669">!isGameStarted()</text></g><!--link WAIT_FOR_PLAYERS to initialization_phase--><g id="link_WAIT_FOR_PLAYERS_initialization_phase"><path d="M144.01,137.29 C144.01,155.76 144.01,177.14 144.01,207.74 " fill="none" id="WAIT_FOR_PLAYERS-to-initialization_phase" style="stroke:#181818;stroke-width:1.0;"/><polygon fill="#181818" points="144.01,213.74,148.01,204.74,144.01,208.74,140.01,204.74,144.01,213.74" style="stroke:#181818;stroke-width:1.0;"/><text fill="#000000" font-family="sans-serif" font-size="13" lengthAdjust="spacing" textLength="107" x="145.01" y="180.0669">isGameStarted()</text></g><!--link initialization_phase to initialization_phase--><g id="link_initialization_phase_initialization_phase"><path d="M281.33,382.69 C302.01,389 316.03,402.66 316.03,423.64 C316.03,444.63 307.7488,456.5389 287.0688,462.8489 " fill="none" id="initialization_phase-to-initialization_phase" style="stroke:#181818;stroke-width:1.0;"/><polygon fill="#181818" points="281.33,464.6,291.1056,465.7993,286.1123,463.1408,288.7708,458.1476,281.33,464.6" style="stroke:#181818;stroke-width:1.0;"/><text fill="#000000" font-family="sans-serif" font-size="13" lengthAdjust="spacing" textLength="223" x="322.03" y="428.2069">!(all players have played their turn)</text></g><!--link initialization_phase to player_turn--><g id="link_initialization_phase_player_turn"><path d="M144.01,633.77 C144.01,654 144.01,668.33 144.01,688.05 " fill="none" id="initialization_phase-to-player_turn" style="stroke:#181818;stroke-width:1.0;"/><polygon fill="#181818" points="144.01,694.05,148.01,685.05,144.01,689.05,140.01,685.05,144.01,694.05" style="stroke:#181818;stroke-width:1.0;"/></g><!--link player_turn to player_turn--><g id="link_player_turn_player_turn"><path d="M221.66,824.01 C241.43,826.41 256.26,838.55 256.26,860.44 C256.26,882.33 247.3866,893.7599 227.6166,896.1499 " fill="none" id="player_turn-to-player_turn" style="stroke:#181818;stroke-width:1.0;"/><polygon fill="#181818" points="221.66,896.87,231.075,899.7609,226.6239,896.2699,230.1149,891.8188,221.66,896.87" style="stroke:#181818;stroke-width:1.0;"/></g><!--SRC=[bL7HIiCm57tlLzozRS9-e0z2pQBh64RIuf0XuR846gZjIAEYuh-RjTswnLGmRpVtd7FFFNTxzGpp-JLiaZGNjuoBXtNoH7aM-Hz1L0mJtTpXYyei6glaT1RcwKfRZQN-HAlhIkmBR5GCFZLgB5eL1CDN1EvjUxVflHlY1X0giZpXEUM297pHOaPw0uyi6SjexqyGjcOyXiw5WHqQ2ViITqeEQW76dtB_OxAR5ILv-aXRdp6GkgoTaQ9kLFLBwHBSQhbGekyecDfuzfCfbkLXqGzb6YZmJNM515ieRS2-ccesBjeHnG7LN-tinpjMTulJVOQoxIvuiZakxcL_QXtNx27Iu7lbLZuVwPdw0G00]--></g></svg>