<?xml version="1.0" encoding="us-ascii" standalone="no"?><svg xmlns="http://www.w3.org/2000/svg" xmlns:xlink="http://www.w3.org/1999/xlink" contentStyleType="text/css" height="151px" preserveAspectRatio="none" style="width:213px;height:151px;background:#FFFFFF;" version="1.1" viewBox="0 0 213 151" width="213px" zoomAndPan="magnify"><defs/><g><rect fill="none" height="46.2656" style="stroke:#000000;stroke-width:1.5;" width="197.5" x="10" y="53.2969"/><line style="stroke:#181818;stroke-width:0.5;stroke-dasharray:5.0,5.0;" x1="70" x2="70" y1="36.2969" y2="116.5625"/><line style="stroke:#181818;stroke-width:0.5;stroke-dasharray:5.0,5.0;" x1="168.5" x2="168.5" y1="36.2969" y2="116.5625"/><rect fill="#E2E2F0" height="30.2969" rx="2.5" ry="2.5" style="stroke:#181818;stroke-width:0.5;" width="101" x="20" y="5"/><text fill="#000000" font-family="sans-serif" font-size="14" lengthAdjust="spacing" textLength="87" x="27" y="24.9951">ALL_CLIENTS</text><rect fill="#E2E2F0" height="30.2969" rx="2.5" ry="2.5" style="stroke:#181818;stroke-width:0.5;" width="101" x="20" y="115.5625"/><text fill="#000000" font-family="sans-serif" font-size="14" lengthAdjust="spacing" textLength="87" x="27" y="135.5576">ALL_CLIENTS</text><rect fill="#E2E2F0" height="30.2969" rx="2.5" ry="2.5" style="stroke:#181818;stroke-width:0.5;" width="58" x="139.5" y="5"/><text fill="#000000" font-family="sans-serif" font-size="14" lengthAdjust="spacing" textLength="44" x="146.5" y="24.9951">Server</text><rect fill="#E2E2F0" height="30.2969" rx="2.5" ry="2.5" style="stroke:#181818;stroke-width:0.5;" width="58" x="139.5" y="115.5625"/><text fill="#000000" font-family="sans-serif" font-size="14" lengthAdjust="spacing" textLength="44" x="146.5" y="135.5576">Server</text><path d="M10,53.2969 L159,53.2969 L159,60.4297 L149,70.4297 L10,70.4297 L10,53.2969 " fill="#EEEEEE" style="stroke:#000000;stroke-width:1.5;"/><rect fill="none" height="46.2656" style="stroke:#000000;stroke-width:1.5;" width="197.5" x="10" y="53.2969"/><text fill="#000000" font-family="sans-serif" font-size="13" font-weight="bold" lengthAdjust="spacing" textLength="99" x="25" y="66.3638">Game Ending</text><text fill="#000000" font-family="sans-serif" font-size="11" font-weight="bold" lengthAdjust="spacing" textLength="25" x="174" y="65.5073">[ok]</text><polygon fill="#181818" points="81.5,87.5625,71.5,91.5625,81.5,95.5625,77.5,91.5625" style="stroke:#181818;stroke-width:1.0;"/><line style="stroke:#181818;stroke-width:1.0;" x1="75.5" x2="167.5" y1="91.5625" y2="91.5625"/><text fill="#000000" font-family="sans-serif" font-size="13" lengthAdjust="spacing" textLength="74" x="87.5" y="86.4966">updateView</text><!--SRC=[Io_ABorGS4_CJLLmpKl9p4jNYCxFZkLI00977vzuPnzFLx-GO0KRNONWrAAor2851Ik5qeAKn9BKiCpKSgxKl1G0]--></g></svg>