<?xml version="1.0" encoding="us-ascii" standalone="no"?><svg xmlns="http://www.w3.org/2000/svg" xmlns:xlink="http://www.w3.org/1999/xlink" contentStyleType="text/css" height="1032px" preserveAspectRatio="none" style="width:797px;height:1032px;background:#FFFFFF;" version="1.1" viewBox="0 0 797 1032" width="797px" zoomAndPan="magnify"><defs/><g><ellipse cx="263.75" cy="16" fill="#222222" rx="10" ry="10" style="stroke:#222222;stroke-width:1.0;"/><g id="WAIT_FOR_PLAYERS"><rect fill="#F1F1F1" height="50" rx="12.5" ry="12.5" style="stroke:#181818;stroke-width:0.5;" width="159" x="184.25" y="87"/><line style="stroke:#181818;stroke-width:0.5;" x1="184.25" x2="343.25" y1="113.2969" y2="113.2969"/><text fill="#000000" font-family="sans-serif" font-size="14" lengthAdjust="spacing" textLength="139" x="194.25" y="104.9951">WAIT_FOR_PLAYERS</text></g><path d="M19.5,214 L508,214 A12.5,12.5 0 0 1 520.5,226.5 L520.5,240.2969 L7,240.2969 L7,226.5 A12.5,12.5 0 0 1 19.5,214 " fill="#F1F1F1" style="stroke:#F1F1F1;stroke-width:1.0;"/><rect fill="none" height="419.2969" rx="12.5" ry="12.5" style="stroke:#181818;stroke-width:0.5;" width="513.5" x="7" y="214"/><line style="stroke:#181818;stroke-width:0.5;" x1="7" x2="520.5" y1="240.2969" y2="240.2969"/><text fill="#000000" font-family="sans-serif" font-size="14" lengthAdjust="spacing" textLength="129" x="199.25" y="231.9951">initialization_phase</text><ellipse cx="138.5" cy="261.2969" fill="#222222" rx="10" ry="10" style="stroke:#222222;stroke-width:1.0;"/><g id="initialization_phase.INIT_PLACE_STARTER_CARD"><rect fill="#F1F1F1" height="50" rx="12.5" ry="12.5" style="stroke:#181818;stroke-width:0.5;" width="215" x="31" y="308.2969"/><line style="stroke:#181818;stroke-width:0.5;" x1="31" x2="246" y1="334.5938" y2="334.5938"/><text fill="#000000" font-family="sans-serif" font-size="14" lengthAdjust="spacing" textLength="195" x="41" y="326.292">INIT_PLACE_STARTER_CARD</text></g><g id="initialization_phase.INIT_DRAW_CARD"><rect fill="#F1F1F1" height="50" rx="12.5" ry="12.5" style="stroke:#181818;stroke-width:0.5;" width="142" x="67.5" y="411.2969"/><line style="stroke:#181818;stroke-width:0.5;" x1="67.5" x2="209.5" y1="437.5938" y2="437.5938"/><text fill="#000000" font-family="sans-serif" font-size="14" lengthAdjust="spacing" textLength="122" x="77.5" y="429.292">INIT_DRAW_CARD</text></g><g id="initialization_phase.INIT_CHOOSE_OBJECTIVE_CARD"><rect fill="#F1F1F1" height="50" rx="12.5" ry="12.5" style="stroke:#181818;stroke-width:0.5;" width="239" x="19" y="514.2969"/><line style="stroke:#181818;stroke-width:0.5;" x1="19" x2="258" y1="540.5938" y2="540.5938"/><text fill="#000000" font-family="sans-serif" font-size="14" lengthAdjust="spacing" textLength="219" x="29" y="532.292">INIT_CHOOSE_OBJECTIVE_CARD</text></g><ellipse cx="138.5" cy="612.2969" fill="none" rx="11" ry="11" style="stroke:#222222;stroke-width:1.0;"/><ellipse cx="138.5" cy="612.2969" fill="#222222" rx="6" ry="6" style="stroke:#222222;stroke-width:1.0;"/><!--link *start*initialization_phase to INIT_PLACE_STARTER_CARD--><g id="link_*start*initialization_phase_INIT_PLACE_STARTER_CARD"><path d="M138.5,271.7369 C138.5,280.9969 138.5,289.4869 138.5,301.9769 " fill="none" id="*start*initialization_phase-to-INIT_PLACE_STARTER_CARD" style="stroke:#181818;stroke-width:1.0;"/><polygon fill="#181818" points="138.5,307.9769,142.5,298.9769,138.5,302.9769,134.5,298.9769,138.5,307.9769" style="stroke:#181818;stroke-width:1.0;"/></g><!--link INIT_PLACE_STARTER_CARD to INIT_DRAW_CARD--><g id="link_INIT_PLACE_STARTER_CARD_INIT_DRAW_CARD"><path d="M138.5,358.7469 C138.5,374.6269 138.5,389.2369 138.5,405.0769 " fill="none" id="INIT_PLACE_STARTER_CARD-to-INIT_DRAW_CARD" style="stroke:#181818;stroke-width:1.0;"/><polygon fill="#181818" points="138.5,411.0769,142.5,402.0769,138.5,406.0769,134.5,402.0769,138.5,411.0769" style="stroke:#181818;stroke-width:1.0;"/><text fill="#000000" font-family="sans-serif" font-size="13" lengthAdjust="spacing" textLength="123" x="139.5" y="389.3638">Starter card placed</text></g><!--link INIT_DRAW_CARD to INIT_DRAW_CARD--><g id="link_INIT_DRAW_CARD_INIT_DRAW_CARD"><path d="M209.73,427.5369 C220.33,428.8969 227.5,431.8169 227.5,436.2969 C227.5,440.7769 226.2812,442.9333 215.6812,444.2933 " fill="none" id="INIT_DRAW_CARD-to-INIT_DRAW_CARD" style="stroke:#181818;stroke-width:1.0;"/><polygon fill="#181818" points="209.73,445.0569,219.1659,447.879,214.6893,444.4206,218.1478,439.9441,209.73,445.0569" style="stroke:#181818;stroke-width:1.0;"/><text fill="#000000" font-family="sans-serif" font-size="13" lengthAdjust="spacing" textLength="272" x="233.5" y="440.8638">!(2 Resource cards and 1 Gold card drawn)</text></g><!--link INIT_DRAW_CARD to INIT_CHOOSE_OBJECTIVE_CARD--><g id="link_INIT_DRAW_CARD_INIT_CHOOSE_OBJECTIVE_CARD"><path d="M138.5,461.7469 C138.5,477.6269 138.5,492.2369 138.5,508.0769 " fill="none" id="INIT_DRAW_CARD-to-INIT_CHOOSE_OBJECTIVE_CARD" style="stroke:#181818;stroke-width:1.0;"/><polygon fill="#181818" points="138.5,514.0769,142.5,505.0769,138.5,509.0769,134.5,505.0769,138.5,514.0769" style="stroke:#181818;stroke-width:1.0;"/><text fill="#000000" font-family="sans-serif" font-size="13" lengthAdjust="spacing" textLength="267" x="139.5" y="492.3638">(2 Resource cards and 1 Gold card drawn)</text></g><!--link INIT_CHOOSE_OBJECTIVE_CARD to *end*initialization_phase--><g id="link_INIT_CHOOSE_OBJECTIVE_CARD_*end*initialization_phase"><path d="M138.5,564.7269 C138.5,577.0869 138.5,585.4269 138.5,594.8969 " fill="none" id="INIT_CHOOSE_OBJECTIVE_CARD-to-*end*initialization_phase" style="stroke:#181818;stroke-width:1.0;"/><polygon fill="#181818" points="138.5,600.8969,142.5,591.8969,138.5,595.8969,134.5,591.8969,138.5,600.8969" style="stroke:#181818;stroke-width:1.0;"/></g><path d="M199,694.29 L328.5,694.29 A12.5,12.5 0 0 1 341,706.79 L341,720.5869 L186.5,720.5869 L186.5,706.79 A12.5,12.5 0 0 1 199,694.29 " fill="#F1F1F1" style="stroke:#F1F1F1;stroke-width:1.0;"/><rect fill="none" height="332.2969" rx="12.5" ry="12.5" style="stroke:#181818;stroke-width:0.5;" width="154.5" x="186.5" y="694.29"/><line style="stroke:#181818;stroke-width:0.5;" x1="186.5" x2="341" y1="720.5869" y2="720.5869"/><text fill="#000000" font-family="sans-serif" font-size="14" lengthAdjust="spacing" textLength="76" x="225.75" y="712.2851">player_turn</text><ellipse cx="254" cy="741.5869" fill="#222222" rx="10" ry="10" style="stroke:#222222;stroke-width:1.0;"/><g id="player_turn.PLACE_CARD"><rect fill="#F1F1F1" height="50" rx="12.5" ry="12.5" style="stroke:#181818;stroke-width:0.5;" width="111" x="198.5" y="788.5869"/><line style="stroke:#181818;stroke-width:0.5;" x1="198.5" x2="309.5" y1="814.8838" y2="814.8838"/><text fill="#000000" font-family="sans-serif" font-size="14" lengthAdjust="spacing" textLength="91" x="208.5" y="806.582">PLACE_CARD</text></g><g id="player_turn.DRAW_CARD"><rect fill="#F1F1F1" height="50" rx="12.5" ry="12.5" style="stroke:#181818;stroke-width:0.5;" width="110" x="199" y="891.5869"/><line style="stroke:#181818;stroke-width:0.5;" x1="199" x2="309" y1="917.8838" y2="917.8838"/><text fill="#000000" font-family="sans-serif" font-size="14" lengthAdjust="spacing" textLength="90" x="209" y="909.582">DRAW_CARD</text></g><ellipse cx="254" cy="1005.5869" fill="none" rx="11" ry="11" style="stroke:#222222;stroke-width:1.0;"/><ellipse cx="254" cy="1005.5869" fill="#222222" rx="6" ry="6" style="stroke:#222222;stroke-width:1.0;"/><!--link *start*player_turn to PLACE_CARD--><g id="link_*start*player_turn_PLACE_CARD"><path d="M254,752.0269 C254,761.2869 254,769.7769 254,782.2669 " fill="none" id="*start*player_turn-to-PLACE_CARD" style="stroke:#181818;stroke-width:1.0;"/><polygon fill="#181818" points="254,788.2669,258,779.2669,254,783.2669,250,779.2669,254,788.2669" style="stroke:#181818;stroke-width:1.0;"/></g><!--link PLACE_CARD to DRAW_CARD--><g id="link_PLACE_CARD_DRAW_CARD"><path d="M254,839.0369 C254,854.9169 254,869.5269 254,885.3669 " fill="none" id="PLACE_CARD-to-DRAW_CARD" style="stroke:#181818;stroke-width:1.0;"/><polygon fill="#181818" points="254,891.3669,258,882.3669,254,886.3669,250,882.3669,254,891.3669" style="stroke:#181818;stroke-width:1.0;"/><text fill="#000000" font-family="sans-serif" font-size="13" lengthAdjust="spacing" textLength="76" x="255" y="869.6538">Card placed</text></g><!--link DRAW_CARD to *end*player_turn--><g id="link_DRAW_CARD_*end*player_turn"><path d="M254,941.8169 C254,959.1169 254,975.5069 254,988.3369 " fill="none" id="DRAW_CARD-to-*end*player_turn" style="stroke:#181818;stroke-width:1.0;"/><polygon fill="#181818" points="254,994.3369,258,985.3369,254,989.3369,250,985.3369,254,994.3369" style="stroke:#181818;stroke-width:1.0;"/><text fill="#000000" font-family="sans-serif" font-size="13" lengthAdjust="spacing" textLength="72" x="255" y="972.6538">Card drawn</text></g><!--link *start* to WAIT_FOR_PLAYERS--><g id="link_*start*_WAIT_FOR_PLAYERS"><path d="M263.75,26.35 C263.75,40.28 263.75,60.95 263.75,80.64 " fill="none" id="*start*-to-WAIT_FOR_PLAYERS" style="stroke:#181818;stroke-width:1.0;"/><polygon fill="#181818" points="263.75,86.64,267.75,77.64,263.75,81.64,259.75,77.64,263.75,86.64" style="stroke:#181818;stroke-width:1.0;"/></g><!--link WAIT_FOR_PLAYERS to WAIT_FOR_PLAYERS--><g id="link_WAIT_FOR_PLAYERS_WAIT_FOR_PLAYERS"><path d="M343.74,101.74 C363.51,102.48 378.25,105.9 378.25,112 C378.25,118.09 369.5058,121.2856 349.7358,122.0256 " fill="none" id="WAIT_FOR_PLAYERS-to-WAIT_FOR_PLAYERS" style="stroke:#181818;stroke-width:1.0;"/><polygon fill="#181818" points="343.74,122.25,352.8833,125.9106,348.7365,122.063,352.5841,117.9162,343.74,122.25" style="stroke:#181818;stroke-width:1.0;"/><text fill="#000000" font-family="sans-serif" font-size="13" lengthAdjust="spacing" textLength="112" x="384.25" y="116.5669">!isGameStarted()</text></g><!--link WAIT_FOR_PLAYERS to initialization_phase--><g id="link_WAIT_FOR_PLAYERS_initialization_phase"><path d="M263.75,137.29 C263.75,155.76 263.75,177.14 263.75,207.74 " fill="none" id="WAIT_FOR_PLAYERS-to-initialization_phase" style="stroke:#181818;stroke-width:1.0;"/><polygon fill="#181818" points="263.75,213.74,267.75,204.74,263.75,208.74,259.75,204.74,263.75,213.74" style="stroke:#181818;stroke-width:1.0;"/><text fill="#000000" font-family="sans-serif" font-size="13" lengthAdjust="spacing" textLength="107" x="264.75" y="180.0669">isGameStarted()</text></g><!--link initialization_phase to initialization_phase--><g id="link_initialization_phase_initialization_phase"><path d="M520.76,388.84 C542.18,396.33 555.5,407.93 555.5,423.64 C555.5,439.36 547.8437,448.9795 526.4237,456.4695 " fill="none" id="initialization_phase-to-initialization_phase" style="stroke:#181818;stroke-width:1.0;"/><polygon fill="#181818" points="520.76,458.45,530.5759,459.2551,525.4798,456.7996,527.9353,451.7035,520.76,458.45" style="stroke:#181818;stroke-width:1.0;"/><text fill="#000000" font-family="sans-serif" font-size="13" lengthAdjust="spacing" textLength="223" x="561.5" y="428.2069">!(all players have played their turn)</text></g><!--link initialization_phase to player_turn--><g id="link_initialization_phase_player_turn"><path d="M263.75,633.77 C263.75,654 263.75,668.33 263.75,688.05 " fill="none" id="initialization_phase-to-player_turn" style="stroke:#181818;stroke-width:1.0;"/><polygon fill="#181818" points="263.75,694.05,267.75,685.05,263.75,689.05,259.75,685.05,263.75,694.05" style="stroke:#181818;stroke-width:1.0;"/></g><!--link player_turn to player_turn--><g id="link_player_turn_player_turn"><path d="M341.39,824.01 C361.16,826.41 376,838.55 376,860.44 C376,882.33 367.1166,893.7599 347.3466,896.1499 " fill="none" id="player_turn-to-player_turn" style="stroke:#181818;stroke-width:1.0;"/><polygon fill="#181818" points="341.39,896.87,350.805,899.7609,346.3539,896.2699,349.8449,891.8188,341.39,896.87" style="stroke:#181818;stroke-width:1.0;"/></g><!--SRC=[bL5TIyCm57tlhxXxwuGzw6CVXDh5MH4hQN78a71f0WtKTYIPek9_DqlBsfLKC6-vEHytv-mkNc6rkePjd1RiDgFiwI5-8JGFfWClAeA5r1jy4xb1PGGFbtwURAIHMCilDB9jsBv2BIAOKWDjq0Wl6Bu3i6VNRvi-MXDha12M5p4j26L9JDSEC_CsyDOqthfH19stWX8LXtsDfU23nWddfIx2Aw12jmTL2iVNW0s7IzYqDUy4kSAFPlcdO7ANPJbXsSqzIOhqcVJY_zVs2ZaVcrdm4tX3dQzc4M9T7nFv54f3XU-Ykt0mbP0Ap45PzrdHZiYEgBxKqMJIPLVLgRxXwbv7YIUJaixZj78zn4LZlposd2pr2m00]--></g></svg>