<?xml version="1.0" encoding="us-ascii" standalone="no"?><svg xmlns="http://www.w3.org/2000/svg" xmlns:xlink="http://www.w3.org/1999/xlink" contentStyleType="text/css" height="2419px" preserveAspectRatio="none" style="width:1474px;height:2419px;background:#FFFFFF;" version="1.1" viewBox="0 0 1474 2419" width="1474px" zoomAndPan="magnify"><defs/><g><!--class GameManager--><g id="elem_GameManager"><rect codeLine="1" fill="#F1F1F1" height="129.4844" id="GameManager" rx="2.5" ry="2.5" style="stroke:#181818;stroke-width:0.5;" width="447" x="691.5" y="31.5"/><ellipse cx="859.25" cy="47.5" fill="#ADD1B2" rx="11" ry="11" style="stroke:#181818;stroke-width:1.0;"/><path d="M861.5938,43.1719 C860.6563,42.7344 860.0625,42.5938 859.1875,42.5938 C856.5625,42.5938 854.5625,44.6719 854.5625,47.3906 L854.5625,48.5156 C854.5625,51.0938 856.6719,52.9844 859.5625,52.9844 C860.7813,52.9844 861.9375,52.6875 862.6875,52.1406 C863.2656,51.7344 863.5938,51.2813 863.5938,50.8906 C863.5938,50.4375 863.2031,50.0469 862.7344,50.0469 C862.5156,50.0469 862.3125,50.125 862.125,50.3125 C861.6719,50.7969 861.6719,50.7969 861.4844,50.8906 C861.0625,51.1563 860.375,51.2813 859.6094,51.2813 C857.5625,51.2813 856.2656,50.1875 856.2656,48.4844 L856.2656,47.3906 C856.2656,45.6094 857.5156,44.2969 859.25,44.2969 C859.8281,44.2969 860.4375,44.4531 860.9063,44.7031 C861.3906,44.9844 861.5625,45.2031 861.6563,45.6094 C861.7188,46.0156 861.75,46.1406 861.8906,46.2656 C862.0313,46.4063 862.2656,46.5156 862.4844,46.5156 C862.75,46.5156 863.0156,46.375 863.1875,46.1563 C863.2969,46 863.3281,45.8125 863.3281,45.3906 L863.3281,43.9688 C863.3281,43.5313 863.3125,43.4063 863.2188,43.25 C863.0625,42.9844 862.7813,42.8438 862.4844,42.8438 C862.1875,42.8438 861.9844,42.9375 861.7656,43.25 L861.5938,43.1719 Z " fill="#000000"/><text fill="#000000" font-family="sans-serif" font-size="14" lengthAdjust="spacing" textLength="103" x="879.75" y="52.3467">GameManager</text><line style="stroke:#181818;stroke-width:0.5;" x1="692.5" x2="1137.5" y1="63.5" y2="63.5"/><rect fill="none" height="6" style="stroke:#C82930;stroke-width:1.0;" width="6" x="699.5" y="74.1484"/><text fill="#000000" font-family="sans-serif" font-size="14" lengthAdjust="spacing" textLength="179" x="711.5" y="80.4951">ArrayList&lt;Game&gt; games</text><line style="stroke:#181818;stroke-width:0.5;" x1="692.5" x2="1137.5" y1="87.7969" y2="87.7969"/><ellipse cx="702.5" cy="101.4453" fill="#84BE84" rx="3" ry="3" style="stroke:#038048;stroke-width:1.0;"/><text fill="#000000" font-family="sans-serif" font-size="14" lengthAdjust="spacing" textLength="421" x="711.5" y="104.792">createGame(String name, int nPlayers, String playerName)</text><ellipse cx="702.5" cy="117.7422" fill="#84BE84" rx="3" ry="3" style="stroke:#038048;stroke-width:1.0;"/><text fill="#000000" font-family="sans-serif" font-size="14" lengthAdjust="spacing" textLength="187" x="711.5" y="121.0889">deleteGame(String name)</text><ellipse cx="702.5" cy="134.0391" fill="#84BE84" rx="3" ry="3" style="stroke:#038048;stroke-width:1.0;"/><text fill="#000000" font-family="sans-serif" font-size="14" lengthAdjust="spacing" textLength="216" x="711.5" y="137.3857">ArrayList&lt;Game&gt; getGames()</text><ellipse cx="702.5" cy="150.3359" fill="#84BE84" rx="3" ry="3" style="stroke:#038048;stroke-width:1.0;"/><text fill="#000000" font-family="sans-serif" font-size="14" lengthAdjust="spacing" textLength="354" x="711.5" y="153.6826">Game joinGame(String name, String playerName)</text></g><!--class Game--><g id="elem_Game"><rect codeLine="10" fill="#F1F1F1" height="259.8594" id="Game" rx="2.5" ry="2.5" style="stroke:#181818;stroke-width:0.5;" width="239" x="795.5" y="245"/><ellipse cx="889.75" cy="261" fill="#ADD1B2" rx="11" ry="11" style="stroke:#181818;stroke-width:1.0;"/><path d="M892.0938,256.6719 C891.1563,256.2344 890.5625,256.0938 889.6875,256.0938 C887.0625,256.0938 885.0625,258.1719 885.0625,260.8906 L885.0625,262.0156 C885.0625,264.5938 887.1719,266.4844 890.0625,266.4844 C891.2813,266.4844 892.4375,266.1875 893.1875,265.6406 C893.7656,265.2344 894.0938,264.7813 894.0938,264.3906 C894.0938,263.9375 893.7031,263.5469 893.2344,263.5469 C893.0156,263.5469 892.8125,263.625 892.625,263.8125 C892.1719,264.2969 892.1719,264.2969 891.9844,264.3906 C891.5625,264.6563 890.875,264.7813 890.1094,264.7813 C888.0625,264.7813 886.7656,263.6875 886.7656,261.9844 L886.7656,260.8906 C886.7656,259.1094 888.0156,257.7969 889.75,257.7969 C890.3281,257.7969 890.9375,257.9531 891.4063,258.2031 C891.8906,258.4844 892.0625,258.7031 892.1563,259.1094 C892.2188,259.5156 892.25,259.6406 892.3906,259.7656 C892.5313,259.9063 892.7656,260.0156 892.9844,260.0156 C893.25,260.0156 893.5156,259.875 893.6875,259.6563 C893.7969,259.5 893.8281,259.3125 893.8281,258.8906 L893.8281,257.4688 C893.8281,257.0313 893.8125,256.9063 893.7188,256.75 C893.5625,256.4844 893.2813,256.3438 892.9844,256.3438 C892.6875,256.3438 892.4844,256.4375 892.2656,256.75 L892.0938,256.6719 Z " fill="#000000"/><text fill="#000000" font-family="sans-serif" font-size="14" lengthAdjust="spacing" textLength="42" x="910.25" y="265.8467">Game</text><line style="stroke:#181818;stroke-width:0.5;" x1="796.5" x2="1033.5" y1="277" y2="277"/><rect fill="none" height="6" style="stroke:#C82930;stroke-width:1.0;" width="6" x="803.5" y="287.6484"/><text fill="#000000" font-family="sans-serif" font-size="14" lengthAdjust="spacing" textLength="129" x="815.5" y="293.9951">String gameName</text><rect fill="none" height="6" style="stroke:#C82930;stroke-width:1.0;" width="6" x="803.5" y="303.9453"/><text fill="#000000" font-family="sans-serif" font-size="14" lengthAdjust="spacing" textLength="84" x="815.5" y="310.292">int nPlayers</text><rect fill="none" height="6" style="stroke:#C82930;stroke-width:1.0;" width="6" x="803.5" y="320.2422"/><text fill="#000000" font-family="sans-serif" font-size="14" lengthAdjust="spacing" textLength="186" x="815.5" y="326.5889">ArrayList&lt;Player&gt; players</text><rect fill="none" height="6" style="stroke:#C82930;stroke-width:1.0;" width="6" x="803.5" y="336.5391"/><text fill="#000000" font-family="sans-serif" font-size="14" lengthAdjust="spacing" textLength="178" x="815.5" y="342.8857">GlobalBoard globalBoard</text><rect fill="none" height="6" style="stroke:#C82930;stroke-width:1.0;" width="6" x="803.5" y="352.8359"/><text fill="#000000" font-family="sans-serif" font-size="14" lengthAdjust="spacing" textLength="145" x="815.5" y="359.1826">Player currentPlayer</text><line style="stroke:#181818;stroke-width:0.5;" x1="796.5" x2="1033.5" y1="366.4844" y2="366.4844"/><ellipse cx="806.5" cy="380.1328" fill="#84BE84" rx="3" ry="3" style="stroke:#038048;stroke-width:1.0;"/><text fill="#000000" font-family="sans-serif" font-size="14" lengthAdjust="spacing" textLength="85" x="815.5" y="383.4795">stopGame()</text><ellipse cx="806.5" cy="396.4297" fill="#84BE84" rx="3" ry="3" style="stroke:#038048;stroke-width:1.0;"/><text fill="#000000" font-family="sans-serif" font-size="14" lengthAdjust="spacing" textLength="173" x="815.5" y="399.7764">addPlayer(Player player)</text><ellipse cx="806.5" cy="412.7266" fill="#84BE84" rx="3" ry="3" style="stroke:#038048;stroke-width:1.0;"/><text fill="#000000" font-family="sans-serif" font-size="14" lengthAdjust="spacing" textLength="202" x="815.5" y="416.0732">removePlayer(Player player)</text><ellipse cx="806.5" cy="429.0234" fill="#84BE84" rx="3" ry="3" style="stroke:#038048;stroke-width:1.0;"/><text fill="#000000" font-family="sans-serif" font-size="14" lengthAdjust="spacing" textLength="86" x="815.5" y="432.3701">getPlayers()</text><ellipse cx="806.5" cy="445.3203" fill="#84BE84" rx="3" ry="3" style="stroke:#038048;stroke-width:1.0;"/><text fill="#000000" font-family="sans-serif" font-size="14" lengthAdjust="spacing" textLength="213" x="815.5" y="448.667">getPlayer(String playerName)</text><ellipse cx="806.5" cy="461.6172" fill="#84BE84" rx="3" ry="3" style="stroke:#038048;stroke-width:1.0;"/><text fill="#000000" font-family="sans-serif" font-size="14" lengthAdjust="spacing" textLength="113" x="815.5" y="464.9639">getNextPlayer()</text><ellipse cx="806.5" cy="477.9141" fill="#84BE84" rx="3" ry="3" style="stroke:#038048;stroke-width:1.0;"/><text fill="#000000" font-family="sans-serif" font-size="14" lengthAdjust="spacing" textLength="123" x="815.5" y="481.2607">getGlobalBoard()</text><ellipse cx="806.5" cy="494.2109" fill="#84BE84" rx="3" ry="3" style="stroke:#038048;stroke-width:1.0;"/><text fill="#000000" font-family="sans-serif" font-size="14" lengthAdjust="spacing" textLength="76" x="815.5" y="497.5576">isStarted()</text></g><!--class Player--><g id="elem_Player"><rect codeLine="51" fill="#F1F1F1" height="243.5625" id="Player" rx="2.5" ry="2.5" style="stroke:#181818;stroke-width:0.5;" width="265" x="597.5" y="901"/><ellipse cx="703.75" cy="917" fill="#ADD1B2" rx="11" ry="11" style="stroke:#181818;stroke-width:1.0;"/><path d="M706.0938,912.6719 C705.1563,912.2344 704.5625,912.0938 703.6875,912.0938 C701.0625,912.0938 699.0625,914.1719 699.0625,916.8906 L699.0625,918.0156 C699.0625,920.5938 701.1719,922.4844 704.0625,922.4844 C705.2813,922.4844 706.4375,922.1875 707.1875,921.6406 C707.7656,921.2344 708.0938,920.7813 708.0938,920.3906 C708.0938,919.9375 707.7031,919.5469 707.2344,919.5469 C707.0156,919.5469 706.8125,919.625 706.625,919.8125 C706.1719,920.2969 706.1719,920.2969 705.9844,920.3906 C705.5625,920.6563 704.875,920.7813 704.1094,920.7813 C702.0625,920.7813 700.7656,919.6875 700.7656,917.9844 L700.7656,916.8906 C700.7656,915.1094 702.0156,913.7969 703.75,913.7969 C704.3281,913.7969 704.9375,913.9531 705.4063,914.2031 C705.8906,914.4844 706.0625,914.7031 706.1563,915.1094 C706.2188,915.5156 706.25,915.6406 706.3906,915.7656 C706.5313,915.9063 706.7656,916.0156 706.9844,916.0156 C707.25,916.0156 707.5156,915.875 707.6875,915.6563 C707.7969,915.5 707.8281,915.3125 707.8281,914.8906 L707.8281,913.4688 C707.8281,913.0313 707.8125,912.9063 707.7188,912.75 C707.5625,912.4844 707.2813,912.3438 706.9844,912.3438 C706.6875,912.3438 706.4844,912.4375 706.2656,912.75 L706.0938,912.6719 Z " fill="#000000"/><text fill="#000000" font-family="sans-serif" font-size="14" lengthAdjust="spacing" textLength="44" x="724.25" y="921.8467">Player</text><line style="stroke:#181818;stroke-width:0.5;" x1="598.5" x2="861.5" y1="933" y2="933"/><rect fill="none" height="6" style="stroke:#C82930;stroke-width:1.0;" width="6" x="605.5" y="943.6484"/><text fill="#000000" font-family="sans-serif" font-size="14" lengthAdjust="spacing" textLength="134" x="617.5" y="949.9951">String playerName</text><rect fill="none" height="6" style="stroke:#C82930;stroke-width:1.0;" width="6" x="605.5" y="959.9453"/><text fill="#000000" font-family="sans-serif" font-size="14" lengthAdjust="spacing" textLength="94" x="617.5" y="966.292">int playerPos</text><rect fill="none" height="6" style="stroke:#C82930;stroke-width:1.0;" width="6" x="605.5" y="976.2422"/><text fill="#000000" font-family="sans-serif" font-size="14" lengthAdjust="spacing" textLength="177" x="617.5" y="982.5889">PlayerBoard playerBoard</text><rect fill="none" height="6" style="stroke:#C82930;stroke-width:1.0;" width="6" x="605.5" y="992.5391"/><text fill="#000000" font-family="sans-serif" font-size="14" lengthAdjust="spacing" textLength="208" x="617.5" y="998.8857">ObjectiveCard objectiveCard</text><rect fill="none" height="6" style="stroke:#C82930;stroke-width:1.0;" width="6" x="605.5" y="1008.8359"/><text fill="#000000" font-family="sans-serif" font-size="14" lengthAdjust="spacing" textLength="75" x="617.5" y="1015.1826">Hand hand</text><line style="stroke:#181818;stroke-width:0.5;" x1="598.5" x2="861.5" y1="1022.4844" y2="1022.4844"/><ellipse cx="608.5" cy="1036.1328" fill="#84BE84" rx="3" ry="3" style="stroke:#038048;stroke-width:1.0;"/><text fill="#000000" font-family="sans-serif" font-size="14" lengthAdjust="spacing" textLength="120" x="617.5" y="1039.4795">getPlayerName()</text><ellipse cx="608.5" cy="1052.4297" fill="#84BE84" rx="3" ry="3" style="stroke:#038048;stroke-width:1.0;"/><text fill="#000000" font-family="sans-serif" font-size="14" lengthAdjust="spacing" textLength="121" x="617.5" y="1055.7764">getPlayerBoard()</text><ellipse cx="608.5" cy="1068.7266" fill="#84BE84" rx="3" ry="3" style="stroke:#038048;stroke-width:1.0;"/><text fill="#000000" font-family="sans-serif" font-size="14" lengthAdjust="spacing" textLength="104" x="617.5" y="1072.0732">getPlayerPos()</text><ellipse cx="608.5" cy="1085.0234" fill="#84BE84" rx="3" ry="3" style="stroke:#038048;stroke-width:1.0;"/><text fill="#000000" font-family="sans-serif" font-size="14" lengthAdjust="spacing" textLength="115" x="617.5" y="1088.3701">getPlayerHand()</text><ellipse cx="608.5" cy="1101.3203" fill="#84BE84" rx="3" ry="3" style="stroke:#038048;stroke-width:1.0;"/><text fill="#000000" font-family="sans-serif" font-size="14" lengthAdjust="spacing" textLength="138" x="617.5" y="1104.667">getObjectiveCard()</text><ellipse cx="608.5" cy="1117.6172" fill="#84BE84" rx="3" ry="3" style="stroke:#038048;stroke-width:1.0;"/><text fill="#000000" font-family="sans-serif" font-size="14" lengthAdjust="spacing" textLength="239" x="617.5" y="1120.9639">setObjectiveCard(ObjectiveCard)</text><ellipse cx="608.5" cy="1133.9141" fill="#84BE84" rx="3" ry="3" style="stroke:#038048;stroke-width:1.0;"/><text fill="#000000" font-family="sans-serif" font-size="14" lengthAdjust="spacing" textLength="202" x="617.5" y="1137.2607">advancePlayerPos(int steps)</text></g><!--class GlobalBoard--><g id="elem_GlobalBoard"><rect codeLine="30" fill="#F1F1F1" height="276.1563" id="GlobalBoard" rx="2.5" ry="2.5" style="stroke:#181818;stroke-width:0.5;" width="261" x="907.5" y="565"/><ellipse cx="989.75" cy="581" fill="#ADD1B2" rx="11" ry="11" style="stroke:#181818;stroke-width:1.0;"/><path d="M992.0938,576.6719 C991.1563,576.2344 990.5625,576.0938 989.6875,576.0938 C987.0625,576.0938 985.0625,578.1719 985.0625,580.8906 L985.0625,582.0156 C985.0625,584.5938 987.1719,586.4844 990.0625,586.4844 C991.2813,586.4844 992.4375,586.1875 993.1875,585.6406 C993.7656,585.2344 994.0938,584.7813 994.0938,584.3906 C994.0938,583.9375 993.7031,583.5469 993.2344,583.5469 C993.0156,583.5469 992.8125,583.625 992.625,583.8125 C992.1719,584.2969 992.1719,584.2969 991.9844,584.3906 C991.5625,584.6563 990.875,584.7813 990.1094,584.7813 C988.0625,584.7813 986.7656,583.6875 986.7656,581.9844 L986.7656,580.8906 C986.7656,579.1094 988.0156,577.7969 989.75,577.7969 C990.3281,577.7969 990.9375,577.9531 991.4063,578.2031 C991.8906,578.4844 992.0625,578.7031 992.1563,579.1094 C992.2188,579.5156 992.25,579.6406 992.3906,579.7656 C992.5313,579.9063 992.7656,580.0156 992.9844,580.0156 C993.25,580.0156 993.5156,579.875 993.6875,579.6563 C993.7969,579.5 993.8281,579.3125 993.8281,578.8906 L993.8281,577.4688 C993.8281,577.0313 993.8125,576.9063 993.7188,576.75 C993.5625,576.4844 993.2813,576.3438 992.9844,576.3438 C992.6875,576.3438 992.4844,576.4375 992.2656,576.75 L992.0938,576.6719 Z " fill="#000000"/><text fill="#000000" font-family="sans-serif" font-size="14" lengthAdjust="spacing" textLength="88" x="1010.25" y="585.8467">GlobalBoard</text><line style="stroke:#181818;stroke-width:0.5;" x1="908.5" x2="1167.5" y1="597" y2="597"/><rect fill="none" height="6" style="stroke:#C82930;stroke-width:1.0;" width="6" x="915.5" y="607.6484"/><text fill="#000000" font-family="sans-serif" font-size="14" lengthAdjust="spacing" textLength="109" x="927.5" y="613.9951">Deck goldDeck</text><rect fill="none" height="6" style="stroke:#C82930;stroke-width:1.0;" width="6" x="915.5" y="623.9453"/><text fill="#000000" font-family="sans-serif" font-size="14" lengthAdjust="spacing" textLength="140" x="927.5" y="630.292">Deck resourceDeck</text><rect fill="none" height="6" style="stroke:#C82930;stroke-width:1.0;" width="6" x="915.5" y="640.2422"/><text fill="#000000" font-family="sans-serif" font-size="14" lengthAdjust="spacing" textLength="146" x="927.5" y="646.5889">Deck objectiveDeck</text><rect fill="none" height="6" style="stroke:#C82930;stroke-width:1.0;" width="6" x="915.5" y="656.5391"/><text fill="#000000" font-family="sans-serif" font-size="14" lengthAdjust="spacing" textLength="128" x="927.5" y="662.8857">Deck starterDeck</text><rect fill="none" height="6" style="stroke:#C82930;stroke-width:1.0;" width="6" x="915.5" y="672.8359"/><text fill="#000000" font-family="sans-serif" font-size="14" lengthAdjust="spacing" textLength="200" x="927.5" y="679.1826">ObjectiveCard[2] objectives</text><rect fill="none" height="6" style="stroke:#C82930;stroke-width:1.0;" width="6" x="915.5" y="689.1328"/><text fill="#000000" font-family="sans-serif" font-size="14" lengthAdjust="spacing" textLength="202" x="927.5" y="695.4795">GameCard[2] fieldGoldCards</text><rect fill="none" height="6" style="stroke:#C82930;stroke-width:1.0;" width="6" x="915.5" y="705.4297"/><text fill="#000000" font-family="sans-serif" font-size="14" lengthAdjust="spacing" textLength="235" x="927.5" y="711.7764">GameCard[2] fieldResourceCards</text><line style="stroke:#181818;stroke-width:0.5;" x1="908.5" x2="1167.5" y1="719.0781" y2="719.0781"/><ellipse cx="918.5" cy="732.7266" fill="#84BE84" rx="3" ry="3" style="stroke:#038048;stroke-width:1.0;"/><text fill="#000000" font-family="sans-serif" font-size="14" lengthAdjust="spacing" textLength="105" x="927.5" y="736.0732">getGoldDeck()</text><ellipse cx="918.5" cy="749.0234" fill="#84BE84" rx="3" ry="3" style="stroke:#038048;stroke-width:1.0;"/><text fill="#000000" font-family="sans-serif" font-size="14" lengthAdjust="spacing" textLength="138" x="927.5" y="752.3701">getResourceDeck()</text><ellipse cx="918.5" cy="765.3203" fill="#84BE84" rx="3" ry="3" style="stroke:#038048;stroke-width:1.0;"/><text fill="#000000" font-family="sans-serif" font-size="14" lengthAdjust="spacing" textLength="142" x="927.5" y="768.667">getObjectiveDeck()</text><ellipse cx="918.5" cy="781.6172" fill="#84BE84" rx="3" ry="3" style="stroke:#038048;stroke-width:1.0;"/><text fill="#000000" font-family="sans-serif" font-size="14" lengthAdjust="spacing" textLength="112" x="927.5" y="784.9639">getObjectives()</text><ellipse cx="918.5" cy="797.9141" fill="#84BE84" rx="3" ry="3" style="stroke:#038048;stroke-width:1.0;"/><text fill="#000000" font-family="sans-serif" font-size="14" lengthAdjust="spacing" textLength="142" x="927.5" y="801.2607">getFieldGoldCards()</text><ellipse cx="918.5" cy="814.2109" fill="#84BE84" rx="3" ry="3" style="stroke:#038048;stroke-width:1.0;"/><text fill="#000000" font-family="sans-serif" font-size="14" lengthAdjust="spacing" textLength="175" x="927.5" y="817.5576">getFieldResourceCards()</text><ellipse cx="918.5" cy="830.5078" fill="#84BE84" rx="3" ry="3" style="stroke:#038048;stroke-width:1.0;"/><text fill="#000000" font-family="sans-serif" font-size="14" lengthAdjust="spacing" textLength="223" x="927.5" y="833.8545">drawCardFromField(GameCard)</text></g><!--class Deck--><g id="elem_Deck"><rect codeLine="70" fill="#F1F1F1" height="80.5938" id="Deck" rx="2.5" ry="2.5" style="stroke:#181818;stroke-width:0.5;" width="187" x="944.5" y="982.5"/><ellipse cx="1015.25" cy="998.5" fill="#ADD1B2" rx="11" ry="11" style="stroke:#181818;stroke-width:1.0;"/><path d="M1017.5938,994.1719 C1016.6563,993.7344 1016.0625,993.5938 1015.1875,993.5938 C1012.5625,993.5938 1010.5625,995.6719 1010.5625,998.3906 L1010.5625,999.5156 C1010.5625,1002.0938 1012.6719,1003.9844 1015.5625,1003.9844 C1016.7813,1003.9844 1017.9375,1003.6875 1018.6875,1003.1406 C1019.2656,1002.7344 1019.5938,1002.2813 1019.5938,1001.8906 C1019.5938,1001.4375 1019.2031,1001.0469 1018.7344,1001.0469 C1018.5156,1001.0469 1018.3125,1001.125 1018.125,1001.3125 C1017.6719,1001.7969 1017.6719,1001.7969 1017.4844,1001.8906 C1017.0625,1002.1563 1016.375,1002.2813 1015.6094,1002.2813 C1013.5625,1002.2813 1012.2656,1001.1875 1012.2656,999.4844 L1012.2656,998.3906 C1012.2656,996.6094 1013.5156,995.2969 1015.25,995.2969 C1015.8281,995.2969 1016.4375,995.4531 1016.9063,995.7031 C1017.3906,995.9844 1017.5625,996.2031 1017.6563,996.6094 C1017.7188,997.0156 1017.75,997.1406 1017.8906,997.2656 C1018.0313,997.4063 1018.2656,997.5156 1018.4844,997.5156 C1018.75,997.5156 1019.0156,997.375 1019.1875,997.1563 C1019.2969,997 1019.3281,996.8125 1019.3281,996.3906 L1019.3281,994.9688 C1019.3281,994.5313 1019.3125,994.4063 1019.2188,994.25 C1019.0625,993.9844 1018.7813,993.8438 1018.4844,993.8438 C1018.1875,993.8438 1017.9844,993.9375 1017.7656,994.25 L1017.5938,994.1719 Z " fill="#000000"/><text fill="#000000" font-family="sans-serif" font-size="14" lengthAdjust="spacing" textLength="37" x="1035.75" y="1003.3467">Deck</text><line style="stroke:#181818;stroke-width:0.5;" x1="945.5" x2="1130.5" y1="1014.5" y2="1014.5"/><rect fill="none" height="6" style="stroke:#C82930;stroke-width:1.0;" width="6" x="952.5" y="1025.1484"/><text fill="#000000" font-family="sans-serif" font-size="14" lengthAdjust="spacing" textLength="161" x="964.5" y="1031.4951">ArrayList&lt;Card&gt; cards</text><line style="stroke:#181818;stroke-width:0.5;" x1="945.5" x2="1130.5" y1="1038.7969" y2="1038.7969"/><ellipse cx="955.5" cy="1052.4453" fill="#84BE84" rx="3" ry="3" style="stroke:#038048;stroke-width:1.0;"/><text fill="#000000" font-family="sans-serif" font-size="14" lengthAdjust="spacing" textLength="77" x="964.5" y="1055.792">drawCard()</text></g><!--class PlayerBoard--><g id="elem_PlayerBoard"><rect codeLine="85" fill="#F1F1F1" height="162.0781" id="PlayerBoard" rx="2.5" ry="2.5" style="stroke:#181818;stroke-width:0.5;" width="395" x="97.5" y="1205"/><ellipse cx="247.75" cy="1221" fill="#ADD1B2" rx="11" ry="11" style="stroke:#181818;stroke-width:1.0;"/><path d="M250.0938,1216.6719 C249.1563,1216.2344 248.5625,1216.0938 247.6875,1216.0938 C245.0625,1216.0938 243.0625,1218.1719 243.0625,1220.8906 L243.0625,1222.0156 C243.0625,1224.5938 245.1719,1226.4844 248.0625,1226.4844 C249.2813,1226.4844 250.4375,1226.1875 251.1875,1225.6406 C251.7656,1225.2344 252.0938,1224.7813 252.0938,1224.3906 C252.0938,1223.9375 251.7031,1223.5469 251.2344,1223.5469 C251.0156,1223.5469 250.8125,1223.625 250.625,1223.8125 C250.1719,1224.2969 250.1719,1224.2969 249.9844,1224.3906 C249.5625,1224.6563 248.875,1224.7813 248.1094,1224.7813 C246.0625,1224.7813 244.7656,1223.6875 244.7656,1221.9844 L244.7656,1220.8906 C244.7656,1219.1094 246.0156,1217.7969 247.75,1217.7969 C248.3281,1217.7969 248.9375,1217.9531 249.4063,1218.2031 C249.8906,1218.4844 250.0625,1218.7031 250.1563,1219.1094 C250.2188,1219.5156 250.25,1219.6406 250.3906,1219.7656 C250.5313,1219.9063 250.7656,1220.0156 250.9844,1220.0156 C251.25,1220.0156 251.5156,1219.875 251.6875,1219.6563 C251.7969,1219.5 251.8281,1219.3125 251.8281,1218.8906 L251.8281,1217.4688 C251.8281,1217.0313 251.8125,1216.9063 251.7188,1216.75 C251.5625,1216.4844 251.2813,1216.3438 250.9844,1216.3438 C250.6875,1216.3438 250.4844,1216.4375 250.2656,1216.75 L250.0938,1216.6719 Z " fill="#000000"/><text fill="#000000" font-family="sans-serif" font-size="14" lengthAdjust="spacing" textLength="86" x="268.25" y="1225.8467">PlayerBoard</text><line style="stroke:#181818;stroke-width:0.5;" x1="98.5" x2="491.5" y1="1237" y2="1237"/><rect fill="none" height="6" style="stroke:#C82930;stroke-width:1.0;" width="6" x="105.5" y="1247.6484"/><text fill="#000000" font-family="sans-serif" font-size="14" lengthAdjust="spacing" textLength="298" x="117.5" y="1253.9951">HashMap&lt;Point, GameCard&gt; playerBoard</text><rect fill="none" height="6" style="stroke:#C82930;stroke-width:1.0;" width="6" x="105.5" y="1263.9453"/><text fill="#000000" font-family="sans-serif" font-size="14" lengthAdjust="spacing" textLength="201" x="117.5" y="1270.292">GameItemStore gameItems</text><line style="stroke:#181818;stroke-width:0.5;" x1="98.5" x2="491.5" y1="1277.5938" y2="1277.5938"/><ellipse cx="108.5" cy="1291.2422" fill="#84BE84" rx="3" ry="3" style="stroke:#038048;stroke-width:1.0;"/><text fill="#000000" font-family="sans-serif" font-size="14" lengthAdjust="spacing" textLength="311" x="117.5" y="1294.5889">Optional&lt;GameCard&gt; getGameCard(Point)</text><ellipse cx="108.5" cy="1307.5391" fill="#84BE84" rx="3" ry="3" style="stroke:#038048;stroke-width:1.0;"/><text fill="#000000" font-family="sans-serif" font-size="14" lengthAdjust="spacing" textLength="369" x="117.5" y="1310.8857">Optional&lt;Point&gt; getGameCardPosition(GameCard)</text><ellipse cx="108.5" cy="1323.8359" fill="#84BE84" rx="3" ry="3" style="stroke:#038048;stroke-width:1.0;"/><text fill="#000000" font-family="sans-serif" font-size="14" lengthAdjust="spacing" textLength="282" x="117.5" y="1327.1826">ArrayList&lt;GameCard&gt; getGameCards()</text><ellipse cx="108.5" cy="1340.1328" fill="#84BE84" rx="3" ry="3" style="stroke:#038048;stroke-width:1.0;"/><text fill="#000000" font-family="sans-serif" font-size="14" lengthAdjust="spacing" textLength="301" x="117.5" y="1343.4795">Integer getGameItemAmount(GameItem)</text><ellipse cx="108.5" cy="1356.4297" fill="#84BE84" rx="3" ry="3" style="stroke:#038048;stroke-width:1.0;"/><text fill="#000000" font-family="sans-serif" font-size="14" lengthAdjust="spacing" textLength="263" x="117.5" y="1359.7764">void setGameCard(Point, GameCard)</text></g><!--class Hand--><g id="elem_Hand"><rect codeLine="76" fill="#F1F1F1" height="113.1875" id="Hand" rx="2.5" ry="2.5" style="stroke:#181818;stroke-width:0.5;" width="308" x="528" y="1229.5"/><ellipse cx="659.75" cy="1245.5" fill="#ADD1B2" rx="11" ry="11" style="stroke:#181818;stroke-width:1.0;"/><path d="M662.0938,1241.1719 C661.1563,1240.7344 660.5625,1240.5938 659.6875,1240.5938 C657.0625,1240.5938 655.0625,1242.6719 655.0625,1245.3906 L655.0625,1246.5156 C655.0625,1249.0938 657.1719,1250.9844 660.0625,1250.9844 C661.2813,1250.9844 662.4375,1250.6875 663.1875,1250.1406 C663.7656,1249.7344 664.0938,1249.2813 664.0938,1248.8906 C664.0938,1248.4375 663.7031,1248.0469 663.2344,1248.0469 C663.0156,1248.0469 662.8125,1248.125 662.625,1248.3125 C662.1719,1248.7969 662.1719,1248.7969 661.9844,1248.8906 C661.5625,1249.1563 660.875,1249.2813 660.1094,1249.2813 C658.0625,1249.2813 656.7656,1248.1875 656.7656,1246.4844 L656.7656,1245.3906 C656.7656,1243.6094 658.0156,1242.2969 659.75,1242.2969 C660.3281,1242.2969 660.9375,1242.4531 661.4063,1242.7031 C661.8906,1242.9844 662.0625,1243.2031 662.1563,1243.6094 C662.2188,1244.0156 662.25,1244.1406 662.3906,1244.2656 C662.5313,1244.4063 662.7656,1244.5156 662.9844,1244.5156 C663.25,1244.5156 663.5156,1244.375 663.6875,1244.1563 C663.7969,1244 663.8281,1243.8125 663.8281,1243.3906 L663.8281,1241.9688 C663.8281,1241.5313 663.8125,1241.4063 663.7188,1241.25 C663.5625,1240.9844 663.2813,1240.8438 662.9844,1240.8438 C662.6875,1240.8438 662.4844,1240.9375 662.2656,1241.25 L662.0938,1241.1719 Z " fill="#000000"/><text fill="#000000" font-family="sans-serif" font-size="14" lengthAdjust="spacing" textLength="36" x="680.25" y="1250.3467">Hand</text><line style="stroke:#181818;stroke-width:0.5;" x1="529" x2="835" y1="1261.5" y2="1261.5"/><rect fill="none" height="6" style="stroke:#C82930;stroke-width:1.0;" width="6" x="536" y="1272.1484"/><text fill="#000000" font-family="sans-serif" font-size="14" lengthAdjust="spacing" textLength="200" x="548" y="1278.4951">ArrayList&lt;GameCard&gt; hand</text><line style="stroke:#181818;stroke-width:0.5;" x1="529" x2="835" y1="1285.7969" y2="1285.7969"/><ellipse cx="539" cy="1299.4453" fill="#84BE84" rx="3" ry="3" style="stroke:#038048;stroke-width:1.0;"/><text fill="#000000" font-family="sans-serif" font-size="14" lengthAdjust="spacing" textLength="282" x="548" y="1302.792">ArrayList&lt;GameCard&gt; getGameCards()</text><ellipse cx="539" cy="1315.7422" fill="#84BE84" rx="3" ry="3" style="stroke:#038048;stroke-width:1.0;"/><text fill="#000000" font-family="sans-serif" font-size="14" lengthAdjust="spacing" textLength="178" x="548" y="1319.0889">void addCard(GameCard)</text><ellipse cx="539" cy="1332.0391" fill="#84BE84" rx="3" ry="3" style="stroke:#038048;stroke-width:1.0;"/><text fill="#000000" font-family="sans-serif" font-size="14" lengthAdjust="spacing" textLength="207" x="548" y="1335.3857">void removeCard(GameCard)</text></g><!--class GameCard--><g id="elem_GameCard"><rect codeLine="120" fill="#F1F1F1" height="227.2656" id="GameCard" rx="2.5" ry="2.5" style="stroke:#181818;stroke-width:0.5;" width="355" x="479.5" y="1427"/><ellipse cx="615.25" cy="1443" fill="#ADD1B2" rx="11" ry="11" style="stroke:#181818;stroke-width:1.0;"/><path d="M617.5938,1438.6719 C616.6563,1438.2344 616.0625,1438.0938 615.1875,1438.0938 C612.5625,1438.0938 610.5625,1440.1719 610.5625,1442.8906 L610.5625,1444.0156 C610.5625,1446.5938 612.6719,1448.4844 615.5625,1448.4844 C616.7813,1448.4844 617.9375,1448.1875 618.6875,1447.6406 C619.2656,1447.2344 619.5938,1446.7813 619.5938,1446.3906 C619.5938,1445.9375 619.2031,1445.5469 618.7344,1445.5469 C618.5156,1445.5469 618.3125,1445.625 618.125,1445.8125 C617.6719,1446.2969 617.6719,1446.2969 617.4844,1446.3906 C617.0625,1446.6563 616.375,1446.7813 615.6094,1446.7813 C613.5625,1446.7813 612.2656,1445.6875 612.2656,1443.9844 L612.2656,1442.8906 C612.2656,1441.1094 613.5156,1439.7969 615.25,1439.7969 C615.8281,1439.7969 616.4375,1439.9531 616.9063,1440.2031 C617.3906,1440.4844 617.5625,1440.7031 617.6563,1441.1094 C617.7188,1441.5156 617.75,1441.6406 617.8906,1441.7656 C618.0313,1441.9063 618.2656,1442.0156 618.4844,1442.0156 C618.75,1442.0156 619.0156,1441.875 619.1875,1441.6563 C619.2969,1441.5 619.3281,1441.3125 619.3281,1440.8906 L619.3281,1439.4688 C619.3281,1439.0313 619.3125,1438.9063 619.2188,1438.75 C619.0625,1438.4844 618.7813,1438.3438 618.4844,1438.3438 C618.1875,1438.3438 617.9844,1438.4375 617.7656,1438.75 L617.5938,1438.6719 Z " fill="#000000"/><text fill="#000000" font-family="sans-serif" font-size="14" lengthAdjust="spacing" textLength="75" x="635.75" y="1447.8467">GameCard</text><line style="stroke:#181818;stroke-width:0.5;" x1="480.5" x2="833.5" y1="1459" y2="1459"/><rect fill="none" height="6" style="stroke:#C82930;stroke-width:1.0;" width="6" x="487.5" y="1469.6484"/><text fill="#000000" font-family="sans-serif" font-size="14" lengthAdjust="spacing" textLength="119" x="499.5" y="1475.9951">Side currentSide</text><rect fill="none" height="6" style="stroke:#C82930;stroke-width:1.0;" width="6" x="487.5" y="1485.9453"/><text fill="#000000" font-family="sans-serif" font-size="14" lengthAdjust="spacing" textLength="106" x="499.5" y="1492.292">Side otherSide</text><rect fill="none" height="6" style="stroke:#C82930;stroke-width:1.0;" width="6" x="487.5" y="1502.2422"/><text fill="#000000" font-family="sans-serif" font-size="14" lengthAdjust="spacing" textLength="144" x="499.5" y="1508.5889">CardColor cardColor</text><line style="stroke:#181818;stroke-width:0.5;" x1="480.5" x2="833.5" y1="1515.8906" y2="1515.8906"/><ellipse cx="490.5" cy="1529.5391" fill="#84BE84" rx="3" ry="3" style="stroke:#038048;stroke-width:1.0;"/><text fill="#000000" font-family="sans-serif" font-size="14" lengthAdjust="spacing" textLength="156" x="499.5" y="1532.8857">Side getCurrentSide()</text><ellipse cx="490.5" cy="1545.8359" fill="#84BE84" rx="3" ry="3" style="stroke:#038048;stroke-width:1.0;"/><text fill="#000000" font-family="sans-serif" font-size="14" lengthAdjust="spacing" textLength="121" x="499.5" y="1549.1826">void switchSide()</text><ellipse cx="490.5" cy="1562.1328" fill="#84BE84" rx="3" ry="3" style="stroke:#038048;stroke-width:1.0;"/><text fill="#000000" font-family="sans-serif" font-size="14" lengthAdjust="spacing" textLength="148" x="499.5" y="1565.4795">CardColor getColor()</text><ellipse cx="490.5" cy="1578.4297" fill="#84BE84" rx="3" ry="3" style="stroke:#038048;stroke-width:1.0;"/><text fill="#000000" font-family="sans-serif" font-size="14" lengthAdjust="spacing" textLength="328" x="499.5" y="1581.7764">Optional&lt;Corner&gt; getCorner(CornerPosition)</text><ellipse cx="490.5" cy="1594.7266" fill="#84BE84" rx="3" ry="3" style="stroke:#038048;stroke-width:1.0;"/><text fill="#000000" font-family="sans-serif" font-size="14" lengthAdjust="spacing" textLength="329" x="499.5" y="1598.0732">GameItem setCornerCovered(CornerPosition)</text><ellipse cx="490.5" cy="1611.0234" fill="#84BE84" rx="3" ry="3" style="stroke:#038048;stroke-width:1.0;"/><text fill="#000000" font-family="sans-serif" font-size="14" lengthAdjust="spacing" textLength="271" x="499.5" y="1614.3701">GameItemStore getGameItemStore()</text><ellipse cx="490.5" cy="1627.3203" fill="#84BE84" rx="3" ry="3" style="stroke:#038048;stroke-width:1.0;"/><text fill="#000000" font-family="sans-serif" font-size="14" lengthAdjust="spacing" textLength="223" x="499.5" y="1630.667">Integer getPoints(PlayerBoard)</text><ellipse cx="490.5" cy="1643.6172" fill="#84BE84" rx="3" ry="3" style="stroke:#038048;stroke-width:1.0;"/><text fill="#000000" font-family="sans-serif" font-size="14" lengthAdjust="spacing" textLength="284" x="499.5" y="1646.9639">GameItemStore getNeededItemStore()</text></g><!--class Store--><g id="elem_Store"><rect codeLine="97" fill="#F1F1F1" height="145.7813" id="Store" rx="2.5" ry="2.5" style="stroke:#181818;stroke-width:0.5;" width="224" x="176" y="1467.5"/><ellipse cx="258.25" cy="1483.5" fill="#ADD1B2" rx="11" ry="11" style="stroke:#181818;stroke-width:1.0;"/><path d="M260.5938,1479.1719 C259.6563,1478.7344 259.0625,1478.5938 258.1875,1478.5938 C255.5625,1478.5938 253.5625,1480.6719 253.5625,1483.3906 L253.5625,1484.5156 C253.5625,1487.0938 255.6719,1488.9844 258.5625,1488.9844 C259.7813,1488.9844 260.9375,1488.6875 261.6875,1488.1406 C262.2656,1487.7344 262.5938,1487.2813 262.5938,1486.8906 C262.5938,1486.4375 262.2031,1486.0469 261.7344,1486.0469 C261.5156,1486.0469 261.3125,1486.125 261.125,1486.3125 C260.6719,1486.7969 260.6719,1486.7969 260.4844,1486.8906 C260.0625,1487.1563 259.375,1487.2813 258.6094,1487.2813 C256.5625,1487.2813 255.2656,1486.1875 255.2656,1484.4844 L255.2656,1483.3906 C255.2656,1481.6094 256.5156,1480.2969 258.25,1480.2969 C258.8281,1480.2969 259.4375,1480.4531 259.9063,1480.7031 C260.3906,1480.9844 260.5625,1481.2031 260.6563,1481.6094 C260.7188,1482.0156 260.75,1482.1406 260.8906,1482.2656 C261.0313,1482.4063 261.2656,1482.5156 261.4844,1482.5156 C261.75,1482.5156 262.0156,1482.375 262.1875,1482.1563 C262.2969,1482 262.3281,1481.8125 262.3281,1481.3906 L262.3281,1479.9688 C262.3281,1479.5313 262.3125,1479.4063 262.2188,1479.25 C262.0625,1478.9844 261.7813,1478.8438 261.4844,1478.8438 C261.1875,1478.8438 260.9844,1478.9375 260.7656,1479.25 L260.5938,1479.1719 Z " fill="#000000"/><text fill="#000000" font-family="sans-serif" font-size="14" lengthAdjust="spacing" textLength="40" x="278.75" y="1488.3467">Store</text><rect fill="#FFFFFF" height="15.9688" style="stroke:#181818;stroke-width:1.0;stroke-dasharray:2.0,2.0;" width="9" x="394" y="1464.5"/><text fill="#000000" font-family="sans-serif" font-size="12" font-style="italic" lengthAdjust="spacing" textLength="7" x="395" y="1476.6387">T</text><line style="stroke:#181818;stroke-width:0.5;" x1="177" x2="399" y1="1499.5" y2="1499.5"/><polygon fill="none" points="187,1508.1484,191,1512.1484,187,1516.1484,183,1512.1484" style="stroke:#B38D22;stroke-width:1.0;"/><text fill="#000000" font-family="sans-serif" font-size="14" lengthAdjust="spacing" textLength="198" x="196" y="1516.4951">HashMap&lt;T, Integer&gt; store</text><line style="stroke:#181818;stroke-width:0.5;" x1="177" x2="399" y1="1523.7969" y2="1523.7969"/><ellipse cx="187" cy="1537.4453" fill="#84BE84" rx="3" ry="3" style="stroke:#038048;stroke-width:1.0;"/><text fill="#000000" font-family="sans-serif" font-size="14" lengthAdjust="spacing" textLength="55" x="196" y="1540.792">get(T t)</text><ellipse cx="187" cy="1553.7422" fill="#84BE84" rx="3" ry="3" style="stroke:#038048;stroke-width:1.0;"/><text fill="#000000" font-family="sans-serif" font-size="14" lengthAdjust="spacing" textLength="114" x="196" y="1557.0889">set(T t, Integer)</text><ellipse cx="187" cy="1570.0391" fill="#84BE84" rx="3" ry="3" style="stroke:#038048;stroke-width:1.0;"/><text fill="#000000" font-family="sans-serif" font-size="14" lengthAdjust="spacing" textLength="117" x="196" y="1573.3857">add(T t, Integer)</text><ellipse cx="187" cy="1586.3359" fill="#84BE84" rx="3" ry="3" style="stroke:#038048;stroke-width:1.0;"/><text fill="#000000" font-family="sans-serif" font-size="14" lengthAdjust="spacing" textLength="146" x="196" y="1589.6826">remove(T t, Integer)</text><ellipse cx="187" cy="1602.6328" fill="#84BE84" rx="3" ry="3" style="stroke:#038048;stroke-width:1.0;"/><text fill="#000000" font-family="sans-serif" font-size="14" lengthAdjust="spacing" textLength="145" x="196" y="1605.9795">getNonEmptyKeys()</text></g><!--class GameItemStore--><g id="elem_GameItemStore"><rect codeLine="106" fill="#F1F1F1" height="80.5938" id="GameItemStore" rx="2.5" ry="2.5" style="stroke:#181818;stroke-width:0.5;" width="460" x="7" y="1771"/><ellipse cx="174.75" cy="1787" fill="#ADD1B2" rx="11" ry="11" style="stroke:#181818;stroke-width:1.0;"/><path d="M177.0938,1782.6719 C176.1563,1782.2344 175.5625,1782.0938 174.6875,1782.0938 C172.0625,1782.0938 170.0625,1784.1719 170.0625,1786.8906 L170.0625,1788.0156 C170.0625,1790.5938 172.1719,1792.4844 175.0625,1792.4844 C176.2813,1792.4844 177.4375,1792.1875 178.1875,1791.6406 C178.7656,1791.2344 179.0938,1790.7813 179.0938,1790.3906 C179.0938,1789.9375 178.7031,1789.5469 178.2344,1789.5469 C178.0156,1789.5469 177.8125,1789.625 177.625,1789.8125 C177.1719,1790.2969 177.1719,1790.2969 176.9844,1790.3906 C176.5625,1790.6563 175.875,1790.7813 175.1094,1790.7813 C173.0625,1790.7813 171.7656,1789.6875 171.7656,1787.9844 L171.7656,1786.8906 C171.7656,1785.1094 173.0156,1783.7969 174.75,1783.7969 C175.3281,1783.7969 175.9375,1783.9531 176.4063,1784.2031 C176.8906,1784.4844 177.0625,1784.7031 177.1563,1785.1094 C177.2188,1785.5156 177.25,1785.6406 177.3906,1785.7656 C177.5313,1785.9063 177.7656,1786.0156 177.9844,1786.0156 C178.25,1786.0156 178.5156,1785.875 178.6875,1785.6563 C178.7969,1785.5 178.8281,1785.3125 178.8281,1784.8906 L178.8281,1783.4688 C178.8281,1783.0313 178.8125,1782.9063 178.7188,1782.75 C178.5625,1782.4844 178.2813,1782.3438 177.9844,1782.3438 C177.6875,1782.3438 177.4844,1782.4375 177.2656,1782.75 L177.0938,1782.6719 Z " fill="#000000"/><text fill="#000000" font-family="sans-serif" font-size="14" lengthAdjust="spacing" textLength="116" x="195.25" y="1791.8467">GameItemStore</text><line style="stroke:#181818;stroke-width:0.5;" x1="8" x2="466" y1="1803" y2="1803"/><line style="stroke:#181818;stroke-width:0.5;" x1="8" x2="466" y1="1811" y2="1811"/><ellipse cx="18" cy="1824.6484" fill="#84BE84" rx="3" ry="3" style="stroke:#038048;stroke-width:1.0;"/><text fill="#000000" font-family="sans-serif" font-size="14" lengthAdjust="spacing" textLength="126" x="27" y="1827.9951">GameItemStore()</text><ellipse cx="18" cy="1840.9453" fill="#84BE84" rx="3" ry="3" style="stroke:#038048;stroke-width:1.0;"/><text fill="#000000" font-family="sans-serif" font-size="14" lengthAdjust="spacing" textLength="434" x="27" y="1844.292">GameItemStore(HashMap&lt;GameItem, Integer&gt; gameItems)</text></g><!--class Card--><g id="elem_Card"><rect codeLine="114" fill="#F1F1F1" height="64.2969" id="Card" rx="2.5" ry="2.5" style="stroke:#181818;stroke-width:0.5;" width="192" x="942" y="1254"/><ellipse cx="1016.75" cy="1270" fill="#B4A7E5" rx="11" ry="11" style="stroke:#181818;stroke-width:1.0;"/><path d="M1017.7031,1266.7813 L1019.4219,1266.7813 C1019.8125,1266.7813 1020,1266.75 1020.125,1266.6719 C1020.3906,1266.5156 1020.5313,1266.2344 1020.5313,1265.9375 C1020.5313,1265.6719 1020.4219,1265.4063 1020.1875,1265.2344 C1020.0156,1265.125 1019.875,1265.0938 1019.4219,1265.0938 L1014.2813,1265.0938 C1013.8438,1265.0938 1013.7188,1265.1094 1013.5625,1265.2031 C1013.3125,1265.3594 1013.1563,1265.6563 1013.1563,1265.9375 C1013.1563,1266.2188 1013.2969,1266.4688 1013.5156,1266.6406 C1013.6719,1266.75 1013.8594,1266.7813 1014.2813,1266.7813 L1016,1266.7813 L1016,1273.2969 L1014.2813,1273.2969 C1013.8438,1273.2969 1013.7188,1273.3125 1013.5625,1273.4219 C1013.3125,1273.5781 1013.1563,1273.8594 1013.1563,1274.1563 C1013.1563,1274.4063 1013.2969,1274.6719 1013.5156,1274.8281 C1013.6719,1274.9531 1013.875,1275 1014.2813,1275 L1019.4219,1275 C1020.1719,1275 1020.5313,1274.7188 1020.5313,1274.1563 C1020.5313,1273.875 1020.4219,1273.625 1020.1875,1273.4531 C1020.0156,1273.3281 1019.875,1273.2969 1019.4219,1273.2969 L1017.7031,1273.2969 L1017.7031,1266.7813 Z " fill="#000000"/><text fill="#000000" font-family="sans-serif" font-size="14" font-style="italic" lengthAdjust="spacing" textLength="34" x="1037.25" y="1274.8467">Card</text><line style="stroke:#181818;stroke-width:0.5;" x1="943" x2="1133" y1="1286" y2="1286"/><line style="stroke:#181818;stroke-width:0.5;" x1="943" x2="1133" y1="1294" y2="1294"/><ellipse cx="953" cy="1307.6484" fill="#84BE84" rx="3" ry="3" style="stroke:#038048;stroke-width:1.0;"/><text fill="#000000" font-family="sans-serif" font-size="14" lengthAdjust="spacing" textLength="166" x="962" y="1310.9951">getPoints(PlayerBoard)</text></g><!--class ObjectiveCard--><g id="elem_ObjectiveCard"><rect codeLine="207" fill="#F1F1F1" height="80.5938" id="ObjectiveCard" rx="2.5" ry="2.5" style="stroke:#181818;stroke-width:0.5;" width="192" x="957" y="1500"/><ellipse cx="998.55" cy="1516" fill="#A9DCDF" rx="11" ry="11" style="stroke:#181818;stroke-width:1.0;"/><path d="M1000.6281,1517.8125 L1001.0188,1518.7969 L1000.6281,1518.7969 C1000.175,1518.7969 1000.0656,1518.8125 999.9094,1518.9219 C999.6594,1519.0781 999.5031,1519.3594 999.5031,1519.6563 C999.5031,1519.9219 999.6438,1520.1719 999.8625,1520.3281 C1000.0031,1520.4531 1000.2063,1520.5 1000.6281,1520.5 L1002.9875,1520.5 C1003.3469,1520.5 1003.5656,1520.4688 1003.7063,1520.375 C1003.9563,1520.2344 1004.1125,1519.9375 1004.1125,1519.6563 C1004.1125,1519.375 1003.9719,1519.125 1003.7531,1518.9688 C1003.5813,1518.8281 1003.425,1518.7969 1002.9563,1518.7969 L999.5656,1510.5938 L995.8938,1510.5938 C995.4406,1510.5938 995.3156,1510.6094 995.1594,1510.7031 C994.9094,1510.875 994.7531,1511.1563 994.7531,1511.4375 C994.7531,1511.7188 994.8938,1511.9688 995.1125,1512.1406 C995.2844,1512.25 995.4563,1512.2813 995.8938,1512.2813 L996.9719,1512.2813 L994.3313,1518.7969 C993.9094,1518.7969 993.7531,1518.8125 993.5969,1518.9219 C993.3469,1519.0781 993.1906,1519.3594 993.1906,1519.6563 C993.1906,1520.2188 993.5656,1520.5 994.3156,1520.5 L996.5813,1520.5 C996.9406,1520.5 997.1594,1520.4688 997.2844,1520.375 C997.55,1520.2344 997.6906,1519.9375 997.6906,1519.6563 C997.6906,1519.375 997.5656,1519.125 997.3469,1518.9531 C997.175,1518.8281 997.0344,1518.7969 996.5813,1518.7969 L996.1906,1518.7969 L996.5813,1517.8125 L1000.6281,1517.8125 Z M999.925,1516.1094 L997.2531,1516.1094 L998.5969,1512.8438 L999.925,1516.1094 Z " fill="#000000"/><text fill="#000000" font-family="sans-serif" font-size="14" font-style="italic" lengthAdjust="spacing" textLength="101" x="1018.45" y="1520.8467">ObjectiveCard</text><line style="stroke:#181818;stroke-width:0.5;" x1="958" x2="1148" y1="1532" y2="1532"/><polygon fill="none" points="968,1540.6484,972,1544.6484,968,1548.6484,964,1544.6484" style="stroke:#B38D22;stroke-width:1.0;"/><text fill="#000000" font-family="sans-serif" font-size="14" lengthAdjust="spacing" textLength="135" x="977" y="1548.9951">Integer pointsWon</text><line style="stroke:#181818;stroke-width:0.5;" x1="958" x2="1148" y1="1556.2969" y2="1556.2969"/><ellipse cx="968" cy="1569.9453" fill="#84BE84" rx="3" ry="3" style="stroke:#038048;stroke-width:1.0;"/><text fill="#000000" font-family="sans-serif" font-size="14" lengthAdjust="spacing" textLength="166" x="977" y="1573.292">getPoints(PlayerBoard)</text></g><!--class Side--><g id="elem_Side"><rect codeLine="136" fill="#F1F1F1" height="194.6719" id="Side" rx="2.5" ry="2.5" style="stroke:#181818;stroke-width:0.5;" width="310" x="502" y="1714"/><ellipse cx="637.25" cy="1730" fill="#A9DCDF" rx="11" ry="11" style="stroke:#181818;stroke-width:1.0;"/><path d="M639.3281,1731.8125 L639.7188,1732.7969 L639.3281,1732.7969 C638.875,1732.7969 638.7656,1732.8125 638.6094,1732.9219 C638.3594,1733.0781 638.2031,1733.3594 638.2031,1733.6563 C638.2031,1733.9219 638.3438,1734.1719 638.5625,1734.3281 C638.7031,1734.4531 638.9063,1734.5 639.3281,1734.5 L641.6875,1734.5 C642.0469,1734.5 642.2656,1734.4688 642.4063,1734.375 C642.6563,1734.2344 642.8125,1733.9375 642.8125,1733.6563 C642.8125,1733.375 642.6719,1733.125 642.4531,1732.9688 C642.2813,1732.8281 642.125,1732.7969 641.6563,1732.7969 L638.2656,1724.5938 L634.5938,1724.5938 C634.1406,1724.5938 634.0156,1724.6094 633.8594,1724.7031 C633.6094,1724.875 633.4531,1725.1563 633.4531,1725.4375 C633.4531,1725.7188 633.5938,1725.9688 633.8125,1726.1406 C633.9844,1726.25 634.1563,1726.2813 634.5938,1726.2813 L635.6719,1726.2813 L633.0313,1732.7969 C632.6094,1732.7969 632.4531,1732.8125 632.2969,1732.9219 C632.0469,1733.0781 631.8906,1733.3594 631.8906,1733.6563 C631.8906,1734.2188 632.2656,1734.5 633.0156,1734.5 L635.2813,1734.5 C635.6406,1734.5 635.8594,1734.4688 635.9844,1734.375 C636.25,1734.2344 636.3906,1733.9375 636.3906,1733.6563 C636.3906,1733.375 636.2656,1733.125 636.0469,1732.9531 C635.875,1732.8281 635.7344,1732.7969 635.2813,1732.7969 L634.8906,1732.7969 L635.2813,1731.8125 L639.3281,1731.8125 Z M638.625,1730.1094 L635.9531,1730.1094 L637.2969,1726.8438 L638.625,1730.1094 Z " fill="#000000"/><text fill="#000000" font-family="sans-serif" font-size="14" font-style="italic" lengthAdjust="spacing" textLength="31" x="657.75" y="1734.8467">Side</text><line style="stroke:#181818;stroke-width:0.5;" x1="503" x2="811" y1="1746" y2="1746"/><polygon fill="none" points="513,1754.6484,517,1758.6484,513,1762.6484,509,1758.6484" style="stroke:#B38D22;stroke-width:1.0;"/><text fill="#000000" font-family="sans-serif" font-size="14" lengthAdjust="spacing" textLength="118" x="522" y="1762.9951">Corner topRight</text><polygon fill="none" points="513,1770.9453,517,1774.9453,513,1778.9453,509,1774.9453" style="stroke:#B38D22;stroke-width:1.0;"/><text fill="#000000" font-family="sans-serif" font-size="14" lengthAdjust="spacing" textLength="109" x="522" y="1779.292">Corner topLeft</text><polygon fill="none" points="513,1787.2422,517,1791.2422,513,1795.2422,509,1791.2422" style="stroke:#B38D22;stroke-width:1.0;"/><text fill="#000000" font-family="sans-serif" font-size="14" lengthAdjust="spacing" textLength="139" x="522" y="1795.5889">Corner bottomLeft</text><polygon fill="none" points="513,1803.5391,517,1807.5391,513,1811.5391,509,1807.5391" style="stroke:#B38D22;stroke-width:1.0;"/><text fill="#000000" font-family="sans-serif" font-size="14" lengthAdjust="spacing" textLength="148" x="522" y="1811.8857">Corner bottomRight</text><line style="stroke:#181818;stroke-width:0.5;" x1="503" x2="811" y1="1819.1875" y2="1819.1875"/><ellipse cx="513" cy="1832.8359" fill="#84BE84" rx="3" ry="3" style="stroke:#038048;stroke-width:1.0;"/><text fill="#000000" font-family="sans-serif" font-size="14" lengthAdjust="spacing" textLength="191" x="522" y="1836.1826">getCorner(CornerPosition)</text><ellipse cx="513" cy="1849.1328" fill="#84BE84" rx="3" ry="3" style="stroke:#038048;stroke-width:1.0;"/><text fill="#000000" font-family="sans-serif" font-size="14" lengthAdjust="spacing" textLength="249" x="522" y="1852.4795">setCornerCovered(CornerPosition)</text><ellipse cx="513" cy="1865.4297" fill="#84BE84" rx="3" ry="3" style="stroke:#038048;stroke-width:1.0;"/><text fill="#000000" font-family="sans-serif" font-size="14" lengthAdjust="spacing" textLength="271" x="522" y="1868.7764">GameItemStore getGameItemStore()</text><ellipse cx="513" cy="1881.7266" fill="#84BE84" rx="3" ry="3" style="stroke:#038048;stroke-width:1.0;"/><text fill="#000000" font-family="sans-serif" font-size="14" lengthAdjust="spacing" textLength="166" x="522" y="1885.0732">getPoints(PlayerBoard)</text><ellipse cx="513" cy="1898.0234" fill="#84BE84" rx="3" ry="3" style="stroke:#038048;stroke-width:1.0;"/><text fill="#000000" font-family="sans-serif" font-size="14" lengthAdjust="spacing" textLength="284" x="522" y="1901.3701">GameItemStore getNeededItemStore()</text></g><!--class Front--><g id="elem_Front"><rect codeLine="170" fill="#F1F1F1" height="96.8906" id="Front" rx="2.5" ry="2.5" style="stroke:#181818;stroke-width:0.5;" width="192" x="239" y="2001.5"/><ellipse cx="311.25" cy="2017.5" fill="#ADD1B2" rx="11" ry="11" style="stroke:#181818;stroke-width:1.0;"/><path d="M313.5938,2013.1719 C312.6563,2012.7344 312.0625,2012.5938 311.1875,2012.5938 C308.5625,2012.5938 306.5625,2014.6719 306.5625,2017.3906 L306.5625,2018.5156 C306.5625,2021.0938 308.6719,2022.9844 311.5625,2022.9844 C312.7813,2022.9844 313.9375,2022.6875 314.6875,2022.1406 C315.2656,2021.7344 315.5938,2021.2813 315.5938,2020.8906 C315.5938,2020.4375 315.2031,2020.0469 314.7344,2020.0469 C314.5156,2020.0469 314.3125,2020.125 314.125,2020.3125 C313.6719,2020.7969 313.6719,2020.7969 313.4844,2020.8906 C313.0625,2021.1563 312.375,2021.2813 311.6094,2021.2813 C309.5625,2021.2813 308.2656,2020.1875 308.2656,2018.4844 L308.2656,2017.3906 C308.2656,2015.6094 309.5156,2014.2969 311.25,2014.2969 C311.8281,2014.2969 312.4375,2014.4531 312.9063,2014.7031 C313.3906,2014.9844 313.5625,2015.2031 313.6563,2015.6094 C313.7188,2016.0156 313.75,2016.1406 313.8906,2016.2656 C314.0313,2016.4063 314.2656,2016.5156 314.4844,2016.5156 C314.75,2016.5156 315.0156,2016.375 315.1875,2016.1563 C315.2969,2016 315.3281,2015.8125 315.3281,2015.3906 L315.3281,2013.9688 C315.3281,2013.5313 315.3125,2013.4063 315.2188,2013.25 C315.0625,2012.9844 314.7813,2012.8438 314.4844,2012.8438 C314.1875,2012.8438 313.9844,2012.9375 313.7656,2013.25 L313.5938,2013.1719 Z " fill="#000000"/><text fill="#000000" font-family="sans-serif" font-size="14" lengthAdjust="spacing" textLength="39" x="331.75" y="2022.3467">Front</text><line style="stroke:#181818;stroke-width:0.5;" x1="240" x2="430" y1="2033.5" y2="2033.5"/><polygon fill="none" points="250,2042.1484,254,2046.1484,250,2050.1484,246,2046.1484" style="stroke:#B38D22;stroke-width:1.0;"/><text fill="#000000" font-family="sans-serif" font-size="14" lengthAdjust="spacing" textLength="70" x="259" y="2050.4951">int points</text><line style="stroke:#181818;stroke-width:0.5;" x1="240" x2="430" y1="2057.7969" y2="2057.7969"/><ellipse cx="250" cy="2071.4453" fill="#84BE84" rx="3" ry="3" style="stroke:#038048;stroke-width:1.0;"/><text fill="#000000" font-family="sans-serif" font-size="14" lengthAdjust="spacing" textLength="151" x="259" y="2074.792">getGameItemStore()</text><ellipse cx="250" cy="2087.7422" fill="#84BE84" rx="3" ry="3" style="stroke:#038048;stroke-width:1.0;"/><text fill="#000000" font-family="sans-serif" font-size="14" lengthAdjust="spacing" textLength="166" x="259" y="2091.0889">getPoints(PlayerBoard)</text></g><!--class Back--><g id="elem_Back"><rect codeLine="199" fill="#F1F1F1" height="96.8906" id="Back" rx="2.5" ry="2.5" style="stroke:#181818;stroke-width:0.5;" width="215" x="466.5" y="2001.5"/><ellipse cx="552.25" cy="2017.5" fill="#ADD1B2" rx="11" ry="11" style="stroke:#181818;stroke-width:1.0;"/><path d="M554.5938,2013.1719 C553.6563,2012.7344 553.0625,2012.5938 552.1875,2012.5938 C549.5625,2012.5938 547.5625,2014.6719 547.5625,2017.3906 L547.5625,2018.5156 C547.5625,2021.0938 549.6719,2022.9844 552.5625,2022.9844 C553.7813,2022.9844 554.9375,2022.6875 555.6875,2022.1406 C556.2656,2021.7344 556.5938,2021.2813 556.5938,2020.8906 C556.5938,2020.4375 556.2031,2020.0469 555.7344,2020.0469 C555.5156,2020.0469 555.3125,2020.125 555.125,2020.3125 C554.6719,2020.7969 554.6719,2020.7969 554.4844,2020.8906 C554.0625,2021.1563 553.375,2021.2813 552.6094,2021.2813 C550.5625,2021.2813 549.2656,2020.1875 549.2656,2018.4844 L549.2656,2017.3906 C549.2656,2015.6094 550.5156,2014.2969 552.25,2014.2969 C552.8281,2014.2969 553.4375,2014.4531 553.9063,2014.7031 C554.3906,2014.9844 554.5625,2015.2031 554.6563,2015.6094 C554.7188,2016.0156 554.75,2016.1406 554.8906,2016.2656 C555.0313,2016.4063 555.2656,2016.5156 555.4844,2016.5156 C555.75,2016.5156 556.0156,2016.375 556.1875,2016.1563 C556.2969,2016 556.3281,2015.8125 556.3281,2015.3906 L556.3281,2013.9688 C556.3281,2013.5313 556.3125,2013.4063 556.2188,2013.25 C556.0625,2012.9844 555.7813,2012.8438 555.4844,2012.8438 C555.1875,2012.8438 554.9844,2012.9375 554.7656,2013.25 L554.5938,2013.1719 Z " fill="#000000"/><text fill="#000000" font-family="sans-serif" font-size="14" lengthAdjust="spacing" textLength="35" x="572.75" y="2022.3467">Back</text><line style="stroke:#181818;stroke-width:0.5;" x1="467.5" x2="680.5" y1="2033.5" y2="2033.5"/><polygon fill="none" points="477.5,2042.1484,481.5,2046.1484,477.5,2050.1484,473.5,2046.1484" style="stroke:#B38D22;stroke-width:1.0;"/><text fill="#000000" font-family="sans-serif" font-size="14" lengthAdjust="spacing" textLength="189" x="486.5" y="2050.4951">GameItemStore resources</text><line style="stroke:#181818;stroke-width:0.5;" x1="467.5" x2="680.5" y1="2057.7969" y2="2057.7969"/><ellipse cx="477.5" cy="2071.4453" fill="#84BE84" rx="3" ry="3" style="stroke:#038048;stroke-width:1.0;"/><text fill="#000000" font-family="sans-serif" font-size="14" lengthAdjust="spacing" textLength="151" x="486.5" y="2074.792">getGameItemStore()</text><ellipse cx="477.5" cy="2087.7422" fill="#84BE84" rx="3" ry="3" style="stroke:#038048;stroke-width:1.0;"/><text fill="#000000" font-family="sans-serif" font-size="14" lengthAdjust="spacing" textLength="166" x="486.5" y="2091.0889">getPoints(PlayerBoard)</text></g><!--class Corner--><g id="elem_Corner"><rect codeLine="152" fill="#F1F1F1" height="145.7813" id="Corner" rx="2.5" ry="2.5" style="stroke:#181818;stroke-width:0.5;" width="267" x="716.5" y="1977"/><ellipse cx="821.25" cy="1993" fill="#ADD1B2" rx="11" ry="11" style="stroke:#181818;stroke-width:1.0;"/><path d="M823.5938,1988.6719 C822.6563,1988.2344 822.0625,1988.0938 821.1875,1988.0938 C818.5625,1988.0938 816.5625,1990.1719 816.5625,1992.8906 L816.5625,1994.0156 C816.5625,1996.5938 818.6719,1998.4844 821.5625,1998.4844 C822.7813,1998.4844 823.9375,1998.1875 824.6875,1997.6406 C825.2656,1997.2344 825.5938,1996.7813 825.5938,1996.3906 C825.5938,1995.9375 825.2031,1995.5469 824.7344,1995.5469 C824.5156,1995.5469 824.3125,1995.625 824.125,1995.8125 C823.6719,1996.2969 823.6719,1996.2969 823.4844,1996.3906 C823.0625,1996.6563 822.375,1996.7813 821.6094,1996.7813 C819.5625,1996.7813 818.2656,1995.6875 818.2656,1993.9844 L818.2656,1992.8906 C818.2656,1991.1094 819.5156,1989.7969 821.25,1989.7969 C821.8281,1989.7969 822.4375,1989.9531 822.9063,1990.2031 C823.3906,1990.4844 823.5625,1990.7031 823.6563,1991.1094 C823.7188,1991.5156 823.75,1991.6406 823.8906,1991.7656 C824.0313,1991.9063 824.2656,1992.0156 824.4844,1992.0156 C824.75,1992.0156 825.0156,1991.875 825.1875,1991.6563 C825.2969,1991.5 825.3281,1991.3125 825.3281,1990.8906 L825.3281,1989.4688 C825.3281,1989.0313 825.3125,1988.9063 825.2188,1988.75 C825.0625,1988.4844 824.7813,1988.3438 824.4844,1988.3438 C824.1875,1988.3438 823.9844,1988.4375 823.7656,1988.75 L823.5938,1988.6719 Z " fill="#000000"/><text fill="#000000" font-family="sans-serif" font-size="14" lengthAdjust="spacing" textLength="49" x="841.75" y="1997.8467">Corner</text><line style="stroke:#181818;stroke-width:0.5;" x1="717.5" x2="982.5" y1="2009" y2="2009"/><rect fill="none" height="6" style="stroke:#C82930;stroke-width:1.0;" width="6" x="724.5" y="2019.6484"/><text fill="#000000" font-family="sans-serif" font-size="14" lengthAdjust="spacing" textLength="133" x="736.5" y="2025.9951">boolean isCovered</text><rect fill="none" height="6" style="stroke:#C82930;stroke-width:1.0;" width="6" x="724.5" y="2035.9453"/><text fill="#000000" font-family="sans-serif" font-size="14" lengthAdjust="spacing" textLength="154" x="736.5" y="2042.292">GameItem gameItem</text><line style="stroke:#181818;stroke-width:0.5;" x1="717.5" x2="982.5" y1="2049.5938" y2="2049.5938"/><ellipse cx="727.5" cy="2063.2422" fill="#84BE84" rx="3" ry="3" style="stroke:#038048;stroke-width:1.0;"/><text fill="#000000" font-family="sans-serif" font-size="14" lengthAdjust="spacing" textLength="191" x="736.5" y="2066.5889">GameItem getGameItem()</text><ellipse cx="727.5" cy="2079.5391" fill="#84BE84" rx="3" ry="3" style="stroke:#038048;stroke-width:1.0;"/><text fill="#000000" font-family="sans-serif" font-size="14" lengthAdjust="spacing" textLength="173" x="736.5" y="2082.8857">GameItem setCovered()</text><ellipse cx="727.5" cy="2095.8359" fill="#84BE84" rx="3" ry="3" style="stroke:#038048;stroke-width:1.0;"/><text fill="#000000" font-family="sans-serif" font-size="14" lengthAdjust="spacing" textLength="131" x="736.5" y="2099.1826">Boolean isEmpty()</text><ellipse cx="727.5" cy="2112.1328" fill="#84BE84" rx="3" ry="3" style="stroke:#038048;stroke-width:1.0;"/><text fill="#000000" font-family="sans-serif" font-size="14" lengthAdjust="spacing" textLength="241" x="736.5" y="2115.4795">Boolean isExisting() {return true}</text></g><!--class NonExistingCorner--><g id="elem_NonExistingCorner"><rect codeLine="163" fill="#F1F1F1" height="64.2969" id="NonExistingCorner" rx="2.5" ry="2.5" style="stroke:#181818;stroke-width:0.5;" width="271" x="714.5" y="2199.5"/><ellipse cx="778.75" cy="2215.5" fill="#ADD1B2" rx="11" ry="11" style="stroke:#181818;stroke-width:1.0;"/><path d="M781.0938,2211.1719 C780.1563,2210.7344 779.5625,2210.5938 778.6875,2210.5938 C776.0625,2210.5938 774.0625,2212.6719 774.0625,2215.3906 L774.0625,2216.5156 C774.0625,2219.0938 776.1719,2220.9844 779.0625,2220.9844 C780.2813,2220.9844 781.4375,2220.6875 782.1875,2220.1406 C782.7656,2219.7344 783.0938,2219.2813 783.0938,2218.8906 C783.0938,2218.4375 782.7031,2218.0469 782.2344,2218.0469 C782.0156,2218.0469 781.8125,2218.125 781.625,2218.3125 C781.1719,2218.7969 781.1719,2218.7969 780.9844,2218.8906 C780.5625,2219.1563 779.875,2219.2813 779.1094,2219.2813 C777.0625,2219.2813 775.7656,2218.1875 775.7656,2216.4844 L775.7656,2215.3906 C775.7656,2213.6094 777.0156,2212.2969 778.75,2212.2969 C779.3281,2212.2969 779.9375,2212.4531 780.4063,2212.7031 C780.8906,2212.9844 781.0625,2213.2031 781.1563,2213.6094 C781.2188,2214.0156 781.25,2214.1406 781.3906,2214.2656 C781.5313,2214.4063 781.7656,2214.5156 781.9844,2214.5156 C782.25,2214.5156 782.5156,2214.375 782.6875,2214.1563 C782.7969,2214 782.8281,2213.8125 782.8281,2213.3906 L782.8281,2211.9688 C782.8281,2211.5313 782.8125,2211.4063 782.7188,2211.25 C782.5625,2210.9844 782.2813,2210.8438 781.9844,2210.8438 C781.6875,2210.8438 781.4844,2210.9375 781.2656,2211.25 L781.0938,2211.1719 Z " fill="#000000"/><text fill="#000000" font-family="sans-serif" font-size="14" lengthAdjust="spacing" textLength="134" x="799.25" y="2220.3467">NonExistingCorner</text><line style="stroke:#181818;stroke-width:0.5;" x1="715.5" x2="984.5" y1="2231.5" y2="2231.5"/><line style="stroke:#181818;stroke-width:0.5;" x1="715.5" x2="984.5" y1="2239.5" y2="2239.5"/><ellipse cx="725.5" cy="2253.1484" fill="#84BE84" rx="3" ry="3" style="stroke:#038048;stroke-width:1.0;"/><text fill="#000000" font-family="sans-serif" font-size="14" lengthAdjust="spacing" textLength="245" x="734.5" y="2256.4951">Boolean isExisting() {return false}</text></g><!--class FrontGoldCard--><g id="elem_FrontGoldCard"><rect codeLine="178" fill="#F1F1F1" height="80.5938" id="FrontGoldCard" rx="2.5" ry="2.5" style="stroke:#181818;stroke-width:0.5;" width="241" x="214.5" y="2191"/><ellipse cx="278.25" cy="2207" fill="#ADD1B2" rx="11" ry="11" style="stroke:#181818;stroke-width:1.0;"/><path d="M280.5938,2202.6719 C279.6563,2202.2344 279.0625,2202.0938 278.1875,2202.0938 C275.5625,2202.0938 273.5625,2204.1719 273.5625,2206.8906 L273.5625,2208.0156 C273.5625,2210.5938 275.6719,2212.4844 278.5625,2212.4844 C279.7813,2212.4844 280.9375,2212.1875 281.6875,2211.6406 C282.2656,2211.2344 282.5938,2210.7813 282.5938,2210.3906 C282.5938,2209.9375 282.2031,2209.5469 281.7344,2209.5469 C281.5156,2209.5469 281.3125,2209.625 281.125,2209.8125 C280.6719,2210.2969 280.6719,2210.2969 280.4844,2210.3906 C280.0625,2210.6563 279.375,2210.7813 278.6094,2210.7813 C276.5625,2210.7813 275.2656,2209.6875 275.2656,2207.9844 L275.2656,2206.8906 C275.2656,2205.1094 276.5156,2203.7969 278.25,2203.7969 C278.8281,2203.7969 279.4375,2203.9531 279.9063,2204.2031 C280.3906,2204.4844 280.5625,2204.7031 280.6563,2205.1094 C280.7188,2205.5156 280.75,2205.6406 280.8906,2205.7656 C281.0313,2205.9063 281.2656,2206.0156 281.4844,2206.0156 C281.75,2206.0156 282.0156,2205.875 282.1875,2205.6563 C282.2969,2205.5 282.3281,2205.3125 282.3281,2204.8906 L282.3281,2203.4688 C282.3281,2203.0313 282.3125,2202.9063 282.2188,2202.75 C282.0625,2202.4844 281.7813,2202.3438 281.4844,2202.3438 C281.1875,2202.3438 280.9844,2202.4375 280.7656,2202.75 L280.5938,2202.6719 Z " fill="#000000"/><text fill="#000000" font-family="sans-serif" font-size="14" lengthAdjust="spacing" textLength="105" x="298.75" y="2211.8467">FrontGoldCard</text><line style="stroke:#181818;stroke-width:0.5;" x1="215.5" x2="454.5" y1="2223" y2="2223"/><polygon fill="none" points="225.5,2231.6484,229.5,2235.6484,225.5,2239.6484,221.5,2235.6484" style="stroke:#B38D22;stroke-width:1.0;"/><text fill="#000000" font-family="sans-serif" font-size="14" lengthAdjust="spacing" textLength="215" x="234.5" y="2239.9951">GameItemStore neededItems</text><line style="stroke:#181818;stroke-width:0.5;" x1="215.5" x2="454.5" y1="2247.2969" y2="2247.2969"/><ellipse cx="225.5" cy="2260.9453" fill="#84BE84" rx="3" ry="3" style="stroke:#038048;stroke-width:1.0;"/><text fill="#000000" font-family="sans-serif" font-size="14" lengthAdjust="spacing" textLength="164" x="234.5" y="2264.292">getNeededItemStore()</text></g><!--class FrontPositionalGoldCard--><g id="elem_FrontPositionalGoldCard"><rect codeLine="187" fill="#F1F1F1" height="64.2969" id="FrontPositionalGoldCard" rx="2.5" ry="2.5" style="stroke:#181818;stroke-width:0.5;" width="207" x="114.5" y="2340.5"/><ellipse cx="129.5" cy="2356.5" fill="#ADD1B2" rx="11" ry="11" style="stroke:#181818;stroke-width:1.0;"/><path d="M131.8438,2352.1719 C130.9063,2351.7344 130.3125,2351.5938 129.4375,2351.5938 C126.8125,2351.5938 124.8125,2353.6719 124.8125,2356.3906 L124.8125,2357.5156 C124.8125,2360.0938 126.9219,2361.9844 129.8125,2361.9844 C131.0313,2361.9844 132.1875,2361.6875 132.9375,2361.1406 C133.5156,2360.7344 133.8438,2360.2813 133.8438,2359.8906 C133.8438,2359.4375 133.4531,2359.0469 132.9844,2359.0469 C132.7656,2359.0469 132.5625,2359.125 132.375,2359.3125 C131.9219,2359.7969 131.9219,2359.7969 131.7344,2359.8906 C131.3125,2360.1563 130.625,2360.2813 129.8594,2360.2813 C127.8125,2360.2813 126.5156,2359.1875 126.5156,2357.4844 L126.5156,2356.3906 C126.5156,2354.6094 127.7656,2353.2969 129.5,2353.2969 C130.0781,2353.2969 130.6875,2353.4531 131.1563,2353.7031 C131.6406,2353.9844 131.8125,2354.2031 131.9063,2354.6094 C131.9688,2355.0156 132,2355.1406 132.1406,2355.2656 C132.2813,2355.4063 132.5156,2355.5156 132.7344,2355.5156 C133,2355.5156 133.2656,2355.375 133.4375,2355.1563 C133.5469,2355 133.5781,2354.8125 133.5781,2354.3906 L133.5781,2352.9688 C133.5781,2352.5313 133.5625,2352.4063 133.4688,2352.25 C133.3125,2351.9844 133.0313,2351.8438 132.7344,2351.8438 C132.4375,2351.8438 132.2344,2351.9375 132.0156,2352.25 L131.8438,2352.1719 Z " fill="#000000"/><text fill="#000000" font-family="sans-serif" font-size="14" lengthAdjust="spacing" textLength="175" x="143.5" y="2361.3467">FrontPositionalGoldCard</text><line style="stroke:#181818;stroke-width:0.5;" x1="115.5" x2="320.5" y1="2372.5" y2="2372.5"/><line style="stroke:#181818;stroke-width:0.5;" x1="115.5" x2="320.5" y1="2380.5" y2="2380.5"/><ellipse cx="125.5" cy="2394.1484" fill="#84BE84" rx="3" ry="3" style="stroke:#038048;stroke-width:1.0;"/><text fill="#000000" font-family="sans-serif" font-size="14" lengthAdjust="spacing" textLength="166" x="134.5" y="2397.4951">getPoints(PlayerBoard)</text></g><!--class FrontItemGoldCard--><g id="elem_FrontItemGoldCard"><rect codeLine="192" fill="#F1F1F1" height="80.5938" id="FrontItemGoldCard" rx="2.5" ry="2.5" style="stroke:#181818;stroke-width:0.5;" width="192" x="357" y="2332"/><ellipse cx="381.45" cy="2348" fill="#ADD1B2" rx="11" ry="11" style="stroke:#181818;stroke-width:1.0;"/><path d="M383.7938,2343.6719 C382.8563,2343.2344 382.2625,2343.0938 381.3875,2343.0938 C378.7625,2343.0938 376.7625,2345.1719 376.7625,2347.8906 L376.7625,2349.0156 C376.7625,2351.5938 378.8719,2353.4844 381.7625,2353.4844 C382.9813,2353.4844 384.1375,2353.1875 384.8875,2352.6406 C385.4656,2352.2344 385.7938,2351.7813 385.7938,2351.3906 C385.7938,2350.9375 385.4031,2350.5469 384.9344,2350.5469 C384.7156,2350.5469 384.5125,2350.625 384.325,2350.8125 C383.8719,2351.2969 383.8719,2351.2969 383.6844,2351.3906 C383.2625,2351.6563 382.575,2351.7813 381.8094,2351.7813 C379.7625,2351.7813 378.4656,2350.6875 378.4656,2348.9844 L378.4656,2347.8906 C378.4656,2346.1094 379.7156,2344.7969 381.45,2344.7969 C382.0281,2344.7969 382.6375,2344.9531 383.1063,2345.2031 C383.5906,2345.4844 383.7625,2345.7031 383.8563,2346.1094 C383.9188,2346.5156 383.95,2346.6406 384.0906,2346.7656 C384.2313,2346.9063 384.4656,2347.0156 384.6844,2347.0156 C384.95,2347.0156 385.2156,2346.875 385.3875,2346.6563 C385.4969,2346.5 385.5281,2346.3125 385.5281,2345.8906 L385.5281,2344.4688 C385.5281,2344.0313 385.5125,2343.9063 385.4188,2343.75 C385.2625,2343.4844 384.9813,2343.3438 384.6844,2343.3438 C384.3875,2343.3438 384.1844,2343.4375 383.9656,2343.75 L383.7938,2343.6719 Z " fill="#000000"/><text fill="#000000" font-family="sans-serif" font-size="14" lengthAdjust="spacing" textLength="139" x="397.55" y="2352.8467">FrontItemGoldCard</text><line style="stroke:#181818;stroke-width:0.5;" x1="358" x2="548" y1="2364" y2="2364"/><rect fill="none" height="6" style="stroke:#C82930;stroke-width:1.0;" width="6" x="365" y="2374.6484"/><text fill="#000000" font-family="sans-serif" font-size="14" lengthAdjust="spacing" textLength="150" x="377" y="2380.9951">GameItem multiplier</text><line style="stroke:#181818;stroke-width:0.5;" x1="358" x2="548" y1="2388.2969" y2="2388.2969"/><ellipse cx="368" cy="2401.9453" fill="#84BE84" rx="3" ry="3" style="stroke:#038048;stroke-width:1.0;"/><text fill="#000000" font-family="sans-serif" font-size="14" lengthAdjust="spacing" textLength="166" x="377" y="2405.292">getPoints(PlayerBoard)</text></g><!--class PositionalObjectiveCard--><g id="elem_PositionalObjectiveCard"><rect codeLine="236" fill="#F1F1F1" height="80.5938" id="PositionalObjectiveCard" rx="2.5" ry="2.5" style="stroke:#181818;stroke-width:0.5;" width="325" x="890.5" y="1771"/><ellipse cx="962.25" cy="1787" fill="#ADD1B2" rx="11" ry="11" style="stroke:#181818;stroke-width:1.0;"/><path d="M964.5938,1782.6719 C963.6563,1782.2344 963.0625,1782.0938 962.1875,1782.0938 C959.5625,1782.0938 957.5625,1784.1719 957.5625,1786.8906 L957.5625,1788.0156 C957.5625,1790.5938 959.6719,1792.4844 962.5625,1792.4844 C963.7813,1792.4844 964.9375,1792.1875 965.6875,1791.6406 C966.2656,1791.2344 966.5938,1790.7813 966.5938,1790.3906 C966.5938,1789.9375 966.2031,1789.5469 965.7344,1789.5469 C965.5156,1789.5469 965.3125,1789.625 965.125,1789.8125 C964.6719,1790.2969 964.6719,1790.2969 964.4844,1790.3906 C964.0625,1790.6563 963.375,1790.7813 962.6094,1790.7813 C960.5625,1790.7813 959.2656,1789.6875 959.2656,1787.9844 L959.2656,1786.8906 C959.2656,1785.1094 960.5156,1783.7969 962.25,1783.7969 C962.8281,1783.7969 963.4375,1783.9531 963.9063,1784.2031 C964.3906,1784.4844 964.5625,1784.7031 964.6563,1785.1094 C964.7188,1785.5156 964.75,1785.6406 964.8906,1785.7656 C965.0313,1785.9063 965.2656,1786.0156 965.4844,1786.0156 C965.75,1786.0156 966.0156,1785.875 966.1875,1785.6563 C966.2969,1785.5 966.3281,1785.3125 966.3281,1784.8906 L966.3281,1783.4688 C966.3281,1783.0313 966.3125,1782.9063 966.2188,1782.75 C966.0625,1782.4844 965.7813,1782.3438 965.4844,1782.3438 C965.1875,1782.3438 964.9844,1782.4375 964.7656,1782.75 L964.5938,1782.6719 Z " fill="#000000"/><text fill="#000000" font-family="sans-serif" font-size="14" lengthAdjust="spacing" textLength="173" x="982.75" y="1791.8467">PositionalObjectiveCard</text><line style="stroke:#181818;stroke-width:0.5;" x1="891.5" x2="1214.5" y1="1803" y2="1803"/><rect fill="none" height="6" style="stroke:#C82930;stroke-width:1.0;" width="6" x="898.5" y="1813.6484"/><text fill="#000000" font-family="sans-serif" font-size="14" lengthAdjust="spacing" textLength="299" x="910.5" y="1819.9951">ArrayList&lt;PositionalData&gt; positionalData</text><line style="stroke:#181818;stroke-width:0.5;" x1="891.5" x2="1214.5" y1="1827.2969" y2="1827.2969"/><ellipse cx="901.5" cy="1840.9453" fill="#84BE84" rx="3" ry="3" style="stroke:#038048;stroke-width:1.0;"/><text fill="#000000" font-family="sans-serif" font-size="14" lengthAdjust="spacing" textLength="166" x="910.5" y="1844.292">getPoints(PlayerBoard)</text></g><!--class ItemObjectiveCard--><g id="elem_ItemObjectiveCard"><rect codeLine="218" fill="#F1F1F1" height="80.5938" id="ItemObjectiveCard" rx="2.5" ry="2.5" style="stroke:#181818;stroke-width:0.5;" width="216" x="1251" y="1771"/><ellipse cx="1287.15" cy="1787" fill="#ADD1B2" rx="11" ry="11" style="stroke:#181818;stroke-width:1.0;"/><path d="M1289.4938,1782.6719 C1288.5563,1782.2344 1287.9625,1782.0938 1287.0875,1782.0938 C1284.4625,1782.0938 1282.4625,1784.1719 1282.4625,1786.8906 L1282.4625,1788.0156 C1282.4625,1790.5938 1284.5719,1792.4844 1287.4625,1792.4844 C1288.6813,1792.4844 1289.8375,1792.1875 1290.5875,1791.6406 C1291.1656,1791.2344 1291.4938,1790.7813 1291.4938,1790.3906 C1291.4938,1789.9375 1291.1031,1789.5469 1290.6344,1789.5469 C1290.4156,1789.5469 1290.2125,1789.625 1290.025,1789.8125 C1289.5719,1790.2969 1289.5719,1790.2969 1289.3844,1790.3906 C1288.9625,1790.6563 1288.275,1790.7813 1287.5094,1790.7813 C1285.4625,1790.7813 1284.1656,1789.6875 1284.1656,1787.9844 L1284.1656,1786.8906 C1284.1656,1785.1094 1285.4156,1783.7969 1287.15,1783.7969 C1287.7281,1783.7969 1288.3375,1783.9531 1288.8063,1784.2031 C1289.2906,1784.4844 1289.4625,1784.7031 1289.5563,1785.1094 C1289.6188,1785.5156 1289.65,1785.6406 1289.7906,1785.7656 C1289.9313,1785.9063 1290.1656,1786.0156 1290.3844,1786.0156 C1290.65,1786.0156 1290.9156,1785.875 1291.0875,1785.6563 C1291.1969,1785.5 1291.2281,1785.3125 1291.2281,1784.8906 L1291.2281,1783.4688 C1291.2281,1783.0313 1291.2125,1782.9063 1291.1188,1782.75 C1290.9625,1782.4844 1290.6813,1782.3438 1290.3844,1782.3438 C1290.0875,1782.3438 1289.8844,1782.4375 1289.6656,1782.75 L1289.4938,1782.6719 Z " fill="#000000"/><text fill="#000000" font-family="sans-serif" font-size="14" lengthAdjust="spacing" textLength="137" x="1305.85" y="1791.8467">ItemObjectiveCard</text><line style="stroke:#181818;stroke-width:0.5;" x1="1252" x2="1466" y1="1803" y2="1803"/><rect fill="none" height="6" style="stroke:#C82930;stroke-width:1.0;" width="6" x="1259" y="1813.6484"/><text fill="#000000" font-family="sans-serif" font-size="14" lengthAdjust="spacing" textLength="190" x="1271" y="1819.9951">GameItemStore multiplier</text><line style="stroke:#181818;stroke-width:0.5;" x1="1252" x2="1466" y1="1827.2969" y2="1827.2969"/><ellipse cx="1262" cy="1840.9453" fill="#84BE84" rx="3" ry="3" style="stroke:#038048;stroke-width:1.0;"/><text fill="#000000" font-family="sans-serif" font-size="14" lengthAdjust="spacing" textLength="166" x="1271" y="1844.292">getPoints(PlayerBoard)</text></g><!--class PositionalData--><g id="elem_PositionalData"><rect codeLine="225" fill="#F1F1F1" height="162.0781" id="PositionalData" rx="2.5" ry="2.5" style="stroke:#181818;stroke-width:0.5;" width="235" x="1018.5" y="1969"/><ellipse cx="1079.75" cy="1985" fill="#ADD1B2" rx="11" ry="11" style="stroke:#181818;stroke-width:1.0;"/><path d="M1082.0938,1980.6719 C1081.1563,1980.2344 1080.5625,1980.0938 1079.6875,1980.0938 C1077.0625,1980.0938 1075.0625,1982.1719 1075.0625,1984.8906 L1075.0625,1986.0156 C1075.0625,1988.5938 1077.1719,1990.4844 1080.0625,1990.4844 C1081.2813,1990.4844 1082.4375,1990.1875 1083.1875,1989.6406 C1083.7656,1989.2344 1084.0938,1988.7813 1084.0938,1988.3906 C1084.0938,1987.9375 1083.7031,1987.5469 1083.2344,1987.5469 C1083.0156,1987.5469 1082.8125,1987.625 1082.625,1987.8125 C1082.1719,1988.2969 1082.1719,1988.2969 1081.9844,1988.3906 C1081.5625,1988.6563 1080.875,1988.7813 1080.1094,1988.7813 C1078.0625,1988.7813 1076.7656,1987.6875 1076.7656,1985.9844 L1076.7656,1984.8906 C1076.7656,1983.1094 1078.0156,1981.7969 1079.75,1981.7969 C1080.3281,1981.7969 1080.9375,1981.9531 1081.4063,1982.2031 C1081.8906,1982.4844 1082.0625,1982.7031 1082.1563,1983.1094 C1082.2188,1983.5156 1082.25,1983.6406 1082.3906,1983.7656 C1082.5313,1983.9063 1082.7656,1984.0156 1082.9844,1984.0156 C1083.25,1984.0156 1083.5156,1983.875 1083.6875,1983.6563 C1083.7969,1983.5 1083.8281,1983.3125 1083.8281,1982.8906 L1083.8281,1981.4688 C1083.8281,1981.0313 1083.8125,1980.9063 1083.7188,1980.75 C1083.5625,1980.4844 1083.2813,1980.3438 1082.9844,1980.3438 C1082.6875,1980.3438 1082.4844,1980.4375 1082.2656,1980.75 L1082.0938,1980.6719 Z " fill="#000000"/><text fill="#000000" font-family="sans-serif" font-size="14" lengthAdjust="spacing" textLength="104" x="1100.25" y="1989.8467">PositionalData</text><line style="stroke:#181818;stroke-width:0.5;" x1="1019.5" x2="1252.5" y1="2001" y2="2001"/><rect fill="none" height="6" style="stroke:#C82930;stroke-width:1.0;" width="6" x="1026.5" y="2011.6484"/><text fill="#000000" font-family="sans-serif" font-size="14" lengthAdjust="spacing" textLength="81" x="1038.5" y="2017.9951">Point point</text><rect fill="none" height="6" style="stroke:#C82930;stroke-width:1.0;" width="6" x="1026.5" y="2027.9453"/><text fill="#000000" font-family="sans-serif" font-size="14" lengthAdjust="spacing" textLength="144" x="1038.5" y="2034.292">CardColor cardColor</text><line style="stroke:#181818;stroke-width:0.5;" x1="1019.5" x2="1252.5" y1="2041.5938" y2="2041.5938"/><ellipse cx="1029.5" cy="2055.2422" fill="#84BE84" rx="3" ry="3" style="stroke:#038048;stroke-width:1.0;"/><text fill="#000000" font-family="sans-serif" font-size="14" lengthAdjust="spacing" textLength="115" x="1038.5" y="2058.5889">Point getPoint()</text><ellipse cx="1029.5" cy="2071.5391" fill="#84BE84" rx="3" ry="3" style="stroke:#038048;stroke-width:1.0;"/><text fill="#000000" font-family="sans-serif" font-size="14" lengthAdjust="spacing" textLength="181" x="1038.5" y="2074.8857">CardColor getCardColor()</text><ellipse cx="1029.5" cy="2087.8359" fill="#84BE84" rx="3" ry="3" style="stroke:#038048;stroke-width:1.0;"/><text fill="#000000" font-family="sans-serif" font-size="14" lengthAdjust="spacing" textLength="191" x="1038.5" y="2091.1826">GameItem getGameItem()</text><ellipse cx="1029.5" cy="2104.1328" fill="#84BE84" rx="3" ry="3" style="stroke:#038048;stroke-width:1.0;"/><text fill="#000000" font-family="sans-serif" font-size="14" lengthAdjust="spacing" textLength="129" x="1038.5" y="2107.4795">void setPoint(x, y)</text><ellipse cx="1029.5" cy="2120.4297" fill="#84BE84" rx="3" ry="3" style="stroke:#038048;stroke-width:1.0;"/><text fill="#000000" font-family="sans-serif" font-size="14" lengthAdjust="spacing" textLength="209" x="1038.5" y="2123.7764">void setCardColor(CardColor)</text></g><!--class CornerPosition--><g id="elem_CornerPosition"><rect codeLine="243" fill="#F1F1F1" height="113.1875" id="CornerPosition" rx="2.5" ry="2.5" style="stroke:#181818;stroke-width:0.5;" width="139" x="373.5" y="39.5"/><ellipse cx="388.5" cy="55.5" fill="#EB937F" rx="11" ry="11" style="stroke:#181818;stroke-width:1.0;"/><path d="M387.2969,56.375 L388.75,56.375 L388.75,56.4844 C388.75,56.8906 388.7813,57.0469 388.8594,57.2031 C389.0156,57.4531 389.2969,57.6094 389.5938,57.6094 C389.8438,57.6094 390.1094,57.4688 390.2656,57.25 C390.3906,57.0938 390.4219,56.9375 390.4219,56.4844 L390.4219,54.5625 C390.4219,54.4063 390.4219,54.3594 390.4063,54.2031 C390.3438,53.7344 390.0313,53.4219 389.5781,53.4219 C389.3281,53.4219 389.0625,53.5625 388.8906,53.7813 C388.7813,53.9531 388.75,54.1094 388.75,54.5625 L388.75,54.6875 L387.2969,54.6875 L387.2969,52.2813 L391.2813,52.2813 L391.2813,53.1406 C391.2813,53.5469 391.3125,53.7188 391.3906,53.875 C391.5625,54.125 391.8438,54.2813 392.125,54.2813 C392.3906,54.2813 392.6563,54.1406 392.8281,53.9219 C392.9375,53.75 392.9688,53.6094 392.9688,53.1406 L392.9688,50.5938 L385.3438,50.5938 C384.9063,50.5938 384.7813,50.6094 384.625,50.7031 C384.375,50.8594 384.2188,51.1563 384.2188,51.4375 C384.2188,51.7188 384.3594,51.9688 384.5781,52.1406 C384.7344,52.25 384.9219,52.2813 385.3438,52.2813 L385.5938,52.2813 L385.5938,58.7969 L385.3438,58.7969 C384.9375,58.7969 384.7813,58.8125 384.625,58.9219 C384.375,59.0938 384.2188,59.3594 384.2188,59.6563 C384.2188,59.9219 384.3594,60.1719 384.5781,60.3281 C384.7188,60.4531 384.9531,60.5 385.3438,60.5 L393.3438,60.5 L393.3438,57.9219 C393.3438,57.4844 393.3125,57.3438 393.2344,57.1875 C393.0625,56.9375 392.7813,56.7813 392.5,56.7813 C392.2344,56.7813 391.9688,56.8906 391.7969,57.1406 C391.6875,57.2969 391.6563,57.4375 391.6563,57.9219 L391.6563,58.7969 L387.2969,58.7969 L387.2969,56.375 Z " fill="#000000"/><text fill="#000000" font-family="sans-serif" font-size="14" lengthAdjust="spacing" textLength="107" x="402.5" y="60.3467">CornerPosition</text><line style="stroke:#181818;stroke-width:0.5;" x1="374.5" x2="511.5" y1="71.5" y2="71.5"/><text fill="#000000" font-family="sans-serif" font-size="14" lengthAdjust="spacing" textLength="80" x="379.5" y="88.4951">TOP_RIGHT</text><text fill="#000000" font-family="sans-serif" font-size="14" lengthAdjust="spacing" textLength="70" x="379.5" y="104.792">TOP_LEFT</text><text fill="#000000" font-family="sans-serif" font-size="14" lengthAdjust="spacing" textLength="103" x="379.5" y="121.0889">BOTTOM_LEFT</text><text fill="#000000" font-family="sans-serif" font-size="14" lengthAdjust="spacing" textLength="113" x="379.5" y="137.3857">BOTTOM_RIGHT</text><line style="stroke:#181818;stroke-width:0.5;" x1="374.5" x2="511.5" y1="144.6875" y2="144.6875"/></g><!--class GameItem--><g id="elem_GameItem"><rect codeLine="250" fill="#F1F1F1" height="178.375" id="GameItem" rx="2.5" ry="2.5" style="stroke:#181818;stroke-width:0.5;" width="108" x="548" y="7"/><ellipse cx="563" cy="23" fill="#EB937F" rx="11" ry="11" style="stroke:#181818;stroke-width:1.0;"/><path d="M561.7969,23.875 L563.25,23.875 L563.25,23.9844 C563.25,24.3906 563.2813,24.5469 563.3594,24.7031 C563.5156,24.9531 563.7969,25.1094 564.0938,25.1094 C564.3438,25.1094 564.6094,24.9688 564.7656,24.75 C564.8906,24.5938 564.9219,24.4375 564.9219,23.9844 L564.9219,22.0625 C564.9219,21.9063 564.9219,21.8594 564.9063,21.7031 C564.8438,21.2344 564.5313,20.9219 564.0781,20.9219 C563.8281,20.9219 563.5625,21.0625 563.3906,21.2813 C563.2813,21.4531 563.25,21.6094 563.25,22.0625 L563.25,22.1875 L561.7969,22.1875 L561.7969,19.7813 L565.7813,19.7813 L565.7813,20.6406 C565.7813,21.0469 565.8125,21.2188 565.8906,21.375 C566.0625,21.625 566.3438,21.7813 566.625,21.7813 C566.8906,21.7813 567.1563,21.6406 567.3281,21.4219 C567.4375,21.25 567.4688,21.1094 567.4688,20.6406 L567.4688,18.0938 L559.8438,18.0938 C559.4063,18.0938 559.2813,18.1094 559.125,18.2031 C558.875,18.3594 558.7188,18.6563 558.7188,18.9375 C558.7188,19.2188 558.8594,19.4688 559.0781,19.6406 C559.2344,19.75 559.4219,19.7813 559.8438,19.7813 L560.0938,19.7813 L560.0938,26.2969 L559.8438,26.2969 C559.4375,26.2969 559.2813,26.3125 559.125,26.4219 C558.875,26.5938 558.7188,26.8594 558.7188,27.1563 C558.7188,27.4219 558.8594,27.6719 559.0781,27.8281 C559.2188,27.9531 559.4531,28 559.8438,28 L567.8438,28 L567.8438,25.4219 C567.8438,24.9844 567.8125,24.8438 567.7344,24.6875 C567.5625,24.4375 567.2813,24.2813 567,24.2813 C566.7344,24.2813 566.4688,24.3906 566.2969,24.6406 C566.1875,24.7969 566.1563,24.9375 566.1563,25.4219 L566.1563,26.2969 L561.7969,26.2969 L561.7969,23.875 Z " fill="#000000"/><text fill="#000000" font-family="sans-serif" font-size="14" lengthAdjust="spacing" textLength="76" x="577" y="27.8467">GameItem</text><line style="stroke:#181818;stroke-width:0.5;" x1="549" x2="655" y1="39" y2="39"/><text fill="#000000" font-family="sans-serif" font-size="14" lengthAdjust="spacing" textLength="46" x="554" y="55.9951">PLANT</text><text fill="#000000" font-family="sans-serif" font-size="14" lengthAdjust="spacing" textLength="54" x="554" y="72.292">ANIMAL</text><text fill="#000000" font-family="sans-serif" font-size="14" lengthAdjust="spacing" textLength="42" x="554" y="88.5889">FUNGI</text><text fill="#000000" font-family="sans-serif" font-size="14" lengthAdjust="spacing" textLength="51" x="554" y="104.8857">INSECT</text><text fill="#000000" font-family="sans-serif" font-size="14" lengthAdjust="spacing" textLength="40" x="554" y="121.1826">QUILL</text><text fill="#000000" font-family="sans-serif" font-size="14" lengthAdjust="spacing" textLength="63" x="554" y="137.4795">INKWELL</text><text fill="#000000" font-family="sans-serif" font-size="14" lengthAdjust="spacing" textLength="92" x="554" y="153.7764">MANUSCRIPT</text><text fill="#000000" font-family="sans-serif" font-size="14" lengthAdjust="spacing" textLength="35" x="554" y="170.0732">NULL</text><line style="stroke:#181818;stroke-width:0.5;" x1="549" x2="655" y1="177.375" y2="177.375"/></g><!--class CardColor--><g id="elem_CardColor"><rect codeLine="261" fill="#F1F1F1" height="129.4844" id="CardColor" rx="2.5" ry="2.5" style="stroke:#181818;stroke-width:0.5;" width="103" x="391.5" y="310.5"/><ellipse cx="406.5" cy="326.5" fill="#EB937F" rx="11" ry="11" style="stroke:#181818;stroke-width:1.0;"/><path d="M405.2969,327.375 L406.75,327.375 L406.75,327.4844 C406.75,327.8906 406.7813,328.0469 406.8594,328.2031 C407.0156,328.4531 407.2969,328.6094 407.5938,328.6094 C407.8438,328.6094 408.1094,328.4688 408.2656,328.25 C408.3906,328.0938 408.4219,327.9375 408.4219,327.4844 L408.4219,325.5625 C408.4219,325.4063 408.4219,325.3594 408.4063,325.2031 C408.3438,324.7344 408.0313,324.4219 407.5781,324.4219 C407.3281,324.4219 407.0625,324.5625 406.8906,324.7813 C406.7813,324.9531 406.75,325.1094 406.75,325.5625 L406.75,325.6875 L405.2969,325.6875 L405.2969,323.2813 L409.2813,323.2813 L409.2813,324.1406 C409.2813,324.5469 409.3125,324.7188 409.3906,324.875 C409.5625,325.125 409.8438,325.2813 410.125,325.2813 C410.3906,325.2813 410.6563,325.1406 410.8281,324.9219 C410.9375,324.75 410.9688,324.6094 410.9688,324.1406 L410.9688,321.5938 L403.3438,321.5938 C402.9063,321.5938 402.7813,321.6094 402.625,321.7031 C402.375,321.8594 402.2188,322.1563 402.2188,322.4375 C402.2188,322.7188 402.3594,322.9688 402.5781,323.1406 C402.7344,323.25 402.9219,323.2813 403.3438,323.2813 L403.5938,323.2813 L403.5938,329.7969 L403.3438,329.7969 C402.9375,329.7969 402.7813,329.8125 402.625,329.9219 C402.375,330.0938 402.2188,330.3594 402.2188,330.6563 C402.2188,330.9219 402.3594,331.1719 402.5781,331.3281 C402.7188,331.4531 402.9531,331.5 403.3438,331.5 L411.3438,331.5 L411.3438,328.9219 C411.3438,328.4844 411.3125,328.3438 411.2344,328.1875 C411.0625,327.9375 410.7813,327.7813 410.5,327.7813 C410.2344,327.7813 409.9688,327.8906 409.7969,328.1406 C409.6875,328.2969 409.6563,328.4375 409.6563,328.9219 L409.6563,329.7969 L405.2969,329.7969 L405.2969,327.375 Z " fill="#000000"/><text fill="#000000" font-family="sans-serif" font-size="14" lengthAdjust="spacing" textLength="71" x="420.5" y="331.3467">CardColor</text><line style="stroke:#181818;stroke-width:0.5;" x1="392.5" x2="493.5" y1="342.5" y2="342.5"/><text fill="#000000" font-family="sans-serif" font-size="14" lengthAdjust="spacing" textLength="28" x="397.5" y="359.4951">Red</text><text fill="#000000" font-family="sans-serif" font-size="14" lengthAdjust="spacing" textLength="31" x="397.5" y="375.792">Blue</text><text fill="#000000" font-family="sans-serif" font-size="14" lengthAdjust="spacing" textLength="44" x="397.5" y="392.0889">Green</text><text fill="#000000" font-family="sans-serif" font-size="14" lengthAdjust="spacing" textLength="46" x="397.5" y="408.3857">Purple</text><text fill="#000000" font-family="sans-serif" font-size="14" lengthAdjust="spacing" textLength="52" x="397.5" y="424.6826">Neutral</text><line style="stroke:#181818;stroke-width:0.5;" x1="392.5" x2="493.5" y1="431.9844" y2="431.9844"/></g><!--reverse link GameManager to Game--><g id="link_GameManager_Game"><path codeLine="8" d="M915,172.55 C915,197.71 915,215.58 915,244.9 " fill="none" id="GameManager-backto-Game" style="stroke:#181818;stroke-width:1.0;"/><polygon fill="#181818" points="915,160.55,911,166.55,915,172.55,919,166.55,915,160.55" style="stroke:#181818;stroke-width:1.0;"/><text fill="#000000" font-family="sans-serif" font-size="13" lengthAdjust="spacing" textLength="25" x="888.5547" y="180.9274">1..N</text><text fill="#000000" font-family="sans-serif" font-size="13" lengthAdjust="spacing" textLength="8" x="906.7688" y="234.0198">1</text></g><!--reverse link Game to Player--><g id="link_Game_Player"><path codeLine="27" d="M874.7031,516.7162 C841.6731,632.0462 796.961,788.18 764.661,900.97 " fill="none" id="Game-backto-Player" style="stroke:#181818;stroke-width:1.0;"/><polygon fill="#181818" points="878.007,505.18,872.5096,509.8468,874.7031,516.7162,880.2004,512.0494,878.007,505.18" style="stroke:#181818;stroke-width:1.0;"/><text fill="#000000" font-family="sans-serif" font-size="13" lengthAdjust="spacing" textLength="24" x="851.3277" y="524.7837">2..4</text><text fill="#000000" font-family="sans-serif" font-size="13" lengthAdjust="spacing" textLength="8" x="758.6252" y="889.7571">1</text></g><!--reverse link Game to GlobalBoard--><g id="link_Game_GlobalBoard"><path codeLine="28" d="M968.0246,516.538 C975.4016,536.098 978.801,545.1 986.239,564.81 " fill="none" id="Game-backto-GlobalBoard" style="stroke:#181818;stroke-width:1.0;"/><polygon fill="#181818" points="963.79,505.31,962.1646,512.3355,968.0246,516.538,969.65,509.5125,963.79,505.31" style="stroke:#181818;stroke-width:1.0;"/><text fill="#000000" font-family="sans-serif" font-size="13" lengthAdjust="spacing" textLength="8" x="958.2395" y="524.9209">1</text><text fill="#000000" font-family="sans-serif" font-size="13" lengthAdjust="spacing" textLength="8" x="975.1896" y="553.9088">1</text></g><!--reverse link GlobalBoard to Deck--><g id="link_GlobalBoard_Deck"><path codeLine="49" d="M1038,853.17 C1038,904.44 1038,946.8 1038,982.37 " fill="none" id="GlobalBoard-backto-Deck" style="stroke:#181818;stroke-width:1.0;"/><polygon fill="#181818" points="1038,841.17,1034,847.17,1038,853.17,1042,847.17,1038,841.17" style="stroke:#181818;stroke-width:1.0;"/><text fill="#000000" font-family="sans-serif" font-size="13" lengthAdjust="spacing" textLength="8" x="1029.7813" y="861.2026">3</text><text fill="#000000" font-family="sans-serif" font-size="13" lengthAdjust="spacing" textLength="8" x="1029.3375" y="971.51">1</text></g><!--reverse link Player to PlayerBoard--><g id="link_Player_PlayerBoard"><path codeLine="68" d="M587.1278,1109.7235 C533.5228,1141.8835 482.044,1172.77 428.36,1204.98 " fill="none" id="Player-backto-PlayerBoard" style="stroke:#181818;stroke-width:1.0;"/><polygon fill="#181818" points="597.418,1103.55,590.2151,1103.2067,587.1278,1109.7235,594.3308,1110.0668,597.418,1103.55" style="stroke:#181818;stroke-width:1.0;"/><text fill="#000000" font-family="sans-serif" font-size="13" lengthAdjust="spacing" textLength="8" x="581.5219" y="1104.8566">1</text><text fill="#000000" font-family="sans-serif" font-size="13" lengthAdjust="spacing" textLength="8" x="432.2854" y="1193.889">1</text></g><!--reverse link Player to Hand--><g id="link_Player_Hand"><path codeLine="83" d="M705.5157,1157.1321 C700.1057,1186.5521 696.75,1204.8 692.217,1229.44 " fill="none" id="Player-backto-Hand" style="stroke:#181818;stroke-width:1.0;"/><polygon fill="#181818" points="707.686,1145.33,702.6668,1150.5076,705.5157,1157.1321,710.5349,1151.9545,707.686,1145.33" style="stroke:#181818;stroke-width:1.0;"/><text fill="#000000" font-family="sans-serif" font-size="13" lengthAdjust="spacing" textLength="8" x="698.247" y="1164.5126">1</text><text fill="#000000" font-family="sans-serif" font-size="13" lengthAdjust="spacing" textLength="8" x="685.0136" y="1218.2957">1</text></g><!--link PlayerBoard to GameCard--><g id="link_PlayerBoard_GameCard"><path codeLine="95" d="M410.036,1367.24 C437.261,1386.23 466.792,1406.83 495.648,1426.955 " fill="none" id="PlayerBoard-GameCard" style="stroke:#181818;stroke-width:1.0;"/><text fill="#000000" font-family="sans-serif" font-size="13" lengthAdjust="spacing" textLength="25" x="394.1681" y="1387.2127">1..N</text><text fill="#000000" font-family="sans-serif" font-size="13" lengthAdjust="spacing" textLength="8" x="476.5384" y="1415.8794">1</text></g><!--reverse link Store to GameItemStore--><g id="link_Store_GameItemStore"><path d="M270.98,1631.2719 C261.42,1681.6949 252.362,1729.471 244.537,1770.745 " fill="none" id="Store-backto-GameItemStore" style="stroke:#181818;stroke-width:1.0;"/><polygon fill="none" points="274.333,1613.587,265.085,1630.1543,276.875,1632.3896,274.333,1613.587" style="stroke:#181818;stroke-width:1.0;"/></g><!--reverse link PlayerBoard to Store--><g id="link_PlayerBoard_Store"><path codeLine="112" d="M292.4434,1379.2354 C291.5544,1411.2954 290.871,1435.941 290.005,1467.166 " fill="none" id="PlayerBoard-backto-Store" style="stroke:#181818;stroke-width:1.0;"/><polygon fill="#181818" points="292.776,1367.24,288.6112,1373.1268,292.4434,1379.2354,296.6082,1373.3486,292.776,1367.24" style="stroke:#181818;stroke-width:1.0;"/><text fill="#000000" font-family="sans-serif" font-size="13" lengthAdjust="spacing" textLength="8" x="284.2217" y="1387.2127">2</text><text fill="#000000" font-family="sans-serif" font-size="13" lengthAdjust="spacing" textLength="8" x="281.8149" y="1456.5452">1</text></g><!--reverse link Card to GameCard--><g id="link_Card_GameCard"><path codeLine="117" d="M975.896,1328.1538 C934.583,1355.5338 886.919,1387.13 826.99,1426.843 " fill="none" id="Card-backto-GameCard" style="stroke:#181818;stroke-width:1.0;"/><polygon fill="none" points="990.9,1318.21,972.5814,1323.1525,979.2106,1333.1552,990.9,1318.21" style="stroke:#181818;stroke-width:1.0;"/></g><!--reverse link Card to ObjectiveCard--><g id="link_Card_ObjectiveCard"><path codeLine="118" d="M1040.9173,1336.1783 C1043.6373,1381.9683 1047.65,1449.366 1050.63,1499.633 " fill="none" id="Card-backto-ObjectiveCard" style="stroke:#181818;stroke-width:1.0;"/><polygon fill="none" points="1039.85,1318.21,1034.9279,1336.5341,1046.9068,1335.8225,1039.85,1318.21" style="stroke:#181818;stroke-width:1.0;"/></g><!--reverse link GameCard to Side--><g id="link_GameCard_Side"><path codeLine="134" d="M657,1666.022 C657,1685.89 657,1694.415 657,1713.8 " fill="none" id="GameCard-backto-Side" style="stroke:#181818;stroke-width:1.0;"/><polygon fill="#181818" points="657,1654.022,653,1660.022,657,1666.022,661,1660.022,657,1654.022" style="stroke:#181818;stroke-width:1.0;"/><text fill="#000000" font-family="sans-serif" font-size="13" lengthAdjust="spacing" textLength="8" x="648.7313" y="1674.2156">2</text><text fill="#000000" font-family="sans-serif" font-size="13" lengthAdjust="spacing" textLength="8" x="648.6938" y="1702.8302">1</text></g><!--reverse link Side to Front--><g id="link_Side_Front"><path codeLine="148" d="M511.0585,1919.6902 C467.7575,1951.4932 436.009,1974.812 399.914,2001.322 " fill="none" id="Side-backto-Front" style="stroke:#181818;stroke-width:1.0;"/><polygon fill="none" points="525.566,1909.035,507.5068,1914.8544,514.6103,1924.526,525.566,1909.035" style="stroke:#181818;stroke-width:1.0;"/></g><!--reverse link Side to Back--><g id="link_Side_Back"><path codeLine="149" d="M617.1604,1926.0195 C605.9994,1957.8225 600.037,1974.812 590.732,2001.322 " fill="none" id="Side-backto-Back" style="stroke:#181818;stroke-width:1.0;"/><polygon fill="none" points="623.121,1909.035,611.499,1924.0326,622.8219,1928.0063,623.121,1909.035" style="stroke:#181818;stroke-width:1.0;"/></g><!--reverse link Side to Corner--><g id="link_Side_Corner"><path codeLine="150" d="M743.3661,1918.3321 C761.8151,1940.9391 773.572,1955.346 790.987,1976.686 " fill="none" id="Side-backto-Corner" style="stroke:#181818;stroke-width:1.0;"/><polygon fill="#181818" points="735.779,1909.035,736.4735,1916.2126,743.3661,1918.3321,742.6716,1911.1545,735.779,1909.035" style="stroke:#181818;stroke-width:1.0;"/><text fill="#000000" font-family="sans-serif" font-size="13" lengthAdjust="spacing" textLength="24" x="716.6831" y="1928.8323">1..4</text><text fill="#000000" font-family="sans-serif" font-size="13" lengthAdjust="spacing" textLength="8" x="776.7842" y="1965.8151">1</text></g><!--reverse link Corner to NonExistingCorner--><g id="link_Corner_NonExistingCorner"><path codeLine="166" d="M850,2141.234 C850,2167.731 850,2178.349 850,2199.355 " fill="none" id="Corner-backto-NonExistingCorner" style="stroke:#181818;stroke-width:1.0;"/><polygon fill="none" points="850,2123.234,844,2141.234,856,2141.234,850,2123.234" style="stroke:#181818;stroke-width:1.0;"/></g><!--reverse link Front to FrontGoldCard--><g id="link_Front_FrontGoldCard"><path codeLine="176" d="M335,2116.631 C335,2145.401 335,2163.639 335,2190.843 " fill="none" id="Front-backto-FrontGoldCard" style="stroke:#181818;stroke-width:1.0;"/><polygon fill="none" points="335,2098.631,329,2116.631,341,2116.631,335,2098.631" style="stroke:#181818;stroke-width:1.0;"/></g><!--reverse link FrontGoldCard to FrontPositionalGoldCard--><g id="link_FrontGoldCard_FrontPositionalGoldCard"><path codeLine="183" d="M289.8805,2286.1029 C271.6485,2307.7629 261.025,2320.3853 244.097,2340.4962 " fill="none" id="FrontGoldCard-backto-FrontPositionalGoldCard" style="stroke:#181818;stroke-width:1.0;"/><polygon fill="none" points="301.472,2272.332,285.2902,2282.2391,294.4708,2289.9667,301.472,2272.332" style="stroke:#181818;stroke-width:1.0;"/></g><!--reverse link FrontGoldCard to FrontItemGoldCard--><g id="link_FrontGoldCard_FrontItemGoldCard"><path codeLine="184" d="M380.463,2286.0543 C396.263,2304.6663 403.38,2313.0499 419.181,2331.6624 " fill="none" id="FrontGoldCard-backto-FrontItemGoldCard" style="stroke:#181818;stroke-width:1.0;"/><polygon fill="none" points="368.814,2272.332,375.8889,2289.9373,385.0371,2282.1712,368.814,2272.332" style="stroke:#181818;stroke-width:1.0;"/></g><!--reverse link Player to ObjectiveCard--><g id="link_Player_ObjectiveCard"><path codeLine="213" d="M824.1461,1155.2296 C836.9851,1174.8396 842.998,1185.19 854,1205 C892.16,1273.73 885.55,1299 925,1367 C952.978,1415.223 991.932,1465.952 1019.5,1499.814 " fill="none" id="Player-backto-ObjectiveCard" style="stroke:#181818;stroke-width:1.0;"/><polygon fill="#181818" points="817.573,1145.19,817.513,1152.4009,824.1461,1155.2296,824.2061,1148.0188,817.573,1145.19" style="stroke:#181818;stroke-width:1.0;"/></g><!--reverse link GlobalBoard to ObjectiveCard--><g id="link_GlobalBoard_ObjectiveCard"><path codeLine="214" d="M1131.6671,852.1043 C1140.8271,871.5343 1143.62,880.9 1149,901 C1202.54,1101.07 1205.35,1166.87 1152,1367 C1138.84,1416.379 1107.81,1466.318 1083.96,1499.666 " fill="none" id="GlobalBoard-backto-ObjectiveCard" style="stroke:#181818;stroke-width:1.0;"/><polygon fill="#181818" points="1126.55,841.25,1125.4905,848.3828,1131.6671,852.1043,1132.7266,844.9714,1126.55,841.25" style="stroke:#181818;stroke-width:1.0;"/></g><!--reverse link ObjectiveCard to PositionalObjectiveCard--><g id="link_ObjectiveCard_PositionalObjectiveCard"><path codeLine="215" d="M1053,1599.192 C1053,1650.051 1053,1719.708 1053,1770.645 " fill="none" id="ObjectiveCard-backto-PositionalObjectiveCard" style="stroke:#181818;stroke-width:1.0;"/><polygon fill="none" points="1053,1581.192,1047,1599.192,1059,1599.192,1053,1581.192" style="stroke:#181818;stroke-width:1.0;"/></g><!--reverse link Deck to Card--><g id="link_Deck_Card"><path codeLine="216" d="M1038,1075.64 C1038,1127.83 1038,1206.52 1038,1254 " fill="none" id="Deck-backto-Card" style="stroke:#181818;stroke-width:1.0;"/><polygon fill="#181818" points="1038,1063.64,1034,1069.64,1038,1075.64,1042,1069.64,1038,1063.64" style="stroke:#181818;stroke-width:1.0;"/></g><!--reverse link ObjectiveCard to ItemObjectiveCard--><g id="link_ObjectiveCard_ItemObjectiveCard"><path codeLine="223" d="M1111.6695,1593.0757 C1169.5295,1643.9347 1255.72,1719.708 1313.66,1770.645 " fill="none" id="ObjectiveCard-backto-ItemObjectiveCard" style="stroke:#181818;stroke-width:1.0;"/><polygon fill="none" points="1098.15,1581.192,1107.7083,1597.5822,1115.6308,1588.5692,1098.15,1581.192" style="stroke:#181818;stroke-width:1.0;"/></g><!--reverse link PositionalObjectiveCard to PositionalData--><g id="link_PositionalObjectiveCard_PositionalData"><path codeLine="234" d="M1070.8633,1863.4081 C1081.9833,1895.0981 1093.98,1929.261 1107.76,1968.534 " fill="none" id="PositionalObjectiveCard-backto-PositionalData" style="stroke:#181818;stroke-width:1.0;"/><polygon fill="#181818" points="1066.89,1852.085,1065.1023,1859.071,1070.8633,1863.4081,1072.651,1856.4221,1066.89,1852.085" style="stroke:#181818;stroke-width:1.0;"/><text fill="#000000" font-family="sans-serif" font-size="13" lengthAdjust="spacing" textLength="25" x="1042.1028" y="1871.5562">1..N</text><text fill="#000000" font-family="sans-serif" font-size="13" lengthAdjust="spacing" textLength="8" x="1096.9894" y="1957.9577">1</text></g><!--SRC=[hLXPKniv47xthr2n3mpXs4goZvIhZ0F65JFsObDvsDhQacSQe-nuv98q1CBotrVtCJD0zk01fEvM7rztIpqK5UOSJV0Mhd2DDy3Gqm39d-CHO_XnHhWuLSmXsiZVNBCE2mPOW29dIy58lK6rN1yXKWjKBohy28mV8SlQwNqk1GxCwH8gw9wsp8vL46h1CyjN6_ILahfhlSVUyo0ERE_zoKc-XzuT7ylbdevvC2Xy_EW9QHlx4-22q1hGXj022ye80XaR-KxepxT4qdUO2IAmmScQLV0eeuOO8z66qv27rb7BdbHqZQipYbc9Dc5jcEO4AXh6e1PcP-3WWkuq4XOUN9Q6dTapneZbCjZIUtX5GA9jdSxQbEobT4g971wSL2164JaguKiXeGD5U1xetA2z3oSdluIasE0CwtsKh0WJbxC8Cbkpdw3u4sreLQf5H6B0QSCAQ97f-YiKWjotwLnxoG9rxWJ7qjXl7tuF9rtwfB-ETqkWAYVI2KLuYNzjFGeo0JZhVuJbTUH_H9x7_lVHupHU96wr6Oa_Zbao_4qHBXZTQgdCnQ7pjnzd0Cb4eGIdGSpU-nXogN6rIRHLQFAtVubHXH5liANhiqUETeThkI6Lt51KDrjW59K4CS8fuu2m40skY1VVKQvQLlOhRoeay1ggIkt0gQ1h0a9wIq-IJWuL7dhPq1QKnmrf8jk5TK-nX4ePUu5B6OSEfjLYUTJ8dfWqaATAJpeqfRQl2CQH0jwc9pj_YTpZke1WII701Uou4TZFFVOxcKEY5aL349R7lcC6gZPiNkCMZk9nsTVTrdblb2j3LFZEy7LehWrxLgFO-rQPym7WFgvzLv9olwUaHF86rQP2fGUUkJzRxFvWbNTfZISNrINcTrTuTxgGBvauGi6lJZKfrbJ0TYdV8T2lZDfPOEOxzL3XgZ-mJ6i_Q8bgOY8dKqmKintpZ-8shGMezzNob7-ZBMrgaRbj329lEnZ2Zy2qjuPviQC7UnnLZuRaT3MqeFxaG5qT8UlIK9QjbF4zaQsG29sWTbuqFA1zP9FvFevw_cXzljs9ny_mo4s9Xg4Yf4w-aL2Nrclhyc4Y4iyuWUYYSjGeE5yDfYyIv3w4MjHw1WC9DR1RN00QXqhKruVA0i-YuqgV5ZhzI-hmk0TIUj57yKQgZvUa13Uqg7L4fU8EMA2fKsDQKQQxNg-CTrfOkZWEMf9kvT-8AEvYSb2bZgb5rkw0CMMrXay9g6Lc_hW-QAL1LQmH6CiQO79wULNSDcheXIItKQ_qmTwlAGSeeOnrsUbft4crWdI0rrmmN0Xa-qI1Q7l4k8xas7XDDdUYJPp1RKfRKo7ezWLoK77u1fR_9uJ_7JeDYAvZETdK8jgVOJcQwAswUgAvrFZhAjsYO32LzRkcj09S8y9jV8xXQyYrwi1oGdL5OTe8ExLd8FFCCszDNpkzZ0TvRSjX9Zj0Jmn4mseaM0FFoho_dzIzPUMIW5xNSuihBXN92yASqRXrLCdfK6EhiLogkuBMpgvck8BKqvLEPnY0_q7MPJ16NKYdct4JSuxepAQ5KliguT57JK_bfBg2JLV8kFBMNn9L6eEBiOzT9MzSqlgpuJdH4Mjtzx0lfcrJ2RAhYFjwV1dJVTK8VRbJz7uCtJVMlyxZVZeuUyEjsooLiXyEwaaJ42Pwuw2xR4rzVP7Atd313dBlsYySIhvbEkn1Agnp7PAPYkgHLsc8IrIXr1TNQ_hxyVprEDInuSTJx-adBB2ph1KRvDvueusaywN_7NQRzeZJS_lvAT6eUpX2Zor6qEPNAkWN46__soSDjmj2RnwY_zuanuVwApDIzrQDdyllrb3Qe7RfKsWjhkQBFwwdaykLtytEBypcRBvQpQywUoFzR9LwW8swnMoK6-bHFhqQpVJouYQVJFLgcY_FnuR_wyrqDhF4pr_ExVfgbDyinzVJXH7ARoJTcGgPDhQkxVDtLZLcl9im0DDwYuRjAaFCeP5TNGsU_mO0]--></g></svg>