<?xml version="1.0" encoding="us-ascii" standalone="no"?><svg xmlns="http://www.w3.org/2000/svg" xmlns:xlink="http://www.w3.org/1999/xlink" contentStyleType="text/css" height="2435px" preserveAspectRatio="none" style="width:1493px;height:2435px;background:#FFFFFF;" version="1.1" viewBox="0 0 1493 2435" width="1493px" zoomAndPan="magnify"><defs/><g><!--class GameManager--><g id="elem_GameManager"><rect codeLine="1" fill="#F1F1F1" height="129.4844" id="GameManager" rx="2.5" ry="2.5" style="stroke:#181818;stroke-width:0.5;" width="447" x="695.5" y="31.5"/><ellipse cx="863.25" cy="47.5" fill="#ADD1B2" rx="11" ry="11" style="stroke:#181818;stroke-width:1.0;"/><path d="M865.5938,43.1719 C864.6563,42.7344 864.0625,42.5938 863.1875,42.5938 C860.5625,42.5938 858.5625,44.6719 858.5625,47.3906 L858.5625,48.5156 C858.5625,51.0938 860.6719,52.9844 863.5625,52.9844 C864.7813,52.9844 865.9375,52.6875 866.6875,52.1406 C867.2656,51.7344 867.5938,51.2813 867.5938,50.8906 C867.5938,50.4375 867.2031,50.0469 866.7344,50.0469 C866.5156,50.0469 866.3125,50.125 866.125,50.3125 C865.6719,50.7969 865.6719,50.7969 865.4844,50.8906 C865.0625,51.1563 864.375,51.2813 863.6094,51.2813 C861.5625,51.2813 860.2656,50.1875 860.2656,48.4844 L860.2656,47.3906 C860.2656,45.6094 861.5156,44.2969 863.25,44.2969 C863.8281,44.2969 864.4375,44.4531 864.9063,44.7031 C865.3906,44.9844 865.5625,45.2031 865.6563,45.6094 C865.7188,46.0156 865.75,46.1406 865.8906,46.2656 C866.0313,46.4063 866.2656,46.5156 866.4844,46.5156 C866.75,46.5156 867.0156,46.375 867.1875,46.1563 C867.2969,46 867.3281,45.8125 867.3281,45.3906 L867.3281,43.9688 C867.3281,43.5313 867.3125,43.4063 867.2188,43.25 C867.0625,42.9844 866.7813,42.8438 866.4844,42.8438 C866.1875,42.8438 865.9844,42.9375 865.7656,43.25 L865.5938,43.1719 Z " fill="#000000"/><text fill="#000000" font-family="sans-serif" font-size="14" lengthAdjust="spacing" textLength="103" x="883.75" y="52.3467">GameManager</text><line style="stroke:#181818;stroke-width:0.5;" x1="696.5" x2="1141.5" y1="63.5" y2="63.5"/><rect fill="none" height="6" style="stroke:#C82930;stroke-width:1.0;" width="6" x="703.5" y="74.1484"/><text fill="#000000" font-family="sans-serif" font-size="14" lengthAdjust="spacing" textLength="179" x="715.5" y="80.4951">ArrayList&lt;Game&gt; games</text><line style="stroke:#181818;stroke-width:0.5;" x1="696.5" x2="1141.5" y1="87.7969" y2="87.7969"/><ellipse cx="706.5" cy="101.4453" fill="#84BE84" rx="3" ry="3" style="stroke:#038048;stroke-width:1.0;"/><text fill="#000000" font-family="sans-serif" font-size="14" lengthAdjust="spacing" textLength="421" x="715.5" y="104.792">createGame(String name, int nPlayers, String playerName)</text><ellipse cx="706.5" cy="117.7422" fill="#84BE84" rx="3" ry="3" style="stroke:#038048;stroke-width:1.0;"/><text fill="#000000" font-family="sans-serif" font-size="14" lengthAdjust="spacing" textLength="187" x="715.5" y="121.0889">deleteGame(String name)</text><ellipse cx="706.5" cy="134.0391" fill="#84BE84" rx="3" ry="3" style="stroke:#038048;stroke-width:1.0;"/><text fill="#000000" font-family="sans-serif" font-size="14" lengthAdjust="spacing" textLength="216" x="715.5" y="137.3857">ArrayList&lt;Game&gt; getGames()</text><ellipse cx="706.5" cy="150.3359" fill="#84BE84" rx="3" ry="3" style="stroke:#038048;stroke-width:1.0;"/><text fill="#000000" font-family="sans-serif" font-size="14" lengthAdjust="spacing" textLength="354" x="715.5" y="153.6826">Game joinGame(String name, String playerName)</text></g><!--class Game--><g id="elem_Game"><rect codeLine="10" fill="#F1F1F1" height="259.8594" id="Game" rx="2.5" ry="2.5" style="stroke:#181818;stroke-width:0.5;" width="239" x="799.5" y="245"/><ellipse cx="893.75" cy="261" fill="#ADD1B2" rx="11" ry="11" style="stroke:#181818;stroke-width:1.0;"/><path d="M896.0938,256.6719 C895.1563,256.2344 894.5625,256.0938 893.6875,256.0938 C891.0625,256.0938 889.0625,258.1719 889.0625,260.8906 L889.0625,262.0156 C889.0625,264.5938 891.1719,266.4844 894.0625,266.4844 C895.2813,266.4844 896.4375,266.1875 897.1875,265.6406 C897.7656,265.2344 898.0938,264.7813 898.0938,264.3906 C898.0938,263.9375 897.7031,263.5469 897.2344,263.5469 C897.0156,263.5469 896.8125,263.625 896.625,263.8125 C896.1719,264.2969 896.1719,264.2969 895.9844,264.3906 C895.5625,264.6563 894.875,264.7813 894.1094,264.7813 C892.0625,264.7813 890.7656,263.6875 890.7656,261.9844 L890.7656,260.8906 C890.7656,259.1094 892.0156,257.7969 893.75,257.7969 C894.3281,257.7969 894.9375,257.9531 895.4063,258.2031 C895.8906,258.4844 896.0625,258.7031 896.1563,259.1094 C896.2188,259.5156 896.25,259.6406 896.3906,259.7656 C896.5313,259.9063 896.7656,260.0156 896.9844,260.0156 C897.25,260.0156 897.5156,259.875 897.6875,259.6563 C897.7969,259.5 897.8281,259.3125 897.8281,258.8906 L897.8281,257.4688 C897.8281,257.0313 897.8125,256.9063 897.7188,256.75 C897.5625,256.4844 897.2813,256.3438 896.9844,256.3438 C896.6875,256.3438 896.4844,256.4375 896.2656,256.75 L896.0938,256.6719 Z " fill="#000000"/><text fill="#000000" font-family="sans-serif" font-size="14" lengthAdjust="spacing" textLength="42" x="914.25" y="265.8467">Game</text><line style="stroke:#181818;stroke-width:0.5;" x1="800.5" x2="1037.5" y1="277" y2="277"/><rect fill="none" height="6" style="stroke:#C82930;stroke-width:1.0;" width="6" x="807.5" y="287.6484"/><text fill="#000000" font-family="sans-serif" font-size="14" lengthAdjust="spacing" textLength="129" x="819.5" y="293.9951">String gameName</text><rect fill="none" height="6" style="stroke:#C82930;stroke-width:1.0;" width="6" x="807.5" y="303.9453"/><text fill="#000000" font-family="sans-serif" font-size="14" lengthAdjust="spacing" textLength="84" x="819.5" y="310.292">int nPlayers</text><rect fill="none" height="6" style="stroke:#C82930;stroke-width:1.0;" width="6" x="807.5" y="320.2422"/><text fill="#000000" font-family="sans-serif" font-size="14" lengthAdjust="spacing" textLength="186" x="819.5" y="326.5889">ArrayList&lt;Player&gt; players</text><rect fill="none" height="6" style="stroke:#C82930;stroke-width:1.0;" width="6" x="807.5" y="336.5391"/><text fill="#000000" font-family="sans-serif" font-size="14" lengthAdjust="spacing" textLength="178" x="819.5" y="342.8857">GlobalBoard globalBoard</text><rect fill="none" height="6" style="stroke:#C82930;stroke-width:1.0;" width="6" x="807.5" y="352.8359"/><text fill="#000000" font-family="sans-serif" font-size="14" lengthAdjust="spacing" textLength="145" x="819.5" y="359.1826">Player currentPlayer</text><line style="stroke:#181818;stroke-width:0.5;" x1="800.5" x2="1037.5" y1="366.4844" y2="366.4844"/><ellipse cx="810.5" cy="380.1328" fill="#84BE84" rx="3" ry="3" style="stroke:#038048;stroke-width:1.0;"/><text fill="#000000" font-family="sans-serif" font-size="14" lengthAdjust="spacing" textLength="85" x="819.5" y="383.4795">stopGame()</text><ellipse cx="810.5" cy="396.4297" fill="#84BE84" rx="3" ry="3" style="stroke:#038048;stroke-width:1.0;"/><text fill="#000000" font-family="sans-serif" font-size="14" lengthAdjust="spacing" textLength="173" x="819.5" y="399.7764">addPlayer(Player player)</text><ellipse cx="810.5" cy="412.7266" fill="#84BE84" rx="3" ry="3" style="stroke:#038048;stroke-width:1.0;"/><text fill="#000000" font-family="sans-serif" font-size="14" lengthAdjust="spacing" textLength="202" x="819.5" y="416.0732">removePlayer(Player player)</text><ellipse cx="810.5" cy="429.0234" fill="#84BE84" rx="3" ry="3" style="stroke:#038048;stroke-width:1.0;"/><text fill="#000000" font-family="sans-serif" font-size="14" lengthAdjust="spacing" textLength="86" x="819.5" y="432.3701">getPlayers()</text><ellipse cx="810.5" cy="445.3203" fill="#84BE84" rx="3" ry="3" style="stroke:#038048;stroke-width:1.0;"/><text fill="#000000" font-family="sans-serif" font-size="14" lengthAdjust="spacing" textLength="213" x="819.5" y="448.667">getPlayer(String playerName)</text><ellipse cx="810.5" cy="461.6172" fill="#84BE84" rx="3" ry="3" style="stroke:#038048;stroke-width:1.0;"/><text fill="#000000" font-family="sans-serif" font-size="14" lengthAdjust="spacing" textLength="113" x="819.5" y="464.9639">getNextPlayer()</text><ellipse cx="810.5" cy="477.9141" fill="#84BE84" rx="3" ry="3" style="stroke:#038048;stroke-width:1.0;"/><text fill="#000000" font-family="sans-serif" font-size="14" lengthAdjust="spacing" textLength="123" x="819.5" y="481.2607">getGlobalBoard()</text><ellipse cx="810.5" cy="494.2109" fill="#84BE84" rx="3" ry="3" style="stroke:#038048;stroke-width:1.0;"/><text fill="#000000" font-family="sans-serif" font-size="14" lengthAdjust="spacing" textLength="76" x="819.5" y="497.5576">isStarted()</text></g><!--class Player--><g id="elem_Player"><rect codeLine="51" fill="#F1F1F1" height="243.5625" id="Player" rx="2.5" ry="2.5" style="stroke:#181818;stroke-width:0.5;" width="265" x="601.5" y="901"/><ellipse cx="707.75" cy="917" fill="#ADD1B2" rx="11" ry="11" style="stroke:#181818;stroke-width:1.0;"/><path d="M710.0938,912.6719 C709.1563,912.2344 708.5625,912.0938 707.6875,912.0938 C705.0625,912.0938 703.0625,914.1719 703.0625,916.8906 L703.0625,918.0156 C703.0625,920.5938 705.1719,922.4844 708.0625,922.4844 C709.2813,922.4844 710.4375,922.1875 711.1875,921.6406 C711.7656,921.2344 712.0938,920.7813 712.0938,920.3906 C712.0938,919.9375 711.7031,919.5469 711.2344,919.5469 C711.0156,919.5469 710.8125,919.625 710.625,919.8125 C710.1719,920.2969 710.1719,920.2969 709.9844,920.3906 C709.5625,920.6563 708.875,920.7813 708.1094,920.7813 C706.0625,920.7813 704.7656,919.6875 704.7656,917.9844 L704.7656,916.8906 C704.7656,915.1094 706.0156,913.7969 707.75,913.7969 C708.3281,913.7969 708.9375,913.9531 709.4063,914.2031 C709.8906,914.4844 710.0625,914.7031 710.1563,915.1094 C710.2188,915.5156 710.25,915.6406 710.3906,915.7656 C710.5313,915.9063 710.7656,916.0156 710.9844,916.0156 C711.25,916.0156 711.5156,915.875 711.6875,915.6563 C711.7969,915.5 711.8281,915.3125 711.8281,914.8906 L711.8281,913.4688 C711.8281,913.0313 711.8125,912.9063 711.7188,912.75 C711.5625,912.4844 711.2813,912.3438 710.9844,912.3438 C710.6875,912.3438 710.4844,912.4375 710.2656,912.75 L710.0938,912.6719 Z " fill="#000000"/><text fill="#000000" font-family="sans-serif" font-size="14" lengthAdjust="spacing" textLength="44" x="728.25" y="921.8467">Player</text><line style="stroke:#181818;stroke-width:0.5;" x1="602.5" x2="865.5" y1="933" y2="933"/><rect fill="none" height="6" style="stroke:#C82930;stroke-width:1.0;" width="6" x="609.5" y="943.6484"/><text fill="#000000" font-family="sans-serif" font-size="14" lengthAdjust="spacing" textLength="134" x="621.5" y="949.9951">String playerName</text><rect fill="none" height="6" style="stroke:#C82930;stroke-width:1.0;" width="6" x="609.5" y="959.9453"/><text fill="#000000" font-family="sans-serif" font-size="14" lengthAdjust="spacing" textLength="94" x="621.5" y="966.292">int playerPos</text><rect fill="none" height="6" style="stroke:#C82930;stroke-width:1.0;" width="6" x="609.5" y="976.2422"/><text fill="#000000" font-family="sans-serif" font-size="14" lengthAdjust="spacing" textLength="177" x="621.5" y="982.5889">PlayerBoard playerBoard</text><rect fill="none" height="6" style="stroke:#C82930;stroke-width:1.0;" width="6" x="609.5" y="992.5391"/><text fill="#000000" font-family="sans-serif" font-size="14" lengthAdjust="spacing" textLength="208" x="621.5" y="998.8857">ObjectiveCard objectiveCard</text><rect fill="none" height="6" style="stroke:#C82930;stroke-width:1.0;" width="6" x="609.5" y="1008.8359"/><text fill="#000000" font-family="sans-serif" font-size="14" lengthAdjust="spacing" textLength="75" x="621.5" y="1015.1826">Hand hand</text><line style="stroke:#181818;stroke-width:0.5;" x1="602.5" x2="865.5" y1="1022.4844" y2="1022.4844"/><ellipse cx="612.5" cy="1036.1328" fill="#84BE84" rx="3" ry="3" style="stroke:#038048;stroke-width:1.0;"/><text fill="#000000" font-family="sans-serif" font-size="14" lengthAdjust="spacing" textLength="120" x="621.5" y="1039.4795">getPlayerName()</text><ellipse cx="612.5" cy="1052.4297" fill="#84BE84" rx="3" ry="3" style="stroke:#038048;stroke-width:1.0;"/><text fill="#000000" font-family="sans-serif" font-size="14" lengthAdjust="spacing" textLength="121" x="621.5" y="1055.7764">getPlayerBoard()</text><ellipse cx="612.5" cy="1068.7266" fill="#84BE84" rx="3" ry="3" style="stroke:#038048;stroke-width:1.0;"/><text fill="#000000" font-family="sans-serif" font-size="14" lengthAdjust="spacing" textLength="104" x="621.5" y="1072.0732">getPlayerPos()</text><ellipse cx="612.5" cy="1085.0234" fill="#84BE84" rx="3" ry="3" style="stroke:#038048;stroke-width:1.0;"/><text fill="#000000" font-family="sans-serif" font-size="14" lengthAdjust="spacing" textLength="115" x="621.5" y="1088.3701">getPlayerHand()</text><ellipse cx="612.5" cy="1101.3203" fill="#84BE84" rx="3" ry="3" style="stroke:#038048;stroke-width:1.0;"/><text fill="#000000" font-family="sans-serif" font-size="14" lengthAdjust="spacing" textLength="138" x="621.5" y="1104.667">getObjectiveCard()</text><ellipse cx="612.5" cy="1117.6172" fill="#84BE84" rx="3" ry="3" style="stroke:#038048;stroke-width:1.0;"/><text fill="#000000" font-family="sans-serif" font-size="14" lengthAdjust="spacing" textLength="239" x="621.5" y="1120.9639">setObjectiveCard(ObjectiveCard)</text><ellipse cx="612.5" cy="1133.9141" fill="#84BE84" rx="3" ry="3" style="stroke:#038048;stroke-width:1.0;"/><text fill="#000000" font-family="sans-serif" font-size="14" lengthAdjust="spacing" textLength="202" x="621.5" y="1137.2607">advancePlayerPos(int steps)</text></g><!--class GlobalBoard--><g id="elem_GlobalBoard"><rect codeLine="30" fill="#F1F1F1" height="276.1563" id="GlobalBoard" rx="2.5" ry="2.5" style="stroke:#181818;stroke-width:0.5;" width="261" x="911.5" y="565"/><ellipse cx="993.75" cy="581" fill="#ADD1B2" rx="11" ry="11" style="stroke:#181818;stroke-width:1.0;"/><path d="M996.0938,576.6719 C995.1563,576.2344 994.5625,576.0938 993.6875,576.0938 C991.0625,576.0938 989.0625,578.1719 989.0625,580.8906 L989.0625,582.0156 C989.0625,584.5938 991.1719,586.4844 994.0625,586.4844 C995.2813,586.4844 996.4375,586.1875 997.1875,585.6406 C997.7656,585.2344 998.0938,584.7813 998.0938,584.3906 C998.0938,583.9375 997.7031,583.5469 997.2344,583.5469 C997.0156,583.5469 996.8125,583.625 996.625,583.8125 C996.1719,584.2969 996.1719,584.2969 995.9844,584.3906 C995.5625,584.6563 994.875,584.7813 994.1094,584.7813 C992.0625,584.7813 990.7656,583.6875 990.7656,581.9844 L990.7656,580.8906 C990.7656,579.1094 992.0156,577.7969 993.75,577.7969 C994.3281,577.7969 994.9375,577.9531 995.4063,578.2031 C995.8906,578.4844 996.0625,578.7031 996.1563,579.1094 C996.2188,579.5156 996.25,579.6406 996.3906,579.7656 C996.5313,579.9063 996.7656,580.0156 996.9844,580.0156 C997.25,580.0156 997.5156,579.875 997.6875,579.6563 C997.7969,579.5 997.8281,579.3125 997.8281,578.8906 L997.8281,577.4688 C997.8281,577.0313 997.8125,576.9063 997.7188,576.75 C997.5625,576.4844 997.2813,576.3438 996.9844,576.3438 C996.6875,576.3438 996.4844,576.4375 996.2656,576.75 L996.0938,576.6719 Z " fill="#000000"/><text fill="#000000" font-family="sans-serif" font-size="14" lengthAdjust="spacing" textLength="88" x="1014.25" y="585.8467">GlobalBoard</text><line style="stroke:#181818;stroke-width:0.5;" x1="912.5" x2="1171.5" y1="597" y2="597"/><rect fill="none" height="6" style="stroke:#C82930;stroke-width:1.0;" width="6" x="919.5" y="607.6484"/><text fill="#000000" font-family="sans-serif" font-size="14" lengthAdjust="spacing" textLength="109" x="931.5" y="613.9951">Deck goldDeck</text><rect fill="none" height="6" style="stroke:#C82930;stroke-width:1.0;" width="6" x="919.5" y="623.9453"/><text fill="#000000" font-family="sans-serif" font-size="14" lengthAdjust="spacing" textLength="140" x="931.5" y="630.292">Deck resourceDeck</text><rect fill="none" height="6" style="stroke:#C82930;stroke-width:1.0;" width="6" x="919.5" y="640.2422"/><text fill="#000000" font-family="sans-serif" font-size="14" lengthAdjust="spacing" textLength="146" x="931.5" y="646.5889">Deck objectiveDeck</text><rect fill="none" height="6" style="stroke:#C82930;stroke-width:1.0;" width="6" x="919.5" y="656.5391"/><text fill="#000000" font-family="sans-serif" font-size="14" lengthAdjust="spacing" textLength="128" x="931.5" y="662.8857">Deck starterDeck</text><rect fill="none" height="6" style="stroke:#C82930;stroke-width:1.0;" width="6" x="919.5" y="672.8359"/><text fill="#000000" font-family="sans-serif" font-size="14" lengthAdjust="spacing" textLength="200" x="931.5" y="679.1826">ObjectiveCard[2] objectives</text><rect fill="none" height="6" style="stroke:#C82930;stroke-width:1.0;" width="6" x="919.5" y="689.1328"/><text fill="#000000" font-family="sans-serif" font-size="14" lengthAdjust="spacing" textLength="202" x="931.5" y="695.4795">GameCard[2] fieldGoldCards</text><rect fill="none" height="6" style="stroke:#C82930;stroke-width:1.0;" width="6" x="919.5" y="705.4297"/><text fill="#000000" font-family="sans-serif" font-size="14" lengthAdjust="spacing" textLength="235" x="931.5" y="711.7764">GameCard[2] fieldResourceCards</text><line style="stroke:#181818;stroke-width:0.5;" x1="912.5" x2="1171.5" y1="719.0781" y2="719.0781"/><ellipse cx="922.5" cy="732.7266" fill="#84BE84" rx="3" ry="3" style="stroke:#038048;stroke-width:1.0;"/><text fill="#000000" font-family="sans-serif" font-size="14" lengthAdjust="spacing" textLength="105" x="931.5" y="736.0732">getGoldDeck()</text><ellipse cx="922.5" cy="749.0234" fill="#84BE84" rx="3" ry="3" style="stroke:#038048;stroke-width:1.0;"/><text fill="#000000" font-family="sans-serif" font-size="14" lengthAdjust="spacing" textLength="138" x="931.5" y="752.3701">getResourceDeck()</text><ellipse cx="922.5" cy="765.3203" fill="#84BE84" rx="3" ry="3" style="stroke:#038048;stroke-width:1.0;"/><text fill="#000000" font-family="sans-serif" font-size="14" lengthAdjust="spacing" textLength="142" x="931.5" y="768.667">getObjectiveDeck()</text><ellipse cx="922.5" cy="781.6172" fill="#84BE84" rx="3" ry="3" style="stroke:#038048;stroke-width:1.0;"/><text fill="#000000" font-family="sans-serif" font-size="14" lengthAdjust="spacing" textLength="112" x="931.5" y="784.9639">getObjectives()</text><ellipse cx="922.5" cy="797.9141" fill="#84BE84" rx="3" ry="3" style="stroke:#038048;stroke-width:1.0;"/><text fill="#000000" font-family="sans-serif" font-size="14" lengthAdjust="spacing" textLength="142" x="931.5" y="801.2607">getFieldGoldCards()</text><ellipse cx="922.5" cy="814.2109" fill="#84BE84" rx="3" ry="3" style="stroke:#038048;stroke-width:1.0;"/><text fill="#000000" font-family="sans-serif" font-size="14" lengthAdjust="spacing" textLength="175" x="931.5" y="817.5576">getFieldResourceCards()</text><ellipse cx="922.5" cy="830.5078" fill="#84BE84" rx="3" ry="3" style="stroke:#038048;stroke-width:1.0;"/><text fill="#000000" font-family="sans-serif" font-size="14" lengthAdjust="spacing" textLength="223" x="931.5" y="833.8545">drawCardFromField(GameCard)</text></g><!--class Deck--><g id="elem_Deck"><rect codeLine="70" fill="#F1F1F1" height="80.5938" id="Deck" rx="2.5" ry="2.5" style="stroke:#181818;stroke-width:0.5;" width="187" x="948.5" y="982.5"/><ellipse cx="1019.25" cy="998.5" fill="#ADD1B2" rx="11" ry="11" style="stroke:#181818;stroke-width:1.0;"/><path d="M1021.5938,994.1719 C1020.6563,993.7344 1020.0625,993.5938 1019.1875,993.5938 C1016.5625,993.5938 1014.5625,995.6719 1014.5625,998.3906 L1014.5625,999.5156 C1014.5625,1002.0938 1016.6719,1003.9844 1019.5625,1003.9844 C1020.7813,1003.9844 1021.9375,1003.6875 1022.6875,1003.1406 C1023.2656,1002.7344 1023.5938,1002.2813 1023.5938,1001.8906 C1023.5938,1001.4375 1023.2031,1001.0469 1022.7344,1001.0469 C1022.5156,1001.0469 1022.3125,1001.125 1022.125,1001.3125 C1021.6719,1001.7969 1021.6719,1001.7969 1021.4844,1001.8906 C1021.0625,1002.1563 1020.375,1002.2813 1019.6094,1002.2813 C1017.5625,1002.2813 1016.2656,1001.1875 1016.2656,999.4844 L1016.2656,998.3906 C1016.2656,996.6094 1017.5156,995.2969 1019.25,995.2969 C1019.8281,995.2969 1020.4375,995.4531 1020.9063,995.7031 C1021.3906,995.9844 1021.5625,996.2031 1021.6563,996.6094 C1021.7188,997.0156 1021.75,997.1406 1021.8906,997.2656 C1022.0313,997.4063 1022.2656,997.5156 1022.4844,997.5156 C1022.75,997.5156 1023.0156,997.375 1023.1875,997.1563 C1023.2969,997 1023.3281,996.8125 1023.3281,996.3906 L1023.3281,994.9688 C1023.3281,994.5313 1023.3125,994.4063 1023.2188,994.25 C1023.0625,993.9844 1022.7813,993.8438 1022.4844,993.8438 C1022.1875,993.8438 1021.9844,993.9375 1021.7656,994.25 L1021.5938,994.1719 Z " fill="#000000"/><text fill="#000000" font-family="sans-serif" font-size="14" lengthAdjust="spacing" textLength="37" x="1039.75" y="1003.3467">Deck</text><line style="stroke:#181818;stroke-width:0.5;" x1="949.5" x2="1134.5" y1="1014.5" y2="1014.5"/><rect fill="none" height="6" style="stroke:#C82930;stroke-width:1.0;" width="6" x="956.5" y="1025.1484"/><text fill="#000000" font-family="sans-serif" font-size="14" lengthAdjust="spacing" textLength="161" x="968.5" y="1031.4951">ArrayList&lt;Card&gt; cards</text><line style="stroke:#181818;stroke-width:0.5;" x1="949.5" x2="1134.5" y1="1038.7969" y2="1038.7969"/><ellipse cx="959.5" cy="1052.4453" fill="#84BE84" rx="3" ry="3" style="stroke:#038048;stroke-width:1.0;"/><text fill="#000000" font-family="sans-serif" font-size="14" lengthAdjust="spacing" textLength="77" x="968.5" y="1055.792">drawCard()</text></g><!--class PlayerBoard--><g id="elem_PlayerBoard"><rect codeLine="85" fill="#F1F1F1" height="178.375" id="PlayerBoard" rx="2.5" ry="2.5" style="stroke:#181818;stroke-width:0.5;" width="395" x="101.5" y="1205"/><ellipse cx="251.75" cy="1221" fill="#ADD1B2" rx="11" ry="11" style="stroke:#181818;stroke-width:1.0;"/><path d="M254.0938,1216.6719 C253.1563,1216.2344 252.5625,1216.0938 251.6875,1216.0938 C249.0625,1216.0938 247.0625,1218.1719 247.0625,1220.8906 L247.0625,1222.0156 C247.0625,1224.5938 249.1719,1226.4844 252.0625,1226.4844 C253.2813,1226.4844 254.4375,1226.1875 255.1875,1225.6406 C255.7656,1225.2344 256.0938,1224.7813 256.0938,1224.3906 C256.0938,1223.9375 255.7031,1223.5469 255.2344,1223.5469 C255.0156,1223.5469 254.8125,1223.625 254.625,1223.8125 C254.1719,1224.2969 254.1719,1224.2969 253.9844,1224.3906 C253.5625,1224.6563 252.875,1224.7813 252.1094,1224.7813 C250.0625,1224.7813 248.7656,1223.6875 248.7656,1221.9844 L248.7656,1220.8906 C248.7656,1219.1094 250.0156,1217.7969 251.75,1217.7969 C252.3281,1217.7969 252.9375,1217.9531 253.4063,1218.2031 C253.8906,1218.4844 254.0625,1218.7031 254.1563,1219.1094 C254.2188,1219.5156 254.25,1219.6406 254.3906,1219.7656 C254.5313,1219.9063 254.7656,1220.0156 254.9844,1220.0156 C255.25,1220.0156 255.5156,1219.875 255.6875,1219.6563 C255.7969,1219.5 255.8281,1219.3125 255.8281,1218.8906 L255.8281,1217.4688 C255.8281,1217.0313 255.8125,1216.9063 255.7188,1216.75 C255.5625,1216.4844 255.2813,1216.3438 254.9844,1216.3438 C254.6875,1216.3438 254.4844,1216.4375 254.2656,1216.75 L254.0938,1216.6719 Z " fill="#000000"/><text fill="#000000" font-family="sans-serif" font-size="14" lengthAdjust="spacing" textLength="86" x="272.25" y="1225.8467">PlayerBoard</text><line style="stroke:#181818;stroke-width:0.5;" x1="102.5" x2="495.5" y1="1237" y2="1237"/><rect fill="none" height="6" style="stroke:#C82930;stroke-width:1.0;" width="6" x="109.5" y="1247.6484"/><text fill="#000000" font-family="sans-serif" font-size="14" lengthAdjust="spacing" textLength="298" x="121.5" y="1253.9951">HashMap&lt;Point, GameCard&gt; playerBoard</text><rect fill="none" height="6" style="stroke:#C82930;stroke-width:1.0;" width="6" x="109.5" y="1263.9453"/><text fill="#000000" font-family="sans-serif" font-size="14" lengthAdjust="spacing" textLength="201" x="121.5" y="1270.292">GameItemStore gameItems</text><line style="stroke:#181818;stroke-width:0.5;" x1="102.5" x2="495.5" y1="1277.5938" y2="1277.5938"/><ellipse cx="112.5" cy="1291.2422" fill="#84BE84" rx="3" ry="3" style="stroke:#038048;stroke-width:1.0;"/><text fill="#000000" font-family="sans-serif" font-size="14" lengthAdjust="spacing" textLength="311" x="121.5" y="1294.5889">Optional&lt;GameCard&gt; getGameCard(Point)</text><ellipse cx="112.5" cy="1307.5391" fill="#84BE84" rx="3" ry="3" style="stroke:#038048;stroke-width:1.0;"/><text fill="#000000" font-family="sans-serif" font-size="14" lengthAdjust="spacing" textLength="369" x="121.5" y="1310.8857">Optional&lt;Point&gt; getGameCardPosition(GameCard)</text><ellipse cx="112.5" cy="1323.8359" fill="#84BE84" rx="3" ry="3" style="stroke:#038048;stroke-width:1.0;"/><text fill="#000000" font-family="sans-serif" font-size="14" lengthAdjust="spacing" textLength="282" x="121.5" y="1327.1826">ArrayList&lt;GameCard&gt; getGameCards()</text><ellipse cx="112.5" cy="1340.1328" fill="#84BE84" rx="3" ry="3" style="stroke:#038048;stroke-width:1.0;"/><text fill="#000000" font-family="sans-serif" font-size="14" lengthAdjust="spacing" textLength="301" x="121.5" y="1343.4795">Integer getGameItemAmount(GameItem)</text><ellipse cx="112.5" cy="1356.4297" fill="#84BE84" rx="3" ry="3" style="stroke:#038048;stroke-width:1.0;"/><text fill="#000000" font-family="sans-serif" font-size="14" lengthAdjust="spacing" textLength="263" x="121.5" y="1359.7764">void setGameCard(Point, GameCard)</text><ellipse cx="112.5" cy="1372.7266" fill="#84BE84" rx="3" ry="3" style="stroke:#038048;stroke-width:1.0;"/><text fill="#000000" font-family="sans-serif" font-size="14" lengthAdjust="spacing" textLength="273" x="121.5" y="1376.0732">boolean isPlaceable(Point, GameCard)</text></g><!--class Hand--><g id="elem_Hand"><rect codeLine="76" fill="#F1F1F1" height="113.1875" id="Hand" rx="2.5" ry="2.5" style="stroke:#181818;stroke-width:0.5;" width="308" x="532" y="1237.5"/><ellipse cx="663.75" cy="1253.5" fill="#ADD1B2" rx="11" ry="11" style="stroke:#181818;stroke-width:1.0;"/><path d="M666.0938,1249.1719 C665.1563,1248.7344 664.5625,1248.5938 663.6875,1248.5938 C661.0625,1248.5938 659.0625,1250.6719 659.0625,1253.3906 L659.0625,1254.5156 C659.0625,1257.0938 661.1719,1258.9844 664.0625,1258.9844 C665.2813,1258.9844 666.4375,1258.6875 667.1875,1258.1406 C667.7656,1257.7344 668.0938,1257.2813 668.0938,1256.8906 C668.0938,1256.4375 667.7031,1256.0469 667.2344,1256.0469 C667.0156,1256.0469 666.8125,1256.125 666.625,1256.3125 C666.1719,1256.7969 666.1719,1256.7969 665.9844,1256.8906 C665.5625,1257.1563 664.875,1257.2813 664.1094,1257.2813 C662.0625,1257.2813 660.7656,1256.1875 660.7656,1254.4844 L660.7656,1253.3906 C660.7656,1251.6094 662.0156,1250.2969 663.75,1250.2969 C664.3281,1250.2969 664.9375,1250.4531 665.4063,1250.7031 C665.8906,1250.9844 666.0625,1251.2031 666.1563,1251.6094 C666.2188,1252.0156 666.25,1252.1406 666.3906,1252.2656 C666.5313,1252.4063 666.7656,1252.5156 666.9844,1252.5156 C667.25,1252.5156 667.5156,1252.375 667.6875,1252.1563 C667.7969,1252 667.8281,1251.8125 667.8281,1251.3906 L667.8281,1249.9688 C667.8281,1249.5313 667.8125,1249.4063 667.7188,1249.25 C667.5625,1248.9844 667.2813,1248.8438 666.9844,1248.8438 C666.6875,1248.8438 666.4844,1248.9375 666.2656,1249.25 L666.0938,1249.1719 Z " fill="#000000"/><text fill="#000000" font-family="sans-serif" font-size="14" lengthAdjust="spacing" textLength="36" x="684.25" y="1258.3467">Hand</text><line style="stroke:#181818;stroke-width:0.5;" x1="533" x2="839" y1="1269.5" y2="1269.5"/><rect fill="none" height="6" style="stroke:#C82930;stroke-width:1.0;" width="6" x="540" y="1280.1484"/><text fill="#000000" font-family="sans-serif" font-size="14" lengthAdjust="spacing" textLength="200" x="552" y="1286.4951">ArrayList&lt;GameCard&gt; hand</text><line style="stroke:#181818;stroke-width:0.5;" x1="533" x2="839" y1="1293.7969" y2="1293.7969"/><ellipse cx="543" cy="1307.4453" fill="#84BE84" rx="3" ry="3" style="stroke:#038048;stroke-width:1.0;"/><text fill="#000000" font-family="sans-serif" font-size="14" lengthAdjust="spacing" textLength="282" x="552" y="1310.792">ArrayList&lt;GameCard&gt; getGameCards()</text><ellipse cx="543" cy="1323.7422" fill="#84BE84" rx="3" ry="3" style="stroke:#038048;stroke-width:1.0;"/><text fill="#000000" font-family="sans-serif" font-size="14" lengthAdjust="spacing" textLength="178" x="552" y="1327.0889">void addCard(GameCard)</text><ellipse cx="543" cy="1340.0391" fill="#84BE84" rx="3" ry="3" style="stroke:#038048;stroke-width:1.0;"/><text fill="#000000" font-family="sans-serif" font-size="14" lengthAdjust="spacing" textLength="207" x="552" y="1343.3857">void removeCard(GameCard)</text></g><!--class GameCard--><g id="elem_GameCard"><rect codeLine="121" fill="#F1F1F1" height="227.2656" id="GameCard" rx="2.5" ry="2.5" style="stroke:#181818;stroke-width:0.5;" width="421" x="462.5" y="1443"/><ellipse cx="631.25" cy="1459" fill="#ADD1B2" rx="11" ry="11" style="stroke:#181818;stroke-width:1.0;"/><path d="M633.5938,1454.6719 C632.6563,1454.2344 632.0625,1454.0938 631.1875,1454.0938 C628.5625,1454.0938 626.5625,1456.1719 626.5625,1458.8906 L626.5625,1460.0156 C626.5625,1462.5938 628.6719,1464.4844 631.5625,1464.4844 C632.7813,1464.4844 633.9375,1464.1875 634.6875,1463.6406 C635.2656,1463.2344 635.5938,1462.7813 635.5938,1462.3906 C635.5938,1461.9375 635.2031,1461.5469 634.7344,1461.5469 C634.5156,1461.5469 634.3125,1461.625 634.125,1461.8125 C633.6719,1462.2969 633.6719,1462.2969 633.4844,1462.3906 C633.0625,1462.6563 632.375,1462.7813 631.6094,1462.7813 C629.5625,1462.7813 628.2656,1461.6875 628.2656,1459.9844 L628.2656,1458.8906 C628.2656,1457.1094 629.5156,1455.7969 631.25,1455.7969 C631.8281,1455.7969 632.4375,1455.9531 632.9063,1456.2031 C633.3906,1456.4844 633.5625,1456.7031 633.6563,1457.1094 C633.7188,1457.5156 633.75,1457.6406 633.8906,1457.7656 C634.0313,1457.9063 634.2656,1458.0156 634.4844,1458.0156 C634.75,1458.0156 635.0156,1457.875 635.1875,1457.6563 C635.2969,1457.5 635.3281,1457.3125 635.3281,1456.8906 L635.3281,1455.4688 C635.3281,1455.0313 635.3125,1454.9063 635.2188,1454.75 C635.0625,1454.4844 634.7813,1454.3438 634.4844,1454.3438 C634.1875,1454.3438 633.9844,1454.4375 633.7656,1454.75 L633.5938,1454.6719 Z " fill="#000000"/><text fill="#000000" font-family="sans-serif" font-size="14" lengthAdjust="spacing" textLength="75" x="651.75" y="1463.8467">GameCard</text><line style="stroke:#181818;stroke-width:0.5;" x1="463.5" x2="882.5" y1="1475" y2="1475"/><rect fill="none" height="6" style="stroke:#C82930;stroke-width:1.0;" width="6" x="470.5" y="1485.6484"/><text fill="#000000" font-family="sans-serif" font-size="14" lengthAdjust="spacing" textLength="119" x="482.5" y="1491.9951">Side currentSide</text><rect fill="none" height="6" style="stroke:#C82930;stroke-width:1.0;" width="6" x="470.5" y="1501.9453"/><text fill="#000000" font-family="sans-serif" font-size="14" lengthAdjust="spacing" textLength="106" x="482.5" y="1508.292">Side otherSide</text><rect fill="none" height="6" style="stroke:#C82930;stroke-width:1.0;" width="6" x="470.5" y="1518.2422"/><text fill="#000000" font-family="sans-serif" font-size="14" lengthAdjust="spacing" textLength="144" x="482.5" y="1524.5889">CardColor cardColor</text><line style="stroke:#181818;stroke-width:0.5;" x1="463.5" x2="882.5" y1="1531.8906" y2="1531.8906"/><ellipse cx="473.5" cy="1545.5391" fill="#84BE84" rx="3" ry="3" style="stroke:#038048;stroke-width:1.0;"/><text fill="#000000" font-family="sans-serif" font-size="14" lengthAdjust="spacing" textLength="156" x="482.5" y="1548.8857">Side getCurrentSide()</text><ellipse cx="473.5" cy="1561.8359" fill="#84BE84" rx="3" ry="3" style="stroke:#038048;stroke-width:1.0;"/><text fill="#000000" font-family="sans-serif" font-size="14" lengthAdjust="spacing" textLength="121" x="482.5" y="1565.1826">void switchSide()</text><ellipse cx="473.5" cy="1578.1328" fill="#84BE84" rx="3" ry="3" style="stroke:#038048;stroke-width:1.0;"/><text fill="#000000" font-family="sans-serif" font-size="14" lengthAdjust="spacing" textLength="148" x="482.5" y="1581.4795">CardColor getColor()</text><ellipse cx="473.5" cy="1594.4297" fill="#84BE84" rx="3" ry="3" style="stroke:#038048;stroke-width:1.0;"/><text fill="#000000" font-family="sans-serif" font-size="14" lengthAdjust="spacing" textLength="328" x="482.5" y="1597.7764">Optional&lt;Corner&gt; getCorner(CornerPosition)</text><ellipse cx="473.5" cy="1610.7266" fill="#84BE84" rx="3" ry="3" style="stroke:#038048;stroke-width:1.0;"/><text fill="#000000" font-family="sans-serif" font-size="14" lengthAdjust="spacing" textLength="395" x="482.5" y="1614.0732">GameItem setCornerCovered(CornerPosition, boolean)</text><ellipse cx="473.5" cy="1627.0234" fill="#84BE84" rx="3" ry="3" style="stroke:#038048;stroke-width:1.0;"/><text fill="#000000" font-family="sans-serif" font-size="14" lengthAdjust="spacing" textLength="271" x="482.5" y="1630.3701">GameItemStore getGameItemStore()</text><ellipse cx="473.5" cy="1643.3203" fill="#84BE84" rx="3" ry="3" style="stroke:#038048;stroke-width:1.0;"/><text fill="#000000" font-family="sans-serif" font-size="14" lengthAdjust="spacing" textLength="223" x="482.5" y="1646.667">Integer getPoints(PlayerBoard)</text><ellipse cx="473.5" cy="1659.6172" fill="#84BE84" rx="3" ry="3" style="stroke:#038048;stroke-width:1.0;"/><text fill="#000000" font-family="sans-serif" font-size="14" lengthAdjust="spacing" textLength="284" x="482.5" y="1662.9639">GameItemStore getNeededItemStore()</text></g><!--class Store--><g id="elem_Store"><rect codeLine="98" fill="#F1F1F1" height="145.7813" id="Store" rx="2.5" ry="2.5" style="stroke:#181818;stroke-width:0.5;" width="224" x="172" y="1483.5"/><ellipse cx="254.25" cy="1499.5" fill="#ADD1B2" rx="11" ry="11" style="stroke:#181818;stroke-width:1.0;"/><path d="M256.5938,1495.1719 C255.6563,1494.7344 255.0625,1494.5938 254.1875,1494.5938 C251.5625,1494.5938 249.5625,1496.6719 249.5625,1499.3906 L249.5625,1500.5156 C249.5625,1503.0938 251.6719,1504.9844 254.5625,1504.9844 C255.7813,1504.9844 256.9375,1504.6875 257.6875,1504.1406 C258.2656,1503.7344 258.5938,1503.2813 258.5938,1502.8906 C258.5938,1502.4375 258.2031,1502.0469 257.7344,1502.0469 C257.5156,1502.0469 257.3125,1502.125 257.125,1502.3125 C256.6719,1502.7969 256.6719,1502.7969 256.4844,1502.8906 C256.0625,1503.1563 255.375,1503.2813 254.6094,1503.2813 C252.5625,1503.2813 251.2656,1502.1875 251.2656,1500.4844 L251.2656,1499.3906 C251.2656,1497.6094 252.5156,1496.2969 254.25,1496.2969 C254.8281,1496.2969 255.4375,1496.4531 255.9063,1496.7031 C256.3906,1496.9844 256.5625,1497.2031 256.6563,1497.6094 C256.7188,1498.0156 256.75,1498.1406 256.8906,1498.2656 C257.0313,1498.4063 257.2656,1498.5156 257.4844,1498.5156 C257.75,1498.5156 258.0156,1498.375 258.1875,1498.1563 C258.2969,1498 258.3281,1497.8125 258.3281,1497.3906 L258.3281,1495.9688 C258.3281,1495.5313 258.3125,1495.4063 258.2188,1495.25 C258.0625,1494.9844 257.7813,1494.8438 257.4844,1494.8438 C257.1875,1494.8438 256.9844,1494.9375 256.7656,1495.25 L256.5938,1495.1719 Z " fill="#000000"/><text fill="#000000" font-family="sans-serif" font-size="14" lengthAdjust="spacing" textLength="40" x="274.75" y="1504.3467">Store</text><rect fill="#FFFFFF" height="15.9688" style="stroke:#181818;stroke-width:1.0;stroke-dasharray:2.0,2.0;" width="9" x="390" y="1480.5"/><text fill="#000000" font-family="sans-serif" font-size="12" font-style="italic" lengthAdjust="spacing" textLength="7" x="391" y="1492.6387">T</text><line style="stroke:#181818;stroke-width:0.5;" x1="173" x2="395" y1="1515.5" y2="1515.5"/><polygon fill="none" points="183,1524.1484,187,1528.1484,183,1532.1484,179,1528.1484" style="stroke:#B38D22;stroke-width:1.0;"/><text fill="#000000" font-family="sans-serif" font-size="14" lengthAdjust="spacing" textLength="198" x="192" y="1532.4951">HashMap&lt;T, Integer&gt; store</text><line style="stroke:#181818;stroke-width:0.5;" x1="173" x2="395" y1="1539.7969" y2="1539.7969"/><ellipse cx="183" cy="1553.4453" fill="#84BE84" rx="3" ry="3" style="stroke:#038048;stroke-width:1.0;"/><text fill="#000000" font-family="sans-serif" font-size="14" lengthAdjust="spacing" textLength="55" x="192" y="1556.792">get(T t)</text><ellipse cx="183" cy="1569.7422" fill="#84BE84" rx="3" ry="3" style="stroke:#038048;stroke-width:1.0;"/><text fill="#000000" font-family="sans-serif" font-size="14" lengthAdjust="spacing" textLength="114" x="192" y="1573.0889">set(T t, Integer)</text><ellipse cx="183" cy="1586.0391" fill="#84BE84" rx="3" ry="3" style="stroke:#038048;stroke-width:1.0;"/><text fill="#000000" font-family="sans-serif" font-size="14" lengthAdjust="spacing" textLength="117" x="192" y="1589.3857">add(T t, Integer)</text><ellipse cx="183" cy="1602.3359" fill="#84BE84" rx="3" ry="3" style="stroke:#038048;stroke-width:1.0;"/><text fill="#000000" font-family="sans-serif" font-size="14" lengthAdjust="spacing" textLength="146" x="192" y="1605.6826">remove(T t, Integer)</text><ellipse cx="183" cy="1618.6328" fill="#84BE84" rx="3" ry="3" style="stroke:#038048;stroke-width:1.0;"/><text fill="#000000" font-family="sans-serif" font-size="14" lengthAdjust="spacing" textLength="145" x="192" y="1621.9795">getNonEmptyKeys()</text></g><!--class GameItemStore--><g id="elem_GameItemStore"><rect codeLine="107" fill="#F1F1F1" height="80.5938" id="GameItemStore" rx="2.5" ry="2.5" style="stroke:#181818;stroke-width:0.5;" width="460" x="7" y="1787"/><ellipse cx="174.75" cy="1803" fill="#ADD1B2" rx="11" ry="11" style="stroke:#181818;stroke-width:1.0;"/><path d="M177.0938,1798.6719 C176.1563,1798.2344 175.5625,1798.0938 174.6875,1798.0938 C172.0625,1798.0938 170.0625,1800.1719 170.0625,1802.8906 L170.0625,1804.0156 C170.0625,1806.5938 172.1719,1808.4844 175.0625,1808.4844 C176.2813,1808.4844 177.4375,1808.1875 178.1875,1807.6406 C178.7656,1807.2344 179.0938,1806.7813 179.0938,1806.3906 C179.0938,1805.9375 178.7031,1805.5469 178.2344,1805.5469 C178.0156,1805.5469 177.8125,1805.625 177.625,1805.8125 C177.1719,1806.2969 177.1719,1806.2969 176.9844,1806.3906 C176.5625,1806.6563 175.875,1806.7813 175.1094,1806.7813 C173.0625,1806.7813 171.7656,1805.6875 171.7656,1803.9844 L171.7656,1802.8906 C171.7656,1801.1094 173.0156,1799.7969 174.75,1799.7969 C175.3281,1799.7969 175.9375,1799.9531 176.4063,1800.2031 C176.8906,1800.4844 177.0625,1800.7031 177.1563,1801.1094 C177.2188,1801.5156 177.25,1801.6406 177.3906,1801.7656 C177.5313,1801.9063 177.7656,1802.0156 177.9844,1802.0156 C178.25,1802.0156 178.5156,1801.875 178.6875,1801.6563 C178.7969,1801.5 178.8281,1801.3125 178.8281,1800.8906 L178.8281,1799.4688 C178.8281,1799.0313 178.8125,1798.9063 178.7188,1798.75 C178.5625,1798.4844 178.2813,1798.3438 177.9844,1798.3438 C177.6875,1798.3438 177.4844,1798.4375 177.2656,1798.75 L177.0938,1798.6719 Z " fill="#000000"/><text fill="#000000" font-family="sans-serif" font-size="14" lengthAdjust="spacing" textLength="116" x="195.25" y="1807.8467">GameItemStore</text><line style="stroke:#181818;stroke-width:0.5;" x1="8" x2="466" y1="1819" y2="1819"/><line style="stroke:#181818;stroke-width:0.5;" x1="8" x2="466" y1="1827" y2="1827"/><ellipse cx="18" cy="1840.6484" fill="#84BE84" rx="3" ry="3" style="stroke:#038048;stroke-width:1.0;"/><text fill="#000000" font-family="sans-serif" font-size="14" lengthAdjust="spacing" textLength="126" x="27" y="1843.9951">GameItemStore()</text><ellipse cx="18" cy="1856.9453" fill="#84BE84" rx="3" ry="3" style="stroke:#038048;stroke-width:1.0;"/><text fill="#000000" font-family="sans-serif" font-size="14" lengthAdjust="spacing" textLength="434" x="27" y="1860.292">GameItemStore(HashMap&lt;GameItem, Integer&gt; gameItems)</text></g><!--class Card--><g id="elem_Card"><rect codeLine="115" fill="#F1F1F1" height="64.2969" id="Card" rx="2.5" ry="2.5" style="stroke:#181818;stroke-width:0.5;" width="192" x="946" y="1262"/><ellipse cx="1020.75" cy="1278" fill="#B4A7E5" rx="11" ry="11" style="stroke:#181818;stroke-width:1.0;"/><path d="M1021.7031,1274.7813 L1023.4219,1274.7813 C1023.8125,1274.7813 1024,1274.75 1024.125,1274.6719 C1024.3906,1274.5156 1024.5313,1274.2344 1024.5313,1273.9375 C1024.5313,1273.6719 1024.4219,1273.4063 1024.1875,1273.2344 C1024.0156,1273.125 1023.875,1273.0938 1023.4219,1273.0938 L1018.2813,1273.0938 C1017.8438,1273.0938 1017.7188,1273.1094 1017.5625,1273.2031 C1017.3125,1273.3594 1017.1563,1273.6563 1017.1563,1273.9375 C1017.1563,1274.2188 1017.2969,1274.4688 1017.5156,1274.6406 C1017.6719,1274.75 1017.8594,1274.7813 1018.2813,1274.7813 L1020,1274.7813 L1020,1281.2969 L1018.2813,1281.2969 C1017.8438,1281.2969 1017.7188,1281.3125 1017.5625,1281.4219 C1017.3125,1281.5781 1017.1563,1281.8594 1017.1563,1282.1563 C1017.1563,1282.4063 1017.2969,1282.6719 1017.5156,1282.8281 C1017.6719,1282.9531 1017.875,1283 1018.2813,1283 L1023.4219,1283 C1024.1719,1283 1024.5313,1282.7188 1024.5313,1282.1563 C1024.5313,1281.875 1024.4219,1281.625 1024.1875,1281.4531 C1024.0156,1281.3281 1023.875,1281.2969 1023.4219,1281.2969 L1021.7031,1281.2969 L1021.7031,1274.7813 Z " fill="#000000"/><text fill="#000000" font-family="sans-serif" font-size="14" font-style="italic" lengthAdjust="spacing" textLength="34" x="1041.25" y="1282.8467">Card</text><line style="stroke:#181818;stroke-width:0.5;" x1="947" x2="1137" y1="1294" y2="1294"/><line style="stroke:#181818;stroke-width:0.5;" x1="947" x2="1137" y1="1302" y2="1302"/><ellipse cx="957" cy="1315.6484" fill="#84BE84" rx="3" ry="3" style="stroke:#038048;stroke-width:1.0;"/><text fill="#000000" font-family="sans-serif" font-size="14" lengthAdjust="spacing" textLength="166" x="966" y="1318.9951">getPoints(PlayerBoard)</text></g><!--class ObjectiveCard--><g id="elem_ObjectiveCard"><rect codeLine="207" fill="#F1F1F1" height="80.5938" id="ObjectiveCard" rx="2.5" ry="2.5" style="stroke:#181818;stroke-width:0.5;" width="192" x="976" y="1516"/><ellipse cx="1017.55" cy="1532" fill="#A9DCDF" rx="11" ry="11" style="stroke:#181818;stroke-width:1.0;"/><path d="M1019.6281,1533.8125 L1020.0188,1534.7969 L1019.6281,1534.7969 C1019.175,1534.7969 1019.0656,1534.8125 1018.9094,1534.9219 C1018.6594,1535.0781 1018.5031,1535.3594 1018.5031,1535.6563 C1018.5031,1535.9219 1018.6438,1536.1719 1018.8625,1536.3281 C1019.0031,1536.4531 1019.2063,1536.5 1019.6281,1536.5 L1021.9875,1536.5 C1022.3469,1536.5 1022.5656,1536.4688 1022.7063,1536.375 C1022.9563,1536.2344 1023.1125,1535.9375 1023.1125,1535.6563 C1023.1125,1535.375 1022.9719,1535.125 1022.7531,1534.9688 C1022.5813,1534.8281 1022.425,1534.7969 1021.9563,1534.7969 L1018.5656,1526.5938 L1014.8938,1526.5938 C1014.4406,1526.5938 1014.3156,1526.6094 1014.1594,1526.7031 C1013.9094,1526.875 1013.7531,1527.1563 1013.7531,1527.4375 C1013.7531,1527.7188 1013.8938,1527.9688 1014.1125,1528.1406 C1014.2844,1528.25 1014.4563,1528.2813 1014.8938,1528.2813 L1015.9719,1528.2813 L1013.3313,1534.7969 C1012.9094,1534.7969 1012.7531,1534.8125 1012.5969,1534.9219 C1012.3469,1535.0781 1012.1906,1535.3594 1012.1906,1535.6563 C1012.1906,1536.2188 1012.5656,1536.5 1013.3156,1536.5 L1015.5813,1536.5 C1015.9406,1536.5 1016.1594,1536.4688 1016.2844,1536.375 C1016.55,1536.2344 1016.6906,1535.9375 1016.6906,1535.6563 C1016.6906,1535.375 1016.5656,1535.125 1016.3469,1534.9531 C1016.175,1534.8281 1016.0344,1534.7969 1015.5813,1534.7969 L1015.1906,1534.7969 L1015.5813,1533.8125 L1019.6281,1533.8125 Z M1018.925,1532.1094 L1016.2531,1532.1094 L1017.5969,1528.8438 L1018.925,1532.1094 Z " fill="#000000"/><text fill="#000000" font-family="sans-serif" font-size="14" font-style="italic" lengthAdjust="spacing" textLength="101" x="1037.45" y="1536.8467">ObjectiveCard</text><line style="stroke:#181818;stroke-width:0.5;" x1="977" x2="1167" y1="1548" y2="1548"/><polygon fill="none" points="987,1556.6484,991,1560.6484,987,1564.6484,983,1560.6484" style="stroke:#B38D22;stroke-width:1.0;"/><text fill="#000000" font-family="sans-serif" font-size="14" lengthAdjust="spacing" textLength="135" x="996" y="1564.9951">Integer pointsWon</text><line style="stroke:#181818;stroke-width:0.5;" x1="977" x2="1167" y1="1572.2969" y2="1572.2969"/><ellipse cx="987" cy="1585.9453" fill="#84BE84" rx="3" ry="3" style="stroke:#038048;stroke-width:1.0;"/><text fill="#000000" font-family="sans-serif" font-size="14" lengthAdjust="spacing" textLength="166" x="996" y="1589.292">getPoints(PlayerBoard)</text></g><!--class Side--><g id="elem_Side"><rect codeLine="137" fill="#F1F1F1" height="194.6719" id="Side" rx="2.5" ry="2.5" style="stroke:#181818;stroke-width:0.5;" width="341" x="502.5" y="1730"/><ellipse cx="653.25" cy="1746" fill="#A9DCDF" rx="11" ry="11" style="stroke:#181818;stroke-width:1.0;"/><path d="M655.3281,1747.8125 L655.7188,1748.7969 L655.3281,1748.7969 C654.875,1748.7969 654.7656,1748.8125 654.6094,1748.9219 C654.3594,1749.0781 654.2031,1749.3594 654.2031,1749.6563 C654.2031,1749.9219 654.3438,1750.1719 654.5625,1750.3281 C654.7031,1750.4531 654.9063,1750.5 655.3281,1750.5 L657.6875,1750.5 C658.0469,1750.5 658.2656,1750.4688 658.4063,1750.375 C658.6563,1750.2344 658.8125,1749.9375 658.8125,1749.6563 C658.8125,1749.375 658.6719,1749.125 658.4531,1748.9688 C658.2813,1748.8281 658.125,1748.7969 657.6563,1748.7969 L654.2656,1740.5938 L650.5938,1740.5938 C650.1406,1740.5938 650.0156,1740.6094 649.8594,1740.7031 C649.6094,1740.875 649.4531,1741.1563 649.4531,1741.4375 C649.4531,1741.7188 649.5938,1741.9688 649.8125,1742.1406 C649.9844,1742.25 650.1563,1742.2813 650.5938,1742.2813 L651.6719,1742.2813 L649.0313,1748.7969 C648.6094,1748.7969 648.4531,1748.8125 648.2969,1748.9219 C648.0469,1749.0781 647.8906,1749.3594 647.8906,1749.6563 C647.8906,1750.2188 648.2656,1750.5 649.0156,1750.5 L651.2813,1750.5 C651.6406,1750.5 651.8594,1750.4688 651.9844,1750.375 C652.25,1750.2344 652.3906,1749.9375 652.3906,1749.6563 C652.3906,1749.375 652.2656,1749.125 652.0469,1748.9531 C651.875,1748.8281 651.7344,1748.7969 651.2813,1748.7969 L650.8906,1748.7969 L651.2813,1747.8125 L655.3281,1747.8125 Z M654.625,1746.1094 L651.9531,1746.1094 L653.2969,1742.8438 L654.625,1746.1094 Z " fill="#000000"/><text fill="#000000" font-family="sans-serif" font-size="14" font-style="italic" lengthAdjust="spacing" textLength="31" x="673.75" y="1750.8467">Side</text><line style="stroke:#181818;stroke-width:0.5;" x1="503.5" x2="842.5" y1="1762" y2="1762"/><polygon fill="none" points="513.5,1770.6484,517.5,1774.6484,513.5,1778.6484,509.5,1774.6484" style="stroke:#B38D22;stroke-width:1.0;"/><text fill="#000000" font-family="sans-serif" font-size="14" lengthAdjust="spacing" textLength="118" x="522.5" y="1778.9951">Corner topRight</text><polygon fill="none" points="513.5,1786.9453,517.5,1790.9453,513.5,1794.9453,509.5,1790.9453" style="stroke:#B38D22;stroke-width:1.0;"/><text fill="#000000" font-family="sans-serif" font-size="14" lengthAdjust="spacing" textLength="109" x="522.5" y="1795.292">Corner topLeft</text><polygon fill="none" points="513.5,1803.2422,517.5,1807.2422,513.5,1811.2422,509.5,1807.2422" style="stroke:#B38D22;stroke-width:1.0;"/><text fill="#000000" font-family="sans-serif" font-size="14" lengthAdjust="spacing" textLength="139" x="522.5" y="1811.5889">Corner bottomLeft</text><polygon fill="none" points="513.5,1819.5391,517.5,1823.5391,513.5,1827.5391,509.5,1823.5391" style="stroke:#B38D22;stroke-width:1.0;"/><text fill="#000000" font-family="sans-serif" font-size="14" lengthAdjust="spacing" textLength="148" x="522.5" y="1827.8857">Corner bottomRight</text><line style="stroke:#181818;stroke-width:0.5;" x1="503.5" x2="842.5" y1="1835.1875" y2="1835.1875"/><ellipse cx="513.5" cy="1848.8359" fill="#84BE84" rx="3" ry="3" style="stroke:#038048;stroke-width:1.0;"/><text fill="#000000" font-family="sans-serif" font-size="14" lengthAdjust="spacing" textLength="191" x="522.5" y="1852.1826">getCorner(CornerPosition)</text><ellipse cx="513.5" cy="1865.1328" fill="#84BE84" rx="3" ry="3" style="stroke:#038048;stroke-width:1.0;"/><text fill="#000000" font-family="sans-serif" font-size="14" lengthAdjust="spacing" textLength="315" x="522.5" y="1868.4795">setCornerCovered(CornerPosition, boolean)</text><ellipse cx="513.5" cy="1881.4297" fill="#84BE84" rx="3" ry="3" style="stroke:#038048;stroke-width:1.0;"/><text fill="#000000" font-family="sans-serif" font-size="14" lengthAdjust="spacing" textLength="271" x="522.5" y="1884.7764">GameItemStore getGameItemStore()</text><ellipse cx="513.5" cy="1897.7266" fill="#84BE84" rx="3" ry="3" style="stroke:#038048;stroke-width:1.0;"/><text fill="#000000" font-family="sans-serif" font-size="14" lengthAdjust="spacing" textLength="166" x="522.5" y="1901.0732">getPoints(PlayerBoard)</text><ellipse cx="513.5" cy="1914.0234" fill="#84BE84" rx="3" ry="3" style="stroke:#038048;stroke-width:1.0;"/><text fill="#000000" font-family="sans-serif" font-size="14" lengthAdjust="spacing" textLength="284" x="522.5" y="1917.3701">GameItemStore getNeededItemStore()</text></g><!--class Front--><g id="elem_Front"><rect codeLine="170" fill="#F1F1F1" height="96.8906" id="Front" rx="2.5" ry="2.5" style="stroke:#181818;stroke-width:0.5;" width="192" x="257" y="2017.5"/><ellipse cx="329.25" cy="2033.5" fill="#ADD1B2" rx="11" ry="11" style="stroke:#181818;stroke-width:1.0;"/><path d="M331.5938,2029.1719 C330.6563,2028.7344 330.0625,2028.5938 329.1875,2028.5938 C326.5625,2028.5938 324.5625,2030.6719 324.5625,2033.3906 L324.5625,2034.5156 C324.5625,2037.0938 326.6719,2038.9844 329.5625,2038.9844 C330.7813,2038.9844 331.9375,2038.6875 332.6875,2038.1406 C333.2656,2037.7344 333.5938,2037.2813 333.5938,2036.8906 C333.5938,2036.4375 333.2031,2036.0469 332.7344,2036.0469 C332.5156,2036.0469 332.3125,2036.125 332.125,2036.3125 C331.6719,2036.7969 331.6719,2036.7969 331.4844,2036.8906 C331.0625,2037.1563 330.375,2037.2813 329.6094,2037.2813 C327.5625,2037.2813 326.2656,2036.1875 326.2656,2034.4844 L326.2656,2033.3906 C326.2656,2031.6094 327.5156,2030.2969 329.25,2030.2969 C329.8281,2030.2969 330.4375,2030.4531 330.9063,2030.7031 C331.3906,2030.9844 331.5625,2031.2031 331.6563,2031.6094 C331.7188,2032.0156 331.75,2032.1406 331.8906,2032.2656 C332.0313,2032.4063 332.2656,2032.5156 332.4844,2032.5156 C332.75,2032.5156 333.0156,2032.375 333.1875,2032.1563 C333.2969,2032 333.3281,2031.8125 333.3281,2031.3906 L333.3281,2029.9688 C333.3281,2029.5313 333.3125,2029.4063 333.2188,2029.25 C333.0625,2028.9844 332.7813,2028.8438 332.4844,2028.8438 C332.1875,2028.8438 331.9844,2028.9375 331.7656,2029.25 L331.5938,2029.1719 Z " fill="#000000"/><text fill="#000000" font-family="sans-serif" font-size="14" lengthAdjust="spacing" textLength="39" x="349.75" y="2038.3467">Front</text><line style="stroke:#181818;stroke-width:0.5;" x1="258" x2="448" y1="2049.5" y2="2049.5"/><polygon fill="none" points="268,2058.1484,272,2062.1484,268,2066.1484,264,2062.1484" style="stroke:#B38D22;stroke-width:1.0;"/><text fill="#000000" font-family="sans-serif" font-size="14" lengthAdjust="spacing" textLength="70" x="277" y="2066.4951">int points</text><line style="stroke:#181818;stroke-width:0.5;" x1="258" x2="448" y1="2073.7969" y2="2073.7969"/><ellipse cx="268" cy="2087.4453" fill="#84BE84" rx="3" ry="3" style="stroke:#038048;stroke-width:1.0;"/><text fill="#000000" font-family="sans-serif" font-size="14" lengthAdjust="spacing" textLength="151" x="277" y="2090.792">getGameItemStore()</text><ellipse cx="268" cy="2103.7422" fill="#84BE84" rx="3" ry="3" style="stroke:#038048;stroke-width:1.0;"/><text fill="#000000" font-family="sans-serif" font-size="14" lengthAdjust="spacing" textLength="166" x="277" y="2107.0889">getPoints(PlayerBoard)</text></g><!--class Back--><g id="elem_Back"><rect codeLine="199" fill="#F1F1F1" height="96.8906" id="Back" rx="2.5" ry="2.5" style="stroke:#181818;stroke-width:0.5;" width="215" x="484.5" y="2017.5"/><ellipse cx="570.25" cy="2033.5" fill="#ADD1B2" rx="11" ry="11" style="stroke:#181818;stroke-width:1.0;"/><path d="M572.5938,2029.1719 C571.6563,2028.7344 571.0625,2028.5938 570.1875,2028.5938 C567.5625,2028.5938 565.5625,2030.6719 565.5625,2033.3906 L565.5625,2034.5156 C565.5625,2037.0938 567.6719,2038.9844 570.5625,2038.9844 C571.7813,2038.9844 572.9375,2038.6875 573.6875,2038.1406 C574.2656,2037.7344 574.5938,2037.2813 574.5938,2036.8906 C574.5938,2036.4375 574.2031,2036.0469 573.7344,2036.0469 C573.5156,2036.0469 573.3125,2036.125 573.125,2036.3125 C572.6719,2036.7969 572.6719,2036.7969 572.4844,2036.8906 C572.0625,2037.1563 571.375,2037.2813 570.6094,2037.2813 C568.5625,2037.2813 567.2656,2036.1875 567.2656,2034.4844 L567.2656,2033.3906 C567.2656,2031.6094 568.5156,2030.2969 570.25,2030.2969 C570.8281,2030.2969 571.4375,2030.4531 571.9063,2030.7031 C572.3906,2030.9844 572.5625,2031.2031 572.6563,2031.6094 C572.7188,2032.0156 572.75,2032.1406 572.8906,2032.2656 C573.0313,2032.4063 573.2656,2032.5156 573.4844,2032.5156 C573.75,2032.5156 574.0156,2032.375 574.1875,2032.1563 C574.2969,2032 574.3281,2031.8125 574.3281,2031.3906 L574.3281,2029.9688 C574.3281,2029.5313 574.3125,2029.4063 574.2188,2029.25 C574.0625,2028.9844 573.7813,2028.8438 573.4844,2028.8438 C573.1875,2028.8438 572.9844,2028.9375 572.7656,2029.25 L572.5938,2029.1719 Z " fill="#000000"/><text fill="#000000" font-family="sans-serif" font-size="14" lengthAdjust="spacing" textLength="35" x="590.75" y="2038.3467">Back</text><line style="stroke:#181818;stroke-width:0.5;" x1="485.5" x2="698.5" y1="2049.5" y2="2049.5"/><polygon fill="none" points="495.5,2058.1484,499.5,2062.1484,495.5,2066.1484,491.5,2062.1484" style="stroke:#B38D22;stroke-width:1.0;"/><text fill="#000000" font-family="sans-serif" font-size="14" lengthAdjust="spacing" textLength="189" x="504.5" y="2066.4951">GameItemStore resources</text><line style="stroke:#181818;stroke-width:0.5;" x1="485.5" x2="698.5" y1="2073.7969" y2="2073.7969"/><ellipse cx="495.5" cy="2087.4453" fill="#84BE84" rx="3" ry="3" style="stroke:#038048;stroke-width:1.0;"/><text fill="#000000" font-family="sans-serif" font-size="14" lengthAdjust="spacing" textLength="151" x="504.5" y="2090.792">getGameItemStore()</text><ellipse cx="495.5" cy="2103.7422" fill="#84BE84" rx="3" ry="3" style="stroke:#038048;stroke-width:1.0;"/><text fill="#000000" font-family="sans-serif" font-size="14" lengthAdjust="spacing" textLength="166" x="504.5" y="2107.0889">getPoints(PlayerBoard)</text></g><!--class Corner--><g id="elem_Corner"><rect codeLine="153" fill="#F1F1F1" height="129.4844" id="Corner" rx="2.5" ry="2.5" style="stroke:#181818;stroke-width:0.5;" width="267" x="734.5" y="2001.5"/><ellipse cx="839.25" cy="2017.5" fill="#ADD1B2" rx="11" ry="11" style="stroke:#181818;stroke-width:1.0;"/><path d="M841.5938,2013.1719 C840.6563,2012.7344 840.0625,2012.5938 839.1875,2012.5938 C836.5625,2012.5938 834.5625,2014.6719 834.5625,2017.3906 L834.5625,2018.5156 C834.5625,2021.0938 836.6719,2022.9844 839.5625,2022.9844 C840.7813,2022.9844 841.9375,2022.6875 842.6875,2022.1406 C843.2656,2021.7344 843.5938,2021.2813 843.5938,2020.8906 C843.5938,2020.4375 843.2031,2020.0469 842.7344,2020.0469 C842.5156,2020.0469 842.3125,2020.125 842.125,2020.3125 C841.6719,2020.7969 841.6719,2020.7969 841.4844,2020.8906 C841.0625,2021.1563 840.375,2021.2813 839.6094,2021.2813 C837.5625,2021.2813 836.2656,2020.1875 836.2656,2018.4844 L836.2656,2017.3906 C836.2656,2015.6094 837.5156,2014.2969 839.25,2014.2969 C839.8281,2014.2969 840.4375,2014.4531 840.9063,2014.7031 C841.3906,2014.9844 841.5625,2015.2031 841.6563,2015.6094 C841.7188,2016.0156 841.75,2016.1406 841.8906,2016.2656 C842.0313,2016.4063 842.2656,2016.5156 842.4844,2016.5156 C842.75,2016.5156 843.0156,2016.375 843.1875,2016.1563 C843.2969,2016 843.3281,2015.8125 843.3281,2015.3906 L843.3281,2013.9688 C843.3281,2013.5313 843.3125,2013.4063 843.2188,2013.25 C843.0625,2012.9844 842.7813,2012.8438 842.4844,2012.8438 C842.1875,2012.8438 841.9844,2012.9375 841.7656,2013.25 L841.5938,2013.1719 Z " fill="#000000"/><text fill="#000000" font-family="sans-serif" font-size="14" lengthAdjust="spacing" textLength="49" x="859.75" y="2022.3467">Corner</text><line style="stroke:#181818;stroke-width:0.5;" x1="735.5" x2="1000.5" y1="2033.5" y2="2033.5"/><rect fill="none" height="6" style="stroke:#C82930;stroke-width:1.0;" width="6" x="742.5" y="2044.1484"/><text fill="#000000" font-family="sans-serif" font-size="14" lengthAdjust="spacing" textLength="133" x="754.5" y="2050.4951">boolean isCovered</text><rect fill="none" height="6" style="stroke:#C82930;stroke-width:1.0;" width="6" x="742.5" y="2060.4453"/><text fill="#000000" font-family="sans-serif" font-size="14" lengthAdjust="spacing" textLength="154" x="754.5" y="2066.792">GameItem gameItem</text><line style="stroke:#181818;stroke-width:0.5;" x1="735.5" x2="1000.5" y1="2074.0938" y2="2074.0938"/><ellipse cx="745.5" cy="2087.7422" fill="#84BE84" rx="3" ry="3" style="stroke:#038048;stroke-width:1.0;"/><text fill="#000000" font-family="sans-serif" font-size="14" lengthAdjust="spacing" textLength="191" x="754.5" y="2091.0889">GameItem getGameItem()</text><ellipse cx="745.5" cy="2104.0391" fill="#84BE84" rx="3" ry="3" style="stroke:#038048;stroke-width:1.0;"/><text fill="#000000" font-family="sans-serif" font-size="14" lengthAdjust="spacing" textLength="231" x="754.5" y="2107.3857">GameItem setCovered(Boolean)</text><ellipse cx="745.5" cy="2120.3359" fill="#84BE84" rx="3" ry="3" style="stroke:#038048;stroke-width:1.0;"/><text fill="#000000" font-family="sans-serif" font-size="14" lengthAdjust="spacing" textLength="241" x="754.5" y="2123.6826">Boolean isExisting() {return true}</text></g><!--class NonExistingCorner--><g id="elem_NonExistingCorner"><rect codeLine="163" fill="#F1F1F1" height="64.2969" id="NonExistingCorner" rx="2.5" ry="2.5" style="stroke:#181818;stroke-width:0.5;" width="271" x="732.5" y="2215.5"/><ellipse cx="796.75" cy="2231.5" fill="#ADD1B2" rx="11" ry="11" style="stroke:#181818;stroke-width:1.0;"/><path d="M799.0938,2227.1719 C798.1563,2226.7344 797.5625,2226.5938 796.6875,2226.5938 C794.0625,2226.5938 792.0625,2228.6719 792.0625,2231.3906 L792.0625,2232.5156 C792.0625,2235.0938 794.1719,2236.9844 797.0625,2236.9844 C798.2813,2236.9844 799.4375,2236.6875 800.1875,2236.1406 C800.7656,2235.7344 801.0938,2235.2813 801.0938,2234.8906 C801.0938,2234.4375 800.7031,2234.0469 800.2344,2234.0469 C800.0156,2234.0469 799.8125,2234.125 799.625,2234.3125 C799.1719,2234.7969 799.1719,2234.7969 798.9844,2234.8906 C798.5625,2235.1563 797.875,2235.2813 797.1094,2235.2813 C795.0625,2235.2813 793.7656,2234.1875 793.7656,2232.4844 L793.7656,2231.3906 C793.7656,2229.6094 795.0156,2228.2969 796.75,2228.2969 C797.3281,2228.2969 797.9375,2228.4531 798.4063,2228.7031 C798.8906,2228.9844 799.0625,2229.2031 799.1563,2229.6094 C799.2188,2230.0156 799.25,2230.1406 799.3906,2230.2656 C799.5313,2230.4063 799.7656,2230.5156 799.9844,2230.5156 C800.25,2230.5156 800.5156,2230.375 800.6875,2230.1563 C800.7969,2230 800.8281,2229.8125 800.8281,2229.3906 L800.8281,2227.9688 C800.8281,2227.5313 800.8125,2227.4063 800.7188,2227.25 C800.5625,2226.9844 800.2813,2226.8438 799.9844,2226.8438 C799.6875,2226.8438 799.4844,2226.9375 799.2656,2227.25 L799.0938,2227.1719 Z " fill="#000000"/><text fill="#000000" font-family="sans-serif" font-size="14" lengthAdjust="spacing" textLength="134" x="817.25" y="2236.3467">NonExistingCorner</text><line style="stroke:#181818;stroke-width:0.5;" x1="733.5" x2="1002.5" y1="2247.5" y2="2247.5"/><line style="stroke:#181818;stroke-width:0.5;" x1="733.5" x2="1002.5" y1="2255.5" y2="2255.5"/><ellipse cx="743.5" cy="2269.1484" fill="#84BE84" rx="3" ry="3" style="stroke:#038048;stroke-width:1.0;"/><text fill="#000000" font-family="sans-serif" font-size="14" lengthAdjust="spacing" textLength="245" x="752.5" y="2272.4951">Boolean isExisting() {return false}</text></g><!--class FrontGoldCard--><g id="elem_FrontGoldCard"><rect codeLine="178" fill="#F1F1F1" height="80.5938" id="FrontGoldCard" rx="2.5" ry="2.5" style="stroke:#181818;stroke-width:0.5;" width="241" x="232.5" y="2207"/><ellipse cx="296.25" cy="2223" fill="#ADD1B2" rx="11" ry="11" style="stroke:#181818;stroke-width:1.0;"/><path d="M298.5938,2218.6719 C297.6563,2218.2344 297.0625,2218.0938 296.1875,2218.0938 C293.5625,2218.0938 291.5625,2220.1719 291.5625,2222.8906 L291.5625,2224.0156 C291.5625,2226.5938 293.6719,2228.4844 296.5625,2228.4844 C297.7813,2228.4844 298.9375,2228.1875 299.6875,2227.6406 C300.2656,2227.2344 300.5938,2226.7813 300.5938,2226.3906 C300.5938,2225.9375 300.2031,2225.5469 299.7344,2225.5469 C299.5156,2225.5469 299.3125,2225.625 299.125,2225.8125 C298.6719,2226.2969 298.6719,2226.2969 298.4844,2226.3906 C298.0625,2226.6563 297.375,2226.7813 296.6094,2226.7813 C294.5625,2226.7813 293.2656,2225.6875 293.2656,2223.9844 L293.2656,2222.8906 C293.2656,2221.1094 294.5156,2219.7969 296.25,2219.7969 C296.8281,2219.7969 297.4375,2219.9531 297.9063,2220.2031 C298.3906,2220.4844 298.5625,2220.7031 298.6563,2221.1094 C298.7188,2221.5156 298.75,2221.6406 298.8906,2221.7656 C299.0313,2221.9063 299.2656,2222.0156 299.4844,2222.0156 C299.75,2222.0156 300.0156,2221.875 300.1875,2221.6563 C300.2969,2221.5 300.3281,2221.3125 300.3281,2220.8906 L300.3281,2219.4688 C300.3281,2219.0313 300.3125,2218.9063 300.2188,2218.75 C300.0625,2218.4844 299.7813,2218.3438 299.4844,2218.3438 C299.1875,2218.3438 298.9844,2218.4375 298.7656,2218.75 L298.5938,2218.6719 Z " fill="#000000"/><text fill="#000000" font-family="sans-serif" font-size="14" lengthAdjust="spacing" textLength="105" x="316.75" y="2227.8467">FrontGoldCard</text><line style="stroke:#181818;stroke-width:0.5;" x1="233.5" x2="472.5" y1="2239" y2="2239"/><polygon fill="none" points="243.5,2247.6484,247.5,2251.6484,243.5,2255.6484,239.5,2251.6484" style="stroke:#B38D22;stroke-width:1.0;"/><text fill="#000000" font-family="sans-serif" font-size="14" lengthAdjust="spacing" textLength="215" x="252.5" y="2255.9951">GameItemStore neededItems</text><line style="stroke:#181818;stroke-width:0.5;" x1="233.5" x2="472.5" y1="2263.2969" y2="2263.2969"/><ellipse cx="243.5" cy="2276.9453" fill="#84BE84" rx="3" ry="3" style="stroke:#038048;stroke-width:1.0;"/><text fill="#000000" font-family="sans-serif" font-size="14" lengthAdjust="spacing" textLength="164" x="252.5" y="2280.292">getNeededItemStore()</text></g><!--class FrontPositionalGoldCard--><g id="elem_FrontPositionalGoldCard"><rect codeLine="187" fill="#F1F1F1" height="64.2969" id="FrontPositionalGoldCard" rx="2.5" ry="2.5" style="stroke:#181818;stroke-width:0.5;" width="207" x="132.5" y="2356.5"/><ellipse cx="147.5" cy="2372.5" fill="#ADD1B2" rx="11" ry="11" style="stroke:#181818;stroke-width:1.0;"/><path d="M149.8438,2368.1719 C148.9063,2367.7344 148.3125,2367.5938 147.4375,2367.5938 C144.8125,2367.5938 142.8125,2369.6719 142.8125,2372.3906 L142.8125,2373.5156 C142.8125,2376.0938 144.9219,2377.9844 147.8125,2377.9844 C149.0313,2377.9844 150.1875,2377.6875 150.9375,2377.1406 C151.5156,2376.7344 151.8438,2376.2813 151.8438,2375.8906 C151.8438,2375.4375 151.4531,2375.0469 150.9844,2375.0469 C150.7656,2375.0469 150.5625,2375.125 150.375,2375.3125 C149.9219,2375.7969 149.9219,2375.7969 149.7344,2375.8906 C149.3125,2376.1563 148.625,2376.2813 147.8594,2376.2813 C145.8125,2376.2813 144.5156,2375.1875 144.5156,2373.4844 L144.5156,2372.3906 C144.5156,2370.6094 145.7656,2369.2969 147.5,2369.2969 C148.0781,2369.2969 148.6875,2369.4531 149.1563,2369.7031 C149.6406,2369.9844 149.8125,2370.2031 149.9063,2370.6094 C149.9688,2371.0156 150,2371.1406 150.1406,2371.2656 C150.2813,2371.4063 150.5156,2371.5156 150.7344,2371.5156 C151,2371.5156 151.2656,2371.375 151.4375,2371.1563 C151.5469,2371 151.5781,2370.8125 151.5781,2370.3906 L151.5781,2368.9688 C151.5781,2368.5313 151.5625,2368.4063 151.4688,2368.25 C151.3125,2367.9844 151.0313,2367.8438 150.7344,2367.8438 C150.4375,2367.8438 150.2344,2367.9375 150.0156,2368.25 L149.8438,2368.1719 Z " fill="#000000"/><text fill="#000000" font-family="sans-serif" font-size="14" lengthAdjust="spacing" textLength="175" x="161.5" y="2377.3467">FrontPositionalGoldCard</text><line style="stroke:#181818;stroke-width:0.5;" x1="133.5" x2="338.5" y1="2388.5" y2="2388.5"/><line style="stroke:#181818;stroke-width:0.5;" x1="133.5" x2="338.5" y1="2396.5" y2="2396.5"/><ellipse cx="143.5" cy="2410.1484" fill="#84BE84" rx="3" ry="3" style="stroke:#038048;stroke-width:1.0;"/><text fill="#000000" font-family="sans-serif" font-size="14" lengthAdjust="spacing" textLength="166" x="152.5" y="2413.4951">getPoints(PlayerBoard)</text></g><!--class FrontItemGoldCard--><g id="elem_FrontItemGoldCard"><rect codeLine="192" fill="#F1F1F1" height="80.5938" id="FrontItemGoldCard" rx="2.5" ry="2.5" style="stroke:#181818;stroke-width:0.5;" width="192" x="375" y="2348"/><ellipse cx="399.45" cy="2364" fill="#ADD1B2" rx="11" ry="11" style="stroke:#181818;stroke-width:1.0;"/><path d="M401.7938,2359.6719 C400.8563,2359.2344 400.2625,2359.0938 399.3875,2359.0938 C396.7625,2359.0938 394.7625,2361.1719 394.7625,2363.8906 L394.7625,2365.0156 C394.7625,2367.5938 396.8719,2369.4844 399.7625,2369.4844 C400.9813,2369.4844 402.1375,2369.1875 402.8875,2368.6406 C403.4656,2368.2344 403.7938,2367.7813 403.7938,2367.3906 C403.7938,2366.9375 403.4031,2366.5469 402.9344,2366.5469 C402.7156,2366.5469 402.5125,2366.625 402.325,2366.8125 C401.8719,2367.2969 401.8719,2367.2969 401.6844,2367.3906 C401.2625,2367.6563 400.575,2367.7813 399.8094,2367.7813 C397.7625,2367.7813 396.4656,2366.6875 396.4656,2364.9844 L396.4656,2363.8906 C396.4656,2362.1094 397.7156,2360.7969 399.45,2360.7969 C400.0281,2360.7969 400.6375,2360.9531 401.1063,2361.2031 C401.5906,2361.4844 401.7625,2361.7031 401.8563,2362.1094 C401.9188,2362.5156 401.95,2362.6406 402.0906,2362.7656 C402.2313,2362.9063 402.4656,2363.0156 402.6844,2363.0156 C402.95,2363.0156 403.2156,2362.875 403.3875,2362.6563 C403.4969,2362.5 403.5281,2362.3125 403.5281,2361.8906 L403.5281,2360.4688 C403.5281,2360.0313 403.5125,2359.9063 403.4188,2359.75 C403.2625,2359.4844 402.9813,2359.3438 402.6844,2359.3438 C402.3875,2359.3438 402.1844,2359.4375 401.9656,2359.75 L401.7938,2359.6719 Z " fill="#000000"/><text fill="#000000" font-family="sans-serif" font-size="14" lengthAdjust="spacing" textLength="139" x="415.55" y="2368.8467">FrontItemGoldCard</text><line style="stroke:#181818;stroke-width:0.5;" x1="376" x2="566" y1="2380" y2="2380"/><rect fill="none" height="6" style="stroke:#C82930;stroke-width:1.0;" width="6" x="383" y="2390.6484"/><text fill="#000000" font-family="sans-serif" font-size="14" lengthAdjust="spacing" textLength="150" x="395" y="2396.9951">GameItem multiplier</text><line style="stroke:#181818;stroke-width:0.5;" x1="376" x2="566" y1="2404.2969" y2="2404.2969"/><ellipse cx="386" cy="2417.9453" fill="#84BE84" rx="3" ry="3" style="stroke:#038048;stroke-width:1.0;"/><text fill="#000000" font-family="sans-serif" font-size="14" lengthAdjust="spacing" textLength="166" x="395" y="2421.292">getPoints(PlayerBoard)</text></g><!--class PositionalObjectiveCard--><g id="elem_PositionalObjectiveCard"><rect codeLine="236" fill="#F1F1F1" height="80.5938" id="PositionalObjectiveCard" rx="2.5" ry="2.5" style="stroke:#181818;stroke-width:0.5;" width="325" x="909.5" y="1787"/><ellipse cx="981.25" cy="1803" fill="#ADD1B2" rx="11" ry="11" style="stroke:#181818;stroke-width:1.0;"/><path d="M983.5938,1798.6719 C982.6563,1798.2344 982.0625,1798.0938 981.1875,1798.0938 C978.5625,1798.0938 976.5625,1800.1719 976.5625,1802.8906 L976.5625,1804.0156 C976.5625,1806.5938 978.6719,1808.4844 981.5625,1808.4844 C982.7813,1808.4844 983.9375,1808.1875 984.6875,1807.6406 C985.2656,1807.2344 985.5938,1806.7813 985.5938,1806.3906 C985.5938,1805.9375 985.2031,1805.5469 984.7344,1805.5469 C984.5156,1805.5469 984.3125,1805.625 984.125,1805.8125 C983.6719,1806.2969 983.6719,1806.2969 983.4844,1806.3906 C983.0625,1806.6563 982.375,1806.7813 981.6094,1806.7813 C979.5625,1806.7813 978.2656,1805.6875 978.2656,1803.9844 L978.2656,1802.8906 C978.2656,1801.1094 979.5156,1799.7969 981.25,1799.7969 C981.8281,1799.7969 982.4375,1799.9531 982.9063,1800.2031 C983.3906,1800.4844 983.5625,1800.7031 983.6563,1801.1094 C983.7188,1801.5156 983.75,1801.6406 983.8906,1801.7656 C984.0313,1801.9063 984.2656,1802.0156 984.4844,1802.0156 C984.75,1802.0156 985.0156,1801.875 985.1875,1801.6563 C985.2969,1801.5 985.3281,1801.3125 985.3281,1800.8906 L985.3281,1799.4688 C985.3281,1799.0313 985.3125,1798.9063 985.2188,1798.75 C985.0625,1798.4844 984.7813,1798.3438 984.4844,1798.3438 C984.1875,1798.3438 983.9844,1798.4375 983.7656,1798.75 L983.5938,1798.6719 Z " fill="#000000"/><text fill="#000000" font-family="sans-serif" font-size="14" lengthAdjust="spacing" textLength="173" x="1001.75" y="1807.8467">PositionalObjectiveCard</text><line style="stroke:#181818;stroke-width:0.5;" x1="910.5" x2="1233.5" y1="1819" y2="1819"/><rect fill="none" height="6" style="stroke:#C82930;stroke-width:1.0;" width="6" x="917.5" y="1829.6484"/><text fill="#000000" font-family="sans-serif" font-size="14" lengthAdjust="spacing" textLength="299" x="929.5" y="1835.9951">ArrayList&lt;PositionalData&gt; positionalData</text><line style="stroke:#181818;stroke-width:0.5;" x1="910.5" x2="1233.5" y1="1843.2969" y2="1843.2969"/><ellipse cx="920.5" cy="1856.9453" fill="#84BE84" rx="3" ry="3" style="stroke:#038048;stroke-width:1.0;"/><text fill="#000000" font-family="sans-serif" font-size="14" lengthAdjust="spacing" textLength="166" x="929.5" y="1860.292">getPoints(PlayerBoard)</text></g><!--class ItemObjectiveCard--><g id="elem_ItemObjectiveCard"><rect codeLine="218" fill="#F1F1F1" height="80.5938" id="ItemObjectiveCard" rx="2.5" ry="2.5" style="stroke:#181818;stroke-width:0.5;" width="216" x="1270" y="1787"/><ellipse cx="1306.15" cy="1803" fill="#ADD1B2" rx="11" ry="11" style="stroke:#181818;stroke-width:1.0;"/><path d="M1308.4938,1798.6719 C1307.5563,1798.2344 1306.9625,1798.0938 1306.0875,1798.0938 C1303.4625,1798.0938 1301.4625,1800.1719 1301.4625,1802.8906 L1301.4625,1804.0156 C1301.4625,1806.5938 1303.5719,1808.4844 1306.4625,1808.4844 C1307.6813,1808.4844 1308.8375,1808.1875 1309.5875,1807.6406 C1310.1656,1807.2344 1310.4938,1806.7813 1310.4938,1806.3906 C1310.4938,1805.9375 1310.1031,1805.5469 1309.6344,1805.5469 C1309.4156,1805.5469 1309.2125,1805.625 1309.025,1805.8125 C1308.5719,1806.2969 1308.5719,1806.2969 1308.3844,1806.3906 C1307.9625,1806.6563 1307.275,1806.7813 1306.5094,1806.7813 C1304.4625,1806.7813 1303.1656,1805.6875 1303.1656,1803.9844 L1303.1656,1802.8906 C1303.1656,1801.1094 1304.4156,1799.7969 1306.15,1799.7969 C1306.7281,1799.7969 1307.3375,1799.9531 1307.8063,1800.2031 C1308.2906,1800.4844 1308.4625,1800.7031 1308.5563,1801.1094 C1308.6188,1801.5156 1308.65,1801.6406 1308.7906,1801.7656 C1308.9313,1801.9063 1309.1656,1802.0156 1309.3844,1802.0156 C1309.65,1802.0156 1309.9156,1801.875 1310.0875,1801.6563 C1310.1969,1801.5 1310.2281,1801.3125 1310.2281,1800.8906 L1310.2281,1799.4688 C1310.2281,1799.0313 1310.2125,1798.9063 1310.1188,1798.75 C1309.9625,1798.4844 1309.6813,1798.3438 1309.3844,1798.3438 C1309.0875,1798.3438 1308.8844,1798.4375 1308.6656,1798.75 L1308.4938,1798.6719 Z " fill="#000000"/><text fill="#000000" font-family="sans-serif" font-size="14" lengthAdjust="spacing" textLength="137" x="1324.85" y="1807.8467">ItemObjectiveCard</text><line style="stroke:#181818;stroke-width:0.5;" x1="1271" x2="1485" y1="1819" y2="1819"/><rect fill="none" height="6" style="stroke:#C82930;stroke-width:1.0;" width="6" x="1278" y="1829.6484"/><text fill="#000000" font-family="sans-serif" font-size="14" lengthAdjust="spacing" textLength="190" x="1290" y="1835.9951">GameItemStore multiplier</text><line style="stroke:#181818;stroke-width:0.5;" x1="1271" x2="1485" y1="1843.2969" y2="1843.2969"/><ellipse cx="1281" cy="1856.9453" fill="#84BE84" rx="3" ry="3" style="stroke:#038048;stroke-width:1.0;"/><text fill="#000000" font-family="sans-serif" font-size="14" lengthAdjust="spacing" textLength="166" x="1290" y="1860.292">getPoints(PlayerBoard)</text></g><!--class PositionalData--><g id="elem_PositionalData"><rect codeLine="225" fill="#F1F1F1" height="162.0781" id="PositionalData" rx="2.5" ry="2.5" style="stroke:#181818;stroke-width:0.5;" width="235" x="1036.5" y="1985"/><ellipse cx="1097.75" cy="2001" fill="#ADD1B2" rx="11" ry="11" style="stroke:#181818;stroke-width:1.0;"/><path d="M1100.0938,1996.6719 C1099.1563,1996.2344 1098.5625,1996.0938 1097.6875,1996.0938 C1095.0625,1996.0938 1093.0625,1998.1719 1093.0625,2000.8906 L1093.0625,2002.0156 C1093.0625,2004.5938 1095.1719,2006.4844 1098.0625,2006.4844 C1099.2813,2006.4844 1100.4375,2006.1875 1101.1875,2005.6406 C1101.7656,2005.2344 1102.0938,2004.7813 1102.0938,2004.3906 C1102.0938,2003.9375 1101.7031,2003.5469 1101.2344,2003.5469 C1101.0156,2003.5469 1100.8125,2003.625 1100.625,2003.8125 C1100.1719,2004.2969 1100.1719,2004.2969 1099.9844,2004.3906 C1099.5625,2004.6563 1098.875,2004.7813 1098.1094,2004.7813 C1096.0625,2004.7813 1094.7656,2003.6875 1094.7656,2001.9844 L1094.7656,2000.8906 C1094.7656,1999.1094 1096.0156,1997.7969 1097.75,1997.7969 C1098.3281,1997.7969 1098.9375,1997.9531 1099.4063,1998.2031 C1099.8906,1998.4844 1100.0625,1998.7031 1100.1563,1999.1094 C1100.2188,1999.5156 1100.25,1999.6406 1100.3906,1999.7656 C1100.5313,1999.9063 1100.7656,2000.0156 1100.9844,2000.0156 C1101.25,2000.0156 1101.5156,1999.875 1101.6875,1999.6563 C1101.7969,1999.5 1101.8281,1999.3125 1101.8281,1998.8906 L1101.8281,1997.4688 C1101.8281,1997.0313 1101.8125,1996.9063 1101.7188,1996.75 C1101.5625,1996.4844 1101.2813,1996.3438 1100.9844,1996.3438 C1100.6875,1996.3438 1100.4844,1996.4375 1100.2656,1996.75 L1100.0938,1996.6719 Z " fill="#000000"/><text fill="#000000" font-family="sans-serif" font-size="14" lengthAdjust="spacing" textLength="104" x="1118.25" y="2005.8467">PositionalData</text><line style="stroke:#181818;stroke-width:0.5;" x1="1037.5" x2="1270.5" y1="2017" y2="2017"/><rect fill="none" height="6" style="stroke:#C82930;stroke-width:1.0;" width="6" x="1044.5" y="2027.6484"/><text fill="#000000" font-family="sans-serif" font-size="14" lengthAdjust="spacing" textLength="81" x="1056.5" y="2033.9951">Point point</text><rect fill="none" height="6" style="stroke:#C82930;stroke-width:1.0;" width="6" x="1044.5" y="2043.9453"/><text fill="#000000" font-family="sans-serif" font-size="14" lengthAdjust="spacing" textLength="144" x="1056.5" y="2050.292">CardColor cardColor</text><line style="stroke:#181818;stroke-width:0.5;" x1="1037.5" x2="1270.5" y1="2057.5938" y2="2057.5938"/><ellipse cx="1047.5" cy="2071.2422" fill="#84BE84" rx="3" ry="3" style="stroke:#038048;stroke-width:1.0;"/><text fill="#000000" font-family="sans-serif" font-size="14" lengthAdjust="spacing" textLength="115" x="1056.5" y="2074.5889">Point getPoint()</text><ellipse cx="1047.5" cy="2087.5391" fill="#84BE84" rx="3" ry="3" style="stroke:#038048;stroke-width:1.0;"/><text fill="#000000" font-family="sans-serif" font-size="14" lengthAdjust="spacing" textLength="181" x="1056.5" y="2090.8857">CardColor getCardColor()</text><ellipse cx="1047.5" cy="2103.8359" fill="#84BE84" rx="3" ry="3" style="stroke:#038048;stroke-width:1.0;"/><text fill="#000000" font-family="sans-serif" font-size="14" lengthAdjust="spacing" textLength="191" x="1056.5" y="2107.1826">GameItem getGameItem()</text><ellipse cx="1047.5" cy="2120.1328" fill="#84BE84" rx="3" ry="3" style="stroke:#038048;stroke-width:1.0;"/><text fill="#000000" font-family="sans-serif" font-size="14" lengthAdjust="spacing" textLength="129" x="1056.5" y="2123.4795">void setPoint(x, y)</text><ellipse cx="1047.5" cy="2136.4297" fill="#84BE84" rx="3" ry="3" style="stroke:#038048;stroke-width:1.0;"/><text fill="#000000" font-family="sans-serif" font-size="14" lengthAdjust="spacing" textLength="209" x="1056.5" y="2139.7764">void setCardColor(CardColor)</text></g><!--class CornerPosition--><g id="elem_CornerPosition"><rect codeLine="243" fill="#F1F1F1" height="113.1875" id="CornerPosition" rx="2.5" ry="2.5" style="stroke:#181818;stroke-width:0.5;" width="139" x="377.5" y="39.5"/><ellipse cx="392.5" cy="55.5" fill="#EB937F" rx="11" ry="11" style="stroke:#181818;stroke-width:1.0;"/><path d="M391.2969,56.375 L392.75,56.375 L392.75,56.4844 C392.75,56.8906 392.7813,57.0469 392.8594,57.2031 C393.0156,57.4531 393.2969,57.6094 393.5938,57.6094 C393.8438,57.6094 394.1094,57.4688 394.2656,57.25 C394.3906,57.0938 394.4219,56.9375 394.4219,56.4844 L394.4219,54.5625 C394.4219,54.4063 394.4219,54.3594 394.4063,54.2031 C394.3438,53.7344 394.0313,53.4219 393.5781,53.4219 C393.3281,53.4219 393.0625,53.5625 392.8906,53.7813 C392.7813,53.9531 392.75,54.1094 392.75,54.5625 L392.75,54.6875 L391.2969,54.6875 L391.2969,52.2813 L395.2813,52.2813 L395.2813,53.1406 C395.2813,53.5469 395.3125,53.7188 395.3906,53.875 C395.5625,54.125 395.8438,54.2813 396.125,54.2813 C396.3906,54.2813 396.6563,54.1406 396.8281,53.9219 C396.9375,53.75 396.9688,53.6094 396.9688,53.1406 L396.9688,50.5938 L389.3438,50.5938 C388.9063,50.5938 388.7813,50.6094 388.625,50.7031 C388.375,50.8594 388.2188,51.1563 388.2188,51.4375 C388.2188,51.7188 388.3594,51.9688 388.5781,52.1406 C388.7344,52.25 388.9219,52.2813 389.3438,52.2813 L389.5938,52.2813 L389.5938,58.7969 L389.3438,58.7969 C388.9375,58.7969 388.7813,58.8125 388.625,58.9219 C388.375,59.0938 388.2188,59.3594 388.2188,59.6563 C388.2188,59.9219 388.3594,60.1719 388.5781,60.3281 C388.7188,60.4531 388.9531,60.5 389.3438,60.5 L397.3438,60.5 L397.3438,57.9219 C397.3438,57.4844 397.3125,57.3438 397.2344,57.1875 C397.0625,56.9375 396.7813,56.7813 396.5,56.7813 C396.2344,56.7813 395.9688,56.8906 395.7969,57.1406 C395.6875,57.2969 395.6563,57.4375 395.6563,57.9219 L395.6563,58.7969 L391.2969,58.7969 L391.2969,56.375 Z " fill="#000000"/><text fill="#000000" font-family="sans-serif" font-size="14" lengthAdjust="spacing" textLength="107" x="406.5" y="60.3467">CornerPosition</text><line style="stroke:#181818;stroke-width:0.5;" x1="378.5" x2="515.5" y1="71.5" y2="71.5"/><text fill="#000000" font-family="sans-serif" font-size="14" lengthAdjust="spacing" textLength="80" x="383.5" y="88.4951">TOP_RIGHT</text><text fill="#000000" font-family="sans-serif" font-size="14" lengthAdjust="spacing" textLength="70" x="383.5" y="104.792">TOP_LEFT</text><text fill="#000000" font-family="sans-serif" font-size="14" lengthAdjust="spacing" textLength="103" x="383.5" y="121.0889">BOTTOM_LEFT</text><text fill="#000000" font-family="sans-serif" font-size="14" lengthAdjust="spacing" textLength="113" x="383.5" y="137.3857">BOTTOM_RIGHT</text><line style="stroke:#181818;stroke-width:0.5;" x1="378.5" x2="515.5" y1="144.6875" y2="144.6875"/></g><!--class GameItem--><g id="elem_GameItem"><rect codeLine="250" fill="#F1F1F1" height="178.375" id="GameItem" rx="2.5" ry="2.5" style="stroke:#181818;stroke-width:0.5;" width="108" x="552" y="7"/><ellipse cx="567" cy="23" fill="#EB937F" rx="11" ry="11" style="stroke:#181818;stroke-width:1.0;"/><path d="M565.7969,23.875 L567.25,23.875 L567.25,23.9844 C567.25,24.3906 567.2813,24.5469 567.3594,24.7031 C567.5156,24.9531 567.7969,25.1094 568.0938,25.1094 C568.3438,25.1094 568.6094,24.9688 568.7656,24.75 C568.8906,24.5938 568.9219,24.4375 568.9219,23.9844 L568.9219,22.0625 C568.9219,21.9063 568.9219,21.8594 568.9063,21.7031 C568.8438,21.2344 568.5313,20.9219 568.0781,20.9219 C567.8281,20.9219 567.5625,21.0625 567.3906,21.2813 C567.2813,21.4531 567.25,21.6094 567.25,22.0625 L567.25,22.1875 L565.7969,22.1875 L565.7969,19.7813 L569.7813,19.7813 L569.7813,20.6406 C569.7813,21.0469 569.8125,21.2188 569.8906,21.375 C570.0625,21.625 570.3438,21.7813 570.625,21.7813 C570.8906,21.7813 571.1563,21.6406 571.3281,21.4219 C571.4375,21.25 571.4688,21.1094 571.4688,20.6406 L571.4688,18.0938 L563.8438,18.0938 C563.4063,18.0938 563.2813,18.1094 563.125,18.2031 C562.875,18.3594 562.7188,18.6563 562.7188,18.9375 C562.7188,19.2188 562.8594,19.4688 563.0781,19.6406 C563.2344,19.75 563.4219,19.7813 563.8438,19.7813 L564.0938,19.7813 L564.0938,26.2969 L563.8438,26.2969 C563.4375,26.2969 563.2813,26.3125 563.125,26.4219 C562.875,26.5938 562.7188,26.8594 562.7188,27.1563 C562.7188,27.4219 562.8594,27.6719 563.0781,27.8281 C563.2188,27.9531 563.4531,28 563.8438,28 L571.8438,28 L571.8438,25.4219 C571.8438,24.9844 571.8125,24.8438 571.7344,24.6875 C571.5625,24.4375 571.2813,24.2813 571,24.2813 C570.7344,24.2813 570.4688,24.3906 570.2969,24.6406 C570.1875,24.7969 570.1563,24.9375 570.1563,25.4219 L570.1563,26.2969 L565.7969,26.2969 L565.7969,23.875 Z " fill="#000000"/><text fill="#000000" font-family="sans-serif" font-size="14" lengthAdjust="spacing" textLength="76" x="581" y="27.8467">GameItem</text><line style="stroke:#181818;stroke-width:0.5;" x1="553" x2="659" y1="39" y2="39"/><text fill="#000000" font-family="sans-serif" font-size="14" lengthAdjust="spacing" textLength="46" x="558" y="55.9951">PLANT</text><text fill="#000000" font-family="sans-serif" font-size="14" lengthAdjust="spacing" textLength="54" x="558" y="72.292">ANIMAL</text><text fill="#000000" font-family="sans-serif" font-size="14" lengthAdjust="spacing" textLength="42" x="558" y="88.5889">FUNGI</text><text fill="#000000" font-family="sans-serif" font-size="14" lengthAdjust="spacing" textLength="51" x="558" y="104.8857">INSECT</text><text fill="#000000" font-family="sans-serif" font-size="14" lengthAdjust="spacing" textLength="40" x="558" y="121.1826">QUILL</text><text fill="#000000" font-family="sans-serif" font-size="14" lengthAdjust="spacing" textLength="63" x="558" y="137.4795">INKWELL</text><text fill="#000000" font-family="sans-serif" font-size="14" lengthAdjust="spacing" textLength="92" x="558" y="153.7764">MANUSCRIPT</text><text fill="#000000" font-family="sans-serif" font-size="14" lengthAdjust="spacing" textLength="35" x="558" y="170.0732">NULL</text><line style="stroke:#181818;stroke-width:0.5;" x1="553" x2="659" y1="177.375" y2="177.375"/></g><!--class CardColor--><g id="elem_CardColor"><rect codeLine="261" fill="#F1F1F1" height="129.4844" id="CardColor" rx="2.5" ry="2.5" style="stroke:#181818;stroke-width:0.5;" width="103" x="395.5" y="310.5"/><ellipse cx="410.5" cy="326.5" fill="#EB937F" rx="11" ry="11" style="stroke:#181818;stroke-width:1.0;"/><path d="M409.2969,327.375 L410.75,327.375 L410.75,327.4844 C410.75,327.8906 410.7813,328.0469 410.8594,328.2031 C411.0156,328.4531 411.2969,328.6094 411.5938,328.6094 C411.8438,328.6094 412.1094,328.4688 412.2656,328.25 C412.3906,328.0938 412.4219,327.9375 412.4219,327.4844 L412.4219,325.5625 C412.4219,325.4063 412.4219,325.3594 412.4063,325.2031 C412.3438,324.7344 412.0313,324.4219 411.5781,324.4219 C411.3281,324.4219 411.0625,324.5625 410.8906,324.7813 C410.7813,324.9531 410.75,325.1094 410.75,325.5625 L410.75,325.6875 L409.2969,325.6875 L409.2969,323.2813 L413.2813,323.2813 L413.2813,324.1406 C413.2813,324.5469 413.3125,324.7188 413.3906,324.875 C413.5625,325.125 413.8438,325.2813 414.125,325.2813 C414.3906,325.2813 414.6563,325.1406 414.8281,324.9219 C414.9375,324.75 414.9688,324.6094 414.9688,324.1406 L414.9688,321.5938 L407.3438,321.5938 C406.9063,321.5938 406.7813,321.6094 406.625,321.7031 C406.375,321.8594 406.2188,322.1563 406.2188,322.4375 C406.2188,322.7188 406.3594,322.9688 406.5781,323.1406 C406.7344,323.25 406.9219,323.2813 407.3438,323.2813 L407.5938,323.2813 L407.5938,329.7969 L407.3438,329.7969 C406.9375,329.7969 406.7813,329.8125 406.625,329.9219 C406.375,330.0938 406.2188,330.3594 406.2188,330.6563 C406.2188,330.9219 406.3594,331.1719 406.5781,331.3281 C406.7188,331.4531 406.9531,331.5 407.3438,331.5 L415.3438,331.5 L415.3438,328.9219 C415.3438,328.4844 415.3125,328.3438 415.2344,328.1875 C415.0625,327.9375 414.7813,327.7813 414.5,327.7813 C414.2344,327.7813 413.9688,327.8906 413.7969,328.1406 C413.6875,328.2969 413.6563,328.4375 413.6563,328.9219 L413.6563,329.7969 L409.2969,329.7969 L409.2969,327.375 Z " fill="#000000"/><text fill="#000000" font-family="sans-serif" font-size="14" lengthAdjust="spacing" textLength="71" x="424.5" y="331.3467">CardColor</text><line style="stroke:#181818;stroke-width:0.5;" x1="396.5" x2="497.5" y1="342.5" y2="342.5"/><text fill="#000000" font-family="sans-serif" font-size="14" lengthAdjust="spacing" textLength="28" x="401.5" y="359.4951">Red</text><text fill="#000000" font-family="sans-serif" font-size="14" lengthAdjust="spacing" textLength="31" x="401.5" y="375.792">Blue</text><text fill="#000000" font-family="sans-serif" font-size="14" lengthAdjust="spacing" textLength="44" x="401.5" y="392.0889">Green</text><text fill="#000000" font-family="sans-serif" font-size="14" lengthAdjust="spacing" textLength="46" x="401.5" y="408.3857">Purple</text><text fill="#000000" font-family="sans-serif" font-size="14" lengthAdjust="spacing" textLength="52" x="401.5" y="424.6826">Neutral</text><line style="stroke:#181818;stroke-width:0.5;" x1="396.5" x2="497.5" y1="431.9844" y2="431.9844"/></g><!--reverse link GameManager to Game--><g id="link_GameManager_Game"><path codeLine="8" d="M919,172.55 C919,197.71 919,215.58 919,244.9 " fill="none" id="GameManager-backto-Game" style="stroke:#181818;stroke-width:1.0;"/><polygon fill="#181818" points="919,160.55,915,166.55,919,172.55,923,166.55,919,160.55" style="stroke:#181818;stroke-width:1.0;"/><text fill="#000000" font-family="sans-serif" font-size="13" lengthAdjust="spacing" textLength="25" x="892.5547" y="180.9274">1..N</text><text fill="#000000" font-family="sans-serif" font-size="13" lengthAdjust="spacing" textLength="8" x="910.7688" y="234.0198">1</text></g><!--reverse link Game to Player--><g id="link_Game_Player"><path codeLine="27" d="M878.7031,516.7162 C845.6731,632.0462 800.961,788.18 768.661,900.97 " fill="none" id="Game-backto-Player" style="stroke:#181818;stroke-width:1.0;"/><polygon fill="#181818" points="882.007,505.18,876.5096,509.8468,878.7031,516.7162,884.2004,512.0494,882.007,505.18" style="stroke:#181818;stroke-width:1.0;"/><text fill="#000000" font-family="sans-serif" font-size="13" lengthAdjust="spacing" textLength="24" x="855.3277" y="524.7837">2..4</text><text fill="#000000" font-family="sans-serif" font-size="13" lengthAdjust="spacing" textLength="8" x="762.6252" y="889.7571">1</text></g><!--reverse link Game to GlobalBoard--><g id="link_Game_GlobalBoard"><path codeLine="28" d="M972.0246,516.538 C979.4016,536.098 982.801,545.1 990.239,564.81 " fill="none" id="Game-backto-GlobalBoard" style="stroke:#181818;stroke-width:1.0;"/><polygon fill="#181818" points="967.79,505.31,966.1646,512.3355,972.0246,516.538,973.65,509.5125,967.79,505.31" style="stroke:#181818;stroke-width:1.0;"/><text fill="#000000" font-family="sans-serif" font-size="13" lengthAdjust="spacing" textLength="8" x="962.2395" y="524.9209">1</text><text fill="#000000" font-family="sans-serif" font-size="13" lengthAdjust="spacing" textLength="8" x="979.1896" y="553.9088">1</text></g><!--reverse link GlobalBoard to Deck--><g id="link_GlobalBoard_Deck"><path codeLine="49" d="M1042,853.17 C1042,904.44 1042,946.8 1042,982.37 " fill="none" id="GlobalBoard-backto-Deck" style="stroke:#181818;stroke-width:1.0;"/><polygon fill="#181818" points="1042,841.17,1038,847.17,1042,853.17,1046,847.17,1042,841.17" style="stroke:#181818;stroke-width:1.0;"/><text fill="#000000" font-family="sans-serif" font-size="13" lengthAdjust="spacing" textLength="8" x="1033.7813" y="861.2026">3</text><text fill="#000000" font-family="sans-serif" font-size="13" lengthAdjust="spacing" textLength="8" x="1033.3375" y="971.51">1</text></g><!--reverse link Player to PlayerBoard--><g id="link_Player_PlayerBoard"><path codeLine="68" d="M591.2114,1112.3008 C540.6054,1143.5908 492.93,1173.08 441.443,1204.91 " fill="none" id="Player-backto-PlayerBoard" style="stroke:#181818;stroke-width:1.0;"/><polygon fill="#181818" points="601.418,1105.99,594.2111,1105.7432,591.2114,1112.3008,598.4183,1112.5476,601.418,1105.99" style="stroke:#181818;stroke-width:1.0;"/><text fill="#000000" font-family="sans-serif" font-size="13" lengthAdjust="spacing" textLength="8" x="585.5219" y="1107.4376">1</text><text fill="#000000" font-family="sans-serif" font-size="13" lengthAdjust="spacing" textLength="8" x="444.9078" y="1193.968">1</text></g><!--reverse link Player to Hand--><g id="link_Player_Hand"><path codeLine="83" d="M710.2795,1156.9335 C704.5315,1189.1535 700.706,1210.58 695.926,1237.37 " fill="none" id="Player-backto-Hand" style="stroke:#181818;stroke-width:1.0;"/><polygon fill="#181818" points="712.387,1145.12,707.3954,1150.3242,710.2795,1156.9335,715.2711,1151.7292,712.387,1145.12" style="stroke:#181818;stroke-width:1.0;"/><text fill="#000000" font-family="sans-serif" font-size="13" lengthAdjust="spacing" textLength="8" x="702.9062" y="1164.697">1</text><text fill="#000000" font-family="sans-serif" font-size="13" lengthAdjust="spacing" textLength="8" x="688.6482" y="1226.6177">1</text></g><!--link PlayerBoard to GameCard--><g id="link_PlayerBoard_GameCard"><path codeLine="96" d="M425.359,1383.01 C452.917,1402.21 482.446,1422.77 511.168,1442.78 " fill="none" id="PlayerBoard-GameCard" style="stroke:#181818;stroke-width:1.0;"/><text fill="#000000" font-family="sans-serif" font-size="13" lengthAdjust="spacing" textLength="25" x="410.1438" y="1403.3603">1..N</text><text fill="#000000" font-family="sans-serif" font-size="13" lengthAdjust="spacing" textLength="8" x="492.5444" y="1432.077">1</text></g><!--reverse link Store to GameItemStore--><g id="link_Store_GameItemStore"><path d="M268.3069,1647.3184 C259.4969,1697.7414 251.158,1745.471 243.946,1786.745 " fill="none" id="Store-backto-GameItemStore" style="stroke:#181818;stroke-width:1.0;"/><polygon fill="none" points="271.405,1629.587,262.3965,1646.2857,274.2174,1648.3511,271.405,1629.587" style="stroke:#181818;stroke-width:1.0;"/></g><!--reverse link PlayerBoard to Store--><g id="link_PlayerBoard_Store"><path codeLine="113" d="M293.2319,1395.1701 C291.3529,1427.7901 289.938,1452.377 288.152,1483.401 " fill="none" id="PlayerBoard-backto-Store" style="stroke:#181818;stroke-width:1.0;"/><polygon fill="#181818" points="293.922,1383.19,289.5836,1388.95,293.2319,1395.1701,297.5703,1389.4101,293.922,1383.19" style="stroke:#181818;stroke-width:1.0;"/><text fill="#000000" font-family="sans-serif" font-size="13" lengthAdjust="spacing" textLength="8" x="285.1419" y="1403.5558">2</text><text fill="#000000" font-family="sans-serif" font-size="13" lengthAdjust="spacing" textLength="8" x="280.167" y="1472.5512">1</text></g><!--reverse link Card to GameCard--><g id="link_Card_GameCard"><path codeLine="118" d="M983.1519,1336.5422 C942.0229,1365.5822 892.857,1400.29 832.597,1442.831 " fill="none" id="Card-backto-GameCard" style="stroke:#181818;stroke-width:1.0;"/><polygon fill="none" points="997.856,1326.16,979.6912,1331.6408,986.6126,1341.4435,997.856,1326.16" style="stroke:#181818;stroke-width:1.0;"/></g><!--reverse link Card to ObjectiveCard--><g id="link_Card_ObjectiveCard"><path codeLine="119" d="M1047.6494,1344.0418 C1053.1094,1391.4518 1061.43,1463.757 1067.43,1515.792 " fill="none" id="Card-backto-ObjectiveCard" style="stroke:#181818;stroke-width:1.0;"/><polygon fill="none" points="1045.59,1326.16,1041.6888,1344.7283,1053.61,1343.3554,1045.59,1326.16" style="stroke:#181818;stroke-width:1.0;"/></g><!--reverse link GameCard to Side--><g id="link_GameCard_Side"><path codeLine="135" d="M673,1682.022 C673,1701.89 673,1710.415 673,1729.8 " fill="none" id="GameCard-backto-Side" style="stroke:#181818;stroke-width:1.0;"/><polygon fill="#181818" points="673,1670.022,669,1676.022,673,1682.022,677,1676.022,673,1670.022" style="stroke:#181818;stroke-width:1.0;"/><text fill="#000000" font-family="sans-serif" font-size="13" lengthAdjust="spacing" textLength="8" x="664.7313" y="1690.2156">2</text><text fill="#000000" font-family="sans-serif" font-size="13" lengthAdjust="spacing" textLength="8" x="664.6938" y="1718.8302">1</text></g><!--reverse link Side to Front--><g id="link_Side_Front"><path codeLine="149" d="M527.9063,1935.7333 C484.8743,1967.5363 453.382,1990.812 417.511,2017.322 " fill="none" id="Side-backto-Front" style="stroke:#181818;stroke-width:1.0;"/><polygon fill="none" points="542.382,1925.035,524.3402,1930.9081,531.4724,1940.5586,542.382,1925.035" style="stroke:#181818;stroke-width:1.0;"/></g><!--reverse link Side to Back--><g id="link_Side_Back"><path codeLine="150" d="M634.1049,1942.064 C623.2129,1973.867 617.409,1990.812 608.329,2017.322 " fill="none" id="Side-backto-Back" style="stroke:#181818;stroke-width:1.0;"/><polygon fill="none" points="639.937,1925.035,628.4285,1940.1199,639.7812,1944.008,639.937,1925.035" style="stroke:#181818;stroke-width:1.0;"/></g><!--reverse link Side to Corner--><g id="link_Side_Corner"><path codeLine="151" d="M760.2291,1934.2935 C781.3971,1959.9655 796.097,1977.794 815.418,2001.228 " fill="none" id="Side-backto-Corner" style="stroke:#181818;stroke-width:1.0;"/><polygon fill="#181818" points="752.595,1925.035,753.3259,1932.209,760.2291,1934.2935,759.4982,1927.1195,752.595,1925.035" style="stroke:#181818;stroke-width:1.0;"/><text fill="#000000" font-family="sans-serif" font-size="13" lengthAdjust="spacing" textLength="24" x="733.559" y="1944.8323">1..4</text><text fill="#000000" font-family="sans-serif" font-size="13" lengthAdjust="spacing" textLength="8" x="801.2293" y="1990.3709">1</text></g><!--reverse link Corner to NonExistingCorner--><g id="link_Corner_NonExistingCorner"><path codeLine="166" d="M868,2148.538 C868,2177.18 868,2191.726 868,2215.033 " fill="none" id="Corner-backto-NonExistingCorner" style="stroke:#181818;stroke-width:1.0;"/><polygon fill="none" points="868,2130.538,862,2148.538,874,2148.538,868,2130.538" style="stroke:#181818;stroke-width:1.0;"/></g><!--reverse link Front to FrontGoldCard--><g id="link_Front_FrontGoldCard"><path codeLine="176" d="M353,2132.631 C353,2161.401 353,2179.639 353,2206.843 " fill="none" id="Front-backto-FrontGoldCard" style="stroke:#181818;stroke-width:1.0;"/><polygon fill="none" points="353,2114.631,347,2132.631,359,2132.631,353,2114.631" style="stroke:#181818;stroke-width:1.0;"/></g><!--reverse link FrontGoldCard to FrontPositionalGoldCard--><g id="link_FrontGoldCard_FrontPositionalGoldCard"><path codeLine="183" d="M307.8805,2302.1029 C289.6485,2323.7629 279.025,2336.3853 262.097,2356.4962 " fill="none" id="FrontGoldCard-backto-FrontPositionalGoldCard" style="stroke:#181818;stroke-width:1.0;"/><polygon fill="none" points="319.472,2288.332,303.2902,2298.2391,312.4708,2305.9667,319.472,2288.332" style="stroke:#181818;stroke-width:1.0;"/></g><!--reverse link FrontGoldCard to FrontItemGoldCard--><g id="link_FrontGoldCard_FrontItemGoldCard"><path codeLine="184" d="M398.463,2302.0543 C414.263,2320.6663 421.38,2329.0499 437.181,2347.6624 " fill="none" id="FrontGoldCard-backto-FrontItemGoldCard" style="stroke:#181818;stroke-width:1.0;"/><polygon fill="none" points="386.814,2288.332,393.8889,2305.9373,403.0371,2298.1712,386.814,2288.332" style="stroke:#181818;stroke-width:1.0;"/></g><!--reverse link Player to ObjectiveCard--><g id="link_Player_ObjectiveCard"><path codeLine="213" d="M829.0121,1155.429 C841.6611,1174.939 847.422,1185.17 858,1205 C898.091,1280.15 885.513,1309.77 929,1383 C958.395,1432.503 1001.597,1482.422 1032.82,1515.732 " fill="none" id="Player-backto-ObjectiveCard" style="stroke:#181818;stroke-width:1.0;"/><polygon fill="#181818" points="822.484,1145.36,822.3917,1152.5705,829.0121,1155.429,829.1044,1148.2185,822.484,1145.36" style="stroke:#181818;stroke-width:1.0;"/></g><!--reverse link GlobalBoard to ObjectiveCard--><g id="link_GlobalBoard_ObjectiveCard"><path codeLine="214" d="M1135.6671,852.1043 C1144.8271,871.5343 1147.62,880.9 1153,901 C1208.38,1107.94 1204.12,1174.25 1156,1383 C1144.81,1431.526 1118.04,1482.204 1097.71,1515.971 " fill="none" id="GlobalBoard-backto-ObjectiveCard" style="stroke:#181818;stroke-width:1.0;"/><polygon fill="#181818" points="1130.55,841.25,1129.4905,848.3828,1135.6671,852.1043,1136.7266,844.9714,1130.55,841.25" style="stroke:#181818;stroke-width:1.0;"/></g><!--reverse link ObjectiveCard to PositionalObjectiveCard--><g id="link_ObjectiveCard_PositionalObjectiveCard"><path codeLine="215" d="M1072,1615.192 C1072,1666.051 1072,1735.708 1072,1786.645 " fill="none" id="ObjectiveCard-backto-PositionalObjectiveCard" style="stroke:#181818;stroke-width:1.0;"/><polygon fill="none" points="1072,1597.192,1066,1615.192,1078,1615.192,1072,1597.192" style="stroke:#181818;stroke-width:1.0;"/></g><!--reverse link Deck to Card--><g id="link_Deck_Card"><path codeLine="216" d="M1042,1075.69 C1042,1129.62 1042,1212.92 1042,1261.95 " fill="none" id="Deck-backto-Card" style="stroke:#181818;stroke-width:1.0;"/><polygon fill="#181818" points="1042,1063.69,1038,1069.69,1042,1075.69,1046,1069.69,1042,1063.69" style="stroke:#181818;stroke-width:1.0;"/></g><!--reverse link ObjectiveCard to ItemObjectiveCard--><g id="link_ObjectiveCard_ItemObjectiveCard"><path codeLine="223" d="M1130.6695,1609.0757 C1188.5295,1659.9347 1274.72,1735.708 1332.66,1786.645 " fill="none" id="ObjectiveCard-backto-ItemObjectiveCard" style="stroke:#181818;stroke-width:1.0;"/><polygon fill="none" points="1117.15,1597.192,1126.7083,1613.5822,1134.6308,1604.5692,1117.15,1597.192" style="stroke:#181818;stroke-width:1.0;"/></g><!--reverse link PositionalObjectiveCard to PositionalData--><g id="link_PositionalObjectiveCard_PositionalData"><path codeLine="234" d="M1089.6518,1879.4226 C1100.6418,1911.1126 1112.48,1945.261 1126.1,1984.534 " fill="none" id="PositionalObjectiveCard-backto-PositionalData" style="stroke:#181818;stroke-width:1.0;"/><polygon fill="#181818" points="1085.72,1868.085,1083.9067,1875.0644,1089.6518,1879.4226,1091.4651,1872.4432,1085.72,1868.085" style="stroke:#181818;stroke-width:1.0;"/><text fill="#000000" font-family="sans-serif" font-size="13" lengthAdjust="spacing" textLength="25" x="1060.9068" y="1887.5562">1..N</text><text fill="#000000" font-family="sans-serif" font-size="13" lengthAdjust="spacing" textLength="8" x="1115.3586" y="1973.9577">1</text></g><!--SRC=[jLZTKnit47_tNw6X3pY9ePEaZmmpu83nn1mkDfE7JgSZdnUZz7poI3e2IVdVk_gMxewGjbCUGDfTxSTlTwKzoefAIIPq2vUqfXiGvDk0uC_1YH3qSSQaEjBCOxB1tzAmtfG2g09D7YwKOFM6rBWU4LOhKiyh-WX2ZeXZxSo-G85NzlGQAkYUTioELL1w8OUEhpVaCsTrrtgFlQT16jZUsyF3Oe-yFZZ0vPw9UJ0eG_pa6p4szYSW5UCra0tZ9LLSC08O6_lA-C-t3EaxAXHJrEBap6fuj55BJ95emsd9nyvHnvvKV4MhKqx5ccpYsZBj2L8sGa2jxCx28HNV6IGSF7IzjkoXEsEDEAw0BR-7xmWWsixfOPioV2wTA570WvUAn2GYJsLoeH0wq8IdWSaDsNjtUFXBJ8eBphBU9ibACF4vIo1pDVi1oZ_9XbThlKX80YHlH0ajCbzzXbAn-pPT6Yz5f5vvmJ4Q- -tTx_6aJn_wwtct3Ahr19tGXEVurywZA1E1S_udM5ud_YVagzJ_FdgQnlFChJOZyySpru9-qOHpmRT6QkZZCFdRJpD0C54amscGilVUnrmQN5qINHNQ_ErVK59H8XlgwERioDFkQ8qRLk66axhPWk1apOXWaWi9X2hLq8e5yHsNkcMnNsLJ4KLNK5Lw1ru5Np5Gw2q_p3evLdZiPKkRSvasf8ri5zSznH8hPHm4BZ0E4qohnOgaaGCnQw10HKywDAsshmZ6YGBPfcUxS8dSqxg4Q4aZ81Nif1NOBmBsEymXqukoOOJYiQzKWAuDbzUqXPDuVFPDjtNU6-tACIb3PuGwjDU6EsjGx7shxFa8S1_NlIjPkTzpjYPuWnfJiT8ZpzwVBNP_iDgxlCQpY-g2ohjBkZkQuqkcHYJwrQacpPegs2xm7GBpokYT0-PgfnygMlK7DZJQNxL43J6JmnGppMp7_AEuJMi5-drrFEtVoPOtjHhwRGgYR3iOmtTYAyuhe3LX4f4hWQugw4e6sDtzOj_sv6aV9tLcm3jQ7ZluV_BmBqV4EN-C1OuoeNk6Iw9Yp-XT48rFRH_PraWVHp-Kl3xRxjJZHtYKjfZZ-16JZAyfr6ldjNFvJIQIJaEHwAFor2IuK3UsWpBatiMgDNe60uGQn2r2JyQnPir5exCWXybnhSy87Vs5EWBkaPG_2KcyYUg31Lk37s_qEg5oTGSYqlIfCQ-uCFU3MLdlZ32wE8vQihwMNvWgxr9oLAMFwSMmtIjZBce3dnRGow7zupkcbGPTsrPWZ3KWSCx9nKV4bNPV-jBsoPASj5SV_lsQ2e0rh5DTRk0QTtAkiHtGbLI2beguXj5ekcQnCH2SDA_PvawrYJEupMahhXJVFaEEAjwy0Eh_WkL_nz0WOoeRfw9Q9VjJYcEDsUhBA9bfhUE-zXqS5boiw7ZRkK0z8rILRzw1uyHwIy9q4NQgqM9tccA5CgV1wDa3Nl0uzWnVaMy2L2DgeaG3JzfOk9_qlUNaClU_h-UMLX8LuGLXpnYKEgfmZZH86kGM-gxWjRTh6BuEpHncaXT7vN-GOmp6gel9yzDmPiuJlTcyBEfG4pBv_EcfarnNjEdhbrR1-dEYMcDqCVMng-I5IzfyO3nbEbBj_XuEfRDjAiLs5VFVcSzZkg_BlYztcjwFeVyQ-zTvtCz7x62uTOdbKkuJGpzf2kBiRntqTwojhq-ex0KNtCZtklt2aUohfyCUvC8crp6PkQWPZhM6j4GrIdrnjUR47yzVZqCT6s6G3Pv-e8fwoqQnHUw5DzfAUb_wts6_QOyuFNTTc2UjkeSHUMmnehQmqa4_WtZx7qHvk5qGUlEG_9ydEtvilaSJTI_L-1b-uSRI1htBNq1dSNar_-DwEhbOXjtixDnkJg-MowlBpjvAFpcb0M2hRZuxAQpqIJ6zF9cPvVbDCPcQrRHOd8qj_zURwMpcY1y_dRdrvKbninXVJ-TMgBX1kZSLCsrjNRl7xhHgx7Wt4G2szUQDs5MMM423NLqDdlu6]--></g></svg>