<?xml version="1.0" encoding="us-ascii" standalone="no"?><svg xmlns="http://www.w3.org/2000/svg" xmlns:xlink="http://www.w3.org/1999/xlink" contentStyleType="text/css" height="2148px" preserveAspectRatio="none" style="width:1991px;height:2148px;background:#FFFFFF;" version="1.1" viewBox="0 0 1991 2148" width="1991px" zoomAndPan="magnify"><defs/><g><!--class GameManager--><g id="elem_GameManager"><rect codeLine="1" fill="#F1F1F1" height="194.6719" id="GameManager" rx="2.5" ry="2.5" style="stroke:#181818;stroke-width:0.5;" width="534" x="1092.5" y="7"/><ellipse cx="1303.75" cy="23" fill="#ADD1B2" rx="11" ry="11" style="stroke:#181818;stroke-width:1.0;"/><path d="M1306.0938,18.6719 C1305.1563,18.2344 1304.5625,18.0938 1303.6875,18.0938 C1301.0625,18.0938 1299.0625,20.1719 1299.0625,22.8906 L1299.0625,24.0156 C1299.0625,26.5938 1301.1719,28.4844 1304.0625,28.4844 C1305.2813,28.4844 1306.4375,28.1875 1307.1875,27.6406 C1307.7656,27.2344 1308.0938,26.7813 1308.0938,26.3906 C1308.0938,25.9375 1307.7031,25.5469 1307.2344,25.5469 C1307.0156,25.5469 1306.8125,25.625 1306.625,25.8125 C1306.1719,26.2969 1306.1719,26.2969 1305.9844,26.3906 C1305.5625,26.6563 1304.875,26.7813 1304.1094,26.7813 C1302.0625,26.7813 1300.7656,25.6875 1300.7656,23.9844 L1300.7656,22.8906 C1300.7656,21.1094 1302.0156,19.7969 1303.75,19.7969 C1304.3281,19.7969 1304.9375,19.9531 1305.4063,20.2031 C1305.8906,20.4844 1306.0625,20.7031 1306.1563,21.1094 C1306.2188,21.5156 1306.25,21.6406 1306.3906,21.7656 C1306.5313,21.9063 1306.7656,22.0156 1306.9844,22.0156 C1307.25,22.0156 1307.5156,21.875 1307.6875,21.6563 C1307.7969,21.5 1307.8281,21.3125 1307.8281,20.8906 L1307.8281,19.4688 C1307.8281,19.0313 1307.8125,18.9063 1307.7188,18.75 C1307.5625,18.4844 1307.2813,18.3438 1306.9844,18.3438 C1306.6875,18.3438 1306.4844,18.4375 1306.2656,18.75 L1306.0938,18.6719 Z " fill="#000000"/><text fill="#000000" font-family="sans-serif" font-size="14" lengthAdjust="spacing" textLength="103" x="1324.25" y="27.8467">GameManager</text><line style="stroke:#181818;stroke-width:0.5;" x1="1093.5" x2="1625.5" y1="39" y2="39"/><rect fill="none" height="6" style="stroke:#C82930;stroke-width:1.0;" width="6" x="1100.5" y="49.6484"/><text fill="#000000" font-family="sans-serif" font-size="14" lengthAdjust="spacing" textLength="179" x="1112.5" y="55.9951">ArrayList&lt;Game&gt; games</text><rect fill="none" height="6" style="stroke:#C82930;stroke-width:1.0;" width="6" x="1100.5" y="65.9453"/><text fill="#000000" font-family="sans-serif" font-size="14" lengthAdjust="spacing" textLength="286" x="1112.5" y="72.292">ArrayList&lt;GameCard&gt; defaultGoldDeck</text><rect fill="none" height="6" style="stroke:#C82930;stroke-width:1.0;" width="6" x="1100.5" y="82.2422"/><text fill="#000000" font-family="sans-serif" font-size="14" lengthAdjust="spacing" textLength="319" x="1112.5" y="88.5889">ArrayList&lt;GameCard&gt; defaultResourceDeck</text><rect fill="none" height="6" style="stroke:#C82930;stroke-width:1.0;" width="6" x="1100.5" y="98.5391"/><text fill="#000000" font-family="sans-serif" font-size="14" lengthAdjust="spacing" textLength="351" x="1112.5" y="104.8857">ArrayList&lt;ObjectiveCard&gt; defaultObjectiveDeck</text><rect fill="none" height="6" style="stroke:#C82930;stroke-width:1.0;" width="6" x="1100.5" y="114.8359"/><text fill="#000000" font-family="sans-serif" font-size="14" lengthAdjust="spacing" textLength="305" x="1112.5" y="121.1826">ArrayList&lt;GameCard&gt; defaultStarterDeck</text><line style="stroke:#181818;stroke-width:0.5;" x1="1093.5" x2="1625.5" y1="128.4844" y2="128.4844"/><ellipse cx="1103.5" cy="142.1328" fill="#84BE84" rx="3" ry="3" style="stroke:#038048;stroke-width:1.0;"/><text fill="#000000" font-family="sans-serif" font-size="14" lengthAdjust="spacing" textLength="216" x="1112.5" y="145.4795">ArrayList&lt;Game&gt; getGames()</text><ellipse cx="1103.5" cy="158.4297" fill="#84BE84" rx="3" ry="3" style="stroke:#038048;stroke-width:1.0;"/><text fill="#000000" font-family="sans-serif" font-size="14" lengthAdjust="spacing" textLength="508" x="1112.5" y="161.7764">Game createGame(String gameName, int nPlayers, String playerName)</text><ellipse cx="1103.5" cy="174.7266" fill="#84BE84" rx="3" ry="3" style="stroke:#038048;stroke-width:1.0;"/><text fill="#000000" font-family="sans-serif" font-size="14" lengthAdjust="spacing" textLength="228" x="1112.5" y="178.0732">deleteGame(String gameName)</text><ellipse cx="1103.5" cy="191.0234" fill="#84BE84" rx="3" ry="3" style="stroke:#038048;stroke-width:1.0;"/><text fill="#000000" font-family="sans-serif" font-size="14" lengthAdjust="spacing" textLength="395" x="1112.5" y="194.3701">Game joinGame(String gameName, String playerName)</text></g><!--class Game--><g id="elem_Game"><rect codeLine="14" fill="#F1F1F1" height="259.8594" id="Game" rx="2.5" ry="2.5" style="stroke:#181818;stroke-width:0.5;" width="287" x="1216" y="262"/><ellipse cx="1334.25" cy="278" fill="#ADD1B2" rx="11" ry="11" style="stroke:#181818;stroke-width:1.0;"/><path d="M1336.5938,273.6719 C1335.6563,273.2344 1335.0625,273.0938 1334.1875,273.0938 C1331.5625,273.0938 1329.5625,275.1719 1329.5625,277.8906 L1329.5625,279.0156 C1329.5625,281.5938 1331.6719,283.4844 1334.5625,283.4844 C1335.7813,283.4844 1336.9375,283.1875 1337.6875,282.6406 C1338.2656,282.2344 1338.5938,281.7813 1338.5938,281.3906 C1338.5938,280.9375 1338.2031,280.5469 1337.7344,280.5469 C1337.5156,280.5469 1337.3125,280.625 1337.125,280.8125 C1336.6719,281.2969 1336.6719,281.2969 1336.4844,281.3906 C1336.0625,281.6563 1335.375,281.7813 1334.6094,281.7813 C1332.5625,281.7813 1331.2656,280.6875 1331.2656,278.9844 L1331.2656,277.8906 C1331.2656,276.1094 1332.5156,274.7969 1334.25,274.7969 C1334.8281,274.7969 1335.4375,274.9531 1335.9063,275.2031 C1336.3906,275.4844 1336.5625,275.7031 1336.6563,276.1094 C1336.7188,276.5156 1336.75,276.6406 1336.8906,276.7656 C1337.0313,276.9063 1337.2656,277.0156 1337.4844,277.0156 C1337.75,277.0156 1338.0156,276.875 1338.1875,276.6563 C1338.2969,276.5 1338.3281,276.3125 1338.3281,275.8906 L1338.3281,274.4688 C1338.3281,274.0313 1338.3125,273.9063 1338.2188,273.75 C1338.0625,273.4844 1337.7813,273.3438 1337.4844,273.3438 C1337.1875,273.3438 1336.9844,273.4375 1336.7656,273.75 L1336.5938,273.6719 Z " fill="#000000"/><text fill="#000000" font-family="sans-serif" font-size="14" lengthAdjust="spacing" textLength="42" x="1354.75" y="282.8467">Game</text><line style="stroke:#181818;stroke-width:0.5;" x1="1217" x2="1502" y1="294" y2="294"/><rect fill="none" height="6" style="stroke:#C82930;stroke-width:1.0;" width="6" x="1224" y="304.6484"/><text fill="#000000" font-family="sans-serif" font-size="14" lengthAdjust="spacing" textLength="129" x="1236" y="310.9951">String gameName</text><rect fill="none" height="6" style="stroke:#C82930;stroke-width:1.0;" width="6" x="1224" y="320.9453"/><text fill="#000000" font-family="sans-serif" font-size="14" lengthAdjust="spacing" textLength="84" x="1236" y="327.292">int nPlayers</text><rect fill="none" height="6" style="stroke:#C82930;stroke-width:1.0;" width="6" x="1224" y="337.2422"/><text fill="#000000" font-family="sans-serif" font-size="14" lengthAdjust="spacing" textLength="186" x="1236" y="343.5889">ArrayList&lt;Player&gt; players</text><rect fill="none" height="6" style="stroke:#C82930;stroke-width:1.0;" width="6" x="1224" y="353.5391"/><text fill="#000000" font-family="sans-serif" font-size="14" lengthAdjust="spacing" textLength="178" x="1236" y="359.8857">GlobalBoard globalBoard</text><rect fill="none" height="6" style="stroke:#C82930;stroke-width:1.0;" width="6" x="1224" y="369.8359"/><text fill="#000000" font-family="sans-serif" font-size="14" lengthAdjust="spacing" textLength="145" x="1236" y="376.1826">Player currentPlayer</text><line style="stroke:#181818;stroke-width:0.5;" x1="1217" x2="1502" y1="383.4844" y2="383.4844"/><ellipse cx="1227" cy="397.1328" fill="#84BE84" rx="3" ry="3" style="stroke:#038048;stroke-width:1.0;"/><text fill="#000000" font-family="sans-serif" font-size="14" lengthAdjust="spacing" textLength="166" x="1236" y="400.4795">String getGameName()</text><ellipse cx="1227" cy="413.4297" fill="#84BE84" rx="3" ry="3" style="stroke:#038048;stroke-width:1.0;"/><text fill="#000000" font-family="sans-serif" font-size="14" lengthAdjust="spacing" textLength="220" x="1236" y="416.7764">ArrayList&lt;Player&gt; getPlayers()</text><ellipse cx="1227" cy="429.7266" fill="#84BE84" rx="3" ry="3" style="stroke:#038048;stroke-width:1.0;"/><text fill="#000000" font-family="sans-serif" font-size="14" lengthAdjust="spacing" textLength="261" x="1236" y="433.0732">Player getPlayer(String playerName)</text><ellipse cx="1227" cy="446.0234" fill="#84BE84" rx="3" ry="3" style="stroke:#038048;stroke-width:1.0;"/><text fill="#000000" font-family="sans-serif" font-size="14" lengthAdjust="spacing" textLength="215" x="1236" y="449.3701">GlobalBoard getGlobalBoard()</text><ellipse cx="1227" cy="462.3203" fill="#84BE84" rx="3" ry="3" style="stroke:#038048;stroke-width:1.0;"/><text fill="#000000" font-family="sans-serif" font-size="14" lengthAdjust="spacing" textLength="173" x="1236" y="465.667">addPlayer(Player player)</text><ellipse cx="1227" cy="478.6172" fill="#84BE84" rx="3" ry="3" style="stroke:#038048;stroke-width:1.0;"/><text fill="#000000" font-family="sans-serif" font-size="14" lengthAdjust="spacing" textLength="161" x="1236" y="481.9639">Player getNextPlayer()</text><ellipse cx="1227" cy="494.9141" fill="#84BE84" rx="3" ry="3" style="stroke:#038048;stroke-width:1.0;"/><text fill="#000000" font-family="sans-serif" font-size="14" lengthAdjust="spacing" textLength="138" x="1236" y="498.2607">boolean isStarted()</text><ellipse cx="1227" cy="511.2109" fill="#84BE84" rx="3" ry="3" style="stroke:#038048;stroke-width:1.0;"/><text fill="#000000" font-family="sans-serif" font-size="14" lengthAdjust="spacing" textLength="220" x="1236" y="514.5576">ArrayList&lt;Player&gt; getWinner()</text></g><g id="elem_GMN5"><path d="M922,379.5 L922,404.6328 A0,0 0 0 0 922,404.6328 L1181,404.6328 A0,0 0 0 0 1181,404.6328 L1181,397.5 L1215.97,392 L1181,389.5 L1181,389.5 L1171,379.5 L922,379.5 A0,0 0 0 0 922,379.5 " fill="#FEFFDD" style="stroke:#181818;stroke-width:0.5;"/><path d="M1171,379.5 L1171,389.5 L1181,389.5 L1171,379.5 " fill="#FEFFDD" style="stroke:#181818;stroke-width:0.5;"/><text fill="#000000" font-family="sans-serif" font-size="13" lengthAdjust="spacing" textLength="238" x="928" y="396.5669">Gestione giocatori e inizio/fine partita</text></g><!--class Player--><g id="elem_Player"><rect codeLine="60" fill="#F1F1F1" height="243.5625" id="Player" rx="2.5" ry="2.5" style="stroke:#181818;stroke-width:0.5;" width="265" x="1049" y="622.5"/><ellipse cx="1155.25" cy="638.5" fill="#ADD1B2" rx="11" ry="11" style="stroke:#181818;stroke-width:1.0;"/><path d="M1157.5938,634.1719 C1156.6563,633.7344 1156.0625,633.5938 1155.1875,633.5938 C1152.5625,633.5938 1150.5625,635.6719 1150.5625,638.3906 L1150.5625,639.5156 C1150.5625,642.0938 1152.6719,643.9844 1155.5625,643.9844 C1156.7813,643.9844 1157.9375,643.6875 1158.6875,643.1406 C1159.2656,642.7344 1159.5938,642.2813 1159.5938,641.8906 C1159.5938,641.4375 1159.2031,641.0469 1158.7344,641.0469 C1158.5156,641.0469 1158.3125,641.125 1158.125,641.3125 C1157.6719,641.7969 1157.6719,641.7969 1157.4844,641.8906 C1157.0625,642.1563 1156.375,642.2813 1155.6094,642.2813 C1153.5625,642.2813 1152.2656,641.1875 1152.2656,639.4844 L1152.2656,638.3906 C1152.2656,636.6094 1153.5156,635.2969 1155.25,635.2969 C1155.8281,635.2969 1156.4375,635.4531 1156.9063,635.7031 C1157.3906,635.9844 1157.5625,636.2031 1157.6563,636.6094 C1157.7188,637.0156 1157.75,637.1406 1157.8906,637.2656 C1158.0313,637.4063 1158.2656,637.5156 1158.4844,637.5156 C1158.75,637.5156 1159.0156,637.375 1159.1875,637.1563 C1159.2969,637 1159.3281,636.8125 1159.3281,636.3906 L1159.3281,634.9688 C1159.3281,634.5313 1159.3125,634.4063 1159.2188,634.25 C1159.0625,633.9844 1158.7813,633.8438 1158.4844,633.8438 C1158.1875,633.8438 1157.9844,633.9375 1157.7656,634.25 L1157.5938,634.1719 Z " fill="#000000"/><text fill="#000000" font-family="sans-serif" font-size="14" lengthAdjust="spacing" textLength="44" x="1175.75" y="643.3467">Player</text><line style="stroke:#181818;stroke-width:0.5;" x1="1050" x2="1313" y1="654.5" y2="654.5"/><rect fill="none" height="6" style="stroke:#C82930;stroke-width:1.0;" width="6" x="1057" y="665.1484"/><text fill="#000000" font-family="sans-serif" font-size="14" lengthAdjust="spacing" textLength="134" x="1069" y="671.4951">String playerName</text><rect fill="none" height="6" style="stroke:#C82930;stroke-width:1.0;" width="6" x="1057" y="681.4453"/><text fill="#000000" font-family="sans-serif" font-size="14" lengthAdjust="spacing" textLength="94" x="1069" y="687.792">int playerPos</text><rect fill="none" height="6" style="stroke:#C82930;stroke-width:1.0;" width="6" x="1057" y="697.7422"/><text fill="#000000" font-family="sans-serif" font-size="14" lengthAdjust="spacing" textLength="177" x="1069" y="704.0889">PlayerBoard playerBoard</text><rect fill="none" height="6" style="stroke:#C82930;stroke-width:1.0;" width="6" x="1057" y="714.0391"/><text fill="#000000" font-family="sans-serif" font-size="14" lengthAdjust="spacing" textLength="208" x="1069" y="720.3857">ObjectiveCard objectiveCard</text><rect fill="none" height="6" style="stroke:#C82930;stroke-width:1.0;" width="6" x="1057" y="730.3359"/><text fill="#000000" font-family="sans-serif" font-size="14" lengthAdjust="spacing" textLength="75" x="1069" y="736.6826">Hand hand</text><line style="stroke:#181818;stroke-width:0.5;" x1="1050" x2="1313" y1="743.9844" y2="743.9844"/><ellipse cx="1060" cy="757.6328" fill="#84BE84" rx="3" ry="3" style="stroke:#038048;stroke-width:1.0;"/><text fill="#000000" font-family="sans-serif" font-size="14" lengthAdjust="spacing" textLength="120" x="1069" y="760.9795">getPlayerName()</text><ellipse cx="1060" cy="773.9297" fill="#84BE84" rx="3" ry="3" style="stroke:#038048;stroke-width:1.0;"/><text fill="#000000" font-family="sans-serif" font-size="14" lengthAdjust="spacing" textLength="121" x="1069" y="777.2764">getPlayerBoard()</text><ellipse cx="1060" cy="790.2266" fill="#84BE84" rx="3" ry="3" style="stroke:#038048;stroke-width:1.0;"/><text fill="#000000" font-family="sans-serif" font-size="14" lengthAdjust="spacing" textLength="104" x="1069" y="793.5732">getPlayerPos()</text><ellipse cx="1060" cy="806.5234" fill="#84BE84" rx="3" ry="3" style="stroke:#038048;stroke-width:1.0;"/><text fill="#000000" font-family="sans-serif" font-size="14" lengthAdjust="spacing" textLength="115" x="1069" y="809.8701">getPlayerHand()</text><ellipse cx="1060" cy="822.8203" fill="#84BE84" rx="3" ry="3" style="stroke:#038048;stroke-width:1.0;"/><text fill="#000000" font-family="sans-serif" font-size="14" lengthAdjust="spacing" textLength="138" x="1069" y="826.167">getObjectiveCard()</text><ellipse cx="1060" cy="839.1172" fill="#84BE84" rx="3" ry="3" style="stroke:#038048;stroke-width:1.0;"/><text fill="#000000" font-family="sans-serif" font-size="14" lengthAdjust="spacing" textLength="239" x="1069" y="842.4639">setObjectiveCard(ObjectiveCard)</text><ellipse cx="1060" cy="855.4141" fill="#84BE84" rx="3" ry="3" style="stroke:#038048;stroke-width:1.0;"/><text fill="#000000" font-family="sans-serif" font-size="14" lengthAdjust="spacing" textLength="202" x="1069" y="858.7607">advancePlayerPos(int steps)</text></g><!--class GlobalBoard--><g id="elem_GlobalBoard"><rect codeLine="37" fill="#F1F1F1" height="325.0469" id="GlobalBoard" rx="2.5" ry="2.5" style="stroke:#181818;stroke-width:0.5;" width="377" x="1349" y="582"/><ellipse cx="1489.25" cy="598" fill="#ADD1B2" rx="11" ry="11" style="stroke:#181818;stroke-width:1.0;"/><path d="M1491.5938,593.6719 C1490.6563,593.2344 1490.0625,593.0938 1489.1875,593.0938 C1486.5625,593.0938 1484.5625,595.1719 1484.5625,597.8906 L1484.5625,599.0156 C1484.5625,601.5938 1486.6719,603.4844 1489.5625,603.4844 C1490.7813,603.4844 1491.9375,603.1875 1492.6875,602.6406 C1493.2656,602.2344 1493.5938,601.7813 1493.5938,601.3906 C1493.5938,600.9375 1493.2031,600.5469 1492.7344,600.5469 C1492.5156,600.5469 1492.3125,600.625 1492.125,600.8125 C1491.6719,601.2969 1491.6719,601.2969 1491.4844,601.3906 C1491.0625,601.6563 1490.375,601.7813 1489.6094,601.7813 C1487.5625,601.7813 1486.2656,600.6875 1486.2656,598.9844 L1486.2656,597.8906 C1486.2656,596.1094 1487.5156,594.7969 1489.25,594.7969 C1489.8281,594.7969 1490.4375,594.9531 1490.9063,595.2031 C1491.3906,595.4844 1491.5625,595.7031 1491.6563,596.1094 C1491.7188,596.5156 1491.75,596.6406 1491.8906,596.7656 C1492.0313,596.9063 1492.2656,597.0156 1492.4844,597.0156 C1492.75,597.0156 1493.0156,596.875 1493.1875,596.6563 C1493.2969,596.5 1493.3281,596.3125 1493.3281,595.8906 L1493.3281,594.4688 C1493.3281,594.0313 1493.3125,593.9063 1493.2188,593.75 C1493.0625,593.4844 1492.7813,593.3438 1492.4844,593.3438 C1492.1875,593.3438 1491.9844,593.4375 1491.7656,593.75 L1491.5938,593.6719 Z " fill="#000000"/><text fill="#000000" font-family="sans-serif" font-size="14" lengthAdjust="spacing" textLength="88" x="1509.75" y="602.8467">GlobalBoard</text><line style="stroke:#181818;stroke-width:0.5;" x1="1350" x2="1725" y1="614" y2="614"/><rect fill="none" height="6" style="stroke:#C82930;stroke-width:1.0;" width="6" x="1357" y="624.6484"/><text fill="#000000" font-family="sans-serif" font-size="14" lengthAdjust="spacing" textLength="206" x="1369" y="630.9951">Deck&lt;GameCard&gt; goldDeck</text><rect fill="none" height="6" style="stroke:#C82930;stroke-width:1.0;" width="6" x="1357" y="640.9453"/><text fill="#000000" font-family="sans-serif" font-size="14" lengthAdjust="spacing" textLength="237" x="1369" y="647.292">Deck&lt;GameCard&gt; resourceDeck</text><rect fill="none" height="6" style="stroke:#C82930;stroke-width:1.0;" width="6" x="1357" y="657.2422"/><text fill="#000000" font-family="sans-serif" font-size="14" lengthAdjust="spacing" textLength="271" x="1369" y="663.5889">Deck&lt;ObjectiveCard&gt; objectiveDeck</text><rect fill="none" height="6" style="stroke:#C82930;stroke-width:1.0;" width="6" x="1357" y="673.5391"/><text fill="#000000" font-family="sans-serif" font-size="14" lengthAdjust="spacing" textLength="225" x="1369" y="679.8857">Deck&lt;GameCard&gt; starterDeck</text><rect fill="none" height="6" style="stroke:#C82930;stroke-width:1.0;" width="6" x="1357" y="689.8359"/><text fill="#000000" font-family="sans-serif" font-size="14" lengthAdjust="spacing" textLength="314" x="1369" y="696.1826">ArrayList&lt;ObjectiveCard&gt; globalObjectives</text><rect fill="none" height="6" style="stroke:#C82930;stroke-width:1.0;" width="6" x="1357" y="706.1328"/><text fill="#000000" font-family="sans-serif" font-size="14" lengthAdjust="spacing" textLength="270" x="1369" y="712.4795">ArrayList&lt;GameCard&gt; fieldGoldCards</text><rect fill="none" height="6" style="stroke:#C82930;stroke-width:1.0;" width="6" x="1357" y="722.4297"/><text fill="#000000" font-family="sans-serif" font-size="14" lengthAdjust="spacing" textLength="303" x="1369" y="728.7764">ArrayList&lt;GameCard&gt; fieldResourceCards</text><line style="stroke:#181818;stroke-width:0.5;" x1="1350" x2="1725" y1="736.0781" y2="736.0781"/><ellipse cx="1360" cy="749.7266" fill="#84BE84" rx="3" ry="3" style="stroke:#038048;stroke-width:1.0;"/><text fill="#000000" font-family="sans-serif" font-size="14" lengthAdjust="spacing" textLength="243" x="1369" y="753.0732">Deck&lt;GameCard&gt; getGoldDeck()</text><ellipse cx="1360" cy="766.0234" fill="#84BE84" rx="3" ry="3" style="stroke:#038048;stroke-width:1.0;"/><text fill="#000000" font-family="sans-serif" font-size="14" lengthAdjust="spacing" textLength="276" x="1369" y="769.3701">Deck&lt;GameCard&gt; getResourceDeck()</text><ellipse cx="1360" cy="782.3203" fill="#84BE84" rx="3" ry="3" style="stroke:#038048;stroke-width:1.0;"/><text fill="#000000" font-family="sans-serif" font-size="14" lengthAdjust="spacing" textLength="308" x="1369" y="785.667">Deck&lt;ObjectiveCard&gt; getObjectiveDeck()</text><ellipse cx="1360" cy="798.6172" fill="#84BE84" rx="3" ry="3" style="stroke:#038048;stroke-width:1.0;"/><text fill="#000000" font-family="sans-serif" font-size="14" lengthAdjust="spacing" textLength="262" x="1369" y="801.9639">Deck&lt;GameCard&gt; getStarterDeck()</text><ellipse cx="1360" cy="814.9141" fill="#84BE84" rx="3" ry="3" style="stroke:#038048;stroke-width:1.0;"/><text fill="#000000" font-family="sans-serif" font-size="14" lengthAdjust="spacing" textLength="351" x="1369" y="818.2607">ArrayList&lt;ObjectiveCard&gt; getGlobalObjectives()</text><ellipse cx="1360" cy="831.2109" fill="#84BE84" rx="3" ry="3" style="stroke:#038048;stroke-width:1.0;"/><text fill="#000000" font-family="sans-serif" font-size="14" lengthAdjust="spacing" textLength="307" x="1369" y="834.5576">ArrayList&lt;GameCard&gt; getFieldGoldCards()</text><ellipse cx="1360" cy="847.5078" fill="#84BE84" rx="3" ry="3" style="stroke:#038048;stroke-width:1.0;"/><text fill="#000000" font-family="sans-serif" font-size="14" lengthAdjust="spacing" textLength="340" x="1369" y="850.8545">ArrayList&lt;GameCard&gt; getFieldResourceCards()</text><ellipse cx="1360" cy="863.8047" fill="#84BE84" rx="3" ry="3" style="stroke:#038048;stroke-width:1.0;"/><text fill="#000000" font-family="sans-serif" font-size="14" lengthAdjust="spacing" textLength="201" x="1369" y="867.1514">boolean isGoldDeckEmpty()</text><ellipse cx="1360" cy="880.1016" fill="#84BE84" rx="3" ry="3" style="stroke:#038048;stroke-width:1.0;"/><text fill="#000000" font-family="sans-serif" font-size="14" lengthAdjust="spacing" textLength="234" x="1369" y="883.4482">boolean isResourceDeckEmpty()</text><ellipse cx="1360" cy="896.3984" fill="#84BE84" rx="3" ry="3" style="stroke:#038048;stroke-width:1.0;"/><text fill="#000000" font-family="sans-serif" font-size="14" lengthAdjust="spacing" textLength="258" x="1369" y="899.7451">drawCardFromField(GameCard card)</text></g><!--class Deck--><g id="elem_Deck"><rect codeLine="79" fill="#F1F1F1" height="113.1875" id="Deck" rx="2.5" ry="2.5" style="stroke:#181818;stroke-width:0.5;" width="160" x="1597.5" y="991.5"/><ellipse cx="1649.25" cy="1007.5" fill="#ADD1B2" rx="11" ry="11" style="stroke:#181818;stroke-width:1.0;"/><path d="M1651.5938,1003.1719 C1650.6563,1002.7344 1650.0625,1002.5938 1649.1875,1002.5938 C1646.5625,1002.5938 1644.5625,1004.6719 1644.5625,1007.3906 L1644.5625,1008.5156 C1644.5625,1011.0938 1646.6719,1012.9844 1649.5625,1012.9844 C1650.7813,1012.9844 1651.9375,1012.6875 1652.6875,1012.1406 C1653.2656,1011.7344 1653.5938,1011.2813 1653.5938,1010.8906 C1653.5938,1010.4375 1653.2031,1010.0469 1652.7344,1010.0469 C1652.5156,1010.0469 1652.3125,1010.125 1652.125,1010.3125 C1651.6719,1010.7969 1651.6719,1010.7969 1651.4844,1010.8906 C1651.0625,1011.1563 1650.375,1011.2813 1649.6094,1011.2813 C1647.5625,1011.2813 1646.2656,1010.1875 1646.2656,1008.4844 L1646.2656,1007.3906 C1646.2656,1005.6094 1647.5156,1004.2969 1649.25,1004.2969 C1649.8281,1004.2969 1650.4375,1004.4531 1650.9063,1004.7031 C1651.3906,1004.9844 1651.5625,1005.2031 1651.6563,1005.6094 C1651.7188,1006.0156 1651.75,1006.1406 1651.8906,1006.2656 C1652.0313,1006.4063 1652.2656,1006.5156 1652.4844,1006.5156 C1652.75,1006.5156 1653.0156,1006.375 1653.1875,1006.1563 C1653.2969,1006 1653.3281,1005.8125 1653.3281,1005.3906 L1653.3281,1003.9688 C1653.3281,1003.5313 1653.3125,1003.4063 1653.2188,1003.25 C1653.0625,1002.9844 1652.7813,1002.8438 1652.4844,1002.8438 C1652.1875,1002.8438 1651.9844,1002.9375 1651.7656,1003.25 L1651.5938,1003.1719 Z " fill="#000000"/><text fill="#000000" font-family="sans-serif" font-size="14" lengthAdjust="spacing" textLength="37" x="1669.75" y="1012.3467">Deck</text><rect fill="#FFFFFF" height="15.9688" style="stroke:#181818;stroke-width:1.0;stroke-dasharray:2.0,2.0;" width="9" x="1751.5" y="988.5"/><text fill="#000000" font-family="sans-serif" font-size="12" font-style="italic" lengthAdjust="spacing" textLength="7" x="1752.5" y="1000.6387">T</text><line style="stroke:#181818;stroke-width:0.5;" x1="1598.5" x2="1756.5" y1="1023.5" y2="1023.5"/><rect fill="none" height="6" style="stroke:#C82930;stroke-width:1.0;" width="6" x="1605.5" y="1034.1484"/><text fill="#000000" font-family="sans-serif" font-size="14" lengthAdjust="spacing" textLength="134" x="1617.5" y="1040.4951">ArrayList&lt;T&gt; deck</text><rect fill="none" height="6" style="stroke:#C82930;stroke-width:1.0;" width="6" x="1605.5" y="1050.4453"/><text fill="#000000" font-family="sans-serif" font-size="14" lengthAdjust="spacing" textLength="123" x="1617.5" y="1056.792">Random random;</text><line style="stroke:#181818;stroke-width:0.5;" x1="1598.5" x2="1756.5" y1="1064.0938" y2="1064.0938"/><ellipse cx="1608.5" cy="1077.7422" fill="#84BE84" rx="3" ry="3" style="stroke:#038048;stroke-width:1.0;"/><text fill="#000000" font-family="sans-serif" font-size="14" lengthAdjust="spacing" textLength="131" x="1617.5" y="1081.0889">boolean isEmpty()</text><ellipse cx="1608.5" cy="1094.0391" fill="#84BE84" rx="3" ry="3" style="stroke:#038048;stroke-width:1.0;"/><text fill="#000000" font-family="sans-serif" font-size="14" lengthAdjust="spacing" textLength="57" x="1617.5" y="1097.3857">T draw()</text></g><!--class PlayerBoard--><g id="elem_PlayerBoard"><rect codeLine="96" fill="#F1F1F1" height="162.0781" id="PlayerBoard" rx="2.5" ry="2.5" style="stroke:#181818;stroke-width:0.5;" width="395" x="597" y="967"/><ellipse cx="747.25" cy="983" fill="#ADD1B2" rx="11" ry="11" style="stroke:#181818;stroke-width:1.0;"/><path d="M749.5938,978.6719 C748.6563,978.2344 748.0625,978.0938 747.1875,978.0938 C744.5625,978.0938 742.5625,980.1719 742.5625,982.8906 L742.5625,984.0156 C742.5625,986.5938 744.6719,988.4844 747.5625,988.4844 C748.7813,988.4844 749.9375,988.1875 750.6875,987.6406 C751.2656,987.2344 751.5938,986.7813 751.5938,986.3906 C751.5938,985.9375 751.2031,985.5469 750.7344,985.5469 C750.5156,985.5469 750.3125,985.625 750.125,985.8125 C749.6719,986.2969 749.6719,986.2969 749.4844,986.3906 C749.0625,986.6563 748.375,986.7813 747.6094,986.7813 C745.5625,986.7813 744.2656,985.6875 744.2656,983.9844 L744.2656,982.8906 C744.2656,981.1094 745.5156,979.7969 747.25,979.7969 C747.8281,979.7969 748.4375,979.9531 748.9063,980.2031 C749.3906,980.4844 749.5625,980.7031 749.6563,981.1094 C749.7188,981.5156 749.75,981.6406 749.8906,981.7656 C750.0313,981.9063 750.2656,982.0156 750.4844,982.0156 C750.75,982.0156 751.0156,981.875 751.1875,981.6563 C751.2969,981.5 751.3281,981.3125 751.3281,980.8906 L751.3281,979.4688 C751.3281,979.0313 751.3125,978.9063 751.2188,978.75 C751.0625,978.4844 750.7813,978.3438 750.4844,978.3438 C750.1875,978.3438 749.9844,978.4375 749.7656,978.75 L749.5938,978.6719 Z " fill="#000000"/><text fill="#000000" font-family="sans-serif" font-size="14" lengthAdjust="spacing" textLength="86" x="767.75" y="987.8467">PlayerBoard</text><line style="stroke:#181818;stroke-width:0.5;" x1="598" x2="991" y1="999" y2="999"/><rect fill="none" height="6" style="stroke:#C82930;stroke-width:1.0;" width="6" x="605" y="1009.6484"/><text fill="#000000" font-family="sans-serif" font-size="14" lengthAdjust="spacing" textLength="298" x="617" y="1015.9951">HashMap&lt;Point, GameCard&gt; playerBoard</text><rect fill="none" height="6" style="stroke:#C82930;stroke-width:1.0;" width="6" x="605" y="1025.9453"/><text fill="#000000" font-family="sans-serif" font-size="14" lengthAdjust="spacing" textLength="201" x="617" y="1032.292">GameItemStore gameItems</text><line style="stroke:#181818;stroke-width:0.5;" x1="598" x2="991" y1="1039.5938" y2="1039.5938"/><ellipse cx="608" cy="1053.2422" fill="#84BE84" rx="3" ry="3" style="stroke:#038048;stroke-width:1.0;"/><text fill="#000000" font-family="sans-serif" font-size="14" lengthAdjust="spacing" textLength="311" x="617" y="1056.5889">Optional&lt;GameCard&gt; getGameCard(Point)</text><ellipse cx="608" cy="1069.5391" fill="#84BE84" rx="3" ry="3" style="stroke:#038048;stroke-width:1.0;"/><text fill="#000000" font-family="sans-serif" font-size="14" lengthAdjust="spacing" textLength="369" x="617" y="1072.8857">Optional&lt;Point&gt; getGameCardPosition(GameCard)</text><ellipse cx="608" cy="1085.8359" fill="#84BE84" rx="3" ry="3" style="stroke:#038048;stroke-width:1.0;"/><text fill="#000000" font-family="sans-serif" font-size="14" lengthAdjust="spacing" textLength="282" x="617" y="1089.1826">ArrayList&lt;GameCard&gt; getGameCards()</text><ellipse cx="608" cy="1102.1328" fill="#84BE84" rx="3" ry="3" style="stroke:#038048;stroke-width:1.0;"/><text fill="#000000" font-family="sans-serif" font-size="14" lengthAdjust="spacing" textLength="301" x="617" y="1105.4795">Integer getGameItemAmount(GameItem)</text><ellipse cx="608" cy="1118.4297" fill="#84BE84" rx="3" ry="3" style="stroke:#038048;stroke-width:1.0;"/><text fill="#000000" font-family="sans-serif" font-size="14" lengthAdjust="spacing" textLength="263" x="617" y="1121.7764">void setGameCard(Point, GameCard)</text></g><!--class Hand--><g id="elem_Hand"><rect codeLine="87" fill="#F1F1F1" height="113.1875" id="Hand" rx="2.5" ry="2.5" style="stroke:#181818;stroke-width:0.5;" width="308" x="1027.5" y="991.5"/><ellipse cx="1159.25" cy="1007.5" fill="#ADD1B2" rx="11" ry="11" style="stroke:#181818;stroke-width:1.0;"/><path d="M1161.5938,1003.1719 C1160.6563,1002.7344 1160.0625,1002.5938 1159.1875,1002.5938 C1156.5625,1002.5938 1154.5625,1004.6719 1154.5625,1007.3906 L1154.5625,1008.5156 C1154.5625,1011.0938 1156.6719,1012.9844 1159.5625,1012.9844 C1160.7813,1012.9844 1161.9375,1012.6875 1162.6875,1012.1406 C1163.2656,1011.7344 1163.5938,1011.2813 1163.5938,1010.8906 C1163.5938,1010.4375 1163.2031,1010.0469 1162.7344,1010.0469 C1162.5156,1010.0469 1162.3125,1010.125 1162.125,1010.3125 C1161.6719,1010.7969 1161.6719,1010.7969 1161.4844,1010.8906 C1161.0625,1011.1563 1160.375,1011.2813 1159.6094,1011.2813 C1157.5625,1011.2813 1156.2656,1010.1875 1156.2656,1008.4844 L1156.2656,1007.3906 C1156.2656,1005.6094 1157.5156,1004.2969 1159.25,1004.2969 C1159.8281,1004.2969 1160.4375,1004.4531 1160.9063,1004.7031 C1161.3906,1004.9844 1161.5625,1005.2031 1161.6563,1005.6094 C1161.7188,1006.0156 1161.75,1006.1406 1161.8906,1006.2656 C1162.0313,1006.4063 1162.2656,1006.5156 1162.4844,1006.5156 C1162.75,1006.5156 1163.0156,1006.375 1163.1875,1006.1563 C1163.2969,1006 1163.3281,1005.8125 1163.3281,1005.3906 L1163.3281,1003.9688 C1163.3281,1003.5313 1163.3125,1003.4063 1163.2188,1003.25 C1163.0625,1002.9844 1162.7813,1002.8438 1162.4844,1002.8438 C1162.1875,1002.8438 1161.9844,1002.9375 1161.7656,1003.25 L1161.5938,1003.1719 Z " fill="#000000"/><text fill="#000000" font-family="sans-serif" font-size="14" lengthAdjust="spacing" textLength="36" x="1179.75" y="1012.3467">Hand</text><line style="stroke:#181818;stroke-width:0.5;" x1="1028.5" x2="1334.5" y1="1023.5" y2="1023.5"/><rect fill="none" height="6" style="stroke:#C82930;stroke-width:1.0;" width="6" x="1035.5" y="1034.1484"/><text fill="#000000" font-family="sans-serif" font-size="14" lengthAdjust="spacing" textLength="200" x="1047.5" y="1040.4951">ArrayList&lt;GameCard&gt; hand</text><line style="stroke:#181818;stroke-width:0.5;" x1="1028.5" x2="1334.5" y1="1047.7969" y2="1047.7969"/><ellipse cx="1038.5" cy="1061.4453" fill="#84BE84" rx="3" ry="3" style="stroke:#038048;stroke-width:1.0;"/><text fill="#000000" font-family="sans-serif" font-size="14" lengthAdjust="spacing" textLength="282" x="1047.5" y="1064.792">ArrayList&lt;GameCard&gt; getGameCards()</text><ellipse cx="1038.5" cy="1077.7422" fill="#84BE84" rx="3" ry="3" style="stroke:#038048;stroke-width:1.0;"/><text fill="#000000" font-family="sans-serif" font-size="14" lengthAdjust="spacing" textLength="178" x="1047.5" y="1081.0889">void addCard(GameCard)</text><ellipse cx="1038.5" cy="1094.0391" fill="#84BE84" rx="3" ry="3" style="stroke:#038048;stroke-width:1.0;"/><text fill="#000000" font-family="sans-serif" font-size="14" lengthAdjust="spacing" textLength="207" x="1047.5" y="1097.3857">void removeCard(GameCard)</text></g><!--class GameCard--><g id="elem_GameCard"><rect codeLine="127" fill="#F1F1F1" height="227.2656" id="GameCard" rx="2.5" ry="2.5" style="stroke:#181818;stroke-width:0.5;" width="395" x="294" y="1189"/><ellipse cx="449.75" cy="1205" fill="#ADD1B2" rx="11" ry="11" style="stroke:#181818;stroke-width:1.0;"/><path d="M452.0938,1200.6719 C451.1563,1200.2344 450.5625,1200.0938 449.6875,1200.0938 C447.0625,1200.0938 445.0625,1202.1719 445.0625,1204.8906 L445.0625,1206.0156 C445.0625,1208.5938 447.1719,1210.4844 450.0625,1210.4844 C451.2813,1210.4844 452.4375,1210.1875 453.1875,1209.6406 C453.7656,1209.2344 454.0938,1208.7813 454.0938,1208.3906 C454.0938,1207.9375 453.7031,1207.5469 453.2344,1207.5469 C453.0156,1207.5469 452.8125,1207.625 452.625,1207.8125 C452.1719,1208.2969 452.1719,1208.2969 451.9844,1208.3906 C451.5625,1208.6563 450.875,1208.7813 450.1094,1208.7813 C448.0625,1208.7813 446.7656,1207.6875 446.7656,1205.9844 L446.7656,1204.8906 C446.7656,1203.1094 448.0156,1201.7969 449.75,1201.7969 C450.3281,1201.7969 450.9375,1201.9531 451.4063,1202.2031 C451.8906,1202.4844 452.0625,1202.7031 452.1563,1203.1094 C452.2188,1203.5156 452.25,1203.6406 452.3906,1203.7656 C452.5313,1203.9063 452.7656,1204.0156 452.9844,1204.0156 C453.25,1204.0156 453.5156,1203.875 453.6875,1203.6563 C453.7969,1203.5 453.8281,1203.3125 453.8281,1202.8906 L453.8281,1201.4688 C453.8281,1201.0313 453.8125,1200.9063 453.7188,1200.75 C453.5625,1200.4844 453.2813,1200.3438 452.9844,1200.3438 C452.6875,1200.3438 452.4844,1200.4375 452.2656,1200.75 L452.0938,1200.6719 Z " fill="#000000"/><text fill="#000000" font-family="sans-serif" font-size="14" lengthAdjust="spacing" textLength="75" x="470.25" y="1209.8467">GameCard</text><line style="stroke:#181818;stroke-width:0.5;" x1="295" x2="688" y1="1221" y2="1221"/><rect fill="none" height="6" style="stroke:#C82930;stroke-width:1.0;" width="6" x="302" y="1231.6484"/><text fill="#000000" font-family="sans-serif" font-size="14" lengthAdjust="spacing" textLength="119" x="314" y="1237.9951">Side currentSide</text><rect fill="none" height="6" style="stroke:#C82930;stroke-width:1.0;" width="6" x="302" y="1247.9453"/><text fill="#000000" font-family="sans-serif" font-size="14" lengthAdjust="spacing" textLength="106" x="314" y="1254.292">Side otherSide</text><rect fill="none" height="6" style="stroke:#C82930;stroke-width:1.0;" width="6" x="302" y="1264.2422"/><text fill="#000000" font-family="sans-serif" font-size="14" lengthAdjust="spacing" textLength="142" x="314" y="1270.5889">cardColor cardColor</text><line style="stroke:#181818;stroke-width:0.5;" x1="295" x2="688" y1="1277.8906" y2="1277.8906"/><ellipse cx="305" cy="1291.5391" fill="#84BE84" rx="3" ry="3" style="stroke:#038048;stroke-width:1.0;"/><text fill="#000000" font-family="sans-serif" font-size="14" lengthAdjust="spacing" textLength="156" x="314" y="1294.8857">Side getCurrentSide()</text><ellipse cx="305" cy="1307.8359" fill="#84BE84" rx="3" ry="3" style="stroke:#038048;stroke-width:1.0;"/><text fill="#000000" font-family="sans-serif" font-size="14" lengthAdjust="spacing" textLength="121" x="314" y="1311.1826">void switchSide()</text><ellipse cx="305" cy="1324.1328" fill="#84BE84" rx="3" ry="3" style="stroke:#038048;stroke-width:1.0;"/><text fill="#000000" font-family="sans-serif" font-size="14" lengthAdjust="spacing" textLength="181" x="314" y="1327.4795">CardColor getCardColor()</text><ellipse cx="305" cy="1340.4297" fill="#84BE84" rx="3" ry="3" style="stroke:#038048;stroke-width:1.0;"/><text fill="#000000" font-family="sans-serif" font-size="14" lengthAdjust="spacing" textLength="324" x="314" y="1343.7764">Optional&lt;Corner&gt;getCorner(CornerPosition)</text><ellipse cx="305" cy="1356.7266" fill="#84BE84" rx="3" ry="3" style="stroke:#038048;stroke-width:1.0;"/><text fill="#000000" font-family="sans-serif" font-size="14" lengthAdjust="spacing" textLength="369" x="314" y="1360.0732">GameItemEnum setCornerCovered(CornerPosition)</text><ellipse cx="305" cy="1373.0234" fill="#84BE84" rx="3" ry="3" style="stroke:#038048;stroke-width:1.0;"/><text fill="#000000" font-family="sans-serif" font-size="14" lengthAdjust="spacing" textLength="271" x="314" y="1376.3701">GameItemStore getGameItemStore()</text><ellipse cx="305" cy="1389.3203" fill="#84BE84" rx="3" ry="3" style="stroke:#038048;stroke-width:1.0;"/><text fill="#000000" font-family="sans-serif" font-size="14" lengthAdjust="spacing" textLength="223" x="314" y="1392.667">Integer getPoints(PlayerBoard)</text><ellipse cx="305" cy="1405.6172" fill="#84BE84" rx="3" ry="3" style="stroke:#038048;stroke-width:1.0;"/><text fill="#000000" font-family="sans-serif" font-size="14" lengthAdjust="spacing" textLength="284" x="314" y="1408.9639">GameItemStore getNeededItemStore()</text></g><!--class Store--><g id="elem_Store"><rect codeLine="108" fill="#F1F1F1" height="145.7813" id="Store" rx="2.5" ry="2.5" style="stroke:#181818;stroke-width:0.5;" width="224" x="743.5" y="1229.5"/><ellipse cx="825.75" cy="1245.5" fill="#ADD1B2" rx="11" ry="11" style="stroke:#181818;stroke-width:1.0;"/><path d="M828.0938,1241.1719 C827.1563,1240.7344 826.5625,1240.5938 825.6875,1240.5938 C823.0625,1240.5938 821.0625,1242.6719 821.0625,1245.3906 L821.0625,1246.5156 C821.0625,1249.0938 823.1719,1250.9844 826.0625,1250.9844 C827.2813,1250.9844 828.4375,1250.6875 829.1875,1250.1406 C829.7656,1249.7344 830.0938,1249.2813 830.0938,1248.8906 C830.0938,1248.4375 829.7031,1248.0469 829.2344,1248.0469 C829.0156,1248.0469 828.8125,1248.125 828.625,1248.3125 C828.1719,1248.7969 828.1719,1248.7969 827.9844,1248.8906 C827.5625,1249.1563 826.875,1249.2813 826.1094,1249.2813 C824.0625,1249.2813 822.7656,1248.1875 822.7656,1246.4844 L822.7656,1245.3906 C822.7656,1243.6094 824.0156,1242.2969 825.75,1242.2969 C826.3281,1242.2969 826.9375,1242.4531 827.4063,1242.7031 C827.8906,1242.9844 828.0625,1243.2031 828.1563,1243.6094 C828.2188,1244.0156 828.25,1244.1406 828.3906,1244.2656 C828.5313,1244.4063 828.7656,1244.5156 828.9844,1244.5156 C829.25,1244.5156 829.5156,1244.375 829.6875,1244.1563 C829.7969,1244 829.8281,1243.8125 829.8281,1243.3906 L829.8281,1241.9688 C829.8281,1241.5313 829.8125,1241.4063 829.7188,1241.25 C829.5625,1240.9844 829.2813,1240.8438 828.9844,1240.8438 C828.6875,1240.8438 828.4844,1240.9375 828.2656,1241.25 L828.0938,1241.1719 Z " fill="#000000"/><text fill="#000000" font-family="sans-serif" font-size="14" lengthAdjust="spacing" textLength="40" x="846.25" y="1250.3467">Store</text><rect fill="#FFFFFF" height="15.9688" style="stroke:#181818;stroke-width:1.0;stroke-dasharray:2.0,2.0;" width="9" x="961.5" y="1226.5"/><text fill="#000000" font-family="sans-serif" font-size="12" font-style="italic" lengthAdjust="spacing" textLength="7" x="962.5" y="1238.6387">T</text><line style="stroke:#181818;stroke-width:0.5;" x1="744.5" x2="966.5" y1="1261.5" y2="1261.5"/><polygon fill="none" points="754.5,1270.1484,758.5,1274.1484,754.5,1278.1484,750.5,1274.1484" style="stroke:#B38D22;stroke-width:1.0;"/><text fill="#000000" font-family="sans-serif" font-size="14" lengthAdjust="spacing" textLength="198" x="763.5" y="1278.4951">HashMap&lt;T, Integer&gt; store</text><line style="stroke:#181818;stroke-width:0.5;" x1="744.5" x2="966.5" y1="1285.7969" y2="1285.7969"/><ellipse cx="754.5" cy="1299.4453" fill="#84BE84" rx="3" ry="3" style="stroke:#038048;stroke-width:1.0;"/><text fill="#000000" font-family="sans-serif" font-size="14" lengthAdjust="spacing" textLength="55" x="763.5" y="1302.792">get(T t)</text><ellipse cx="754.5" cy="1315.7422" fill="#84BE84" rx="3" ry="3" style="stroke:#038048;stroke-width:1.0;"/><text fill="#000000" font-family="sans-serif" font-size="14" lengthAdjust="spacing" textLength="114" x="763.5" y="1319.0889">set(T t, Integer)</text><ellipse cx="754.5" cy="1332.0391" fill="#84BE84" rx="3" ry="3" style="stroke:#038048;stroke-width:1.0;"/><text fill="#000000" font-family="sans-serif" font-size="14" lengthAdjust="spacing" textLength="166" x="763.5" y="1335.3857">increment(T t, Integer)</text><ellipse cx="754.5" cy="1348.3359" fill="#84BE84" rx="3" ry="3" style="stroke:#038048;stroke-width:1.0;"/><text fill="#000000" font-family="sans-serif" font-size="14" lengthAdjust="spacing" textLength="171" x="763.5" y="1351.6826">decrement(T t, Integer)</text><ellipse cx="754.5" cy="1364.6328" fill="#84BE84" rx="3" ry="3" style="stroke:#038048;stroke-width:1.0;"/><text fill="#000000" font-family="sans-serif" font-size="14" lengthAdjust="spacing" textLength="145" x="763.5" y="1367.9795">getNonEmptyKeys()</text></g><!--class GameItemStore--><g id="elem_GameItemStore"><rect codeLine="117" fill="#F1F1F1" height="80.5938" id="GameItemStore" rx="2.5" ry="2.5" style="stroke:#181818;stroke-width:0.5;" width="460" x="662.5" y="1533"/><ellipse cx="830.25" cy="1549" fill="#ADD1B2" rx="11" ry="11" style="stroke:#181818;stroke-width:1.0;"/><path d="M832.5938,1544.6719 C831.6563,1544.2344 831.0625,1544.0938 830.1875,1544.0938 C827.5625,1544.0938 825.5625,1546.1719 825.5625,1548.8906 L825.5625,1550.0156 C825.5625,1552.5938 827.6719,1554.4844 830.5625,1554.4844 C831.7813,1554.4844 832.9375,1554.1875 833.6875,1553.6406 C834.2656,1553.2344 834.5938,1552.7813 834.5938,1552.3906 C834.5938,1551.9375 834.2031,1551.5469 833.7344,1551.5469 C833.5156,1551.5469 833.3125,1551.625 833.125,1551.8125 C832.6719,1552.2969 832.6719,1552.2969 832.4844,1552.3906 C832.0625,1552.6563 831.375,1552.7813 830.6094,1552.7813 C828.5625,1552.7813 827.2656,1551.6875 827.2656,1549.9844 L827.2656,1548.8906 C827.2656,1547.1094 828.5156,1545.7969 830.25,1545.7969 C830.8281,1545.7969 831.4375,1545.9531 831.9063,1546.2031 C832.3906,1546.4844 832.5625,1546.7031 832.6563,1547.1094 C832.7188,1547.5156 832.75,1547.6406 832.8906,1547.7656 C833.0313,1547.9063 833.2656,1548.0156 833.4844,1548.0156 C833.75,1548.0156 834.0156,1547.875 834.1875,1547.6563 C834.2969,1547.5 834.3281,1547.3125 834.3281,1546.8906 L834.3281,1545.4688 C834.3281,1545.0313 834.3125,1544.9063 834.2188,1544.75 C834.0625,1544.4844 833.7813,1544.3438 833.4844,1544.3438 C833.1875,1544.3438 832.9844,1544.4375 832.7656,1544.75 L832.5938,1544.6719 Z " fill="#000000"/><text fill="#000000" font-family="sans-serif" font-size="14" lengthAdjust="spacing" textLength="116" x="850.75" y="1553.8467">GameItemStore</text><line style="stroke:#181818;stroke-width:0.5;" x1="663.5" x2="1121.5" y1="1565" y2="1565"/><line style="stroke:#181818;stroke-width:0.5;" x1="663.5" x2="1121.5" y1="1573" y2="1573"/><ellipse cx="673.5" cy="1586.6484" fill="#84BE84" rx="3" ry="3" style="stroke:#038048;stroke-width:1.0;"/><text fill="#000000" font-family="sans-serif" font-size="14" lengthAdjust="spacing" textLength="126" x="682.5" y="1589.9951">GameItemStore()</text><ellipse cx="673.5" cy="1602.9453" fill="#84BE84" rx="3" ry="3" style="stroke:#038048;stroke-width:1.0;"/><text fill="#000000" font-family="sans-serif" font-size="14" lengthAdjust="spacing" textLength="434" x="682.5" y="1606.292">GameItemStore(HashMap&lt;GameItem, Integer&gt; gameItems)</text></g><!--class Side--><g id="elem_Side"><rect codeLine="143" fill="#F1F1F1" height="194.6719" id="Side" rx="2.5" ry="2.5" style="stroke:#181818;stroke-width:0.5;" width="310" x="317.5" y="1476"/><ellipse cx="452.75" cy="1492" fill="#A9DCDF" rx="11" ry="11" style="stroke:#181818;stroke-width:1.0;"/><path d="M454.8281,1493.8125 L455.2188,1494.7969 L454.8281,1494.7969 C454.375,1494.7969 454.2656,1494.8125 454.1094,1494.9219 C453.8594,1495.0781 453.7031,1495.3594 453.7031,1495.6563 C453.7031,1495.9219 453.8438,1496.1719 454.0625,1496.3281 C454.2031,1496.4531 454.4063,1496.5 454.8281,1496.5 L457.1875,1496.5 C457.5469,1496.5 457.7656,1496.4688 457.9063,1496.375 C458.1563,1496.2344 458.3125,1495.9375 458.3125,1495.6563 C458.3125,1495.375 458.1719,1495.125 457.9531,1494.9688 C457.7813,1494.8281 457.625,1494.7969 457.1563,1494.7969 L453.7656,1486.5938 L450.0938,1486.5938 C449.6406,1486.5938 449.5156,1486.6094 449.3594,1486.7031 C449.1094,1486.875 448.9531,1487.1563 448.9531,1487.4375 C448.9531,1487.7188 449.0938,1487.9688 449.3125,1488.1406 C449.4844,1488.25 449.6563,1488.2813 450.0938,1488.2813 L451.1719,1488.2813 L448.5313,1494.7969 C448.1094,1494.7969 447.9531,1494.8125 447.7969,1494.9219 C447.5469,1495.0781 447.3906,1495.3594 447.3906,1495.6563 C447.3906,1496.2188 447.7656,1496.5 448.5156,1496.5 L450.7813,1496.5 C451.1406,1496.5 451.3594,1496.4688 451.4844,1496.375 C451.75,1496.2344 451.8906,1495.9375 451.8906,1495.6563 C451.8906,1495.375 451.7656,1495.125 451.5469,1494.9531 C451.375,1494.8281 451.2344,1494.7969 450.7813,1494.7969 L450.3906,1494.7969 L450.7813,1493.8125 L454.8281,1493.8125 Z M454.125,1492.1094 L451.4531,1492.1094 L452.7969,1488.8438 L454.125,1492.1094 Z " fill="#000000"/><text fill="#000000" font-family="sans-serif" font-size="14" font-style="italic" lengthAdjust="spacing" textLength="31" x="473.25" y="1496.8467">Side</text><line style="stroke:#181818;stroke-width:0.5;" x1="318.5" x2="626.5" y1="1508" y2="1508"/><polygon fill="none" points="328.5,1516.6484,332.5,1520.6484,328.5,1524.6484,324.5,1520.6484" style="stroke:#B38D22;stroke-width:1.0;"/><text fill="#000000" font-family="sans-serif" font-size="14" lengthAdjust="spacing" textLength="198" x="337.5" y="1524.9951">Optional&lt;Corner&gt;topRight</text><polygon fill="none" points="328.5,1532.9453,332.5,1536.9453,328.5,1540.9453,324.5,1536.9453" style="stroke:#B38D22;stroke-width:1.0;"/><text fill="#000000" font-family="sans-serif" font-size="14" lengthAdjust="spacing" textLength="189" x="337.5" y="1541.292">Optional&lt;Corner&gt;topLeft</text><polygon fill="none" points="328.5,1549.2422,332.5,1553.2422,328.5,1557.2422,324.5,1553.2422" style="stroke:#B38D22;stroke-width:1.0;"/><text fill="#000000" font-family="sans-serif" font-size="14" lengthAdjust="spacing" textLength="219" x="337.5" y="1557.5889">Optional&lt;Corner&gt;bottomLeft</text><polygon fill="none" points="328.5,1565.5391,332.5,1569.5391,328.5,1573.5391,324.5,1569.5391" style="stroke:#B38D22;stroke-width:1.0;"/><text fill="#000000" font-family="sans-serif" font-size="14" lengthAdjust="spacing" textLength="228" x="337.5" y="1573.8857">Optional&lt;Corner&gt;bottomRight</text><line style="stroke:#181818;stroke-width:0.5;" x1="318.5" x2="626.5" y1="1581.1875" y2="1581.1875"/><ellipse cx="328.5" cy="1594.8359" fill="#84BE84" rx="3" ry="3" style="stroke:#038048;stroke-width:1.0;"/><text fill="#000000" font-family="sans-serif" font-size="14" lengthAdjust="spacing" textLength="191" x="337.5" y="1598.1826">getCorner(CornerPosition)</text><ellipse cx="328.5" cy="1611.1328" fill="#84BE84" rx="3" ry="3" style="stroke:#038048;stroke-width:1.0;"/><text fill="#000000" font-family="sans-serif" font-size="14" lengthAdjust="spacing" textLength="249" x="337.5" y="1614.4795">setCornerCovered(CornerPosition)</text><ellipse cx="328.5" cy="1627.4297" fill="#84BE84" rx="3" ry="3" style="stroke:#038048;stroke-width:1.0;"/><text fill="#000000" font-family="sans-serif" font-size="14" lengthAdjust="spacing" textLength="271" x="337.5" y="1630.7764">GameItemStore getGameItemStore()</text><ellipse cx="328.5" cy="1643.7266" fill="#84BE84" rx="3" ry="3" style="stroke:#038048;stroke-width:1.0;"/><text fill="#000000" font-family="sans-serif" font-size="14" lengthAdjust="spacing" textLength="166" x="337.5" y="1647.0732">getPoints(PlayerBoard)</text><ellipse cx="328.5" cy="1660.0234" fill="#84BE84" rx="3" ry="3" style="stroke:#038048;stroke-width:1.0;"/><text fill="#000000" font-family="sans-serif" font-size="14" lengthAdjust="spacing" textLength="284" x="337.5" y="1663.3701">GameItemStore getNeededItemStore()</text></g><!--class Front--><g id="elem_Front"><rect codeLine="179" fill="#F1F1F1" height="96.8906" id="Front" rx="2.5" ry="2.5" style="stroke:#181818;stroke-width:0.5;" width="192" x="137.5" y="1747"/><ellipse cx="209.75" cy="1763" fill="#ADD1B2" rx="11" ry="11" style="stroke:#181818;stroke-width:1.0;"/><path d="M212.0938,1758.6719 C211.1563,1758.2344 210.5625,1758.0938 209.6875,1758.0938 C207.0625,1758.0938 205.0625,1760.1719 205.0625,1762.8906 L205.0625,1764.0156 C205.0625,1766.5938 207.1719,1768.4844 210.0625,1768.4844 C211.2813,1768.4844 212.4375,1768.1875 213.1875,1767.6406 C213.7656,1767.2344 214.0938,1766.7813 214.0938,1766.3906 C214.0938,1765.9375 213.7031,1765.5469 213.2344,1765.5469 C213.0156,1765.5469 212.8125,1765.625 212.625,1765.8125 C212.1719,1766.2969 212.1719,1766.2969 211.9844,1766.3906 C211.5625,1766.6563 210.875,1766.7813 210.1094,1766.7813 C208.0625,1766.7813 206.7656,1765.6875 206.7656,1763.9844 L206.7656,1762.8906 C206.7656,1761.1094 208.0156,1759.7969 209.75,1759.7969 C210.3281,1759.7969 210.9375,1759.9531 211.4063,1760.2031 C211.8906,1760.4844 212.0625,1760.7031 212.1563,1761.1094 C212.2188,1761.5156 212.25,1761.6406 212.3906,1761.7656 C212.5313,1761.9063 212.7656,1762.0156 212.9844,1762.0156 C213.25,1762.0156 213.5156,1761.875 213.6875,1761.6563 C213.7969,1761.5 213.8281,1761.3125 213.8281,1760.8906 L213.8281,1759.4688 C213.8281,1759.0313 213.8125,1758.9063 213.7188,1758.75 C213.5625,1758.4844 213.2813,1758.3438 212.9844,1758.3438 C212.6875,1758.3438 212.4844,1758.4375 212.2656,1758.75 L212.0938,1758.6719 Z " fill="#000000"/><text fill="#000000" font-family="sans-serif" font-size="14" lengthAdjust="spacing" textLength="39" x="230.25" y="1767.8467">Front</text><line style="stroke:#181818;stroke-width:0.5;" x1="138.5" x2="328.5" y1="1779" y2="1779"/><polygon fill="none" points="148.5,1787.6484,152.5,1791.6484,148.5,1795.6484,144.5,1791.6484" style="stroke:#B38D22;stroke-width:1.0;"/><text fill="#000000" font-family="sans-serif" font-size="14" lengthAdjust="spacing" textLength="70" x="157.5" y="1795.9951">int points</text><line style="stroke:#181818;stroke-width:0.5;" x1="138.5" x2="328.5" y1="1803.2969" y2="1803.2969"/><ellipse cx="148.5" cy="1816.9453" fill="#84BE84" rx="3" ry="3" style="stroke:#038048;stroke-width:1.0;"/><text fill="#000000" font-family="sans-serif" font-size="14" lengthAdjust="spacing" textLength="151" x="157.5" y="1820.292">getGameItemStore()</text><ellipse cx="148.5" cy="1833.2422" fill="#84BE84" rx="3" ry="3" style="stroke:#038048;stroke-width:1.0;"/><text fill="#000000" font-family="sans-serif" font-size="14" lengthAdjust="spacing" textLength="166" x="157.5" y="1836.5889">getPoints(PlayerBoard)</text></g><!--class Back--><g id="elem_Back"><rect codeLine="209" fill="#F1F1F1" height="96.8906" id="Back" rx="2.5" ry="2.5" style="stroke:#181818;stroke-width:0.5;" width="215" x="365" y="1747"/><ellipse cx="450.75" cy="1763" fill="#ADD1B2" rx="11" ry="11" style="stroke:#181818;stroke-width:1.0;"/><path d="M453.0938,1758.6719 C452.1563,1758.2344 451.5625,1758.0938 450.6875,1758.0938 C448.0625,1758.0938 446.0625,1760.1719 446.0625,1762.8906 L446.0625,1764.0156 C446.0625,1766.5938 448.1719,1768.4844 451.0625,1768.4844 C452.2813,1768.4844 453.4375,1768.1875 454.1875,1767.6406 C454.7656,1767.2344 455.0938,1766.7813 455.0938,1766.3906 C455.0938,1765.9375 454.7031,1765.5469 454.2344,1765.5469 C454.0156,1765.5469 453.8125,1765.625 453.625,1765.8125 C453.1719,1766.2969 453.1719,1766.2969 452.9844,1766.3906 C452.5625,1766.6563 451.875,1766.7813 451.1094,1766.7813 C449.0625,1766.7813 447.7656,1765.6875 447.7656,1763.9844 L447.7656,1762.8906 C447.7656,1761.1094 449.0156,1759.7969 450.75,1759.7969 C451.3281,1759.7969 451.9375,1759.9531 452.4063,1760.2031 C452.8906,1760.4844 453.0625,1760.7031 453.1563,1761.1094 C453.2188,1761.5156 453.25,1761.6406 453.3906,1761.7656 C453.5313,1761.9063 453.7656,1762.0156 453.9844,1762.0156 C454.25,1762.0156 454.5156,1761.875 454.6875,1761.6563 C454.7969,1761.5 454.8281,1761.3125 454.8281,1760.8906 L454.8281,1759.4688 C454.8281,1759.0313 454.8125,1758.9063 454.7188,1758.75 C454.5625,1758.4844 454.2813,1758.3438 453.9844,1758.3438 C453.6875,1758.3438 453.4844,1758.4375 453.2656,1758.75 L453.0938,1758.6719 Z " fill="#000000"/><text fill="#000000" font-family="sans-serif" font-size="14" lengthAdjust="spacing" textLength="35" x="471.25" y="1767.8467">Back</text><line style="stroke:#181818;stroke-width:0.5;" x1="366" x2="579" y1="1779" y2="1779"/><polygon fill="none" points="376,1787.6484,380,1791.6484,376,1795.6484,372,1791.6484" style="stroke:#B38D22;stroke-width:1.0;"/><text fill="#000000" font-family="sans-serif" font-size="14" lengthAdjust="spacing" textLength="189" x="385" y="1795.9951">GameItemStore resources</text><line style="stroke:#181818;stroke-width:0.5;" x1="366" x2="579" y1="1803.2969" y2="1803.2969"/><ellipse cx="376" cy="1816.9453" fill="#84BE84" rx="3" ry="3" style="stroke:#038048;stroke-width:1.0;"/><text fill="#000000" font-family="sans-serif" font-size="14" lengthAdjust="spacing" textLength="151" x="385" y="1820.292">getGameItemStore()</text><ellipse cx="376" cy="1833.2422" fill="#84BE84" rx="3" ry="3" style="stroke:#038048;stroke-width:1.0;"/><text fill="#000000" font-family="sans-serif" font-size="14" lengthAdjust="spacing" textLength="166" x="385" y="1836.5889">getPoints(PlayerBoard)</text></g><!--class Corner--><g id="elem_Corner"><rect codeLine="159" fill="#F1F1F1" height="129.4844" id="Corner" rx="2.5" ry="2.5" style="stroke:#181818;stroke-width:0.5;" width="257" x="615" y="1731"/><ellipse cx="714.75" cy="1747" fill="#ADD1B2" rx="11" ry="11" style="stroke:#181818;stroke-width:1.0;"/><path d="M717.0938,1742.6719 C716.1563,1742.2344 715.5625,1742.0938 714.6875,1742.0938 C712.0625,1742.0938 710.0625,1744.1719 710.0625,1746.8906 L710.0625,1748.0156 C710.0625,1750.5938 712.1719,1752.4844 715.0625,1752.4844 C716.2813,1752.4844 717.4375,1752.1875 718.1875,1751.6406 C718.7656,1751.2344 719.0938,1750.7813 719.0938,1750.3906 C719.0938,1749.9375 718.7031,1749.5469 718.2344,1749.5469 C718.0156,1749.5469 717.8125,1749.625 717.625,1749.8125 C717.1719,1750.2969 717.1719,1750.2969 716.9844,1750.3906 C716.5625,1750.6563 715.875,1750.7813 715.1094,1750.7813 C713.0625,1750.7813 711.7656,1749.6875 711.7656,1747.9844 L711.7656,1746.8906 C711.7656,1745.1094 713.0156,1743.7969 714.75,1743.7969 C715.3281,1743.7969 715.9375,1743.9531 716.4063,1744.2031 C716.8906,1744.4844 717.0625,1744.7031 717.1563,1745.1094 C717.2188,1745.5156 717.25,1745.6406 717.3906,1745.7656 C717.5313,1745.9063 717.7656,1746.0156 717.9844,1746.0156 C718.25,1746.0156 718.5156,1745.875 718.6875,1745.6563 C718.7969,1745.5 718.8281,1745.3125 718.8281,1744.8906 L718.8281,1743.4688 C718.8281,1743.0313 718.8125,1742.9063 718.7188,1742.75 C718.5625,1742.4844 718.2813,1742.3438 717.9844,1742.3438 C717.6875,1742.3438 717.4844,1742.4375 717.2656,1742.75 L717.0938,1742.6719 Z " fill="#000000"/><text fill="#000000" font-family="sans-serif" font-size="14" lengthAdjust="spacing" textLength="49" x="735.25" y="1751.8467">Corner</text><line style="stroke:#181818;stroke-width:0.5;" x1="616" x2="871" y1="1763" y2="1763"/><rect fill="none" height="6" style="stroke:#C82930;stroke-width:1.0;" width="6" x="623" y="1773.6484"/><text fill="#000000" font-family="sans-serif" font-size="14" lengthAdjust="spacing" textLength="133" x="635" y="1779.9951">boolean isCovered</text><rect fill="none" height="6" style="stroke:#C82930;stroke-width:1.0;" width="6" x="623" y="1789.9453"/><text fill="#000000" font-family="sans-serif" font-size="14" lengthAdjust="spacing" textLength="194" x="635" y="1796.292">GameItemEnum gameItem</text><line style="stroke:#181818;stroke-width:0.5;" x1="616" x2="871" y1="1803.5938" y2="1803.5938"/><ellipse cx="626" cy="1817.2422" fill="#84BE84" rx="3" ry="3" style="stroke:#038048;stroke-width:1.0;"/><text fill="#000000" font-family="sans-serif" font-size="14" lengthAdjust="spacing" textLength="231" x="635" y="1820.5889">GameItemEnum getGameItem()</text><ellipse cx="626" cy="1833.5391" fill="#84BE84" rx="3" ry="3" style="stroke:#038048;stroke-width:1.0;"/><text fill="#000000" font-family="sans-serif" font-size="14" lengthAdjust="spacing" textLength="213" x="635" y="1836.8857">GameItemEnum setCovered()</text><ellipse cx="626" cy="1849.8359" fill="#84BE84" rx="3" ry="3" style="stroke:#038048;stroke-width:1.0;"/><text fill="#000000" font-family="sans-serif" font-size="14" lengthAdjust="spacing" textLength="131" x="635" y="1853.1826">Boolean isEmpty()</text></g><g id="elem_GMN32"><path d="M421,1933 L421,1988.3984 A0,0 0 0 0 421,1988.3984 L1066,1988.3984 A0,0 0 0 0 1066,1988.3984 L1066,1943 L1056,1933 L747.5,1933 L743.5,1860.454 L739.5,1933 L421,1933 A0,0 0 0 0 421,1933 " fill="#FEFFDD" style="stroke:#181818;stroke-width:0.5;"/><path d="M1056,1933 L1056,1943 L1066,1943 L1056,1933 " fill="#FEFFDD" style="stroke:#181818;stroke-width:0.5;"/><text fill="#000000" font-family="sans-serif" font-size="13" lengthAdjust="spacing" textLength="514" x="427" y="1950.0669">Nel caso in cui un Corner &#232; vuoto, allora risulter&#224; avere GameItemEnum = NONE</text><text fill="#000000" font-family="sans-serif" font-size="13" lengthAdjust="spacing" textLength="420" x="427" y="1965.1997">Se invece il Corner non esiste, il getter restituir&#224; Optional.empty()</text><text fill="#000000" font-family="sans-serif" font-size="13" lengthAdjust="spacing" textLength="624" x="427" y="1980.3325">Se la carta &#232; piazzata, significa che non devo preoccuparmi di accesso a Corner Optional.empty()</text></g><!--class FrontGoldCard--><g id="elem_FrontGoldCard"><rect codeLine="187" fill="#F1F1F1" height="80.5938" id="FrontGoldCard" rx="2.5" ry="2.5" style="stroke:#181818;stroke-width:0.5;" width="241" x="113" y="1920"/><ellipse cx="176.75" cy="1936" fill="#ADD1B2" rx="11" ry="11" style="stroke:#181818;stroke-width:1.0;"/><path d="M179.0938,1931.6719 C178.1563,1931.2344 177.5625,1931.0938 176.6875,1931.0938 C174.0625,1931.0938 172.0625,1933.1719 172.0625,1935.8906 L172.0625,1937.0156 C172.0625,1939.5938 174.1719,1941.4844 177.0625,1941.4844 C178.2813,1941.4844 179.4375,1941.1875 180.1875,1940.6406 C180.7656,1940.2344 181.0938,1939.7813 181.0938,1939.3906 C181.0938,1938.9375 180.7031,1938.5469 180.2344,1938.5469 C180.0156,1938.5469 179.8125,1938.625 179.625,1938.8125 C179.1719,1939.2969 179.1719,1939.2969 178.9844,1939.3906 C178.5625,1939.6563 177.875,1939.7813 177.1094,1939.7813 C175.0625,1939.7813 173.7656,1938.6875 173.7656,1936.9844 L173.7656,1935.8906 C173.7656,1934.1094 175.0156,1932.7969 176.75,1932.7969 C177.3281,1932.7969 177.9375,1932.9531 178.4063,1933.2031 C178.8906,1933.4844 179.0625,1933.7031 179.1563,1934.1094 C179.2188,1934.5156 179.25,1934.6406 179.3906,1934.7656 C179.5313,1934.9063 179.7656,1935.0156 179.9844,1935.0156 C180.25,1935.0156 180.5156,1934.875 180.6875,1934.6563 C180.7969,1934.5 180.8281,1934.3125 180.8281,1933.8906 L180.8281,1932.4688 C180.8281,1932.0313 180.8125,1931.9063 180.7188,1931.75 C180.5625,1931.4844 180.2813,1931.3438 179.9844,1931.3438 C179.6875,1931.3438 179.4844,1931.4375 179.2656,1931.75 L179.0938,1931.6719 Z " fill="#000000"/><text fill="#000000" font-family="sans-serif" font-size="14" lengthAdjust="spacing" textLength="105" x="197.25" y="1940.8467">FrontGoldCard</text><line style="stroke:#181818;stroke-width:0.5;" x1="114" x2="353" y1="1952" y2="1952"/><polygon fill="none" points="124,1960.6484,128,1964.6484,124,1968.6484,120,1964.6484" style="stroke:#B38D22;stroke-width:1.0;"/><text fill="#000000" font-family="sans-serif" font-size="14" lengthAdjust="spacing" textLength="215" x="133" y="1968.9951">GameItemStore neededItems</text><line style="stroke:#181818;stroke-width:0.5;" x1="114" x2="353" y1="1976.2969" y2="1976.2969"/><ellipse cx="124" cy="1989.9453" fill="#84BE84" rx="3" ry="3" style="stroke:#038048;stroke-width:1.0;"/><text fill="#000000" font-family="sans-serif" font-size="14" lengthAdjust="spacing" textLength="164" x="133" y="1993.292">getNeededItemStore()</text></g><!--class FrontPositionalGoldCard--><g id="elem_FrontPositionalGoldCard"><rect codeLine="196" fill="#F1F1F1" height="64.2969" id="FrontPositionalGoldCard" rx="2.5" ry="2.5" style="stroke:#181818;stroke-width:0.5;" width="207" x="7" y="2069.5"/><ellipse cx="22" cy="2085.5" fill="#ADD1B2" rx="11" ry="11" style="stroke:#181818;stroke-width:1.0;"/><path d="M24.3438,2081.1719 C23.4063,2080.7344 22.8125,2080.5938 21.9375,2080.5938 C19.3125,2080.5938 17.3125,2082.6719 17.3125,2085.3906 L17.3125,2086.5156 C17.3125,2089.0938 19.4219,2090.9844 22.3125,2090.9844 C23.5313,2090.9844 24.6875,2090.6875 25.4375,2090.1406 C26.0156,2089.7344 26.3438,2089.2813 26.3438,2088.8906 C26.3438,2088.4375 25.9531,2088.0469 25.4844,2088.0469 C25.2656,2088.0469 25.0625,2088.125 24.875,2088.3125 C24.4219,2088.7969 24.4219,2088.7969 24.2344,2088.8906 C23.8125,2089.1563 23.125,2089.2813 22.3594,2089.2813 C20.3125,2089.2813 19.0156,2088.1875 19.0156,2086.4844 L19.0156,2085.3906 C19.0156,2083.6094 20.2656,2082.2969 22,2082.2969 C22.5781,2082.2969 23.1875,2082.4531 23.6563,2082.7031 C24.1406,2082.9844 24.3125,2083.2031 24.4063,2083.6094 C24.4688,2084.0156 24.5,2084.1406 24.6406,2084.2656 C24.7813,2084.4063 25.0156,2084.5156 25.2344,2084.5156 C25.5,2084.5156 25.7656,2084.375 25.9375,2084.1563 C26.0469,2084 26.0781,2083.8125 26.0781,2083.3906 L26.0781,2081.9688 C26.0781,2081.5313 26.0625,2081.4063 25.9688,2081.25 C25.8125,2080.9844 25.5313,2080.8438 25.2344,2080.8438 C24.9375,2080.8438 24.7344,2080.9375 24.5156,2081.25 L24.3438,2081.1719 Z " fill="#000000"/><text fill="#000000" font-family="sans-serif" font-size="14" lengthAdjust="spacing" textLength="175" x="36" y="2090.3467">FrontPositionalGoldCard</text><line style="stroke:#181818;stroke-width:0.5;" x1="8" x2="213" y1="2101.5" y2="2101.5"/><line style="stroke:#181818;stroke-width:0.5;" x1="8" x2="213" y1="2109.5" y2="2109.5"/><ellipse cx="18" cy="2123.1484" fill="#84BE84" rx="3" ry="3" style="stroke:#038048;stroke-width:1.0;"/><text fill="#000000" font-family="sans-serif" font-size="14" lengthAdjust="spacing" textLength="166" x="27" y="2126.4951">getPoints(PlayerBoard)</text></g><!--class FrontItemGoldCard--><g id="elem_FrontItemGoldCard"><rect codeLine="202" fill="#F1F1F1" height="80.5938" id="FrontItemGoldCard" rx="2.5" ry="2.5" style="stroke:#181818;stroke-width:0.5;" width="216" x="249.5" y="2061"/><ellipse cx="284.75" cy="2077" fill="#ADD1B2" rx="11" ry="11" style="stroke:#181818;stroke-width:1.0;"/><path d="M287.0938,2072.6719 C286.1563,2072.2344 285.5625,2072.0938 284.6875,2072.0938 C282.0625,2072.0938 280.0625,2074.1719 280.0625,2076.8906 L280.0625,2078.0156 C280.0625,2080.5938 282.1719,2082.4844 285.0625,2082.4844 C286.2813,2082.4844 287.4375,2082.1875 288.1875,2081.6406 C288.7656,2081.2344 289.0938,2080.7813 289.0938,2080.3906 C289.0938,2079.9375 288.7031,2079.5469 288.2344,2079.5469 C288.0156,2079.5469 287.8125,2079.625 287.625,2079.8125 C287.1719,2080.2969 287.1719,2080.2969 286.9844,2080.3906 C286.5625,2080.6563 285.875,2080.7813 285.1094,2080.7813 C283.0625,2080.7813 281.7656,2079.6875 281.7656,2077.9844 L281.7656,2076.8906 C281.7656,2075.1094 283.0156,2073.7969 284.75,2073.7969 C285.3281,2073.7969 285.9375,2073.9531 286.4063,2074.2031 C286.8906,2074.4844 287.0625,2074.7031 287.1563,2075.1094 C287.2188,2075.5156 287.25,2075.6406 287.3906,2075.7656 C287.5313,2075.9063 287.7656,2076.0156 287.9844,2076.0156 C288.25,2076.0156 288.5156,2075.875 288.6875,2075.6563 C288.7969,2075.5 288.8281,2075.3125 288.8281,2074.8906 L288.8281,2073.4688 C288.8281,2073.0313 288.8125,2072.9063 288.7188,2072.75 C288.5625,2072.4844 288.2813,2072.3438 287.9844,2072.3438 C287.6875,2072.3438 287.4844,2072.4375 287.2656,2072.75 L287.0938,2072.6719 Z " fill="#000000"/><text fill="#000000" font-family="sans-serif" font-size="14" lengthAdjust="spacing" textLength="139" x="303.25" y="2081.8467">FrontItemGoldCard</text><line style="stroke:#181818;stroke-width:0.5;" x1="250.5" x2="464.5" y1="2093" y2="2093"/><rect fill="none" height="6" style="stroke:#C82930;stroke-width:1.0;" width="6" x="257.5" y="2103.6484"/><text fill="#000000" font-family="sans-serif" font-size="14" lengthAdjust="spacing" textLength="190" x="269.5" y="2109.9951">GameItemEnum multiplier</text><line style="stroke:#181818;stroke-width:0.5;" x1="250.5" x2="464.5" y1="2117.2969" y2="2117.2969"/><ellipse cx="260.5" cy="2130.9453" fill="#84BE84" rx="3" ry="3" style="stroke:#038048;stroke-width:1.0;"/><text fill="#000000" font-family="sans-serif" font-size="14" lengthAdjust="spacing" textLength="166" x="269.5" y="2134.292">getPoints(PlayerBoard)</text></g><!--class ObjectiveCard--><g id="elem_ObjectiveCard"><rect codeLine="217" fill="#F1F1F1" height="80.5938" id="ObjectiveCard" rx="2.5" ry="2.5" style="stroke:#181818;stroke-width:0.5;" width="192" x="1370.5" y="1007.5"/><ellipse cx="1412.05" cy="1023.5" fill="#A9DCDF" rx="11" ry="11" style="stroke:#181818;stroke-width:1.0;"/><path d="M1414.1281,1025.3125 L1414.5188,1026.2969 L1414.1281,1026.2969 C1413.675,1026.2969 1413.5656,1026.3125 1413.4094,1026.4219 C1413.1594,1026.5781 1413.0031,1026.8594 1413.0031,1027.1563 C1413.0031,1027.4219 1413.1438,1027.6719 1413.3625,1027.8281 C1413.5031,1027.9531 1413.7063,1028 1414.1281,1028 L1416.4875,1028 C1416.8469,1028 1417.0656,1027.9688 1417.2063,1027.875 C1417.4563,1027.7344 1417.6125,1027.4375 1417.6125,1027.1563 C1417.6125,1026.875 1417.4719,1026.625 1417.2531,1026.4688 C1417.0813,1026.3281 1416.925,1026.2969 1416.4563,1026.2969 L1413.0656,1018.0938 L1409.3938,1018.0938 C1408.9406,1018.0938 1408.8156,1018.1094 1408.6594,1018.2031 C1408.4094,1018.375 1408.2531,1018.6563 1408.2531,1018.9375 C1408.2531,1019.2188 1408.3938,1019.4688 1408.6125,1019.6406 C1408.7844,1019.75 1408.9563,1019.7813 1409.3938,1019.7813 L1410.4719,1019.7813 L1407.8313,1026.2969 C1407.4094,1026.2969 1407.2531,1026.3125 1407.0969,1026.4219 C1406.8469,1026.5781 1406.6906,1026.8594 1406.6906,1027.1563 C1406.6906,1027.7188 1407.0656,1028 1407.8156,1028 L1410.0813,1028 C1410.4406,1028 1410.6594,1027.9688 1410.7844,1027.875 C1411.05,1027.7344 1411.1906,1027.4375 1411.1906,1027.1563 C1411.1906,1026.875 1411.0656,1026.625 1410.8469,1026.4531 C1410.675,1026.3281 1410.5344,1026.2969 1410.0813,1026.2969 L1409.6906,1026.2969 L1410.0813,1025.3125 L1414.1281,1025.3125 Z M1413.425,1023.6094 L1410.7531,1023.6094 L1412.0969,1020.3438 L1413.425,1023.6094 Z " fill="#000000"/><text fill="#000000" font-family="sans-serif" font-size="14" font-style="italic" lengthAdjust="spacing" textLength="101" x="1431.95" y="1028.3467">ObjectiveCard</text><line style="stroke:#181818;stroke-width:0.5;" x1="1371.5" x2="1561.5" y1="1039.5" y2="1039.5"/><polygon fill="none" points="1381.5,1048.1484,1385.5,1052.1484,1381.5,1056.1484,1377.5,1052.1484" style="stroke:#B38D22;stroke-width:1.0;"/><text fill="#000000" font-family="sans-serif" font-size="14" lengthAdjust="spacing" textLength="135" x="1390.5" y="1056.4951">Integer pointsWon</text><line style="stroke:#181818;stroke-width:0.5;" x1="1371.5" x2="1561.5" y1="1063.7969" y2="1063.7969"/><ellipse cx="1381.5" cy="1077.4453" fill="#84BE84" rx="3" ry="3" style="stroke:#038048;stroke-width:1.0;"/><text fill="#000000" font-family="sans-serif" font-size="14" lengthAdjust="spacing" textLength="166" x="1390.5" y="1080.792">getPoints(PlayerBoard)</text></g><!--class PositionalObjectiveCard--><g id="elem_PositionalObjectiveCard"><rect codeLine="245" fill="#F1F1F1" height="80.5938" id="PositionalObjectiveCard" rx="2.5" ry="2.5" style="stroke:#181818;stroke-width:0.5;" width="325" x="1184" y="1262"/><ellipse cx="1255.75" cy="1278" fill="#ADD1B2" rx="11" ry="11" style="stroke:#181818;stroke-width:1.0;"/><path d="M1258.0938,1273.6719 C1257.1563,1273.2344 1256.5625,1273.0938 1255.6875,1273.0938 C1253.0625,1273.0938 1251.0625,1275.1719 1251.0625,1277.8906 L1251.0625,1279.0156 C1251.0625,1281.5938 1253.1719,1283.4844 1256.0625,1283.4844 C1257.2813,1283.4844 1258.4375,1283.1875 1259.1875,1282.6406 C1259.7656,1282.2344 1260.0938,1281.7813 1260.0938,1281.3906 C1260.0938,1280.9375 1259.7031,1280.5469 1259.2344,1280.5469 C1259.0156,1280.5469 1258.8125,1280.625 1258.625,1280.8125 C1258.1719,1281.2969 1258.1719,1281.2969 1257.9844,1281.3906 C1257.5625,1281.6563 1256.875,1281.7813 1256.1094,1281.7813 C1254.0625,1281.7813 1252.7656,1280.6875 1252.7656,1278.9844 L1252.7656,1277.8906 C1252.7656,1276.1094 1254.0156,1274.7969 1255.75,1274.7969 C1256.3281,1274.7969 1256.9375,1274.9531 1257.4063,1275.2031 C1257.8906,1275.4844 1258.0625,1275.7031 1258.1563,1276.1094 C1258.2188,1276.5156 1258.25,1276.6406 1258.3906,1276.7656 C1258.5313,1276.9063 1258.7656,1277.0156 1258.9844,1277.0156 C1259.25,1277.0156 1259.5156,1276.875 1259.6875,1276.6563 C1259.7969,1276.5 1259.8281,1276.3125 1259.8281,1275.8906 L1259.8281,1274.4688 C1259.8281,1274.0313 1259.8125,1273.9063 1259.7188,1273.75 C1259.5625,1273.4844 1259.2813,1273.3438 1258.9844,1273.3438 C1258.6875,1273.3438 1258.4844,1273.4375 1258.2656,1273.75 L1258.0938,1273.6719 Z " fill="#000000"/><text fill="#000000" font-family="sans-serif" font-size="14" lengthAdjust="spacing" textLength="173" x="1276.25" y="1282.8467">PositionalObjectiveCard</text><line style="stroke:#181818;stroke-width:0.5;" x1="1185" x2="1508" y1="1294" y2="1294"/><rect fill="none" height="6" style="stroke:#C82930;stroke-width:1.0;" width="6" x="1192" y="1304.6484"/><text fill="#000000" font-family="sans-serif" font-size="14" lengthAdjust="spacing" textLength="299" x="1204" y="1310.9951">ArrayList&lt;PositionalData&gt; positionalData</text><line style="stroke:#181818;stroke-width:0.5;" x1="1185" x2="1508" y1="1318.2969" y2="1318.2969"/><ellipse cx="1195" cy="1331.9453" fill="#84BE84" rx="3" ry="3" style="stroke:#038048;stroke-width:1.0;"/><text fill="#000000" font-family="sans-serif" font-size="14" lengthAdjust="spacing" textLength="166" x="1204" y="1335.292">getPoints(PlayerBoard)</text></g><!--class ItemObjectiveCard--><g id="elem_ItemObjectiveCard"><rect codeLine="227" fill="#F1F1F1" height="80.5938" id="ItemObjectiveCard" rx="2.5" ry="2.5" style="stroke:#181818;stroke-width:0.5;" width="216" x="1544.5" y="1262"/><ellipse cx="1580.65" cy="1278" fill="#ADD1B2" rx="11" ry="11" style="stroke:#181818;stroke-width:1.0;"/><path d="M1582.9938,1273.6719 C1582.0563,1273.2344 1581.4625,1273.0938 1580.5875,1273.0938 C1577.9625,1273.0938 1575.9625,1275.1719 1575.9625,1277.8906 L1575.9625,1279.0156 C1575.9625,1281.5938 1578.0719,1283.4844 1580.9625,1283.4844 C1582.1813,1283.4844 1583.3375,1283.1875 1584.0875,1282.6406 C1584.6656,1282.2344 1584.9938,1281.7813 1584.9938,1281.3906 C1584.9938,1280.9375 1584.6031,1280.5469 1584.1344,1280.5469 C1583.9156,1280.5469 1583.7125,1280.625 1583.525,1280.8125 C1583.0719,1281.2969 1583.0719,1281.2969 1582.8844,1281.3906 C1582.4625,1281.6563 1581.775,1281.7813 1581.0094,1281.7813 C1578.9625,1281.7813 1577.6656,1280.6875 1577.6656,1278.9844 L1577.6656,1277.8906 C1577.6656,1276.1094 1578.9156,1274.7969 1580.65,1274.7969 C1581.2281,1274.7969 1581.8375,1274.9531 1582.3063,1275.2031 C1582.7906,1275.4844 1582.9625,1275.7031 1583.0563,1276.1094 C1583.1188,1276.5156 1583.15,1276.6406 1583.2906,1276.7656 C1583.4313,1276.9063 1583.6656,1277.0156 1583.8844,1277.0156 C1584.15,1277.0156 1584.4156,1276.875 1584.5875,1276.6563 C1584.6969,1276.5 1584.7281,1276.3125 1584.7281,1275.8906 L1584.7281,1274.4688 C1584.7281,1274.0313 1584.7125,1273.9063 1584.6188,1273.75 C1584.4625,1273.4844 1584.1813,1273.3438 1583.8844,1273.3438 C1583.5875,1273.3438 1583.3844,1273.4375 1583.1656,1273.75 L1582.9938,1273.6719 Z " fill="#000000"/><text fill="#000000" font-family="sans-serif" font-size="14" lengthAdjust="spacing" textLength="137" x="1599.35" y="1282.8467">ItemObjectiveCard</text><line style="stroke:#181818;stroke-width:0.5;" x1="1545.5" x2="1759.5" y1="1294" y2="1294"/><rect fill="none" height="6" style="stroke:#C82930;stroke-width:1.0;" width="6" x="1552.5" y="1304.6484"/><text fill="#000000" font-family="sans-serif" font-size="14" lengthAdjust="spacing" textLength="190" x="1564.5" y="1310.9951">GameItemStore multiplier</text><line style="stroke:#181818;stroke-width:0.5;" x1="1545.5" x2="1759.5" y1="1318.2969" y2="1318.2969"/><ellipse cx="1555.5" cy="1331.9453" fill="#84BE84" rx="3" ry="3" style="stroke:#038048;stroke-width:1.0;"/><text fill="#000000" font-family="sans-serif" font-size="14" lengthAdjust="spacing" textLength="166" x="1564.5" y="1335.292">getPoints(PlayerBoard)</text></g><!--class PositionalData--><g id="elem_PositionalData"><rect codeLine="234" fill="#F1F1F1" height="162.0781" id="PositionalData" rx="2.5" ry="2.5" style="stroke:#181818;stroke-width:0.5;" width="257" x="1218" y="1492.5"/><ellipse cx="1290.25" cy="1508.5" fill="#ADD1B2" rx="11" ry="11" style="stroke:#181818;stroke-width:1.0;"/><path d="M1292.5938,1504.1719 C1291.6563,1503.7344 1291.0625,1503.5938 1290.1875,1503.5938 C1287.5625,1503.5938 1285.5625,1505.6719 1285.5625,1508.3906 L1285.5625,1509.5156 C1285.5625,1512.0938 1287.6719,1513.9844 1290.5625,1513.9844 C1291.7813,1513.9844 1292.9375,1513.6875 1293.6875,1513.1406 C1294.2656,1512.7344 1294.5938,1512.2813 1294.5938,1511.8906 C1294.5938,1511.4375 1294.2031,1511.0469 1293.7344,1511.0469 C1293.5156,1511.0469 1293.3125,1511.125 1293.125,1511.3125 C1292.6719,1511.7969 1292.6719,1511.7969 1292.4844,1511.8906 C1292.0625,1512.1563 1291.375,1512.2813 1290.6094,1512.2813 C1288.5625,1512.2813 1287.2656,1511.1875 1287.2656,1509.4844 L1287.2656,1508.3906 C1287.2656,1506.6094 1288.5156,1505.2969 1290.25,1505.2969 C1290.8281,1505.2969 1291.4375,1505.4531 1291.9063,1505.7031 C1292.3906,1505.9844 1292.5625,1506.2031 1292.6563,1506.6094 C1292.7188,1507.0156 1292.75,1507.1406 1292.8906,1507.2656 C1293.0313,1507.4063 1293.2656,1507.5156 1293.4844,1507.5156 C1293.75,1507.5156 1294.0156,1507.375 1294.1875,1507.1563 C1294.2969,1507 1294.3281,1506.8125 1294.3281,1506.3906 L1294.3281,1504.9688 C1294.3281,1504.5313 1294.3125,1504.4063 1294.2188,1504.25 C1294.0625,1503.9844 1293.7813,1503.8438 1293.4844,1503.8438 C1293.1875,1503.8438 1292.9844,1503.9375 1292.7656,1504.25 L1292.5938,1504.1719 Z " fill="#000000"/><text fill="#000000" font-family="sans-serif" font-size="14" lengthAdjust="spacing" textLength="104" x="1310.75" y="1513.3467">PositionalData</text><line style="stroke:#181818;stroke-width:0.5;" x1="1219" x2="1474" y1="1524.5" y2="1524.5"/><rect fill="none" height="6" style="stroke:#C82930;stroke-width:1.0;" width="6" x="1226" y="1535.1484"/><text fill="#000000" font-family="sans-serif" font-size="14" lengthAdjust="spacing" textLength="81" x="1238" y="1541.4951">Point point</text><rect fill="none" height="6" style="stroke:#C82930;stroke-width:1.0;" width="6" x="1226" y="1551.4453"/><text fill="#000000" font-family="sans-serif" font-size="14" lengthAdjust="spacing" textLength="144" x="1238" y="1557.792">CardColor cardColor</text><line style="stroke:#181818;stroke-width:0.5;" x1="1219" x2="1474" y1="1565.0938" y2="1565.0938"/><ellipse cx="1229" cy="1578.7422" fill="#84BE84" rx="3" ry="3" style="stroke:#038048;stroke-width:1.0;"/><text fill="#000000" font-family="sans-serif" font-size="14" lengthAdjust="spacing" textLength="115" x="1238" y="1582.0889">Point getPoint()</text><ellipse cx="1229" cy="1595.0391" fill="#84BE84" rx="3" ry="3" style="stroke:#038048;stroke-width:1.0;"/><text fill="#000000" font-family="sans-serif" font-size="14" lengthAdjust="spacing" textLength="181" x="1238" y="1598.3857">CardColor getCardColor()</text><ellipse cx="1229" cy="1611.3359" fill="#84BE84" rx="3" ry="3" style="stroke:#038048;stroke-width:1.0;"/><text fill="#000000" font-family="sans-serif" font-size="14" lengthAdjust="spacing" textLength="231" x="1238" y="1614.6826">GameItemEnum getGameItem()</text><ellipse cx="1229" cy="1627.6328" fill="#84BE84" rx="3" ry="3" style="stroke:#038048;stroke-width:1.0;"/><text fill="#000000" font-family="sans-serif" font-size="14" lengthAdjust="spacing" textLength="129" x="1238" y="1630.9795">void setPoint(x, y)</text><ellipse cx="1229" cy="1643.9297" fill="#84BE84" rx="3" ry="3" style="stroke:#038048;stroke-width:1.0;"/><text fill="#000000" font-family="sans-serif" font-size="14" lengthAdjust="spacing" textLength="209" x="1238" y="1647.2764">void setCardColor(CardColor)</text></g><!--class CornerPosition--><g id="elem_CornerPosition"><rect codeLine="252" fill="#F1F1F1" height="113.1875" id="CornerPosition" rx="2.5" ry="2.5" style="stroke:#181818;stroke-width:0.5;" width="139" x="1662" y="48"/><ellipse cx="1677" cy="64" fill="#EB937F" rx="11" ry="11" style="stroke:#181818;stroke-width:1.0;"/><path d="M1675.7969,64.875 L1677.25,64.875 L1677.25,64.9844 C1677.25,65.3906 1677.2813,65.5469 1677.3594,65.7031 C1677.5156,65.9531 1677.7969,66.1094 1678.0938,66.1094 C1678.3438,66.1094 1678.6094,65.9688 1678.7656,65.75 C1678.8906,65.5938 1678.9219,65.4375 1678.9219,64.9844 L1678.9219,63.0625 C1678.9219,62.9063 1678.9219,62.8594 1678.9063,62.7031 C1678.8438,62.2344 1678.5313,61.9219 1678.0781,61.9219 C1677.8281,61.9219 1677.5625,62.0625 1677.3906,62.2813 C1677.2813,62.4531 1677.25,62.6094 1677.25,63.0625 L1677.25,63.1875 L1675.7969,63.1875 L1675.7969,60.7813 L1679.7813,60.7813 L1679.7813,61.6406 C1679.7813,62.0469 1679.8125,62.2188 1679.8906,62.375 C1680.0625,62.625 1680.3438,62.7813 1680.625,62.7813 C1680.8906,62.7813 1681.1563,62.6406 1681.3281,62.4219 C1681.4375,62.25 1681.4688,62.1094 1681.4688,61.6406 L1681.4688,59.0938 L1673.8438,59.0938 C1673.4063,59.0938 1673.2813,59.1094 1673.125,59.2031 C1672.875,59.3594 1672.7188,59.6563 1672.7188,59.9375 C1672.7188,60.2188 1672.8594,60.4688 1673.0781,60.6406 C1673.2344,60.75 1673.4219,60.7813 1673.8438,60.7813 L1674.0938,60.7813 L1674.0938,67.2969 L1673.8438,67.2969 C1673.4375,67.2969 1673.2813,67.3125 1673.125,67.4219 C1672.875,67.5938 1672.7188,67.8594 1672.7188,68.1563 C1672.7188,68.4219 1672.8594,68.6719 1673.0781,68.8281 C1673.2188,68.9531 1673.4531,69 1673.8438,69 L1681.8438,69 L1681.8438,66.4219 C1681.8438,65.9844 1681.8125,65.8438 1681.7344,65.6875 C1681.5625,65.4375 1681.2813,65.2813 1681,65.2813 C1680.7344,65.2813 1680.4688,65.3906 1680.2969,65.6406 C1680.1875,65.7969 1680.1563,65.9375 1680.1563,66.4219 L1680.1563,67.2969 L1675.7969,67.2969 L1675.7969,64.875 Z " fill="#000000"/><text fill="#000000" font-family="sans-serif" font-size="14" lengthAdjust="spacing" textLength="107" x="1691" y="68.8467">CornerPosition</text><line style="stroke:#181818;stroke-width:0.5;" x1="1663" x2="1800" y1="80" y2="80"/><text fill="#000000" font-family="sans-serif" font-size="14" lengthAdjust="spacing" textLength="80" x="1668" y="96.9951">TOP_RIGHT</text><text fill="#000000" font-family="sans-serif" font-size="14" lengthAdjust="spacing" textLength="70" x="1668" y="113.292">TOP_LEFT</text><text fill="#000000" font-family="sans-serif" font-size="14" lengthAdjust="spacing" textLength="103" x="1668" y="129.5889">BOTTOM_LEFT</text><text fill="#000000" font-family="sans-serif" font-size="14" lengthAdjust="spacing" textLength="113" x="1668" y="145.8857">BOTTOM_RIGHT</text><line style="stroke:#181818;stroke-width:0.5;" x1="1663" x2="1800" y1="153.1875" y2="153.1875"/></g><!--class GameItemEnum--><g id="elem_GameItemEnum"><rect codeLine="259" fill="#F1F1F1" height="178.375" id="GameItemEnum" rx="2.5" ry="2.5" style="stroke:#181818;stroke-width:0.5;" width="148" x="1836.5" y="15.5"/><ellipse cx="1851.5" cy="31.5" fill="#EB937F" rx="11" ry="11" style="stroke:#181818;stroke-width:1.0;"/><path d="M1850.2969,32.375 L1851.75,32.375 L1851.75,32.4844 C1851.75,32.8906 1851.7813,33.0469 1851.8594,33.2031 C1852.0156,33.4531 1852.2969,33.6094 1852.5938,33.6094 C1852.8438,33.6094 1853.1094,33.4688 1853.2656,33.25 C1853.3906,33.0938 1853.4219,32.9375 1853.4219,32.4844 L1853.4219,30.5625 C1853.4219,30.4063 1853.4219,30.3594 1853.4063,30.2031 C1853.3438,29.7344 1853.0313,29.4219 1852.5781,29.4219 C1852.3281,29.4219 1852.0625,29.5625 1851.8906,29.7813 C1851.7813,29.9531 1851.75,30.1094 1851.75,30.5625 L1851.75,30.6875 L1850.2969,30.6875 L1850.2969,28.2813 L1854.2813,28.2813 L1854.2813,29.1406 C1854.2813,29.5469 1854.3125,29.7188 1854.3906,29.875 C1854.5625,30.125 1854.8438,30.2813 1855.125,30.2813 C1855.3906,30.2813 1855.6563,30.1406 1855.8281,29.9219 C1855.9375,29.75 1855.9688,29.6094 1855.9688,29.1406 L1855.9688,26.5938 L1848.3438,26.5938 C1847.9063,26.5938 1847.7813,26.6094 1847.625,26.7031 C1847.375,26.8594 1847.2188,27.1563 1847.2188,27.4375 C1847.2188,27.7188 1847.3594,27.9688 1847.5781,28.1406 C1847.7344,28.25 1847.9219,28.2813 1848.3438,28.2813 L1848.5938,28.2813 L1848.5938,34.7969 L1848.3438,34.7969 C1847.9375,34.7969 1847.7813,34.8125 1847.625,34.9219 C1847.375,35.0938 1847.2188,35.3594 1847.2188,35.6563 C1847.2188,35.9219 1847.3594,36.1719 1847.5781,36.3281 C1847.7188,36.4531 1847.9531,36.5 1848.3438,36.5 L1856.3438,36.5 L1856.3438,33.9219 C1856.3438,33.4844 1856.3125,33.3438 1856.2344,33.1875 C1856.0625,32.9375 1855.7813,32.7813 1855.5,32.7813 C1855.2344,32.7813 1854.9688,32.8906 1854.7969,33.1406 C1854.6875,33.2969 1854.6563,33.4375 1854.6563,33.9219 L1854.6563,34.7969 L1850.2969,34.7969 L1850.2969,32.375 Z " fill="#000000"/><text fill="#000000" font-family="sans-serif" font-size="14" lengthAdjust="spacing" textLength="116" x="1865.5" y="36.3467">GameItemEnum</text><line style="stroke:#181818;stroke-width:0.5;" x1="1837.5" x2="1983.5" y1="47.5" y2="47.5"/><text fill="#000000" font-family="sans-serif" font-size="14" lengthAdjust="spacing" textLength="46" x="1842.5" y="64.4951">PLANT</text><text fill="#000000" font-family="sans-serif" font-size="14" lengthAdjust="spacing" textLength="54" x="1842.5" y="80.792">ANIMAL</text><text fill="#000000" font-family="sans-serif" font-size="14" lengthAdjust="spacing" textLength="42" x="1842.5" y="97.0889">FUNGI</text><text fill="#000000" font-family="sans-serif" font-size="14" lengthAdjust="spacing" textLength="51" x="1842.5" y="113.3857">INSECT</text><text fill="#000000" font-family="sans-serif" font-size="14" lengthAdjust="spacing" textLength="40" x="1842.5" y="129.6826">QUILL</text><text fill="#000000" font-family="sans-serif" font-size="14" lengthAdjust="spacing" textLength="63" x="1842.5" y="145.9795">INKWELL</text><text fill="#000000" font-family="sans-serif" font-size="14" lengthAdjust="spacing" textLength="92" x="1842.5" y="162.2764">MANUSCRIPT</text><text fill="#000000" font-family="sans-serif" font-size="14" lengthAdjust="spacing" textLength="40" x="1842.5" y="178.5732">NONE</text><line style="stroke:#181818;stroke-width:0.5;" x1="1837.5" x2="1983.5" y1="185.875" y2="185.875"/></g><!--class CardColor--><g id="elem_CardColor"><rect codeLine="270" fill="#F1F1F1" height="129.4844" id="CardColor" rx="2.5" ry="2.5" style="stroke:#181818;stroke-width:0.5;" width="103" x="1680" y="327.5"/><ellipse cx="1695" cy="343.5" fill="#EB937F" rx="11" ry="11" style="stroke:#181818;stroke-width:1.0;"/><path d="M1693.7969,344.375 L1695.25,344.375 L1695.25,344.4844 C1695.25,344.8906 1695.2813,345.0469 1695.3594,345.2031 C1695.5156,345.4531 1695.7969,345.6094 1696.0938,345.6094 C1696.3438,345.6094 1696.6094,345.4688 1696.7656,345.25 C1696.8906,345.0938 1696.9219,344.9375 1696.9219,344.4844 L1696.9219,342.5625 C1696.9219,342.4063 1696.9219,342.3594 1696.9063,342.2031 C1696.8438,341.7344 1696.5313,341.4219 1696.0781,341.4219 C1695.8281,341.4219 1695.5625,341.5625 1695.3906,341.7813 C1695.2813,341.9531 1695.25,342.1094 1695.25,342.5625 L1695.25,342.6875 L1693.7969,342.6875 L1693.7969,340.2813 L1697.7813,340.2813 L1697.7813,341.1406 C1697.7813,341.5469 1697.8125,341.7188 1697.8906,341.875 C1698.0625,342.125 1698.3438,342.2813 1698.625,342.2813 C1698.8906,342.2813 1699.1563,342.1406 1699.3281,341.9219 C1699.4375,341.75 1699.4688,341.6094 1699.4688,341.1406 L1699.4688,338.5938 L1691.8438,338.5938 C1691.4063,338.5938 1691.2813,338.6094 1691.125,338.7031 C1690.875,338.8594 1690.7188,339.1563 1690.7188,339.4375 C1690.7188,339.7188 1690.8594,339.9688 1691.0781,340.1406 C1691.2344,340.25 1691.4219,340.2813 1691.8438,340.2813 L1692.0938,340.2813 L1692.0938,346.7969 L1691.8438,346.7969 C1691.4375,346.7969 1691.2813,346.8125 1691.125,346.9219 C1690.875,347.0938 1690.7188,347.3594 1690.7188,347.6563 C1690.7188,347.9219 1690.8594,348.1719 1691.0781,348.3281 C1691.2188,348.4531 1691.4531,348.5 1691.8438,348.5 L1699.8438,348.5 L1699.8438,345.9219 C1699.8438,345.4844 1699.8125,345.3438 1699.7344,345.1875 C1699.5625,344.9375 1699.2813,344.7813 1699,344.7813 C1698.7344,344.7813 1698.4688,344.8906 1698.2969,345.1406 C1698.1875,345.2969 1698.1563,345.4375 1698.1563,345.9219 L1698.1563,346.7969 L1693.7969,346.7969 L1693.7969,344.375 Z " fill="#000000"/><text fill="#000000" font-family="sans-serif" font-size="14" lengthAdjust="spacing" textLength="71" x="1709" y="348.3467">CardColor</text><line style="stroke:#181818;stroke-width:0.5;" x1="1681" x2="1782" y1="359.5" y2="359.5"/><text fill="#000000" font-family="sans-serif" font-size="14" lengthAdjust="spacing" textLength="28" x="1686" y="376.4951">Red</text><text fill="#000000" font-family="sans-serif" font-size="14" lengthAdjust="spacing" textLength="31" x="1686" y="392.792">Blue</text><text fill="#000000" font-family="sans-serif" font-size="14" lengthAdjust="spacing" textLength="44" x="1686" y="409.0889">Green</text><text fill="#000000" font-family="sans-serif" font-size="14" lengthAdjust="spacing" textLength="46" x="1686" y="425.3857">Purple</text><text fill="#000000" font-family="sans-serif" font-size="14" lengthAdjust="spacing" textLength="52" x="1686" y="441.6826">Neutral</text><line style="stroke:#181818;stroke-width:0.5;" x1="1681" x2="1782" y1="448.9844" y2="448.9844"/></g><!--reverse link GameManager to Game--><g id="link_GameManager_Game"><path codeLine="12" d="M1359.5,214.16 C1359.5,233.33 1359.5,241.74 1359.5,261.79 " fill="none" id="GameManager-backto-Game" style="stroke:#181818;stroke-width:1.0;"/><polygon fill="#181818" points="1359.5,202.16,1355.5,208.16,1359.5,214.16,1363.5,208.16,1359.5,202.16" style="stroke:#181818;stroke-width:1.0;"/><text fill="#000000" font-family="sans-serif" font-size="13" lengthAdjust="spacing" textLength="25" x="1333.6211" y="221.6372">1..N</text><text fill="#000000" font-family="sans-serif" font-size="13" lengthAdjust="spacing" textLength="8" x="1351.2688" y="250.9034">1</text></g><!--reverse link Game to Player--><g id="link_Game_Player"><path codeLine="34" d="M1288.5444,532.7183 C1271.8844,565.5083 1259.49,589.93 1243.04,622.32 " fill="none" id="Game-backto-Player" style="stroke:#181818;stroke-width:1.0;"/><polygon fill="#181818" points="1293.98,522.02,1287.6961,525.5573,1288.5444,532.7183,1294.8283,529.181,1293.98,522.02" style="stroke:#181818;stroke-width:1.0;"/><text fill="#000000" font-family="sans-serif" font-size="13" lengthAdjust="spacing" textLength="24" x="1265.4984" y="542.0452">2..4</text><text fill="#000000" font-family="sans-serif" font-size="13" lengthAdjust="spacing" textLength="8" x="1238.5463" y="611.5019">1</text></g><!--reverse link Game to GlobalBoard--><g id="link_Game_GlobalBoard"><path codeLine="35" d="M1430.4566,532.7178 C1440.3766,552.2378 1445.27,561.88 1455.47,581.98 " fill="none" id="Game-backto-GlobalBoard" style="stroke:#181818;stroke-width:1.0;"/><polygon fill="#181818" points="1425.02,522.02,1424.1724,529.1811,1430.4566,532.7178,1431.3042,525.5567,1425.02,522.02" style="stroke:#181818;stroke-width:1.0;"/><text fill="#000000" font-family="sans-serif" font-size="13" lengthAdjust="spacing" textLength="8" x="1420.5766" y="542.0452">1</text><text fill="#000000" font-family="sans-serif" font-size="13" lengthAdjust="spacing" textLength="8" x="1443.3029" y="570.8136">1</text></g><!--reverse link GlobalBoard to Deck--><g id="link_GlobalBoard_Deck"><path codeLine="58" d="M1617.6742,918.1637 C1631.7542,948.4837 1640.5,967.31 1651.72,991.49 " fill="none" id="GlobalBoard-backto-Deck" style="stroke:#181818;stroke-width:1.0;"/><polygon fill="#181818" points="1612.62,907.28,1611.5192,914.4066,1617.6742,918.1637,1618.775,911.0371,1612.62,907.28" style="stroke:#181818;stroke-width:1.0;"/><text fill="#000000" font-family="sans-serif" font-size="13" lengthAdjust="spacing" textLength="8" x="1607.8426" y="927.0647">3</text><text fill="#000000" font-family="sans-serif" font-size="13" lengthAdjust="spacing" textLength="8" x="1639.9044" y="980.3521">1</text></g><!--reverse link Player to PlayerBoard--><g id="link_Player_PlayerBoard"><path codeLine="77" d="M1039.3935,856.2146 C989.8315,894.8246 943.809,930.68 897.335,966.88 " fill="none" id="Player-backto-PlayerBoard" style="stroke:#181818;stroke-width:1.0;"/><polygon fill="#181818" points="1048.86,848.84,1041.6685,849.3718,1039.3935,856.2146,1046.585,855.6828,1048.86,848.84" style="stroke:#181818;stroke-width:1.0;"/><text fill="#000000" font-family="sans-serif" font-size="13" lengthAdjust="spacing" textLength="8" x="1032.9605" y="851.5219">1</text><text fill="#000000" font-family="sans-serif" font-size="13" lengthAdjust="spacing" textLength="8" x="898.1375" y="956.0566">1</text></g><!--reverse link Player to Hand--><g id="link_Player_Hand"><path codeLine="94" d="M1181.5,878.83 C1181.5,921.86 1181.5,956.23 1181.5,991.14 " fill="none" id="Player-backto-Hand" style="stroke:#181818;stroke-width:1.0;"/><polygon fill="#181818" points="1181.5,866.83,1177.5,872.83,1181.5,878.83,1185.5,872.83,1181.5,866.83" style="stroke:#181818;stroke-width:1.0;"/><text fill="#000000" font-family="sans-serif" font-size="13" lengthAdjust="spacing" textLength="8" x="1173.2813" y="886.0126">1</text><text fill="#000000" font-family="sans-serif" font-size="13" lengthAdjust="spacing" textLength="8" x="1173.0125" y="980.3597">1</text></g><!--reverse link PlayerBoard to GameCard--><g id="link_PlayerBoard_GameCard"><path codeLine="106" d="M688.9941,1136.922 C666.2061,1155.911 650.708,1168.827 626.554,1188.955 " fill="none" id="PlayerBoard-backto-GameCard" style="stroke:#181818;stroke-width:1.0;"/><polygon fill="#181818" points="698.213,1129.24,691.0429,1130.008,688.9941,1136.922,696.1642,1136.1539,698.213,1129.24" style="stroke:#181818;stroke-width:1.0;"/><text fill="#000000" font-family="sans-serif" font-size="13" lengthAdjust="spacing" textLength="25" x="663.5242" y="1149.2127">1..N</text><text fill="#000000" font-family="sans-serif" font-size="13" lengthAdjust="spacing" textLength="8" x="627.3592" y="1177.8847">1</text></g><!--reverse link Store to GameItemStore--><g id="link_Store_GameItemStore"><path d="M867.8679,1393.4191 C874.8039,1443.8421 881.355,1491.471 887.032,1532.745 " fill="none" id="Store-backto-GameItemStore" style="stroke:#181818;stroke-width:1.0;"/><polygon fill="none" points="865.415,1375.587,861.9239,1394.2367,873.8119,1392.6014,865.415,1375.587" style="stroke:#181818;stroke-width:1.0;"/></g><!--reverse link PlayerBoard to Store--><g id="link_PlayerBoard_Store"><path codeLine="123" d="M816.7027,1140.9045 C824.4467,1172.9625 830.482,1197.941 838.025,1229.166 " fill="none" id="PlayerBoard-backto-Store" style="stroke:#181818;stroke-width:1.0;"/><polygon fill="#181818" points="813.885,1129.24,811.4057,1136.0115,816.7027,1140.9045,819.182,1134.133,813.885,1129.24" style="stroke:#181818;stroke-width:1.0;"/><text fill="#000000" font-family="sans-serif" font-size="13" lengthAdjust="spacing" textLength="8" x="807.2552" y="1149.2127">2</text><text fill="#000000" font-family="sans-serif" font-size="13" lengthAdjust="spacing" textLength="8" x="827.9782" y="1218.5452">1</text></g><!--reverse link GameCard to Side--><g id="link_GameCard_Side"><path codeLine="141" d="M482.7067,1427.9922 C481.3037,1447.8602 480.699,1456.415 479.33,1475.8 " fill="none" id="GameCard-backto-Side" style="stroke:#181818;stroke-width:1.0;"/><polygon fill="#181818" points="483.552,1416.022,479.1393,1421.7253,482.7067,1427.9922,487.1194,1422.2889,483.552,1416.022" style="stroke:#181818;stroke-width:1.0;"/><text fill="#000000" font-family="sans-serif" font-size="13" lengthAdjust="spacing" textLength="8" x="474.7492" y="1436.2156">2</text><text fill="#000000" font-family="sans-serif" font-size="13" lengthAdjust="spacing" textLength="8" x="471.5467" y="1464.8302">1</text></g><!--reverse link Side to Front--><g id="link_Side_Front"><path codeLine="155" d="M354.0798,1683.5059 C325.6518,1709.6749 309.369,1724.662 285.307,1746.811 " fill="none" id="Side-backto-Front" style="stroke:#181818;stroke-width:1.0;"/><polygon fill="none" points="367.323,1671.315,350.0162,1679.0915,358.1434,1687.9203,367.323,1671.315" style="stroke:#181818;stroke-width:1.0;"/></g><!--reverse link Side to Back--><g id="link_Side_Back"><path codeLine="156" d="M472.5,1689.315 C472.5,1715.484 472.5,1724.662 472.5,1746.811 " fill="none" id="Side-backto-Back" style="stroke:#181818;stroke-width:1.0;"/><polygon fill="none" points="472.5,1671.315,466.5,1689.315,478.5,1689.315,472.5,1671.315" style="stroke:#181818;stroke-width:1.0;"/></g><!--reverse link Side to Corner--><g id="link_Side_Corner"><path codeLine="157" d="M601.0756,1678.8782 C625.9266,1699.0522 642.2,1712.264 665.121,1730.871 " fill="none" id="Side-backto-Corner" style="stroke:#181818;stroke-width:1.0;"/><polygon fill="#181818" points="591.759,1671.315,593.8962,1678.2021,601.0756,1678.8782,598.9383,1671.9911,591.759,1671.315" style="stroke:#181818;stroke-width:1.0;"/><text fill="#000000" font-family="sans-serif" font-size="13" lengthAdjust="spacing" textLength="24" x="575.3006" y="1690.8031">1..4</text><text fill="#000000" font-family="sans-serif" font-size="13" lengthAdjust="spacing" textLength="8" x="648.1108" y="1720.0296">1</text></g><!--reverse link Front to FrontGoldCard--><g id="link_Front_FrontGoldCard"><path codeLine="185" d="M233.5,1862.085 C233.5,1886.14 233.5,1896.994 233.5,1919.834 " fill="none" id="Front-backto-FrontGoldCard" style="stroke:#181818;stroke-width:1.0;"/><polygon fill="none" points="233.5,1844.085,227.5,1862.085,239.5,1862.085,233.5,1844.085" style="stroke:#181818;stroke-width:1.0;"/></g><!--reverse link FrontGoldCard to FrontPositionalGoldCard--><g id="link_FrontGoldCard_FrontPositionalGoldCard"><path codeLine="192" d="M186.3245,2014.812 C167.1575,2036.472 155.731,2049.3853 137.935,2069.4962 " fill="none" id="FrontGoldCard-backto-FrontPositionalGoldCard" style="stroke:#181818;stroke-width:1.0;"/><polygon fill="none" points="198.253,2001.332,181.8312,2010.8358,190.8178,2018.7882,198.253,2001.332" style="stroke:#181818;stroke-width:1.0;"/></g><!--reverse link FrontGoldCard to FrontItemGoldCard--><g id="link_FrontGoldCard_FrontItemGoldCard"><path codeLine="193" d="M281.0157,2014.7638 C297.6197,2033.3758 305.357,2042.0499 321.961,2060.6624 " fill="none" id="FrontGoldCard-backto-FrontItemGoldCard" style="stroke:#181818;stroke-width:1.0;"/><polygon fill="none" points="269.033,2001.332,276.5384,2018.7581,285.493,2010.7696,269.033,2001.332" style="stroke:#181818;stroke-width:1.0;"/></g><!--reverse link Player to ObjectiveCard--><g id="link_Player_ObjectiveCard"><path codeLine="223" d="M1301.6653,875.3156 C1314.4553,888.9956 1319.14,893.94 1331.5,907 C1363.76,941.09 1400.79,979.43 1427.9,1007.36 " fill="none" id="Player-backto-ObjectiveCard" style="stroke:#181818;stroke-width:1.0;"/><polygon fill="#181818" points="1293.47,866.55,1294.6458,873.6646,1301.6653,875.3156,1300.4896,868.201,1293.47,866.55" style="stroke:#181818;stroke-width:1.0;"/></g><!--reverse link GlobalBoard to ObjectiveCard--><g id="link_GlobalBoard_ObjectiveCard"><path codeLine="224" d="M1496.6505,918.9608 C1487.8705,956.2608 1482.05,980.97 1475.86,1007.26 " fill="none" id="GlobalBoard-backto-ObjectiveCard" style="stroke:#181818;stroke-width:1.0;"/><polygon fill="#181818" points="1499.4,907.28,1494.1317,912.2039,1496.6505,918.9608,1501.9188,914.0369,1499.4,907.28" style="stroke:#181818;stroke-width:1.0;"/></g><!--reverse link ObjectiveCard to PositionalObjectiveCard--><g id="link_ObjectiveCard_PositionalObjectiveCard"><path codeLine="225" d="M1439.894,1104.9876 C1417.454,1152.2076 1387.95,1214.283 1365.47,1261.584 " fill="none" id="ObjectiveCard-backto-PositionalObjectiveCard" style="stroke:#181818;stroke-width:1.0;"/><polygon fill="none" points="1447.62,1088.73,1434.4748,1102.4123,1445.3132,1107.5629,1447.62,1088.73" style="stroke:#181818;stroke-width:1.0;"/></g><!--reverse link ObjectiveCard to ItemObjectiveCard--><g id="link_ObjectiveCard_ItemObjectiveCard"><path codeLine="232" d="M1506.4449,1103.223 C1541.2249,1150.443 1588.25,1214.283 1623.1,1261.584 " fill="none" id="ObjectiveCard-backto-ItemObjectiveCard" style="stroke:#181818;stroke-width:1.0;"/><polygon fill="none" points="1495.77,1088.73,1501.6139,1106.7813,1511.2759,1099.6647,1495.77,1088.73" style="stroke:#181818;stroke-width:1.0;"/></g><!--reverse link PositionalObjectiveCard to PositionalData--><g id="link_PositionalObjectiveCard_PositionalData"><path codeLine="243" d="M1346.5,1355.192 C1346.5,1394.286 1346.5,1443.123 1346.5,1492.312 " fill="none" id="PositionalObjectiveCard-backto-PositionalData" style="stroke:#181818;stroke-width:1.0;"/><polygon fill="#181818" points="1346.5,1343.192,1342.5,1349.192,1346.5,1355.192,1350.5,1349.192,1346.5,1343.192" style="stroke:#181818;stroke-width:1.0;"/><text fill="#000000" font-family="sans-serif" font-size="13" lengthAdjust="spacing" textLength="25" x="1319.5859" y="1362.6796">1..N</text><text fill="#000000" font-family="sans-serif" font-size="13" lengthAdjust="spacing" textLength="8" x="1338.1438" y="1481.4826">1</text></g><!--SRC=[hLZDKXmt4BxFKwZ8WNLOaxAJMnogO0thBSD2s7Nvc18ppI9dThGbQR31uLrop7lunTBwbsPcWVouoY2fU_htwrQBigPIaYbTmnbjw0e4-LeG_FVoK0XwTygaUgE91sI5F-KGQK95TK0gkAPjhQQyhjv2-VkJZ9SWUIjA668-l_e4fMAt-HVXz5do5ueA1IBmxlNy0QKNSlJ2qlM6b0Ae0hqSBPHWpSguFSV_Oy8QHPgBcjw1a6FYo1kprmnEJ0Kr34j8zNpYh1dMCY3teKZJi_DgVt- -Gxv_-HANEoPpHL66BFhqTGJRmzI5RWJjyO7JxCZJcb_H-eXZPCaghYtHVa7ALWXebDrP7xro6sAjtqUvhm-Pd4MUnyaDXD6sM6VMeQwuzQ9eLJaPJgYLqLCqXozUcQDTSLu3RGYJ5adLenvyP4rZldqeYeOh83LSAyAlRNgc81NZ3P0LuoLLN30222Tsp_WFrmpFDwY1ALf0Kn7zUM4oJdPUx-__55Fj8cn9hn8898dnI4WYum2XAo4farLMg1sYw1MdOUZK9UyNP4UEx1JXzXgtu0g7ZpIQQmPrfTkCtZx5vxjCvDthnW52p_8PxdEapIhZwde1UPVQBZ5fJtrWzQLEE-7fVvD9FybYz1pcB53z6l0XEbvlr5sVdCOdOwa4_Qn5dWY-Ddf6NZKfyOUfbzqKh0GnJJB_YvIyysE4lK6LmxkhP0lrtNUKr9J8bhfpy-tOdztG1ZUinWqdJRi6mKd5Y62I2mc4AjNIcWNs3PUwKB5APLiJHQ-WhlKEl0X-nK2XjNm_wxonMyNUQyykk4mRgFLi4zUMc0KXrjeaCBn3FumpDjIXNQRjDXncNJ6SeYMzCoqsESpCyEUoUvxjGk-zfKq9KPEEW5ImaPPXTnvYly4SChqeMqOeVdPF1MXikBoctIxnnsVVbDVoe3-vBFKuu7lF9Jh6rqIONpzt8Pp1TaaqS6qxTpfCjBzkRpSn4LlAp6z2n6yvgmXUK2Q0dfhI1AovYsya3mT5MvVNGjRxtr5vSqOtRovmx51Z4ktgeKwJPWhM2xobm4mFUkTQv_b6NsEq7dPiPAI_wB2QmumFeS0qiUlpS-CsQnIixBNjhJrSyxPH8xzDWoYx1aRtas2wxj8VhIO9p4nC8iw-yr5TZecpITzuo1EAPxGaAfQCtWLMTymQ73dNE3uD4H6xsubwQk6DWUrxk9CMh74EZ4d4qGRd2cU-itqlOqb7u7ZetVEdYPS15xP2iXY-ZW4qSeeYDMkIe7B1Al3JerudfrpTW8Xd-gwOy9eB4bPkqDJC68b9b9ALb_pCL7cJ7a-2AFsPtuowi9rmWGFTWUOngv7zvR7R2TWnNYCQQPPfWbKhS61yz1DNO173MIOIZ1lGob4IussIvW0LLAci1pj8Jdg9qP4jw9LKWfQAE7ZhM3feT-EW-EQIhMxKLkefphl3n2kk55y_HO_Izvw8-VyPvlyUNXEqDtzWN774QLIoFw9uyPYjRYl966_jzKLXToxk2FLu8pd_F273cY_0mb5p92RkEay7iMh35nYEUdSXKdHvuo_pfh6PqgyQvuB-R0ur5gNa-9unjtVRU9U-_KLkMwxuc52Sc0JL4nO-p45y-nFlUDHDCfD-8VFp-R6HkT2leriepOZbf3My8I3nTW0pkw6BA4a_LF3Xr38jqmDh7vAh74NX78TTGr5jq8RH-tkgw9X8jchODIkHU0D6UWMtd6m4yB9iyK6sDWC9BKkGw1trTWneYQ-sNGC2a_I5deTuuzDi2Bwwp2XeS1TW-4_WYJcnuYBk_AoVgVE7NcsEw2R0ELen2F5SLjJfAuxMGVisLYqncfZQs1VYRwX7QZCPothY_UMIOMkDk6ERclc_JsmFxAuksw44wlFXGFh7yhzEvcu-wWV5dVwSSxcd3fdeTsHyWrW3_VLXGVOHXJrXWXifTOlArMIlhnwvo9bDmcD6SrONHnsN8Kywa-VpCpPWGaz768s3RM-n2NZDHh2DbJsOR1itBAUtvNaZnHETEKofLkINCRdh4AB4iDAERubpTuZDNUu7OZ0NoT-uiiyFp6iu4VSKietJ0T2WT_brxJGkpoz-kvnDtot3xlJun6wEpfVByxFUtd8_EA5PaAt8YzF3kVtYS3uxEpmrovCFy-dCh6RpnV74qd_zC3izTOVlFnwxzTdX_CDYSZcxi4pcSlBgOiQjhajtJH_LhPrOfmB05jr5ApOrkAkonNgkYuU_0G00]--></g></svg>