<?xml version="1.0" encoding="us-ascii" standalone="no"?><svg xmlns="http://www.w3.org/2000/svg" xmlns:xlink="http://www.w3.org/1999/xlink" contentStyleType="text/css" height="485px" preserveAspectRatio="none" style="width:2118px;height:485px;background:#FFFFFF;" version="1.1" viewBox="0 0 2118 485" width="2118px" zoomAndPan="magnify"><defs/><g><!--cluster ServerNetworkMessage--><g id="cluster_ServerNetworkMessage"><path d="M8.5,32.7 L199.5,32.7 A3.75,3.75 0 0 1 202,35.2 L209,54.9969 L773.5,54.9969 A2.5,2.5 0 0 1 776,57.4969 L776,475.58 A2.5,2.5 0 0 1 773.5,478.08 L8.5,478.08 A2.5,2.5 0 0 1 6,475.58 L6,35.2 A2.5,2.5 0 0 1 8.5,32.7 " fill="none" style="stroke:#000000;stroke-width:1.5;"/><line style="stroke:#000000;stroke-width:1.5;" x1="6" x2="209" y1="54.9969" y2="54.9969"/><text fill="#000000" font-family="sans-serif" font-size="14" font-weight="bold" lengthAdjust="spacing" textLength="190" x="10" y="47.6951">ServerNetworkMessage</text></g><!--cluster ClientNetworkMessage--><g id="cluster_ClientNetworkMessage"><path d="M802.5,49 L985.5,49 A3.75,3.75 0 0 1 988,51.5 L995,71.2969 L1075.5,71.2969 A2.5,2.5 0 0 1 1078,73.7969 L1078,326.84 A2.5,2.5 0 0 1 1075.5,329.34 L802.5,329.34 A2.5,2.5 0 0 1 800,326.84 L800,51.5 A2.5,2.5 0 0 1 802.5,49 " fill="none" style="stroke:#000000;stroke-width:1.5;"/><line style="stroke:#000000;stroke-width:1.5;" x1="800" x2="995" y1="71.2969" y2="71.2969"/><text fill="#000000" font-family="sans-serif" font-size="14" font-weight="bold" lengthAdjust="spacing" textLength="182" x="804" y="63.9951">ClientNetworkMessage</text></g><!--cluster Connection--><g id="cluster_Connection"><path d="M1104.5,6 L1195.5,6 A3.75,3.75 0 0 1 1198,8.5 L1205,28.2969 L2108.5,28.2969 A2.5,2.5 0 0 1 2111,30.7969 L2111,342.69 A2.5,2.5 0 0 1 2108.5,345.19 L1104.5,345.19 A2.5,2.5 0 0 1 1102,342.69 L1102,8.5 A2.5,2.5 0 0 1 1104.5,6 " fill="none" style="stroke:#000000;stroke-width:1.5;"/><line style="stroke:#000000;stroke-width:1.5;" x1="1102" x2="1205" y1="28.2969" y2="28.2969"/><text fill="#000000" font-family="sans-serif" font-size="14" font-weight="bold" lengthAdjust="spacing" textLength="90" x="1106" y="20.9951">Connection</text></g><!--cluster ServerConnection--><g id="cluster_ServerConnection"><path d="M1128.5,49 L1272.5,49 A3.75,3.75 0 0 1 1275,51.5 L1282,71.2969 L1639.5,71.2969 A2.5,2.5 0 0 1 1642,73.7969 L1642,318.69 A2.5,2.5 0 0 1 1639.5,321.19 L1128.5,321.19 A2.5,2.5 0 0 1 1126,318.69 L1126,51.5 A2.5,2.5 0 0 1 1128.5,49 " fill="none" style="stroke:#000000;stroke-width:1.5;"/><line style="stroke:#000000;stroke-width:1.5;" x1="1126" x2="1282" y1="71.2969" y2="71.2969"/><text fill="#000000" font-family="sans-serif" font-size="14" font-weight="bold" lengthAdjust="spacing" textLength="143" x="1130" y="63.9951">ServerConnection</text></g><!--cluster ClientConnection--><g id="cluster_ClientConnection"><path d="M1668.5,57.15 L1804.5,57.15 A3.75,3.75 0 0 1 1807,59.65 L1814,79.4469 L2084.5,79.4469 A2.5,2.5 0 0 1 2087,81.9469 L2087,318.69 A2.5,2.5 0 0 1 2084.5,321.19 L1668.5,321.19 A2.5,2.5 0 0 1 1666,318.69 L1666,59.65 A2.5,2.5 0 0 1 1668.5,57.15 " fill="none" style="stroke:#000000;stroke-width:1.5;"/><line style="stroke:#000000;stroke-width:1.5;" x1="1666" x2="1814" y1="79.4469" y2="79.4469"/><text fill="#000000" font-family="sans-serif" font-size="14" font-weight="bold" lengthAdjust="spacing" textLength="135" x="1670" y="72.1451">ClientConnection</text></g><!--class ServerNetworkMessage--><g id="elem_ServerNetworkMessage"><rect codeLine="2" fill="#F1F1F1" height="96.8906" id="ServerNetworkMessage" rx="2.5" ry="2.5" style="stroke:#181818;stroke-width:0.5;" width="196" x="254" y="67.7"/><ellipse cx="269" cy="83.7" fill="#A9DCDF" rx="11" ry="11" style="stroke:#181818;stroke-width:1.0;"/><path d="M269.1094,79.0437 L267.9531,84.1219 L270.2813,84.1219 L269.1094,79.0437 Z M267.625,76.8094 L270.6094,76.8094 L273.9688,89.2 L271.5156,89.2 L270.75,86.1375 L267.4688,86.1375 L266.7188,89.2 L264.2813,89.2 L267.625,76.8094 Z " fill="#000000"/><text fill="#000000" font-family="sans-serif" font-size="14" font-style="italic" lengthAdjust="spacing" textLength="164" x="283" y="88.5467">ServerNetworkMessage</text><line style="stroke:#181818;stroke-width:0.5;" x1="255" x2="449" y1="99.7" y2="99.7"/><rect fill="none" height="6" style="stroke:#C82930;stroke-width:1.0;" width="6" x="262" y="110.3484"/><text fill="#000000" font-family="sans-serif" font-size="14" lengthAdjust="spacing" textLength="92" x="274" y="116.6951">status: String</text><line style="stroke:#181818;stroke-width:0.5;" x1="255" x2="449" y1="123.9969" y2="123.9969"/><ellipse cx="265" cy="137.6453" fill="#84BE84" rx="3" ry="3" style="stroke:#038048;stroke-width:1.0;"/><text fill="#000000" font-family="sans-serif" font-size="14" lengthAdjust="spacing" textLength="126" x="274" y="140.992">getStatus(): String</text><ellipse cx="265" cy="153.9422" fill="#84BE84" rx="3" ry="3" style="stroke:#038048;stroke-width:1.0;"/><text fill="#000000" font-family="sans-serif" font-size="14" lengthAdjust="spacing" textLength="113" x="274" y="157.2889">setStatus(): void</text></g><!--class ErrorMessage--><g id="elem_ErrorMessage"><rect codeLine="8" fill="#F1F1F1" height="96.8906" id="ErrorMessage" rx="2.5" ry="2.5" style="stroke:#181818;stroke-width:0.5;" width="171" x="22.5" y="224.6"/><ellipse cx="56.85" cy="240.6" fill="#ADD1B2" rx="11" ry="11" style="stroke:#181818;stroke-width:1.0;"/><path d="M59.8188,246.2406 Q59.2406,246.5375 58.6,246.6781 Q57.9594,246.8344 57.2563,246.8344 Q54.7563,246.8344 53.4281,245.1937 Q52.1156,243.5375 52.1156,240.4125 Q52.1156,237.2875 53.4281,235.6312 Q54.7563,233.975 57.2563,233.975 Q57.9594,233.975 58.6,234.1312 Q59.2563,234.2875 59.8188,234.5844 L59.8188,237.3031 Q59.1938,236.725 58.6,236.4594 Q58.0063,236.1781 57.3813,236.1781 Q56.0375,236.1781 55.35,237.2562 Q54.6625,238.3187 54.6625,240.4125 Q54.6625,242.5062 55.35,243.5844 Q56.0375,244.6469 57.3813,244.6469 Q58.0063,244.6469 58.6,244.3812 Q59.1938,244.1 59.8188,243.5219 L59.8188,246.2406 Z " fill="#000000"/><text fill="#000000" font-family="sans-serif" font-size="14" lengthAdjust="spacing" textLength="96" x="75.15" y="245.4467">ErrorMessage</text><line style="stroke:#181818;stroke-width:0.5;" x1="23.5" x2="192.5" y1="256.6" y2="256.6"/><rect fill="none" height="6" style="stroke:#C82930;stroke-width:1.0;" width="6" x="30.5" y="267.2484"/><text fill="#000000" font-family="sans-serif" font-size="14" lengthAdjust="spacing" textLength="113" x="42.5" y="273.5951">message: String</text><line style="stroke:#181818;stroke-width:0.5;" x1="23.5" x2="192.5" y1="280.8969" y2="280.8969"/><ellipse cx="33.5" cy="294.5453" fill="#84BE84" rx="3" ry="3" style="stroke:#038048;stroke-width:1.0;"/><text fill="#000000" font-family="sans-serif" font-size="14" lengthAdjust="spacing" textLength="145" x="42.5" y="297.892">getMessage(): String</text><ellipse cx="33.5" cy="310.8422" fill="#84BE84" rx="3" ry="3" style="stroke:#038048;stroke-width:1.0;"/><text fill="#000000" font-family="sans-serif" font-size="14" lengthAdjust="spacing" textLength="132" x="42.5" y="314.1889">setMessage(): void</text></g><!--class GetGamesMessage--><g id="elem_GetGamesMessage"><rect codeLine="14" fill="#F1F1F1" height="64.2969" id="GetGamesMessage" rx="2.5" ry="2.5" style="stroke:#181818;stroke-width:0.5;" width="250" x="510" y="240.89"/><ellipse cx="562.25" cy="256.89" fill="#ADD1B2" rx="11" ry="11" style="stroke:#181818;stroke-width:1.0;"/><path d="M565.2188,262.5306 Q564.6406,262.8275 564,262.9681 Q563.3594,263.1244 562.6563,263.1244 Q560.1563,263.1244 558.8281,261.4838 Q557.5156,259.8275 557.5156,256.7025 Q557.5156,253.5775 558.8281,251.9213 Q560.1563,250.265 562.6563,250.265 Q563.3594,250.265 564,250.4213 Q564.6563,250.5775 565.2188,250.8744 L565.2188,253.5931 Q564.5938,253.015 564,252.7494 Q563.4063,252.4681 562.7813,252.4681 Q561.4375,252.4681 560.75,253.5463 Q560.0625,254.6088 560.0625,256.7025 Q560.0625,258.7963 560.75,259.8744 Q561.4375,260.9369 562.7813,260.9369 Q563.4063,260.9369 564,260.6713 Q564.5938,260.39 565.2188,259.8119 L565.2188,262.5306 Z " fill="#000000"/><text fill="#000000" font-family="sans-serif" font-size="14" lengthAdjust="spacing" textLength="137" x="582.75" y="261.7367">GetGamesMessage</text><line style="stroke:#181818;stroke-width:0.5;" x1="511" x2="759" y1="272.89" y2="272.89"/><rect fill="none" height="6" style="stroke:#C82930;stroke-width:1.0;" width="6" x="518" y="283.5384"/><text fill="#000000" font-family="sans-serif" font-size="14" lengthAdjust="spacing" textLength="224" x="530" y="289.8851">HashSet&lt;GameRecord&gt; games</text><line style="stroke:#181818;stroke-width:0.5;" x1="511" x2="759" y1="297.1869" y2="297.1869"/></g><!--class GameRecord--><g id="elem_GameRecord"><rect codeLine="17" fill="#F1F1F1" height="96.8906" id="GameRecord" rx="2.5" ry="2.5" style="stroke:#181818;stroke-width:0.5;" width="177" x="546.5" y="67.7"/><ellipse cx="585.8" cy="83.7" fill="#ADD1B2" rx="11" ry="11" style="stroke:#181818;stroke-width:1.0;"/><path d="M588.7688,89.3406 Q588.1906,89.6375 587.55,89.7781 Q586.9094,89.9344 586.2063,89.9344 Q583.7063,89.9344 582.3781,88.2937 Q581.0656,86.6375 581.0656,83.5125 Q581.0656,80.3875 582.3781,78.7312 Q583.7063,77.075 586.2063,77.075 Q586.9094,77.075 587.55,77.2312 Q588.2063,77.3875 588.7688,77.6844 L588.7688,80.4031 Q588.1438,79.825 587.55,79.5594 Q586.9563,79.2781 586.3313,79.2781 Q584.9875,79.2781 584.3,80.3562 Q583.6125,81.4187 583.6125,83.5125 Q583.6125,85.6062 584.3,86.6844 Q584.9875,87.7469 586.3313,87.7469 Q586.9563,87.7469 587.55,87.4812 Q588.1438,87.2 588.7688,86.6219 L588.7688,89.3406 Z " fill="#000000"/><text fill="#000000" font-family="sans-serif" font-size="14" lengthAdjust="spacing" textLength="91" x="605.2" y="88.5467">GameRecord</text><line style="stroke:#181818;stroke-width:0.5;" x1="547.5" x2="722.5" y1="99.7" y2="99.7"/><rect fill="none" height="6" style="stroke:#C82930;stroke-width:1.0;" width="6" x="554.5" y="110.3484"/><text fill="#000000" font-family="sans-serif" font-size="14" lengthAdjust="spacing" textLength="123" x="566.5" y="116.6951">String gameName</text><rect fill="none" height="6" style="stroke:#C82930;stroke-width:1.0;" width="6" x="554.5" y="126.6453"/><text fill="#000000" font-family="sans-serif" font-size="14" lengthAdjust="spacing" textLength="112" x="566.5" y="132.992">int joinedPlayers</text><rect fill="none" height="6" style="stroke:#C82930;stroke-width:1.0;" width="6" x="554.5" y="142.9422"/><text fill="#000000" font-family="sans-serif" font-size="14" lengthAdjust="spacing" textLength="151" x="566.5" y="149.2889">int maxAllowedPlayers</text><line style="stroke:#181818;stroke-width:0.5;" x1="547.5" x2="722.5" y1="156.5906" y2="156.5906"/></g><!--class ViewUpdateMessage--><g id="elem_ViewUpdateMessage"><rect codeLine="24" fill="#F1F1F1" height="64.2969" id="ViewUpdateMessage" rx="2.5" ry="2.5" style="stroke:#181818;stroke-width:0.5;" width="246" x="229" y="240.89"/><ellipse cx="275.25" cy="256.89" fill="#A9DCDF" rx="11" ry="11" style="stroke:#181818;stroke-width:1.0;"/><path d="M275.3594,252.2338 L274.2031,257.3119 L276.5313,257.3119 L275.3594,252.2338 Z M273.875,249.9994 L276.8594,249.9994 L280.2188,262.39 L277.7656,262.39 L277,259.3275 L273.7188,259.3275 L272.9688,262.39 L270.5313,262.39 L273.875,249.9994 Z " fill="#000000"/><text fill="#000000" font-family="sans-serif" font-size="14" font-style="italic" lengthAdjust="spacing" textLength="145" x="295.75" y="261.7367">ViewUpdateMessage</text><line style="stroke:#181818;stroke-width:0.5;" x1="230" x2="474" y1="272.89" y2="272.89"/><rect fill="none" height="6" style="stroke:#C82930;stroke-width:1.0;" width="6" x="237" y="283.5384"/><text fill="#000000" font-family="sans-serif" font-size="14" lengthAdjust="spacing" textLength="220" x="249" y="289.8851">PlayerActionsEnum playerAction</text><line style="stroke:#181818;stroke-width:0.5;" x1="230" x2="474" y1="297.1869" y2="297.1869"/></g><!--class PlaceCardViewUpdateMessage--><g id="elem_PlaceCardViewUpdateMessage"><rect codeLine="28" fill="#F1F1F1" height="80.5938" id="PlaceCardViewUpdateMessage" rx="2.5" ry="2.5" style="stroke:#181818;stroke-width:0.5;" width="246" x="229" y="381.49"/><ellipse cx="244" cy="397.49" fill="#ADD1B2" rx="11" ry="11" style="stroke:#181818;stroke-width:1.0;"/><path d="M246.9688,403.1306 Q246.3906,403.4275 245.75,403.5681 Q245.1094,403.7244 244.4063,403.7244 Q241.9063,403.7244 240.5781,402.0837 Q239.2656,400.4275 239.2656,397.3025 Q239.2656,394.1775 240.5781,392.5212 Q241.9063,390.865 244.4063,390.865 Q245.1094,390.865 245.75,391.0212 Q246.4063,391.1775 246.9688,391.4744 L246.9688,394.1931 Q246.3438,393.615 245.75,393.3494 Q245.1563,393.0681 244.5313,393.0681 Q243.1875,393.0681 242.5,394.1462 Q241.8125,395.2087 241.8125,397.3025 Q241.8125,399.3962 242.5,400.4744 Q243.1875,401.5369 244.5313,401.5369 Q245.1563,401.5369 245.75,401.2712 Q246.3438,400.99 246.9688,400.4119 L246.9688,403.1306 Z " fill="#000000"/><text fill="#000000" font-family="sans-serif" font-size="14" lengthAdjust="spacing" textLength="214" x="258" y="402.3367">PlaceCardViewUpdateMessage</text><line style="stroke:#181818;stroke-width:0.5;" x1="230" x2="474" y1="413.49" y2="413.49"/><rect fill="none" height="6" style="stroke:#C82930;stroke-width:1.0;" width="6" x="237" y="424.1384"/><text fill="#000000" font-family="sans-serif" font-size="14" lengthAdjust="spacing" textLength="154" x="249" y="430.4851">Coordinate coordinate</text><rect fill="none" height="6" style="stroke:#C82930;stroke-width:1.0;" width="6" x="237" y="440.4353"/><text fill="#000000" font-family="sans-serif" font-size="14" lengthAdjust="spacing" textLength="66" x="249" y="446.782">Card card</text><line style="stroke:#181818;stroke-width:0.5;" x1="230" x2="474" y1="454.0837" y2="454.0837"/></g><!--class ClientNetworkMessage--><g id="elem_ClientNetworkMessage"><rect codeLine="36" fill="#F1F1F1" height="64.2969" id="ClientNetworkMessage" rx="2.5" ry="2.5" style="stroke:#181818;stroke-width:0.5;" width="246" x="816" y="84"/><ellipse cx="855.75" cy="100" fill="#A9DCDF" rx="11" ry="11" style="stroke:#181818;stroke-width:1.0;"/><path d="M855.8594,95.3438 L854.7031,100.4219 L857.0313,100.4219 L855.8594,95.3438 Z M854.375,93.1094 L857.3594,93.1094 L860.7188,105.5 L858.2656,105.5 L857.5,102.4375 L854.2188,102.4375 L853.4688,105.5 L851.0313,105.5 L854.375,93.1094 Z " fill="#000000"/><text fill="#000000" font-family="sans-serif" font-size="14" font-style="italic" lengthAdjust="spacing" textLength="159" x="875.25" y="104.8467">ClientNetworkMessage</text><line style="stroke:#181818;stroke-width:0.5;" x1="817" x2="1061" y1="116" y2="116"/><rect fill="none" height="6" style="stroke:#C82930;stroke-width:1.0;" width="6" x="824" y="126.6484"/><text fill="#000000" font-family="sans-serif" font-size="14" lengthAdjust="spacing" textLength="220" x="836" y="132.9951">PlayerActionsEnum playerAction</text><line style="stroke:#181818;stroke-width:0.5;" x1="817" x2="1061" y1="140.2969" y2="140.2969"/></g><!--class PlaceCardClientMessage--><g id="elem_PlaceCardClientMessage"><rect codeLine="39" fill="#F1F1F1" height="80.5938" id="PlaceCardClientMessage" rx="2.5" ry="2.5" style="stroke:#181818;stroke-width:0.5;" width="203" x="837.5" y="232.74"/><ellipse cx="852.5" cy="248.74" fill="#ADD1B2" rx="11" ry="11" style="stroke:#181818;stroke-width:1.0;"/><path d="M855.4688,254.3806 Q854.8906,254.6775 854.25,254.8181 Q853.6094,254.9744 852.9063,254.9744 Q850.4063,254.9744 849.0781,253.3338 Q847.7656,251.6775 847.7656,248.5525 Q847.7656,245.4275 849.0781,243.7713 Q850.4063,242.115 852.9063,242.115 Q853.6094,242.115 854.25,242.2713 Q854.9063,242.4275 855.4688,242.7244 L855.4688,245.4431 Q854.8438,244.865 854.25,244.5994 Q853.6563,244.3181 853.0313,244.3181 Q851.6875,244.3181 851,245.3963 Q850.3125,246.4588 850.3125,248.5525 Q850.3125,250.6463 851,251.7244 Q851.6875,252.7869 853.0313,252.7869 Q853.6563,252.7869 854.25,252.5213 Q854.8438,252.24 855.4688,251.6619 L855.4688,254.3806 Z " fill="#000000"/><text fill="#000000" font-family="sans-serif" font-size="14" lengthAdjust="spacing" textLength="171" x="866.5" y="253.5867">PlaceCardClientMessage</text><line style="stroke:#181818;stroke-width:0.5;" x1="838.5" x2="1039.5" y1="264.74" y2="264.74"/><rect fill="none" height="6" style="stroke:#C82930;stroke-width:1.0;" width="6" x="845.5" y="275.3884"/><text fill="#000000" font-family="sans-serif" font-size="14" lengthAdjust="spacing" textLength="154" x="857.5" y="281.7351">Coordinate coordinate</text><rect fill="none" height="6" style="stroke:#C82930;stroke-width:1.0;" width="6" x="845.5" y="291.6853"/><text fill="#000000" font-family="sans-serif" font-size="14" lengthAdjust="spacing" textLength="66" x="857.5" y="298.032">Card card</text><line style="stroke:#181818;stroke-width:0.5;" x1="838.5" x2="1039.5" y1="305.3338" y2="305.3338"/></g><!--class ServerConnection--><g id="elem_ServerConnection"><rect codeLine="48" fill="#F1F1F1" height="64.2969" id="ServerConnection" rx="2.5" ry="2.5" style="stroke:#181818;stroke-width:0.5;" width="322" x="1142" y="84"/><ellipse cx="1236.75" cy="100" fill="#A9DCDF" rx="11" ry="11" style="stroke:#181818;stroke-width:1.0;"/><path d="M1236.8594,95.3438 L1235.7031,100.4219 L1238.0313,100.4219 L1236.8594,95.3438 Z M1235.375,93.1094 L1238.3594,93.1094 L1241.7188,105.5 L1239.2656,105.5 L1238.5,102.4375 L1235.2188,102.4375 L1234.4688,105.5 L1232.0313,105.5 L1235.375,93.1094 Z " fill="#000000"/><text fill="#000000" font-family="sans-serif" font-size="14" font-style="italic" lengthAdjust="spacing" textLength="124" x="1257.25" y="104.8467">ServerConnection</text><line style="stroke:#181818;stroke-width:0.5;" x1="1143" x2="1463" y1="116" y2="116"/><rect fill="none" height="6" style="stroke:#C82930;stroke-width:1.0;" width="6" x="1150" y="126.6484"/><text fill="#000000" font-family="sans-serif" font-size="14" lengthAdjust="spacing" textLength="296" x="1162" y="132.9951">GameControllerMiddleware gameController</text><line style="stroke:#181818;stroke-width:0.5;" x1="1143" x2="1463" y1="140.2969" y2="140.2969"/></g><!--class TCPServerConnection--><g id="elem_TCPServerConnection"><rect codeLine="51" fill="#F1F1F1" height="64.2969" id="TCPServerConnection" rx="2.5" ry="2.5" style="stroke:#181818;stroke-width:0.5;" width="213" x="1196.5" y="240.89"/><ellipse cx="1224.55" cy="256.89" fill="#ADD1B2" rx="11" ry="11" style="stroke:#181818;stroke-width:1.0;"/><path d="M1227.5188,262.5306 Q1226.9406,262.8275 1226.3,262.9681 Q1225.6594,263.1244 1224.9563,263.1244 Q1222.4563,263.1244 1221.1281,261.4838 Q1219.8156,259.8275 1219.8156,256.7025 Q1219.8156,253.5775 1221.1281,251.9213 Q1222.4563,250.265 1224.9563,250.265 Q1225.6594,250.265 1226.3,250.4213 Q1226.9563,250.5775 1227.5188,250.8744 L1227.5188,253.5931 Q1226.8938,253.015 1226.3,252.7494 Q1225.7063,252.4681 1225.0813,252.4681 Q1223.7375,252.4681 1223.05,253.5463 Q1222.3625,254.6088 1222.3625,256.7025 Q1222.3625,258.7963 1223.05,259.8744 Q1223.7375,260.9369 1225.0813,260.9369 Q1225.7063,260.9369 1226.3,260.6713 Q1226.8938,260.39 1227.5188,259.8119 L1227.5188,262.5306 Z " fill="#000000"/><text fill="#000000" font-family="sans-serif" font-size="14" lengthAdjust="spacing" textLength="152" x="1241.45" y="261.7367">TCPServerConnection</text><line style="stroke:#181818;stroke-width:0.5;" x1="1197.5" x2="1408.5" y1="272.89" y2="272.89"/><rect fill="none" height="6" style="stroke:#C82930;stroke-width:1.0;" width="6" x="1204.5" y="283.5384"/><text fill="#000000" font-family="sans-serif" font-size="14" lengthAdjust="spacing" textLength="187" x="1216.5" y="289.8851">ServerSocket serverSocket</text><line style="stroke:#181818;stroke-width:0.5;" x1="1197.5" x2="1408.5" y1="297.1869" y2="297.1869"/></g><!--class ServerActions--><g id="elem_ServerActions"><rect fill="#F1F1F1" height="48" id="ServerActions" rx="2.5" ry="2.5" style="stroke:#181818;stroke-width:0.5;" width="127" x="1498.5" y="92.15"/><ellipse cx="1513.5" cy="108.15" fill="#B4A7E5" rx="11" ry="11" style="stroke:#181818;stroke-width:1.0;"/><path d="M1509.4219,103.9156 L1509.4219,101.7594 L1516.8125,101.7594 L1516.8125,103.9156 L1514.3438,103.9156 L1514.3438,111.9937 L1516.8125,111.9937 L1516.8125,114.15 L1509.4219,114.15 L1509.4219,111.9937 L1511.8906,111.9937 L1511.8906,103.9156 L1509.4219,103.9156 Z " fill="#000000"/><text fill="#000000" font-family="sans-serif" font-size="14" font-style="italic" lengthAdjust="spacing" textLength="95" x="1527.5" y="112.9967">ServerActions</text><line style="stroke:#181818;stroke-width:0.5;" x1="1499.5" x2="1624.5" y1="124.15" y2="124.15"/><line style="stroke:#181818;stroke-width:0.5;" x1="1499.5" x2="1624.5" y1="132.15" y2="132.15"/></g><!--class RMIServerConnection--><g id="elem_RMIServerConnection"><rect codeLine="54" fill="#F1F1F1" height="64.2969" id="RMIServerConnection" rx="2.5" ry="2.5" style="stroke:#181818;stroke-width:0.5;" width="181" x="1444.5" y="240.89"/><ellipse cx="1459.5" cy="256.89" fill="#ADD1B2" rx="11" ry="11" style="stroke:#181818;stroke-width:1.0;"/><path d="M1462.4688,262.5306 Q1461.8906,262.8275 1461.25,262.9681 Q1460.6094,263.1244 1459.9063,263.1244 Q1457.4063,263.1244 1456.0781,261.4838 Q1454.7656,259.8275 1454.7656,256.7025 Q1454.7656,253.5775 1456.0781,251.9213 Q1457.4063,250.265 1459.9063,250.265 Q1460.6094,250.265 1461.25,250.4213 Q1461.9063,250.5775 1462.4688,250.8744 L1462.4688,253.5931 Q1461.8438,253.015 1461.25,252.7494 Q1460.6563,252.4681 1460.0313,252.4681 Q1458.6875,252.4681 1458,253.5463 Q1457.3125,254.6088 1457.3125,256.7025 Q1457.3125,258.7963 1458,259.8744 Q1458.6875,260.9369 1460.0313,260.9369 Q1460.6563,260.9369 1461.25,260.6713 Q1461.8438,260.39 1462.4688,259.8119 L1462.4688,262.5306 Z " fill="#000000"/><text fill="#000000" font-family="sans-serif" font-size="14" lengthAdjust="spacing" textLength="149" x="1473.5" y="261.7367">RMIServerConnection</text><line style="stroke:#181818;stroke-width:0.5;" x1="1445.5" x2="1624.5" y1="272.89" y2="272.89"/><rect fill="none" height="6" style="stroke:#C82930;stroke-width:1.0;" width="6" x="1452.5" y="283.5384"/><text fill="#000000" font-family="sans-serif" font-size="14" lengthAdjust="spacing" textLength="149" x="1464.5" y="289.8851">Loggable remoteHost</text><line style="stroke:#181818;stroke-width:0.5;" x1="1445.5" x2="1624.5" y1="297.1869" y2="297.1869"/></g><!--class ClientConnection--><g id="elem_ClientConnection"><rect codeLine="60" fill="#F1F1F1" height="48" id="ClientConnection" rx="2.5" ry="2.5" style="stroke:#181818;stroke-width:0.5;" width="151" x="1705.5" y="92.15"/><ellipse cx="1720.5" cy="108.15" fill="#A9DCDF" rx="11" ry="11" style="stroke:#181818;stroke-width:1.0;"/><path d="M1720.6094,103.4937 L1719.4531,108.5719 L1721.7813,108.5719 L1720.6094,103.4937 Z M1719.125,101.2594 L1722.1094,101.2594 L1725.4688,113.65 L1723.0156,113.65 L1722.25,110.5875 L1718.9688,110.5875 L1718.2188,113.65 L1715.7813,113.65 L1719.125,101.2594 Z " fill="#000000"/><text fill="#000000" font-family="sans-serif" font-size="14" font-style="italic" lengthAdjust="spacing" textLength="119" x="1734.5" y="112.9967">ClientConnection</text><line style="stroke:#181818;stroke-width:0.5;" x1="1706.5" x2="1855.5" y1="124.15" y2="124.15"/><line style="stroke:#181818;stroke-width:0.5;" x1="1706.5" x2="1855.5" y1="132.15" y2="132.15"/></g><!--class TCPClientConnection--><g id="elem_TCPClientConnection"><rect codeLine="62" fill="#F1F1F1" height="64.2969" id="TCPClientConnection" rx="2.5" ry="2.5" style="stroke:#181818;stroke-width:0.5;" width="179" x="1681.5" y="240.89"/><ellipse cx="1696.5" cy="256.89" fill="#ADD1B2" rx="11" ry="11" style="stroke:#181818;stroke-width:1.0;"/><path d="M1699.4688,262.5306 Q1698.8906,262.8275 1698.25,262.9681 Q1697.6094,263.1244 1696.9063,263.1244 Q1694.4063,263.1244 1693.0781,261.4838 Q1691.7656,259.8275 1691.7656,256.7025 Q1691.7656,253.5775 1693.0781,251.9213 Q1694.4063,250.265 1696.9063,250.265 Q1697.6094,250.265 1698.25,250.4213 Q1698.9063,250.5775 1699.4688,250.8744 L1699.4688,253.5931 Q1698.8438,253.015 1698.25,252.7494 Q1697.6563,252.4681 1697.0313,252.4681 Q1695.6875,252.4681 1695,253.5463 Q1694.3125,254.6088 1694.3125,256.7025 Q1694.3125,258.7963 1695,259.8744 Q1695.6875,260.9369 1697.0313,260.9369 Q1697.6563,260.9369 1698.25,260.6713 Q1698.8438,260.39 1699.4688,259.8119 L1699.4688,262.5306 Z " fill="#000000"/><text fill="#000000" font-family="sans-serif" font-size="14" lengthAdjust="spacing" textLength="147" x="1710.5" y="261.7367">TCPClientConnection</text><line style="stroke:#181818;stroke-width:0.5;" x1="1682.5" x2="1859.5" y1="272.89" y2="272.89"/><rect fill="none" height="6" style="stroke:#C82930;stroke-width:1.0;" width="6" x="1689.5" y="283.5384"/><text fill="#000000" font-family="sans-serif" font-size="14" lengthAdjust="spacing" textLength="99" x="1701.5" y="289.8851">Socket socket</text><line style="stroke:#181818;stroke-width:0.5;" x1="1682.5" x2="1859.5" y1="297.1869" y2="297.1869"/></g><!--class PlayerActions--><g id="elem_PlayerActions"><rect fill="#F1F1F1" height="48" id="PlayerActions" rx="2.5" ry="2.5" style="stroke:#181818;stroke-width:0.5;" width="124" x="1911" y="92.15"/><ellipse cx="1926" cy="108.15" fill="#B4A7E5" rx="11" ry="11" style="stroke:#181818;stroke-width:1.0;"/><path d="M1921.9219,103.9156 L1921.9219,101.7594 L1929.3125,101.7594 L1929.3125,103.9156 L1926.8438,103.9156 L1926.8438,111.9937 L1929.3125,111.9937 L1929.3125,114.15 L1921.9219,114.15 L1921.9219,111.9937 L1924.3906,111.9937 L1924.3906,103.9156 L1921.9219,103.9156 Z " fill="#000000"/><text fill="#000000" font-family="sans-serif" font-size="14" font-style="italic" lengthAdjust="spacing" textLength="92" x="1940" y="112.9967">PlayerActions</text><line style="stroke:#181818;stroke-width:0.5;" x1="1912" x2="2034" y1="124.15" y2="124.15"/><line style="stroke:#181818;stroke-width:0.5;" x1="1912" x2="2034" y1="132.15" y2="132.15"/></g><!--class RMIClientConnection--><g id="elem_RMIClientConnection"><rect codeLine="65" fill="#F1F1F1" height="64.2969" id="RMIClientConnection" rx="2.5" ry="2.5" style="stroke:#181818;stroke-width:0.5;" width="176" x="1895" y="240.89"/><ellipse cx="1910" cy="256.89" fill="#ADD1B2" rx="11" ry="11" style="stroke:#181818;stroke-width:1.0;"/><path d="M1912.9688,262.5306 Q1912.3906,262.8275 1911.75,262.9681 Q1911.1094,263.1244 1910.4063,263.1244 Q1907.9063,263.1244 1906.5781,261.4838 Q1905.2656,259.8275 1905.2656,256.7025 Q1905.2656,253.5775 1906.5781,251.9213 Q1907.9063,250.265 1910.4063,250.265 Q1911.1094,250.265 1911.75,250.4213 Q1912.4063,250.5775 1912.9688,250.8744 L1912.9688,253.5931 Q1912.3438,253.015 1911.75,252.7494 Q1911.1563,252.4681 1910.5313,252.4681 Q1909.1875,252.4681 1908.5,253.5463 Q1907.8125,254.6088 1907.8125,256.7025 Q1907.8125,258.7963 1908.5,259.8744 Q1909.1875,260.9369 1910.5313,260.9369 Q1911.1563,260.9369 1911.75,260.6713 Q1912.3438,260.39 1912.9688,259.8119 L1912.9688,262.5306 Z " fill="#000000"/><text fill="#000000" font-family="sans-serif" font-size="14" lengthAdjust="spacing" textLength="144" x="1924" y="261.7367">RMIClientConnection</text><line style="stroke:#181818;stroke-width:0.5;" x1="1896" x2="2070" y1="272.89" y2="272.89"/><rect fill="none" height="6" style="stroke:#C82930;stroke-width:1.0;" width="6" x="1903" y="283.5384"/><text fill="#000000" font-family="sans-serif" font-size="14" lengthAdjust="spacing" textLength="149" x="1915" y="289.8851">Loggable remoteHost</text><line style="stroke:#181818;stroke-width:0.5;" x1="1896" x2="2070" y1="297.1869" y2="297.1869"/></g><!--reverse link ServerNetworkMessage to ErrorMessage--><g id="link_ServerNetworkMessage_ErrorMessage"><path d="M261.6031,174.5365 C231.9231,193.3765 213.07,205.34 183.37,224.2 " fill="none" id="ServerNetworkMessage-backto-ErrorMessage" style="stroke:#181818;stroke-width:1.0;"/><polygon fill="none" points="276.8,164.89,258.3876,169.4709,264.8186,179.6021,276.8,164.89" style="stroke:#181818;stroke-width:1.0;"/></g><!--reverse link ServerNetworkMessage to GetGamesMessage--><g id="link_ServerNetworkMessage_GetGamesMessage"><path d="M455.0103,173.531 C500.0003,198.151 537.82,218.85 577.56,240.6 " fill="none" id="ServerNetworkMessage-backto-GetGamesMessage" style="stroke:#181818;stroke-width:1.0;"/><polygon fill="none" points="439.22,164.89,452.13,178.7944,457.8906,168.2675,439.22,164.89" style="stroke:#181818;stroke-width:1.0;"/></g><!--link GameRecord to GetGamesMessage--><g id="link_GameRecord_GetGamesMessage"><path codeLine="22" d="M635,164.89 C635,189.6 635,219.06 635,240.84 " fill="none" id="GameRecord-GetGamesMessage" style="stroke:#181818;stroke-width:1.0;"/></g><!--reverse link ServerNetworkMessage to ViewUpdateMessage--><g id="link_ServerNetworkMessage_ViewUpdateMessage"><path d="M352,182.89 C352,207.6 352,219.06 352,240.84 " fill="none" id="ServerNetworkMessage-backto-ViewUpdateMessage" style="stroke:#181818;stroke-width:1.0;"/><polygon fill="none" points="352,164.89,346,182.89,358,182.89,352,164.89" style="stroke:#181818;stroke-width:1.0;"/></g><!--reverse link ViewUpdateMessage to PlaceCardViewUpdateMessage--><g id="link_ViewUpdateMessage_PlaceCardViewUpdateMessage"><path d="M352,323.52 C352,345.67 352,357.48 352,381.23 " fill="none" id="ViewUpdateMessage-backto-PlaceCardViewUpdateMessage" style="stroke:#181818;stroke-width:1.0;"/><polygon fill="none" points="352,305.52,346,323.52,358,323.52,352,305.52" style="stroke:#181818;stroke-width:1.0;"/></g><!--reverse link ClientNetworkMessage to PlaceCardClientMessage--><g id="link_ClientNetworkMessage_PlaceCardClientMessage"><path d="M939,166.49 C939,190.72 939,206.4 939,232.47 " fill="none" id="ClientNetworkMessage-backto-PlaceCardClientMessage" style="stroke:#181818;stroke-width:1.0;"/><polygon fill="none" points="939,148.49,933,166.49,945,166.49,939,148.49" style="stroke:#181818;stroke-width:1.0;"/></g><!--reverse link ServerConnection to TCPServerConnection--><g id="link_ServerConnection_TCPServerConnection"><path d="M1303,166.49 C1303,193.28 1303,213.63 1303,240.48 " fill="none" id="ServerConnection-backto-TCPServerConnection" style="stroke:#181818;stroke-width:1.0;"/><polygon fill="none" points="1303,148.49,1297,166.49,1309,166.49,1303,148.49" style="stroke:#181818;stroke-width:1.0;"/></g><!--reverse link ServerActions to TCPServerConnection--><g id="link_ServerActions_TCPServerConnection"><path d="M1507.492,149.749 C1462.982,176.369 1405.44,210.78 1355.86,240.43 " fill="none" id="ServerActions-backto-TCPServerConnection" style="stroke:#181818;stroke-width:1.0;stroke-dasharray:7.0,7.0;"/><polygon fill="none" points="1522.94,140.51,1504.4123,144.5996,1510.5716,154.8983,1522.94,140.51" style="stroke:#181818;stroke-width:1.0;"/></g><!--reverse link ServerConnection to RMIServerConnection--><g id="link_ServerConnection_RMIServerConnection"><path d="M1365.2,158.6749 C1405.34,185.4749 1447.71,213.77 1487.84,240.55 " fill="none" id="ServerConnection-backto-RMIServerConnection" style="stroke:#181818;stroke-width:1.0;"/><polygon fill="none" points="1350.23,148.68,1361.8684,163.6649,1368.5317,153.6849,1350.23,148.68" style="stroke:#181818;stroke-width:1.0;"/></g><!--reverse link ServerActions to RMIServerConnection--><g id="link_ServerActions_RMIServerConnection"><path d="M1554.8683,158.0725 C1550.2183,184.7425 1545.65,210.92 1540.47,240.64 " fill="none" id="ServerActions-backto-RMIServerConnection" style="stroke:#181818;stroke-width:1.0;stroke-dasharray:7.0,7.0;"/><polygon fill="none" points="1557.96,140.34,1548.9575,157.0419,1560.7791,159.1031,1557.96,140.34" style="stroke:#181818;stroke-width:1.0;"/></g><!--reverse link ClientConnection to TCPClientConnection--><g id="link_ClientConnection_TCPClientConnection"><path d="M1778.3416,158.3027 C1776.6216,184.9727 1774.95,210.92 1773.03,240.64 " fill="none" id="ClientConnection-backto-TCPClientConnection" style="stroke:#181818;stroke-width:1.0;"/><polygon fill="none" points="1779.5,140.34,1772.354,157.9165,1784.3291,158.6888,1779.5,140.34" style="stroke:#181818;stroke-width:1.0;"/></g><!--reverse link PlayerActions to TCPClientConnection--><g id="link_PlayerActions_TCPClientConnection"><path d="M1928.4761,151.2931 C1893.6961,177.9631 1850.7,210.92 1811.95,240.64 " fill="none" id="PlayerActions-backto-TCPClientConnection" style="stroke:#181818;stroke-width:1.0;stroke-dasharray:7.0,7.0;"/><polygon fill="none" points="1942.76,140.34,1924.8251,146.5319,1932.1272,156.0544,1942.76,140.34" style="stroke:#181818;stroke-width:1.0;"/></g><!--reverse link ClientConnection to RMIClientConnection--><g id="link_ClientConnection_RMIClientConnection"><path d="M1825.5239,151.2931 C1860.3039,177.9631 1903.3,210.92 1942.05,240.64 " fill="none" id="ClientConnection-backto-RMIClientConnection" style="stroke:#181818;stroke-width:1.0;"/><polygon fill="none" points="1811.24,140.34,1821.8728,156.0544,1829.1749,146.5319,1811.24,140.34" style="stroke:#181818;stroke-width:1.0;"/></g><!--reverse link PlayerActions to RMIClientConnection--><g id="link_PlayerActions_RMIClientConnection"><path d="M1975.6584,158.3027 C1977.3784,184.9727 1979.05,210.92 1980.97,240.64 " fill="none" id="PlayerActions-backto-RMIClientConnection" style="stroke:#181818;stroke-width:1.0;stroke-dasharray:7.0,7.0;"/><polygon fill="none" points="1974.5,140.34,1969.6709,158.6888,1981.646,157.9165,1974.5,140.34" style="stroke:#181818;stroke-width:1.0;"/></g><!--SRC=[hLHTQy8m57ttL-HnO_W7nXX84HrC4RljFIQNBZDDIdArZk5_N_fXJR_KWe6sQSxDFUVSt3QXR4iZ826OFPWbOAhDTW7MPej_8-86tLWqb25XabfxAJ8ROuiKT_QPX6Y4YghrfmWmpA67npPeVN2l1S-XuoX_5BnJOxGvyS41GV7hOk9YgLDD6TuZnqExzSm0PzJb7offJkrt2FYIRLu3quQ_aYXBL59u35M4lx_GcczPkkiC28NaHmi5V2NfBnXRXs9wc4YfqpfSy7bCut7JsQYh2xu4f9y9fmX3_HVi4uP2ApjLkvWatagxpYwUGK0DxwTi8nvVe9qjeHn8M3NrO9UPC7ShcHrtKduJWHIWiEMagnmzeSDCTtWkyZRzNcCRRldiMIi5kQWoOLBxGRJWtXz4PsHEd_MMGz5eAS4i1ESIKceWR-apK6qwLhCY_qUmQb7Kcyy3H9n8Y5srJbXv1arH1HXgjWKardlfbR5UlDrVnhkE8hgHG0p46c6kRLD0-MtKU_IMOxaGsL7XLdIzzxgjrRgyLU6ojbUhUd_gcwfw_0S0]--></g></svg>