<?xml version="1.0" encoding="us-ascii" standalone="no"?><svg xmlns="http://www.w3.org/2000/svg" xmlns:xlink="http://www.w3.org/1999/xlink" contentStyleType="text/css" height="2148px" preserveAspectRatio="none" style="width:2128px;height:2148px;background:#FFFFFF;" version="1.1" viewBox="0 0 2128 2148" width="2128px" zoomAndPan="magnify"><defs/><g><!--class GameManager--><g id="elem_GameManager"><rect codeLine="1" fill="#F1F1F1" height="194.6719" id="GameManager" rx="2.5" ry="2.5" style="stroke:#181818;stroke-width:0.5;" width="534" x="1229" y="7"/><ellipse cx="1440.25" cy="23" fill="#ADD1B2" rx="11" ry="11" style="stroke:#181818;stroke-width:1.0;"/><path d="M1442.5938,18.6719 C1441.6563,18.2344 1441.0625,18.0938 1440.1875,18.0938 C1437.5625,18.0938 1435.5625,20.1719 1435.5625,22.8906 L1435.5625,24.0156 C1435.5625,26.5938 1437.6719,28.4844 1440.5625,28.4844 C1441.7813,28.4844 1442.9375,28.1875 1443.6875,27.6406 C1444.2656,27.2344 1444.5938,26.7813 1444.5938,26.3906 C1444.5938,25.9375 1444.2031,25.5469 1443.7344,25.5469 C1443.5156,25.5469 1443.3125,25.625 1443.125,25.8125 C1442.6719,26.2969 1442.6719,26.2969 1442.4844,26.3906 C1442.0625,26.6563 1441.375,26.7813 1440.6094,26.7813 C1438.5625,26.7813 1437.2656,25.6875 1437.2656,23.9844 L1437.2656,22.8906 C1437.2656,21.1094 1438.5156,19.7969 1440.25,19.7969 C1440.8281,19.7969 1441.4375,19.9531 1441.9063,20.2031 C1442.3906,20.4844 1442.5625,20.7031 1442.6563,21.1094 C1442.7188,21.5156 1442.75,21.6406 1442.8906,21.7656 C1443.0313,21.9063 1443.2656,22.0156 1443.4844,22.0156 C1443.75,22.0156 1444.0156,21.875 1444.1875,21.6563 C1444.2969,21.5 1444.3281,21.3125 1444.3281,20.8906 L1444.3281,19.4688 C1444.3281,19.0313 1444.3125,18.9063 1444.2188,18.75 C1444.0625,18.4844 1443.7813,18.3438 1443.4844,18.3438 C1443.1875,18.3438 1442.9844,18.4375 1442.7656,18.75 L1442.5938,18.6719 Z " fill="#000000"/><text fill="#000000" font-family="sans-serif" font-size="14" lengthAdjust="spacing" textLength="103" x="1460.75" y="27.8467">GameManager</text><line style="stroke:#181818;stroke-width:0.5;" x1="1230" x2="1762" y1="39" y2="39"/><rect fill="none" height="6" style="stroke:#C82930;stroke-width:1.0;" width="6" x="1237" y="49.6484"/><text fill="#000000" font-family="sans-serif" font-size="14" lengthAdjust="spacing" textLength="179" x="1249" y="55.9951">ArrayList&lt;Game&gt; games</text><rect fill="none" height="6" style="stroke:#C82930;stroke-width:1.0;" width="6" x="1237" y="65.9453"/><text fill="#000000" font-family="sans-serif" font-size="14" lengthAdjust="spacing" textLength="286" x="1249" y="72.292">ArrayList&lt;GameCard&gt; defaultGoldDeck</text><rect fill="none" height="6" style="stroke:#C82930;stroke-width:1.0;" width="6" x="1237" y="82.2422"/><text fill="#000000" font-family="sans-serif" font-size="14" lengthAdjust="spacing" textLength="319" x="1249" y="88.5889">ArrayList&lt;GameCard&gt; defaultResourceDeck</text><rect fill="none" height="6" style="stroke:#C82930;stroke-width:1.0;" width="6" x="1237" y="98.5391"/><text fill="#000000" font-family="sans-serif" font-size="14" lengthAdjust="spacing" textLength="351" x="1249" y="104.8857">ArrayList&lt;ObjectiveCard&gt; defaultObjectiveDeck</text><rect fill="none" height="6" style="stroke:#C82930;stroke-width:1.0;" width="6" x="1237" y="114.8359"/><text fill="#000000" font-family="sans-serif" font-size="14" lengthAdjust="spacing" textLength="305" x="1249" y="121.1826">ArrayList&lt;GameCard&gt; defaultStarterDeck</text><line style="stroke:#181818;stroke-width:0.5;" x1="1230" x2="1762" y1="128.4844" y2="128.4844"/><ellipse cx="1240" cy="142.1328" fill="#84BE84" rx="3" ry="3" style="stroke:#038048;stroke-width:1.0;"/><text fill="#000000" font-family="sans-serif" font-size="14" lengthAdjust="spacing" textLength="216" x="1249" y="145.4795">ArrayList&lt;Game&gt; getGames()</text><ellipse cx="1240" cy="158.4297" fill="#84BE84" rx="3" ry="3" style="stroke:#038048;stroke-width:1.0;"/><text fill="#000000" font-family="sans-serif" font-size="14" lengthAdjust="spacing" textLength="508" x="1249" y="161.7764">Game createGame(String gameName, int nPlayers, String playerName)</text><ellipse cx="1240" cy="174.7266" fill="#84BE84" rx="3" ry="3" style="stroke:#038048;stroke-width:1.0;"/><text fill="#000000" font-family="sans-serif" font-size="14" lengthAdjust="spacing" textLength="228" x="1249" y="178.0732">deleteGame(String gameName)</text><ellipse cx="1240" cy="191.0234" fill="#84BE84" rx="3" ry="3" style="stroke:#038048;stroke-width:1.0;"/><text fill="#000000" font-family="sans-serif" font-size="14" lengthAdjust="spacing" textLength="395" x="1249" y="194.3701">Game joinGame(String gameName, String playerName)</text></g><!--class Game--><g id="elem_Game"><rect codeLine="14" fill="#F1F1F1" height="259.8594" id="Game" rx="2.5" ry="2.5" style="stroke:#181818;stroke-width:0.5;" width="287" x="1352.5" y="262"/><ellipse cx="1470.75" cy="278" fill="#ADD1B2" rx="11" ry="11" style="stroke:#181818;stroke-width:1.0;"/><path d="M1473.0938,273.6719 C1472.1563,273.2344 1471.5625,273.0938 1470.6875,273.0938 C1468.0625,273.0938 1466.0625,275.1719 1466.0625,277.8906 L1466.0625,279.0156 C1466.0625,281.5938 1468.1719,283.4844 1471.0625,283.4844 C1472.2813,283.4844 1473.4375,283.1875 1474.1875,282.6406 C1474.7656,282.2344 1475.0938,281.7813 1475.0938,281.3906 C1475.0938,280.9375 1474.7031,280.5469 1474.2344,280.5469 C1474.0156,280.5469 1473.8125,280.625 1473.625,280.8125 C1473.1719,281.2969 1473.1719,281.2969 1472.9844,281.3906 C1472.5625,281.6563 1471.875,281.7813 1471.1094,281.7813 C1469.0625,281.7813 1467.7656,280.6875 1467.7656,278.9844 L1467.7656,277.8906 C1467.7656,276.1094 1469.0156,274.7969 1470.75,274.7969 C1471.3281,274.7969 1471.9375,274.9531 1472.4063,275.2031 C1472.8906,275.4844 1473.0625,275.7031 1473.1563,276.1094 C1473.2188,276.5156 1473.25,276.6406 1473.3906,276.7656 C1473.5313,276.9063 1473.7656,277.0156 1473.9844,277.0156 C1474.25,277.0156 1474.5156,276.875 1474.6875,276.6563 C1474.7969,276.5 1474.8281,276.3125 1474.8281,275.8906 L1474.8281,274.4688 C1474.8281,274.0313 1474.8125,273.9063 1474.7188,273.75 C1474.5625,273.4844 1474.2813,273.3438 1473.9844,273.3438 C1473.6875,273.3438 1473.4844,273.4375 1473.2656,273.75 L1473.0938,273.6719 Z " fill="#000000"/><text fill="#000000" font-family="sans-serif" font-size="14" lengthAdjust="spacing" textLength="42" x="1491.25" y="282.8467">Game</text><line style="stroke:#181818;stroke-width:0.5;" x1="1353.5" x2="1638.5" y1="294" y2="294"/><rect fill="none" height="6" style="stroke:#C82930;stroke-width:1.0;" width="6" x="1360.5" y="304.6484"/><text fill="#000000" font-family="sans-serif" font-size="14" lengthAdjust="spacing" textLength="129" x="1372.5" y="310.9951">String gameName</text><rect fill="none" height="6" style="stroke:#C82930;stroke-width:1.0;" width="6" x="1360.5" y="320.9453"/><text fill="#000000" font-family="sans-serif" font-size="14" lengthAdjust="spacing" textLength="84" x="1372.5" y="327.292">int nPlayers</text><rect fill="none" height="6" style="stroke:#C82930;stroke-width:1.0;" width="6" x="1360.5" y="337.2422"/><text fill="#000000" font-family="sans-serif" font-size="14" lengthAdjust="spacing" textLength="186" x="1372.5" y="343.5889">ArrayList&lt;Player&gt; players</text><rect fill="none" height="6" style="stroke:#C82930;stroke-width:1.0;" width="6" x="1360.5" y="353.5391"/><text fill="#000000" font-family="sans-serif" font-size="14" lengthAdjust="spacing" textLength="178" x="1372.5" y="359.8857">GlobalBoard globalBoard</text><rect fill="none" height="6" style="stroke:#C82930;stroke-width:1.0;" width="6" x="1360.5" y="369.8359"/><text fill="#000000" font-family="sans-serif" font-size="14" lengthAdjust="spacing" textLength="145" x="1372.5" y="376.1826">Player currentPlayer</text><line style="stroke:#181818;stroke-width:0.5;" x1="1353.5" x2="1638.5" y1="383.4844" y2="383.4844"/><ellipse cx="1363.5" cy="397.1328" fill="#84BE84" rx="3" ry="3" style="stroke:#038048;stroke-width:1.0;"/><text fill="#000000" font-family="sans-serif" font-size="14" lengthAdjust="spacing" textLength="166" x="1372.5" y="400.4795">String getGameName()</text><ellipse cx="1363.5" cy="413.4297" fill="#84BE84" rx="3" ry="3" style="stroke:#038048;stroke-width:1.0;"/><text fill="#000000" font-family="sans-serif" font-size="14" lengthAdjust="spacing" textLength="220" x="1372.5" y="416.7764">ArrayList&lt;Player&gt; getPlayers()</text><ellipse cx="1363.5" cy="429.7266" fill="#84BE84" rx="3" ry="3" style="stroke:#038048;stroke-width:1.0;"/><text fill="#000000" font-family="sans-serif" font-size="14" lengthAdjust="spacing" textLength="261" x="1372.5" y="433.0732">Player getPlayer(String playerName)</text><ellipse cx="1363.5" cy="446.0234" fill="#84BE84" rx="3" ry="3" style="stroke:#038048;stroke-width:1.0;"/><text fill="#000000" font-family="sans-serif" font-size="14" lengthAdjust="spacing" textLength="215" x="1372.5" y="449.3701">GlobalBoard getGlobalBoard()</text><ellipse cx="1363.5" cy="462.3203" fill="#84BE84" rx="3" ry="3" style="stroke:#038048;stroke-width:1.0;"/><text fill="#000000" font-family="sans-serif" font-size="14" lengthAdjust="spacing" textLength="173" x="1372.5" y="465.667">addPlayer(Player player)</text><ellipse cx="1363.5" cy="478.6172" fill="#84BE84" rx="3" ry="3" style="stroke:#038048;stroke-width:1.0;"/><text fill="#000000" font-family="sans-serif" font-size="14" lengthAdjust="spacing" textLength="161" x="1372.5" y="481.9639">Player getNextPlayer()</text><ellipse cx="1363.5" cy="494.9141" fill="#84BE84" rx="3" ry="3" style="stroke:#038048;stroke-width:1.0;"/><text fill="#000000" font-family="sans-serif" font-size="14" lengthAdjust="spacing" textLength="138" x="1372.5" y="498.2607">boolean isStarted()</text><ellipse cx="1363.5" cy="511.2109" fill="#84BE84" rx="3" ry="3" style="stroke:#038048;stroke-width:1.0;"/><text fill="#000000" font-family="sans-serif" font-size="14" lengthAdjust="spacing" textLength="220" x="1372.5" y="514.5576">ArrayList&lt;Player&gt; getWinner()</text></g><g id="elem_GMN5"><path d="M1058.5,379.5 L1058.5,404.6328 A0,0 0 0 0 1058.5,404.6328 L1317.5,404.6328 A0,0 0 0 0 1317.5,404.6328 L1317.5,397.5 L1352.47,392 L1317.5,389.5 L1317.5,389.5 L1307.5,379.5 L1058.5,379.5 A0,0 0 0 0 1058.5,379.5 " fill="#FEFFDD" style="stroke:#181818;stroke-width:0.5;"/><path d="M1307.5,379.5 L1307.5,389.5 L1317.5,389.5 L1307.5,379.5 " fill="#FEFFDD" style="stroke:#181818;stroke-width:0.5;"/><text fill="#000000" font-family="sans-serif" font-size="13" lengthAdjust="spacing" textLength="238" x="1064.5" y="396.5669">Gestione giocatori e inizio/fine partita</text></g><!--class Player--><g id="elem_Player"><rect codeLine="60" fill="#F1F1F1" height="243.5625" id="Player" rx="2.5" ry="2.5" style="stroke:#181818;stroke-width:0.5;" width="265" x="1185.5" y="622.5"/><ellipse cx="1291.75" cy="638.5" fill="#ADD1B2" rx="11" ry="11" style="stroke:#181818;stroke-width:1.0;"/><path d="M1294.0938,634.1719 C1293.1563,633.7344 1292.5625,633.5938 1291.6875,633.5938 C1289.0625,633.5938 1287.0625,635.6719 1287.0625,638.3906 L1287.0625,639.5156 C1287.0625,642.0938 1289.1719,643.9844 1292.0625,643.9844 C1293.2813,643.9844 1294.4375,643.6875 1295.1875,643.1406 C1295.7656,642.7344 1296.0938,642.2813 1296.0938,641.8906 C1296.0938,641.4375 1295.7031,641.0469 1295.2344,641.0469 C1295.0156,641.0469 1294.8125,641.125 1294.625,641.3125 C1294.1719,641.7969 1294.1719,641.7969 1293.9844,641.8906 C1293.5625,642.1563 1292.875,642.2813 1292.1094,642.2813 C1290.0625,642.2813 1288.7656,641.1875 1288.7656,639.4844 L1288.7656,638.3906 C1288.7656,636.6094 1290.0156,635.2969 1291.75,635.2969 C1292.3281,635.2969 1292.9375,635.4531 1293.4063,635.7031 C1293.8906,635.9844 1294.0625,636.2031 1294.1563,636.6094 C1294.2188,637.0156 1294.25,637.1406 1294.3906,637.2656 C1294.5313,637.4063 1294.7656,637.5156 1294.9844,637.5156 C1295.25,637.5156 1295.5156,637.375 1295.6875,637.1563 C1295.7969,637 1295.8281,636.8125 1295.8281,636.3906 L1295.8281,634.9688 C1295.8281,634.5313 1295.8125,634.4063 1295.7188,634.25 C1295.5625,633.9844 1295.2813,633.8438 1294.9844,633.8438 C1294.6875,633.8438 1294.4844,633.9375 1294.2656,634.25 L1294.0938,634.1719 Z " fill="#000000"/><text fill="#000000" font-family="sans-serif" font-size="14" lengthAdjust="spacing" textLength="44" x="1312.25" y="643.3467">Player</text><line style="stroke:#181818;stroke-width:0.5;" x1="1186.5" x2="1449.5" y1="654.5" y2="654.5"/><rect fill="none" height="6" style="stroke:#C82930;stroke-width:1.0;" width="6" x="1193.5" y="665.1484"/><text fill="#000000" font-family="sans-serif" font-size="14" lengthAdjust="spacing" textLength="134" x="1205.5" y="671.4951">String playerName</text><rect fill="none" height="6" style="stroke:#C82930;stroke-width:1.0;" width="6" x="1193.5" y="681.4453"/><text fill="#000000" font-family="sans-serif" font-size="14" lengthAdjust="spacing" textLength="94" x="1205.5" y="687.792">int playerPos</text><rect fill="none" height="6" style="stroke:#C82930;stroke-width:1.0;" width="6" x="1193.5" y="697.7422"/><text fill="#000000" font-family="sans-serif" font-size="14" lengthAdjust="spacing" textLength="177" x="1205.5" y="704.0889">PlayerBoard playerBoard</text><rect fill="none" height="6" style="stroke:#C82930;stroke-width:1.0;" width="6" x="1193.5" y="714.0391"/><text fill="#000000" font-family="sans-serif" font-size="14" lengthAdjust="spacing" textLength="208" x="1205.5" y="720.3857">ObjectiveCard objectiveCard</text><rect fill="none" height="6" style="stroke:#C82930;stroke-width:1.0;" width="6" x="1193.5" y="730.3359"/><text fill="#000000" font-family="sans-serif" font-size="14" lengthAdjust="spacing" textLength="75" x="1205.5" y="736.6826">Hand hand</text><line style="stroke:#181818;stroke-width:0.5;" x1="1186.5" x2="1449.5" y1="743.9844" y2="743.9844"/><ellipse cx="1196.5" cy="757.6328" fill="#84BE84" rx="3" ry="3" style="stroke:#038048;stroke-width:1.0;"/><text fill="#000000" font-family="sans-serif" font-size="14" lengthAdjust="spacing" textLength="120" x="1205.5" y="760.9795">getPlayerName()</text><ellipse cx="1196.5" cy="773.9297" fill="#84BE84" rx="3" ry="3" style="stroke:#038048;stroke-width:1.0;"/><text fill="#000000" font-family="sans-serif" font-size="14" lengthAdjust="spacing" textLength="121" x="1205.5" y="777.2764">getPlayerBoard()</text><ellipse cx="1196.5" cy="790.2266" fill="#84BE84" rx="3" ry="3" style="stroke:#038048;stroke-width:1.0;"/><text fill="#000000" font-family="sans-serif" font-size="14" lengthAdjust="spacing" textLength="104" x="1205.5" y="793.5732">getPlayerPos()</text><ellipse cx="1196.5" cy="806.5234" fill="#84BE84" rx="3" ry="3" style="stroke:#038048;stroke-width:1.0;"/><text fill="#000000" font-family="sans-serif" font-size="14" lengthAdjust="spacing" textLength="115" x="1205.5" y="809.8701">getPlayerHand()</text><ellipse cx="1196.5" cy="822.8203" fill="#84BE84" rx="3" ry="3" style="stroke:#038048;stroke-width:1.0;"/><text fill="#000000" font-family="sans-serif" font-size="14" lengthAdjust="spacing" textLength="138" x="1205.5" y="826.167">getObjectiveCard()</text><ellipse cx="1196.5" cy="839.1172" fill="#84BE84" rx="3" ry="3" style="stroke:#038048;stroke-width:1.0;"/><text fill="#000000" font-family="sans-serif" font-size="14" lengthAdjust="spacing" textLength="239" x="1205.5" y="842.4639">setObjectiveCard(ObjectiveCard)</text><ellipse cx="1196.5" cy="855.4141" fill="#84BE84" rx="3" ry="3" style="stroke:#038048;stroke-width:1.0;"/><text fill="#000000" font-family="sans-serif" font-size="14" lengthAdjust="spacing" textLength="202" x="1205.5" y="858.7607">advancePlayerPos(int steps)</text></g><!--class GlobalBoard--><g id="elem_GlobalBoard"><rect codeLine="37" fill="#F1F1F1" height="325.0469" id="GlobalBoard" rx="2.5" ry="2.5" style="stroke:#181818;stroke-width:0.5;" width="377" x="1485.5" y="582"/><ellipse cx="1625.75" cy="598" fill="#ADD1B2" rx="11" ry="11" style="stroke:#181818;stroke-width:1.0;"/><path d="M1628.0938,593.6719 C1627.1563,593.2344 1626.5625,593.0938 1625.6875,593.0938 C1623.0625,593.0938 1621.0625,595.1719 1621.0625,597.8906 L1621.0625,599.0156 C1621.0625,601.5938 1623.1719,603.4844 1626.0625,603.4844 C1627.2813,603.4844 1628.4375,603.1875 1629.1875,602.6406 C1629.7656,602.2344 1630.0938,601.7813 1630.0938,601.3906 C1630.0938,600.9375 1629.7031,600.5469 1629.2344,600.5469 C1629.0156,600.5469 1628.8125,600.625 1628.625,600.8125 C1628.1719,601.2969 1628.1719,601.2969 1627.9844,601.3906 C1627.5625,601.6563 1626.875,601.7813 1626.1094,601.7813 C1624.0625,601.7813 1622.7656,600.6875 1622.7656,598.9844 L1622.7656,597.8906 C1622.7656,596.1094 1624.0156,594.7969 1625.75,594.7969 C1626.3281,594.7969 1626.9375,594.9531 1627.4063,595.2031 C1627.8906,595.4844 1628.0625,595.7031 1628.1563,596.1094 C1628.2188,596.5156 1628.25,596.6406 1628.3906,596.7656 C1628.5313,596.9063 1628.7656,597.0156 1628.9844,597.0156 C1629.25,597.0156 1629.5156,596.875 1629.6875,596.6563 C1629.7969,596.5 1629.8281,596.3125 1629.8281,595.8906 L1629.8281,594.4688 C1629.8281,594.0313 1629.8125,593.9063 1629.7188,593.75 C1629.5625,593.4844 1629.2813,593.3438 1628.9844,593.3438 C1628.6875,593.3438 1628.4844,593.4375 1628.2656,593.75 L1628.0938,593.6719 Z " fill="#000000"/><text fill="#000000" font-family="sans-serif" font-size="14" lengthAdjust="spacing" textLength="88" x="1646.25" y="602.8467">GlobalBoard</text><line style="stroke:#181818;stroke-width:0.5;" x1="1486.5" x2="1861.5" y1="614" y2="614"/><rect fill="none" height="6" style="stroke:#C82930;stroke-width:1.0;" width="6" x="1493.5" y="624.6484"/><text fill="#000000" font-family="sans-serif" font-size="14" lengthAdjust="spacing" textLength="206" x="1505.5" y="630.9951">Deck&lt;GameCard&gt; goldDeck</text><rect fill="none" height="6" style="stroke:#C82930;stroke-width:1.0;" width="6" x="1493.5" y="640.9453"/><text fill="#000000" font-family="sans-serif" font-size="14" lengthAdjust="spacing" textLength="237" x="1505.5" y="647.292">Deck&lt;GameCard&gt; resourceDeck</text><rect fill="none" height="6" style="stroke:#C82930;stroke-width:1.0;" width="6" x="1493.5" y="657.2422"/><text fill="#000000" font-family="sans-serif" font-size="14" lengthAdjust="spacing" textLength="271" x="1505.5" y="663.5889">Deck&lt;ObjectiveCard&gt; objectiveDeck</text><rect fill="none" height="6" style="stroke:#C82930;stroke-width:1.0;" width="6" x="1493.5" y="673.5391"/><text fill="#000000" font-family="sans-serif" font-size="14" lengthAdjust="spacing" textLength="225" x="1505.5" y="679.8857">Deck&lt;GameCard&gt; starterDeck</text><rect fill="none" height="6" style="stroke:#C82930;stroke-width:1.0;" width="6" x="1493.5" y="689.8359"/><text fill="#000000" font-family="sans-serif" font-size="14" lengthAdjust="spacing" textLength="314" x="1505.5" y="696.1826">ArrayList&lt;ObjectiveCard&gt; globalObjectives</text><rect fill="none" height="6" style="stroke:#C82930;stroke-width:1.0;" width="6" x="1493.5" y="706.1328"/><text fill="#000000" font-family="sans-serif" font-size="14" lengthAdjust="spacing" textLength="270" x="1505.5" y="712.4795">ArrayList&lt;GameCard&gt; fieldGoldCards</text><rect fill="none" height="6" style="stroke:#C82930;stroke-width:1.0;" width="6" x="1493.5" y="722.4297"/><text fill="#000000" font-family="sans-serif" font-size="14" lengthAdjust="spacing" textLength="303" x="1505.5" y="728.7764">ArrayList&lt;GameCard&gt; fieldResourceCards</text><line style="stroke:#181818;stroke-width:0.5;" x1="1486.5" x2="1861.5" y1="736.0781" y2="736.0781"/><ellipse cx="1496.5" cy="749.7266" fill="#84BE84" rx="3" ry="3" style="stroke:#038048;stroke-width:1.0;"/><text fill="#000000" font-family="sans-serif" font-size="14" lengthAdjust="spacing" textLength="243" x="1505.5" y="753.0732">Deck&lt;GameCard&gt; getGoldDeck()</text><ellipse cx="1496.5" cy="766.0234" fill="#84BE84" rx="3" ry="3" style="stroke:#038048;stroke-width:1.0;"/><text fill="#000000" font-family="sans-serif" font-size="14" lengthAdjust="spacing" textLength="276" x="1505.5" y="769.3701">Deck&lt;GameCard&gt; getResourceDeck()</text><ellipse cx="1496.5" cy="782.3203" fill="#84BE84" rx="3" ry="3" style="stroke:#038048;stroke-width:1.0;"/><text fill="#000000" font-family="sans-serif" font-size="14" lengthAdjust="spacing" textLength="308" x="1505.5" y="785.667">Deck&lt;ObjectiveCard&gt; getObjectiveDeck()</text><ellipse cx="1496.5" cy="798.6172" fill="#84BE84" rx="3" ry="3" style="stroke:#038048;stroke-width:1.0;"/><text fill="#000000" font-family="sans-serif" font-size="14" lengthAdjust="spacing" textLength="262" x="1505.5" y="801.9639">Deck&lt;GameCard&gt; getStarterDeck()</text><ellipse cx="1496.5" cy="814.9141" fill="#84BE84" rx="3" ry="3" style="stroke:#038048;stroke-width:1.0;"/><text fill="#000000" font-family="sans-serif" font-size="14" lengthAdjust="spacing" textLength="351" x="1505.5" y="818.2607">ArrayList&lt;ObjectiveCard&gt; getGlobalObjectives()</text><ellipse cx="1496.5" cy="831.2109" fill="#84BE84" rx="3" ry="3" style="stroke:#038048;stroke-width:1.0;"/><text fill="#000000" font-family="sans-serif" font-size="14" lengthAdjust="spacing" textLength="307" x="1505.5" y="834.5576">ArrayList&lt;GameCard&gt; getFieldGoldCards()</text><ellipse cx="1496.5" cy="847.5078" fill="#84BE84" rx="3" ry="3" style="stroke:#038048;stroke-width:1.0;"/><text fill="#000000" font-family="sans-serif" font-size="14" lengthAdjust="spacing" textLength="340" x="1505.5" y="850.8545">ArrayList&lt;GameCard&gt; getFieldResourceCards()</text><ellipse cx="1496.5" cy="863.8047" fill="#84BE84" rx="3" ry="3" style="stroke:#038048;stroke-width:1.0;"/><text fill="#000000" font-family="sans-serif" font-size="14" lengthAdjust="spacing" textLength="201" x="1505.5" y="867.1514">boolean isGoldDeckEmpty()</text><ellipse cx="1496.5" cy="880.1016" fill="#84BE84" rx="3" ry="3" style="stroke:#038048;stroke-width:1.0;"/><text fill="#000000" font-family="sans-serif" font-size="14" lengthAdjust="spacing" textLength="234" x="1505.5" y="883.4482">boolean isResourceDeckEmpty()</text><ellipse cx="1496.5" cy="896.3984" fill="#84BE84" rx="3" ry="3" style="stroke:#038048;stroke-width:1.0;"/><text fill="#000000" font-family="sans-serif" font-size="14" lengthAdjust="spacing" textLength="258" x="1505.5" y="899.7451">drawCardFromField(GameCard card)</text></g><!--class Deck--><g id="elem_Deck"><rect codeLine="79" fill="#F1F1F1" height="113.1875" id="Deck" rx="2.5" ry="2.5" style="stroke:#181818;stroke-width:0.5;" width="160" x="1834" y="991.5"/><ellipse cx="1885.75" cy="1007.5" fill="#ADD1B2" rx="11" ry="11" style="stroke:#181818;stroke-width:1.0;"/><path d="M1888.0938,1003.1719 C1887.1563,1002.7344 1886.5625,1002.5938 1885.6875,1002.5938 C1883.0625,1002.5938 1881.0625,1004.6719 1881.0625,1007.3906 L1881.0625,1008.5156 C1881.0625,1011.0938 1883.1719,1012.9844 1886.0625,1012.9844 C1887.2813,1012.9844 1888.4375,1012.6875 1889.1875,1012.1406 C1889.7656,1011.7344 1890.0938,1011.2813 1890.0938,1010.8906 C1890.0938,1010.4375 1889.7031,1010.0469 1889.2344,1010.0469 C1889.0156,1010.0469 1888.8125,1010.125 1888.625,1010.3125 C1888.1719,1010.7969 1888.1719,1010.7969 1887.9844,1010.8906 C1887.5625,1011.1563 1886.875,1011.2813 1886.1094,1011.2813 C1884.0625,1011.2813 1882.7656,1010.1875 1882.7656,1008.4844 L1882.7656,1007.3906 C1882.7656,1005.6094 1884.0156,1004.2969 1885.75,1004.2969 C1886.3281,1004.2969 1886.9375,1004.4531 1887.4063,1004.7031 C1887.8906,1004.9844 1888.0625,1005.2031 1888.1563,1005.6094 C1888.2188,1006.0156 1888.25,1006.1406 1888.3906,1006.2656 C1888.5313,1006.4063 1888.7656,1006.5156 1888.9844,1006.5156 C1889.25,1006.5156 1889.5156,1006.375 1889.6875,1006.1563 C1889.7969,1006 1889.8281,1005.8125 1889.8281,1005.3906 L1889.8281,1003.9688 C1889.8281,1003.5313 1889.8125,1003.4063 1889.7188,1003.25 C1889.5625,1002.9844 1889.2813,1002.8438 1888.9844,1002.8438 C1888.6875,1002.8438 1888.4844,1002.9375 1888.2656,1003.25 L1888.0938,1003.1719 Z " fill="#000000"/><text fill="#000000" font-family="sans-serif" font-size="14" lengthAdjust="spacing" textLength="37" x="1906.25" y="1012.3467">Deck</text><rect fill="#FFFFFF" height="15.9688" style="stroke:#181818;stroke-width:1.0;stroke-dasharray:2.0,2.0;" width="9" x="1988" y="988.5"/><text fill="#000000" font-family="sans-serif" font-size="12" font-style="italic" lengthAdjust="spacing" textLength="7" x="1989" y="1000.6387">T</text><line style="stroke:#181818;stroke-width:0.5;" x1="1835" x2="1993" y1="1023.5" y2="1023.5"/><rect fill="none" height="6" style="stroke:#C82930;stroke-width:1.0;" width="6" x="1842" y="1034.1484"/><text fill="#000000" font-family="sans-serif" font-size="14" lengthAdjust="spacing" textLength="134" x="1854" y="1040.4951">ArrayList&lt;T&gt; deck</text><rect fill="none" height="6" style="stroke:#C82930;stroke-width:1.0;" width="6" x="1842" y="1050.4453"/><text fill="#000000" font-family="sans-serif" font-size="14" lengthAdjust="spacing" textLength="123" x="1854" y="1056.792">Random random;</text><line style="stroke:#181818;stroke-width:0.5;" x1="1835" x2="1993" y1="1064.0938" y2="1064.0938"/><ellipse cx="1845" cy="1077.7422" fill="#84BE84" rx="3" ry="3" style="stroke:#038048;stroke-width:1.0;"/><text fill="#000000" font-family="sans-serif" font-size="14" lengthAdjust="spacing" textLength="131" x="1854" y="1081.0889">boolean isEmpty()</text><ellipse cx="1845" cy="1094.0391" fill="#84BE84" rx="3" ry="3" style="stroke:#038048;stroke-width:1.0;"/><text fill="#000000" font-family="sans-serif" font-size="14" lengthAdjust="spacing" textLength="57" x="1854" y="1097.3857">T draw()</text></g><!--class PlayerBoard--><g id="elem_PlayerBoard"><rect codeLine="96" fill="#F1F1F1" height="162.0781" id="PlayerBoard" rx="2.5" ry="2.5" style="stroke:#181818;stroke-width:0.5;" width="337" x="791.5" y="967"/><ellipse cx="912.75" cy="983" fill="#ADD1B2" rx="11" ry="11" style="stroke:#181818;stroke-width:1.0;"/><path d="M915.0938,978.6719 C914.1563,978.2344 913.5625,978.0938 912.6875,978.0938 C910.0625,978.0938 908.0625,980.1719 908.0625,982.8906 L908.0625,984.0156 C908.0625,986.5938 910.1719,988.4844 913.0625,988.4844 C914.2813,988.4844 915.4375,988.1875 916.1875,987.6406 C916.7656,987.2344 917.0938,986.7813 917.0938,986.3906 C917.0938,985.9375 916.7031,985.5469 916.2344,985.5469 C916.0156,985.5469 915.8125,985.625 915.625,985.8125 C915.1719,986.2969 915.1719,986.2969 914.9844,986.3906 C914.5625,986.6563 913.875,986.7813 913.1094,986.7813 C911.0625,986.7813 909.7656,985.6875 909.7656,983.9844 L909.7656,982.8906 C909.7656,981.1094 911.0156,979.7969 912.75,979.7969 C913.3281,979.7969 913.9375,979.9531 914.4063,980.2031 C914.8906,980.4844 915.0625,980.7031 915.1563,981.1094 C915.2188,981.5156 915.25,981.6406 915.3906,981.7656 C915.5313,981.9063 915.7656,982.0156 915.9844,982.0156 C916.25,982.0156 916.5156,981.875 916.6875,981.6563 C916.7969,981.5 916.8281,981.3125 916.8281,980.8906 L916.8281,979.4688 C916.8281,979.0313 916.8125,978.9063 916.7188,978.75 C916.5625,978.4844 916.2813,978.3438 915.9844,978.3438 C915.6875,978.3438 915.4844,978.4375 915.2656,978.75 L915.0938,978.6719 Z " fill="#000000"/><text fill="#000000" font-family="sans-serif" font-size="14" lengthAdjust="spacing" textLength="86" x="933.25" y="987.8467">PlayerBoard</text><line style="stroke:#181818;stroke-width:0.5;" x1="792.5" x2="1127.5" y1="999" y2="999"/><rect fill="none" height="6" style="stroke:#C82930;stroke-width:1.0;" width="6" x="799.5" y="1009.6484"/><text fill="#000000" font-family="sans-serif" font-size="14" lengthAdjust="spacing" textLength="298" x="811.5" y="1015.9951">HashMap&lt;Point, GameCard&gt; playerBoard</text><rect fill="none" height="6" style="stroke:#C82930;stroke-width:1.0;" width="6" x="799.5" y="1025.9453"/><text fill="#000000" font-family="sans-serif" font-size="14" lengthAdjust="spacing" textLength="201" x="811.5" y="1032.292">GameItemStore gameItems</text><line style="stroke:#181818;stroke-width:0.5;" x1="792.5" x2="1127.5" y1="1039.5938" y2="1039.5938"/><ellipse cx="802.5" cy="1053.2422" fill="#84BE84" rx="3" ry="3" style="stroke:#038048;stroke-width:1.0;"/><text fill="#000000" font-family="sans-serif" font-size="14" lengthAdjust="spacing" textLength="311" x="811.5" y="1056.5889">Optional&lt;GameCard&gt; getGameCard(Point)</text><ellipse cx="802.5" cy="1069.5391" fill="#84BE84" rx="3" ry="3" style="stroke:#038048;stroke-width:1.0;"/><text fill="#000000" font-family="sans-serif" font-size="14" lengthAdjust="spacing" textLength="285" x="811.5" y="1072.8857">Point getGameCardPosition(GameCard)</text><ellipse cx="802.5" cy="1085.8359" fill="#84BE84" rx="3" ry="3" style="stroke:#038048;stroke-width:1.0;"/><text fill="#000000" font-family="sans-serif" font-size="14" lengthAdjust="spacing" textLength="282" x="811.5" y="1089.1826">ArrayList&lt;GameCard&gt; getGameCards()</text><ellipse cx="802.5" cy="1102.1328" fill="#84BE84" rx="3" ry="3" style="stroke:#038048;stroke-width:1.0;"/><text fill="#000000" font-family="sans-serif" font-size="14" lengthAdjust="spacing" textLength="301" x="811.5" y="1105.4795">Integer getGameItemAmount(GameItem)</text><ellipse cx="802.5" cy="1118.4297" fill="#84BE84" rx="3" ry="3" style="stroke:#038048;stroke-width:1.0;"/><text fill="#000000" font-family="sans-serif" font-size="14" lengthAdjust="spacing" textLength="263" x="811.5" y="1121.7764">void setGameCard(Point, GameCard)</text></g><!--class Hand--><g id="elem_Hand"><rect codeLine="87" fill="#F1F1F1" height="113.1875" id="Hand" rx="2.5" ry="2.5" style="stroke:#181818;stroke-width:0.5;" width="308" x="1164" y="991.5"/><ellipse cx="1295.75" cy="1007.5" fill="#ADD1B2" rx="11" ry="11" style="stroke:#181818;stroke-width:1.0;"/><path d="M1298.0938,1003.1719 C1297.1563,1002.7344 1296.5625,1002.5938 1295.6875,1002.5938 C1293.0625,1002.5938 1291.0625,1004.6719 1291.0625,1007.3906 L1291.0625,1008.5156 C1291.0625,1011.0938 1293.1719,1012.9844 1296.0625,1012.9844 C1297.2813,1012.9844 1298.4375,1012.6875 1299.1875,1012.1406 C1299.7656,1011.7344 1300.0938,1011.2813 1300.0938,1010.8906 C1300.0938,1010.4375 1299.7031,1010.0469 1299.2344,1010.0469 C1299.0156,1010.0469 1298.8125,1010.125 1298.625,1010.3125 C1298.1719,1010.7969 1298.1719,1010.7969 1297.9844,1010.8906 C1297.5625,1011.1563 1296.875,1011.2813 1296.1094,1011.2813 C1294.0625,1011.2813 1292.7656,1010.1875 1292.7656,1008.4844 L1292.7656,1007.3906 C1292.7656,1005.6094 1294.0156,1004.2969 1295.75,1004.2969 C1296.3281,1004.2969 1296.9375,1004.4531 1297.4063,1004.7031 C1297.8906,1004.9844 1298.0625,1005.2031 1298.1563,1005.6094 C1298.2188,1006.0156 1298.25,1006.1406 1298.3906,1006.2656 C1298.5313,1006.4063 1298.7656,1006.5156 1298.9844,1006.5156 C1299.25,1006.5156 1299.5156,1006.375 1299.6875,1006.1563 C1299.7969,1006 1299.8281,1005.8125 1299.8281,1005.3906 L1299.8281,1003.9688 C1299.8281,1003.5313 1299.8125,1003.4063 1299.7188,1003.25 C1299.5625,1002.9844 1299.2813,1002.8438 1298.9844,1002.8438 C1298.6875,1002.8438 1298.4844,1002.9375 1298.2656,1003.25 L1298.0938,1003.1719 Z " fill="#000000"/><text fill="#000000" font-family="sans-serif" font-size="14" lengthAdjust="spacing" textLength="36" x="1316.25" y="1012.3467">Hand</text><line style="stroke:#181818;stroke-width:0.5;" x1="1165" x2="1471" y1="1023.5" y2="1023.5"/><rect fill="none" height="6" style="stroke:#C82930;stroke-width:1.0;" width="6" x="1172" y="1034.1484"/><text fill="#000000" font-family="sans-serif" font-size="14" lengthAdjust="spacing" textLength="200" x="1184" y="1040.4951">ArrayList&lt;GameCard&gt; hand</text><line style="stroke:#181818;stroke-width:0.5;" x1="1165" x2="1471" y1="1047.7969" y2="1047.7969"/><ellipse cx="1175" cy="1061.4453" fill="#84BE84" rx="3" ry="3" style="stroke:#038048;stroke-width:1.0;"/><text fill="#000000" font-family="sans-serif" font-size="14" lengthAdjust="spacing" textLength="282" x="1184" y="1064.792">ArrayList&lt;GameCard&gt; getGameCards()</text><ellipse cx="1175" cy="1077.7422" fill="#84BE84" rx="3" ry="3" style="stroke:#038048;stroke-width:1.0;"/><text fill="#000000" font-family="sans-serif" font-size="14" lengthAdjust="spacing" textLength="178" x="1184" y="1081.0889">void addCard(GameCard)</text><ellipse cx="1175" cy="1094.0391" fill="#84BE84" rx="3" ry="3" style="stroke:#038048;stroke-width:1.0;"/><text fill="#000000" font-family="sans-serif" font-size="14" lengthAdjust="spacing" textLength="207" x="1184" y="1097.3857">void removeCard(GameCard)</text></g><!--class GameCard--><g id="elem_GameCard"><rect codeLine="127" fill="#F1F1F1" height="227.2656" id="GameCard" rx="2.5" ry="2.5" style="stroke:#181818;stroke-width:0.5;" width="395" x="464.5" y="1189"/><ellipse cx="620.25" cy="1205" fill="#ADD1B2" rx="11" ry="11" style="stroke:#181818;stroke-width:1.0;"/><path d="M622.5938,1200.6719 C621.6563,1200.2344 621.0625,1200.0938 620.1875,1200.0938 C617.5625,1200.0938 615.5625,1202.1719 615.5625,1204.8906 L615.5625,1206.0156 C615.5625,1208.5938 617.6719,1210.4844 620.5625,1210.4844 C621.7813,1210.4844 622.9375,1210.1875 623.6875,1209.6406 C624.2656,1209.2344 624.5938,1208.7813 624.5938,1208.3906 C624.5938,1207.9375 624.2031,1207.5469 623.7344,1207.5469 C623.5156,1207.5469 623.3125,1207.625 623.125,1207.8125 C622.6719,1208.2969 622.6719,1208.2969 622.4844,1208.3906 C622.0625,1208.6563 621.375,1208.7813 620.6094,1208.7813 C618.5625,1208.7813 617.2656,1207.6875 617.2656,1205.9844 L617.2656,1204.8906 C617.2656,1203.1094 618.5156,1201.7969 620.25,1201.7969 C620.8281,1201.7969 621.4375,1201.9531 621.9063,1202.2031 C622.3906,1202.4844 622.5625,1202.7031 622.6563,1203.1094 C622.7188,1203.5156 622.75,1203.6406 622.8906,1203.7656 C623.0313,1203.9063 623.2656,1204.0156 623.4844,1204.0156 C623.75,1204.0156 624.0156,1203.875 624.1875,1203.6563 C624.2969,1203.5 624.3281,1203.3125 624.3281,1202.8906 L624.3281,1201.4688 C624.3281,1201.0313 624.3125,1200.9063 624.2188,1200.75 C624.0625,1200.4844 623.7813,1200.3438 623.4844,1200.3438 C623.1875,1200.3438 622.9844,1200.4375 622.7656,1200.75 L622.5938,1200.6719 Z " fill="#000000"/><text fill="#000000" font-family="sans-serif" font-size="14" lengthAdjust="spacing" textLength="75" x="640.75" y="1209.8467">GameCard</text><line style="stroke:#181818;stroke-width:0.5;" x1="465.5" x2="858.5" y1="1221" y2="1221"/><rect fill="none" height="6" style="stroke:#C82930;stroke-width:1.0;" width="6" x="472.5" y="1231.6484"/><text fill="#000000" font-family="sans-serif" font-size="14" lengthAdjust="spacing" textLength="119" x="484.5" y="1237.9951">Side currentSide</text><rect fill="none" height="6" style="stroke:#C82930;stroke-width:1.0;" width="6" x="472.5" y="1247.9453"/><text fill="#000000" font-family="sans-serif" font-size="14" lengthAdjust="spacing" textLength="106" x="484.5" y="1254.292">Side otherSide</text><rect fill="none" height="6" style="stroke:#C82930;stroke-width:1.0;" width="6" x="472.5" y="1264.2422"/><text fill="#000000" font-family="sans-serif" font-size="14" lengthAdjust="spacing" textLength="142" x="484.5" y="1270.5889">cardColor cardColor</text><line style="stroke:#181818;stroke-width:0.5;" x1="465.5" x2="858.5" y1="1277.8906" y2="1277.8906"/><ellipse cx="475.5" cy="1291.5391" fill="#84BE84" rx="3" ry="3" style="stroke:#038048;stroke-width:1.0;"/><text fill="#000000" font-family="sans-serif" font-size="14" lengthAdjust="spacing" textLength="156" x="484.5" y="1294.8857">Side getCurrentSide()</text><ellipse cx="475.5" cy="1307.8359" fill="#84BE84" rx="3" ry="3" style="stroke:#038048;stroke-width:1.0;"/><text fill="#000000" font-family="sans-serif" font-size="14" lengthAdjust="spacing" textLength="121" x="484.5" y="1311.1826">void switchSide()</text><ellipse cx="475.5" cy="1324.1328" fill="#84BE84" rx="3" ry="3" style="stroke:#038048;stroke-width:1.0;"/><text fill="#000000" font-family="sans-serif" font-size="14" lengthAdjust="spacing" textLength="181" x="484.5" y="1327.4795">CardColor getCardColor()</text><ellipse cx="475.5" cy="1340.4297" fill="#84BE84" rx="3" ry="3" style="stroke:#038048;stroke-width:1.0;"/><text fill="#000000" font-family="sans-serif" font-size="14" lengthAdjust="spacing" textLength="324" x="484.5" y="1343.7764">Optional&lt;Corner&gt;getCorner(CornerPosition)</text><ellipse cx="475.5" cy="1356.7266" fill="#84BE84" rx="3" ry="3" style="stroke:#038048;stroke-width:1.0;"/><text fill="#000000" font-family="sans-serif" font-size="14" lengthAdjust="spacing" textLength="369" x="484.5" y="1360.0732">GameItemEnum setCornerCovered(CornerPosition)</text><ellipse cx="475.5" cy="1373.0234" fill="#84BE84" rx="3" ry="3" style="stroke:#038048;stroke-width:1.0;"/><text fill="#000000" font-family="sans-serif" font-size="14" lengthAdjust="spacing" textLength="271" x="484.5" y="1376.3701">GameItemStore getGameItemStore()</text><ellipse cx="475.5" cy="1389.3203" fill="#84BE84" rx="3" ry="3" style="stroke:#038048;stroke-width:1.0;"/><text fill="#000000" font-family="sans-serif" font-size="14" lengthAdjust="spacing" textLength="266" x="484.5" y="1392.667">int getPoints(Point pos, PlayerBoard)</text><ellipse cx="475.5" cy="1405.6172" fill="#84BE84" rx="3" ry="3" style="stroke:#038048;stroke-width:1.0;"/><text fill="#000000" font-family="sans-serif" font-size="14" lengthAdjust="spacing" textLength="284" x="484.5" y="1408.9639">GameItemStore getNeededItemStore()</text></g><!--class Store--><g id="elem_Store"><rect codeLine="108" fill="#F1F1F1" height="145.7813" id="Store" rx="2.5" ry="2.5" style="stroke:#181818;stroke-width:0.5;" width="224" x="914" y="1229.5"/><ellipse cx="996.25" cy="1245.5" fill="#ADD1B2" rx="11" ry="11" style="stroke:#181818;stroke-width:1.0;"/><path d="M998.5938,1241.1719 C997.6563,1240.7344 997.0625,1240.5938 996.1875,1240.5938 C993.5625,1240.5938 991.5625,1242.6719 991.5625,1245.3906 L991.5625,1246.5156 C991.5625,1249.0938 993.6719,1250.9844 996.5625,1250.9844 C997.7813,1250.9844 998.9375,1250.6875 999.6875,1250.1406 C1000.2656,1249.7344 1000.5938,1249.2813 1000.5938,1248.8906 C1000.5938,1248.4375 1000.2031,1248.0469 999.7344,1248.0469 C999.5156,1248.0469 999.3125,1248.125 999.125,1248.3125 C998.6719,1248.7969 998.6719,1248.7969 998.4844,1248.8906 C998.0625,1249.1563 997.375,1249.2813 996.6094,1249.2813 C994.5625,1249.2813 993.2656,1248.1875 993.2656,1246.4844 L993.2656,1245.3906 C993.2656,1243.6094 994.5156,1242.2969 996.25,1242.2969 C996.8281,1242.2969 997.4375,1242.4531 997.9063,1242.7031 C998.3906,1242.9844 998.5625,1243.2031 998.6563,1243.6094 C998.7188,1244.0156 998.75,1244.1406 998.8906,1244.2656 C999.0313,1244.4063 999.2656,1244.5156 999.4844,1244.5156 C999.75,1244.5156 1000.0156,1244.375 1000.1875,1244.1563 C1000.2969,1244 1000.3281,1243.8125 1000.3281,1243.3906 L1000.3281,1241.9688 C1000.3281,1241.5313 1000.3125,1241.4063 1000.2188,1241.25 C1000.0625,1240.9844 999.7813,1240.8438 999.4844,1240.8438 C999.1875,1240.8438 998.9844,1240.9375 998.7656,1241.25 L998.5938,1241.1719 Z " fill="#000000"/><text fill="#000000" font-family="sans-serif" font-size="14" lengthAdjust="spacing" textLength="40" x="1016.75" y="1250.3467">Store</text><rect fill="#FFFFFF" height="15.9688" style="stroke:#181818;stroke-width:1.0;stroke-dasharray:2.0,2.0;" width="9" x="1132" y="1226.5"/><text fill="#000000" font-family="sans-serif" font-size="12" font-style="italic" lengthAdjust="spacing" textLength="7" x="1133" y="1238.6387">T</text><line style="stroke:#181818;stroke-width:0.5;" x1="915" x2="1137" y1="1261.5" y2="1261.5"/><polygon fill="none" points="925,1270.1484,929,1274.1484,925,1278.1484,921,1274.1484" style="stroke:#B38D22;stroke-width:1.0;"/><text fill="#000000" font-family="sans-serif" font-size="14" lengthAdjust="spacing" textLength="198" x="934" y="1278.4951">HashMap&lt;T, Integer&gt; store</text><line style="stroke:#181818;stroke-width:0.5;" x1="915" x2="1137" y1="1285.7969" y2="1285.7969"/><ellipse cx="925" cy="1299.4453" fill="#84BE84" rx="3" ry="3" style="stroke:#038048;stroke-width:1.0;"/><text fill="#000000" font-family="sans-serif" font-size="14" lengthAdjust="spacing" textLength="55" x="934" y="1302.792">get(T t)</text><ellipse cx="925" cy="1315.7422" fill="#84BE84" rx="3" ry="3" style="stroke:#038048;stroke-width:1.0;"/><text fill="#000000" font-family="sans-serif" font-size="14" lengthAdjust="spacing" textLength="114" x="934" y="1319.0889">set(T t, Integer)</text><ellipse cx="925" cy="1332.0391" fill="#84BE84" rx="3" ry="3" style="stroke:#038048;stroke-width:1.0;"/><text fill="#000000" font-family="sans-serif" font-size="14" lengthAdjust="spacing" textLength="166" x="934" y="1335.3857">increment(T t, Integer)</text><ellipse cx="925" cy="1348.3359" fill="#84BE84" rx="3" ry="3" style="stroke:#038048;stroke-width:1.0;"/><text fill="#000000" font-family="sans-serif" font-size="14" lengthAdjust="spacing" textLength="171" x="934" y="1351.6826">decrement(T t, Integer)</text><ellipse cx="925" cy="1364.6328" fill="#84BE84" rx="3" ry="3" style="stroke:#038048;stroke-width:1.0;"/><text fill="#000000" font-family="sans-serif" font-size="14" lengthAdjust="spacing" textLength="145" x="934" y="1367.9795">getNonEmptyKeys()</text></g><!--class GameItemStore--><g id="elem_GameItemStore"><rect codeLine="117" fill="#F1F1F1" height="80.5938" id="GameItemStore" rx="2.5" ry="2.5" style="stroke:#181818;stroke-width:0.5;" width="460" x="833" y="1533"/><ellipse cx="1000.75" cy="1549" fill="#ADD1B2" rx="11" ry="11" style="stroke:#181818;stroke-width:1.0;"/><path d="M1003.0938,1544.6719 C1002.1563,1544.2344 1001.5625,1544.0938 1000.6875,1544.0938 C998.0625,1544.0938 996.0625,1546.1719 996.0625,1548.8906 L996.0625,1550.0156 C996.0625,1552.5938 998.1719,1554.4844 1001.0625,1554.4844 C1002.2813,1554.4844 1003.4375,1554.1875 1004.1875,1553.6406 C1004.7656,1553.2344 1005.0938,1552.7813 1005.0938,1552.3906 C1005.0938,1551.9375 1004.7031,1551.5469 1004.2344,1551.5469 C1004.0156,1551.5469 1003.8125,1551.625 1003.625,1551.8125 C1003.1719,1552.2969 1003.1719,1552.2969 1002.9844,1552.3906 C1002.5625,1552.6563 1001.875,1552.7813 1001.1094,1552.7813 C999.0625,1552.7813 997.7656,1551.6875 997.7656,1549.9844 L997.7656,1548.8906 C997.7656,1547.1094 999.0156,1545.7969 1000.75,1545.7969 C1001.3281,1545.7969 1001.9375,1545.9531 1002.4063,1546.2031 C1002.8906,1546.4844 1003.0625,1546.7031 1003.1563,1547.1094 C1003.2188,1547.5156 1003.25,1547.6406 1003.3906,1547.7656 C1003.5313,1547.9063 1003.7656,1548.0156 1003.9844,1548.0156 C1004.25,1548.0156 1004.5156,1547.875 1004.6875,1547.6563 C1004.7969,1547.5 1004.8281,1547.3125 1004.8281,1546.8906 L1004.8281,1545.4688 C1004.8281,1545.0313 1004.8125,1544.9063 1004.7188,1544.75 C1004.5625,1544.4844 1004.2813,1544.3438 1003.9844,1544.3438 C1003.6875,1544.3438 1003.4844,1544.4375 1003.2656,1544.75 L1003.0938,1544.6719 Z " fill="#000000"/><text fill="#000000" font-family="sans-serif" font-size="14" lengthAdjust="spacing" textLength="116" x="1021.25" y="1553.8467">GameItemStore</text><line style="stroke:#181818;stroke-width:0.5;" x1="834" x2="1292" y1="1565" y2="1565"/><line style="stroke:#181818;stroke-width:0.5;" x1="834" x2="1292" y1="1573" y2="1573"/><ellipse cx="844" cy="1586.6484" fill="#84BE84" rx="3" ry="3" style="stroke:#038048;stroke-width:1.0;"/><text fill="#000000" font-family="sans-serif" font-size="14" lengthAdjust="spacing" textLength="126" x="853" y="1589.9951">GameItemStore()</text><ellipse cx="844" cy="1602.9453" fill="#84BE84" rx="3" ry="3" style="stroke:#038048;stroke-width:1.0;"/><text fill="#000000" font-family="sans-serif" font-size="14" lengthAdjust="spacing" textLength="434" x="853" y="1606.292">GameItemStore(HashMap&lt;GameItem, Integer&gt; gameItems)</text></g><!--class Side--><g id="elem_Side"><rect codeLine="143" fill="#F1F1F1" height="194.6719" id="Side" rx="2.5" ry="2.5" style="stroke:#181818;stroke-width:0.5;" width="310" x="488" y="1476"/><ellipse cx="623.25" cy="1492" fill="#A9DCDF" rx="11" ry="11" style="stroke:#181818;stroke-width:1.0;"/><path d="M625.3281,1493.8125 L625.7188,1494.7969 L625.3281,1494.7969 C624.875,1494.7969 624.7656,1494.8125 624.6094,1494.9219 C624.3594,1495.0781 624.2031,1495.3594 624.2031,1495.6563 C624.2031,1495.9219 624.3438,1496.1719 624.5625,1496.3281 C624.7031,1496.4531 624.9063,1496.5 625.3281,1496.5 L627.6875,1496.5 C628.0469,1496.5 628.2656,1496.4688 628.4063,1496.375 C628.6563,1496.2344 628.8125,1495.9375 628.8125,1495.6563 C628.8125,1495.375 628.6719,1495.125 628.4531,1494.9688 C628.2813,1494.8281 628.125,1494.7969 627.6563,1494.7969 L624.2656,1486.5938 L620.5938,1486.5938 C620.1406,1486.5938 620.0156,1486.6094 619.8594,1486.7031 C619.6094,1486.875 619.4531,1487.1563 619.4531,1487.4375 C619.4531,1487.7188 619.5938,1487.9688 619.8125,1488.1406 C619.9844,1488.25 620.1563,1488.2813 620.5938,1488.2813 L621.6719,1488.2813 L619.0313,1494.7969 C618.6094,1494.7969 618.4531,1494.8125 618.2969,1494.9219 C618.0469,1495.0781 617.8906,1495.3594 617.8906,1495.6563 C617.8906,1496.2188 618.2656,1496.5 619.0156,1496.5 L621.2813,1496.5 C621.6406,1496.5 621.8594,1496.4688 621.9844,1496.375 C622.25,1496.2344 622.3906,1495.9375 622.3906,1495.6563 C622.3906,1495.375 622.2656,1495.125 622.0469,1494.9531 C621.875,1494.8281 621.7344,1494.7969 621.2813,1494.7969 L620.8906,1494.7969 L621.2813,1493.8125 L625.3281,1493.8125 Z M624.625,1492.1094 L621.9531,1492.1094 L623.2969,1488.8438 L624.625,1492.1094 Z " fill="#000000"/><text fill="#000000" font-family="sans-serif" font-size="14" font-style="italic" lengthAdjust="spacing" textLength="31" x="643.75" y="1496.8467">Side</text><line style="stroke:#181818;stroke-width:0.5;" x1="489" x2="797" y1="1508" y2="1508"/><polygon fill="none" points="499,1516.6484,503,1520.6484,499,1524.6484,495,1520.6484" style="stroke:#B38D22;stroke-width:1.0;"/><text fill="#000000" font-family="sans-serif" font-size="14" lengthAdjust="spacing" textLength="198" x="508" y="1524.9951">Optional&lt;Corner&gt;topRight</text><polygon fill="none" points="499,1532.9453,503,1536.9453,499,1540.9453,495,1536.9453" style="stroke:#B38D22;stroke-width:1.0;"/><text fill="#000000" font-family="sans-serif" font-size="14" lengthAdjust="spacing" textLength="189" x="508" y="1541.292">Optional&lt;Corner&gt;topLeft</text><polygon fill="none" points="499,1549.2422,503,1553.2422,499,1557.2422,495,1553.2422" style="stroke:#B38D22;stroke-width:1.0;"/><text fill="#000000" font-family="sans-serif" font-size="14" lengthAdjust="spacing" textLength="219" x="508" y="1557.5889">Optional&lt;Corner&gt;bottomLeft</text><polygon fill="none" points="499,1565.5391,503,1569.5391,499,1573.5391,495,1569.5391" style="stroke:#B38D22;stroke-width:1.0;"/><text fill="#000000" font-family="sans-serif" font-size="14" lengthAdjust="spacing" textLength="228" x="508" y="1573.8857">Optional&lt;Corner&gt;bottomRight</text><line style="stroke:#181818;stroke-width:0.5;" x1="489" x2="797" y1="1581.1875" y2="1581.1875"/><ellipse cx="499" cy="1594.8359" fill="#84BE84" rx="3" ry="3" style="stroke:#038048;stroke-width:1.0;"/><text fill="#000000" font-family="sans-serif" font-size="14" lengthAdjust="spacing" textLength="191" x="508" y="1598.1826">getCorner(CornerPosition)</text><ellipse cx="499" cy="1611.1328" fill="#84BE84" rx="3" ry="3" style="stroke:#038048;stroke-width:1.0;"/><text fill="#000000" font-family="sans-serif" font-size="14" lengthAdjust="spacing" textLength="249" x="508" y="1614.4795">setCornerCovered(CornerPosition)</text><ellipse cx="499" cy="1627.4297" fill="#84BE84" rx="3" ry="3" style="stroke:#038048;stroke-width:1.0;"/><text fill="#000000" font-family="sans-serif" font-size="14" lengthAdjust="spacing" textLength="271" x="508" y="1630.7764">GameItemStore getGameItemStore()</text><ellipse cx="499" cy="1643.7266" fill="#84BE84" rx="3" ry="3" style="stroke:#038048;stroke-width:1.0;"/><text fill="#000000" font-family="sans-serif" font-size="14" lengthAdjust="spacing" textLength="266" x="508" y="1647.0732">int getPoints(Point pos, PlayerBoard)</text><ellipse cx="499" cy="1660.0234" fill="#84BE84" rx="3" ry="3" style="stroke:#038048;stroke-width:1.0;"/><text fill="#000000" font-family="sans-serif" font-size="14" lengthAdjust="spacing" textLength="284" x="508" y="1663.3701">GameItemStore getNeededItemStore()</text></g><!--class Front--><g id="elem_Front"><rect codeLine="179" fill="#F1F1F1" height="96.8906" id="Front" rx="2.5" ry="2.5" style="stroke:#181818;stroke-width:0.5;" width="292" x="170" y="1747"/><ellipse cx="292.25" cy="1763" fill="#ADD1B2" rx="11" ry="11" style="stroke:#181818;stroke-width:1.0;"/><path d="M294.5938,1758.6719 C293.6563,1758.2344 293.0625,1758.0938 292.1875,1758.0938 C289.5625,1758.0938 287.5625,1760.1719 287.5625,1762.8906 L287.5625,1764.0156 C287.5625,1766.5938 289.6719,1768.4844 292.5625,1768.4844 C293.7813,1768.4844 294.9375,1768.1875 295.6875,1767.6406 C296.2656,1767.2344 296.5938,1766.7813 296.5938,1766.3906 C296.5938,1765.9375 296.2031,1765.5469 295.7344,1765.5469 C295.5156,1765.5469 295.3125,1765.625 295.125,1765.8125 C294.6719,1766.2969 294.6719,1766.2969 294.4844,1766.3906 C294.0625,1766.6563 293.375,1766.7813 292.6094,1766.7813 C290.5625,1766.7813 289.2656,1765.6875 289.2656,1763.9844 L289.2656,1762.8906 C289.2656,1761.1094 290.5156,1759.7969 292.25,1759.7969 C292.8281,1759.7969 293.4375,1759.9531 293.9063,1760.2031 C294.3906,1760.4844 294.5625,1760.7031 294.6563,1761.1094 C294.7188,1761.5156 294.75,1761.6406 294.8906,1761.7656 C295.0313,1761.9063 295.2656,1762.0156 295.4844,1762.0156 C295.75,1762.0156 296.0156,1761.875 296.1875,1761.6563 C296.2969,1761.5 296.3281,1761.3125 296.3281,1760.8906 L296.3281,1759.4688 C296.3281,1759.0313 296.3125,1758.9063 296.2188,1758.75 C296.0625,1758.4844 295.7813,1758.3438 295.4844,1758.3438 C295.1875,1758.3438 294.9844,1758.4375 294.7656,1758.75 L294.5938,1758.6719 Z " fill="#000000"/><text fill="#000000" font-family="sans-serif" font-size="14" lengthAdjust="spacing" textLength="39" x="312.75" y="1767.8467">Front</text><line style="stroke:#181818;stroke-width:0.5;" x1="171" x2="461" y1="1779" y2="1779"/><polygon fill="none" points="181,1787.6484,185,1791.6484,181,1795.6484,177,1791.6484" style="stroke:#B38D22;stroke-width:1.0;"/><text fill="#000000" font-family="sans-serif" font-size="14" lengthAdjust="spacing" textLength="70" x="190" y="1795.9951">int points</text><line style="stroke:#181818;stroke-width:0.5;" x1="171" x2="461" y1="1803.2969" y2="1803.2969"/><ellipse cx="181" cy="1816.9453" fill="#84BE84" rx="3" ry="3" style="stroke:#038048;stroke-width:1.0;"/><text fill="#000000" font-family="sans-serif" font-size="14" lengthAdjust="spacing" textLength="151" x="190" y="1820.292">getGameItemStore()</text><ellipse cx="181" cy="1833.2422" fill="#84BE84" rx="3" ry="3" style="stroke:#038048;stroke-width:1.0;"/><text fill="#000000" font-family="sans-serif" font-size="14" lengthAdjust="spacing" textLength="266" x="190" y="1836.5889">int getPoints(Point pos, PlayerBoard)</text></g><!--class Back--><g id="elem_Back"><rect codeLine="209" fill="#F1F1F1" height="96.8906" id="Back" rx="2.5" ry="2.5" style="stroke:#181818;stroke-width:0.5;" width="292" x="497" y="1747"/><ellipse cx="621.25" cy="1763" fill="#ADD1B2" rx="11" ry="11" style="stroke:#181818;stroke-width:1.0;"/><path d="M623.5938,1758.6719 C622.6563,1758.2344 622.0625,1758.0938 621.1875,1758.0938 C618.5625,1758.0938 616.5625,1760.1719 616.5625,1762.8906 L616.5625,1764.0156 C616.5625,1766.5938 618.6719,1768.4844 621.5625,1768.4844 C622.7813,1768.4844 623.9375,1768.1875 624.6875,1767.6406 C625.2656,1767.2344 625.5938,1766.7813 625.5938,1766.3906 C625.5938,1765.9375 625.2031,1765.5469 624.7344,1765.5469 C624.5156,1765.5469 624.3125,1765.625 624.125,1765.8125 C623.6719,1766.2969 623.6719,1766.2969 623.4844,1766.3906 C623.0625,1766.6563 622.375,1766.7813 621.6094,1766.7813 C619.5625,1766.7813 618.2656,1765.6875 618.2656,1763.9844 L618.2656,1762.8906 C618.2656,1761.1094 619.5156,1759.7969 621.25,1759.7969 C621.8281,1759.7969 622.4375,1759.9531 622.9063,1760.2031 C623.3906,1760.4844 623.5625,1760.7031 623.6563,1761.1094 C623.7188,1761.5156 623.75,1761.6406 623.8906,1761.7656 C624.0313,1761.9063 624.2656,1762.0156 624.4844,1762.0156 C624.75,1762.0156 625.0156,1761.875 625.1875,1761.6563 C625.2969,1761.5 625.3281,1761.3125 625.3281,1760.8906 L625.3281,1759.4688 C625.3281,1759.0313 625.3125,1758.9063 625.2188,1758.75 C625.0625,1758.4844 624.7813,1758.3438 624.4844,1758.3438 C624.1875,1758.3438 623.9844,1758.4375 623.7656,1758.75 L623.5938,1758.6719 Z " fill="#000000"/><text fill="#000000" font-family="sans-serif" font-size="14" lengthAdjust="spacing" textLength="35" x="641.75" y="1767.8467">Back</text><line style="stroke:#181818;stroke-width:0.5;" x1="498" x2="788" y1="1779" y2="1779"/><polygon fill="none" points="508,1787.6484,512,1791.6484,508,1795.6484,504,1791.6484" style="stroke:#B38D22;stroke-width:1.0;"/><text fill="#000000" font-family="sans-serif" font-size="14" lengthAdjust="spacing" textLength="189" x="517" y="1795.9951">GameItemStore resources</text><line style="stroke:#181818;stroke-width:0.5;" x1="498" x2="788" y1="1803.2969" y2="1803.2969"/><ellipse cx="508" cy="1816.9453" fill="#84BE84" rx="3" ry="3" style="stroke:#038048;stroke-width:1.0;"/><text fill="#000000" font-family="sans-serif" font-size="14" lengthAdjust="spacing" textLength="151" x="517" y="1820.292">getGameItemStore()</text><ellipse cx="508" cy="1833.2422" fill="#84BE84" rx="3" ry="3" style="stroke:#038048;stroke-width:1.0;"/><text fill="#000000" font-family="sans-serif" font-size="14" lengthAdjust="spacing" textLength="266" x="517" y="1836.5889">int getPoints(Point pos, PlayerBoard)</text></g><!--class Corner--><g id="elem_Corner"><rect codeLine="159" fill="#F1F1F1" height="129.4844" id="Corner" rx="2.5" ry="2.5" style="stroke:#181818;stroke-width:0.5;" width="257" x="824.5" y="1731"/><ellipse cx="924.25" cy="1747" fill="#ADD1B2" rx="11" ry="11" style="stroke:#181818;stroke-width:1.0;"/><path d="M926.5938,1742.6719 C925.6563,1742.2344 925.0625,1742.0938 924.1875,1742.0938 C921.5625,1742.0938 919.5625,1744.1719 919.5625,1746.8906 L919.5625,1748.0156 C919.5625,1750.5938 921.6719,1752.4844 924.5625,1752.4844 C925.7813,1752.4844 926.9375,1752.1875 927.6875,1751.6406 C928.2656,1751.2344 928.5938,1750.7813 928.5938,1750.3906 C928.5938,1749.9375 928.2031,1749.5469 927.7344,1749.5469 C927.5156,1749.5469 927.3125,1749.625 927.125,1749.8125 C926.6719,1750.2969 926.6719,1750.2969 926.4844,1750.3906 C926.0625,1750.6563 925.375,1750.7813 924.6094,1750.7813 C922.5625,1750.7813 921.2656,1749.6875 921.2656,1747.9844 L921.2656,1746.8906 C921.2656,1745.1094 922.5156,1743.7969 924.25,1743.7969 C924.8281,1743.7969 925.4375,1743.9531 925.9063,1744.2031 C926.3906,1744.4844 926.5625,1744.7031 926.6563,1745.1094 C926.7188,1745.5156 926.75,1745.6406 926.8906,1745.7656 C927.0313,1745.9063 927.2656,1746.0156 927.4844,1746.0156 C927.75,1746.0156 928.0156,1745.875 928.1875,1745.6563 C928.2969,1745.5 928.3281,1745.3125 928.3281,1744.8906 L928.3281,1743.4688 C928.3281,1743.0313 928.3125,1742.9063 928.2188,1742.75 C928.0625,1742.4844 927.7813,1742.3438 927.4844,1742.3438 C927.1875,1742.3438 926.9844,1742.4375 926.7656,1742.75 L926.5938,1742.6719 Z " fill="#000000"/><text fill="#000000" font-family="sans-serif" font-size="14" lengthAdjust="spacing" textLength="49" x="944.75" y="1751.8467">Corner</text><line style="stroke:#181818;stroke-width:0.5;" x1="825.5" x2="1080.5" y1="1763" y2="1763"/><rect fill="none" height="6" style="stroke:#C82930;stroke-width:1.0;" width="6" x="832.5" y="1773.6484"/><text fill="#000000" font-family="sans-serif" font-size="14" lengthAdjust="spacing" textLength="133" x="844.5" y="1779.9951">boolean isCovered</text><rect fill="none" height="6" style="stroke:#C82930;stroke-width:1.0;" width="6" x="832.5" y="1789.9453"/><text fill="#000000" font-family="sans-serif" font-size="14" lengthAdjust="spacing" textLength="194" x="844.5" y="1796.292">GameItemEnum gameItem</text><line style="stroke:#181818;stroke-width:0.5;" x1="825.5" x2="1080.5" y1="1803.5938" y2="1803.5938"/><ellipse cx="835.5" cy="1817.2422" fill="#84BE84" rx="3" ry="3" style="stroke:#038048;stroke-width:1.0;"/><text fill="#000000" font-family="sans-serif" font-size="14" lengthAdjust="spacing" textLength="231" x="844.5" y="1820.5889">GameItemEnum getGameItem()</text><ellipse cx="835.5" cy="1833.5391" fill="#84BE84" rx="3" ry="3" style="stroke:#038048;stroke-width:1.0;"/><text fill="#000000" font-family="sans-serif" font-size="14" lengthAdjust="spacing" textLength="213" x="844.5" y="1836.8857">GameItemEnum setCovered()</text><ellipse cx="835.5" cy="1849.8359" fill="#84BE84" rx="3" ry="3" style="stroke:#038048;stroke-width:1.0;"/><text fill="#000000" font-family="sans-serif" font-size="14" lengthAdjust="spacing" textLength="131" x="844.5" y="1853.1826">Boolean isEmpty()</text></g><g id="elem_GMN32"><path d="M630.5,1933 L630.5,1988.3984 A0,0 0 0 0 630.5,1988.3984 L1275.5,1988.3984 A0,0 0 0 0 1275.5,1988.3984 L1275.5,1943 L1265.5,1933 L957,1933 L953,1860.454 L949,1933 L630.5,1933 A0,0 0 0 0 630.5,1933 " fill="#FEFFDD" style="stroke:#181818;stroke-width:0.5;"/><path d="M1265.5,1933 L1265.5,1943 L1275.5,1943 L1265.5,1933 " fill="#FEFFDD" style="stroke:#181818;stroke-width:0.5;"/><text fill="#000000" font-family="sans-serif" font-size="13" lengthAdjust="spacing" textLength="514" x="636.5" y="1950.0669">Nel caso in cui un Corner &#232; vuoto, allora risulter&#224; avere GameItemEnum = NONE</text><text fill="#000000" font-family="sans-serif" font-size="13" lengthAdjust="spacing" textLength="420" x="636.5" y="1965.1997">Se invece il Corner non esiste, il getter restituir&#224; Optional.empty()</text><text fill="#000000" font-family="sans-serif" font-size="13" lengthAdjust="spacing" textLength="624" x="636.5" y="1980.3325">Se la carta &#232; piazzata, significa che non devo preoccuparmi di accesso a Corner Optional.empty()</text></g><!--class FrontGoldCard--><g id="elem_FrontGoldCard"><rect codeLine="187" fill="#F1F1F1" height="80.5938" id="FrontGoldCard" rx="2.5" ry="2.5" style="stroke:#181818;stroke-width:0.5;" width="241" x="195.5" y="1920"/><ellipse cx="259.25" cy="1936" fill="#ADD1B2" rx="11" ry="11" style="stroke:#181818;stroke-width:1.0;"/><path d="M261.5938,1931.6719 C260.6563,1931.2344 260.0625,1931.0938 259.1875,1931.0938 C256.5625,1931.0938 254.5625,1933.1719 254.5625,1935.8906 L254.5625,1937.0156 C254.5625,1939.5938 256.6719,1941.4844 259.5625,1941.4844 C260.7813,1941.4844 261.9375,1941.1875 262.6875,1940.6406 C263.2656,1940.2344 263.5938,1939.7813 263.5938,1939.3906 C263.5938,1938.9375 263.2031,1938.5469 262.7344,1938.5469 C262.5156,1938.5469 262.3125,1938.625 262.125,1938.8125 C261.6719,1939.2969 261.6719,1939.2969 261.4844,1939.3906 C261.0625,1939.6563 260.375,1939.7813 259.6094,1939.7813 C257.5625,1939.7813 256.2656,1938.6875 256.2656,1936.9844 L256.2656,1935.8906 C256.2656,1934.1094 257.5156,1932.7969 259.25,1932.7969 C259.8281,1932.7969 260.4375,1932.9531 260.9063,1933.2031 C261.3906,1933.4844 261.5625,1933.7031 261.6563,1934.1094 C261.7188,1934.5156 261.75,1934.6406 261.8906,1934.7656 C262.0313,1934.9063 262.2656,1935.0156 262.4844,1935.0156 C262.75,1935.0156 263.0156,1934.875 263.1875,1934.6563 C263.2969,1934.5 263.3281,1934.3125 263.3281,1933.8906 L263.3281,1932.4688 C263.3281,1932.0313 263.3125,1931.9063 263.2188,1931.75 C263.0625,1931.4844 262.7813,1931.3438 262.4844,1931.3438 C262.1875,1931.3438 261.9844,1931.4375 261.7656,1931.75 L261.5938,1931.6719 Z " fill="#000000"/><text fill="#000000" font-family="sans-serif" font-size="14" lengthAdjust="spacing" textLength="105" x="279.75" y="1940.8467">FrontGoldCard</text><line style="stroke:#181818;stroke-width:0.5;" x1="196.5" x2="435.5" y1="1952" y2="1952"/><polygon fill="none" points="206.5,1960.6484,210.5,1964.6484,206.5,1968.6484,202.5,1964.6484" style="stroke:#B38D22;stroke-width:1.0;"/><text fill="#000000" font-family="sans-serif" font-size="14" lengthAdjust="spacing" textLength="215" x="215.5" y="1968.9951">GameItemStore neededItems</text><line style="stroke:#181818;stroke-width:0.5;" x1="196.5" x2="435.5" y1="1976.2969" y2="1976.2969"/><ellipse cx="206.5" cy="1989.9453" fill="#84BE84" rx="3" ry="3" style="stroke:#038048;stroke-width:1.0;"/><text fill="#000000" font-family="sans-serif" font-size="14" lengthAdjust="spacing" textLength="164" x="215.5" y="1993.292">getNeededItemStore()</text></g><!--class FrontPositionalGoldCard--><g id="elem_FrontPositionalGoldCard"><rect codeLine="196" fill="#F1F1F1" height="64.2969" id="FrontPositionalGoldCard" rx="2.5" ry="2.5" style="stroke:#181818;stroke-width:0.5;" width="292" x="7" y="2069.5"/><ellipse cx="61.25" cy="2085.5" fill="#ADD1B2" rx="11" ry="11" style="stroke:#181818;stroke-width:1.0;"/><path d="M63.5938,2081.1719 C62.6563,2080.7344 62.0625,2080.5938 61.1875,2080.5938 C58.5625,2080.5938 56.5625,2082.6719 56.5625,2085.3906 L56.5625,2086.5156 C56.5625,2089.0938 58.6719,2090.9844 61.5625,2090.9844 C62.7813,2090.9844 63.9375,2090.6875 64.6875,2090.1406 C65.2656,2089.7344 65.5938,2089.2813 65.5938,2088.8906 C65.5938,2088.4375 65.2031,2088.0469 64.7344,2088.0469 C64.5156,2088.0469 64.3125,2088.125 64.125,2088.3125 C63.6719,2088.7969 63.6719,2088.7969 63.4844,2088.8906 C63.0625,2089.1563 62.375,2089.2813 61.6094,2089.2813 C59.5625,2089.2813 58.2656,2088.1875 58.2656,2086.4844 L58.2656,2085.3906 C58.2656,2083.6094 59.5156,2082.2969 61.25,2082.2969 C61.8281,2082.2969 62.4375,2082.4531 62.9063,2082.7031 C63.3906,2082.9844 63.5625,2083.2031 63.6563,2083.6094 C63.7188,2084.0156 63.75,2084.1406 63.8906,2084.2656 C64.0313,2084.4063 64.2656,2084.5156 64.4844,2084.5156 C64.75,2084.5156 65.0156,2084.375 65.1875,2084.1563 C65.2969,2084 65.3281,2083.8125 65.3281,2083.3906 L65.3281,2081.9688 C65.3281,2081.5313 65.3125,2081.4063 65.2188,2081.25 C65.0625,2080.9844 64.7813,2080.8438 64.4844,2080.8438 C64.1875,2080.8438 63.9844,2080.9375 63.7656,2081.25 L63.5938,2081.1719 Z " fill="#000000"/><text fill="#000000" font-family="sans-serif" font-size="14" lengthAdjust="spacing" textLength="175" x="81.75" y="2090.3467">FrontPositionalGoldCard</text><line style="stroke:#181818;stroke-width:0.5;" x1="8" x2="298" y1="2101.5" y2="2101.5"/><line style="stroke:#181818;stroke-width:0.5;" x1="8" x2="298" y1="2109.5" y2="2109.5"/><ellipse cx="18" cy="2123.1484" fill="#84BE84" rx="3" ry="3" style="stroke:#038048;stroke-width:1.0;"/><text fill="#000000" font-family="sans-serif" font-size="14" lengthAdjust="spacing" textLength="266" x="27" y="2126.4951">int getPoints(Point pos, PlayerBoard)</text></g><!--class FrontItemGoldCard--><g id="elem_FrontItemGoldCard"><rect codeLine="202" fill="#F1F1F1" height="80.5938" id="FrontItemGoldCard" rx="2.5" ry="2.5" style="stroke:#181818;stroke-width:0.5;" width="292" x="334" y="2061"/><ellipse cx="406.25" cy="2077" fill="#ADD1B2" rx="11" ry="11" style="stroke:#181818;stroke-width:1.0;"/><path d="M408.5938,2072.6719 C407.6563,2072.2344 407.0625,2072.0938 406.1875,2072.0938 C403.5625,2072.0938 401.5625,2074.1719 401.5625,2076.8906 L401.5625,2078.0156 C401.5625,2080.5938 403.6719,2082.4844 406.5625,2082.4844 C407.7813,2082.4844 408.9375,2082.1875 409.6875,2081.6406 C410.2656,2081.2344 410.5938,2080.7813 410.5938,2080.3906 C410.5938,2079.9375 410.2031,2079.5469 409.7344,2079.5469 C409.5156,2079.5469 409.3125,2079.625 409.125,2079.8125 C408.6719,2080.2969 408.6719,2080.2969 408.4844,2080.3906 C408.0625,2080.6563 407.375,2080.7813 406.6094,2080.7813 C404.5625,2080.7813 403.2656,2079.6875 403.2656,2077.9844 L403.2656,2076.8906 C403.2656,2075.1094 404.5156,2073.7969 406.25,2073.7969 C406.8281,2073.7969 407.4375,2073.9531 407.9063,2074.2031 C408.3906,2074.4844 408.5625,2074.7031 408.6563,2075.1094 C408.7188,2075.5156 408.75,2075.6406 408.8906,2075.7656 C409.0313,2075.9063 409.2656,2076.0156 409.4844,2076.0156 C409.75,2076.0156 410.0156,2075.875 410.1875,2075.6563 C410.2969,2075.5 410.3281,2075.3125 410.3281,2074.8906 L410.3281,2073.4688 C410.3281,2073.0313 410.3125,2072.9063 410.2188,2072.75 C410.0625,2072.4844 409.7813,2072.3438 409.4844,2072.3438 C409.1875,2072.3438 408.9844,2072.4375 408.7656,2072.75 L408.5938,2072.6719 Z " fill="#000000"/><text fill="#000000" font-family="sans-serif" font-size="14" lengthAdjust="spacing" textLength="139" x="426.75" y="2081.8467">FrontItemGoldCard</text><line style="stroke:#181818;stroke-width:0.5;" x1="335" x2="625" y1="2093" y2="2093"/><rect fill="none" height="6" style="stroke:#C82930;stroke-width:1.0;" width="6" x="342" y="2103.6484"/><text fill="#000000" font-family="sans-serif" font-size="14" lengthAdjust="spacing" textLength="190" x="354" y="2109.9951">GameItemEnum multiplier</text><line style="stroke:#181818;stroke-width:0.5;" x1="335" x2="625" y1="2117.2969" y2="2117.2969"/><ellipse cx="345" cy="2130.9453" fill="#84BE84" rx="3" ry="3" style="stroke:#038048;stroke-width:1.0;"/><text fill="#000000" font-family="sans-serif" font-size="14" lengthAdjust="spacing" textLength="266" x="354" y="2134.292">int getPoints(Point pos, PlayerBoard)</text></g><!--class ObjectiveCard--><g id="elem_ObjectiveCard"><rect codeLine="217" fill="#F1F1F1" height="80.5938" id="ObjectiveCard" rx="2.5" ry="2.5" style="stroke:#181818;stroke-width:0.5;" width="292" x="1507" y="1007.5"/><ellipse cx="1598.25" cy="1023.5" fill="#A9DCDF" rx="11" ry="11" style="stroke:#181818;stroke-width:1.0;"/><path d="M1600.3281,1025.3125 L1600.7188,1026.2969 L1600.3281,1026.2969 C1599.875,1026.2969 1599.7656,1026.3125 1599.6094,1026.4219 C1599.3594,1026.5781 1599.2031,1026.8594 1599.2031,1027.1563 C1599.2031,1027.4219 1599.3438,1027.6719 1599.5625,1027.8281 C1599.7031,1027.9531 1599.9063,1028 1600.3281,1028 L1602.6875,1028 C1603.0469,1028 1603.2656,1027.9688 1603.4063,1027.875 C1603.6563,1027.7344 1603.8125,1027.4375 1603.8125,1027.1563 C1603.8125,1026.875 1603.6719,1026.625 1603.4531,1026.4688 C1603.2813,1026.3281 1603.125,1026.2969 1602.6563,1026.2969 L1599.2656,1018.0938 L1595.5938,1018.0938 C1595.1406,1018.0938 1595.0156,1018.1094 1594.8594,1018.2031 C1594.6094,1018.375 1594.4531,1018.6563 1594.4531,1018.9375 C1594.4531,1019.2188 1594.5938,1019.4688 1594.8125,1019.6406 C1594.9844,1019.75 1595.1563,1019.7813 1595.5938,1019.7813 L1596.6719,1019.7813 L1594.0313,1026.2969 C1593.6094,1026.2969 1593.4531,1026.3125 1593.2969,1026.4219 C1593.0469,1026.5781 1592.8906,1026.8594 1592.8906,1027.1563 C1592.8906,1027.7188 1593.2656,1028 1594.0156,1028 L1596.2813,1028 C1596.6406,1028 1596.8594,1027.9688 1596.9844,1027.875 C1597.25,1027.7344 1597.3906,1027.4375 1597.3906,1027.1563 C1597.3906,1026.875 1597.2656,1026.625 1597.0469,1026.4531 C1596.875,1026.3281 1596.7344,1026.2969 1596.2813,1026.2969 L1595.8906,1026.2969 L1596.2813,1025.3125 L1600.3281,1025.3125 Z M1599.625,1023.6094 L1596.9531,1023.6094 L1598.2969,1020.3438 L1599.625,1023.6094 Z " fill="#000000"/><text fill="#000000" font-family="sans-serif" font-size="14" font-style="italic" lengthAdjust="spacing" textLength="101" x="1618.75" y="1028.3467">ObjectiveCard</text><line style="stroke:#181818;stroke-width:0.5;" x1="1508" x2="1798" y1="1039.5" y2="1039.5"/><polygon fill="none" points="1518,1048.1484,1522,1052.1484,1518,1056.1484,1514,1052.1484" style="stroke:#B38D22;stroke-width:1.0;"/><text fill="#000000" font-family="sans-serif" font-size="14" lengthAdjust="spacing" textLength="135" x="1527" y="1056.4951">Integer pointsWon</text><line style="stroke:#181818;stroke-width:0.5;" x1="1508" x2="1798" y1="1063.7969" y2="1063.7969"/><ellipse cx="1518" cy="1077.4453" fill="#84BE84" rx="3" ry="3" style="stroke:#038048;stroke-width:1.0;"/><text fill="#000000" font-family="sans-serif" font-size="14" lengthAdjust="spacing" textLength="266" x="1527" y="1080.792">int getPoints(Point pos, PlayerBoard)</text></g><!--class PositionalObjectiveCard--><g id="elem_PositionalObjectiveCard"><rect codeLine="245" fill="#F1F1F1" height="80.5938" id="PositionalObjectiveCard" rx="2.5" ry="2.5" style="stroke:#181818;stroke-width:0.5;" width="325" x="1359.5" y="1262"/><ellipse cx="1431.25" cy="1278" fill="#ADD1B2" rx="11" ry="11" style="stroke:#181818;stroke-width:1.0;"/><path d="M1433.5938,1273.6719 C1432.6563,1273.2344 1432.0625,1273.0938 1431.1875,1273.0938 C1428.5625,1273.0938 1426.5625,1275.1719 1426.5625,1277.8906 L1426.5625,1279.0156 C1426.5625,1281.5938 1428.6719,1283.4844 1431.5625,1283.4844 C1432.7813,1283.4844 1433.9375,1283.1875 1434.6875,1282.6406 C1435.2656,1282.2344 1435.5938,1281.7813 1435.5938,1281.3906 C1435.5938,1280.9375 1435.2031,1280.5469 1434.7344,1280.5469 C1434.5156,1280.5469 1434.3125,1280.625 1434.125,1280.8125 C1433.6719,1281.2969 1433.6719,1281.2969 1433.4844,1281.3906 C1433.0625,1281.6563 1432.375,1281.7813 1431.6094,1281.7813 C1429.5625,1281.7813 1428.2656,1280.6875 1428.2656,1278.9844 L1428.2656,1277.8906 C1428.2656,1276.1094 1429.5156,1274.7969 1431.25,1274.7969 C1431.8281,1274.7969 1432.4375,1274.9531 1432.9063,1275.2031 C1433.3906,1275.4844 1433.5625,1275.7031 1433.6563,1276.1094 C1433.7188,1276.5156 1433.75,1276.6406 1433.8906,1276.7656 C1434.0313,1276.9063 1434.2656,1277.0156 1434.4844,1277.0156 C1434.75,1277.0156 1435.0156,1276.875 1435.1875,1276.6563 C1435.2969,1276.5 1435.3281,1276.3125 1435.3281,1275.8906 L1435.3281,1274.4688 C1435.3281,1274.0313 1435.3125,1273.9063 1435.2188,1273.75 C1435.0625,1273.4844 1434.7813,1273.3438 1434.4844,1273.3438 C1434.1875,1273.3438 1433.9844,1273.4375 1433.7656,1273.75 L1433.5938,1273.6719 Z " fill="#000000"/><text fill="#000000" font-family="sans-serif" font-size="14" lengthAdjust="spacing" textLength="173" x="1451.75" y="1282.8467">PositionalObjectiveCard</text><line style="stroke:#181818;stroke-width:0.5;" x1="1360.5" x2="1683.5" y1="1294" y2="1294"/><rect fill="none" height="6" style="stroke:#C82930;stroke-width:1.0;" width="6" x="1367.5" y="1304.6484"/><text fill="#000000" font-family="sans-serif" font-size="14" lengthAdjust="spacing" textLength="299" x="1379.5" y="1310.9951">ArrayList&lt;PositionalData&gt; positionalData</text><line style="stroke:#181818;stroke-width:0.5;" x1="1360.5" x2="1683.5" y1="1318.2969" y2="1318.2969"/><ellipse cx="1370.5" cy="1331.9453" fill="#84BE84" rx="3" ry="3" style="stroke:#038048;stroke-width:1.0;"/><text fill="#000000" font-family="sans-serif" font-size="14" lengthAdjust="spacing" textLength="266" x="1379.5" y="1335.292">int getPoints(Point pos, PlayerBoard)</text></g><!--class ItemObjectiveCard--><g id="elem_ItemObjectiveCard"><rect codeLine="227" fill="#F1F1F1" height="80.5938" id="ItemObjectiveCard" rx="2.5" ry="2.5" style="stroke:#181818;stroke-width:0.5;" width="292" x="1720" y="1262"/><ellipse cx="1793.25" cy="1278" fill="#ADD1B2" rx="11" ry="11" style="stroke:#181818;stroke-width:1.0;"/><path d="M1795.5938,1273.6719 C1794.6563,1273.2344 1794.0625,1273.0938 1793.1875,1273.0938 C1790.5625,1273.0938 1788.5625,1275.1719 1788.5625,1277.8906 L1788.5625,1279.0156 C1788.5625,1281.5938 1790.6719,1283.4844 1793.5625,1283.4844 C1794.7813,1283.4844 1795.9375,1283.1875 1796.6875,1282.6406 C1797.2656,1282.2344 1797.5938,1281.7813 1797.5938,1281.3906 C1797.5938,1280.9375 1797.2031,1280.5469 1796.7344,1280.5469 C1796.5156,1280.5469 1796.3125,1280.625 1796.125,1280.8125 C1795.6719,1281.2969 1795.6719,1281.2969 1795.4844,1281.3906 C1795.0625,1281.6563 1794.375,1281.7813 1793.6094,1281.7813 C1791.5625,1281.7813 1790.2656,1280.6875 1790.2656,1278.9844 L1790.2656,1277.8906 C1790.2656,1276.1094 1791.5156,1274.7969 1793.25,1274.7969 C1793.8281,1274.7969 1794.4375,1274.9531 1794.9063,1275.2031 C1795.3906,1275.4844 1795.5625,1275.7031 1795.6563,1276.1094 C1795.7188,1276.5156 1795.75,1276.6406 1795.8906,1276.7656 C1796.0313,1276.9063 1796.2656,1277.0156 1796.4844,1277.0156 C1796.75,1277.0156 1797.0156,1276.875 1797.1875,1276.6563 C1797.2969,1276.5 1797.3281,1276.3125 1797.3281,1275.8906 L1797.3281,1274.4688 C1797.3281,1274.0313 1797.3125,1273.9063 1797.2188,1273.75 C1797.0625,1273.4844 1796.7813,1273.3438 1796.4844,1273.3438 C1796.1875,1273.3438 1795.9844,1273.4375 1795.7656,1273.75 L1795.5938,1273.6719 Z " fill="#000000"/><text fill="#000000" font-family="sans-serif" font-size="14" lengthAdjust="spacing" textLength="137" x="1813.75" y="1282.8467">ItemObjectiveCard</text><line style="stroke:#181818;stroke-width:0.5;" x1="1721" x2="2011" y1="1294" y2="1294"/><rect fill="none" height="6" style="stroke:#C82930;stroke-width:1.0;" width="6" x="1728" y="1304.6484"/><text fill="#000000" font-family="sans-serif" font-size="14" lengthAdjust="spacing" textLength="190" x="1740" y="1310.9951">GameItemStore multiplier</text><line style="stroke:#181818;stroke-width:0.5;" x1="1721" x2="2011" y1="1318.2969" y2="1318.2969"/><ellipse cx="1731" cy="1331.9453" fill="#84BE84" rx="3" ry="3" style="stroke:#038048;stroke-width:1.0;"/><text fill="#000000" font-family="sans-serif" font-size="14" lengthAdjust="spacing" textLength="266" x="1740" y="1335.292">int getPoints(Point pos, PlayerBoard)</text></g><!--class PositionalData--><g id="elem_PositionalData"><rect codeLine="234" fill="#F1F1F1" height="162.0781" id="PositionalData" rx="2.5" ry="2.5" style="stroke:#181818;stroke-width:0.5;" width="257" x="1393.5" y="1492.5"/><ellipse cx="1465.75" cy="1508.5" fill="#ADD1B2" rx="11" ry="11" style="stroke:#181818;stroke-width:1.0;"/><path d="M1468.0938,1504.1719 C1467.1563,1503.7344 1466.5625,1503.5938 1465.6875,1503.5938 C1463.0625,1503.5938 1461.0625,1505.6719 1461.0625,1508.3906 L1461.0625,1509.5156 C1461.0625,1512.0938 1463.1719,1513.9844 1466.0625,1513.9844 C1467.2813,1513.9844 1468.4375,1513.6875 1469.1875,1513.1406 C1469.7656,1512.7344 1470.0938,1512.2813 1470.0938,1511.8906 C1470.0938,1511.4375 1469.7031,1511.0469 1469.2344,1511.0469 C1469.0156,1511.0469 1468.8125,1511.125 1468.625,1511.3125 C1468.1719,1511.7969 1468.1719,1511.7969 1467.9844,1511.8906 C1467.5625,1512.1563 1466.875,1512.2813 1466.1094,1512.2813 C1464.0625,1512.2813 1462.7656,1511.1875 1462.7656,1509.4844 L1462.7656,1508.3906 C1462.7656,1506.6094 1464.0156,1505.2969 1465.75,1505.2969 C1466.3281,1505.2969 1466.9375,1505.4531 1467.4063,1505.7031 C1467.8906,1505.9844 1468.0625,1506.2031 1468.1563,1506.6094 C1468.2188,1507.0156 1468.25,1507.1406 1468.3906,1507.2656 C1468.5313,1507.4063 1468.7656,1507.5156 1468.9844,1507.5156 C1469.25,1507.5156 1469.5156,1507.375 1469.6875,1507.1563 C1469.7969,1507 1469.8281,1506.8125 1469.8281,1506.3906 L1469.8281,1504.9688 C1469.8281,1504.5313 1469.8125,1504.4063 1469.7188,1504.25 C1469.5625,1503.9844 1469.2813,1503.8438 1468.9844,1503.8438 C1468.6875,1503.8438 1468.4844,1503.9375 1468.2656,1504.25 L1468.0938,1504.1719 Z " fill="#000000"/><text fill="#000000" font-family="sans-serif" font-size="14" lengthAdjust="spacing" textLength="104" x="1486.25" y="1513.3467">PositionalData</text><line style="stroke:#181818;stroke-width:0.5;" x1="1394.5" x2="1649.5" y1="1524.5" y2="1524.5"/><rect fill="none" height="6" style="stroke:#C82930;stroke-width:1.0;" width="6" x="1401.5" y="1535.1484"/><text fill="#000000" font-family="sans-serif" font-size="14" lengthAdjust="spacing" textLength="81" x="1413.5" y="1541.4951">Point point</text><rect fill="none" height="6" style="stroke:#C82930;stroke-width:1.0;" width="6" x="1401.5" y="1551.4453"/><text fill="#000000" font-family="sans-serif" font-size="14" lengthAdjust="spacing" textLength="144" x="1413.5" y="1557.792">CardColor cardColor</text><line style="stroke:#181818;stroke-width:0.5;" x1="1394.5" x2="1649.5" y1="1565.0938" y2="1565.0938"/><ellipse cx="1404.5" cy="1578.7422" fill="#84BE84" rx="3" ry="3" style="stroke:#038048;stroke-width:1.0;"/><text fill="#000000" font-family="sans-serif" font-size="14" lengthAdjust="spacing" textLength="115" x="1413.5" y="1582.0889">Point getPoint()</text><ellipse cx="1404.5" cy="1595.0391" fill="#84BE84" rx="3" ry="3" style="stroke:#038048;stroke-width:1.0;"/><text fill="#000000" font-family="sans-serif" font-size="14" lengthAdjust="spacing" textLength="181" x="1413.5" y="1598.3857">CardColor getCardColor()</text><ellipse cx="1404.5" cy="1611.3359" fill="#84BE84" rx="3" ry="3" style="stroke:#038048;stroke-width:1.0;"/><text fill="#000000" font-family="sans-serif" font-size="14" lengthAdjust="spacing" textLength="231" x="1413.5" y="1614.6826">GameItemEnum getGameItem()</text><ellipse cx="1404.5" cy="1627.6328" fill="#84BE84" rx="3" ry="3" style="stroke:#038048;stroke-width:1.0;"/><text fill="#000000" font-family="sans-serif" font-size="14" lengthAdjust="spacing" textLength="129" x="1413.5" y="1630.9795">void setPoint(x, y)</text><ellipse cx="1404.5" cy="1643.9297" fill="#84BE84" rx="3" ry="3" style="stroke:#038048;stroke-width:1.0;"/><text fill="#000000" font-family="sans-serif" font-size="14" lengthAdjust="spacing" textLength="209" x="1413.5" y="1647.2764">void setCardColor(CardColor)</text></g><!--class CornerPosition--><g id="elem_CornerPosition"><rect codeLine="252" fill="#F1F1F1" height="113.1875" id="CornerPosition" rx="2.5" ry="2.5" style="stroke:#181818;stroke-width:0.5;" width="139" x="1798.5" y="48"/><ellipse cx="1813.5" cy="64" fill="#EB937F" rx="11" ry="11" style="stroke:#181818;stroke-width:1.0;"/><path d="M1812.2969,64.875 L1813.75,64.875 L1813.75,64.9844 C1813.75,65.3906 1813.7813,65.5469 1813.8594,65.7031 C1814.0156,65.9531 1814.2969,66.1094 1814.5938,66.1094 C1814.8438,66.1094 1815.1094,65.9688 1815.2656,65.75 C1815.3906,65.5938 1815.4219,65.4375 1815.4219,64.9844 L1815.4219,63.0625 C1815.4219,62.9063 1815.4219,62.8594 1815.4063,62.7031 C1815.3438,62.2344 1815.0313,61.9219 1814.5781,61.9219 C1814.3281,61.9219 1814.0625,62.0625 1813.8906,62.2813 C1813.7813,62.4531 1813.75,62.6094 1813.75,63.0625 L1813.75,63.1875 L1812.2969,63.1875 L1812.2969,60.7813 L1816.2813,60.7813 L1816.2813,61.6406 C1816.2813,62.0469 1816.3125,62.2188 1816.3906,62.375 C1816.5625,62.625 1816.8438,62.7813 1817.125,62.7813 C1817.3906,62.7813 1817.6563,62.6406 1817.8281,62.4219 C1817.9375,62.25 1817.9688,62.1094 1817.9688,61.6406 L1817.9688,59.0938 L1810.3438,59.0938 C1809.9063,59.0938 1809.7813,59.1094 1809.625,59.2031 C1809.375,59.3594 1809.2188,59.6563 1809.2188,59.9375 C1809.2188,60.2188 1809.3594,60.4688 1809.5781,60.6406 C1809.7344,60.75 1809.9219,60.7813 1810.3438,60.7813 L1810.5938,60.7813 L1810.5938,67.2969 L1810.3438,67.2969 C1809.9375,67.2969 1809.7813,67.3125 1809.625,67.4219 C1809.375,67.5938 1809.2188,67.8594 1809.2188,68.1563 C1809.2188,68.4219 1809.3594,68.6719 1809.5781,68.8281 C1809.7188,68.9531 1809.9531,69 1810.3438,69 L1818.3438,69 L1818.3438,66.4219 C1818.3438,65.9844 1818.3125,65.8438 1818.2344,65.6875 C1818.0625,65.4375 1817.7813,65.2813 1817.5,65.2813 C1817.2344,65.2813 1816.9688,65.3906 1816.7969,65.6406 C1816.6875,65.7969 1816.6563,65.9375 1816.6563,66.4219 L1816.6563,67.2969 L1812.2969,67.2969 L1812.2969,64.875 Z " fill="#000000"/><text fill="#000000" font-family="sans-serif" font-size="14" lengthAdjust="spacing" textLength="107" x="1827.5" y="68.8467">CornerPosition</text><line style="stroke:#181818;stroke-width:0.5;" x1="1799.5" x2="1936.5" y1="80" y2="80"/><text fill="#000000" font-family="sans-serif" font-size="14" lengthAdjust="spacing" textLength="80" x="1804.5" y="96.9951">TOP_RIGHT</text><text fill="#000000" font-family="sans-serif" font-size="14" lengthAdjust="spacing" textLength="70" x="1804.5" y="113.292">TOP_LEFT</text><text fill="#000000" font-family="sans-serif" font-size="14" lengthAdjust="spacing" textLength="103" x="1804.5" y="129.5889">BOTTOM_LEFT</text><text fill="#000000" font-family="sans-serif" font-size="14" lengthAdjust="spacing" textLength="113" x="1804.5" y="145.8857">BOTTOM_RIGHT</text><line style="stroke:#181818;stroke-width:0.5;" x1="1799.5" x2="1936.5" y1="153.1875" y2="153.1875"/></g><!--class GameItemEnum--><g id="elem_GameItemEnum"><rect codeLine="259" fill="#F1F1F1" height="178.375" id="GameItemEnum" rx="2.5" ry="2.5" style="stroke:#181818;stroke-width:0.5;" width="148" x="1973" y="15.5"/><ellipse cx="1988" cy="31.5" fill="#EB937F" rx="11" ry="11" style="stroke:#181818;stroke-width:1.0;"/><path d="M1986.7969,32.375 L1988.25,32.375 L1988.25,32.4844 C1988.25,32.8906 1988.2813,33.0469 1988.3594,33.2031 C1988.5156,33.4531 1988.7969,33.6094 1989.0938,33.6094 C1989.3438,33.6094 1989.6094,33.4688 1989.7656,33.25 C1989.8906,33.0938 1989.9219,32.9375 1989.9219,32.4844 L1989.9219,30.5625 C1989.9219,30.4063 1989.9219,30.3594 1989.9063,30.2031 C1989.8438,29.7344 1989.5313,29.4219 1989.0781,29.4219 C1988.8281,29.4219 1988.5625,29.5625 1988.3906,29.7813 C1988.2813,29.9531 1988.25,30.1094 1988.25,30.5625 L1988.25,30.6875 L1986.7969,30.6875 L1986.7969,28.2813 L1990.7813,28.2813 L1990.7813,29.1406 C1990.7813,29.5469 1990.8125,29.7188 1990.8906,29.875 C1991.0625,30.125 1991.3438,30.2813 1991.625,30.2813 C1991.8906,30.2813 1992.1563,30.1406 1992.3281,29.9219 C1992.4375,29.75 1992.4688,29.6094 1992.4688,29.1406 L1992.4688,26.5938 L1984.8438,26.5938 C1984.4063,26.5938 1984.2813,26.6094 1984.125,26.7031 C1983.875,26.8594 1983.7188,27.1563 1983.7188,27.4375 C1983.7188,27.7188 1983.8594,27.9688 1984.0781,28.1406 C1984.2344,28.25 1984.4219,28.2813 1984.8438,28.2813 L1985.0938,28.2813 L1985.0938,34.7969 L1984.8438,34.7969 C1984.4375,34.7969 1984.2813,34.8125 1984.125,34.9219 C1983.875,35.0938 1983.7188,35.3594 1983.7188,35.6563 C1983.7188,35.9219 1983.8594,36.1719 1984.0781,36.3281 C1984.2188,36.4531 1984.4531,36.5 1984.8438,36.5 L1992.8438,36.5 L1992.8438,33.9219 C1992.8438,33.4844 1992.8125,33.3438 1992.7344,33.1875 C1992.5625,32.9375 1992.2813,32.7813 1992,32.7813 C1991.7344,32.7813 1991.4688,32.8906 1991.2969,33.1406 C1991.1875,33.2969 1991.1563,33.4375 1991.1563,33.9219 L1991.1563,34.7969 L1986.7969,34.7969 L1986.7969,32.375 Z " fill="#000000"/><text fill="#000000" font-family="sans-serif" font-size="14" lengthAdjust="spacing" textLength="116" x="2002" y="36.3467">GameItemEnum</text><line style="stroke:#181818;stroke-width:0.5;" x1="1974" x2="2120" y1="47.5" y2="47.5"/><text fill="#000000" font-family="sans-serif" font-size="14" lengthAdjust="spacing" textLength="46" x="1979" y="64.4951">PLANT</text><text fill="#000000" font-family="sans-serif" font-size="14" lengthAdjust="spacing" textLength="54" x="1979" y="80.792">ANIMAL</text><text fill="#000000" font-family="sans-serif" font-size="14" lengthAdjust="spacing" textLength="42" x="1979" y="97.0889">FUNGI</text><text fill="#000000" font-family="sans-serif" font-size="14" lengthAdjust="spacing" textLength="51" x="1979" y="113.3857">INSECT</text><text fill="#000000" font-family="sans-serif" font-size="14" lengthAdjust="spacing" textLength="40" x="1979" y="129.6826">QUILL</text><text fill="#000000" font-family="sans-serif" font-size="14" lengthAdjust="spacing" textLength="63" x="1979" y="145.9795">INKWELL</text><text fill="#000000" font-family="sans-serif" font-size="14" lengthAdjust="spacing" textLength="92" x="1979" y="162.2764">MANUSCRIPT</text><text fill="#000000" font-family="sans-serif" font-size="14" lengthAdjust="spacing" textLength="40" x="1979" y="178.5732">NONE</text><line style="stroke:#181818;stroke-width:0.5;" x1="1974" x2="2120" y1="185.875" y2="185.875"/></g><!--class CardColor--><g id="elem_CardColor"><rect codeLine="270" fill="#F1F1F1" height="129.4844" id="CardColor" rx="2.5" ry="2.5" style="stroke:#181818;stroke-width:0.5;" width="103" x="1816.5" y="327.5"/><ellipse cx="1831.5" cy="343.5" fill="#EB937F" rx="11" ry="11" style="stroke:#181818;stroke-width:1.0;"/><path d="M1830.2969,344.375 L1831.75,344.375 L1831.75,344.4844 C1831.75,344.8906 1831.7813,345.0469 1831.8594,345.2031 C1832.0156,345.4531 1832.2969,345.6094 1832.5938,345.6094 C1832.8438,345.6094 1833.1094,345.4688 1833.2656,345.25 C1833.3906,345.0938 1833.4219,344.9375 1833.4219,344.4844 L1833.4219,342.5625 C1833.4219,342.4063 1833.4219,342.3594 1833.4063,342.2031 C1833.3438,341.7344 1833.0313,341.4219 1832.5781,341.4219 C1832.3281,341.4219 1832.0625,341.5625 1831.8906,341.7813 C1831.7813,341.9531 1831.75,342.1094 1831.75,342.5625 L1831.75,342.6875 L1830.2969,342.6875 L1830.2969,340.2813 L1834.2813,340.2813 L1834.2813,341.1406 C1834.2813,341.5469 1834.3125,341.7188 1834.3906,341.875 C1834.5625,342.125 1834.8438,342.2813 1835.125,342.2813 C1835.3906,342.2813 1835.6563,342.1406 1835.8281,341.9219 C1835.9375,341.75 1835.9688,341.6094 1835.9688,341.1406 L1835.9688,338.5938 L1828.3438,338.5938 C1827.9063,338.5938 1827.7813,338.6094 1827.625,338.7031 C1827.375,338.8594 1827.2188,339.1563 1827.2188,339.4375 C1827.2188,339.7188 1827.3594,339.9688 1827.5781,340.1406 C1827.7344,340.25 1827.9219,340.2813 1828.3438,340.2813 L1828.5938,340.2813 L1828.5938,346.7969 L1828.3438,346.7969 C1827.9375,346.7969 1827.7813,346.8125 1827.625,346.9219 C1827.375,347.0938 1827.2188,347.3594 1827.2188,347.6563 C1827.2188,347.9219 1827.3594,348.1719 1827.5781,348.3281 C1827.7188,348.4531 1827.9531,348.5 1828.3438,348.5 L1836.3438,348.5 L1836.3438,345.9219 C1836.3438,345.4844 1836.3125,345.3438 1836.2344,345.1875 C1836.0625,344.9375 1835.7813,344.7813 1835.5,344.7813 C1835.2344,344.7813 1834.9688,344.8906 1834.7969,345.1406 C1834.6875,345.2969 1834.6563,345.4375 1834.6563,345.9219 L1834.6563,346.7969 L1830.2969,346.7969 L1830.2969,344.375 Z " fill="#000000"/><text fill="#000000" font-family="sans-serif" font-size="14" lengthAdjust="spacing" textLength="71" x="1845.5" y="348.3467">CardColor</text><line style="stroke:#181818;stroke-width:0.5;" x1="1817.5" x2="1918.5" y1="359.5" y2="359.5"/><text fill="#000000" font-family="sans-serif" font-size="14" lengthAdjust="spacing" textLength="28" x="1822.5" y="376.4951">Red</text><text fill="#000000" font-family="sans-serif" font-size="14" lengthAdjust="spacing" textLength="31" x="1822.5" y="392.792">Blue</text><text fill="#000000" font-family="sans-serif" font-size="14" lengthAdjust="spacing" textLength="44" x="1822.5" y="409.0889">Green</text><text fill="#000000" font-family="sans-serif" font-size="14" lengthAdjust="spacing" textLength="46" x="1822.5" y="425.3857">Purple</text><text fill="#000000" font-family="sans-serif" font-size="14" lengthAdjust="spacing" textLength="52" x="1822.5" y="441.6826">Neutral</text><line style="stroke:#181818;stroke-width:0.5;" x1="1817.5" x2="1918.5" y1="448.9844" y2="448.9844"/></g><!--reverse link GameManager to Game--><g id="link_GameManager_Game"><path codeLine="12" d="M1496,214.16 C1496,233.33 1496,241.74 1496,261.79 " fill="none" id="GameManager-backto-Game" style="stroke:#181818;stroke-width:1.0;"/><polygon fill="#181818" points="1496,202.16,1492,208.16,1496,214.16,1500,208.16,1496,202.16" style="stroke:#181818;stroke-width:1.0;"/><text fill="#000000" font-family="sans-serif" font-size="13" lengthAdjust="spacing" textLength="25" x="1470.1211" y="221.6372">1..N</text><text fill="#000000" font-family="sans-serif" font-size="13" lengthAdjust="spacing" textLength="8" x="1487.7688" y="250.9034">1</text></g><!--reverse link Game to Player--><g id="link_Game_Player"><path codeLine="34" d="M1425.0444,532.7183 C1408.3844,565.5083 1395.99,589.93 1379.54,622.32 " fill="none" id="Game-backto-Player" style="stroke:#181818;stroke-width:1.0;"/><polygon fill="#181818" points="1430.48,522.02,1424.1961,525.5573,1425.0444,532.7183,1431.3283,529.181,1430.48,522.02" style="stroke:#181818;stroke-width:1.0;"/><text fill="#000000" font-family="sans-serif" font-size="13" lengthAdjust="spacing" textLength="24" x="1401.9984" y="542.0452">2..4</text><text fill="#000000" font-family="sans-serif" font-size="13" lengthAdjust="spacing" textLength="8" x="1375.0463" y="611.5019">1</text></g><!--reverse link Game to GlobalBoard--><g id="link_Game_GlobalBoard"><path codeLine="35" d="M1566.9566,532.7178 C1576.8766,552.2378 1581.77,561.88 1591.97,581.98 " fill="none" id="Game-backto-GlobalBoard" style="stroke:#181818;stroke-width:1.0;"/><polygon fill="#181818" points="1561.52,522.02,1560.6724,529.1811,1566.9566,532.7178,1567.8042,525.5567,1561.52,522.02" style="stroke:#181818;stroke-width:1.0;"/><text fill="#000000" font-family="sans-serif" font-size="13" lengthAdjust="spacing" textLength="8" x="1557.0766" y="542.0452">1</text><text fill="#000000" font-family="sans-serif" font-size="13" lengthAdjust="spacing" textLength="8" x="1579.8029" y="570.8136">1</text></g><!--reverse link GlobalBoard to Deck--><g id="link_GlobalBoard_Deck"><path codeLine="58" d="M1810.2525,916.6694 C1834.3825,946.9894 1850.57,967.31 1869.81,991.49 " fill="none" id="GlobalBoard-backto-Deck" style="stroke:#181818;stroke-width:1.0;"/><polygon fill="#181818" points="1802.78,907.28,1803.3865,914.4656,1810.2525,916.6694,1809.6461,909.4839,1802.78,907.28" style="stroke:#181818;stroke-width:1.0;"/><text fill="#000000" font-family="sans-serif" font-size="13" lengthAdjust="spacing" textLength="8" x="1800.4341" y="927.0647">3</text><text fill="#000000" font-family="sans-serif" font-size="13" lengthAdjust="spacing" textLength="8" x="1855.6357" y="980.3521">1</text></g><!--reverse link Player to PlayerBoard--><g id="link_Player_PlayerBoard"><path codeLine="77" d="M1176.2822,864.851 C1133.0822,901.241 1095.17,933.16 1055.26,966.77 " fill="none" id="Player-backto-PlayerBoard" style="stroke:#181818;stroke-width:1.0;"/><polygon fill="#181818" points="1185.46,857.12,1178.2941,857.9262,1176.2822,864.851,1183.4481,864.0448,1185.46,857.12" style="stroke:#181818;stroke-width:1.0;"/><text fill="#000000" font-family="sans-serif" font-size="13" lengthAdjust="spacing" textLength="8" x="1169.5663" y="860.2806">1</text><text fill="#000000" font-family="sans-serif" font-size="13" lengthAdjust="spacing" textLength="8" x="1055.3878" y="955.9368">1</text></g><!--reverse link Player to Hand--><g id="link_Player_Hand"><path codeLine="94" d="M1318,878.83 C1318,921.86 1318,956.23 1318,991.14 " fill="none" id="Player-backto-Hand" style="stroke:#181818;stroke-width:1.0;"/><polygon fill="#181818" points="1318,866.83,1314,872.83,1318,878.83,1322,872.83,1318,866.83" style="stroke:#181818;stroke-width:1.0;"/><text fill="#000000" font-family="sans-serif" font-size="13" lengthAdjust="spacing" textLength="8" x="1309.7813" y="886.0126">1</text><text fill="#000000" font-family="sans-serif" font-size="13" lengthAdjust="spacing" textLength="8" x="1309.5125" y="980.3597">1</text></g><!--reverse link PlayerBoard to GameCard--><g id="link_PlayerBoard_GameCard"><path codeLine="106" d="M856.1456,1136.9975 C833.7346,1155.9865 818.58,1168.827 794.825,1188.955 " fill="none" id="PlayerBoard-backto-GameCard" style="stroke:#181818;stroke-width:1.0;"/><polygon fill="#181818" points="865.301,1129.24,858.1375,1130.0669,856.1456,1136.9975,863.3091,1136.1705,865.301,1129.24" style="stroke:#181818;stroke-width:1.0;"/><text fill="#000000" font-family="sans-serif" font-size="13" lengthAdjust="spacing" textLength="25" x="830.7536" y="1149.2127">1..N</text><text fill="#000000" font-family="sans-serif" font-size="13" lengthAdjust="spacing" textLength="8" x="795.4804" y="1177.8847">1</text></g><!--reverse link Store to GameItemStore--><g id="link_Store_GameItemStore"><path d="M1038.3708,1393.4194 C1045.3008,1443.8424 1051.85,1491.471 1057.53,1532.745 " fill="none" id="Store-backto-GameItemStore" style="stroke:#181818;stroke-width:1.0;"/><polygon fill="none" points="1035.92,1375.587,1032.4267,1394.2363,1044.315,1392.6024,1035.92,1375.587" style="stroke:#181818;stroke-width:1.0;"/></g><!--reverse link PlayerBoard to Store--><g id="link_PlayerBoard_Store"><path codeLine="123" d="M984.0078,1140.8499 C992.3878,1172.9079 998.931,1197.941 1007.09,1229.166 " fill="none" id="PlayerBoard-backto-Store" style="stroke:#181818;stroke-width:1.0;"/><polygon fill="#181818" points="980.973,1129.24,978.6205,1136.0566,984.0078,1140.8499,986.3604,1134.0333,980.973,1129.24" style="stroke:#181818;stroke-width:1.0;"/><text fill="#000000" font-family="sans-serif" font-size="13" lengthAdjust="spacing" textLength="8" x="974.4847" y="1149.2127">2</text><text fill="#000000" font-family="sans-serif" font-size="13" lengthAdjust="spacing" textLength="8" x="996.9097" y="1218.5452">1</text></g><!--reverse link GameCard to Side--><g id="link_GameCard_Side"><path codeLine="141" d="M653.2067,1427.9922 C651.8037,1447.8602 651.199,1456.415 649.83,1475.8 " fill="none" id="GameCard-backto-Side" style="stroke:#181818;stroke-width:1.0;"/><polygon fill="#181818" points="654.052,1416.022,649.6393,1421.7253,653.2067,1427.9922,657.6194,1422.2889,654.052,1416.022" style="stroke:#181818;stroke-width:1.0;"/><text fill="#000000" font-family="sans-serif" font-size="13" lengthAdjust="spacing" textLength="8" x="645.2492" y="1436.2156">2</text><text fill="#000000" font-family="sans-serif" font-size="13" lengthAdjust="spacing" textLength="8" x="642.0467" y="1464.8302">1</text></g><!--reverse link Side to Front--><g id="link_Side_Front"><path codeLine="155" d="M484.1625,1681.3629 C445.2665,1707.5319 419.804,1724.662 386.883,1746.811 " fill="none" id="Side-backto-Front" style="stroke:#181818;stroke-width:1.0;"/><polygon fill="none" points="499.097,1671.315,480.8132,1676.3847,487.5118,1686.341,499.097,1671.315" style="stroke:#181818;stroke-width:1.0;"/></g><!--reverse link Side to Back--><g id="link_Side_Back"><path codeLine="156" d="M643,1689.315 C643,1715.484 643,1724.662 643,1746.811 " fill="none" id="Side-backto-Back" style="stroke:#181818;stroke-width:1.0;"/><polygon fill="none" points="643,1671.315,637,1689.315,649,1689.315,643,1671.315" style="stroke:#181818;stroke-width:1.0;"/></g><!--reverse link Side to Corner--><g id="link_Side_Corner"><path codeLine="157" d="M789.2081,1678.26 C817.6351,1698.434 837.121,1712.264 863.341,1730.871 " fill="none" id="Side-backto-Corner" style="stroke:#181818;stroke-width:1.0;"/><polygon fill="#181818" points="779.422,1671.315,782.0001,1678.0495,789.2081,1678.26,786.63,1671.5255,779.422,1671.315" style="stroke:#181818;stroke-width:1.0;"/><text fill="#000000" font-family="sans-serif" font-size="13" lengthAdjust="spacing" textLength="24" x="764.1704" y="1690.8031">1..4</text><text fill="#000000" font-family="sans-serif" font-size="13" lengthAdjust="spacing" textLength="8" x="845.097" y="1720.0296">1</text></g><!--reverse link Front to FrontGoldCard--><g id="link_Front_FrontGoldCard"><path codeLine="185" d="M316,1862.085 C316,1886.14 316,1896.994 316,1919.834 " fill="none" id="Front-backto-FrontGoldCard" style="stroke:#181818;stroke-width:1.0;"/><polygon fill="none" points="316,1844.085,310,1862.085,322,1862.085,316,1844.085" style="stroke:#181818;stroke-width:1.0;"/></g><!--reverse link FrontGoldCard to FrontPositionalGoldCard--><g id="link_FrontGoldCard_FrontPositionalGoldCard"><path codeLine="192" d="M255.5947,2013.0116 C230.1947,2034.6716 212.94,2049.3853 189.357,2069.4962 " fill="none" id="FrontGoldCard-backto-FrontPositionalGoldCard" style="stroke:#181818;stroke-width:1.0;"/><polygon fill="none" points="269.291,2001.332,251.7015,2008.4461,259.4879,2017.577,269.291,2001.332" style="stroke:#181818;stroke-width:1.0;"/></g><!--reverse link FrontGoldCard to FrontItemGoldCard--><g id="link_FrontGoldCard_FrontItemGoldCard"><path codeLine="193" d="M376.7275,2012.9702 C398.7815,2031.6622 411.262,2042.2405 433.281,2060.9028 " fill="none" id="FrontGoldCard-backto-FrontItemGoldCard" style="stroke:#181818;stroke-width:1.0;"/><polygon fill="none" points="362.996,2001.332,372.8481,2017.5473,380.6068,2008.393,362.996,2001.332" style="stroke:#181818;stroke-width:1.0;"/></g><!--reverse link Player to ObjectiveCard--><g id="link_Player_ObjectiveCard"><path codeLine="223" d="M1434.7542,875.4058 C1448.4242,889.3058 1454.09,894.43 1468,907 C1508.48,943.6 1557.94,980.68 1595.53,1007.47 " fill="none" id="Player-backto-ObjectiveCard" style="stroke:#181818;stroke-width:1.0;"/><polygon fill="#181818" points="1426.34,866.85,1427.6952,873.9326,1434.7542,875.4058,1433.399,868.3232,1426.34,866.85" style="stroke:#181818;stroke-width:1.0;"/></g><!--reverse link GlobalBoard to ObjectiveCard--><g id="link_GlobalBoard_ObjectiveCard"><path codeLine="224" d="M1661.8956,919.251 C1659.2956,956.551 1657.6,980.97 1655.77,1007.26 " fill="none" id="GlobalBoard-backto-ObjectiveCard" style="stroke:#181818;stroke-width:1.0;"/><polygon fill="#181818" points="1662.73,907.28,1658.3225,912.9873,1661.8956,919.251,1666.3031,913.5436,1662.73,907.28" style="stroke:#181818;stroke-width:1.0;"/></g><!--reverse link ObjectiveCard to PositionalObjectiveCard--><g id="link_ObjectiveCard_PositionalObjectiveCard"><path codeLine="225" d="M1624.1001,1104.7074 C1599.6001,1151.9274 1567.25,1214.283 1542.71,1261.584 " fill="none" id="ObjectiveCard-backto-PositionalObjectiveCard" style="stroke:#181818;stroke-width:1.0;"/><polygon fill="none" points="1632.39,1088.73,1618.7743,1101.9441,1629.426,1107.4707,1632.39,1088.73" style="stroke:#181818;stroke-width:1.0;"/></g><!--reverse link ObjectiveCard to ItemObjectiveCard--><g id="link_ObjectiveCard_ItemObjectiveCard"><path codeLine="232" d="M1698.1257,1102.489 C1737.9557,1149.709 1792.43,1214.283 1832.33,1261.584 " fill="none" id="ObjectiveCard-backto-ItemObjectiveCard" style="stroke:#181818;stroke-width:1.0;"/><polygon fill="none" points="1686.52,1088.73,1693.5393,1106.3575,1702.712,1098.6204,1686.52,1088.73" style="stroke:#181818;stroke-width:1.0;"/></g><!--reverse link PositionalObjectiveCard to PositionalData--><g id="link_PositionalObjectiveCard_PositionalData"><path codeLine="243" d="M1522,1355.192 C1522,1394.286 1522,1443.123 1522,1492.312 " fill="none" id="PositionalObjectiveCard-backto-PositionalData" style="stroke:#181818;stroke-width:1.0;"/><polygon fill="#181818" points="1522,1343.192,1518,1349.192,1522,1355.192,1526,1349.192,1522,1343.192" style="stroke:#181818;stroke-width:1.0;"/><text fill="#000000" font-family="sans-serif" font-size="13" lengthAdjust="spacing" textLength="25" x="1495.0859" y="1362.6796">1..N</text><text fill="#000000" font-family="sans-serif" font-size="13" lengthAdjust="spacing" textLength="8" x="1513.6438" y="1481.4826">1</text></g><!--SRC=[pLZDKXmt4BxFKwZ8WKrOatAIMnogO0tBbc4XxBfyJ8cPPf4pEzgIDDZWy2uvvZtyOcdzIpEp1YSvn5K6ITtJlr-tMfGrbP9CwHhEQKDN8CYdWk2_5uT2qFip9jKhJJmWA_mfXqWJAge3Ki4DRMirvNNr6ihVdsIy0ibRKS8GyyNrUoWLkyk_2AVFahzGL2WGWNUlvmyelP2ZRorTRqWfW2hGoz522TQiZDjp_3ych56akQpfFGWv9ewyCNlDuCHKKCEmX5JFUywQOIq3SX-BD3qxB_VtvplaknSlSBbZCbSKPSYYJrz7i3rCNUX6q1uVECsEFAtvDQsFE4QMhEBQ4kqNf6o5W4RPdVNHAxSXrlfzbFlwaCbPv7cSt40OROjrPXtgYbilYbQLa-64MXazHNFuw9KvsZNdDT26C6cHL7tHWtUiQSotZqNHS0MaXXj5-8rDpnIaOhm1icAyf8eBHW3Xn1uO__w6uVa6DJ152sWgeZylJCR9pW_x-p_5LBi8MzBB1099OZmIaiWuGEXAICfabHLgXoXwnMaOEdN9-mNPaICxHRYznYsumk4N6iqDWxhIRKPld-BpNIRoxdNZ0A5d-GptET9cbN5rlO2yIssNcBIdFh3wKgUTyFI_oQIVP35w3dCMg7uD-10ThpVglazEuvEnL89-q29F15yRFIElcfJumzJBRWfMWfWccVz5IjxvCSBUeChXtLMoXVhkAIKr9RAbxjnyE_PdjxJ13QjnmqdJha5mKZ4YcEH20g5AjRHcWNt3fIvKh5BPraJHQwXhlGClWbypK6WjtyywR-nMiVVQiqikqmPgFTl4jILcGOYrDWaCf-Y7SSQ6EhJBjDs6mwmhXbEqf7UcnIQ7cHd-N7RFirtelNUqAI5gqX6G2ZRICkpEG-mtc4Ec5sNB2CNF7gW0ZGsNrxJR9Vxux9loMXxq9vUb7WTyxxb2n_YQ2FFhvow4CzWkYGQkRUTEXudsf-tj9YPYIvdvJOZu7MSLmGlA1D1JKvg0DNVnZUJXe6Zhybh8UlyfbRVdTFFg4iSEDIRHhXxgD6ccOBt0MmhCzA1thdLURFGrHkjXnqP6khzQzJgb8W2O_hhhwNEZDMiKhEnbxMqyNFEsKIE_JKCdksP5fvCGkfxI7wWc2RXC92Awll6nN8w9iqdVSyWJIcQq92eMYju5LdVC6XmqrpWq3H4HiTk9UbRXZG7h6xYN5g9n-ekfmu46fmbdlhDzBsD91zzuwDtpfucN0GssBh8O_X03QEGKHMhM9C7YWbNWPqQzJawvkWKHp_GDCU4r5oIit7YfcJ4IaoWbAohvWQdoDZsU157wCx_nr83h2HSunXre7hCQsLyUkvs07UFbeP5ccIPOgmB7n2z-uiegOZZBX2iP0rXfSQkldt5Qqji4pW4gg5AHZtQAdFJoemDSq6kf12qLSIZN8NK8xuP3ySqLMzsghTGp77Q7YTTSARv-YXwbxpqH-lzrj4qCN_s1OSPnfr79_eZY9MIskjaa8xqrtvUAtRaqO074sycvwmaP0drP5ewQupFntZa-Y60RpS1mrBiNaQAB7d-PzurDd7xXE1VqPtEeiLGbnxUDkSdRnhlq-IzortB5nuJYz2IedhRmaGxYyvzutwDkafdq2vbVp8-Dp8L-ATr1QSOj9wtX3G69TmQOEGvTH4dwqOAFg9PfcHvd-v1SwoWAPphi9OfgWpQCFZnGHST4ibN3RbY9n5imqYkuusGZW9TbYu-pjHbEQ5c2HE-ejsD0Itp1xHeGcAGlz6p46vzcG_35Pb6d8HWAu5-W5LDafKSO-cT0fjqVUYjoW3S1tT6eGSJdig9ENu-q3jgtiMg9qSJKnhuGVuqzltAJ0QwdpLz86VBMY4gsgPd_IyQpmxwhQtmes_fyECp-bVrVPNutVp84EpgjFkToJoOoqU_H-9QnzlgXomBq7GhxEelSfAgxNQurUzJro4NERC0IqP2pkYZhg0qvrXbe_t5w1opggGm3U33rDRONRuWNZZ_jmMJRU1DcPxDutWZpHCyFKx4L-N5CxZk4A36ijEDRmjuTcdEN-u4OJ4tobxJiymFpvax4VMKPc1W4z8FUvME2Cs1vSVdRrMnwkWoxi-CJkpcwM2ulpdjxo_teX6Onjo8lpmxdzel3-UpyyCmiJzxEfpEpciqNnnDB__NjxEpC7RvvT-pMvuVpjul9rUpICfbRqAkB0B2whjmyS5ItTc2U2W1RePUjsDJWxkGMYxyk7ly6]--></g></svg>