<?xml version="1.0" encoding="us-ascii" standalone="no"?><svg xmlns="http://www.w3.org/2000/svg" xmlns:xlink="http://www.w3.org/1999/xlink" contentStyleType="text/css" height="408px" preserveAspectRatio="none" style="width:1973px;height:408px;background:#FFFFFF;" version="1.1" viewBox="0 0 1973 408" width="1973px" zoomAndPan="magnify"><defs/><g><!--class ServerNetworkMessage--><g id="elem_ServerNetworkMessage"><rect codeLine="1" fill="#F1F1F1" height="96.8906" id="ServerNetworkMessage" rx="2.5" ry="2.5" style="stroke:#181818;stroke-width:0.5;" width="196" x="238.5" y="7"/><ellipse cx="253.5" cy="23" fill="#A9DCDF" rx="11" ry="11" style="stroke:#181818;stroke-width:1.0;"/><path d="M253.6094,18.3438 L252.4531,23.4219 L254.7813,23.4219 L253.6094,18.3438 Z M252.125,16.1094 L255.1094,16.1094 L258.4688,28.5 L256.0156,28.5 L255.25,25.4375 L251.9688,25.4375 L251.2188,28.5 L248.7813,28.5 L252.125,16.1094 Z " fill="#000000"/><text fill="#000000" font-family="sans-serif" font-size="14" font-style="italic" lengthAdjust="spacing" textLength="164" x="267.5" y="27.8467">ServerNetworkMessage</text><line style="stroke:#181818;stroke-width:0.5;" x1="239.5" x2="433.5" y1="39" y2="39"/><rect fill="none" height="6" style="stroke:#C82930;stroke-width:1.0;" width="6" x="246.5" y="49.6484"/><text fill="#000000" font-family="sans-serif" font-size="14" lengthAdjust="spacing" textLength="92" x="258.5" y="55.9951">status: String</text><line style="stroke:#181818;stroke-width:0.5;" x1="239.5" x2="433.5" y1="63.2969" y2="63.2969"/><ellipse cx="249.5" cy="76.9453" fill="#84BE84" rx="3" ry="3" style="stroke:#038048;stroke-width:1.0;"/><text fill="#000000" font-family="sans-serif" font-size="14" lengthAdjust="spacing" textLength="126" x="258.5" y="80.292">getStatus(): String</text><ellipse cx="249.5" cy="93.2422" fill="#84BE84" rx="3" ry="3" style="stroke:#038048;stroke-width:1.0;"/><text fill="#000000" font-family="sans-serif" font-size="14" lengthAdjust="spacing" textLength="113" x="258.5" y="96.5889">setStatus(): void</text></g><!--class ErrorMessage--><g id="elem_ErrorMessage"><rect codeLine="7" fill="#F1F1F1" height="96.8906" id="ErrorMessage" rx="2.5" ry="2.5" style="stroke:#181818;stroke-width:0.5;" width="171" x="7" y="163.9"/><ellipse cx="41.35" cy="179.9" fill="#ADD1B2" rx="11" ry="11" style="stroke:#181818;stroke-width:1.0;"/><path d="M44.3188,185.5406 Q43.7406,185.8375 43.1,185.9781 Q42.4594,186.1344 41.7563,186.1344 Q39.2563,186.1344 37.9281,184.4938 Q36.6156,182.8375 36.6156,179.7125 Q36.6156,176.5875 37.9281,174.9313 Q39.2563,173.275 41.7563,173.275 Q42.4594,173.275 43.1,173.4313 Q43.7563,173.5875 44.3188,173.8844 L44.3188,176.6031 Q43.6938,176.025 43.1,175.7594 Q42.5063,175.4781 41.8813,175.4781 Q40.5375,175.4781 39.85,176.5563 Q39.1625,177.6188 39.1625,179.7125 Q39.1625,181.8063 39.85,182.8844 Q40.5375,183.9469 41.8813,183.9469 Q42.5063,183.9469 43.1,183.6813 Q43.6938,183.4 44.3188,182.8219 L44.3188,185.5406 Z " fill="#000000"/><text fill="#000000" font-family="sans-serif" font-size="14" lengthAdjust="spacing" textLength="96" x="59.65" y="184.7467">ErrorMessage</text><line style="stroke:#181818;stroke-width:0.5;" x1="8" x2="177" y1="195.9" y2="195.9"/><rect fill="none" height="6" style="stroke:#C82930;stroke-width:1.0;" width="6" x="15" y="206.5484"/><text fill="#000000" font-family="sans-serif" font-size="14" lengthAdjust="spacing" textLength="113" x="27" y="212.8951">message: String</text><line style="stroke:#181818;stroke-width:0.5;" x1="8" x2="177" y1="220.1969" y2="220.1969"/><ellipse cx="18" cy="233.8453" fill="#84BE84" rx="3" ry="3" style="stroke:#038048;stroke-width:1.0;"/><text fill="#000000" font-family="sans-serif" font-size="14" lengthAdjust="spacing" textLength="145" x="27" y="237.192">getMessage(): String</text><ellipse cx="18" cy="250.1422" fill="#84BE84" rx="3" ry="3" style="stroke:#038048;stroke-width:1.0;"/><text fill="#000000" font-family="sans-serif" font-size="14" lengthAdjust="spacing" textLength="132" x="27" y="253.4889">setMessage(): void</text></g><!--class GetGamesMessage--><g id="elem_GetGamesMessage"><rect codeLine="13" fill="#F1F1F1" height="64.2969" id="GetGamesMessage" rx="2.5" ry="2.5" style="stroke:#181818;stroke-width:0.5;" width="249" x="495" y="180.19"/><ellipse cx="546.75" cy="196.19" fill="#ADD1B2" rx="11" ry="11" style="stroke:#181818;stroke-width:1.0;"/><path d="M549.7188,201.8306 Q549.1406,202.1275 548.5,202.2681 Q547.8594,202.4244 547.1563,202.4244 Q544.6563,202.4244 543.3281,200.7838 Q542.0156,199.1275 542.0156,196.0025 Q542.0156,192.8775 543.3281,191.2213 Q544.6563,189.565 547.1563,189.565 Q547.8594,189.565 548.5,189.7213 Q549.1563,189.8775 549.7188,190.1744 L549.7188,192.8931 Q549.0938,192.315 548.5,192.0494 Q547.9063,191.7681 547.2813,191.7681 Q545.9375,191.7681 545.25,192.8463 Q544.5625,193.9088 544.5625,196.0025 Q544.5625,198.0963 545.25,199.1744 Q545.9375,200.2369 547.2813,200.2369 Q547.9063,200.2369 548.5,199.9713 Q549.0938,199.69 549.7188,199.1119 L549.7188,201.8306 Z " fill="#000000"/><text fill="#000000" font-family="sans-serif" font-size="14" lengthAdjust="spacing" textLength="137" x="567.25" y="201.0367">GetGamesMessage</text><line style="stroke:#181818;stroke-width:0.5;" x1="496" x2="743" y1="212.19" y2="212.19"/><rect fill="none" height="6" style="stroke:#C82930;stroke-width:1.0;" width="6" x="503" y="222.8384"/><text fill="#000000" font-family="sans-serif" font-size="14" lengthAdjust="spacing" textLength="223" x="515" y="229.1851">ArrayList&lt;GameRecord&gt; games</text><line style="stroke:#181818;stroke-width:0.5;" x1="496" x2="743" y1="236.4869" y2="236.4869"/></g><!--class GameRecord--><g id="elem_GameRecord"><rect codeLine="16" fill="#F1F1F1" height="96.8906" id="GameRecord" rx="2.5" ry="2.5" style="stroke:#181818;stroke-width:0.5;" width="177" x="531" y="7"/><ellipse cx="570.3" cy="23" fill="#ADD1B2" rx="11" ry="11" style="stroke:#181818;stroke-width:1.0;"/><path d="M573.2688,28.6406 Q572.6906,28.9375 572.05,29.0781 Q571.4094,29.2344 570.7063,29.2344 Q568.2063,29.2344 566.8781,27.5938 Q565.5656,25.9375 565.5656,22.8125 Q565.5656,19.6875 566.8781,18.0313 Q568.2063,16.375 570.7063,16.375 Q571.4094,16.375 572.05,16.5313 Q572.7063,16.6875 573.2688,16.9844 L573.2688,19.7031 Q572.6438,19.125 572.05,18.8594 Q571.4563,18.5781 570.8313,18.5781 Q569.4875,18.5781 568.8,19.6563 Q568.1125,20.7188 568.1125,22.8125 Q568.1125,24.9063 568.8,25.9844 Q569.4875,27.0469 570.8313,27.0469 Q571.4563,27.0469 572.05,26.7813 Q572.6438,26.5 573.2688,25.9219 L573.2688,28.6406 Z " fill="#000000"/><text fill="#000000" font-family="sans-serif" font-size="14" lengthAdjust="spacing" textLength="91" x="589.7" y="27.8467">GameRecord</text><line style="stroke:#181818;stroke-width:0.5;" x1="532" x2="707" y1="39" y2="39"/><rect fill="none" height="6" style="stroke:#C82930;stroke-width:1.0;" width="6" x="539" y="49.6484"/><text fill="#000000" font-family="sans-serif" font-size="14" lengthAdjust="spacing" textLength="123" x="551" y="55.9951">String gameName</text><rect fill="none" height="6" style="stroke:#C82930;stroke-width:1.0;" width="6" x="539" y="65.9453"/><text fill="#000000" font-family="sans-serif" font-size="14" lengthAdjust="spacing" textLength="112" x="551" y="72.292">int joinedPlayers</text><rect fill="none" height="6" style="stroke:#C82930;stroke-width:1.0;" width="6" x="539" y="82.2422"/><text fill="#000000" font-family="sans-serif" font-size="14" lengthAdjust="spacing" textLength="151" x="551" y="88.5889">int maxAllowedPlayers</text><line style="stroke:#181818;stroke-width:0.5;" x1="532" x2="707" y1="95.8906" y2="95.8906"/></g><!--class ViewUpdateMessage--><g id="elem_ViewUpdateMessage"><rect codeLine="23" fill="#F1F1F1" height="64.2969" id="ViewUpdateMessage" rx="2.5" ry="2.5" style="stroke:#181818;stroke-width:0.5;" width="246" x="213.5" y="180.19"/><ellipse cx="259.75" cy="196.19" fill="#A9DCDF" rx="11" ry="11" style="stroke:#181818;stroke-width:1.0;"/><path d="M259.8594,191.5338 L258.7031,196.6119 L261.0313,196.6119 L259.8594,191.5338 Z M258.375,189.2994 L261.3594,189.2994 L264.7188,201.69 L262.2656,201.69 L261.5,198.6275 L258.2188,198.6275 L257.4688,201.69 L255.0313,201.69 L258.375,189.2994 Z " fill="#000000"/><text fill="#000000" font-family="sans-serif" font-size="14" font-style="italic" lengthAdjust="spacing" textLength="145" x="280.25" y="201.0367">ViewUpdateMessage</text><line style="stroke:#181818;stroke-width:0.5;" x1="214.5" x2="458.5" y1="212.19" y2="212.19"/><rect fill="none" height="6" style="stroke:#C82930;stroke-width:1.0;" width="6" x="221.5" y="222.8384"/><text fill="#000000" font-family="sans-serif" font-size="14" lengthAdjust="spacing" textLength="220" x="233.5" y="229.1851">PlayerActionsEnum playerAction</text><line style="stroke:#181818;stroke-width:0.5;" x1="214.5" x2="458.5" y1="236.4869" y2="236.4869"/></g><!--class PlaceCardViewUpdateMessage--><g id="elem_PlaceCardViewUpdateMessage"><rect codeLine="27" fill="#F1F1F1" height="80.5938" id="PlaceCardViewUpdateMessage" rx="2.5" ry="2.5" style="stroke:#181818;stroke-width:0.5;" width="246" x="213.5" y="320.79"/><ellipse cx="228.5" cy="336.79" fill="#ADD1B2" rx="11" ry="11" style="stroke:#181818;stroke-width:1.0;"/><path d="M231.4688,342.4306 Q230.8906,342.7275 230.25,342.8681 Q229.6094,343.0244 228.9063,343.0244 Q226.4063,343.0244 225.0781,341.3837 Q223.7656,339.7275 223.7656,336.6025 Q223.7656,333.4775 225.0781,331.8212 Q226.4063,330.165 228.9063,330.165 Q229.6094,330.165 230.25,330.3212 Q230.9063,330.4775 231.4688,330.7744 L231.4688,333.4931 Q230.8438,332.915 230.25,332.6494 Q229.6563,332.3681 229.0313,332.3681 Q227.6875,332.3681 227,333.4462 Q226.3125,334.5087 226.3125,336.6025 Q226.3125,338.6962 227,339.7744 Q227.6875,340.8369 229.0313,340.8369 Q229.6563,340.8369 230.25,340.5712 Q230.8438,340.29 231.4688,339.7119 L231.4688,342.4306 Z " fill="#000000"/><text fill="#000000" font-family="sans-serif" font-size="14" lengthAdjust="spacing" textLength="214" x="242.5" y="341.6367">PlaceCardViewUpdateMessage</text><line style="stroke:#181818;stroke-width:0.5;" x1="214.5" x2="458.5" y1="352.79" y2="352.79"/><rect fill="none" height="6" style="stroke:#C82930;stroke-width:1.0;" width="6" x="221.5" y="363.4384"/><text fill="#000000" font-family="sans-serif" font-size="14" lengthAdjust="spacing" textLength="154" x="233.5" y="369.7851">Coordinate coordinate</text><rect fill="none" height="6" style="stroke:#C82930;stroke-width:1.0;" width="6" x="221.5" y="379.7353"/><text fill="#000000" font-family="sans-serif" font-size="14" lengthAdjust="spacing" textLength="66" x="233.5" y="386.082">Card card</text><line style="stroke:#181818;stroke-width:0.5;" x1="214.5" x2="458.5" y1="393.3837" y2="393.3837"/></g><!--class ClientNetworkMessage--><g id="elem_ClientNetworkMessage"><rect codeLine="32" fill="#F1F1F1" height="80.5938" id="ClientNetworkMessage" rx="2.5" ry="2.5" style="stroke:#181818;stroke-width:0.5;" width="246" x="757.5" y="15.15"/><ellipse cx="797.25" cy="31.15" fill="#A9DCDF" rx="11" ry="11" style="stroke:#181818;stroke-width:1.0;"/><path d="M797.3594,26.4937 L796.2031,31.5719 L798.5313,31.5719 L797.3594,26.4937 Z M795.875,24.2594 L798.8594,24.2594 L802.2188,36.65 L799.7656,36.65 L799,33.5875 L795.7188,33.5875 L794.9688,36.65 L792.5313,36.65 L795.875,24.2594 Z " fill="#000000"/><text fill="#000000" font-family="sans-serif" font-size="14" font-style="italic" lengthAdjust="spacing" textLength="159" x="816.75" y="35.9967">ClientNetworkMessage</text><line style="stroke:#181818;stroke-width:0.5;" x1="758.5" x2="1002.5" y1="47.15" y2="47.15"/><rect fill="none" height="6" style="stroke:#C82930;stroke-width:1.0;" width="6" x="765.5" y="57.7984"/><text fill="#000000" font-family="sans-serif" font-size="14" lengthAdjust="spacing" textLength="220" x="777.5" y="64.1451">PlayerActionsEnum playerAction</text><rect fill="none" height="6" style="stroke:#C82930;stroke-width:1.0;" width="6" x="765.5" y="74.0953"/><text fill="#000000" font-family="sans-serif" font-size="14" lengthAdjust="spacing" textLength="170" x="777.5" y="80.442">&lt;Record T&gt; parameters</text><line style="stroke:#181818;stroke-width:0.5;" x1="758.5" x2="1002.5" y1="87.7437" y2="87.7437"/></g><!--class PlaceCardClientMessage--><g id="elem_PlaceCardClientMessage"><rect codeLine="36" fill="#F1F1F1" height="80.5938" id="PlaceCardClientMessage" rx="2.5" ry="2.5" style="stroke:#181818;stroke-width:0.5;" width="203" x="779" y="172.04"/><ellipse cx="794" cy="188.04" fill="#ADD1B2" rx="11" ry="11" style="stroke:#181818;stroke-width:1.0;"/><path d="M796.9688,193.6806 Q796.3906,193.9775 795.75,194.1181 Q795.1094,194.2744 794.4063,194.2744 Q791.9063,194.2744 790.5781,192.6338 Q789.2656,190.9775 789.2656,187.8525 Q789.2656,184.7275 790.5781,183.0713 Q791.9063,181.415 794.4063,181.415 Q795.1094,181.415 795.75,181.5713 Q796.4063,181.7275 796.9688,182.0244 L796.9688,184.7431 Q796.3438,184.165 795.75,183.8994 Q795.1563,183.6181 794.5313,183.6181 Q793.1875,183.6181 792.5,184.6963 Q791.8125,185.7588 791.8125,187.8525 Q791.8125,189.9463 792.5,191.0244 Q793.1875,192.0869 794.5313,192.0869 Q795.1563,192.0869 795.75,191.8213 Q796.3438,191.54 796.9688,190.9619 L796.9688,193.6806 Z " fill="#000000"/><text fill="#000000" font-family="sans-serif" font-size="14" lengthAdjust="spacing" textLength="171" x="808" y="192.8867">PlaceCardClientMessage</text><line style="stroke:#181818;stroke-width:0.5;" x1="780" x2="981" y1="204.04" y2="204.04"/><rect fill="none" height="6" style="stroke:#C82930;stroke-width:1.0;" width="6" x="787" y="214.6884"/><text fill="#000000" font-family="sans-serif" font-size="14" lengthAdjust="spacing" textLength="154" x="799" y="221.0351">Coordinate coordinate</text><rect fill="none" height="6" style="stroke:#C82930;stroke-width:1.0;" width="6" x="787" y="230.9853"/><text fill="#000000" font-family="sans-serif" font-size="14" lengthAdjust="spacing" textLength="66" x="799" y="237.332">Card card</text><line style="stroke:#181818;stroke-width:0.5;" x1="780" x2="981" y1="244.6338" y2="244.6338"/></g><!--class ServerConnection--><g id="elem_ServerConnection"><rect codeLine="40" fill="#F1F1F1" height="64.2969" id="ServerConnection" rx="2.5" ry="2.5" style="stroke:#181818;stroke-width:0.5;" width="322" x="1038.5" y="23.3"/><ellipse cx="1133.25" cy="39.3" fill="#A9DCDF" rx="11" ry="11" style="stroke:#181818;stroke-width:1.0;"/><path d="M1133.3594,34.6438 L1132.2031,39.7219 L1134.5313,39.7219 L1133.3594,34.6438 Z M1131.875,32.4094 L1134.8594,32.4094 L1138.2188,44.8 L1135.7656,44.8 L1135,41.7375 L1131.7188,41.7375 L1130.9688,44.8 L1128.5313,44.8 L1131.875,32.4094 Z " fill="#000000"/><text fill="#000000" font-family="sans-serif" font-size="14" font-style="italic" lengthAdjust="spacing" textLength="124" x="1153.75" y="44.1467">ServerConnection</text><line style="stroke:#181818;stroke-width:0.5;" x1="1039.5" x2="1359.5" y1="55.3" y2="55.3"/><rect fill="none" height="6" style="stroke:#C82930;stroke-width:1.0;" width="6" x="1046.5" y="65.9484"/><text fill="#000000" font-family="sans-serif" font-size="14" lengthAdjust="spacing" textLength="296" x="1058.5" y="72.2951">GameControllerMiddleware gameController</text><line style="stroke:#181818;stroke-width:0.5;" x1="1039.5" x2="1359.5" y1="79.5969" y2="79.5969"/></g><!--class ClientConnection--><g id="elem_ClientConnection"><rect codeLine="44" fill="#F1F1F1" height="48" id="ClientConnection" rx="2.5" ry="2.5" style="stroke:#181818;stroke-width:0.5;" width="151" x="1601" y="31.45"/><ellipse cx="1616" cy="47.45" fill="#A9DCDF" rx="11" ry="11" style="stroke:#181818;stroke-width:1.0;"/><path d="M1616.1094,42.7937 L1614.9531,47.8719 L1617.2813,47.8719 L1616.1094,42.7937 Z M1614.625,40.5594 L1617.6094,40.5594 L1620.9688,52.95 L1618.5156,52.95 L1617.75,49.8875 L1614.4688,49.8875 L1613.7188,52.95 L1611.2813,52.95 L1614.625,40.5594 Z " fill="#000000"/><text fill="#000000" font-family="sans-serif" font-size="14" font-style="italic" lengthAdjust="spacing" textLength="119" x="1630" y="52.2967">ClientConnection</text><line style="stroke:#181818;stroke-width:0.5;" x1="1602" x2="1751" y1="63.45" y2="63.45"/><line style="stroke:#181818;stroke-width:0.5;" x1="1602" x2="1751" y1="71.45" y2="71.45"/></g><!--class TCPClientConnection--><g id="elem_TCPClientConnection"><rect codeLine="48" fill="#F1F1F1" height="64.2969" id="TCPClientConnection" rx="2.5" ry="2.5" style="stroke:#181818;stroke-width:0.5;" width="179" x="1577" y="180.19"/><ellipse cx="1592" cy="196.19" fill="#ADD1B2" rx="11" ry="11" style="stroke:#181818;stroke-width:1.0;"/><path d="M1594.9688,201.8306 Q1594.3906,202.1275 1593.75,202.2681 Q1593.1094,202.4244 1592.4063,202.4244 Q1589.9063,202.4244 1588.5781,200.7838 Q1587.2656,199.1275 1587.2656,196.0025 Q1587.2656,192.8775 1588.5781,191.2213 Q1589.9063,189.565 1592.4063,189.565 Q1593.1094,189.565 1593.75,189.7213 Q1594.4063,189.8775 1594.9688,190.1744 L1594.9688,192.8931 Q1594.3438,192.315 1593.75,192.0494 Q1593.1563,191.7681 1592.5313,191.7681 Q1591.1875,191.7681 1590.5,192.8463 Q1589.8125,193.9088 1589.8125,196.0025 Q1589.8125,198.0963 1590.5,199.1744 Q1591.1875,200.2369 1592.5313,200.2369 Q1593.1563,200.2369 1593.75,199.9713 Q1594.3438,199.69 1594.9688,199.1119 L1594.9688,201.8306 Z " fill="#000000"/><text fill="#000000" font-family="sans-serif" font-size="14" lengthAdjust="spacing" textLength="147" x="1606" y="201.0367">TCPClientConnection</text><line style="stroke:#181818;stroke-width:0.5;" x1="1578" x2="1755" y1="212.19" y2="212.19"/><rect fill="none" height="6" style="stroke:#C82930;stroke-width:1.0;" width="6" x="1585" y="222.8384"/><text fill="#000000" font-family="sans-serif" font-size="14" lengthAdjust="spacing" textLength="99" x="1597" y="229.1851">Socket socket</text><line style="stroke:#181818;stroke-width:0.5;" x1="1578" x2="1755" y1="236.4869" y2="236.4869"/></g><!--class PlayerActions--><g id="elem_PlayerActions"><rect fill="#F1F1F1" height="48" id="PlayerActions" rx="2.5" ry="2.5" style="stroke:#181818;stroke-width:0.5;" width="124" x="1806.5" y="31.45"/><ellipse cx="1821.5" cy="47.45" fill="#B4A7E5" rx="11" ry="11" style="stroke:#181818;stroke-width:1.0;"/><path d="M1817.4219,43.2156 L1817.4219,41.0594 L1824.8125,41.0594 L1824.8125,43.2156 L1822.3438,43.2156 L1822.3438,51.2937 L1824.8125,51.2937 L1824.8125,53.45 L1817.4219,53.45 L1817.4219,51.2937 L1819.8906,51.2937 L1819.8906,43.2156 L1817.4219,43.2156 Z " fill="#000000"/><text fill="#000000" font-family="sans-serif" font-size="14" font-style="italic" lengthAdjust="spacing" textLength="92" x="1835.5" y="52.2967">PlayerActions</text><line style="stroke:#181818;stroke-width:0.5;" x1="1807.5" x2="1929.5" y1="63.45" y2="63.45"/><line style="stroke:#181818;stroke-width:0.5;" x1="1807.5" x2="1929.5" y1="71.45" y2="71.45"/></g><!--class RMIClientConnection--><g id="elem_RMIClientConnection"><rect codeLine="51" fill="#F1F1F1" height="64.2969" id="RMIClientConnection" rx="2.5" ry="2.5" style="stroke:#181818;stroke-width:0.5;" width="176" x="1790.5" y="180.19"/><ellipse cx="1805.5" cy="196.19" fill="#ADD1B2" rx="11" ry="11" style="stroke:#181818;stroke-width:1.0;"/><path d="M1808.4688,201.8306 Q1807.8906,202.1275 1807.25,202.2681 Q1806.6094,202.4244 1805.9063,202.4244 Q1803.4063,202.4244 1802.0781,200.7838 Q1800.7656,199.1275 1800.7656,196.0025 Q1800.7656,192.8775 1802.0781,191.2213 Q1803.4063,189.565 1805.9063,189.565 Q1806.6094,189.565 1807.25,189.7213 Q1807.9063,189.8775 1808.4688,190.1744 L1808.4688,192.8931 Q1807.8438,192.315 1807.25,192.0494 Q1806.6563,191.7681 1806.0313,191.7681 Q1804.6875,191.7681 1804,192.8463 Q1803.3125,193.9088 1803.3125,196.0025 Q1803.3125,198.0963 1804,199.1744 Q1804.6875,200.2369 1806.0313,200.2369 Q1806.6563,200.2369 1807.25,199.9713 Q1807.8438,199.69 1808.4688,199.1119 L1808.4688,201.8306 Z " fill="#000000"/><text fill="#000000" font-family="sans-serif" font-size="14" lengthAdjust="spacing" textLength="144" x="1819.5" y="201.0367">RMIClientConnection</text><line style="stroke:#181818;stroke-width:0.5;" x1="1791.5" x2="1965.5" y1="212.19" y2="212.19"/><rect fill="none" height="6" style="stroke:#C82930;stroke-width:1.0;" width="6" x="1798.5" y="222.8384"/><text fill="#000000" font-family="sans-serif" font-size="14" lengthAdjust="spacing" textLength="149" x="1810.5" y="229.1851">Loggable remoteHost</text><line style="stroke:#181818;stroke-width:0.5;" x1="1791.5" x2="1965.5" y1="236.4869" y2="236.4869"/></g><!--class TCPServerConnection--><g id="elem_TCPServerConnection"><rect codeLine="54" fill="#F1F1F1" height="64.2969" id="TCPServerConnection" rx="2.5" ry="2.5" style="stroke:#181818;stroke-width:0.5;" width="213" x="1100" y="180.19"/><ellipse cx="1128.05" cy="196.19" fill="#ADD1B2" rx="11" ry="11" style="stroke:#181818;stroke-width:1.0;"/><path d="M1131.0188,201.8306 Q1130.4406,202.1275 1129.8,202.2681 Q1129.1594,202.4244 1128.4563,202.4244 Q1125.9563,202.4244 1124.6281,200.7838 Q1123.3156,199.1275 1123.3156,196.0025 Q1123.3156,192.8775 1124.6281,191.2213 Q1125.9563,189.565 1128.4563,189.565 Q1129.1594,189.565 1129.8,189.7213 Q1130.4563,189.8775 1131.0188,190.1744 L1131.0188,192.8931 Q1130.3938,192.315 1129.8,192.0494 Q1129.2063,191.7681 1128.5813,191.7681 Q1127.2375,191.7681 1126.55,192.8463 Q1125.8625,193.9088 1125.8625,196.0025 Q1125.8625,198.0963 1126.55,199.1744 Q1127.2375,200.2369 1128.5813,200.2369 Q1129.2063,200.2369 1129.8,199.9713 Q1130.3938,199.69 1131.0188,199.1119 L1131.0188,201.8306 Z " fill="#000000"/><text fill="#000000" font-family="sans-serif" font-size="14" lengthAdjust="spacing" textLength="152" x="1144.95" y="201.0367">TCPServerConnection</text><line style="stroke:#181818;stroke-width:0.5;" x1="1101" x2="1312" y1="212.19" y2="212.19"/><rect fill="none" height="6" style="stroke:#C82930;stroke-width:1.0;" width="6" x="1108" y="222.8384"/><text fill="#000000" font-family="sans-serif" font-size="14" lengthAdjust="spacing" textLength="187" x="1120" y="229.1851">ServerSocket serverSocket</text><line style="stroke:#181818;stroke-width:0.5;" x1="1101" x2="1312" y1="236.4869" y2="236.4869"/></g><!--class ServerActions--><g id="elem_ServerActions"><rect fill="#F1F1F1" height="48" id="ServerActions" rx="2.5" ry="2.5" style="stroke:#181818;stroke-width:0.5;" width="127" x="1395" y="31.45"/><ellipse cx="1410" cy="47.45" fill="#B4A7E5" rx="11" ry="11" style="stroke:#181818;stroke-width:1.0;"/><path d="M1405.9219,43.2156 L1405.9219,41.0594 L1413.3125,41.0594 L1413.3125,43.2156 L1410.8438,43.2156 L1410.8438,51.2937 L1413.3125,51.2937 L1413.3125,53.45 L1405.9219,53.45 L1405.9219,51.2937 L1408.3906,51.2937 L1408.3906,43.2156 L1405.9219,43.2156 Z " fill="#000000"/><text fill="#000000" font-family="sans-serif" font-size="14" font-style="italic" lengthAdjust="spacing" textLength="95" x="1424" y="52.2967">ServerActions</text><line style="stroke:#181818;stroke-width:0.5;" x1="1396" x2="1521" y1="63.45" y2="63.45"/><line style="stroke:#181818;stroke-width:0.5;" x1="1396" x2="1521" y1="71.45" y2="71.45"/></g><!--class RMIServerConnection--><g id="elem_RMIServerConnection"><rect codeLine="57" fill="#F1F1F1" height="64.2969" id="RMIServerConnection" rx="2.5" ry="2.5" style="stroke:#181818;stroke-width:0.5;" width="181" x="1361" y="180.19"/><ellipse cx="1376" cy="196.19" fill="#ADD1B2" rx="11" ry="11" style="stroke:#181818;stroke-width:1.0;"/><path d="M1378.9688,201.8306 Q1378.3906,202.1275 1377.75,202.2681 Q1377.1094,202.4244 1376.4063,202.4244 Q1373.9063,202.4244 1372.5781,200.7838 Q1371.2656,199.1275 1371.2656,196.0025 Q1371.2656,192.8775 1372.5781,191.2213 Q1373.9063,189.565 1376.4063,189.565 Q1377.1094,189.565 1377.75,189.7213 Q1378.4063,189.8775 1378.9688,190.1744 L1378.9688,192.8931 Q1378.3438,192.315 1377.75,192.0494 Q1377.1563,191.7681 1376.5313,191.7681 Q1375.1875,191.7681 1374.5,192.8463 Q1373.8125,193.9088 1373.8125,196.0025 Q1373.8125,198.0963 1374.5,199.1744 Q1375.1875,200.2369 1376.5313,200.2369 Q1377.1563,200.2369 1377.75,199.9713 Q1378.3438,199.69 1378.9688,199.1119 L1378.9688,201.8306 Z " fill="#000000"/><text fill="#000000" font-family="sans-serif" font-size="14" lengthAdjust="spacing" textLength="149" x="1390" y="201.0367">RMIServerConnection</text><line style="stroke:#181818;stroke-width:0.5;" x1="1362" x2="1541" y1="212.19" y2="212.19"/><rect fill="none" height="6" style="stroke:#C82930;stroke-width:1.0;" width="6" x="1369" y="222.8384"/><text fill="#000000" font-family="sans-serif" font-size="14" lengthAdjust="spacing" textLength="149" x="1381" y="229.1851">Loggable remoteHost</text><line style="stroke:#181818;stroke-width:0.5;" x1="1362" x2="1541" y1="236.4869" y2="236.4869"/></g><!--reverse link ServerNetworkMessage to ErrorMessage--><g id="link_ServerNetworkMessage_ErrorMessage"><path d="M246.1031,113.8365 C216.4231,132.6765 197.57,144.64 167.87,163.5 " fill="none" id="ServerNetworkMessage-backto-ErrorMessage" style="stroke:#181818;stroke-width:1.0;"/><polygon fill="none" points="261.3,104.19,242.8876,108.7709,249.3186,118.9021,261.3,104.19" style="stroke:#181818;stroke-width:1.0;"/></g><!--reverse link ServerNetworkMessage to GetGamesMessage--><g id="link_ServerNetworkMessage_GetGamesMessage"><path d="M439.5103,112.831 C484.5003,137.451 522.32,158.15 562.06,179.9 " fill="none" id="ServerNetworkMessage-backto-GetGamesMessage" style="stroke:#181818;stroke-width:1.0;"/><polygon fill="none" points="423.72,104.19,436.63,118.0944,442.3906,107.5675,423.72,104.19" style="stroke:#181818;stroke-width:1.0;"/></g><!--link GameRecord to GetGamesMessage--><g id="link_GameRecord_GetGamesMessage"><path codeLine="21" d="M619.5,104.19 C619.5,128.9 619.5,158.36 619.5,180.14 " fill="none" id="GameRecord-GetGamesMessage" style="stroke:#181818;stroke-width:1.0;"/></g><!--reverse link ServerNetworkMessage to ViewUpdateMessage--><g id="link_ServerNetworkMessage_ViewUpdateMessage"><path d="M336.5,122.19 C336.5,146.9 336.5,158.36 336.5,180.14 " fill="none" id="ServerNetworkMessage-backto-ViewUpdateMessage" style="stroke:#181818;stroke-width:1.0;"/><polygon fill="none" points="336.5,104.19,330.5,122.19,342.5,122.19,336.5,104.19" style="stroke:#181818;stroke-width:1.0;"/></g><!--reverse link ViewUpdateMessage to PlaceCardViewUpdateMessage--><g id="link_ViewUpdateMessage_PlaceCardViewUpdateMessage"><path d="M336.5,262.82 C336.5,284.97 336.5,296.78 336.5,320.53 " fill="none" id="ViewUpdateMessage-backto-PlaceCardViewUpdateMessage" style="stroke:#181818;stroke-width:1.0;"/><polygon fill="none" points="336.5,244.82,330.5,262.82,342.5,262.82,336.5,244.82" style="stroke:#181818;stroke-width:1.0;"/></g><!--reverse link ClientNetworkMessage to PlaceCardClientMessage--><g id="link_ClientNetworkMessage_PlaceCardClientMessage"><path d="M880.5,113.94 C880.5,137.15 880.5,148.41 880.5,171.66 " fill="none" id="ClientNetworkMessage-backto-PlaceCardClientMessage" style="stroke:#181818;stroke-width:1.0;"/><polygon fill="none" points="880.5,95.94,874.5,113.94,886.5,113.94,880.5,95.94" style="stroke:#181818;stroke-width:1.0;"/></g><!--reverse link ClientConnection to TCPClientConnection--><g id="link_ClientConnection_TCPClientConnection"><path d="M1673.8416,97.6027 C1672.1216,124.2727 1670.45,150.22 1668.53,179.94 " fill="none" id="ClientConnection-backto-TCPClientConnection" style="stroke:#181818;stroke-width:1.0;"/><polygon fill="none" points="1675,79.64,1667.854,97.2165,1679.8291,97.9888,1675,79.64" style="stroke:#181818;stroke-width:1.0;"/></g><!--reverse link PlayerActions to TCPClientConnection--><g id="link_PlayerActions_TCPClientConnection"><path d="M1823.9761,90.5931 C1789.1961,117.2631 1746.2,150.22 1707.45,179.94 " fill="none" id="PlayerActions-backto-TCPClientConnection" style="stroke:#181818;stroke-width:1.0;stroke-dasharray:7.0,7.0;"/><polygon fill="none" points="1838.26,79.64,1820.3251,85.8319,1827.6272,95.3544,1838.26,79.64" style="stroke:#181818;stroke-width:1.0;"/></g><!--reverse link ClientConnection to RMIClientConnection--><g id="link_ClientConnection_RMIClientConnection"><path d="M1721.0239,90.5931 C1755.8039,117.2631 1798.8,150.22 1837.55,179.94 " fill="none" id="ClientConnection-backto-RMIClientConnection" style="stroke:#181818;stroke-width:1.0;"/><polygon fill="none" points="1706.74,79.64,1717.3728,95.3544,1724.6749,85.8319,1706.74,79.64" style="stroke:#181818;stroke-width:1.0;"/></g><!--reverse link PlayerActions to RMIClientConnection--><g id="link_PlayerActions_RMIClientConnection"><path d="M1871.1584,97.6027 C1872.8784,124.2727 1874.55,150.22 1876.47,179.94 " fill="none" id="PlayerActions-backto-RMIClientConnection" style="stroke:#181818;stroke-width:1.0;stroke-dasharray:7.0,7.0;"/><polygon fill="none" points="1870,79.64,1865.1709,97.9888,1877.146,97.2165,1870,79.64" style="stroke:#181818;stroke-width:1.0;"/></g><!--reverse link ServerConnection to TCPServerConnection--><g id="link_ServerConnection_TCPServerConnection"><path d="M1201.7322,105.7717 C1202.9422,132.5617 1203.86,152.93 1205.07,179.78 " fill="none" id="ServerConnection-backto-TCPServerConnection" style="stroke:#181818;stroke-width:1.0;"/><polygon fill="none" points="1200.92,87.79,1195.7383,106.0424,1207.7261,105.5009,1200.92,87.79" style="stroke:#181818;stroke-width:1.0;"/></g><!--reverse link ServerActions to TCPServerConnection--><g id="link_ServerActions_TCPServerConnection"><path d="M1405.165,89.2355 C1361.855,115.8555 1306.17,150.08 1257.93,179.73 " fill="none" id="ServerActions-backto-TCPServerConnection" style="stroke:#181818;stroke-width:1.0;stroke-dasharray:7.0,7.0;"/><polygon fill="none" points="1420.5,79.81,1402.0232,84.1238,1408.3069,94.3471,1420.5,79.81" style="stroke:#181818;stroke-width:1.0;"/></g><!--reverse link ServerConnection to RMIServerConnection--><g id="link_ServerConnection_RMIServerConnection"><path d="M1266.1347,97.4059 C1309.7347,124.2059 1356.69,153.07 1400.27,179.85 " fill="none" id="ServerConnection-backto-RMIServerConnection" style="stroke:#181818;stroke-width:1.0;"/><polygon fill="none" points="1250.8,87.98,1262.9927,102.5175,1269.2766,92.2943,1250.8,87.98" style="stroke:#181818;stroke-width:1.0;"/></g><!--reverse link ServerActions to RMIServerConnection--><g id="link_ServerActions_RMIServerConnection"><path d="M1456.6409,97.6218 C1455.4409,124.2918 1454.26,150.22 1452.92,179.94 " fill="none" id="ServerActions-backto-RMIServerConnection" style="stroke:#181818;stroke-width:1.0;stroke-dasharray:7.0,7.0;"/><polygon fill="none" points="1457.45,79.64,1450.647,97.3521,1462.6349,97.8915,1457.45,79.64" style="stroke:#181818;stroke-width:1.0;"/></g><!--SRC=[hLDhQy8m5FtUNv6F6yC_C4IG8cwW8khsFRQNafacvUPgbU5_Nvg-7yesBFIHUsxEoJb9-TuGye1O8BanR0ju0bm1fHeFIp26Hy2-FMQlaI5EH_FAjeH2HQxs4W5jNVdfkGsO9d3I8lIkdfThp10rbjnm9b3XVU4u7_QKYxO1wGRIrfu3pRdb-uly595V5iBGE9kwWK1ZE65HHcE92zuAAMVbAt9jAtldHQ68VMcX85nBVW4qTJdcvwcKEgsXgzTW7OswQ_SytjwxJm7fHn9oWh-uozMc0Gcjp4mTOvOqAdLojYy0dsDuMwQF51g-jXQ4iW0Bgiy2iemii8zCgMF8bm8K_MlPhcTSPBURi8IZZOxoM3k6SfckcNlYl_J3X_ujNoi5Rf4bMxQfjagefGHSYZ2Ka784TtPgu6P0BKRRLFZR-UiUtZRN04ISI8XjpULI9rkTPXqSW9Xnhoh2pVBzSH8B7KLyBu4Xn9hWJPjQo7hffTS-tCD2ETRruegbeyQWwUjnSeE-VW00]--></g></svg>