<?xml version="1.0" encoding="us-ascii" standalone="no"?><svg xmlns="http://www.w3.org/2000/svg" xmlns:xlink="http://www.w3.org/1999/xlink" contentStyleType="text/css" height="2148px" preserveAspectRatio="none" style="width:2072px;height:2148px;background:#FFFFFF;" version="1.1" viewBox="0 0 2072 2148" width="2072px" zoomAndPan="magnify"><defs/><g><!--class GameManager--><g id="elem_GameManager"><rect codeLine="1" fill="#F1F1F1" height="194.6719" id="GameManager" rx="2.5" ry="2.5" style="stroke:#181818;stroke-width:0.5;" width="534" x="1173" y="7"/><ellipse cx="1384.25" cy="23" fill="#ADD1B2" rx="11" ry="11" style="stroke:#181818;stroke-width:1.0;"/><path d="M1386.5938,18.6719 C1385.6563,18.2344 1385.0625,18.0938 1384.1875,18.0938 C1381.5625,18.0938 1379.5625,20.1719 1379.5625,22.8906 L1379.5625,24.0156 C1379.5625,26.5938 1381.6719,28.4844 1384.5625,28.4844 C1385.7813,28.4844 1386.9375,28.1875 1387.6875,27.6406 C1388.2656,27.2344 1388.5938,26.7813 1388.5938,26.3906 C1388.5938,25.9375 1388.2031,25.5469 1387.7344,25.5469 C1387.5156,25.5469 1387.3125,25.625 1387.125,25.8125 C1386.6719,26.2969 1386.6719,26.2969 1386.4844,26.3906 C1386.0625,26.6563 1385.375,26.7813 1384.6094,26.7813 C1382.5625,26.7813 1381.2656,25.6875 1381.2656,23.9844 L1381.2656,22.8906 C1381.2656,21.1094 1382.5156,19.7969 1384.25,19.7969 C1384.8281,19.7969 1385.4375,19.9531 1385.9063,20.2031 C1386.3906,20.4844 1386.5625,20.7031 1386.6563,21.1094 C1386.7188,21.5156 1386.75,21.6406 1386.8906,21.7656 C1387.0313,21.9063 1387.2656,22.0156 1387.4844,22.0156 C1387.75,22.0156 1388.0156,21.875 1388.1875,21.6563 C1388.2969,21.5 1388.3281,21.3125 1388.3281,20.8906 L1388.3281,19.4688 C1388.3281,19.0313 1388.3125,18.9063 1388.2188,18.75 C1388.0625,18.4844 1387.7813,18.3438 1387.4844,18.3438 C1387.1875,18.3438 1386.9844,18.4375 1386.7656,18.75 L1386.5938,18.6719 Z " fill="#000000"/><text fill="#000000" font-family="sans-serif" font-size="14" lengthAdjust="spacing" textLength="103" x="1404.75" y="27.8467">GameManager</text><line style="stroke:#181818;stroke-width:0.5;" x1="1174" x2="1706" y1="39" y2="39"/><rect fill="none" height="6" style="stroke:#C82930;stroke-width:1.0;" width="6" x="1181" y="49.6484"/><text fill="#000000" font-family="sans-serif" font-size="14" lengthAdjust="spacing" textLength="179" x="1193" y="55.9951">ArrayList&lt;Game&gt; games</text><rect fill="none" height="6" style="stroke:#C82930;stroke-width:1.0;" width="6" x="1181" y="65.9453"/><text fill="#000000" font-family="sans-serif" font-size="14" lengthAdjust="spacing" textLength="286" x="1193" y="72.292">ArrayList&lt;GameCard&gt; defaultGoldDeck</text><rect fill="none" height="6" style="stroke:#C82930;stroke-width:1.0;" width="6" x="1181" y="82.2422"/><text fill="#000000" font-family="sans-serif" font-size="14" lengthAdjust="spacing" textLength="319" x="1193" y="88.5889">ArrayList&lt;GameCard&gt; defaultResourceDeck</text><rect fill="none" height="6" style="stroke:#C82930;stroke-width:1.0;" width="6" x="1181" y="98.5391"/><text fill="#000000" font-family="sans-serif" font-size="14" lengthAdjust="spacing" textLength="351" x="1193" y="104.8857">ArrayList&lt;ObjectiveCard&gt; defaultObjectiveDeck</text><rect fill="none" height="6" style="stroke:#C82930;stroke-width:1.0;" width="6" x="1181" y="114.8359"/><text fill="#000000" font-family="sans-serif" font-size="14" lengthAdjust="spacing" textLength="305" x="1193" y="121.1826">ArrayList&lt;GameCard&gt; defaultStarterDeck</text><line style="stroke:#181818;stroke-width:0.5;" x1="1174" x2="1706" y1="128.4844" y2="128.4844"/><ellipse cx="1184" cy="142.1328" fill="#84BE84" rx="3" ry="3" style="stroke:#038048;stroke-width:1.0;"/><text fill="#000000" font-family="sans-serif" font-size="14" lengthAdjust="spacing" textLength="216" x="1193" y="145.4795">ArrayList&lt;Game&gt; getGames()</text><ellipse cx="1184" cy="158.4297" fill="#84BE84" rx="3" ry="3" style="stroke:#038048;stroke-width:1.0;"/><text fill="#000000" font-family="sans-serif" font-size="14" lengthAdjust="spacing" textLength="508" x="1193" y="161.7764">Game createGame(String gameName, int nPlayers, String playerName)</text><ellipse cx="1184" cy="174.7266" fill="#84BE84" rx="3" ry="3" style="stroke:#038048;stroke-width:1.0;"/><text fill="#000000" font-family="sans-serif" font-size="14" lengthAdjust="spacing" textLength="228" x="1193" y="178.0732">deleteGame(String gameName)</text><ellipse cx="1184" cy="191.0234" fill="#84BE84" rx="3" ry="3" style="stroke:#038048;stroke-width:1.0;"/><text fill="#000000" font-family="sans-serif" font-size="14" lengthAdjust="spacing" textLength="395" x="1193" y="194.3701">Game joinGame(String gameName, String playerName)</text></g><!--class Game--><g id="elem_Game"><rect codeLine="14" fill="#F1F1F1" height="259.8594" id="Game" rx="2.5" ry="2.5" style="stroke:#181818;stroke-width:0.5;" width="287" x="1296.5" y="262"/><ellipse cx="1414.75" cy="278" fill="#ADD1B2" rx="11" ry="11" style="stroke:#181818;stroke-width:1.0;"/><path d="M1417.0938,273.6719 C1416.1563,273.2344 1415.5625,273.0938 1414.6875,273.0938 C1412.0625,273.0938 1410.0625,275.1719 1410.0625,277.8906 L1410.0625,279.0156 C1410.0625,281.5938 1412.1719,283.4844 1415.0625,283.4844 C1416.2813,283.4844 1417.4375,283.1875 1418.1875,282.6406 C1418.7656,282.2344 1419.0938,281.7813 1419.0938,281.3906 C1419.0938,280.9375 1418.7031,280.5469 1418.2344,280.5469 C1418.0156,280.5469 1417.8125,280.625 1417.625,280.8125 C1417.1719,281.2969 1417.1719,281.2969 1416.9844,281.3906 C1416.5625,281.6563 1415.875,281.7813 1415.1094,281.7813 C1413.0625,281.7813 1411.7656,280.6875 1411.7656,278.9844 L1411.7656,277.8906 C1411.7656,276.1094 1413.0156,274.7969 1414.75,274.7969 C1415.3281,274.7969 1415.9375,274.9531 1416.4063,275.2031 C1416.8906,275.4844 1417.0625,275.7031 1417.1563,276.1094 C1417.2188,276.5156 1417.25,276.6406 1417.3906,276.7656 C1417.5313,276.9063 1417.7656,277.0156 1417.9844,277.0156 C1418.25,277.0156 1418.5156,276.875 1418.6875,276.6563 C1418.7969,276.5 1418.8281,276.3125 1418.8281,275.8906 L1418.8281,274.4688 C1418.8281,274.0313 1418.8125,273.9063 1418.7188,273.75 C1418.5625,273.4844 1418.2813,273.3438 1417.9844,273.3438 C1417.6875,273.3438 1417.4844,273.4375 1417.2656,273.75 L1417.0938,273.6719 Z " fill="#000000"/><text fill="#000000" font-family="sans-serif" font-size="14" lengthAdjust="spacing" textLength="42" x="1435.25" y="282.8467">Game</text><line style="stroke:#181818;stroke-width:0.5;" x1="1297.5" x2="1582.5" y1="294" y2="294"/><rect fill="none" height="6" style="stroke:#C82930;stroke-width:1.0;" width="6" x="1304.5" y="304.6484"/><text fill="#000000" font-family="sans-serif" font-size="14" lengthAdjust="spacing" textLength="129" x="1316.5" y="310.9951">String gameName</text><rect fill="none" height="6" style="stroke:#C82930;stroke-width:1.0;" width="6" x="1304.5" y="320.9453"/><text fill="#000000" font-family="sans-serif" font-size="14" lengthAdjust="spacing" textLength="84" x="1316.5" y="327.292">int nPlayers</text><rect fill="none" height="6" style="stroke:#C82930;stroke-width:1.0;" width="6" x="1304.5" y="337.2422"/><text fill="#000000" font-family="sans-serif" font-size="14" lengthAdjust="spacing" textLength="186" x="1316.5" y="343.5889">ArrayList&lt;Player&gt; players</text><rect fill="none" height="6" style="stroke:#C82930;stroke-width:1.0;" width="6" x="1304.5" y="353.5391"/><text fill="#000000" font-family="sans-serif" font-size="14" lengthAdjust="spacing" textLength="178" x="1316.5" y="359.8857">GlobalBoard globalBoard</text><rect fill="none" height="6" style="stroke:#C82930;stroke-width:1.0;" width="6" x="1304.5" y="369.8359"/><text fill="#000000" font-family="sans-serif" font-size="14" lengthAdjust="spacing" textLength="145" x="1316.5" y="376.1826">Player currentPlayer</text><line style="stroke:#181818;stroke-width:0.5;" x1="1297.5" x2="1582.5" y1="383.4844" y2="383.4844"/><ellipse cx="1307.5" cy="397.1328" fill="#84BE84" rx="3" ry="3" style="stroke:#038048;stroke-width:1.0;"/><text fill="#000000" font-family="sans-serif" font-size="14" lengthAdjust="spacing" textLength="166" x="1316.5" y="400.4795">String getGameName()</text><ellipse cx="1307.5" cy="413.4297" fill="#84BE84" rx="3" ry="3" style="stroke:#038048;stroke-width:1.0;"/><text fill="#000000" font-family="sans-serif" font-size="14" lengthAdjust="spacing" textLength="220" x="1316.5" y="416.7764">ArrayList&lt;Player&gt; getPlayers()</text><ellipse cx="1307.5" cy="429.7266" fill="#84BE84" rx="3" ry="3" style="stroke:#038048;stroke-width:1.0;"/><text fill="#000000" font-family="sans-serif" font-size="14" lengthAdjust="spacing" textLength="261" x="1316.5" y="433.0732">Player getPlayer(String playerName)</text><ellipse cx="1307.5" cy="446.0234" fill="#84BE84" rx="3" ry="3" style="stroke:#038048;stroke-width:1.0;"/><text fill="#000000" font-family="sans-serif" font-size="14" lengthAdjust="spacing" textLength="215" x="1316.5" y="449.3701">GlobalBoard getGlobalBoard()</text><ellipse cx="1307.5" cy="462.3203" fill="#84BE84" rx="3" ry="3" style="stroke:#038048;stroke-width:1.0;"/><text fill="#000000" font-family="sans-serif" font-size="14" lengthAdjust="spacing" textLength="173" x="1316.5" y="465.667">addPlayer(Player player)</text><ellipse cx="1307.5" cy="478.6172" fill="#84BE84" rx="3" ry="3" style="stroke:#038048;stroke-width:1.0;"/><text fill="#000000" font-family="sans-serif" font-size="14" lengthAdjust="spacing" textLength="161" x="1316.5" y="481.9639">Player getNextPlayer()</text><ellipse cx="1307.5" cy="494.9141" fill="#84BE84" rx="3" ry="3" style="stroke:#038048;stroke-width:1.0;"/><text fill="#000000" font-family="sans-serif" font-size="14" lengthAdjust="spacing" textLength="138" x="1316.5" y="498.2607">boolean isStarted()</text><ellipse cx="1307.5" cy="511.2109" fill="#84BE84" rx="3" ry="3" style="stroke:#038048;stroke-width:1.0;"/><text fill="#000000" font-family="sans-serif" font-size="14" lengthAdjust="spacing" textLength="220" x="1316.5" y="514.5576">ArrayList&lt;Player&gt; getWinner()</text></g><g id="elem_GMN5"><path d="M1002.5,379.5 L1002.5,404.6328 A0,0 0 0 0 1002.5,404.6328 L1261.5,404.6328 A0,0 0 0 0 1261.5,404.6328 L1261.5,397.5 L1296.47,392 L1261.5,389.5 L1261.5,389.5 L1251.5,379.5 L1002.5,379.5 A0,0 0 0 0 1002.5,379.5 " fill="#FEFFDD" style="stroke:#181818;stroke-width:0.5;"/><path d="M1251.5,379.5 L1251.5,389.5 L1261.5,389.5 L1251.5,379.5 " fill="#FEFFDD" style="stroke:#181818;stroke-width:0.5;"/><text fill="#000000" font-family="sans-serif" font-size="13" lengthAdjust="spacing" textLength="238" x="1008.5" y="396.5669">Gestione giocatori e inizio/fine partita</text></g><!--class Player--><g id="elem_Player"><rect codeLine="60" fill="#F1F1F1" height="243.5625" id="Player" rx="2.5" ry="2.5" style="stroke:#181818;stroke-width:0.5;" width="265" x="1129.5" y="622.5"/><ellipse cx="1235.75" cy="638.5" fill="#ADD1B2" rx="11" ry="11" style="stroke:#181818;stroke-width:1.0;"/><path d="M1238.0938,634.1719 C1237.1563,633.7344 1236.5625,633.5938 1235.6875,633.5938 C1233.0625,633.5938 1231.0625,635.6719 1231.0625,638.3906 L1231.0625,639.5156 C1231.0625,642.0938 1233.1719,643.9844 1236.0625,643.9844 C1237.2813,643.9844 1238.4375,643.6875 1239.1875,643.1406 C1239.7656,642.7344 1240.0938,642.2813 1240.0938,641.8906 C1240.0938,641.4375 1239.7031,641.0469 1239.2344,641.0469 C1239.0156,641.0469 1238.8125,641.125 1238.625,641.3125 C1238.1719,641.7969 1238.1719,641.7969 1237.9844,641.8906 C1237.5625,642.1563 1236.875,642.2813 1236.1094,642.2813 C1234.0625,642.2813 1232.7656,641.1875 1232.7656,639.4844 L1232.7656,638.3906 C1232.7656,636.6094 1234.0156,635.2969 1235.75,635.2969 C1236.3281,635.2969 1236.9375,635.4531 1237.4063,635.7031 C1237.8906,635.9844 1238.0625,636.2031 1238.1563,636.6094 C1238.2188,637.0156 1238.25,637.1406 1238.3906,637.2656 C1238.5313,637.4063 1238.7656,637.5156 1238.9844,637.5156 C1239.25,637.5156 1239.5156,637.375 1239.6875,637.1563 C1239.7969,637 1239.8281,636.8125 1239.8281,636.3906 L1239.8281,634.9688 C1239.8281,634.5313 1239.8125,634.4063 1239.7188,634.25 C1239.5625,633.9844 1239.2813,633.8438 1238.9844,633.8438 C1238.6875,633.8438 1238.4844,633.9375 1238.2656,634.25 L1238.0938,634.1719 Z " fill="#000000"/><text fill="#000000" font-family="sans-serif" font-size="14" lengthAdjust="spacing" textLength="44" x="1256.25" y="643.3467">Player</text><line style="stroke:#181818;stroke-width:0.5;" x1="1130.5" x2="1393.5" y1="654.5" y2="654.5"/><rect fill="none" height="6" style="stroke:#C82930;stroke-width:1.0;" width="6" x="1137.5" y="665.1484"/><text fill="#000000" font-family="sans-serif" font-size="14" lengthAdjust="spacing" textLength="134" x="1149.5" y="671.4951">String playerName</text><rect fill="none" height="6" style="stroke:#C82930;stroke-width:1.0;" width="6" x="1137.5" y="681.4453"/><text fill="#000000" font-family="sans-serif" font-size="14" lengthAdjust="spacing" textLength="94" x="1149.5" y="687.792">int playerPos</text><rect fill="none" height="6" style="stroke:#C82930;stroke-width:1.0;" width="6" x="1137.5" y="697.7422"/><text fill="#000000" font-family="sans-serif" font-size="14" lengthAdjust="spacing" textLength="177" x="1149.5" y="704.0889">PlayerBoard playerBoard</text><rect fill="none" height="6" style="stroke:#C82930;stroke-width:1.0;" width="6" x="1137.5" y="714.0391"/><text fill="#000000" font-family="sans-serif" font-size="14" lengthAdjust="spacing" textLength="208" x="1149.5" y="720.3857">ObjectiveCard objectiveCard</text><rect fill="none" height="6" style="stroke:#C82930;stroke-width:1.0;" width="6" x="1137.5" y="730.3359"/><text fill="#000000" font-family="sans-serif" font-size="14" lengthAdjust="spacing" textLength="75" x="1149.5" y="736.6826">Hand hand</text><line style="stroke:#181818;stroke-width:0.5;" x1="1130.5" x2="1393.5" y1="743.9844" y2="743.9844"/><ellipse cx="1140.5" cy="757.6328" fill="#84BE84" rx="3" ry="3" style="stroke:#038048;stroke-width:1.0;"/><text fill="#000000" font-family="sans-serif" font-size="14" lengthAdjust="spacing" textLength="120" x="1149.5" y="760.9795">getPlayerName()</text><ellipse cx="1140.5" cy="773.9297" fill="#84BE84" rx="3" ry="3" style="stroke:#038048;stroke-width:1.0;"/><text fill="#000000" font-family="sans-serif" font-size="14" lengthAdjust="spacing" textLength="121" x="1149.5" y="777.2764">getPlayerBoard()</text><ellipse cx="1140.5" cy="790.2266" fill="#84BE84" rx="3" ry="3" style="stroke:#038048;stroke-width:1.0;"/><text fill="#000000" font-family="sans-serif" font-size="14" lengthAdjust="spacing" textLength="104" x="1149.5" y="793.5732">getPlayerPos()</text><ellipse cx="1140.5" cy="806.5234" fill="#84BE84" rx="3" ry="3" style="stroke:#038048;stroke-width:1.0;"/><text fill="#000000" font-family="sans-serif" font-size="14" lengthAdjust="spacing" textLength="115" x="1149.5" y="809.8701">getPlayerHand()</text><ellipse cx="1140.5" cy="822.8203" fill="#84BE84" rx="3" ry="3" style="stroke:#038048;stroke-width:1.0;"/><text fill="#000000" font-family="sans-serif" font-size="14" lengthAdjust="spacing" textLength="138" x="1149.5" y="826.167">getObjectiveCard()</text><ellipse cx="1140.5" cy="839.1172" fill="#84BE84" rx="3" ry="3" style="stroke:#038048;stroke-width:1.0;"/><text fill="#000000" font-family="sans-serif" font-size="14" lengthAdjust="spacing" textLength="239" x="1149.5" y="842.4639">setObjectiveCard(ObjectiveCard)</text><ellipse cx="1140.5" cy="855.4141" fill="#84BE84" rx="3" ry="3" style="stroke:#038048;stroke-width:1.0;"/><text fill="#000000" font-family="sans-serif" font-size="14" lengthAdjust="spacing" textLength="202" x="1149.5" y="858.7607">advancePlayerPos(int steps)</text></g><!--class GlobalBoard--><g id="elem_GlobalBoard"><rect codeLine="37" fill="#F1F1F1" height="325.0469" id="GlobalBoard" rx="2.5" ry="2.5" style="stroke:#181818;stroke-width:0.5;" width="377" x="1429.5" y="582"/><ellipse cx="1569.75" cy="598" fill="#ADD1B2" rx="11" ry="11" style="stroke:#181818;stroke-width:1.0;"/><path d="M1572.0938,593.6719 C1571.1563,593.2344 1570.5625,593.0938 1569.6875,593.0938 C1567.0625,593.0938 1565.0625,595.1719 1565.0625,597.8906 L1565.0625,599.0156 C1565.0625,601.5938 1567.1719,603.4844 1570.0625,603.4844 C1571.2813,603.4844 1572.4375,603.1875 1573.1875,602.6406 C1573.7656,602.2344 1574.0938,601.7813 1574.0938,601.3906 C1574.0938,600.9375 1573.7031,600.5469 1573.2344,600.5469 C1573.0156,600.5469 1572.8125,600.625 1572.625,600.8125 C1572.1719,601.2969 1572.1719,601.2969 1571.9844,601.3906 C1571.5625,601.6563 1570.875,601.7813 1570.1094,601.7813 C1568.0625,601.7813 1566.7656,600.6875 1566.7656,598.9844 L1566.7656,597.8906 C1566.7656,596.1094 1568.0156,594.7969 1569.75,594.7969 C1570.3281,594.7969 1570.9375,594.9531 1571.4063,595.2031 C1571.8906,595.4844 1572.0625,595.7031 1572.1563,596.1094 C1572.2188,596.5156 1572.25,596.6406 1572.3906,596.7656 C1572.5313,596.9063 1572.7656,597.0156 1572.9844,597.0156 C1573.25,597.0156 1573.5156,596.875 1573.6875,596.6563 C1573.7969,596.5 1573.8281,596.3125 1573.8281,595.8906 L1573.8281,594.4688 C1573.8281,594.0313 1573.8125,593.9063 1573.7188,593.75 C1573.5625,593.4844 1573.2813,593.3438 1572.9844,593.3438 C1572.6875,593.3438 1572.4844,593.4375 1572.2656,593.75 L1572.0938,593.6719 Z " fill="#000000"/><text fill="#000000" font-family="sans-serif" font-size="14" lengthAdjust="spacing" textLength="88" x="1590.25" y="602.8467">GlobalBoard</text><line style="stroke:#181818;stroke-width:0.5;" x1="1430.5" x2="1805.5" y1="614" y2="614"/><rect fill="none" height="6" style="stroke:#C82930;stroke-width:1.0;" width="6" x="1437.5" y="624.6484"/><text fill="#000000" font-family="sans-serif" font-size="14" lengthAdjust="spacing" textLength="206" x="1449.5" y="630.9951">Deck&lt;GameCard&gt; goldDeck</text><rect fill="none" height="6" style="stroke:#C82930;stroke-width:1.0;" width="6" x="1437.5" y="640.9453"/><text fill="#000000" font-family="sans-serif" font-size="14" lengthAdjust="spacing" textLength="237" x="1449.5" y="647.292">Deck&lt;GameCard&gt; resourceDeck</text><rect fill="none" height="6" style="stroke:#C82930;stroke-width:1.0;" width="6" x="1437.5" y="657.2422"/><text fill="#000000" font-family="sans-serif" font-size="14" lengthAdjust="spacing" textLength="271" x="1449.5" y="663.5889">Deck&lt;ObjectiveCard&gt; objectiveDeck</text><rect fill="none" height="6" style="stroke:#C82930;stroke-width:1.0;" width="6" x="1437.5" y="673.5391"/><text fill="#000000" font-family="sans-serif" font-size="14" lengthAdjust="spacing" textLength="225" x="1449.5" y="679.8857">Deck&lt;GameCard&gt; starterDeck</text><rect fill="none" height="6" style="stroke:#C82930;stroke-width:1.0;" width="6" x="1437.5" y="689.8359"/><text fill="#000000" font-family="sans-serif" font-size="14" lengthAdjust="spacing" textLength="314" x="1449.5" y="696.1826">ArrayList&lt;ObjectiveCard&gt; globalObjectives</text><rect fill="none" height="6" style="stroke:#C82930;stroke-width:1.0;" width="6" x="1437.5" y="706.1328"/><text fill="#000000" font-family="sans-serif" font-size="14" lengthAdjust="spacing" textLength="270" x="1449.5" y="712.4795">ArrayList&lt;GameCard&gt; fieldGoldCards</text><rect fill="none" height="6" style="stroke:#C82930;stroke-width:1.0;" width="6" x="1437.5" y="722.4297"/><text fill="#000000" font-family="sans-serif" font-size="14" lengthAdjust="spacing" textLength="303" x="1449.5" y="728.7764">ArrayList&lt;GameCard&gt; fieldResourceCards</text><line style="stroke:#181818;stroke-width:0.5;" x1="1430.5" x2="1805.5" y1="736.0781" y2="736.0781"/><ellipse cx="1440.5" cy="749.7266" fill="#84BE84" rx="3" ry="3" style="stroke:#038048;stroke-width:1.0;"/><text fill="#000000" font-family="sans-serif" font-size="14" lengthAdjust="spacing" textLength="243" x="1449.5" y="753.0732">Deck&lt;GameCard&gt; getGoldDeck()</text><ellipse cx="1440.5" cy="766.0234" fill="#84BE84" rx="3" ry="3" style="stroke:#038048;stroke-width:1.0;"/><text fill="#000000" font-family="sans-serif" font-size="14" lengthAdjust="spacing" textLength="276" x="1449.5" y="769.3701">Deck&lt;GameCard&gt; getResourceDeck()</text><ellipse cx="1440.5" cy="782.3203" fill="#84BE84" rx="3" ry="3" style="stroke:#038048;stroke-width:1.0;"/><text fill="#000000" font-family="sans-serif" font-size="14" lengthAdjust="spacing" textLength="308" x="1449.5" y="785.667">Deck&lt;ObjectiveCard&gt; getObjectiveDeck()</text><ellipse cx="1440.5" cy="798.6172" fill="#84BE84" rx="3" ry="3" style="stroke:#038048;stroke-width:1.0;"/><text fill="#000000" font-family="sans-serif" font-size="14" lengthAdjust="spacing" textLength="262" x="1449.5" y="801.9639">Deck&lt;GameCard&gt; getStarterDeck()</text><ellipse cx="1440.5" cy="814.9141" fill="#84BE84" rx="3" ry="3" style="stroke:#038048;stroke-width:1.0;"/><text fill="#000000" font-family="sans-serif" font-size="14" lengthAdjust="spacing" textLength="351" x="1449.5" y="818.2607">ArrayList&lt;ObjectiveCard&gt; getGlobalObjectives()</text><ellipse cx="1440.5" cy="831.2109" fill="#84BE84" rx="3" ry="3" style="stroke:#038048;stroke-width:1.0;"/><text fill="#000000" font-family="sans-serif" font-size="14" lengthAdjust="spacing" textLength="307" x="1449.5" y="834.5576">ArrayList&lt;GameCard&gt; getFieldGoldCards()</text><ellipse cx="1440.5" cy="847.5078" fill="#84BE84" rx="3" ry="3" style="stroke:#038048;stroke-width:1.0;"/><text fill="#000000" font-family="sans-serif" font-size="14" lengthAdjust="spacing" textLength="340" x="1449.5" y="850.8545">ArrayList&lt;GameCard&gt; getFieldResourceCards()</text><ellipse cx="1440.5" cy="863.8047" fill="#84BE84" rx="3" ry="3" style="stroke:#038048;stroke-width:1.0;"/><text fill="#000000" font-family="sans-serif" font-size="14" lengthAdjust="spacing" textLength="201" x="1449.5" y="867.1514">boolean isGoldDeckEmpty()</text><ellipse cx="1440.5" cy="880.1016" fill="#84BE84" rx="3" ry="3" style="stroke:#038048;stroke-width:1.0;"/><text fill="#000000" font-family="sans-serif" font-size="14" lengthAdjust="spacing" textLength="234" x="1449.5" y="883.4482">boolean isResourceDeckEmpty()</text><ellipse cx="1440.5" cy="896.3984" fill="#84BE84" rx="3" ry="3" style="stroke:#038048;stroke-width:1.0;"/><text fill="#000000" font-family="sans-serif" font-size="14" lengthAdjust="spacing" textLength="258" x="1449.5" y="899.7451">drawCardFromField(GameCard card)</text></g><!--class Deck--><g id="elem_Deck"><rect codeLine="79" fill="#F1F1F1" height="113.1875" id="Deck" rx="2.5" ry="2.5" style="stroke:#181818;stroke-width:0.5;" width="160" x="1748" y="991.5"/><ellipse cx="1799.75" cy="1007.5" fill="#ADD1B2" rx="11" ry="11" style="stroke:#181818;stroke-width:1.0;"/><path d="M1802.0938,1003.1719 C1801.1563,1002.7344 1800.5625,1002.5938 1799.6875,1002.5938 C1797.0625,1002.5938 1795.0625,1004.6719 1795.0625,1007.3906 L1795.0625,1008.5156 C1795.0625,1011.0938 1797.1719,1012.9844 1800.0625,1012.9844 C1801.2813,1012.9844 1802.4375,1012.6875 1803.1875,1012.1406 C1803.7656,1011.7344 1804.0938,1011.2813 1804.0938,1010.8906 C1804.0938,1010.4375 1803.7031,1010.0469 1803.2344,1010.0469 C1803.0156,1010.0469 1802.8125,1010.125 1802.625,1010.3125 C1802.1719,1010.7969 1802.1719,1010.7969 1801.9844,1010.8906 C1801.5625,1011.1563 1800.875,1011.2813 1800.1094,1011.2813 C1798.0625,1011.2813 1796.7656,1010.1875 1796.7656,1008.4844 L1796.7656,1007.3906 C1796.7656,1005.6094 1798.0156,1004.2969 1799.75,1004.2969 C1800.3281,1004.2969 1800.9375,1004.4531 1801.4063,1004.7031 C1801.8906,1004.9844 1802.0625,1005.2031 1802.1563,1005.6094 C1802.2188,1006.0156 1802.25,1006.1406 1802.3906,1006.2656 C1802.5313,1006.4063 1802.7656,1006.5156 1802.9844,1006.5156 C1803.25,1006.5156 1803.5156,1006.375 1803.6875,1006.1563 C1803.7969,1006 1803.8281,1005.8125 1803.8281,1005.3906 L1803.8281,1003.9688 C1803.8281,1003.5313 1803.8125,1003.4063 1803.7188,1003.25 C1803.5625,1002.9844 1803.2813,1002.8438 1802.9844,1002.8438 C1802.6875,1002.8438 1802.4844,1002.9375 1802.2656,1003.25 L1802.0938,1003.1719 Z " fill="#000000"/><text fill="#000000" font-family="sans-serif" font-size="14" lengthAdjust="spacing" textLength="37" x="1820.25" y="1012.3467">Deck</text><rect fill="#FFFFFF" height="15.9688" style="stroke:#181818;stroke-width:1.0;stroke-dasharray:2.0,2.0;" width="9" x="1902" y="988.5"/><text fill="#000000" font-family="sans-serif" font-size="12" font-style="italic" lengthAdjust="spacing" textLength="7" x="1903" y="1000.6387">T</text><line style="stroke:#181818;stroke-width:0.5;" x1="1749" x2="1907" y1="1023.5" y2="1023.5"/><rect fill="none" height="6" style="stroke:#C82930;stroke-width:1.0;" width="6" x="1756" y="1034.1484"/><text fill="#000000" font-family="sans-serif" font-size="14" lengthAdjust="spacing" textLength="134" x="1768" y="1040.4951">ArrayList&lt;T&gt; deck</text><rect fill="none" height="6" style="stroke:#C82930;stroke-width:1.0;" width="6" x="1756" y="1050.4453"/><text fill="#000000" font-family="sans-serif" font-size="14" lengthAdjust="spacing" textLength="123" x="1768" y="1056.792">Random random;</text><line style="stroke:#181818;stroke-width:0.5;" x1="1749" x2="1907" y1="1064.0938" y2="1064.0938"/><ellipse cx="1759" cy="1077.7422" fill="#84BE84" rx="3" ry="3" style="stroke:#038048;stroke-width:1.0;"/><text fill="#000000" font-family="sans-serif" font-size="14" lengthAdjust="spacing" textLength="131" x="1768" y="1081.0889">boolean isEmpty()</text><ellipse cx="1759" cy="1094.0391" fill="#84BE84" rx="3" ry="3" style="stroke:#038048;stroke-width:1.0;"/><text fill="#000000" font-family="sans-serif" font-size="14" lengthAdjust="spacing" textLength="57" x="1768" y="1097.3857">T draw()</text></g><!--class PlayerBoard--><g id="elem_PlayerBoard"><rect codeLine="96" fill="#F1F1F1" height="162.0781" id="PlayerBoard" rx="2.5" ry="2.5" style="stroke:#181818;stroke-width:0.5;" width="337" x="735.5" y="967"/><ellipse cx="856.75" cy="983" fill="#ADD1B2" rx="11" ry="11" style="stroke:#181818;stroke-width:1.0;"/><path d="M859.0938,978.6719 C858.1563,978.2344 857.5625,978.0938 856.6875,978.0938 C854.0625,978.0938 852.0625,980.1719 852.0625,982.8906 L852.0625,984.0156 C852.0625,986.5938 854.1719,988.4844 857.0625,988.4844 C858.2813,988.4844 859.4375,988.1875 860.1875,987.6406 C860.7656,987.2344 861.0938,986.7813 861.0938,986.3906 C861.0938,985.9375 860.7031,985.5469 860.2344,985.5469 C860.0156,985.5469 859.8125,985.625 859.625,985.8125 C859.1719,986.2969 859.1719,986.2969 858.9844,986.3906 C858.5625,986.6563 857.875,986.7813 857.1094,986.7813 C855.0625,986.7813 853.7656,985.6875 853.7656,983.9844 L853.7656,982.8906 C853.7656,981.1094 855.0156,979.7969 856.75,979.7969 C857.3281,979.7969 857.9375,979.9531 858.4063,980.2031 C858.8906,980.4844 859.0625,980.7031 859.1563,981.1094 C859.2188,981.5156 859.25,981.6406 859.3906,981.7656 C859.5313,981.9063 859.7656,982.0156 859.9844,982.0156 C860.25,982.0156 860.5156,981.875 860.6875,981.6563 C860.7969,981.5 860.8281,981.3125 860.8281,980.8906 L860.8281,979.4688 C860.8281,979.0313 860.8125,978.9063 860.7188,978.75 C860.5625,978.4844 860.2813,978.3438 859.9844,978.3438 C859.6875,978.3438 859.4844,978.4375 859.2656,978.75 L859.0938,978.6719 Z " fill="#000000"/><text fill="#000000" font-family="sans-serif" font-size="14" lengthAdjust="spacing" textLength="86" x="877.25" y="987.8467">PlayerBoard</text><line style="stroke:#181818;stroke-width:0.5;" x1="736.5" x2="1071.5" y1="999" y2="999"/><rect fill="none" height="6" style="stroke:#C82930;stroke-width:1.0;" width="6" x="743.5" y="1009.6484"/><text fill="#000000" font-family="sans-serif" font-size="14" lengthAdjust="spacing" textLength="298" x="755.5" y="1015.9951">HashMap&lt;Point, GameCard&gt; playerBoard</text><rect fill="none" height="6" style="stroke:#C82930;stroke-width:1.0;" width="6" x="743.5" y="1025.9453"/><text fill="#000000" font-family="sans-serif" font-size="14" lengthAdjust="spacing" textLength="201" x="755.5" y="1032.292">GameItemStore gameItems</text><line style="stroke:#181818;stroke-width:0.5;" x1="736.5" x2="1071.5" y1="1039.5938" y2="1039.5938"/><ellipse cx="746.5" cy="1053.2422" fill="#84BE84" rx="3" ry="3" style="stroke:#038048;stroke-width:1.0;"/><text fill="#000000" font-family="sans-serif" font-size="14" lengthAdjust="spacing" textLength="311" x="755.5" y="1056.5889">Optional&lt;GameCard&gt; getGameCard(Point)</text><ellipse cx="746.5" cy="1069.5391" fill="#84BE84" rx="3" ry="3" style="stroke:#038048;stroke-width:1.0;"/><text fill="#000000" font-family="sans-serif" font-size="14" lengthAdjust="spacing" textLength="285" x="755.5" y="1072.8857">Point getGameCardPosition(GameCard)</text><ellipse cx="746.5" cy="1085.8359" fill="#84BE84" rx="3" ry="3" style="stroke:#038048;stroke-width:1.0;"/><text fill="#000000" font-family="sans-serif" font-size="14" lengthAdjust="spacing" textLength="282" x="755.5" y="1089.1826">ArrayList&lt;GameCard&gt; getGameCards()</text><ellipse cx="746.5" cy="1102.1328" fill="#84BE84" rx="3" ry="3" style="stroke:#038048;stroke-width:1.0;"/><text fill="#000000" font-family="sans-serif" font-size="14" lengthAdjust="spacing" textLength="301" x="755.5" y="1105.4795">Integer getGameItemAmount(GameItem)</text><ellipse cx="746.5" cy="1118.4297" fill="#84BE84" rx="3" ry="3" style="stroke:#038048;stroke-width:1.0;"/><text fill="#000000" font-family="sans-serif" font-size="14" lengthAdjust="spacing" textLength="263" x="755.5" y="1121.7764">void setGameCard(Point, GameCard)</text></g><!--class Hand--><g id="elem_Hand"><rect codeLine="87" fill="#F1F1F1" height="113.1875" id="Hand" rx="2.5" ry="2.5" style="stroke:#181818;stroke-width:0.5;" width="308" x="1108" y="991.5"/><ellipse cx="1239.75" cy="1007.5" fill="#ADD1B2" rx="11" ry="11" style="stroke:#181818;stroke-width:1.0;"/><path d="M1242.0938,1003.1719 C1241.1563,1002.7344 1240.5625,1002.5938 1239.6875,1002.5938 C1237.0625,1002.5938 1235.0625,1004.6719 1235.0625,1007.3906 L1235.0625,1008.5156 C1235.0625,1011.0938 1237.1719,1012.9844 1240.0625,1012.9844 C1241.2813,1012.9844 1242.4375,1012.6875 1243.1875,1012.1406 C1243.7656,1011.7344 1244.0938,1011.2813 1244.0938,1010.8906 C1244.0938,1010.4375 1243.7031,1010.0469 1243.2344,1010.0469 C1243.0156,1010.0469 1242.8125,1010.125 1242.625,1010.3125 C1242.1719,1010.7969 1242.1719,1010.7969 1241.9844,1010.8906 C1241.5625,1011.1563 1240.875,1011.2813 1240.1094,1011.2813 C1238.0625,1011.2813 1236.7656,1010.1875 1236.7656,1008.4844 L1236.7656,1007.3906 C1236.7656,1005.6094 1238.0156,1004.2969 1239.75,1004.2969 C1240.3281,1004.2969 1240.9375,1004.4531 1241.4063,1004.7031 C1241.8906,1004.9844 1242.0625,1005.2031 1242.1563,1005.6094 C1242.2188,1006.0156 1242.25,1006.1406 1242.3906,1006.2656 C1242.5313,1006.4063 1242.7656,1006.5156 1242.9844,1006.5156 C1243.25,1006.5156 1243.5156,1006.375 1243.6875,1006.1563 C1243.7969,1006 1243.8281,1005.8125 1243.8281,1005.3906 L1243.8281,1003.9688 C1243.8281,1003.5313 1243.8125,1003.4063 1243.7188,1003.25 C1243.5625,1002.9844 1243.2813,1002.8438 1242.9844,1002.8438 C1242.6875,1002.8438 1242.4844,1002.9375 1242.2656,1003.25 L1242.0938,1003.1719 Z " fill="#000000"/><text fill="#000000" font-family="sans-serif" font-size="14" lengthAdjust="spacing" textLength="36" x="1260.25" y="1012.3467">Hand</text><line style="stroke:#181818;stroke-width:0.5;" x1="1109" x2="1415" y1="1023.5" y2="1023.5"/><rect fill="none" height="6" style="stroke:#C82930;stroke-width:1.0;" width="6" x="1116" y="1034.1484"/><text fill="#000000" font-family="sans-serif" font-size="14" lengthAdjust="spacing" textLength="200" x="1128" y="1040.4951">ArrayList&lt;GameCard&gt; hand</text><line style="stroke:#181818;stroke-width:0.5;" x1="1109" x2="1415" y1="1047.7969" y2="1047.7969"/><ellipse cx="1119" cy="1061.4453" fill="#84BE84" rx="3" ry="3" style="stroke:#038048;stroke-width:1.0;"/><text fill="#000000" font-family="sans-serif" font-size="14" lengthAdjust="spacing" textLength="282" x="1128" y="1064.792">ArrayList&lt;GameCard&gt; getGameCards()</text><ellipse cx="1119" cy="1077.7422" fill="#84BE84" rx="3" ry="3" style="stroke:#038048;stroke-width:1.0;"/><text fill="#000000" font-family="sans-serif" font-size="14" lengthAdjust="spacing" textLength="178" x="1128" y="1081.0889">void addCard(GameCard)</text><ellipse cx="1119" cy="1094.0391" fill="#84BE84" rx="3" ry="3" style="stroke:#038048;stroke-width:1.0;"/><text fill="#000000" font-family="sans-serif" font-size="14" lengthAdjust="spacing" textLength="207" x="1128" y="1097.3857">void removeCard(GameCard)</text></g><!--class GameCard--><g id="elem_GameCard"><rect codeLine="127" fill="#F1F1F1" height="227.2656" id="GameCard" rx="2.5" ry="2.5" style="stroke:#181818;stroke-width:0.5;" width="395" x="404.5" y="1189"/><ellipse cx="560.25" cy="1205" fill="#ADD1B2" rx="11" ry="11" style="stroke:#181818;stroke-width:1.0;"/><path d="M562.5938,1200.6719 C561.6563,1200.2344 561.0625,1200.0938 560.1875,1200.0938 C557.5625,1200.0938 555.5625,1202.1719 555.5625,1204.8906 L555.5625,1206.0156 C555.5625,1208.5938 557.6719,1210.4844 560.5625,1210.4844 C561.7813,1210.4844 562.9375,1210.1875 563.6875,1209.6406 C564.2656,1209.2344 564.5938,1208.7813 564.5938,1208.3906 C564.5938,1207.9375 564.2031,1207.5469 563.7344,1207.5469 C563.5156,1207.5469 563.3125,1207.625 563.125,1207.8125 C562.6719,1208.2969 562.6719,1208.2969 562.4844,1208.3906 C562.0625,1208.6563 561.375,1208.7813 560.6094,1208.7813 C558.5625,1208.7813 557.2656,1207.6875 557.2656,1205.9844 L557.2656,1204.8906 C557.2656,1203.1094 558.5156,1201.7969 560.25,1201.7969 C560.8281,1201.7969 561.4375,1201.9531 561.9063,1202.2031 C562.3906,1202.4844 562.5625,1202.7031 562.6563,1203.1094 C562.7188,1203.5156 562.75,1203.6406 562.8906,1203.7656 C563.0313,1203.9063 563.2656,1204.0156 563.4844,1204.0156 C563.75,1204.0156 564.0156,1203.875 564.1875,1203.6563 C564.2969,1203.5 564.3281,1203.3125 564.3281,1202.8906 L564.3281,1201.4688 C564.3281,1201.0313 564.3125,1200.9063 564.2188,1200.75 C564.0625,1200.4844 563.7813,1200.3438 563.4844,1200.3438 C563.1875,1200.3438 562.9844,1200.4375 562.7656,1200.75 L562.5938,1200.6719 Z " fill="#000000"/><text fill="#000000" font-family="sans-serif" font-size="14" lengthAdjust="spacing" textLength="75" x="580.75" y="1209.8467">GameCard</text><line style="stroke:#181818;stroke-width:0.5;" x1="405.5" x2="798.5" y1="1221" y2="1221"/><rect fill="none" height="6" style="stroke:#C82930;stroke-width:1.0;" width="6" x="412.5" y="1231.6484"/><text fill="#000000" font-family="sans-serif" font-size="14" lengthAdjust="spacing" textLength="119" x="424.5" y="1237.9951">Side currentSide</text><rect fill="none" height="6" style="stroke:#C82930;stroke-width:1.0;" width="6" x="412.5" y="1247.9453"/><text fill="#000000" font-family="sans-serif" font-size="14" lengthAdjust="spacing" textLength="106" x="424.5" y="1254.292">Side otherSide</text><rect fill="none" height="6" style="stroke:#C82930;stroke-width:1.0;" width="6" x="412.5" y="1264.2422"/><text fill="#000000" font-family="sans-serif" font-size="14" lengthAdjust="spacing" textLength="142" x="424.5" y="1270.5889">cardColor cardColor</text><line style="stroke:#181818;stroke-width:0.5;" x1="405.5" x2="798.5" y1="1277.8906" y2="1277.8906"/><ellipse cx="415.5" cy="1291.5391" fill="#84BE84" rx="3" ry="3" style="stroke:#038048;stroke-width:1.0;"/><text fill="#000000" font-family="sans-serif" font-size="14" lengthAdjust="spacing" textLength="156" x="424.5" y="1294.8857">Side getCurrentSide()</text><ellipse cx="415.5" cy="1307.8359" fill="#84BE84" rx="3" ry="3" style="stroke:#038048;stroke-width:1.0;"/><text fill="#000000" font-family="sans-serif" font-size="14" lengthAdjust="spacing" textLength="121" x="424.5" y="1311.1826">void switchSide()</text><ellipse cx="415.5" cy="1324.1328" fill="#84BE84" rx="3" ry="3" style="stroke:#038048;stroke-width:1.0;"/><text fill="#000000" font-family="sans-serif" font-size="14" lengthAdjust="spacing" textLength="181" x="424.5" y="1327.4795">CardColor getCardColor()</text><ellipse cx="415.5" cy="1340.4297" fill="#84BE84" rx="3" ry="3" style="stroke:#038048;stroke-width:1.0;"/><text fill="#000000" font-family="sans-serif" font-size="14" lengthAdjust="spacing" textLength="324" x="424.5" y="1343.7764">Optional&lt;Corner&gt;getCorner(CornerPosition)</text><ellipse cx="415.5" cy="1356.7266" fill="#84BE84" rx="3" ry="3" style="stroke:#038048;stroke-width:1.0;"/><text fill="#000000" font-family="sans-serif" font-size="14" lengthAdjust="spacing" textLength="369" x="424.5" y="1360.0732">GameItemEnum setCornerCovered(CornerPosition)</text><ellipse cx="415.5" cy="1373.0234" fill="#84BE84" rx="3" ry="3" style="stroke:#038048;stroke-width:1.0;"/><text fill="#000000" font-family="sans-serif" font-size="14" lengthAdjust="spacing" textLength="271" x="424.5" y="1376.3701">GameItemStore getGameItemStore()</text><ellipse cx="415.5" cy="1389.3203" fill="#84BE84" rx="3" ry="3" style="stroke:#038048;stroke-width:1.0;"/><text fill="#000000" font-family="sans-serif" font-size="14" lengthAdjust="spacing" textLength="236" x="424.5" y="1392.667">int getPoints(Point, PlayerBoard)</text><ellipse cx="415.5" cy="1405.6172" fill="#84BE84" rx="3" ry="3" style="stroke:#038048;stroke-width:1.0;"/><text fill="#000000" font-family="sans-serif" font-size="14" lengthAdjust="spacing" textLength="284" x="424.5" y="1408.9639">GameItemStore getNeededItemStore()</text></g><!--class Store--><g id="elem_Store"><rect codeLine="108" fill="#F1F1F1" height="145.7813" id="Store" rx="2.5" ry="2.5" style="stroke:#181818;stroke-width:0.5;" width="224" x="854" y="1229.5"/><ellipse cx="936.25" cy="1245.5" fill="#ADD1B2" rx="11" ry="11" style="stroke:#181818;stroke-width:1.0;"/><path d="M938.5938,1241.1719 C937.6563,1240.7344 937.0625,1240.5938 936.1875,1240.5938 C933.5625,1240.5938 931.5625,1242.6719 931.5625,1245.3906 L931.5625,1246.5156 C931.5625,1249.0938 933.6719,1250.9844 936.5625,1250.9844 C937.7813,1250.9844 938.9375,1250.6875 939.6875,1250.1406 C940.2656,1249.7344 940.5938,1249.2813 940.5938,1248.8906 C940.5938,1248.4375 940.2031,1248.0469 939.7344,1248.0469 C939.5156,1248.0469 939.3125,1248.125 939.125,1248.3125 C938.6719,1248.7969 938.6719,1248.7969 938.4844,1248.8906 C938.0625,1249.1563 937.375,1249.2813 936.6094,1249.2813 C934.5625,1249.2813 933.2656,1248.1875 933.2656,1246.4844 L933.2656,1245.3906 C933.2656,1243.6094 934.5156,1242.2969 936.25,1242.2969 C936.8281,1242.2969 937.4375,1242.4531 937.9063,1242.7031 C938.3906,1242.9844 938.5625,1243.2031 938.6563,1243.6094 C938.7188,1244.0156 938.75,1244.1406 938.8906,1244.2656 C939.0313,1244.4063 939.2656,1244.5156 939.4844,1244.5156 C939.75,1244.5156 940.0156,1244.375 940.1875,1244.1563 C940.2969,1244 940.3281,1243.8125 940.3281,1243.3906 L940.3281,1241.9688 C940.3281,1241.5313 940.3125,1241.4063 940.2188,1241.25 C940.0625,1240.9844 939.7813,1240.8438 939.4844,1240.8438 C939.1875,1240.8438 938.9844,1240.9375 938.7656,1241.25 L938.5938,1241.1719 Z " fill="#000000"/><text fill="#000000" font-family="sans-serif" font-size="14" lengthAdjust="spacing" textLength="40" x="956.75" y="1250.3467">Store</text><rect fill="#FFFFFF" height="15.9688" style="stroke:#181818;stroke-width:1.0;stroke-dasharray:2.0,2.0;" width="9" x="1072" y="1226.5"/><text fill="#000000" font-family="sans-serif" font-size="12" font-style="italic" lengthAdjust="spacing" textLength="7" x="1073" y="1238.6387">T</text><line style="stroke:#181818;stroke-width:0.5;" x1="855" x2="1077" y1="1261.5" y2="1261.5"/><polygon fill="none" points="865,1270.1484,869,1274.1484,865,1278.1484,861,1274.1484" style="stroke:#B38D22;stroke-width:1.0;"/><text fill="#000000" font-family="sans-serif" font-size="14" lengthAdjust="spacing" textLength="198" x="874" y="1278.4951">HashMap&lt;T, Integer&gt; store</text><line style="stroke:#181818;stroke-width:0.5;" x1="855" x2="1077" y1="1285.7969" y2="1285.7969"/><ellipse cx="865" cy="1299.4453" fill="#84BE84" rx="3" ry="3" style="stroke:#038048;stroke-width:1.0;"/><text fill="#000000" font-family="sans-serif" font-size="14" lengthAdjust="spacing" textLength="55" x="874" y="1302.792">get(T t)</text><ellipse cx="865" cy="1315.7422" fill="#84BE84" rx="3" ry="3" style="stroke:#038048;stroke-width:1.0;"/><text fill="#000000" font-family="sans-serif" font-size="14" lengthAdjust="spacing" textLength="114" x="874" y="1319.0889">set(T t, Integer)</text><ellipse cx="865" cy="1332.0391" fill="#84BE84" rx="3" ry="3" style="stroke:#038048;stroke-width:1.0;"/><text fill="#000000" font-family="sans-serif" font-size="14" lengthAdjust="spacing" textLength="166" x="874" y="1335.3857">increment(T t, Integer)</text><ellipse cx="865" cy="1348.3359" fill="#84BE84" rx="3" ry="3" style="stroke:#038048;stroke-width:1.0;"/><text fill="#000000" font-family="sans-serif" font-size="14" lengthAdjust="spacing" textLength="171" x="874" y="1351.6826">decrement(T t, Integer)</text><ellipse cx="865" cy="1364.6328" fill="#84BE84" rx="3" ry="3" style="stroke:#038048;stroke-width:1.0;"/><text fill="#000000" font-family="sans-serif" font-size="14" lengthAdjust="spacing" textLength="145" x="874" y="1367.9795">getNonEmptyKeys()</text></g><!--class GameItemStore--><g id="elem_GameItemStore"><rect codeLine="117" fill="#F1F1F1" height="80.5938" id="GameItemStore" rx="2.5" ry="2.5" style="stroke:#181818;stroke-width:0.5;" width="460" x="773" y="1533"/><ellipse cx="940.75" cy="1549" fill="#ADD1B2" rx="11" ry="11" style="stroke:#181818;stroke-width:1.0;"/><path d="M943.0938,1544.6719 C942.1563,1544.2344 941.5625,1544.0938 940.6875,1544.0938 C938.0625,1544.0938 936.0625,1546.1719 936.0625,1548.8906 L936.0625,1550.0156 C936.0625,1552.5938 938.1719,1554.4844 941.0625,1554.4844 C942.2813,1554.4844 943.4375,1554.1875 944.1875,1553.6406 C944.7656,1553.2344 945.0938,1552.7813 945.0938,1552.3906 C945.0938,1551.9375 944.7031,1551.5469 944.2344,1551.5469 C944.0156,1551.5469 943.8125,1551.625 943.625,1551.8125 C943.1719,1552.2969 943.1719,1552.2969 942.9844,1552.3906 C942.5625,1552.6563 941.875,1552.7813 941.1094,1552.7813 C939.0625,1552.7813 937.7656,1551.6875 937.7656,1549.9844 L937.7656,1548.8906 C937.7656,1547.1094 939.0156,1545.7969 940.75,1545.7969 C941.3281,1545.7969 941.9375,1545.9531 942.4063,1546.2031 C942.8906,1546.4844 943.0625,1546.7031 943.1563,1547.1094 C943.2188,1547.5156 943.25,1547.6406 943.3906,1547.7656 C943.5313,1547.9063 943.7656,1548.0156 943.9844,1548.0156 C944.25,1548.0156 944.5156,1547.875 944.6875,1547.6563 C944.7969,1547.5 944.8281,1547.3125 944.8281,1546.8906 L944.8281,1545.4688 C944.8281,1545.0313 944.8125,1544.9063 944.7188,1544.75 C944.5625,1544.4844 944.2813,1544.3438 943.9844,1544.3438 C943.6875,1544.3438 943.4844,1544.4375 943.2656,1544.75 L943.0938,1544.6719 Z " fill="#000000"/><text fill="#000000" font-family="sans-serif" font-size="14" lengthAdjust="spacing" textLength="116" x="961.25" y="1553.8467">GameItemStore</text><line style="stroke:#181818;stroke-width:0.5;" x1="774" x2="1232" y1="1565" y2="1565"/><line style="stroke:#181818;stroke-width:0.5;" x1="774" x2="1232" y1="1573" y2="1573"/><ellipse cx="784" cy="1586.6484" fill="#84BE84" rx="3" ry="3" style="stroke:#038048;stroke-width:1.0;"/><text fill="#000000" font-family="sans-serif" font-size="14" lengthAdjust="spacing" textLength="126" x="793" y="1589.9951">GameItemStore()</text><ellipse cx="784" cy="1602.9453" fill="#84BE84" rx="3" ry="3" style="stroke:#038048;stroke-width:1.0;"/><text fill="#000000" font-family="sans-serif" font-size="14" lengthAdjust="spacing" textLength="434" x="793" y="1606.292">GameItemStore(HashMap&lt;GameItem, Integer&gt; gameItems)</text></g><!--class Side--><g id="elem_Side"><rect codeLine="143" fill="#F1F1F1" height="194.6719" id="Side" rx="2.5" ry="2.5" style="stroke:#181818;stroke-width:0.5;" width="310" x="428" y="1476"/><ellipse cx="563.25" cy="1492" fill="#A9DCDF" rx="11" ry="11" style="stroke:#181818;stroke-width:1.0;"/><path d="M565.3281,1493.8125 L565.7188,1494.7969 L565.3281,1494.7969 C564.875,1494.7969 564.7656,1494.8125 564.6094,1494.9219 C564.3594,1495.0781 564.2031,1495.3594 564.2031,1495.6563 C564.2031,1495.9219 564.3438,1496.1719 564.5625,1496.3281 C564.7031,1496.4531 564.9063,1496.5 565.3281,1496.5 L567.6875,1496.5 C568.0469,1496.5 568.2656,1496.4688 568.4063,1496.375 C568.6563,1496.2344 568.8125,1495.9375 568.8125,1495.6563 C568.8125,1495.375 568.6719,1495.125 568.4531,1494.9688 C568.2813,1494.8281 568.125,1494.7969 567.6563,1494.7969 L564.2656,1486.5938 L560.5938,1486.5938 C560.1406,1486.5938 560.0156,1486.6094 559.8594,1486.7031 C559.6094,1486.875 559.4531,1487.1563 559.4531,1487.4375 C559.4531,1487.7188 559.5938,1487.9688 559.8125,1488.1406 C559.9844,1488.25 560.1563,1488.2813 560.5938,1488.2813 L561.6719,1488.2813 L559.0313,1494.7969 C558.6094,1494.7969 558.4531,1494.8125 558.2969,1494.9219 C558.0469,1495.0781 557.8906,1495.3594 557.8906,1495.6563 C557.8906,1496.2188 558.2656,1496.5 559.0156,1496.5 L561.2813,1496.5 C561.6406,1496.5 561.8594,1496.4688 561.9844,1496.375 C562.25,1496.2344 562.3906,1495.9375 562.3906,1495.6563 C562.3906,1495.375 562.2656,1495.125 562.0469,1494.9531 C561.875,1494.8281 561.7344,1494.7969 561.2813,1494.7969 L560.8906,1494.7969 L561.2813,1493.8125 L565.3281,1493.8125 Z M564.625,1492.1094 L561.9531,1492.1094 L563.2969,1488.8438 L564.625,1492.1094 Z " fill="#000000"/><text fill="#000000" font-family="sans-serif" font-size="14" font-style="italic" lengthAdjust="spacing" textLength="31" x="583.75" y="1496.8467">Side</text><line style="stroke:#181818;stroke-width:0.5;" x1="429" x2="737" y1="1508" y2="1508"/><polygon fill="none" points="439,1516.6484,443,1520.6484,439,1524.6484,435,1520.6484" style="stroke:#B38D22;stroke-width:1.0;"/><text fill="#000000" font-family="sans-serif" font-size="14" lengthAdjust="spacing" textLength="198" x="448" y="1524.9951">Optional&lt;Corner&gt;topRight</text><polygon fill="none" points="439,1532.9453,443,1536.9453,439,1540.9453,435,1536.9453" style="stroke:#B38D22;stroke-width:1.0;"/><text fill="#000000" font-family="sans-serif" font-size="14" lengthAdjust="spacing" textLength="189" x="448" y="1541.292">Optional&lt;Corner&gt;topLeft</text><polygon fill="none" points="439,1549.2422,443,1553.2422,439,1557.2422,435,1553.2422" style="stroke:#B38D22;stroke-width:1.0;"/><text fill="#000000" font-family="sans-serif" font-size="14" lengthAdjust="spacing" textLength="219" x="448" y="1557.5889">Optional&lt;Corner&gt;bottomLeft</text><polygon fill="none" points="439,1565.5391,443,1569.5391,439,1573.5391,435,1569.5391" style="stroke:#B38D22;stroke-width:1.0;"/><text fill="#000000" font-family="sans-serif" font-size="14" lengthAdjust="spacing" textLength="228" x="448" y="1573.8857">Optional&lt;Corner&gt;bottomRight</text><line style="stroke:#181818;stroke-width:0.5;" x1="429" x2="737" y1="1581.1875" y2="1581.1875"/><ellipse cx="439" cy="1594.8359" fill="#84BE84" rx="3" ry="3" style="stroke:#038048;stroke-width:1.0;"/><text fill="#000000" font-family="sans-serif" font-size="14" lengthAdjust="spacing" textLength="191" x="448" y="1598.1826">getCorner(CornerPosition)</text><ellipse cx="439" cy="1611.1328" fill="#84BE84" rx="3" ry="3" style="stroke:#038048;stroke-width:1.0;"/><text fill="#000000" font-family="sans-serif" font-size="14" lengthAdjust="spacing" textLength="249" x="448" y="1614.4795">setCornerCovered(CornerPosition)</text><ellipse cx="439" cy="1627.4297" fill="#84BE84" rx="3" ry="3" style="stroke:#038048;stroke-width:1.0;"/><text fill="#000000" font-family="sans-serif" font-size="14" lengthAdjust="spacing" textLength="271" x="448" y="1630.7764">GameItemStore getGameItemStore()</text><ellipse cx="439" cy="1643.7266" fill="#84BE84" rx="3" ry="3" style="stroke:#038048;stroke-width:1.0;"/><text fill="#000000" font-family="sans-serif" font-size="14" lengthAdjust="spacing" textLength="236" x="448" y="1647.0732">int getPoints(Point, PlayerBoard)</text><ellipse cx="439" cy="1660.0234" fill="#84BE84" rx="3" ry="3" style="stroke:#038048;stroke-width:1.0;"/><text fill="#000000" font-family="sans-serif" font-size="14" lengthAdjust="spacing" textLength="284" x="448" y="1663.3701">GameItemStore getNeededItemStore()</text></g><!--class Front--><g id="elem_Front"><rect codeLine="179" fill="#F1F1F1" height="96.8906" id="Front" rx="2.5" ry="2.5" style="stroke:#181818;stroke-width:0.5;" width="262" x="155" y="1747"/><ellipse cx="262.25" cy="1763" fill="#ADD1B2" rx="11" ry="11" style="stroke:#181818;stroke-width:1.0;"/><path d="M264.5938,1758.6719 C263.6563,1758.2344 263.0625,1758.0938 262.1875,1758.0938 C259.5625,1758.0938 257.5625,1760.1719 257.5625,1762.8906 L257.5625,1764.0156 C257.5625,1766.5938 259.6719,1768.4844 262.5625,1768.4844 C263.7813,1768.4844 264.9375,1768.1875 265.6875,1767.6406 C266.2656,1767.2344 266.5938,1766.7813 266.5938,1766.3906 C266.5938,1765.9375 266.2031,1765.5469 265.7344,1765.5469 C265.5156,1765.5469 265.3125,1765.625 265.125,1765.8125 C264.6719,1766.2969 264.6719,1766.2969 264.4844,1766.3906 C264.0625,1766.6563 263.375,1766.7813 262.6094,1766.7813 C260.5625,1766.7813 259.2656,1765.6875 259.2656,1763.9844 L259.2656,1762.8906 C259.2656,1761.1094 260.5156,1759.7969 262.25,1759.7969 C262.8281,1759.7969 263.4375,1759.9531 263.9063,1760.2031 C264.3906,1760.4844 264.5625,1760.7031 264.6563,1761.1094 C264.7188,1761.5156 264.75,1761.6406 264.8906,1761.7656 C265.0313,1761.9063 265.2656,1762.0156 265.4844,1762.0156 C265.75,1762.0156 266.0156,1761.875 266.1875,1761.6563 C266.2969,1761.5 266.3281,1761.3125 266.3281,1760.8906 L266.3281,1759.4688 C266.3281,1759.0313 266.3125,1758.9063 266.2188,1758.75 C266.0625,1758.4844 265.7813,1758.3438 265.4844,1758.3438 C265.1875,1758.3438 264.9844,1758.4375 264.7656,1758.75 L264.5938,1758.6719 Z " fill="#000000"/><text fill="#000000" font-family="sans-serif" font-size="14" lengthAdjust="spacing" textLength="39" x="282.75" y="1767.8467">Front</text><line style="stroke:#181818;stroke-width:0.5;" x1="156" x2="416" y1="1779" y2="1779"/><polygon fill="none" points="166,1787.6484,170,1791.6484,166,1795.6484,162,1791.6484" style="stroke:#B38D22;stroke-width:1.0;"/><text fill="#000000" font-family="sans-serif" font-size="14" lengthAdjust="spacing" textLength="70" x="175" y="1795.9951">int points</text><line style="stroke:#181818;stroke-width:0.5;" x1="156" x2="416" y1="1803.2969" y2="1803.2969"/><ellipse cx="166" cy="1816.9453" fill="#84BE84" rx="3" ry="3" style="stroke:#038048;stroke-width:1.0;"/><text fill="#000000" font-family="sans-serif" font-size="14" lengthAdjust="spacing" textLength="151" x="175" y="1820.292">getGameItemStore()</text><ellipse cx="166" cy="1833.2422" fill="#84BE84" rx="3" ry="3" style="stroke:#038048;stroke-width:1.0;"/><text fill="#000000" font-family="sans-serif" font-size="14" lengthAdjust="spacing" textLength="236" x="175" y="1836.5889">int getPoints(Point, PlayerBoard)</text></g><!--class Back--><g id="elem_Back"><rect codeLine="209" fill="#F1F1F1" height="96.8906" id="Back" rx="2.5" ry="2.5" style="stroke:#181818;stroke-width:0.5;" width="262" x="452" y="1747"/><ellipse cx="561.25" cy="1763" fill="#ADD1B2" rx="11" ry="11" style="stroke:#181818;stroke-width:1.0;"/><path d="M563.5938,1758.6719 C562.6563,1758.2344 562.0625,1758.0938 561.1875,1758.0938 C558.5625,1758.0938 556.5625,1760.1719 556.5625,1762.8906 L556.5625,1764.0156 C556.5625,1766.5938 558.6719,1768.4844 561.5625,1768.4844 C562.7813,1768.4844 563.9375,1768.1875 564.6875,1767.6406 C565.2656,1767.2344 565.5938,1766.7813 565.5938,1766.3906 C565.5938,1765.9375 565.2031,1765.5469 564.7344,1765.5469 C564.5156,1765.5469 564.3125,1765.625 564.125,1765.8125 C563.6719,1766.2969 563.6719,1766.2969 563.4844,1766.3906 C563.0625,1766.6563 562.375,1766.7813 561.6094,1766.7813 C559.5625,1766.7813 558.2656,1765.6875 558.2656,1763.9844 L558.2656,1762.8906 C558.2656,1761.1094 559.5156,1759.7969 561.25,1759.7969 C561.8281,1759.7969 562.4375,1759.9531 562.9063,1760.2031 C563.3906,1760.4844 563.5625,1760.7031 563.6563,1761.1094 C563.7188,1761.5156 563.75,1761.6406 563.8906,1761.7656 C564.0313,1761.9063 564.2656,1762.0156 564.4844,1762.0156 C564.75,1762.0156 565.0156,1761.875 565.1875,1761.6563 C565.2969,1761.5 565.3281,1761.3125 565.3281,1760.8906 L565.3281,1759.4688 C565.3281,1759.0313 565.3125,1758.9063 565.2188,1758.75 C565.0625,1758.4844 564.7813,1758.3438 564.4844,1758.3438 C564.1875,1758.3438 563.9844,1758.4375 563.7656,1758.75 L563.5938,1758.6719 Z " fill="#000000"/><text fill="#000000" font-family="sans-serif" font-size="14" lengthAdjust="spacing" textLength="35" x="581.75" y="1767.8467">Back</text><line style="stroke:#181818;stroke-width:0.5;" x1="453" x2="713" y1="1779" y2="1779"/><polygon fill="none" points="463,1787.6484,467,1791.6484,463,1795.6484,459,1791.6484" style="stroke:#B38D22;stroke-width:1.0;"/><text fill="#000000" font-family="sans-serif" font-size="14" lengthAdjust="spacing" textLength="189" x="472" y="1795.9951">GameItemStore resources</text><line style="stroke:#181818;stroke-width:0.5;" x1="453" x2="713" y1="1803.2969" y2="1803.2969"/><ellipse cx="463" cy="1816.9453" fill="#84BE84" rx="3" ry="3" style="stroke:#038048;stroke-width:1.0;"/><text fill="#000000" font-family="sans-serif" font-size="14" lengthAdjust="spacing" textLength="151" x="472" y="1820.292">getGameItemStore()</text><ellipse cx="463" cy="1833.2422" fill="#84BE84" rx="3" ry="3" style="stroke:#038048;stroke-width:1.0;"/><text fill="#000000" font-family="sans-serif" font-size="14" lengthAdjust="spacing" textLength="236" x="472" y="1836.5889">int getPoints(Point, PlayerBoard)</text></g><!--class Corner--><g id="elem_Corner"><rect codeLine="159" fill="#F1F1F1" height="129.4844" id="Corner" rx="2.5" ry="2.5" style="stroke:#181818;stroke-width:0.5;" width="257" x="749.5" y="1731"/><ellipse cx="849.25" cy="1747" fill="#ADD1B2" rx="11" ry="11" style="stroke:#181818;stroke-width:1.0;"/><path d="M851.5938,1742.6719 C850.6563,1742.2344 850.0625,1742.0938 849.1875,1742.0938 C846.5625,1742.0938 844.5625,1744.1719 844.5625,1746.8906 L844.5625,1748.0156 C844.5625,1750.5938 846.6719,1752.4844 849.5625,1752.4844 C850.7813,1752.4844 851.9375,1752.1875 852.6875,1751.6406 C853.2656,1751.2344 853.5938,1750.7813 853.5938,1750.3906 C853.5938,1749.9375 853.2031,1749.5469 852.7344,1749.5469 C852.5156,1749.5469 852.3125,1749.625 852.125,1749.8125 C851.6719,1750.2969 851.6719,1750.2969 851.4844,1750.3906 C851.0625,1750.6563 850.375,1750.7813 849.6094,1750.7813 C847.5625,1750.7813 846.2656,1749.6875 846.2656,1747.9844 L846.2656,1746.8906 C846.2656,1745.1094 847.5156,1743.7969 849.25,1743.7969 C849.8281,1743.7969 850.4375,1743.9531 850.9063,1744.2031 C851.3906,1744.4844 851.5625,1744.7031 851.6563,1745.1094 C851.7188,1745.5156 851.75,1745.6406 851.8906,1745.7656 C852.0313,1745.9063 852.2656,1746.0156 852.4844,1746.0156 C852.75,1746.0156 853.0156,1745.875 853.1875,1745.6563 C853.2969,1745.5 853.3281,1745.3125 853.3281,1744.8906 L853.3281,1743.4688 C853.3281,1743.0313 853.3125,1742.9063 853.2188,1742.75 C853.0625,1742.4844 852.7813,1742.3438 852.4844,1742.3438 C852.1875,1742.3438 851.9844,1742.4375 851.7656,1742.75 L851.5938,1742.6719 Z " fill="#000000"/><text fill="#000000" font-family="sans-serif" font-size="14" lengthAdjust="spacing" textLength="49" x="869.75" y="1751.8467">Corner</text><line style="stroke:#181818;stroke-width:0.5;" x1="750.5" x2="1005.5" y1="1763" y2="1763"/><rect fill="none" height="6" style="stroke:#C82930;stroke-width:1.0;" width="6" x="757.5" y="1773.6484"/><text fill="#000000" font-family="sans-serif" font-size="14" lengthAdjust="spacing" textLength="133" x="769.5" y="1779.9951">boolean isCovered</text><rect fill="none" height="6" style="stroke:#C82930;stroke-width:1.0;" width="6" x="757.5" y="1789.9453"/><text fill="#000000" font-family="sans-serif" font-size="14" lengthAdjust="spacing" textLength="194" x="769.5" y="1796.292">GameItemEnum gameItem</text><line style="stroke:#181818;stroke-width:0.5;" x1="750.5" x2="1005.5" y1="1803.5938" y2="1803.5938"/><ellipse cx="760.5" cy="1817.2422" fill="#84BE84" rx="3" ry="3" style="stroke:#038048;stroke-width:1.0;"/><text fill="#000000" font-family="sans-serif" font-size="14" lengthAdjust="spacing" textLength="231" x="769.5" y="1820.5889">GameItemEnum getGameItem()</text><ellipse cx="760.5" cy="1833.5391" fill="#84BE84" rx="3" ry="3" style="stroke:#038048;stroke-width:1.0;"/><text fill="#000000" font-family="sans-serif" font-size="14" lengthAdjust="spacing" textLength="213" x="769.5" y="1836.8857">GameItemEnum setCovered()</text><ellipse cx="760.5" cy="1849.8359" fill="#84BE84" rx="3" ry="3" style="stroke:#038048;stroke-width:1.0;"/><text fill="#000000" font-family="sans-serif" font-size="14" lengthAdjust="spacing" textLength="131" x="769.5" y="1853.1826">Boolean isEmpty()</text></g><g id="elem_GMN32"><path d="M555.5,1933 L555.5,1988.3984 A0,0 0 0 0 555.5,1988.3984 L1200.5,1988.3984 A0,0 0 0 0 1200.5,1988.3984 L1200.5,1943 L1190.5,1933 L882,1933 L878,1860.454 L874,1933 L555.5,1933 A0,0 0 0 0 555.5,1933 " fill="#FEFFDD" style="stroke:#181818;stroke-width:0.5;"/><path d="M1190.5,1933 L1190.5,1943 L1200.5,1943 L1190.5,1933 " fill="#FEFFDD" style="stroke:#181818;stroke-width:0.5;"/><text fill="#000000" font-family="sans-serif" font-size="13" lengthAdjust="spacing" textLength="514" x="561.5" y="1950.0669">Nel caso in cui un Corner &#232; vuoto, allora risulter&#224; avere GameItemEnum = NONE</text><text fill="#000000" font-family="sans-serif" font-size="13" lengthAdjust="spacing" textLength="420" x="561.5" y="1965.1997">Se invece il Corner non esiste, il getter restituir&#224; Optional.empty()</text><text fill="#000000" font-family="sans-serif" font-size="13" lengthAdjust="spacing" textLength="624" x="561.5" y="1980.3325">Se la carta &#232; piazzata, significa che non devo preoccuparmi di accesso a Corner Optional.empty()</text></g><!--class FrontGoldCard--><g id="elem_FrontGoldCard"><rect codeLine="187" fill="#F1F1F1" height="80.5938" id="FrontGoldCard" rx="2.5" ry="2.5" style="stroke:#181818;stroke-width:0.5;" width="241" x="165.5" y="1920"/><ellipse cx="229.25" cy="1936" fill="#ADD1B2" rx="11" ry="11" style="stroke:#181818;stroke-width:1.0;"/><path d="M231.5938,1931.6719 C230.6563,1931.2344 230.0625,1931.0938 229.1875,1931.0938 C226.5625,1931.0938 224.5625,1933.1719 224.5625,1935.8906 L224.5625,1937.0156 C224.5625,1939.5938 226.6719,1941.4844 229.5625,1941.4844 C230.7813,1941.4844 231.9375,1941.1875 232.6875,1940.6406 C233.2656,1940.2344 233.5938,1939.7813 233.5938,1939.3906 C233.5938,1938.9375 233.2031,1938.5469 232.7344,1938.5469 C232.5156,1938.5469 232.3125,1938.625 232.125,1938.8125 C231.6719,1939.2969 231.6719,1939.2969 231.4844,1939.3906 C231.0625,1939.6563 230.375,1939.7813 229.6094,1939.7813 C227.5625,1939.7813 226.2656,1938.6875 226.2656,1936.9844 L226.2656,1935.8906 C226.2656,1934.1094 227.5156,1932.7969 229.25,1932.7969 C229.8281,1932.7969 230.4375,1932.9531 230.9063,1933.2031 C231.3906,1933.4844 231.5625,1933.7031 231.6563,1934.1094 C231.7188,1934.5156 231.75,1934.6406 231.8906,1934.7656 C232.0313,1934.9063 232.2656,1935.0156 232.4844,1935.0156 C232.75,1935.0156 233.0156,1934.875 233.1875,1934.6563 C233.2969,1934.5 233.3281,1934.3125 233.3281,1933.8906 L233.3281,1932.4688 C233.3281,1932.0313 233.3125,1931.9063 233.2188,1931.75 C233.0625,1931.4844 232.7813,1931.3438 232.4844,1931.3438 C232.1875,1931.3438 231.9844,1931.4375 231.7656,1931.75 L231.5938,1931.6719 Z " fill="#000000"/><text fill="#000000" font-family="sans-serif" font-size="14" lengthAdjust="spacing" textLength="105" x="249.75" y="1940.8467">FrontGoldCard</text><line style="stroke:#181818;stroke-width:0.5;" x1="166.5" x2="405.5" y1="1952" y2="1952"/><polygon fill="none" points="176.5,1960.6484,180.5,1964.6484,176.5,1968.6484,172.5,1964.6484" style="stroke:#B38D22;stroke-width:1.0;"/><text fill="#000000" font-family="sans-serif" font-size="14" lengthAdjust="spacing" textLength="215" x="185.5" y="1968.9951">GameItemStore neededItems</text><line style="stroke:#181818;stroke-width:0.5;" x1="166.5" x2="405.5" y1="1976.2969" y2="1976.2969"/><ellipse cx="176.5" cy="1989.9453" fill="#84BE84" rx="3" ry="3" style="stroke:#038048;stroke-width:1.0;"/><text fill="#000000" font-family="sans-serif" font-size="14" lengthAdjust="spacing" textLength="164" x="185.5" y="1993.292">getNeededItemStore()</text></g><!--class FrontPositionalGoldCard--><g id="elem_FrontPositionalGoldCard"><rect codeLine="196" fill="#F1F1F1" height="64.2969" id="FrontPositionalGoldCard" rx="2.5" ry="2.5" style="stroke:#181818;stroke-width:0.5;" width="262" x="7" y="2069.5"/><ellipse cx="46.75" cy="2085.5" fill="#ADD1B2" rx="11" ry="11" style="stroke:#181818;stroke-width:1.0;"/><path d="M49.0938,2081.1719 C48.1563,2080.7344 47.5625,2080.5938 46.6875,2080.5938 C44.0625,2080.5938 42.0625,2082.6719 42.0625,2085.3906 L42.0625,2086.5156 C42.0625,2089.0938 44.1719,2090.9844 47.0625,2090.9844 C48.2813,2090.9844 49.4375,2090.6875 50.1875,2090.1406 C50.7656,2089.7344 51.0938,2089.2813 51.0938,2088.8906 C51.0938,2088.4375 50.7031,2088.0469 50.2344,2088.0469 C50.0156,2088.0469 49.8125,2088.125 49.625,2088.3125 C49.1719,2088.7969 49.1719,2088.7969 48.9844,2088.8906 C48.5625,2089.1563 47.875,2089.2813 47.1094,2089.2813 C45.0625,2089.2813 43.7656,2088.1875 43.7656,2086.4844 L43.7656,2085.3906 C43.7656,2083.6094 45.0156,2082.2969 46.75,2082.2969 C47.3281,2082.2969 47.9375,2082.4531 48.4063,2082.7031 C48.8906,2082.9844 49.0625,2083.2031 49.1563,2083.6094 C49.2188,2084.0156 49.25,2084.1406 49.3906,2084.2656 C49.5313,2084.4063 49.7656,2084.5156 49.9844,2084.5156 C50.25,2084.5156 50.5156,2084.375 50.6875,2084.1563 C50.7969,2084 50.8281,2083.8125 50.8281,2083.3906 L50.8281,2081.9688 C50.8281,2081.5313 50.8125,2081.4063 50.7188,2081.25 C50.5625,2080.9844 50.2813,2080.8438 49.9844,2080.8438 C49.6875,2080.8438 49.4844,2080.9375 49.2656,2081.25 L49.0938,2081.1719 Z " fill="#000000"/><text fill="#000000" font-family="sans-serif" font-size="14" lengthAdjust="spacing" textLength="175" x="66.25" y="2090.3467">FrontPositionalGoldCard</text><line style="stroke:#181818;stroke-width:0.5;" x1="8" x2="268" y1="2101.5" y2="2101.5"/><line style="stroke:#181818;stroke-width:0.5;" x1="8" x2="268" y1="2109.5" y2="2109.5"/><ellipse cx="18" cy="2123.1484" fill="#84BE84" rx="3" ry="3" style="stroke:#038048;stroke-width:1.0;"/><text fill="#000000" font-family="sans-serif" font-size="14" lengthAdjust="spacing" textLength="236" x="27" y="2126.4951">int getPoints(Point, PlayerBoard)</text></g><!--class FrontItemGoldCard--><g id="elem_FrontItemGoldCard"><rect codeLine="202" fill="#F1F1F1" height="80.5938" id="FrontItemGoldCard" rx="2.5" ry="2.5" style="stroke:#181818;stroke-width:0.5;" width="262" x="304" y="2061"/><ellipse cx="361.25" cy="2077" fill="#ADD1B2" rx="11" ry="11" style="stroke:#181818;stroke-width:1.0;"/><path d="M363.5938,2072.6719 C362.6563,2072.2344 362.0625,2072.0938 361.1875,2072.0938 C358.5625,2072.0938 356.5625,2074.1719 356.5625,2076.8906 L356.5625,2078.0156 C356.5625,2080.5938 358.6719,2082.4844 361.5625,2082.4844 C362.7813,2082.4844 363.9375,2082.1875 364.6875,2081.6406 C365.2656,2081.2344 365.5938,2080.7813 365.5938,2080.3906 C365.5938,2079.9375 365.2031,2079.5469 364.7344,2079.5469 C364.5156,2079.5469 364.3125,2079.625 364.125,2079.8125 C363.6719,2080.2969 363.6719,2080.2969 363.4844,2080.3906 C363.0625,2080.6563 362.375,2080.7813 361.6094,2080.7813 C359.5625,2080.7813 358.2656,2079.6875 358.2656,2077.9844 L358.2656,2076.8906 C358.2656,2075.1094 359.5156,2073.7969 361.25,2073.7969 C361.8281,2073.7969 362.4375,2073.9531 362.9063,2074.2031 C363.3906,2074.4844 363.5625,2074.7031 363.6563,2075.1094 C363.7188,2075.5156 363.75,2075.6406 363.8906,2075.7656 C364.0313,2075.9063 364.2656,2076.0156 364.4844,2076.0156 C364.75,2076.0156 365.0156,2075.875 365.1875,2075.6563 C365.2969,2075.5 365.3281,2075.3125 365.3281,2074.8906 L365.3281,2073.4688 C365.3281,2073.0313 365.3125,2072.9063 365.2188,2072.75 C365.0625,2072.4844 364.7813,2072.3438 364.4844,2072.3438 C364.1875,2072.3438 363.9844,2072.4375 363.7656,2072.75 L363.5938,2072.6719 Z " fill="#000000"/><text fill="#000000" font-family="sans-serif" font-size="14" lengthAdjust="spacing" textLength="139" x="381.75" y="2081.8467">FrontItemGoldCard</text><line style="stroke:#181818;stroke-width:0.5;" x1="305" x2="565" y1="2093" y2="2093"/><rect fill="none" height="6" style="stroke:#C82930;stroke-width:1.0;" width="6" x="312" y="2103.6484"/><text fill="#000000" font-family="sans-serif" font-size="14" lengthAdjust="spacing" textLength="190" x="324" y="2109.9951">GameItemEnum multiplier</text><line style="stroke:#181818;stroke-width:0.5;" x1="305" x2="565" y1="2117.2969" y2="2117.2969"/><ellipse cx="315" cy="2130.9453" fill="#84BE84" rx="3" ry="3" style="stroke:#038048;stroke-width:1.0;"/><text fill="#000000" font-family="sans-serif" font-size="14" lengthAdjust="spacing" textLength="236" x="324" y="2134.292">int getPoints(Point, PlayerBoard)</text></g><!--class ObjectiveCard--><g id="elem_ObjectiveCard"><rect codeLine="217" fill="#F1F1F1" height="80.5938" id="ObjectiveCard" rx="2.5" ry="2.5" style="stroke:#181818;stroke-width:0.5;" width="262" x="1451" y="1007.5"/><ellipse cx="1527.25" cy="1023.5" fill="#A9DCDF" rx="11" ry="11" style="stroke:#181818;stroke-width:1.0;"/><path d="M1529.3281,1025.3125 L1529.7188,1026.2969 L1529.3281,1026.2969 C1528.875,1026.2969 1528.7656,1026.3125 1528.6094,1026.4219 C1528.3594,1026.5781 1528.2031,1026.8594 1528.2031,1027.1563 C1528.2031,1027.4219 1528.3438,1027.6719 1528.5625,1027.8281 C1528.7031,1027.9531 1528.9063,1028 1529.3281,1028 L1531.6875,1028 C1532.0469,1028 1532.2656,1027.9688 1532.4063,1027.875 C1532.6563,1027.7344 1532.8125,1027.4375 1532.8125,1027.1563 C1532.8125,1026.875 1532.6719,1026.625 1532.4531,1026.4688 C1532.2813,1026.3281 1532.125,1026.2969 1531.6563,1026.2969 L1528.2656,1018.0938 L1524.5938,1018.0938 C1524.1406,1018.0938 1524.0156,1018.1094 1523.8594,1018.2031 C1523.6094,1018.375 1523.4531,1018.6563 1523.4531,1018.9375 C1523.4531,1019.2188 1523.5938,1019.4688 1523.8125,1019.6406 C1523.9844,1019.75 1524.1563,1019.7813 1524.5938,1019.7813 L1525.6719,1019.7813 L1523.0313,1026.2969 C1522.6094,1026.2969 1522.4531,1026.3125 1522.2969,1026.4219 C1522.0469,1026.5781 1521.8906,1026.8594 1521.8906,1027.1563 C1521.8906,1027.7188 1522.2656,1028 1523.0156,1028 L1525.2813,1028 C1525.6406,1028 1525.8594,1027.9688 1525.9844,1027.875 C1526.25,1027.7344 1526.3906,1027.4375 1526.3906,1027.1563 C1526.3906,1026.875 1526.2656,1026.625 1526.0469,1026.4531 C1525.875,1026.3281 1525.7344,1026.2969 1525.2813,1026.2969 L1524.8906,1026.2969 L1525.2813,1025.3125 L1529.3281,1025.3125 Z M1528.625,1023.6094 L1525.9531,1023.6094 L1527.2969,1020.3438 L1528.625,1023.6094 Z " fill="#000000"/><text fill="#000000" font-family="sans-serif" font-size="14" font-style="italic" lengthAdjust="spacing" textLength="101" x="1547.75" y="1028.3467">ObjectiveCard</text><line style="stroke:#181818;stroke-width:0.5;" x1="1452" x2="1712" y1="1039.5" y2="1039.5"/><polygon fill="none" points="1462,1048.1484,1466,1052.1484,1462,1056.1484,1458,1052.1484" style="stroke:#B38D22;stroke-width:1.0;"/><text fill="#000000" font-family="sans-serif" font-size="14" lengthAdjust="spacing" textLength="135" x="1471" y="1056.4951">Integer pointsWon</text><line style="stroke:#181818;stroke-width:0.5;" x1="1452" x2="1712" y1="1063.7969" y2="1063.7969"/><ellipse cx="1462" cy="1077.4453" fill="#84BE84" rx="3" ry="3" style="stroke:#038048;stroke-width:1.0;"/><text fill="#000000" font-family="sans-serif" font-size="14" lengthAdjust="spacing" textLength="236" x="1471" y="1080.792">int getPoints(Point, PlayerBoard)</text></g><!--class PositionalObjectiveCard--><g id="elem_PositionalObjectiveCard"><rect codeLine="245" fill="#F1F1F1" height="80.5938" id="PositionalObjectiveCard" rx="2.5" ry="2.5" style="stroke:#181818;stroke-width:0.5;" width="325" x="1296.5" y="1262"/><ellipse cx="1368.25" cy="1278" fill="#ADD1B2" rx="11" ry="11" style="stroke:#181818;stroke-width:1.0;"/><path d="M1370.5938,1273.6719 C1369.6563,1273.2344 1369.0625,1273.0938 1368.1875,1273.0938 C1365.5625,1273.0938 1363.5625,1275.1719 1363.5625,1277.8906 L1363.5625,1279.0156 C1363.5625,1281.5938 1365.6719,1283.4844 1368.5625,1283.4844 C1369.7813,1283.4844 1370.9375,1283.1875 1371.6875,1282.6406 C1372.2656,1282.2344 1372.5938,1281.7813 1372.5938,1281.3906 C1372.5938,1280.9375 1372.2031,1280.5469 1371.7344,1280.5469 C1371.5156,1280.5469 1371.3125,1280.625 1371.125,1280.8125 C1370.6719,1281.2969 1370.6719,1281.2969 1370.4844,1281.3906 C1370.0625,1281.6563 1369.375,1281.7813 1368.6094,1281.7813 C1366.5625,1281.7813 1365.2656,1280.6875 1365.2656,1278.9844 L1365.2656,1277.8906 C1365.2656,1276.1094 1366.5156,1274.7969 1368.25,1274.7969 C1368.8281,1274.7969 1369.4375,1274.9531 1369.9063,1275.2031 C1370.3906,1275.4844 1370.5625,1275.7031 1370.6563,1276.1094 C1370.7188,1276.5156 1370.75,1276.6406 1370.8906,1276.7656 C1371.0313,1276.9063 1371.2656,1277.0156 1371.4844,1277.0156 C1371.75,1277.0156 1372.0156,1276.875 1372.1875,1276.6563 C1372.2969,1276.5 1372.3281,1276.3125 1372.3281,1275.8906 L1372.3281,1274.4688 C1372.3281,1274.0313 1372.3125,1273.9063 1372.2188,1273.75 C1372.0625,1273.4844 1371.7813,1273.3438 1371.4844,1273.3438 C1371.1875,1273.3438 1370.9844,1273.4375 1370.7656,1273.75 L1370.5938,1273.6719 Z " fill="#000000"/><text fill="#000000" font-family="sans-serif" font-size="14" lengthAdjust="spacing" textLength="173" x="1388.75" y="1282.8467">PositionalObjectiveCard</text><line style="stroke:#181818;stroke-width:0.5;" x1="1297.5" x2="1620.5" y1="1294" y2="1294"/><rect fill="none" height="6" style="stroke:#C82930;stroke-width:1.0;" width="6" x="1304.5" y="1304.6484"/><text fill="#000000" font-family="sans-serif" font-size="14" lengthAdjust="spacing" textLength="299" x="1316.5" y="1310.9951">ArrayList&lt;PositionalData&gt; positionalData</text><line style="stroke:#181818;stroke-width:0.5;" x1="1297.5" x2="1620.5" y1="1318.2969" y2="1318.2969"/><ellipse cx="1307.5" cy="1331.9453" fill="#84BE84" rx="3" ry="3" style="stroke:#038048;stroke-width:1.0;"/><text fill="#000000" font-family="sans-serif" font-size="14" lengthAdjust="spacing" textLength="236" x="1316.5" y="1335.292">int getPoints(Point, PlayerBoard)</text></g><!--class ItemObjectiveCard--><g id="elem_ItemObjectiveCard"><rect codeLine="227" fill="#F1F1F1" height="80.5938" id="ItemObjectiveCard" rx="2.5" ry="2.5" style="stroke:#181818;stroke-width:0.5;" width="262" x="1657" y="1262"/><ellipse cx="1715.25" cy="1278" fill="#ADD1B2" rx="11" ry="11" style="stroke:#181818;stroke-width:1.0;"/><path d="M1717.5938,1273.6719 C1716.6563,1273.2344 1716.0625,1273.0938 1715.1875,1273.0938 C1712.5625,1273.0938 1710.5625,1275.1719 1710.5625,1277.8906 L1710.5625,1279.0156 C1710.5625,1281.5938 1712.6719,1283.4844 1715.5625,1283.4844 C1716.7813,1283.4844 1717.9375,1283.1875 1718.6875,1282.6406 C1719.2656,1282.2344 1719.5938,1281.7813 1719.5938,1281.3906 C1719.5938,1280.9375 1719.2031,1280.5469 1718.7344,1280.5469 C1718.5156,1280.5469 1718.3125,1280.625 1718.125,1280.8125 C1717.6719,1281.2969 1717.6719,1281.2969 1717.4844,1281.3906 C1717.0625,1281.6563 1716.375,1281.7813 1715.6094,1281.7813 C1713.5625,1281.7813 1712.2656,1280.6875 1712.2656,1278.9844 L1712.2656,1277.8906 C1712.2656,1276.1094 1713.5156,1274.7969 1715.25,1274.7969 C1715.8281,1274.7969 1716.4375,1274.9531 1716.9063,1275.2031 C1717.3906,1275.4844 1717.5625,1275.7031 1717.6563,1276.1094 C1717.7188,1276.5156 1717.75,1276.6406 1717.8906,1276.7656 C1718.0313,1276.9063 1718.2656,1277.0156 1718.4844,1277.0156 C1718.75,1277.0156 1719.0156,1276.875 1719.1875,1276.6563 C1719.2969,1276.5 1719.3281,1276.3125 1719.3281,1275.8906 L1719.3281,1274.4688 C1719.3281,1274.0313 1719.3125,1273.9063 1719.2188,1273.75 C1719.0625,1273.4844 1718.7813,1273.3438 1718.4844,1273.3438 C1718.1875,1273.3438 1717.9844,1273.4375 1717.7656,1273.75 L1717.5938,1273.6719 Z " fill="#000000"/><text fill="#000000" font-family="sans-serif" font-size="14" lengthAdjust="spacing" textLength="137" x="1735.75" y="1282.8467">ItemObjectiveCard</text><line style="stroke:#181818;stroke-width:0.5;" x1="1658" x2="1918" y1="1294" y2="1294"/><rect fill="none" height="6" style="stroke:#C82930;stroke-width:1.0;" width="6" x="1665" y="1304.6484"/><text fill="#000000" font-family="sans-serif" font-size="14" lengthAdjust="spacing" textLength="190" x="1677" y="1310.9951">GameItemStore multiplier</text><line style="stroke:#181818;stroke-width:0.5;" x1="1658" x2="1918" y1="1318.2969" y2="1318.2969"/><ellipse cx="1668" cy="1331.9453" fill="#84BE84" rx="3" ry="3" style="stroke:#038048;stroke-width:1.0;"/><text fill="#000000" font-family="sans-serif" font-size="14" lengthAdjust="spacing" textLength="236" x="1677" y="1335.292">int getPoints(Point, PlayerBoard)</text></g><!--class PositionalData--><g id="elem_PositionalData"><rect codeLine="234" fill="#F1F1F1" height="162.0781" id="PositionalData" rx="2.5" ry="2.5" style="stroke:#181818;stroke-width:0.5;" width="257" x="1330.5" y="1492.5"/><ellipse cx="1402.75" cy="1508.5" fill="#ADD1B2" rx="11" ry="11" style="stroke:#181818;stroke-width:1.0;"/><path d="M1405.0938,1504.1719 C1404.1563,1503.7344 1403.5625,1503.5938 1402.6875,1503.5938 C1400.0625,1503.5938 1398.0625,1505.6719 1398.0625,1508.3906 L1398.0625,1509.5156 C1398.0625,1512.0938 1400.1719,1513.9844 1403.0625,1513.9844 C1404.2813,1513.9844 1405.4375,1513.6875 1406.1875,1513.1406 C1406.7656,1512.7344 1407.0938,1512.2813 1407.0938,1511.8906 C1407.0938,1511.4375 1406.7031,1511.0469 1406.2344,1511.0469 C1406.0156,1511.0469 1405.8125,1511.125 1405.625,1511.3125 C1405.1719,1511.7969 1405.1719,1511.7969 1404.9844,1511.8906 C1404.5625,1512.1563 1403.875,1512.2813 1403.1094,1512.2813 C1401.0625,1512.2813 1399.7656,1511.1875 1399.7656,1509.4844 L1399.7656,1508.3906 C1399.7656,1506.6094 1401.0156,1505.2969 1402.75,1505.2969 C1403.3281,1505.2969 1403.9375,1505.4531 1404.4063,1505.7031 C1404.8906,1505.9844 1405.0625,1506.2031 1405.1563,1506.6094 C1405.2188,1507.0156 1405.25,1507.1406 1405.3906,1507.2656 C1405.5313,1507.4063 1405.7656,1507.5156 1405.9844,1507.5156 C1406.25,1507.5156 1406.5156,1507.375 1406.6875,1507.1563 C1406.7969,1507 1406.8281,1506.8125 1406.8281,1506.3906 L1406.8281,1504.9688 C1406.8281,1504.5313 1406.8125,1504.4063 1406.7188,1504.25 C1406.5625,1503.9844 1406.2813,1503.8438 1405.9844,1503.8438 C1405.6875,1503.8438 1405.4844,1503.9375 1405.2656,1504.25 L1405.0938,1504.1719 Z " fill="#000000"/><text fill="#000000" font-family="sans-serif" font-size="14" lengthAdjust="spacing" textLength="104" x="1423.25" y="1513.3467">PositionalData</text><line style="stroke:#181818;stroke-width:0.5;" x1="1331.5" x2="1586.5" y1="1524.5" y2="1524.5"/><rect fill="none" height="6" style="stroke:#C82930;stroke-width:1.0;" width="6" x="1338.5" y="1535.1484"/><text fill="#000000" font-family="sans-serif" font-size="14" lengthAdjust="spacing" textLength="81" x="1350.5" y="1541.4951">Point point</text><rect fill="none" height="6" style="stroke:#C82930;stroke-width:1.0;" width="6" x="1338.5" y="1551.4453"/><text fill="#000000" font-family="sans-serif" font-size="14" lengthAdjust="spacing" textLength="144" x="1350.5" y="1557.792">CardColor cardColor</text><line style="stroke:#181818;stroke-width:0.5;" x1="1331.5" x2="1586.5" y1="1565.0938" y2="1565.0938"/><ellipse cx="1341.5" cy="1578.7422" fill="#84BE84" rx="3" ry="3" style="stroke:#038048;stroke-width:1.0;"/><text fill="#000000" font-family="sans-serif" font-size="14" lengthAdjust="spacing" textLength="115" x="1350.5" y="1582.0889">Point getPoint()</text><ellipse cx="1341.5" cy="1595.0391" fill="#84BE84" rx="3" ry="3" style="stroke:#038048;stroke-width:1.0;"/><text fill="#000000" font-family="sans-serif" font-size="14" lengthAdjust="spacing" textLength="181" x="1350.5" y="1598.3857">CardColor getCardColor()</text><ellipse cx="1341.5" cy="1611.3359" fill="#84BE84" rx="3" ry="3" style="stroke:#038048;stroke-width:1.0;"/><text fill="#000000" font-family="sans-serif" font-size="14" lengthAdjust="spacing" textLength="231" x="1350.5" y="1614.6826">GameItemEnum getGameItem()</text><ellipse cx="1341.5" cy="1627.6328" fill="#84BE84" rx="3" ry="3" style="stroke:#038048;stroke-width:1.0;"/><text fill="#000000" font-family="sans-serif" font-size="14" lengthAdjust="spacing" textLength="129" x="1350.5" y="1630.9795">void setPoint(x, y)</text><ellipse cx="1341.5" cy="1643.9297" fill="#84BE84" rx="3" ry="3" style="stroke:#038048;stroke-width:1.0;"/><text fill="#000000" font-family="sans-serif" font-size="14" lengthAdjust="spacing" textLength="209" x="1350.5" y="1647.2764">void setCardColor(CardColor)</text></g><!--class CornerPosition--><g id="elem_CornerPosition"><rect codeLine="252" fill="#F1F1F1" height="113.1875" id="CornerPosition" rx="2.5" ry="2.5" style="stroke:#181818;stroke-width:0.5;" width="139" x="1742.5" y="48"/><ellipse cx="1757.5" cy="64" fill="#EB937F" rx="11" ry="11" style="stroke:#181818;stroke-width:1.0;"/><path d="M1756.2969,64.875 L1757.75,64.875 L1757.75,64.9844 C1757.75,65.3906 1757.7813,65.5469 1757.8594,65.7031 C1758.0156,65.9531 1758.2969,66.1094 1758.5938,66.1094 C1758.8438,66.1094 1759.1094,65.9688 1759.2656,65.75 C1759.3906,65.5938 1759.4219,65.4375 1759.4219,64.9844 L1759.4219,63.0625 C1759.4219,62.9063 1759.4219,62.8594 1759.4063,62.7031 C1759.3438,62.2344 1759.0313,61.9219 1758.5781,61.9219 C1758.3281,61.9219 1758.0625,62.0625 1757.8906,62.2813 C1757.7813,62.4531 1757.75,62.6094 1757.75,63.0625 L1757.75,63.1875 L1756.2969,63.1875 L1756.2969,60.7813 L1760.2813,60.7813 L1760.2813,61.6406 C1760.2813,62.0469 1760.3125,62.2188 1760.3906,62.375 C1760.5625,62.625 1760.8438,62.7813 1761.125,62.7813 C1761.3906,62.7813 1761.6563,62.6406 1761.8281,62.4219 C1761.9375,62.25 1761.9688,62.1094 1761.9688,61.6406 L1761.9688,59.0938 L1754.3438,59.0938 C1753.9063,59.0938 1753.7813,59.1094 1753.625,59.2031 C1753.375,59.3594 1753.2188,59.6563 1753.2188,59.9375 C1753.2188,60.2188 1753.3594,60.4688 1753.5781,60.6406 C1753.7344,60.75 1753.9219,60.7813 1754.3438,60.7813 L1754.5938,60.7813 L1754.5938,67.2969 L1754.3438,67.2969 C1753.9375,67.2969 1753.7813,67.3125 1753.625,67.4219 C1753.375,67.5938 1753.2188,67.8594 1753.2188,68.1563 C1753.2188,68.4219 1753.3594,68.6719 1753.5781,68.8281 C1753.7188,68.9531 1753.9531,69 1754.3438,69 L1762.3438,69 L1762.3438,66.4219 C1762.3438,65.9844 1762.3125,65.8438 1762.2344,65.6875 C1762.0625,65.4375 1761.7813,65.2813 1761.5,65.2813 C1761.2344,65.2813 1760.9688,65.3906 1760.7969,65.6406 C1760.6875,65.7969 1760.6563,65.9375 1760.6563,66.4219 L1760.6563,67.2969 L1756.2969,67.2969 L1756.2969,64.875 Z " fill="#000000"/><text fill="#000000" font-family="sans-serif" font-size="14" lengthAdjust="spacing" textLength="107" x="1771.5" y="68.8467">CornerPosition</text><line style="stroke:#181818;stroke-width:0.5;" x1="1743.5" x2="1880.5" y1="80" y2="80"/><text fill="#000000" font-family="sans-serif" font-size="14" lengthAdjust="spacing" textLength="80" x="1748.5" y="96.9951">TOP_RIGHT</text><text fill="#000000" font-family="sans-serif" font-size="14" lengthAdjust="spacing" textLength="70" x="1748.5" y="113.292">TOP_LEFT</text><text fill="#000000" font-family="sans-serif" font-size="14" lengthAdjust="spacing" textLength="103" x="1748.5" y="129.5889">BOTTOM_LEFT</text><text fill="#000000" font-family="sans-serif" font-size="14" lengthAdjust="spacing" textLength="113" x="1748.5" y="145.8857">BOTTOM_RIGHT</text><line style="stroke:#181818;stroke-width:0.5;" x1="1743.5" x2="1880.5" y1="153.1875" y2="153.1875"/></g><!--class GameItemEnum--><g id="elem_GameItemEnum"><rect codeLine="259" fill="#F1F1F1" height="178.375" id="GameItemEnum" rx="2.5" ry="2.5" style="stroke:#181818;stroke-width:0.5;" width="148" x="1917" y="15.5"/><ellipse cx="1932" cy="31.5" fill="#EB937F" rx="11" ry="11" style="stroke:#181818;stroke-width:1.0;"/><path d="M1930.7969,32.375 L1932.25,32.375 L1932.25,32.4844 C1932.25,32.8906 1932.2813,33.0469 1932.3594,33.2031 C1932.5156,33.4531 1932.7969,33.6094 1933.0938,33.6094 C1933.3438,33.6094 1933.6094,33.4688 1933.7656,33.25 C1933.8906,33.0938 1933.9219,32.9375 1933.9219,32.4844 L1933.9219,30.5625 C1933.9219,30.4063 1933.9219,30.3594 1933.9063,30.2031 C1933.8438,29.7344 1933.5313,29.4219 1933.0781,29.4219 C1932.8281,29.4219 1932.5625,29.5625 1932.3906,29.7813 C1932.2813,29.9531 1932.25,30.1094 1932.25,30.5625 L1932.25,30.6875 L1930.7969,30.6875 L1930.7969,28.2813 L1934.7813,28.2813 L1934.7813,29.1406 C1934.7813,29.5469 1934.8125,29.7188 1934.8906,29.875 C1935.0625,30.125 1935.3438,30.2813 1935.625,30.2813 C1935.8906,30.2813 1936.1563,30.1406 1936.3281,29.9219 C1936.4375,29.75 1936.4688,29.6094 1936.4688,29.1406 L1936.4688,26.5938 L1928.8438,26.5938 C1928.4063,26.5938 1928.2813,26.6094 1928.125,26.7031 C1927.875,26.8594 1927.7188,27.1563 1927.7188,27.4375 C1927.7188,27.7188 1927.8594,27.9688 1928.0781,28.1406 C1928.2344,28.25 1928.4219,28.2813 1928.8438,28.2813 L1929.0938,28.2813 L1929.0938,34.7969 L1928.8438,34.7969 C1928.4375,34.7969 1928.2813,34.8125 1928.125,34.9219 C1927.875,35.0938 1927.7188,35.3594 1927.7188,35.6563 C1927.7188,35.9219 1927.8594,36.1719 1928.0781,36.3281 C1928.2188,36.4531 1928.4531,36.5 1928.8438,36.5 L1936.8438,36.5 L1936.8438,33.9219 C1936.8438,33.4844 1936.8125,33.3438 1936.7344,33.1875 C1936.5625,32.9375 1936.2813,32.7813 1936,32.7813 C1935.7344,32.7813 1935.4688,32.8906 1935.2969,33.1406 C1935.1875,33.2969 1935.1563,33.4375 1935.1563,33.9219 L1935.1563,34.7969 L1930.7969,34.7969 L1930.7969,32.375 Z " fill="#000000"/><text fill="#000000" font-family="sans-serif" font-size="14" lengthAdjust="spacing" textLength="116" x="1946" y="36.3467">GameItemEnum</text><line style="stroke:#181818;stroke-width:0.5;" x1="1918" x2="2064" y1="47.5" y2="47.5"/><text fill="#000000" font-family="sans-serif" font-size="14" lengthAdjust="spacing" textLength="46" x="1923" y="64.4951">PLANT</text><text fill="#000000" font-family="sans-serif" font-size="14" lengthAdjust="spacing" textLength="54" x="1923" y="80.792">ANIMAL</text><text fill="#000000" font-family="sans-serif" font-size="14" lengthAdjust="spacing" textLength="42" x="1923" y="97.0889">FUNGI</text><text fill="#000000" font-family="sans-serif" font-size="14" lengthAdjust="spacing" textLength="51" x="1923" y="113.3857">INSECT</text><text fill="#000000" font-family="sans-serif" font-size="14" lengthAdjust="spacing" textLength="40" x="1923" y="129.6826">QUILL</text><text fill="#000000" font-family="sans-serif" font-size="14" lengthAdjust="spacing" textLength="63" x="1923" y="145.9795">INKWELL</text><text fill="#000000" font-family="sans-serif" font-size="14" lengthAdjust="spacing" textLength="92" x="1923" y="162.2764">MANUSCRIPT</text><text fill="#000000" font-family="sans-serif" font-size="14" lengthAdjust="spacing" textLength="40" x="1923" y="178.5732">NONE</text><line style="stroke:#181818;stroke-width:0.5;" x1="1918" x2="2064" y1="185.875" y2="185.875"/></g><!--class CardColor--><g id="elem_CardColor"><rect codeLine="270" fill="#F1F1F1" height="129.4844" id="CardColor" rx="2.5" ry="2.5" style="stroke:#181818;stroke-width:0.5;" width="103" x="1760.5" y="327.5"/><ellipse cx="1775.5" cy="343.5" fill="#EB937F" rx="11" ry="11" style="stroke:#181818;stroke-width:1.0;"/><path d="M1774.2969,344.375 L1775.75,344.375 L1775.75,344.4844 C1775.75,344.8906 1775.7813,345.0469 1775.8594,345.2031 C1776.0156,345.4531 1776.2969,345.6094 1776.5938,345.6094 C1776.8438,345.6094 1777.1094,345.4688 1777.2656,345.25 C1777.3906,345.0938 1777.4219,344.9375 1777.4219,344.4844 L1777.4219,342.5625 C1777.4219,342.4063 1777.4219,342.3594 1777.4063,342.2031 C1777.3438,341.7344 1777.0313,341.4219 1776.5781,341.4219 C1776.3281,341.4219 1776.0625,341.5625 1775.8906,341.7813 C1775.7813,341.9531 1775.75,342.1094 1775.75,342.5625 L1775.75,342.6875 L1774.2969,342.6875 L1774.2969,340.2813 L1778.2813,340.2813 L1778.2813,341.1406 C1778.2813,341.5469 1778.3125,341.7188 1778.3906,341.875 C1778.5625,342.125 1778.8438,342.2813 1779.125,342.2813 C1779.3906,342.2813 1779.6563,342.1406 1779.8281,341.9219 C1779.9375,341.75 1779.9688,341.6094 1779.9688,341.1406 L1779.9688,338.5938 L1772.3438,338.5938 C1771.9063,338.5938 1771.7813,338.6094 1771.625,338.7031 C1771.375,338.8594 1771.2188,339.1563 1771.2188,339.4375 C1771.2188,339.7188 1771.3594,339.9688 1771.5781,340.1406 C1771.7344,340.25 1771.9219,340.2813 1772.3438,340.2813 L1772.5938,340.2813 L1772.5938,346.7969 L1772.3438,346.7969 C1771.9375,346.7969 1771.7813,346.8125 1771.625,346.9219 C1771.375,347.0938 1771.2188,347.3594 1771.2188,347.6563 C1771.2188,347.9219 1771.3594,348.1719 1771.5781,348.3281 C1771.7188,348.4531 1771.9531,348.5 1772.3438,348.5 L1780.3438,348.5 L1780.3438,345.9219 C1780.3438,345.4844 1780.3125,345.3438 1780.2344,345.1875 C1780.0625,344.9375 1779.7813,344.7813 1779.5,344.7813 C1779.2344,344.7813 1778.9688,344.8906 1778.7969,345.1406 C1778.6875,345.2969 1778.6563,345.4375 1778.6563,345.9219 L1778.6563,346.7969 L1774.2969,346.7969 L1774.2969,344.375 Z " fill="#000000"/><text fill="#000000" font-family="sans-serif" font-size="14" lengthAdjust="spacing" textLength="71" x="1789.5" y="348.3467">CardColor</text><line style="stroke:#181818;stroke-width:0.5;" x1="1761.5" x2="1862.5" y1="359.5" y2="359.5"/><text fill="#000000" font-family="sans-serif" font-size="14" lengthAdjust="spacing" textLength="28" x="1766.5" y="376.4951">Red</text><text fill="#000000" font-family="sans-serif" font-size="14" lengthAdjust="spacing" textLength="31" x="1766.5" y="392.792">Blue</text><text fill="#000000" font-family="sans-serif" font-size="14" lengthAdjust="spacing" textLength="44" x="1766.5" y="409.0889">Green</text><text fill="#000000" font-family="sans-serif" font-size="14" lengthAdjust="spacing" textLength="46" x="1766.5" y="425.3857">Purple</text><text fill="#000000" font-family="sans-serif" font-size="14" lengthAdjust="spacing" textLength="52" x="1766.5" y="441.6826">Neutral</text><line style="stroke:#181818;stroke-width:0.5;" x1="1761.5" x2="1862.5" y1="448.9844" y2="448.9844"/></g><!--reverse link GameManager to Game--><g id="link_GameManager_Game"><path codeLine="12" d="M1440,214.16 C1440,233.33 1440,241.74 1440,261.79 " fill="none" id="GameManager-backto-Game" style="stroke:#181818;stroke-width:1.0;"/><polygon fill="#181818" points="1440,202.16,1436,208.16,1440,214.16,1444,208.16,1440,202.16" style="stroke:#181818;stroke-width:1.0;"/><text fill="#000000" font-family="sans-serif" font-size="13" lengthAdjust="spacing" textLength="25" x="1414.1211" y="221.6372">1..N</text><text fill="#000000" font-family="sans-serif" font-size="13" lengthAdjust="spacing" textLength="8" x="1431.7688" y="250.9034">1</text></g><!--reverse link Game to Player--><g id="link_Game_Player"><path codeLine="34" d="M1369.0444,532.7183 C1352.3844,565.5083 1339.99,589.93 1323.54,622.32 " fill="none" id="Game-backto-Player" style="stroke:#181818;stroke-width:1.0;"/><polygon fill="#181818" points="1374.48,522.02,1368.1961,525.5573,1369.0444,532.7183,1375.3283,529.181,1374.48,522.02" style="stroke:#181818;stroke-width:1.0;"/><text fill="#000000" font-family="sans-serif" font-size="13" lengthAdjust="spacing" textLength="24" x="1345.9984" y="542.0452">2..4</text><text fill="#000000" font-family="sans-serif" font-size="13" lengthAdjust="spacing" textLength="8" x="1319.0463" y="611.5019">1</text></g><!--reverse link Game to GlobalBoard--><g id="link_Game_GlobalBoard"><path codeLine="35" d="M1510.9566,532.7178 C1520.8766,552.2378 1525.77,561.88 1535.97,581.98 " fill="none" id="Game-backto-GlobalBoard" style="stroke:#181818;stroke-width:1.0;"/><polygon fill="#181818" points="1505.52,522.02,1504.6724,529.1811,1510.9566,532.7178,1511.8042,525.5567,1505.52,522.02" style="stroke:#181818;stroke-width:1.0;"/><text fill="#000000" font-family="sans-serif" font-size="13" lengthAdjust="spacing" textLength="8" x="1501.0766" y="542.0452">1</text><text fill="#000000" font-family="sans-serif" font-size="13" lengthAdjust="spacing" textLength="8" x="1523.8029" y="570.8136">1</text></g><!--reverse link GlobalBoard to Deck--><g id="link_GlobalBoard_Deck"><path codeLine="58" d="M1737.5389,917.1266 C1758.6589,947.4466 1772.5,967.31 1789.34,991.49 " fill="none" id="GlobalBoard-backto-Deck" style="stroke:#181818;stroke-width:1.0;"/><polygon fill="#181818" points="1730.68,907.28,1730.8272,914.4896,1737.5389,917.1266,1737.3916,909.917,1730.68,907.28" style="stroke:#181818;stroke-width:1.0;"/><text fill="#000000" font-family="sans-serif" font-size="13" lengthAdjust="spacing" textLength="8" x="1727.6046" y="927.0647">3</text><text fill="#000000" font-family="sans-serif" font-size="13" lengthAdjust="spacing" textLength="8" x="1775.8742" y="980.3521">1</text></g><!--reverse link Player to PlayerBoard--><g id="link_Player_PlayerBoard"><path codeLine="77" d="M1120.2822,864.851 C1077.0822,901.241 1039.17,933.16 999.264,966.77 " fill="none" id="Player-backto-PlayerBoard" style="stroke:#181818;stroke-width:1.0;"/><polygon fill="#181818" points="1129.46,857.12,1122.2941,857.9262,1120.2822,864.851,1127.4481,864.0448,1129.46,857.12" style="stroke:#181818;stroke-width:1.0;"/><text fill="#000000" font-family="sans-serif" font-size="13" lengthAdjust="spacing" textLength="8" x="1113.5663" y="860.2806">1</text><text fill="#000000" font-family="sans-serif" font-size="13" lengthAdjust="spacing" textLength="8" x="999.3922" y="955.9368">1</text></g><!--reverse link Player to Hand--><g id="link_Player_Hand"><path codeLine="94" d="M1262,878.83 C1262,921.86 1262,956.23 1262,991.14 " fill="none" id="Player-backto-Hand" style="stroke:#181818;stroke-width:1.0;"/><polygon fill="#181818" points="1262,866.83,1258,872.83,1262,878.83,1266,872.83,1262,866.83" style="stroke:#181818;stroke-width:1.0;"/><text fill="#000000" font-family="sans-serif" font-size="13" lengthAdjust="spacing" textLength="8" x="1253.7813" y="886.0126">1</text><text fill="#000000" font-family="sans-serif" font-size="13" lengthAdjust="spacing" textLength="8" x="1253.5125" y="980.3597">1</text></g><!--reverse link PlayerBoard to GameCard--><g id="link_PlayerBoard_GameCard"><path codeLine="106" d="M798.8238,1136.9371 C776.1118,1155.9261 760.682,1168.827 736.608,1188.955 " fill="none" id="PlayerBoard-backto-GameCard" style="stroke:#181818;stroke-width:1.0;"/><polygon fill="#181818" points="808.03,1129.24,800.8612,1130.0198,798.8238,1136.9371,805.9926,1136.1573,808.03,1129.24" style="stroke:#181818;stroke-width:1.0;"/><text fill="#000000" font-family="sans-serif" font-size="13" lengthAdjust="spacing" textLength="25" x="773.3694" y="1149.2127">1..N</text><text fill="#000000" font-family="sans-serif" font-size="13" lengthAdjust="spacing" textLength="8" x="737.3832" y="1177.8847">1</text></g><!--reverse link Store to GameItemStore--><g id="link_Store_GameItemStore"><path d="M978.3679,1393.4191 C985.3039,1443.8421 991.855,1491.471 997.532,1532.745 " fill="none" id="Store-backto-GameItemStore" style="stroke:#181818;stroke-width:1.0;"/><polygon fill="none" points="975.915,1375.587,972.4239,1394.2367,984.3119,1392.6014,975.915,1375.587" style="stroke:#181818;stroke-width:1.0;"/></g><!--reverse link PlayerBoard to Store--><g id="link_PlayerBoard_Store"><path codeLine="123" d="M926.5636,1140.8938 C934.4356,1172.9518 940.572,1197.941 948.239,1229.166 " fill="none" id="PlayerBoard-backto-Store" style="stroke:#181818;stroke-width:1.0;"/><polygon fill="#181818" points="923.702,1129.24,921.2482,1136.0208,926.5636,1140.8938,929.0174,1134.113,923.702,1129.24" style="stroke:#181818;stroke-width:1.0;"/><text fill="#000000" font-family="sans-serif" font-size="13" lengthAdjust="spacing" textLength="8" x="917.1005" y="1149.2127">2</text><text fill="#000000" font-family="sans-serif" font-size="13" lengthAdjust="spacing" textLength="8" x="938.1649" y="1218.5452">1</text></g><!--reverse link GameCard to Side--><g id="link_GameCard_Side"><path codeLine="141" d="M593.2067,1427.9922 C591.8037,1447.8602 591.199,1456.415 589.83,1475.8 " fill="none" id="GameCard-backto-Side" style="stroke:#181818;stroke-width:1.0;"/><polygon fill="#181818" points="594.052,1416.022,589.6393,1421.7253,593.2067,1427.9922,597.6194,1422.2889,594.052,1416.022" style="stroke:#181818;stroke-width:1.0;"/><text fill="#000000" font-family="sans-serif" font-size="13" lengthAdjust="spacing" textLength="8" x="585.2492" y="1436.2156">2</text><text fill="#000000" font-family="sans-serif" font-size="13" lengthAdjust="spacing" textLength="8" x="582.0467" y="1464.8302">1</text></g><!--reverse link Side to Front--><g id="link_Side_Front"><path codeLine="155" d="M437.8351,1682.0293 C402.5081,1708.1983 380.281,1724.662 350.38,1746.811 " fill="none" id="Side-backto-Front" style="stroke:#181818;stroke-width:1.0;"/><polygon fill="none" points="452.299,1671.315,434.2637,1677.208,441.4066,1686.8506,452.299,1671.315" style="stroke:#181818;stroke-width:1.0;"/></g><!--reverse link Side to Back--><g id="link_Side_Back"><path codeLine="156" d="M583,1689.315 C583,1715.484 583,1724.662 583,1746.811 " fill="none" id="Side-backto-Back" style="stroke:#181818;stroke-width:1.0;"/><polygon fill="none" points="583,1671.315,577,1689.315,589,1689.315,583,1671.315" style="stroke:#181818;stroke-width:1.0;"/></g><!--reverse link Side to Corner--><g id="link_Side_Corner"><path codeLine="157" d="M722.4405,1678.489 C749.4915,1698.663 767.728,1712.264 792.679,1730.871 " fill="none" id="Side-backto-Corner" style="stroke:#181818;stroke-width:1.0;"/><polygon fill="#181818" points="712.821,1671.315,715.2394,1678.1085,722.4405,1678.489,720.0221,1671.6955,712.821,1671.315" style="stroke:#181818;stroke-width:1.0;"/><text fill="#000000" font-family="sans-serif" font-size="13" lengthAdjust="spacing" textLength="24" x="697.1053" y="1690.8031">1..4</text><text fill="#000000" font-family="sans-serif" font-size="13" lengthAdjust="spacing" textLength="8" x="774.9095" y="1720.0296">1</text></g><!--reverse link Front to FrontGoldCard--><g id="link_Front_FrontGoldCard"><path codeLine="185" d="M286,1862.085 C286,1886.14 286,1896.994 286,1919.834 " fill="none" id="Front-backto-FrontGoldCard" style="stroke:#181818;stroke-width:1.0;"/><polygon fill="none" points="286,1844.085,280,1862.085,292,1862.085,286,1844.085" style="stroke:#181818;stroke-width:1.0;"/></g><!--reverse link FrontGoldCard to FrontPositionalGoldCard--><g id="link_FrontGoldCard_FrontPositionalGoldCard"><path codeLine="192" d="M230.4682,2013.6546 C207.4052,2035.3146 192.424,2049.3853 171.011,2069.4962 " fill="none" id="FrontGoldCard-backto-FrontPositionalGoldCard" style="stroke:#181818;stroke-width:1.0;"/><polygon fill="none" points="243.589,2001.332,226.3607,2009.281,234.5758,2018.0282,243.589,2001.332" style="stroke:#181818;stroke-width:1.0;"/></g><!--reverse link FrontGoldCard to FrontItemGoldCard--><g id="link_FrontGoldCard_FrontItemGoldCard"><path codeLine="193" d="M341.859,2013.6105 C361.896,2032.3025 372.549,2042.2405 392.554,2060.9028 " fill="none" id="FrontGoldCard-backto-FrontItemGoldCard" style="stroke:#181818;stroke-width:1.0;"/><polygon fill="none" points="328.697,2001.332,337.7662,2017.9978,345.9518,2009.2232,328.697,2001.332" style="stroke:#181818;stroke-width:1.0;"/></g><!--reverse link Player to ObjectiveCard--><g id="link_Player_ObjectiveCard"><path codeLine="223" d="M1379.6233,875.3256 C1393.0833,889.1756 1398.49,894.27 1412,907 C1449.99,942.79 1495.8,980.21 1530.29,1007.36 " fill="none" id="Player-backto-ObjectiveCard" style="stroke:#181818;stroke-width:1.0;"/><polygon fill="#181818" points="1371.26,866.72,1372.5731,873.8105,1379.6233,875.3256,1378.3102,868.235,1371.26,866.72" style="stroke:#181818;stroke-width:1.0;"/></g><!--reverse link GlobalBoard to ObjectiveCard--><g id="link_GlobalBoard_ObjectiveCard"><path codeLine="224" d="M1597.2584,919.1955 C1592.8084,956.4955 1589.88,980.97 1586.74,1007.26 " fill="none" id="GlobalBoard-backto-ObjectiveCard" style="stroke:#181818;stroke-width:1.0;"/><polygon fill="#181818" points="1598.68,907.28,1593.9974,912.7639,1597.2584,919.1955,1601.9411,913.7116,1598.68,907.28" style="stroke:#181818;stroke-width:1.0;"/></g><!--reverse link ObjectiveCard to PositionalObjectiveCard--><g id="link_ObjectiveCard_PositionalObjectiveCard"><path codeLine="225" d="M1554.7651,1104.9111 C1531.7551,1152.1311 1501.49,1214.283 1478.44,1261.584 " fill="none" id="ObjectiveCard-backto-PositionalObjectiveCard" style="stroke:#181818;stroke-width:1.0;"/><polygon fill="none" points="1562.65,1088.73,1549.3714,1102.2828,1560.1588,1107.5394,1562.65,1088.73" style="stroke:#181818;stroke-width:1.0;"/></g><!--reverse link ObjectiveCard to ItemObjectiveCard--><g id="link_ObjectiveCard_ItemObjectiveCard"><path codeLine="232" d="M1625.7898,1102.6764 C1664.3198,1149.8964 1716.85,1214.283 1755.44,1261.584 " fill="none" id="ObjectiveCard-backto-ItemObjectiveCard" style="stroke:#181818;stroke-width:1.0;"/><polygon fill="none" points="1614.41,1088.73,1621.141,1106.4696,1630.4386,1098.8831,1614.41,1088.73" style="stroke:#181818;stroke-width:1.0;"/></g><!--reverse link PositionalObjectiveCard to PositionalData--><g id="link_PositionalObjectiveCard_PositionalData"><path codeLine="243" d="M1459,1355.192 C1459,1394.286 1459,1443.123 1459,1492.312 " fill="none" id="PositionalObjectiveCard-backto-PositionalData" style="stroke:#181818;stroke-width:1.0;"/><polygon fill="#181818" points="1459,1343.192,1455,1349.192,1459,1355.192,1463,1349.192,1459,1343.192" style="stroke:#181818;stroke-width:1.0;"/><text fill="#000000" font-family="sans-serif" font-size="13" lengthAdjust="spacing" textLength="25" x="1432.0859" y="1362.6796">1..N</text><text fill="#000000" font-family="sans-serif" font-size="13" lengthAdjust="spacing" textLength="8" x="1450.6438" y="1481.4826">1</text></g><!--SRC=[pLZDKXmt4BxFKwZ8WKrOaxAJMnogO0tBbc4XxBfyJ8cPPf4pEzgIDDZWy2uvvZtyOcdzIpEpXhXoYAiCahgdVxzkjIXhAYMPqZMSquQkG93F1S5_Bmw5eFTdJAhNcdX0LlXJ3f4cL5G7f88RsjPgoklg3PH_FCbu1PAteeGXvelh3r0gTfT_4KwV9N-Xg50W0kzUpnzGUY57trkwtf1I05MWbwE54gnP6RVd-7zCMAD8SrdJUn1oJ1nvO_QQmOcfe8PX2QcU3vmrmre6v3uMQNfsNkxlptV83ozUu7B7PAueof15dxwEO7kOkj2De3q-S9eTULhpQreVSOmiMSMr9TelIDaA0OsoE-kZLsv3hFNxAFVr8PEpoFCukO4msXRhp3hK5RTU5Aqg9yC9jJ9wYkRmoIjpj6lEQw0DOT8YgVgg1-zPqvXl7ukYuGf83JUAy1kRdYb8nNW3PCLuIHKNZ032YJqm_kCDm_CDQc2A5j1KH7zUc8oJdLVx-p_7LBi8MzBB1099OZmIaiWuGEXAICfabHLgXoXwnMaOEdN9-mNPaICxHRYznYsumk5N6iqDWxhIRKPld-BpNIRoxdNZ0A5d-GptET9cbN5rlO2yIssNcBIdFh3wKgUTyFI_oQIVP35w3dCMg7uD-10ThpVglazEuvEnL89-r29F15yRFIElcfJumzJBRWfMWfWccVz5IjxvASBUeChXtLMoXVhkAIKr9RAbxjnyE_PdjxJ13QjnmqdJha5mKZ4YcEH20g5AjRHcWNt3fIvKh5BPraJHQwXhlGClWbypK6WjtyywR-nMiVVQiqikqmPgFTl4jILcGOYrDWaCf-Y7SSQ6EhJBjDs6mwmhXbEqf7UcnIQ7cHd-N7RFirtelNUqAI5gqX6G2ZRICkpEG-mtc4Ec5sNB2CNF7gW0ZGsNrxJR9Vxux9loMXxq9vUb7WTyxxb2n_YQ2FFhbow4CzWkYGQkRUTEXudsv-tj9YPYIvdvJOZu7MSLmGlA1D1JKvg0DNVnZUJXe6Zhybh8UlyfbRVdTFFw4iSEDIRHhXxgD6ccOBt0MmhCzA1thdLURFGrHkjXnqP6khzQzJgb8W2O_hhhwNEZDMiKhEnbxMqyNFEsKIE_JKCdksP5fvCGkfxI7wWc2RXC92AwllEnN8w9iqdVSyWJIcQq92eMYju5LdVC6XmqrpWq3H4HiTk9UbRXZG7hMxYN5g9n-ekfmu46fmbdlhDzBsD91zzuwDtpfucN0GssBh8Olee1D7AA8ZLhac1nmIhmCwDU9wTStOA8P_g6cF2Q2n9MRhpKp1Y9IPII5PNyo5HvcnvFWYZzcTzuQi3rX0iSumuqZrcDx2-FtKx0Zl7oq4YpJ1EiLO5ZubS_SMKLCPnbmfMC0Qpqk4t2l4tO7A22AXNtQ2V8IIytEhW5lPPAq58HXt0TJeVkRYWKtronrQtQIZt3GNUOUCsLukkdw57wtXDX_zz6siJlzPyOOXnp6fNiZoXUFcQhcqmooblJVOdOdKi10Z_UIivLJyYGvyknSDGSbuddpkb1vDf81eQZtds855ti-CkyQspIzCl6kQ0_cqED9IevlcdC3TustgKlVvExbYi-9XId9a7rb8MFSn1V_i9x7dMJpAHVoVnYVcnaBlGBwGvACsOvQGrl24YyAy3CR-WYIjAF5NmyjKpBz1ZRX-GwHr4uos4FKLGRj67quO4gEYQIhHfsmqeateAHNi4T9ni1l2nRV9IjpL12on8aUaUz7GDQuijjru3097sXPoBU-3GRWYyqCmuQ-0NmVoDICJrMSeIW7_qppVxGMv23kmd8ZWODeZsN5NNwEgHrqBwDLKkC9gOszeNug-jv5PiCR3rD_WBA4BT6DB9DpVnVBfuLxbrTrqCPrkV3uVKlwlyYsxlvqo3Oq6dhEPTx6f69VdV6DukrrGzN5f3lKTZphN7JgEvikSRiuTOZ5pcp0KVCVixgegkZDUHKPsZzffGEMDDJ5mRiOEORR2FU23lncWZQWycsyINCncRnl17bYTuUfbuhyjEOt7S8KM9OQSUtXBmx5ESkzmCnc9RaBsNPvmVcJPs8-nVGD_u7n8FUvME0KxwykFpzQZOzNORTsV69tHnTB9SNvxszvNvqGhDuMv6NPuTp-yNXV7P-U6QM9-_cqvbPpUQBuucb__PkTdRc3j- -FtRhyyFvkyNaQdPfcSnDvzN5v5jTL-xEFwfREmnF1O2joijMR6fmzswB1LyNZ_y0]--></g></svg>