<?xml version="1.0" encoding="us-ascii" standalone="no"?><svg xmlns="http://www.w3.org/2000/svg" xmlns:xlink="http://www.w3.org/1999/xlink" contentStyleType="text/css" height="267px" preserveAspectRatio="none" style="width:1936px;height:267px;background:#FFFFFF;" version="1.1" viewBox="0 0 1936 267" width="1936px" zoomAndPan="magnify"><defs/><g><!--class ServerNetworkMessage--><g id="elem_ServerNetworkMessage"><rect codeLine="1" fill="#F1F1F1" height="96.8906" id="ServerNetworkMessage" rx="2.5" ry="2.5" style="stroke:#181818;stroke-width:0.5;" width="196" x="203.5" y="7"/><ellipse cx="218.5" cy="23" fill="#A9DCDF" rx="11" ry="11" style="stroke:#181818;stroke-width:1.0;"/><path d="M218.6094,18.3438 L217.4531,23.4219 L219.7813,23.4219 L218.6094,18.3438 Z M217.125,16.1094 L220.1094,16.1094 L223.4688,28.5 L221.0156,28.5 L220.25,25.4375 L216.9688,25.4375 L216.2188,28.5 L213.7813,28.5 L217.125,16.1094 Z " fill="#000000"/><text fill="#000000" font-family="sans-serif" font-size="14" font-style="italic" lengthAdjust="spacing" textLength="164" x="232.5" y="27.8467">ServerNetworkMessage</text><line style="stroke:#181818;stroke-width:0.5;" x1="204.5" x2="398.5" y1="39" y2="39"/><rect fill="none" height="6" style="stroke:#C82930;stroke-width:1.0;" width="6" x="211.5" y="49.6484"/><text fill="#000000" font-family="sans-serif" font-size="14" lengthAdjust="spacing" textLength="92" x="223.5" y="55.9951">status: String</text><line style="stroke:#181818;stroke-width:0.5;" x1="204.5" x2="398.5" y1="63.2969" y2="63.2969"/><ellipse cx="214.5" cy="76.9453" fill="#84BE84" rx="3" ry="3" style="stroke:#038048;stroke-width:1.0;"/><text fill="#000000" font-family="sans-serif" font-size="14" lengthAdjust="spacing" textLength="126" x="223.5" y="80.292">getStatus(): String</text><ellipse cx="214.5" cy="93.2422" fill="#84BE84" rx="3" ry="3" style="stroke:#038048;stroke-width:1.0;"/><text fill="#000000" font-family="sans-serif" font-size="14" lengthAdjust="spacing" textLength="113" x="223.5" y="96.5889">setStatus(): void</text></g><!--class ErrorMessage--><g id="elem_ErrorMessage"><rect codeLine="7" fill="#F1F1F1" height="96.8906" id="ErrorMessage" rx="2.5" ry="2.5" style="stroke:#181818;stroke-width:0.5;" width="171" x="7" y="163.89"/><ellipse cx="41.35" cy="179.89" fill="#ADD1B2" rx="11" ry="11" style="stroke:#181818;stroke-width:1.0;"/><path d="M44.3188,185.5306 Q43.7406,185.8275 43.1,185.9681 Q42.4594,186.1244 41.7563,186.1244 Q39.2563,186.1244 37.9281,184.4838 Q36.6156,182.8275 36.6156,179.7025 Q36.6156,176.5775 37.9281,174.9213 Q39.2563,173.265 41.7563,173.265 Q42.4594,173.265 43.1,173.4213 Q43.7563,173.5775 44.3188,173.8744 L44.3188,176.5931 Q43.6938,176.015 43.1,175.7494 Q42.5063,175.4681 41.8813,175.4681 Q40.5375,175.4681 39.85,176.5463 Q39.1625,177.6088 39.1625,179.7025 Q39.1625,181.7963 39.85,182.8744 Q40.5375,183.9369 41.8813,183.9369 Q42.5063,183.9369 43.1,183.6713 Q43.6938,183.39 44.3188,182.8119 L44.3188,185.5306 Z " fill="#000000"/><text fill="#000000" font-family="sans-serif" font-size="14" lengthAdjust="spacing" textLength="96" x="59.65" y="184.7367">ErrorMessage</text><line style="stroke:#181818;stroke-width:0.5;" x1="8" x2="177" y1="195.89" y2="195.89"/><rect fill="none" height="6" style="stroke:#C82930;stroke-width:1.0;" width="6" x="15" y="206.5384"/><text fill="#000000" font-family="sans-serif" font-size="14" lengthAdjust="spacing" textLength="113" x="27" y="212.8851">message: String</text><line style="stroke:#181818;stroke-width:0.5;" x1="8" x2="177" y1="220.1869" y2="220.1869"/><ellipse cx="18" cy="233.8353" fill="#84BE84" rx="3" ry="3" style="stroke:#038048;stroke-width:1.0;"/><text fill="#000000" font-family="sans-serif" font-size="14" lengthAdjust="spacing" textLength="145" x="27" y="237.182">getMessage(): String</text><ellipse cx="18" cy="250.1322" fill="#84BE84" rx="3" ry="3" style="stroke:#038048;stroke-width:1.0;"/><text fill="#000000" font-family="sans-serif" font-size="14" lengthAdjust="spacing" textLength="132" x="27" y="253.4789">setMessage(): void</text></g><!--class GetGamesMessage--><g id="elem_GetGamesMessage"><rect codeLine="13" fill="#F1F1F1" height="64.2969" id="GetGamesMessage" rx="2.5" ry="2.5" style="stroke:#181818;stroke-width:0.5;" width="249" x="425" y="180.19"/><ellipse cx="476.75" cy="196.19" fill="#ADD1B2" rx="11" ry="11" style="stroke:#181818;stroke-width:1.0;"/><path d="M479.7188,201.8306 Q479.1406,202.1275 478.5,202.2681 Q477.8594,202.4244 477.1563,202.4244 Q474.6563,202.4244 473.3281,200.7838 Q472.0156,199.1275 472.0156,196.0025 Q472.0156,192.8775 473.3281,191.2213 Q474.6563,189.565 477.1563,189.565 Q477.8594,189.565 478.5,189.7213 Q479.1563,189.8775 479.7188,190.1744 L479.7188,192.8931 Q479.0938,192.315 478.5,192.0494 Q477.9063,191.7681 477.2813,191.7681 Q475.9375,191.7681 475.25,192.8463 Q474.5625,193.9088 474.5625,196.0025 Q474.5625,198.0963 475.25,199.1744 Q475.9375,200.2369 477.2813,200.2369 Q477.9063,200.2369 478.5,199.9713 Q479.0938,199.69 479.7188,199.1119 L479.7188,201.8306 Z " fill="#000000"/><text fill="#000000" font-family="sans-serif" font-size="14" lengthAdjust="spacing" textLength="137" x="497.25" y="201.0367">GetGamesMessage</text><line style="stroke:#181818;stroke-width:0.5;" x1="426" x2="673" y1="212.19" y2="212.19"/><rect fill="none" height="6" style="stroke:#C82930;stroke-width:1.0;" width="6" x="433" y="222.8384"/><text fill="#000000" font-family="sans-serif" font-size="14" lengthAdjust="spacing" textLength="223" x="445" y="229.1851">ArrayList&lt;GameRecord&gt; games</text><line style="stroke:#181818;stroke-width:0.5;" x1="426" x2="673" y1="236.4869" y2="236.4869"/></g><!--class GameRecord--><g id="elem_GameRecord"><rect codeLine="16" fill="#F1F1F1" height="96.8906" id="GameRecord" rx="2.5" ry="2.5" style="stroke:#181818;stroke-width:0.5;" width="177" x="461" y="7"/><ellipse cx="500.3" cy="23" fill="#ADD1B2" rx="11" ry="11" style="stroke:#181818;stroke-width:1.0;"/><path d="M503.2688,28.6406 Q502.6906,28.9375 502.05,29.0781 Q501.4094,29.2344 500.7063,29.2344 Q498.2063,29.2344 496.8781,27.5938 Q495.5656,25.9375 495.5656,22.8125 Q495.5656,19.6875 496.8781,18.0313 Q498.2063,16.375 500.7063,16.375 Q501.4094,16.375 502.05,16.5313 Q502.7063,16.6875 503.2688,16.9844 L503.2688,19.7031 Q502.6438,19.125 502.05,18.8594 Q501.4563,18.5781 500.8313,18.5781 Q499.4875,18.5781 498.8,19.6563 Q498.1125,20.7188 498.1125,22.8125 Q498.1125,24.9063 498.8,25.9844 Q499.4875,27.0469 500.8313,27.0469 Q501.4563,27.0469 502.05,26.7813 Q502.6438,26.5 503.2688,25.9219 L503.2688,28.6406 Z " fill="#000000"/><text fill="#000000" font-family="sans-serif" font-size="14" lengthAdjust="spacing" textLength="91" x="519.7" y="27.8467">GameRecord</text><line style="stroke:#181818;stroke-width:0.5;" x1="462" x2="637" y1="39" y2="39"/><rect fill="none" height="6" style="stroke:#C82930;stroke-width:1.0;" width="6" x="469" y="49.6484"/><text fill="#000000" font-family="sans-serif" font-size="14" lengthAdjust="spacing" textLength="123" x="481" y="55.9951">String gameName</text><rect fill="none" height="6" style="stroke:#C82930;stroke-width:1.0;" width="6" x="469" y="65.9453"/><text fill="#000000" font-family="sans-serif" font-size="14" lengthAdjust="spacing" textLength="112" x="481" y="72.292">int joinedPlayers</text><rect fill="none" height="6" style="stroke:#C82930;stroke-width:1.0;" width="6" x="469" y="82.2422"/><text fill="#000000" font-family="sans-serif" font-size="14" lengthAdjust="spacing" textLength="151" x="481" y="88.5889">int maxAllowedPlayers</text><line style="stroke:#181818;stroke-width:0.5;" x1="462" x2="637" y1="95.8906" y2="95.8906"/></g><!--class ViewUpdateMessage--><g id="elem_ViewUpdateMessage"><rect codeLine="23" fill="#F1F1F1" height="48" id="ViewUpdateMessage" rx="2.5" ry="2.5" style="stroke:#181818;stroke-width:0.5;" width="177" x="213" y="188.33"/><ellipse cx="228" cy="204.33" fill="#ADD1B2" rx="11" ry="11" style="stroke:#181818;stroke-width:1.0;"/><path d="M230.9688,209.9706 Q230.3906,210.2675 229.75,210.4081 Q229.1094,210.5644 228.4063,210.5644 Q225.9063,210.5644 224.5781,208.9238 Q223.2656,207.2675 223.2656,204.1425 Q223.2656,201.0175 224.5781,199.3613 Q225.9063,197.705 228.4063,197.705 Q229.1094,197.705 229.75,197.8613 Q230.4063,198.0175 230.9688,198.3144 L230.9688,201.0331 Q230.3438,200.455 229.75,200.1894 Q229.1563,199.9081 228.5313,199.9081 Q227.1875,199.9081 226.5,200.9863 Q225.8125,202.0488 225.8125,204.1425 Q225.8125,206.2363 226.5,207.3144 Q227.1875,208.3769 228.5313,208.3769 Q229.1563,208.3769 229.75,208.1113 Q230.3438,207.83 230.9688,207.2519 L230.9688,209.9706 Z " fill="#000000"/><text fill="#000000" font-family="sans-serif" font-size="14" lengthAdjust="spacing" textLength="145" x="242" y="209.1767">ViewUpdateMessage</text><line style="stroke:#181818;stroke-width:0.5;" x1="214" x2="389" y1="220.33" y2="220.33"/><line style="stroke:#181818;stroke-width:0.5;" x1="214" x2="389" y1="228.33" y2="228.33"/></g><!--class ClientServerMessage--><g id="elem_ClientServerMessage"><rect codeLine="27" fill="#F1F1F1" height="80.5938" id="ClientServerMessage" rx="2.5" ry="2.5" style="stroke:#181818;stroke-width:0.5;" width="294" x="672.5" y="15.15"/><ellipse cx="742.25" cy="31.15" fill="#A9DCDF" rx="11" ry="11" style="stroke:#181818;stroke-width:1.0;"/><path d="M742.3594,26.4938 L741.2031,31.5719 L743.5313,31.5719 L742.3594,26.4938 Z M740.875,24.2594 L743.8594,24.2594 L747.2188,36.65 L744.7656,36.65 L744,33.5875 L740.7188,33.5875 L739.9688,36.65 L737.5313,36.65 L740.875,24.2594 Z " fill="#000000"/><text fill="#000000" font-family="sans-serif" font-size="14" font-style="italic" lengthAdjust="spacing" textLength="146" x="762.75" y="35.9967">ClientServerMessage</text><line style="stroke:#181818;stroke-width:0.5;" x1="673.5" x2="965.5" y1="47.15" y2="47.15"/><rect fill="none" height="6" style="stroke:#C82930;stroke-width:1.0;" width="6" x="680.5" y="57.7984"/><text fill="#000000" font-family="sans-serif" font-size="14" lengthAdjust="spacing" textLength="268" x="692.5" y="64.1451">PlayerActionsEnum playerActionsEnum</text><rect fill="none" height="6" style="stroke:#C82930;stroke-width:1.0;" width="6" x="680.5" y="74.0953"/><text fill="#000000" font-family="sans-serif" font-size="14" lengthAdjust="spacing" textLength="170" x="692.5" y="80.442">&lt;Record T&gt; parameters</text><line style="stroke:#181818;stroke-width:0.5;" x1="673.5" x2="965.5" y1="87.7438" y2="87.7438"/></g><!--class PlaceCardMessage--><g id="elem_PlaceCardMessage"><rect codeLine="31" fill="#F1F1F1" height="64.2969" id="PlaceCardMessage" rx="2.5" ry="2.5" style="stroke:#181818;stroke-width:0.5;" width="164" x="737.5" y="180.19"/><ellipse cx="752.5" cy="196.19" fill="#ADD1B2" rx="11" ry="11" style="stroke:#181818;stroke-width:1.0;"/><path d="M755.4688,201.8306 Q754.8906,202.1275 754.25,202.2681 Q753.6094,202.4244 752.9063,202.4244 Q750.4063,202.4244 749.0781,200.7838 Q747.7656,199.1275 747.7656,196.0025 Q747.7656,192.8775 749.0781,191.2213 Q750.4063,189.565 752.9063,189.565 Q753.6094,189.565 754.25,189.7213 Q754.9063,189.8775 755.4688,190.1744 L755.4688,192.8931 Q754.8438,192.315 754.25,192.0494 Q753.6563,191.7681 753.0313,191.7681 Q751.6875,191.7681 751,192.8463 Q750.3125,193.9088 750.3125,196.0025 Q750.3125,198.0963 751,199.1744 Q751.6875,200.2369 753.0313,200.2369 Q753.6563,200.2369 754.25,199.9713 Q754.8438,199.69 755.4688,199.1119 L755.4688,201.8306 Z " fill="#000000"/><text fill="#000000" font-family="sans-serif" font-size="14" lengthAdjust="spacing" textLength="132" x="766.5" y="201.0367">PlaceCardMessage</text><line style="stroke:#181818;stroke-width:0.5;" x1="738.5" x2="900.5" y1="212.19" y2="212.19"/><rect fill="none" height="6" style="stroke:#C82930;stroke-width:1.0;" width="6" x="745.5" y="222.8384"/><text fill="#000000" font-family="sans-serif" font-size="14" lengthAdjust="spacing" textLength="66" x="757.5" y="229.1851">Card card</text><line style="stroke:#181818;stroke-width:0.5;" x1="738.5" x2="900.5" y1="236.4869" y2="236.4869"/></g><!--class ServerConnection--><g id="elem_ServerConnection"><rect codeLine="34" fill="#F1F1F1" height="64.2969" id="ServerConnection" rx="2.5" ry="2.5" style="stroke:#181818;stroke-width:0.5;" width="322" x="1001.5" y="23.3"/><ellipse cx="1096.25" cy="39.3" fill="#A9DCDF" rx="11" ry="11" style="stroke:#181818;stroke-width:1.0;"/><path d="M1096.3594,34.6438 L1095.2031,39.7219 L1097.5313,39.7219 L1096.3594,34.6438 Z M1094.875,32.4094 L1097.8594,32.4094 L1101.2188,44.8 L1098.7656,44.8 L1098,41.7375 L1094.7188,41.7375 L1093.9688,44.8 L1091.5313,44.8 L1094.875,32.4094 Z " fill="#000000"/><text fill="#000000" font-family="sans-serif" font-size="14" font-style="italic" lengthAdjust="spacing" textLength="124" x="1116.75" y="44.1467">ServerConnection</text><line style="stroke:#181818;stroke-width:0.5;" x1="1002.5" x2="1322.5" y1="55.3" y2="55.3"/><rect fill="none" height="6" style="stroke:#C82930;stroke-width:1.0;" width="6" x="1009.5" y="65.9484"/><text fill="#000000" font-family="sans-serif" font-size="14" lengthAdjust="spacing" textLength="296" x="1021.5" y="72.2951">GameControllerMiddleware gameController</text><line style="stroke:#181818;stroke-width:0.5;" x1="1002.5" x2="1322.5" y1="79.5969" y2="79.5969"/></g><!--class ClientConnection--><g id="elem_ClientConnection"><rect codeLine="38" fill="#F1F1F1" height="48" id="ClientConnection" rx="2.5" ry="2.5" style="stroke:#181818;stroke-width:0.5;" width="151" x="1564" y="31.44"/><ellipse cx="1579" cy="47.44" fill="#A9DCDF" rx="11" ry="11" style="stroke:#181818;stroke-width:1.0;"/><path d="M1579.1094,42.7838 L1577.9531,47.8619 L1580.2813,47.8619 L1579.1094,42.7838 Z M1577.625,40.5494 L1580.6094,40.5494 L1583.9688,52.94 L1581.5156,52.94 L1580.75,49.8775 L1577.4688,49.8775 L1576.7188,52.94 L1574.2813,52.94 L1577.625,40.5494 Z " fill="#000000"/><text fill="#000000" font-family="sans-serif" font-size="14" font-style="italic" lengthAdjust="spacing" textLength="119" x="1593" y="52.2867">ClientConnection</text><line style="stroke:#181818;stroke-width:0.5;" x1="1565" x2="1714" y1="63.44" y2="63.44"/><line style="stroke:#181818;stroke-width:0.5;" x1="1565" x2="1714" y1="71.44" y2="71.44"/></g><!--class TCPClientConnection--><g id="elem_TCPClientConnection"><rect codeLine="42" fill="#F1F1F1" height="64.2969" id="TCPClientConnection" rx="2.5" ry="2.5" style="stroke:#181818;stroke-width:0.5;" width="179" x="1540" y="180.19"/><ellipse cx="1555" cy="196.19" fill="#ADD1B2" rx="11" ry="11" style="stroke:#181818;stroke-width:1.0;"/><path d="M1557.9688,201.8306 Q1557.3906,202.1275 1556.75,202.2681 Q1556.1094,202.4244 1555.4063,202.4244 Q1552.9063,202.4244 1551.5781,200.7838 Q1550.2656,199.1275 1550.2656,196.0025 Q1550.2656,192.8775 1551.5781,191.2213 Q1552.9063,189.565 1555.4063,189.565 Q1556.1094,189.565 1556.75,189.7213 Q1557.4063,189.8775 1557.9688,190.1744 L1557.9688,192.8931 Q1557.3438,192.315 1556.75,192.0494 Q1556.1563,191.7681 1555.5313,191.7681 Q1554.1875,191.7681 1553.5,192.8463 Q1552.8125,193.9088 1552.8125,196.0025 Q1552.8125,198.0963 1553.5,199.1744 Q1554.1875,200.2369 1555.5313,200.2369 Q1556.1563,200.2369 1556.75,199.9713 Q1557.3438,199.69 1557.9688,199.1119 L1557.9688,201.8306 Z " fill="#000000"/><text fill="#000000" font-family="sans-serif" font-size="14" lengthAdjust="spacing" textLength="147" x="1569" y="201.0367">TCPClientConnection</text><line style="stroke:#181818;stroke-width:0.5;" x1="1541" x2="1718" y1="212.19" y2="212.19"/><rect fill="none" height="6" style="stroke:#C82930;stroke-width:1.0;" width="6" x="1548" y="222.8384"/><text fill="#000000" font-family="sans-serif" font-size="14" lengthAdjust="spacing" textLength="99" x="1560" y="229.1851">Socket socket</text><line style="stroke:#181818;stroke-width:0.5;" x1="1541" x2="1718" y1="236.4869" y2="236.4869"/></g><!--class PlayerActions--><g id="elem_PlayerActions"><rect fill="#F1F1F1" height="48" id="PlayerActions" rx="2.5" ry="2.5" style="stroke:#181818;stroke-width:0.5;" width="124" x="1769.5" y="31.44"/><ellipse cx="1784.5" cy="47.44" fill="#B4A7E5" rx="11" ry="11" style="stroke:#181818;stroke-width:1.0;"/><path d="M1780.4219,43.2056 L1780.4219,41.0494 L1787.8125,41.0494 L1787.8125,43.2056 L1785.3438,43.2056 L1785.3438,51.2838 L1787.8125,51.2838 L1787.8125,53.44 L1780.4219,53.44 L1780.4219,51.2838 L1782.8906,51.2838 L1782.8906,43.2056 L1780.4219,43.2056 Z " fill="#000000"/><text fill="#000000" font-family="sans-serif" font-size="14" font-style="italic" lengthAdjust="spacing" textLength="92" x="1798.5" y="52.2867">PlayerActions</text><line style="stroke:#181818;stroke-width:0.5;" x1="1770.5" x2="1892.5" y1="63.44" y2="63.44"/><line style="stroke:#181818;stroke-width:0.5;" x1="1770.5" x2="1892.5" y1="71.44" y2="71.44"/></g><!--class RMIClientConnection--><g id="elem_RMIClientConnection"><rect codeLine="45" fill="#F1F1F1" height="64.2969" id="RMIClientConnection" rx="2.5" ry="2.5" style="stroke:#181818;stroke-width:0.5;" width="176" x="1753.5" y="180.19"/><ellipse cx="1768.5" cy="196.19" fill="#ADD1B2" rx="11" ry="11" style="stroke:#181818;stroke-width:1.0;"/><path d="M1771.4688,201.8306 Q1770.8906,202.1275 1770.25,202.2681 Q1769.6094,202.4244 1768.9063,202.4244 Q1766.4063,202.4244 1765.0781,200.7838 Q1763.7656,199.1275 1763.7656,196.0025 Q1763.7656,192.8775 1765.0781,191.2213 Q1766.4063,189.565 1768.9063,189.565 Q1769.6094,189.565 1770.25,189.7213 Q1770.9063,189.8775 1771.4688,190.1744 L1771.4688,192.8931 Q1770.8438,192.315 1770.25,192.0494 Q1769.6563,191.7681 1769.0313,191.7681 Q1767.6875,191.7681 1767,192.8463 Q1766.3125,193.9088 1766.3125,196.0025 Q1766.3125,198.0963 1767,199.1744 Q1767.6875,200.2369 1769.0313,200.2369 Q1769.6563,200.2369 1770.25,199.9713 Q1770.8438,199.69 1771.4688,199.1119 L1771.4688,201.8306 Z " fill="#000000"/><text fill="#000000" font-family="sans-serif" font-size="14" lengthAdjust="spacing" textLength="144" x="1782.5" y="201.0367">RMIClientConnection</text><line style="stroke:#181818;stroke-width:0.5;" x1="1754.5" x2="1928.5" y1="212.19" y2="212.19"/><rect fill="none" height="6" style="stroke:#C82930;stroke-width:1.0;" width="6" x="1761.5" y="222.8384"/><text fill="#000000" font-family="sans-serif" font-size="14" lengthAdjust="spacing" textLength="149" x="1773.5" y="229.1851">Loggable remoteHost</text><line style="stroke:#181818;stroke-width:0.5;" x1="1754.5" x2="1928.5" y1="236.4869" y2="236.4869"/></g><!--class TCPServerConnection--><g id="elem_TCPServerConnection"><rect codeLine="48" fill="#F1F1F1" height="64.2969" id="TCPServerConnection" rx="2.5" ry="2.5" style="stroke:#181818;stroke-width:0.5;" width="213" x="1063" y="180.19"/><ellipse cx="1091.05" cy="196.19" fill="#ADD1B2" rx="11" ry="11" style="stroke:#181818;stroke-width:1.0;"/><path d="M1094.0188,201.8306 Q1093.4406,202.1275 1092.8,202.2681 Q1092.1594,202.4244 1091.4563,202.4244 Q1088.9563,202.4244 1087.6281,200.7838 Q1086.3156,199.1275 1086.3156,196.0025 Q1086.3156,192.8775 1087.6281,191.2213 Q1088.9563,189.565 1091.4563,189.565 Q1092.1594,189.565 1092.8,189.7213 Q1093.4563,189.8775 1094.0188,190.1744 L1094.0188,192.8931 Q1093.3938,192.315 1092.8,192.0494 Q1092.2063,191.7681 1091.5813,191.7681 Q1090.2375,191.7681 1089.55,192.8463 Q1088.8625,193.9088 1088.8625,196.0025 Q1088.8625,198.0963 1089.55,199.1744 Q1090.2375,200.2369 1091.5813,200.2369 Q1092.2063,200.2369 1092.8,199.9713 Q1093.3938,199.69 1094.0188,199.1119 L1094.0188,201.8306 Z " fill="#000000"/><text fill="#000000" font-family="sans-serif" font-size="14" lengthAdjust="spacing" textLength="152" x="1107.95" y="201.0367">TCPServerConnection</text><line style="stroke:#181818;stroke-width:0.5;" x1="1064" x2="1275" y1="212.19" y2="212.19"/><rect fill="none" height="6" style="stroke:#C82930;stroke-width:1.0;" width="6" x="1071" y="222.8384"/><text fill="#000000" font-family="sans-serif" font-size="14" lengthAdjust="spacing" textLength="187" x="1083" y="229.1851">ServerSocket serverSocket</text><line style="stroke:#181818;stroke-width:0.5;" x1="1064" x2="1275" y1="236.4869" y2="236.4869"/></g><!--class ServerActions--><g id="elem_ServerActions"><rect fill="#F1F1F1" height="48" id="ServerActions" rx="2.5" ry="2.5" style="stroke:#181818;stroke-width:0.5;" width="127" x="1358" y="31.44"/><ellipse cx="1373" cy="47.44" fill="#B4A7E5" rx="11" ry="11" style="stroke:#181818;stroke-width:1.0;"/><path d="M1368.9219,43.2056 L1368.9219,41.0494 L1376.3125,41.0494 L1376.3125,43.2056 L1373.8438,43.2056 L1373.8438,51.2838 L1376.3125,51.2838 L1376.3125,53.44 L1368.9219,53.44 L1368.9219,51.2838 L1371.3906,51.2838 L1371.3906,43.2056 L1368.9219,43.2056 Z " fill="#000000"/><text fill="#000000" font-family="sans-serif" font-size="14" font-style="italic" lengthAdjust="spacing" textLength="95" x="1387" y="52.2867">ServerActions</text><line style="stroke:#181818;stroke-width:0.5;" x1="1359" x2="1484" y1="63.44" y2="63.44"/><line style="stroke:#181818;stroke-width:0.5;" x1="1359" x2="1484" y1="71.44" y2="71.44"/></g><!--class RMIServerConnection--><g id="elem_RMIServerConnection"><rect codeLine="51" fill="#F1F1F1" height="64.2969" id="RMIServerConnection" rx="2.5" ry="2.5" style="stroke:#181818;stroke-width:0.5;" width="181" x="1324" y="180.19"/><ellipse cx="1339" cy="196.19" fill="#ADD1B2" rx="11" ry="11" style="stroke:#181818;stroke-width:1.0;"/><path d="M1341.9688,201.8306 Q1341.3906,202.1275 1340.75,202.2681 Q1340.1094,202.4244 1339.4063,202.4244 Q1336.9063,202.4244 1335.5781,200.7838 Q1334.2656,199.1275 1334.2656,196.0025 Q1334.2656,192.8775 1335.5781,191.2213 Q1336.9063,189.565 1339.4063,189.565 Q1340.1094,189.565 1340.75,189.7213 Q1341.4063,189.8775 1341.9688,190.1744 L1341.9688,192.8931 Q1341.3438,192.315 1340.75,192.0494 Q1340.1563,191.7681 1339.5313,191.7681 Q1338.1875,191.7681 1337.5,192.8463 Q1336.8125,193.9088 1336.8125,196.0025 Q1336.8125,198.0963 1337.5,199.1744 Q1338.1875,200.2369 1339.5313,200.2369 Q1340.1563,200.2369 1340.75,199.9713 Q1341.3438,199.69 1341.9688,199.1119 L1341.9688,201.8306 Z " fill="#000000"/><text fill="#000000" font-family="sans-serif" font-size="14" lengthAdjust="spacing" textLength="149" x="1353" y="201.0367">RMIServerConnection</text><line style="stroke:#181818;stroke-width:0.5;" x1="1325" x2="1504" y1="212.19" y2="212.19"/><rect fill="none" height="6" style="stroke:#C82930;stroke-width:1.0;" width="6" x="1332" y="222.8384"/><text fill="#000000" font-family="sans-serif" font-size="14" lengthAdjust="spacing" textLength="149" x="1344" y="229.1851">Loggable remoteHost</text><line style="stroke:#181818;stroke-width:0.5;" x1="1325" x2="1504" y1="236.4869" y2="236.4869"/></g><!--reverse link ServerNetworkMessage to ErrorMessage--><g id="link_ServerNetworkMessage_ErrorMessage"><path d="M222.6268,114.8952 C197.1968,133.7352 182.5,144.63 157.06,163.49 " fill="none" id="ServerNetworkMessage-backto-ErrorMessage" style="stroke:#181818;stroke-width:1.0;"/><polygon fill="none" points="237.09,104.18,219.055,110.0741,226.1985,119.7163,237.09,104.18" style="stroke:#181818;stroke-width:1.0;"/></g><!--reverse link ServerNetworkMessage to GetGamesMessage--><g id="link_ServerNetworkMessage_GetGamesMessage"><path d="M393.197,113.7151 C432.617,138.3351 464.34,158.15 499.16,179.9 " fill="none" id="ServerNetworkMessage-backto-GetGamesMessage" style="stroke:#181818;stroke-width:1.0;"/><polygon fill="none" points="377.93,104.18,390.0186,118.8041,396.3754,108.6261,377.93,104.18" style="stroke:#181818;stroke-width:1.0;"/></g><!--link GameRecord to GetGamesMessage--><g id="link_GameRecord_GetGamesMessage"><path codeLine="21" d="M549.5,104.18 C549.5,128.89 549.5,158.36 549.5,180.13 " fill="none" id="GameRecord-GetGamesMessage" style="stroke:#181818;stroke-width:1.0;"/></g><!--reverse link ServerNetworkMessage to ViewUpdateMessage--><g id="link_ServerNetworkMessage_ViewUpdateMessage"><path d="M301.5,122.18 C301.5,150.09 301.5,166.07 301.5,188.18 " fill="none" id="ServerNetworkMessage-backto-ViewUpdateMessage" style="stroke:#181818;stroke-width:1.0;"/><polygon fill="none" points="301.5,104.18,295.5,122.18,307.5,122.18,301.5,104.18" style="stroke:#181818;stroke-width:1.0;"/></g><!--reverse link ClientServerMessage to PlaceCardMessage--><g id="link_ClientServerMessage_PlaceCardMessage"><path d="M819.5,113.93 C819.5,139.92 819.5,155.49 819.5,179.72 " fill="none" id="ClientServerMessage-backto-PlaceCardMessage" style="stroke:#181818;stroke-width:1.0;"/><polygon fill="none" points="819.5,95.93,813.5,113.93,825.5,113.93,819.5,95.93" style="stroke:#181818;stroke-width:1.0;"/></g><!--reverse link ClientConnection to TCPClientConnection--><g id="link_ClientConnection_TCPClientConnection"><path d="M1636.8416,97.5927 C1635.1216,124.2627 1633.45,150.22 1631.53,179.93 " fill="none" id="ClientConnection-backto-TCPClientConnection" style="stroke:#181818;stroke-width:1.0;"/><polygon fill="none" points="1638,79.63,1630.854,97.2065,1642.8291,97.9788,1638,79.63" style="stroke:#181818;stroke-width:1.0;"/></g><!--reverse link PlayerActions to TCPClientConnection--><g id="link_PlayerActions_TCPClientConnection"><path d="M1786.9761,90.5831 C1752.1961,117.2531 1709.2,150.22 1670.45,179.93 " fill="none" id="PlayerActions-backto-TCPClientConnection" style="stroke:#181818;stroke-width:1.0;stroke-dasharray:7.0,7.0;"/><polygon fill="none" points="1801.26,79.63,1783.3251,85.8219,1790.6272,95.3444,1801.26,79.63" style="stroke:#181818;stroke-width:1.0;"/></g><!--reverse link ClientConnection to RMIClientConnection--><g id="link_ClientConnection_RMIClientConnection"><path d="M1684.0239,90.5831 C1718.8039,117.2531 1761.8,150.22 1800.55,179.93 " fill="none" id="ClientConnection-backto-RMIClientConnection" style="stroke:#181818;stroke-width:1.0;"/><polygon fill="none" points="1669.74,79.63,1680.3728,95.3444,1687.6749,85.8219,1669.74,79.63" style="stroke:#181818;stroke-width:1.0;"/></g><!--reverse link PlayerActions to RMIClientConnection--><g id="link_PlayerActions_RMIClientConnection"><path d="M1834.1584,97.5927 C1835.8784,124.2627 1837.55,150.22 1839.47,179.93 " fill="none" id="PlayerActions-backto-RMIClientConnection" style="stroke:#181818;stroke-width:1.0;stroke-dasharray:7.0,7.0;"/><polygon fill="none" points="1833,79.63,1828.1709,97.9788,1840.146,97.2065,1833,79.63" style="stroke:#181818;stroke-width:1.0;"/></g><!--reverse link ServerConnection to TCPServerConnection--><g id="link_ServerConnection_TCPServerConnection"><path d="M1164.7325,105.7717 C1165.9425,132.5517 1166.86,152.92 1168.07,179.77 " fill="none" id="ServerConnection-backto-TCPServerConnection" style="stroke:#181818;stroke-width:1.0;"/><polygon fill="none" points="1163.92,87.79,1158.7386,106.0425,1170.7263,105.5008,1163.92,87.79" style="stroke:#181818;stroke-width:1.0;"/></g><!--reverse link ServerActions to TCPServerConnection--><g id="link_ServerActions_TCPServerConnection"><path d="M1368.165,89.2255 C1324.855,115.8455 1269.17,150.07 1220.93,179.72 " fill="none" id="ServerActions-backto-TCPServerConnection" style="stroke:#181818;stroke-width:1.0;stroke-dasharray:7.0,7.0;"/><polygon fill="none" points="1383.5,79.8,1365.0232,84.1138,1371.3069,94.3371,1383.5,79.8" style="stroke:#181818;stroke-width:1.0;"/></g><!--reverse link ServerConnection to RMIServerConnection--><g id="link_ServerConnection_RMIServerConnection"><path d="M1229.1347,97.4059 C1272.7347,124.2059 1319.69,153.06 1363.27,179.85 " fill="none" id="ServerConnection-backto-RMIServerConnection" style="stroke:#181818;stroke-width:1.0;"/><polygon fill="none" points="1213.8,87.98,1225.9927,102.5175,1232.2766,92.2943,1213.8,87.98" style="stroke:#181818;stroke-width:1.0;"/></g><!--reverse link ServerActions to RMIServerConnection--><g id="link_ServerActions_RMIServerConnection"><path d="M1419.6409,97.6118 C1418.4409,124.2818 1417.26,150.22 1415.92,179.93 " fill="none" id="ServerActions-backto-RMIServerConnection" style="stroke:#181818;stroke-width:1.0;stroke-dasharray:7.0,7.0;"/><polygon fill="none" points="1420.45,79.63,1413.647,97.3421,1425.6349,97.8815,1420.45,79.63" style="stroke:#181818;stroke-width:1.0;"/></g><!--SRC=[hLBTQi8m5BxlK-HoO_W2GmGfuWOgecxtiJcKp3Gf9qUh3DzzQTBQ7vqWM6XBpdVo_Po4RoqXJuWbYblBre07m0LGON0t1sjv2kmtOkuPMEAqj-ziJIXrwcjlAT3QbrzUku1j0mSZHNIEeg0nGJHOSyEHG8lxmbbONYbNRJUaMqXNUmeqvOxl4Van8Z_DfALXkNK5YK4nOcb9uuWhtWjIxmgEVDl2lQ4eDR4V8pM8fU8dGDkKCtuSAsMA1Zf7BTR1eE-zZlGjeVZA1ITu85Gv4Tuz-bX9q1Jsz2OG78qJaaRRYTvdBEzNGkEmShiPiPoZCqiXI51mD0d474NVw1tfifqbxkDO-Asx6XkjmVkejvH3SbL2evJZaq8eA3Y2Fui6-7S47KRNLBdVnCihl1kW1SWiLv2vca_TZEfoEqoo0sBM_ou3Miq_doSnCsdAjmeOGcO8FenjX5oMg-brRyrjeO3ri_XYdQYrQETwdjpDN7y0]--></g></svg>