<?xml version="1.0" encoding="us-ascii" standalone="no"?><svg xmlns="http://www.w3.org/2000/svg" xmlns:xlink="http://www.w3.org/1999/xlink" contentStyleType="text/css" height="2419px" preserveAspectRatio="none" style="width:1493px;height:2419px;background:#FFFFFF;" version="1.1" viewBox="0 0 1493 2419" width="1493px" zoomAndPan="magnify"><defs/><g><!--class GameManager--><g id="elem_GameManager"><rect codeLine="1" fill="#F1F1F1" height="129.4844" id="GameManager" rx="2.5" ry="2.5" style="stroke:#181818;stroke-width:0.5;" width="447" x="695.5" y="23.5"/><ellipse cx="863.25" cy="39.5" fill="#ADD1B2" rx="11" ry="11" style="stroke:#181818;stroke-width:1.0;"/><path d="M865.5938,35.1719 C864.6563,34.7344 864.0625,34.5938 863.1875,34.5938 C860.5625,34.5938 858.5625,36.6719 858.5625,39.3906 L858.5625,40.5156 C858.5625,43.0938 860.6719,44.9844 863.5625,44.9844 C864.7813,44.9844 865.9375,44.6875 866.6875,44.1406 C867.2656,43.7344 867.5938,43.2813 867.5938,42.8906 C867.5938,42.4375 867.2031,42.0469 866.7344,42.0469 C866.5156,42.0469 866.3125,42.125 866.125,42.3125 C865.6719,42.7969 865.6719,42.7969 865.4844,42.8906 C865.0625,43.1563 864.375,43.2813 863.6094,43.2813 C861.5625,43.2813 860.2656,42.1875 860.2656,40.4844 L860.2656,39.3906 C860.2656,37.6094 861.5156,36.2969 863.25,36.2969 C863.8281,36.2969 864.4375,36.4531 864.9063,36.7031 C865.3906,36.9844 865.5625,37.2031 865.6563,37.6094 C865.7188,38.0156 865.75,38.1406 865.8906,38.2656 C866.0313,38.4063 866.2656,38.5156 866.4844,38.5156 C866.75,38.5156 867.0156,38.375 867.1875,38.1563 C867.2969,38 867.3281,37.8125 867.3281,37.3906 L867.3281,35.9688 C867.3281,35.5313 867.3125,35.4063 867.2188,35.25 C867.0625,34.9844 866.7813,34.8438 866.4844,34.8438 C866.1875,34.8438 865.9844,34.9375 865.7656,35.25 L865.5938,35.1719 Z " fill="#000000"/><text fill="#000000" font-family="sans-serif" font-size="14" lengthAdjust="spacing" textLength="103" x="883.75" y="44.3467">GameManager</text><line style="stroke:#181818;stroke-width:0.5;" x1="696.5" x2="1141.5" y1="55.5" y2="55.5"/><rect fill="none" height="6" style="stroke:#C82930;stroke-width:1.0;" width="6" x="703.5" y="66.1484"/><text fill="#000000" font-family="sans-serif" font-size="14" lengthAdjust="spacing" textLength="179" x="715.5" y="72.4951">ArrayList&lt;Game&gt; games</text><line style="stroke:#181818;stroke-width:0.5;" x1="696.5" x2="1141.5" y1="79.7969" y2="79.7969"/><ellipse cx="706.5" cy="93.4453" fill="#84BE84" rx="3" ry="3" style="stroke:#038048;stroke-width:1.0;"/><text fill="#000000" font-family="sans-serif" font-size="14" lengthAdjust="spacing" textLength="421" x="715.5" y="96.792">createGame(String name, int nPlayers, String playerName)</text><ellipse cx="706.5" cy="109.7422" fill="#84BE84" rx="3" ry="3" style="stroke:#038048;stroke-width:1.0;"/><text fill="#000000" font-family="sans-serif" font-size="14" lengthAdjust="spacing" textLength="187" x="715.5" y="113.0889">deleteGame(String name)</text><ellipse cx="706.5" cy="126.0391" fill="#84BE84" rx="3" ry="3" style="stroke:#038048;stroke-width:1.0;"/><text fill="#000000" font-family="sans-serif" font-size="14" lengthAdjust="spacing" textLength="216" x="715.5" y="129.3857">ArrayList&lt;Game&gt; getGames()</text><ellipse cx="706.5" cy="142.3359" fill="#84BE84" rx="3" ry="3" style="stroke:#038048;stroke-width:1.0;"/><text fill="#000000" font-family="sans-serif" font-size="14" lengthAdjust="spacing" textLength="354" x="715.5" y="145.6826">Game joinGame(String name, String playerName)</text></g><!--class Game--><g id="elem_Game"><rect codeLine="10" fill="#F1F1F1" height="259.8594" id="Game" rx="2.5" ry="2.5" style="stroke:#181818;stroke-width:0.5;" width="239" x="799.5" y="229"/><ellipse cx="893.75" cy="245" fill="#ADD1B2" rx="11" ry="11" style="stroke:#181818;stroke-width:1.0;"/><path d="M896.0938,240.6719 C895.1563,240.2344 894.5625,240.0938 893.6875,240.0938 C891.0625,240.0938 889.0625,242.1719 889.0625,244.8906 L889.0625,246.0156 C889.0625,248.5938 891.1719,250.4844 894.0625,250.4844 C895.2813,250.4844 896.4375,250.1875 897.1875,249.6406 C897.7656,249.2344 898.0938,248.7813 898.0938,248.3906 C898.0938,247.9375 897.7031,247.5469 897.2344,247.5469 C897.0156,247.5469 896.8125,247.625 896.625,247.8125 C896.1719,248.2969 896.1719,248.2969 895.9844,248.3906 C895.5625,248.6563 894.875,248.7813 894.1094,248.7813 C892.0625,248.7813 890.7656,247.6875 890.7656,245.9844 L890.7656,244.8906 C890.7656,243.1094 892.0156,241.7969 893.75,241.7969 C894.3281,241.7969 894.9375,241.9531 895.4063,242.2031 C895.8906,242.4844 896.0625,242.7031 896.1563,243.1094 C896.2188,243.5156 896.25,243.6406 896.3906,243.7656 C896.5313,243.9063 896.7656,244.0156 896.9844,244.0156 C897.25,244.0156 897.5156,243.875 897.6875,243.6563 C897.7969,243.5 897.8281,243.3125 897.8281,242.8906 L897.8281,241.4688 C897.8281,241.0313 897.8125,240.9063 897.7188,240.75 C897.5625,240.4844 897.2813,240.3438 896.9844,240.3438 C896.6875,240.3438 896.4844,240.4375 896.2656,240.75 L896.0938,240.6719 Z " fill="#000000"/><text fill="#000000" font-family="sans-serif" font-size="14" lengthAdjust="spacing" textLength="42" x="914.25" y="249.8467">Game</text><line style="stroke:#181818;stroke-width:0.5;" x1="800.5" x2="1037.5" y1="261" y2="261"/><rect fill="none" height="6" style="stroke:#C82930;stroke-width:1.0;" width="6" x="807.5" y="271.6484"/><text fill="#000000" font-family="sans-serif" font-size="14" lengthAdjust="spacing" textLength="129" x="819.5" y="277.9951">String gameName</text><rect fill="none" height="6" style="stroke:#C82930;stroke-width:1.0;" width="6" x="807.5" y="287.9453"/><text fill="#000000" font-family="sans-serif" font-size="14" lengthAdjust="spacing" textLength="84" x="819.5" y="294.292">int nPlayers</text><rect fill="none" height="6" style="stroke:#C82930;stroke-width:1.0;" width="6" x="807.5" y="304.2422"/><text fill="#000000" font-family="sans-serif" font-size="14" lengthAdjust="spacing" textLength="186" x="819.5" y="310.5889">ArrayList&lt;Player&gt; players</text><rect fill="none" height="6" style="stroke:#C82930;stroke-width:1.0;" width="6" x="807.5" y="320.5391"/><text fill="#000000" font-family="sans-serif" font-size="14" lengthAdjust="spacing" textLength="178" x="819.5" y="326.8857">GlobalBoard globalBoard</text><rect fill="none" height="6" style="stroke:#C82930;stroke-width:1.0;" width="6" x="807.5" y="336.8359"/><text fill="#000000" font-family="sans-serif" font-size="14" lengthAdjust="spacing" textLength="145" x="819.5" y="343.1826">Player currentPlayer</text><line style="stroke:#181818;stroke-width:0.5;" x1="800.5" x2="1037.5" y1="350.4844" y2="350.4844"/><ellipse cx="810.5" cy="364.1328" fill="#84BE84" rx="3" ry="3" style="stroke:#038048;stroke-width:1.0;"/><text fill="#000000" font-family="sans-serif" font-size="14" lengthAdjust="spacing" textLength="85" x="819.5" y="367.4795">stopGame()</text><ellipse cx="810.5" cy="380.4297" fill="#84BE84" rx="3" ry="3" style="stroke:#038048;stroke-width:1.0;"/><text fill="#000000" font-family="sans-serif" font-size="14" lengthAdjust="spacing" textLength="173" x="819.5" y="383.7764">addPlayer(Player player)</text><ellipse cx="810.5" cy="396.7266" fill="#84BE84" rx="3" ry="3" style="stroke:#038048;stroke-width:1.0;"/><text fill="#000000" font-family="sans-serif" font-size="14" lengthAdjust="spacing" textLength="202" x="819.5" y="400.0732">removePlayer(Player player)</text><ellipse cx="810.5" cy="413.0234" fill="#84BE84" rx="3" ry="3" style="stroke:#038048;stroke-width:1.0;"/><text fill="#000000" font-family="sans-serif" font-size="14" lengthAdjust="spacing" textLength="86" x="819.5" y="416.3701">getPlayers()</text><ellipse cx="810.5" cy="429.3203" fill="#84BE84" rx="3" ry="3" style="stroke:#038048;stroke-width:1.0;"/><text fill="#000000" font-family="sans-serif" font-size="14" lengthAdjust="spacing" textLength="213" x="819.5" y="432.667">getPlayer(String playerName)</text><ellipse cx="810.5" cy="445.6172" fill="#84BE84" rx="3" ry="3" style="stroke:#038048;stroke-width:1.0;"/><text fill="#000000" font-family="sans-serif" font-size="14" lengthAdjust="spacing" textLength="113" x="819.5" y="448.9639">getNextPlayer()</text><ellipse cx="810.5" cy="461.9141" fill="#84BE84" rx="3" ry="3" style="stroke:#038048;stroke-width:1.0;"/><text fill="#000000" font-family="sans-serif" font-size="14" lengthAdjust="spacing" textLength="123" x="819.5" y="465.2607">getGlobalBoard()</text><ellipse cx="810.5" cy="478.2109" fill="#84BE84" rx="3" ry="3" style="stroke:#038048;stroke-width:1.0;"/><text fill="#000000" font-family="sans-serif" font-size="14" lengthAdjust="spacing" textLength="76" x="819.5" y="481.5576">isStarted()</text></g><!--class Player--><g id="elem_Player"><rect codeLine="51" fill="#F1F1F1" height="243.5625" id="Player" rx="2.5" ry="2.5" style="stroke:#181818;stroke-width:0.5;" width="265" x="601.5" y="885"/><ellipse cx="707.75" cy="901" fill="#ADD1B2" rx="11" ry="11" style="stroke:#181818;stroke-width:1.0;"/><path d="M710.0938,896.6719 C709.1563,896.2344 708.5625,896.0938 707.6875,896.0938 C705.0625,896.0938 703.0625,898.1719 703.0625,900.8906 L703.0625,902.0156 C703.0625,904.5938 705.1719,906.4844 708.0625,906.4844 C709.2813,906.4844 710.4375,906.1875 711.1875,905.6406 C711.7656,905.2344 712.0938,904.7813 712.0938,904.3906 C712.0938,903.9375 711.7031,903.5469 711.2344,903.5469 C711.0156,903.5469 710.8125,903.625 710.625,903.8125 C710.1719,904.2969 710.1719,904.2969 709.9844,904.3906 C709.5625,904.6563 708.875,904.7813 708.1094,904.7813 C706.0625,904.7813 704.7656,903.6875 704.7656,901.9844 L704.7656,900.8906 C704.7656,899.1094 706.0156,897.7969 707.75,897.7969 C708.3281,897.7969 708.9375,897.9531 709.4063,898.2031 C709.8906,898.4844 710.0625,898.7031 710.1563,899.1094 C710.2188,899.5156 710.25,899.6406 710.3906,899.7656 C710.5313,899.9063 710.7656,900.0156 710.9844,900.0156 C711.25,900.0156 711.5156,899.875 711.6875,899.6563 C711.7969,899.5 711.8281,899.3125 711.8281,898.8906 L711.8281,897.4688 C711.8281,897.0313 711.8125,896.9063 711.7188,896.75 C711.5625,896.4844 711.2813,896.3438 710.9844,896.3438 C710.6875,896.3438 710.4844,896.4375 710.2656,896.75 L710.0938,896.6719 Z " fill="#000000"/><text fill="#000000" font-family="sans-serif" font-size="14" lengthAdjust="spacing" textLength="44" x="728.25" y="905.8467">Player</text><line style="stroke:#181818;stroke-width:0.5;" x1="602.5" x2="865.5" y1="917" y2="917"/><rect fill="none" height="6" style="stroke:#C82930;stroke-width:1.0;" width="6" x="609.5" y="927.6484"/><text fill="#000000" font-family="sans-serif" font-size="14" lengthAdjust="spacing" textLength="134" x="621.5" y="933.9951">String playerName</text><rect fill="none" height="6" style="stroke:#C82930;stroke-width:1.0;" width="6" x="609.5" y="943.9453"/><text fill="#000000" font-family="sans-serif" font-size="14" lengthAdjust="spacing" textLength="94" x="621.5" y="950.292">int playerPos</text><rect fill="none" height="6" style="stroke:#C82930;stroke-width:1.0;" width="6" x="609.5" y="960.2422"/><text fill="#000000" font-family="sans-serif" font-size="14" lengthAdjust="spacing" textLength="177" x="621.5" y="966.5889">PlayerBoard playerBoard</text><rect fill="none" height="6" style="stroke:#C82930;stroke-width:1.0;" width="6" x="609.5" y="976.5391"/><text fill="#000000" font-family="sans-serif" font-size="14" lengthAdjust="spacing" textLength="208" x="621.5" y="982.8857">ObjectiveCard objectiveCard</text><rect fill="none" height="6" style="stroke:#C82930;stroke-width:1.0;" width="6" x="609.5" y="992.8359"/><text fill="#000000" font-family="sans-serif" font-size="14" lengthAdjust="spacing" textLength="75" x="621.5" y="999.1826">Hand hand</text><line style="stroke:#181818;stroke-width:0.5;" x1="602.5" x2="865.5" y1="1006.4844" y2="1006.4844"/><ellipse cx="612.5" cy="1020.1328" fill="#84BE84" rx="3" ry="3" style="stroke:#038048;stroke-width:1.0;"/><text fill="#000000" font-family="sans-serif" font-size="14" lengthAdjust="spacing" textLength="120" x="621.5" y="1023.4795">getPlayerName()</text><ellipse cx="612.5" cy="1036.4297" fill="#84BE84" rx="3" ry="3" style="stroke:#038048;stroke-width:1.0;"/><text fill="#000000" font-family="sans-serif" font-size="14" lengthAdjust="spacing" textLength="121" x="621.5" y="1039.7764">getPlayerBoard()</text><ellipse cx="612.5" cy="1052.7266" fill="#84BE84" rx="3" ry="3" style="stroke:#038048;stroke-width:1.0;"/><text fill="#000000" font-family="sans-serif" font-size="14" lengthAdjust="spacing" textLength="104" x="621.5" y="1056.0732">getPlayerPos()</text><ellipse cx="612.5" cy="1069.0234" fill="#84BE84" rx="3" ry="3" style="stroke:#038048;stroke-width:1.0;"/><text fill="#000000" font-family="sans-serif" font-size="14" lengthAdjust="spacing" textLength="115" x="621.5" y="1072.3701">getPlayerHand()</text><ellipse cx="612.5" cy="1085.3203" fill="#84BE84" rx="3" ry="3" style="stroke:#038048;stroke-width:1.0;"/><text fill="#000000" font-family="sans-serif" font-size="14" lengthAdjust="spacing" textLength="138" x="621.5" y="1088.667">getObjectiveCard()</text><ellipse cx="612.5" cy="1101.6172" fill="#84BE84" rx="3" ry="3" style="stroke:#038048;stroke-width:1.0;"/><text fill="#000000" font-family="sans-serif" font-size="14" lengthAdjust="spacing" textLength="239" x="621.5" y="1104.9639">setObjectiveCard(ObjectiveCard)</text><ellipse cx="612.5" cy="1117.9141" fill="#84BE84" rx="3" ry="3" style="stroke:#038048;stroke-width:1.0;"/><text fill="#000000" font-family="sans-serif" font-size="14" lengthAdjust="spacing" textLength="202" x="621.5" y="1121.2607">advancePlayerPos(int steps)</text></g><!--class GlobalBoard--><g id="elem_GlobalBoard"><rect codeLine="30" fill="#F1F1F1" height="276.1563" id="GlobalBoard" rx="2.5" ry="2.5" style="stroke:#181818;stroke-width:0.5;" width="261" x="911.5" y="549"/><ellipse cx="993.75" cy="565" fill="#ADD1B2" rx="11" ry="11" style="stroke:#181818;stroke-width:1.0;"/><path d="M996.0938,560.6719 C995.1563,560.2344 994.5625,560.0938 993.6875,560.0938 C991.0625,560.0938 989.0625,562.1719 989.0625,564.8906 L989.0625,566.0156 C989.0625,568.5938 991.1719,570.4844 994.0625,570.4844 C995.2813,570.4844 996.4375,570.1875 997.1875,569.6406 C997.7656,569.2344 998.0938,568.7813 998.0938,568.3906 C998.0938,567.9375 997.7031,567.5469 997.2344,567.5469 C997.0156,567.5469 996.8125,567.625 996.625,567.8125 C996.1719,568.2969 996.1719,568.2969 995.9844,568.3906 C995.5625,568.6563 994.875,568.7813 994.1094,568.7813 C992.0625,568.7813 990.7656,567.6875 990.7656,565.9844 L990.7656,564.8906 C990.7656,563.1094 992.0156,561.7969 993.75,561.7969 C994.3281,561.7969 994.9375,561.9531 995.4063,562.2031 C995.8906,562.4844 996.0625,562.7031 996.1563,563.1094 C996.2188,563.5156 996.25,563.6406 996.3906,563.7656 C996.5313,563.9063 996.7656,564.0156 996.9844,564.0156 C997.25,564.0156 997.5156,563.875 997.6875,563.6563 C997.7969,563.5 997.8281,563.3125 997.8281,562.8906 L997.8281,561.4688 C997.8281,561.0313 997.8125,560.9063 997.7188,560.75 C997.5625,560.4844 997.2813,560.3438 996.9844,560.3438 C996.6875,560.3438 996.4844,560.4375 996.2656,560.75 L996.0938,560.6719 Z " fill="#000000"/><text fill="#000000" font-family="sans-serif" font-size="14" lengthAdjust="spacing" textLength="88" x="1014.25" y="569.8467">GlobalBoard</text><line style="stroke:#181818;stroke-width:0.5;" x1="912.5" x2="1171.5" y1="581" y2="581"/><rect fill="none" height="6" style="stroke:#C82930;stroke-width:1.0;" width="6" x="919.5" y="591.6484"/><text fill="#000000" font-family="sans-serif" font-size="14" lengthAdjust="spacing" textLength="109" x="931.5" y="597.9951">Deck goldDeck</text><rect fill="none" height="6" style="stroke:#C82930;stroke-width:1.0;" width="6" x="919.5" y="607.9453"/><text fill="#000000" font-family="sans-serif" font-size="14" lengthAdjust="spacing" textLength="140" x="931.5" y="614.292">Deck resourceDeck</text><rect fill="none" height="6" style="stroke:#C82930;stroke-width:1.0;" width="6" x="919.5" y="624.2422"/><text fill="#000000" font-family="sans-serif" font-size="14" lengthAdjust="spacing" textLength="146" x="931.5" y="630.5889">Deck objectiveDeck</text><rect fill="none" height="6" style="stroke:#C82930;stroke-width:1.0;" width="6" x="919.5" y="640.5391"/><text fill="#000000" font-family="sans-serif" font-size="14" lengthAdjust="spacing" textLength="128" x="931.5" y="646.8857">Deck starterDeck</text><rect fill="none" height="6" style="stroke:#C82930;stroke-width:1.0;" width="6" x="919.5" y="656.8359"/><text fill="#000000" font-family="sans-serif" font-size="14" lengthAdjust="spacing" textLength="200" x="931.5" y="663.1826">ObjectiveCard[2] objectives</text><rect fill="none" height="6" style="stroke:#C82930;stroke-width:1.0;" width="6" x="919.5" y="673.1328"/><text fill="#000000" font-family="sans-serif" font-size="14" lengthAdjust="spacing" textLength="202" x="931.5" y="679.4795">GameCard[2] fieldGoldCards</text><rect fill="none" height="6" style="stroke:#C82930;stroke-width:1.0;" width="6" x="919.5" y="689.4297"/><text fill="#000000" font-family="sans-serif" font-size="14" lengthAdjust="spacing" textLength="235" x="931.5" y="695.7764">GameCard[2] fieldResourceCards</text><line style="stroke:#181818;stroke-width:0.5;" x1="912.5" x2="1171.5" y1="703.0781" y2="703.0781"/><ellipse cx="922.5" cy="716.7266" fill="#84BE84" rx="3" ry="3" style="stroke:#038048;stroke-width:1.0;"/><text fill="#000000" font-family="sans-serif" font-size="14" lengthAdjust="spacing" textLength="105" x="931.5" y="720.0732">getGoldDeck()</text><ellipse cx="922.5" cy="733.0234" fill="#84BE84" rx="3" ry="3" style="stroke:#038048;stroke-width:1.0;"/><text fill="#000000" font-family="sans-serif" font-size="14" lengthAdjust="spacing" textLength="138" x="931.5" y="736.3701">getResourceDeck()</text><ellipse cx="922.5" cy="749.3203" fill="#84BE84" rx="3" ry="3" style="stroke:#038048;stroke-width:1.0;"/><text fill="#000000" font-family="sans-serif" font-size="14" lengthAdjust="spacing" textLength="142" x="931.5" y="752.667">getObjectiveDeck()</text><ellipse cx="922.5" cy="765.6172" fill="#84BE84" rx="3" ry="3" style="stroke:#038048;stroke-width:1.0;"/><text fill="#000000" font-family="sans-serif" font-size="14" lengthAdjust="spacing" textLength="112" x="931.5" y="768.9639">getObjectives()</text><ellipse cx="922.5" cy="781.9141" fill="#84BE84" rx="3" ry="3" style="stroke:#038048;stroke-width:1.0;"/><text fill="#000000" font-family="sans-serif" font-size="14" lengthAdjust="spacing" textLength="142" x="931.5" y="785.2607">getFieldGoldCards()</text><ellipse cx="922.5" cy="798.2109" fill="#84BE84" rx="3" ry="3" style="stroke:#038048;stroke-width:1.0;"/><text fill="#000000" font-family="sans-serif" font-size="14" lengthAdjust="spacing" textLength="175" x="931.5" y="801.5576">getFieldResourceCards()</text><ellipse cx="922.5" cy="814.5078" fill="#84BE84" rx="3" ry="3" style="stroke:#038048;stroke-width:1.0;"/><text fill="#000000" font-family="sans-serif" font-size="14" lengthAdjust="spacing" textLength="223" x="931.5" y="817.8545">drawCardFromField(GameCard)</text></g><!--class Deck--><g id="elem_Deck"><rect codeLine="70" fill="#F1F1F1" height="80.5938" id="Deck" rx="2.5" ry="2.5" style="stroke:#181818;stroke-width:0.5;" width="187" x="948.5" y="966.5"/><ellipse cx="1019.25" cy="982.5" fill="#ADD1B2" rx="11" ry="11" style="stroke:#181818;stroke-width:1.0;"/><path d="M1021.5938,978.1719 C1020.6563,977.7344 1020.0625,977.5938 1019.1875,977.5938 C1016.5625,977.5938 1014.5625,979.6719 1014.5625,982.3906 L1014.5625,983.5156 C1014.5625,986.0938 1016.6719,987.9844 1019.5625,987.9844 C1020.7813,987.9844 1021.9375,987.6875 1022.6875,987.1406 C1023.2656,986.7344 1023.5938,986.2813 1023.5938,985.8906 C1023.5938,985.4375 1023.2031,985.0469 1022.7344,985.0469 C1022.5156,985.0469 1022.3125,985.125 1022.125,985.3125 C1021.6719,985.7969 1021.6719,985.7969 1021.4844,985.8906 C1021.0625,986.1563 1020.375,986.2813 1019.6094,986.2813 C1017.5625,986.2813 1016.2656,985.1875 1016.2656,983.4844 L1016.2656,982.3906 C1016.2656,980.6094 1017.5156,979.2969 1019.25,979.2969 C1019.8281,979.2969 1020.4375,979.4531 1020.9063,979.7031 C1021.3906,979.9844 1021.5625,980.2031 1021.6563,980.6094 C1021.7188,981.0156 1021.75,981.1406 1021.8906,981.2656 C1022.0313,981.4063 1022.2656,981.5156 1022.4844,981.5156 C1022.75,981.5156 1023.0156,981.375 1023.1875,981.1563 C1023.2969,981 1023.3281,980.8125 1023.3281,980.3906 L1023.3281,978.9688 C1023.3281,978.5313 1023.3125,978.4063 1023.2188,978.25 C1023.0625,977.9844 1022.7813,977.8438 1022.4844,977.8438 C1022.1875,977.8438 1021.9844,977.9375 1021.7656,978.25 L1021.5938,978.1719 Z " fill="#000000"/><text fill="#000000" font-family="sans-serif" font-size="14" lengthAdjust="spacing" textLength="37" x="1039.75" y="987.3467">Deck</text><line style="stroke:#181818;stroke-width:0.5;" x1="949.5" x2="1134.5" y1="998.5" y2="998.5"/><rect fill="none" height="6" style="stroke:#C82930;stroke-width:1.0;" width="6" x="956.5" y="1009.1484"/><text fill="#000000" font-family="sans-serif" font-size="14" lengthAdjust="spacing" textLength="161" x="968.5" y="1015.4951">ArrayList&lt;Card&gt; cards</text><line style="stroke:#181818;stroke-width:0.5;" x1="949.5" x2="1134.5" y1="1022.7969" y2="1022.7969"/><ellipse cx="959.5" cy="1036.4453" fill="#84BE84" rx="3" ry="3" style="stroke:#038048;stroke-width:1.0;"/><text fill="#000000" font-family="sans-serif" font-size="14" lengthAdjust="spacing" textLength="77" x="968.5" y="1039.792">drawCard()</text></g><!--class PlayerBoard--><g id="elem_PlayerBoard"><rect codeLine="85" fill="#F1F1F1" height="178.375" id="PlayerBoard" rx="2.5" ry="2.5" style="stroke:#181818;stroke-width:0.5;" width="395" x="101.5" y="1189"/><ellipse cx="251.75" cy="1205" fill="#ADD1B2" rx="11" ry="11" style="stroke:#181818;stroke-width:1.0;"/><path d="M254.0938,1200.6719 C253.1563,1200.2344 252.5625,1200.0938 251.6875,1200.0938 C249.0625,1200.0938 247.0625,1202.1719 247.0625,1204.8906 L247.0625,1206.0156 C247.0625,1208.5938 249.1719,1210.4844 252.0625,1210.4844 C253.2813,1210.4844 254.4375,1210.1875 255.1875,1209.6406 C255.7656,1209.2344 256.0938,1208.7813 256.0938,1208.3906 C256.0938,1207.9375 255.7031,1207.5469 255.2344,1207.5469 C255.0156,1207.5469 254.8125,1207.625 254.625,1207.8125 C254.1719,1208.2969 254.1719,1208.2969 253.9844,1208.3906 C253.5625,1208.6563 252.875,1208.7813 252.1094,1208.7813 C250.0625,1208.7813 248.7656,1207.6875 248.7656,1205.9844 L248.7656,1204.8906 C248.7656,1203.1094 250.0156,1201.7969 251.75,1201.7969 C252.3281,1201.7969 252.9375,1201.9531 253.4063,1202.2031 C253.8906,1202.4844 254.0625,1202.7031 254.1563,1203.1094 C254.2188,1203.5156 254.25,1203.6406 254.3906,1203.7656 C254.5313,1203.9063 254.7656,1204.0156 254.9844,1204.0156 C255.25,1204.0156 255.5156,1203.875 255.6875,1203.6563 C255.7969,1203.5 255.8281,1203.3125 255.8281,1202.8906 L255.8281,1201.4688 C255.8281,1201.0313 255.8125,1200.9063 255.7188,1200.75 C255.5625,1200.4844 255.2813,1200.3438 254.9844,1200.3438 C254.6875,1200.3438 254.4844,1200.4375 254.2656,1200.75 L254.0938,1200.6719 Z " fill="#000000"/><text fill="#000000" font-family="sans-serif" font-size="14" lengthAdjust="spacing" textLength="86" x="272.25" y="1209.8467">PlayerBoard</text><line style="stroke:#181818;stroke-width:0.5;" x1="102.5" x2="495.5" y1="1221" y2="1221"/><rect fill="none" height="6" style="stroke:#C82930;stroke-width:1.0;" width="6" x="109.5" y="1231.6484"/><text fill="#000000" font-family="sans-serif" font-size="14" lengthAdjust="spacing" textLength="298" x="121.5" y="1237.9951">HashMap&lt;Point, GameCard&gt; playerBoard</text><rect fill="none" height="6" style="stroke:#C82930;stroke-width:1.0;" width="6" x="109.5" y="1247.9453"/><text fill="#000000" font-family="sans-serif" font-size="14" lengthAdjust="spacing" textLength="201" x="121.5" y="1254.292">GameItemStore gameItems</text><line style="stroke:#181818;stroke-width:0.5;" x1="102.5" x2="495.5" y1="1261.5938" y2="1261.5938"/><ellipse cx="112.5" cy="1275.2422" fill="#84BE84" rx="3" ry="3" style="stroke:#038048;stroke-width:1.0;"/><text fill="#000000" font-family="sans-serif" font-size="14" lengthAdjust="spacing" textLength="311" x="121.5" y="1278.5889">Optional&lt;GameCard&gt; getGameCard(Point)</text><ellipse cx="112.5" cy="1291.5391" fill="#84BE84" rx="3" ry="3" style="stroke:#038048;stroke-width:1.0;"/><text fill="#000000" font-family="sans-serif" font-size="14" lengthAdjust="spacing" textLength="369" x="121.5" y="1294.8857">Optional&lt;Point&gt; getGameCardPosition(GameCard)</text><ellipse cx="112.5" cy="1307.8359" fill="#84BE84" rx="3" ry="3" style="stroke:#038048;stroke-width:1.0;"/><text fill="#000000" font-family="sans-serif" font-size="14" lengthAdjust="spacing" textLength="282" x="121.5" y="1311.1826">ArrayList&lt;GameCard&gt; getGameCards()</text><ellipse cx="112.5" cy="1324.1328" fill="#84BE84" rx="3" ry="3" style="stroke:#038048;stroke-width:1.0;"/><text fill="#000000" font-family="sans-serif" font-size="14" lengthAdjust="spacing" textLength="301" x="121.5" y="1327.4795">Integer getGameItemAmount(GameItem)</text><ellipse cx="112.5" cy="1340.4297" fill="#84BE84" rx="3" ry="3" style="stroke:#038048;stroke-width:1.0;"/><text fill="#000000" font-family="sans-serif" font-size="14" lengthAdjust="spacing" textLength="263" x="121.5" y="1343.7764">void setGameCard(Point, GameCard)</text><ellipse cx="112.5" cy="1356.7266" fill="#84BE84" rx="3" ry="3" style="stroke:#038048;stroke-width:1.0;"/><text fill="#000000" font-family="sans-serif" font-size="14" lengthAdjust="spacing" textLength="273" x="121.5" y="1360.0732">boolean isPlaceable(Point, GameCard)</text></g><!--class Hand--><g id="elem_Hand"><rect codeLine="76" fill="#F1F1F1" height="113.1875" id="Hand" rx="2.5" ry="2.5" style="stroke:#181818;stroke-width:0.5;" width="308" x="532" y="1221.5"/><ellipse cx="663.75" cy="1237.5" fill="#ADD1B2" rx="11" ry="11" style="stroke:#181818;stroke-width:1.0;"/><path d="M666.0938,1233.1719 C665.1563,1232.7344 664.5625,1232.5938 663.6875,1232.5938 C661.0625,1232.5938 659.0625,1234.6719 659.0625,1237.3906 L659.0625,1238.5156 C659.0625,1241.0938 661.1719,1242.9844 664.0625,1242.9844 C665.2813,1242.9844 666.4375,1242.6875 667.1875,1242.1406 C667.7656,1241.7344 668.0938,1241.2813 668.0938,1240.8906 C668.0938,1240.4375 667.7031,1240.0469 667.2344,1240.0469 C667.0156,1240.0469 666.8125,1240.125 666.625,1240.3125 C666.1719,1240.7969 666.1719,1240.7969 665.9844,1240.8906 C665.5625,1241.1563 664.875,1241.2813 664.1094,1241.2813 C662.0625,1241.2813 660.7656,1240.1875 660.7656,1238.4844 L660.7656,1237.3906 C660.7656,1235.6094 662.0156,1234.2969 663.75,1234.2969 C664.3281,1234.2969 664.9375,1234.4531 665.4063,1234.7031 C665.8906,1234.9844 666.0625,1235.2031 666.1563,1235.6094 C666.2188,1236.0156 666.25,1236.1406 666.3906,1236.2656 C666.5313,1236.4063 666.7656,1236.5156 666.9844,1236.5156 C667.25,1236.5156 667.5156,1236.375 667.6875,1236.1563 C667.7969,1236 667.8281,1235.8125 667.8281,1235.3906 L667.8281,1233.9688 C667.8281,1233.5313 667.8125,1233.4063 667.7188,1233.25 C667.5625,1232.9844 667.2813,1232.8438 666.9844,1232.8438 C666.6875,1232.8438 666.4844,1232.9375 666.2656,1233.25 L666.0938,1233.1719 Z " fill="#000000"/><text fill="#000000" font-family="sans-serif" font-size="14" lengthAdjust="spacing" textLength="36" x="684.25" y="1242.3467">Hand</text><line style="stroke:#181818;stroke-width:0.5;" x1="533" x2="839" y1="1253.5" y2="1253.5"/><rect fill="none" height="6" style="stroke:#C82930;stroke-width:1.0;" width="6" x="540" y="1264.1484"/><text fill="#000000" font-family="sans-serif" font-size="14" lengthAdjust="spacing" textLength="200" x="552" y="1270.4951">ArrayList&lt;GameCard&gt; hand</text><line style="stroke:#181818;stroke-width:0.5;" x1="533" x2="839" y1="1277.7969" y2="1277.7969"/><ellipse cx="543" cy="1291.4453" fill="#84BE84" rx="3" ry="3" style="stroke:#038048;stroke-width:1.0;"/><text fill="#000000" font-family="sans-serif" font-size="14" lengthAdjust="spacing" textLength="282" x="552" y="1294.792">ArrayList&lt;GameCard&gt; getGameCards()</text><ellipse cx="543" cy="1307.7422" fill="#84BE84" rx="3" ry="3" style="stroke:#038048;stroke-width:1.0;"/><text fill="#000000" font-family="sans-serif" font-size="14" lengthAdjust="spacing" textLength="178" x="552" y="1311.0889">void addCard(GameCard)</text><ellipse cx="543" cy="1324.0391" fill="#84BE84" rx="3" ry="3" style="stroke:#038048;stroke-width:1.0;"/><text fill="#000000" font-family="sans-serif" font-size="14" lengthAdjust="spacing" textLength="207" x="552" y="1327.3857">void removeCard(GameCard)</text></g><!--class GameCard--><g id="elem_GameCard"><rect codeLine="121" fill="#F1F1F1" height="227.2656" id="GameCard" rx="2.5" ry="2.5" style="stroke:#181818;stroke-width:0.5;" width="421" x="462.5" y="1427"/><ellipse cx="631.25" cy="1443" fill="#ADD1B2" rx="11" ry="11" style="stroke:#181818;stroke-width:1.0;"/><path d="M633.5938,1438.6719 C632.6563,1438.2344 632.0625,1438.0938 631.1875,1438.0938 C628.5625,1438.0938 626.5625,1440.1719 626.5625,1442.8906 L626.5625,1444.0156 C626.5625,1446.5938 628.6719,1448.4844 631.5625,1448.4844 C632.7813,1448.4844 633.9375,1448.1875 634.6875,1447.6406 C635.2656,1447.2344 635.5938,1446.7813 635.5938,1446.3906 C635.5938,1445.9375 635.2031,1445.5469 634.7344,1445.5469 C634.5156,1445.5469 634.3125,1445.625 634.125,1445.8125 C633.6719,1446.2969 633.6719,1446.2969 633.4844,1446.3906 C633.0625,1446.6563 632.375,1446.7813 631.6094,1446.7813 C629.5625,1446.7813 628.2656,1445.6875 628.2656,1443.9844 L628.2656,1442.8906 C628.2656,1441.1094 629.5156,1439.7969 631.25,1439.7969 C631.8281,1439.7969 632.4375,1439.9531 632.9063,1440.2031 C633.3906,1440.4844 633.5625,1440.7031 633.6563,1441.1094 C633.7188,1441.5156 633.75,1441.6406 633.8906,1441.7656 C634.0313,1441.9063 634.2656,1442.0156 634.4844,1442.0156 C634.75,1442.0156 635.0156,1441.875 635.1875,1441.6563 C635.2969,1441.5 635.3281,1441.3125 635.3281,1440.8906 L635.3281,1439.4688 C635.3281,1439.0313 635.3125,1438.9063 635.2188,1438.75 C635.0625,1438.4844 634.7813,1438.3438 634.4844,1438.3438 C634.1875,1438.3438 633.9844,1438.4375 633.7656,1438.75 L633.5938,1438.6719 Z " fill="#000000"/><text fill="#000000" font-family="sans-serif" font-size="14" lengthAdjust="spacing" textLength="75" x="651.75" y="1447.8467">GameCard</text><line style="stroke:#181818;stroke-width:0.5;" x1="463.5" x2="882.5" y1="1459" y2="1459"/><rect fill="none" height="6" style="stroke:#C82930;stroke-width:1.0;" width="6" x="470.5" y="1469.6484"/><text fill="#000000" font-family="sans-serif" font-size="14" lengthAdjust="spacing" textLength="119" x="482.5" y="1475.9951">Side currentSide</text><rect fill="none" height="6" style="stroke:#C82930;stroke-width:1.0;" width="6" x="470.5" y="1485.9453"/><text fill="#000000" font-family="sans-serif" font-size="14" lengthAdjust="spacing" textLength="106" x="482.5" y="1492.292">Side otherSide</text><rect fill="none" height="6" style="stroke:#C82930;stroke-width:1.0;" width="6" x="470.5" y="1502.2422"/><text fill="#000000" font-family="sans-serif" font-size="14" lengthAdjust="spacing" textLength="144" x="482.5" y="1508.5889">CardColor cardColor</text><line style="stroke:#181818;stroke-width:0.5;" x1="463.5" x2="882.5" y1="1515.8906" y2="1515.8906"/><ellipse cx="473.5" cy="1529.5391" fill="#84BE84" rx="3" ry="3" style="stroke:#038048;stroke-width:1.0;"/><text fill="#000000" font-family="sans-serif" font-size="14" lengthAdjust="spacing" textLength="156" x="482.5" y="1532.8857">Side getCurrentSide()</text><ellipse cx="473.5" cy="1545.8359" fill="#84BE84" rx="3" ry="3" style="stroke:#038048;stroke-width:1.0;"/><text fill="#000000" font-family="sans-serif" font-size="14" lengthAdjust="spacing" textLength="121" x="482.5" y="1549.1826">void switchSide()</text><ellipse cx="473.5" cy="1562.1328" fill="#84BE84" rx="3" ry="3" style="stroke:#038048;stroke-width:1.0;"/><text fill="#000000" font-family="sans-serif" font-size="14" lengthAdjust="spacing" textLength="148" x="482.5" y="1565.4795">CardColor getColor()</text><ellipse cx="473.5" cy="1578.4297" fill="#84BE84" rx="3" ry="3" style="stroke:#038048;stroke-width:1.0;"/><text fill="#000000" font-family="sans-serif" font-size="14" lengthAdjust="spacing" textLength="328" x="482.5" y="1581.7764">Optional&lt;Corner&gt; getCorner(CornerPosition)</text><ellipse cx="473.5" cy="1594.7266" fill="#84BE84" rx="3" ry="3" style="stroke:#038048;stroke-width:1.0;"/><text fill="#000000" font-family="sans-serif" font-size="14" lengthAdjust="spacing" textLength="395" x="482.5" y="1598.0732">GameItem setCornerCovered(CornerPosition, boolean)</text><ellipse cx="473.5" cy="1611.0234" fill="#84BE84" rx="3" ry="3" style="stroke:#038048;stroke-width:1.0;"/><text fill="#000000" font-family="sans-serif" font-size="14" lengthAdjust="spacing" textLength="271" x="482.5" y="1614.3701">GameItemStore getGameItemStore()</text><ellipse cx="473.5" cy="1627.3203" fill="#84BE84" rx="3" ry="3" style="stroke:#038048;stroke-width:1.0;"/><text fill="#000000" font-family="sans-serif" font-size="14" lengthAdjust="spacing" textLength="223" x="482.5" y="1630.667">Integer getPoints(PlayerBoard)</text><ellipse cx="473.5" cy="1643.6172" fill="#84BE84" rx="3" ry="3" style="stroke:#038048;stroke-width:1.0;"/><text fill="#000000" font-family="sans-serif" font-size="14" lengthAdjust="spacing" textLength="284" x="482.5" y="1646.9639">GameItemStore getNeededItemStore()</text></g><!--class Store--><g id="elem_Store"><rect codeLine="98" fill="#F1F1F1" height="145.7813" id="Store" rx="2.5" ry="2.5" style="stroke:#181818;stroke-width:0.5;" width="224" x="172" y="1467.5"/><ellipse cx="254.25" cy="1483.5" fill="#ADD1B2" rx="11" ry="11" style="stroke:#181818;stroke-width:1.0;"/><path d="M256.5938,1479.1719 C255.6563,1478.7344 255.0625,1478.5938 254.1875,1478.5938 C251.5625,1478.5938 249.5625,1480.6719 249.5625,1483.3906 L249.5625,1484.5156 C249.5625,1487.0938 251.6719,1488.9844 254.5625,1488.9844 C255.7813,1488.9844 256.9375,1488.6875 257.6875,1488.1406 C258.2656,1487.7344 258.5938,1487.2813 258.5938,1486.8906 C258.5938,1486.4375 258.2031,1486.0469 257.7344,1486.0469 C257.5156,1486.0469 257.3125,1486.125 257.125,1486.3125 C256.6719,1486.7969 256.6719,1486.7969 256.4844,1486.8906 C256.0625,1487.1563 255.375,1487.2813 254.6094,1487.2813 C252.5625,1487.2813 251.2656,1486.1875 251.2656,1484.4844 L251.2656,1483.3906 C251.2656,1481.6094 252.5156,1480.2969 254.25,1480.2969 C254.8281,1480.2969 255.4375,1480.4531 255.9063,1480.7031 C256.3906,1480.9844 256.5625,1481.2031 256.6563,1481.6094 C256.7188,1482.0156 256.75,1482.1406 256.8906,1482.2656 C257.0313,1482.4063 257.2656,1482.5156 257.4844,1482.5156 C257.75,1482.5156 258.0156,1482.375 258.1875,1482.1563 C258.2969,1482 258.3281,1481.8125 258.3281,1481.3906 L258.3281,1479.9688 C258.3281,1479.5313 258.3125,1479.4063 258.2188,1479.25 C258.0625,1478.9844 257.7813,1478.8438 257.4844,1478.8438 C257.1875,1478.8438 256.9844,1478.9375 256.7656,1479.25 L256.5938,1479.1719 Z " fill="#000000"/><text fill="#000000" font-family="sans-serif" font-size="14" lengthAdjust="spacing" textLength="40" x="274.75" y="1488.3467">Store</text><rect fill="#FFFFFF" height="15.9688" style="stroke:#181818;stroke-width:1.0;stroke-dasharray:2.0,2.0;" width="9" x="390" y="1464.5"/><text fill="#000000" font-family="sans-serif" font-size="12" font-style="italic" lengthAdjust="spacing" textLength="7" x="391" y="1476.6387">T</text><line style="stroke:#181818;stroke-width:0.5;" x1="173" x2="395" y1="1499.5" y2="1499.5"/><polygon fill="none" points="183,1508.1484,187,1512.1484,183,1516.1484,179,1512.1484" style="stroke:#B38D22;stroke-width:1.0;"/><text fill="#000000" font-family="sans-serif" font-size="14" lengthAdjust="spacing" textLength="198" x="192" y="1516.4951">HashMap&lt;T, Integer&gt; store</text><line style="stroke:#181818;stroke-width:0.5;" x1="173" x2="395" y1="1523.7969" y2="1523.7969"/><ellipse cx="183" cy="1537.4453" fill="#84BE84" rx="3" ry="3" style="stroke:#038048;stroke-width:1.0;"/><text fill="#000000" font-family="sans-serif" font-size="14" lengthAdjust="spacing" textLength="55" x="192" y="1540.792">get(T t)</text><ellipse cx="183" cy="1553.7422" fill="#84BE84" rx="3" ry="3" style="stroke:#038048;stroke-width:1.0;"/><text fill="#000000" font-family="sans-serif" font-size="14" lengthAdjust="spacing" textLength="114" x="192" y="1557.0889">set(T t, Integer)</text><ellipse cx="183" cy="1570.0391" fill="#84BE84" rx="3" ry="3" style="stroke:#038048;stroke-width:1.0;"/><text fill="#000000" font-family="sans-serif" font-size="14" lengthAdjust="spacing" textLength="117" x="192" y="1573.3857">add(T t, Integer)</text><ellipse cx="183" cy="1586.3359" fill="#84BE84" rx="3" ry="3" style="stroke:#038048;stroke-width:1.0;"/><text fill="#000000" font-family="sans-serif" font-size="14" lengthAdjust="spacing" textLength="146" x="192" y="1589.6826">remove(T t, Integer)</text><ellipse cx="183" cy="1602.6328" fill="#84BE84" rx="3" ry="3" style="stroke:#038048;stroke-width:1.0;"/><text fill="#000000" font-family="sans-serif" font-size="14" lengthAdjust="spacing" textLength="145" x="192" y="1605.9795">getNonEmptyKeys()</text></g><!--class GameItemStore--><g id="elem_GameItemStore"><rect codeLine="107" fill="#F1F1F1" height="80.5938" id="GameItemStore" rx="2.5" ry="2.5" style="stroke:#181818;stroke-width:0.5;" width="460" x="7" y="1771"/><ellipse cx="174.75" cy="1787" fill="#ADD1B2" rx="11" ry="11" style="stroke:#181818;stroke-width:1.0;"/><path d="M177.0938,1782.6719 C176.1563,1782.2344 175.5625,1782.0938 174.6875,1782.0938 C172.0625,1782.0938 170.0625,1784.1719 170.0625,1786.8906 L170.0625,1788.0156 C170.0625,1790.5938 172.1719,1792.4844 175.0625,1792.4844 C176.2813,1792.4844 177.4375,1792.1875 178.1875,1791.6406 C178.7656,1791.2344 179.0938,1790.7813 179.0938,1790.3906 C179.0938,1789.9375 178.7031,1789.5469 178.2344,1789.5469 C178.0156,1789.5469 177.8125,1789.625 177.625,1789.8125 C177.1719,1790.2969 177.1719,1790.2969 176.9844,1790.3906 C176.5625,1790.6563 175.875,1790.7813 175.1094,1790.7813 C173.0625,1790.7813 171.7656,1789.6875 171.7656,1787.9844 L171.7656,1786.8906 C171.7656,1785.1094 173.0156,1783.7969 174.75,1783.7969 C175.3281,1783.7969 175.9375,1783.9531 176.4063,1784.2031 C176.8906,1784.4844 177.0625,1784.7031 177.1563,1785.1094 C177.2188,1785.5156 177.25,1785.6406 177.3906,1785.7656 C177.5313,1785.9063 177.7656,1786.0156 177.9844,1786.0156 C178.25,1786.0156 178.5156,1785.875 178.6875,1785.6563 C178.7969,1785.5 178.8281,1785.3125 178.8281,1784.8906 L178.8281,1783.4688 C178.8281,1783.0313 178.8125,1782.9063 178.7188,1782.75 C178.5625,1782.4844 178.2813,1782.3438 177.9844,1782.3438 C177.6875,1782.3438 177.4844,1782.4375 177.2656,1782.75 L177.0938,1782.6719 Z " fill="#000000"/><text fill="#000000" font-family="sans-serif" font-size="14" lengthAdjust="spacing" textLength="116" x="195.25" y="1791.8467">GameItemStore</text><line style="stroke:#181818;stroke-width:0.5;" x1="8" x2="466" y1="1803" y2="1803"/><line style="stroke:#181818;stroke-width:0.5;" x1="8" x2="466" y1="1811" y2="1811"/><ellipse cx="18" cy="1824.6484" fill="#84BE84" rx="3" ry="3" style="stroke:#038048;stroke-width:1.0;"/><text fill="#000000" font-family="sans-serif" font-size="14" lengthAdjust="spacing" textLength="126" x="27" y="1827.9951">GameItemStore()</text><ellipse cx="18" cy="1840.9453" fill="#84BE84" rx="3" ry="3" style="stroke:#038048;stroke-width:1.0;"/><text fill="#000000" font-family="sans-serif" font-size="14" lengthAdjust="spacing" textLength="434" x="27" y="1844.292">GameItemStore(HashMap&lt;GameItem, Integer&gt; gameItems)</text></g><!--class Card--><g id="elem_Card"><rect codeLine="115" fill="#F1F1F1" height="64.2969" id="Card" rx="2.5" ry="2.5" style="stroke:#181818;stroke-width:0.5;" width="192" x="946" y="1246"/><ellipse cx="1020.75" cy="1262" fill="#B4A7E5" rx="11" ry="11" style="stroke:#181818;stroke-width:1.0;"/><path d="M1021.7031,1258.7813 L1023.4219,1258.7813 C1023.8125,1258.7813 1024,1258.75 1024.125,1258.6719 C1024.3906,1258.5156 1024.5313,1258.2344 1024.5313,1257.9375 C1024.5313,1257.6719 1024.4219,1257.4063 1024.1875,1257.2344 C1024.0156,1257.125 1023.875,1257.0938 1023.4219,1257.0938 L1018.2813,1257.0938 C1017.8438,1257.0938 1017.7188,1257.1094 1017.5625,1257.2031 C1017.3125,1257.3594 1017.1563,1257.6563 1017.1563,1257.9375 C1017.1563,1258.2188 1017.2969,1258.4688 1017.5156,1258.6406 C1017.6719,1258.75 1017.8594,1258.7813 1018.2813,1258.7813 L1020,1258.7813 L1020,1265.2969 L1018.2813,1265.2969 C1017.8438,1265.2969 1017.7188,1265.3125 1017.5625,1265.4219 C1017.3125,1265.5781 1017.1563,1265.8594 1017.1563,1266.1563 C1017.1563,1266.4063 1017.2969,1266.6719 1017.5156,1266.8281 C1017.6719,1266.9531 1017.875,1267 1018.2813,1267 L1023.4219,1267 C1024.1719,1267 1024.5313,1266.7188 1024.5313,1266.1563 C1024.5313,1265.875 1024.4219,1265.625 1024.1875,1265.4531 C1024.0156,1265.3281 1023.875,1265.2969 1023.4219,1265.2969 L1021.7031,1265.2969 L1021.7031,1258.7813 Z " fill="#000000"/><text fill="#000000" font-family="sans-serif" font-size="14" font-style="italic" lengthAdjust="spacing" textLength="34" x="1041.25" y="1266.8467">Card</text><line style="stroke:#181818;stroke-width:0.5;" x1="947" x2="1137" y1="1278" y2="1278"/><line style="stroke:#181818;stroke-width:0.5;" x1="947" x2="1137" y1="1286" y2="1286"/><ellipse cx="957" cy="1299.6484" fill="#84BE84" rx="3" ry="3" style="stroke:#038048;stroke-width:1.0;"/><text fill="#000000" font-family="sans-serif" font-size="14" lengthAdjust="spacing" textLength="166" x="966" y="1302.9951">getPoints(PlayerBoard)</text></g><!--class ObjectiveCard--><g id="elem_ObjectiveCard"><rect codeLine="200" fill="#F1F1F1" height="80.5938" id="ObjectiveCard" rx="2.5" ry="2.5" style="stroke:#181818;stroke-width:0.5;" width="192" x="976" y="1500"/><ellipse cx="1017.55" cy="1516" fill="#A9DCDF" rx="11" ry="11" style="stroke:#181818;stroke-width:1.0;"/><path d="M1019.6281,1517.8125 L1020.0188,1518.7969 L1019.6281,1518.7969 C1019.175,1518.7969 1019.0656,1518.8125 1018.9094,1518.9219 C1018.6594,1519.0781 1018.5031,1519.3594 1018.5031,1519.6563 C1018.5031,1519.9219 1018.6438,1520.1719 1018.8625,1520.3281 C1019.0031,1520.4531 1019.2063,1520.5 1019.6281,1520.5 L1021.9875,1520.5 C1022.3469,1520.5 1022.5656,1520.4688 1022.7063,1520.375 C1022.9563,1520.2344 1023.1125,1519.9375 1023.1125,1519.6563 C1023.1125,1519.375 1022.9719,1519.125 1022.7531,1518.9688 C1022.5813,1518.8281 1022.425,1518.7969 1021.9563,1518.7969 L1018.5656,1510.5938 L1014.8938,1510.5938 C1014.4406,1510.5938 1014.3156,1510.6094 1014.1594,1510.7031 C1013.9094,1510.875 1013.7531,1511.1563 1013.7531,1511.4375 C1013.7531,1511.7188 1013.8938,1511.9688 1014.1125,1512.1406 C1014.2844,1512.25 1014.4563,1512.2813 1014.8938,1512.2813 L1015.9719,1512.2813 L1013.3313,1518.7969 C1012.9094,1518.7969 1012.7531,1518.8125 1012.5969,1518.9219 C1012.3469,1519.0781 1012.1906,1519.3594 1012.1906,1519.6563 C1012.1906,1520.2188 1012.5656,1520.5 1013.3156,1520.5 L1015.5813,1520.5 C1015.9406,1520.5 1016.1594,1520.4688 1016.2844,1520.375 C1016.55,1520.2344 1016.6906,1519.9375 1016.6906,1519.6563 C1016.6906,1519.375 1016.5656,1519.125 1016.3469,1518.9531 C1016.175,1518.8281 1016.0344,1518.7969 1015.5813,1518.7969 L1015.1906,1518.7969 L1015.5813,1517.8125 L1019.6281,1517.8125 Z M1018.925,1516.1094 L1016.2531,1516.1094 L1017.5969,1512.8438 L1018.925,1516.1094 Z " fill="#000000"/><text fill="#000000" font-family="sans-serif" font-size="14" font-style="italic" lengthAdjust="spacing" textLength="101" x="1037.45" y="1520.8467">ObjectiveCard</text><line style="stroke:#181818;stroke-width:0.5;" x1="977" x2="1167" y1="1532" y2="1532"/><polygon fill="none" points="987,1540.6484,991,1544.6484,987,1548.6484,983,1544.6484" style="stroke:#B38D22;stroke-width:1.0;"/><text fill="#000000" font-family="sans-serif" font-size="14" lengthAdjust="spacing" textLength="135" x="996" y="1548.9951">Integer pointsWon</text><line style="stroke:#181818;stroke-width:0.5;" x1="977" x2="1167" y1="1556.2969" y2="1556.2969"/><ellipse cx="987" cy="1569.9453" fill="#84BE84" rx="3" ry="3" style="stroke:#038048;stroke-width:1.0;"/><text fill="#000000" font-family="sans-serif" font-size="14" lengthAdjust="spacing" textLength="166" x="996" y="1573.292">getPoints(PlayerBoard)</text></g><!--class Side--><g id="elem_Side"><rect codeLine="137" fill="#F1F1F1" height="194.6719" id="Side" rx="2.5" ry="2.5" style="stroke:#181818;stroke-width:0.5;" width="341" x="502.5" y="1714"/><ellipse cx="653.25" cy="1730" fill="#A9DCDF" rx="11" ry="11" style="stroke:#181818;stroke-width:1.0;"/><path d="M655.3281,1731.8125 L655.7188,1732.7969 L655.3281,1732.7969 C654.875,1732.7969 654.7656,1732.8125 654.6094,1732.9219 C654.3594,1733.0781 654.2031,1733.3594 654.2031,1733.6563 C654.2031,1733.9219 654.3438,1734.1719 654.5625,1734.3281 C654.7031,1734.4531 654.9063,1734.5 655.3281,1734.5 L657.6875,1734.5 C658.0469,1734.5 658.2656,1734.4688 658.4063,1734.375 C658.6563,1734.2344 658.8125,1733.9375 658.8125,1733.6563 C658.8125,1733.375 658.6719,1733.125 658.4531,1732.9688 C658.2813,1732.8281 658.125,1732.7969 657.6563,1732.7969 L654.2656,1724.5938 L650.5938,1724.5938 C650.1406,1724.5938 650.0156,1724.6094 649.8594,1724.7031 C649.6094,1724.875 649.4531,1725.1563 649.4531,1725.4375 C649.4531,1725.7188 649.5938,1725.9688 649.8125,1726.1406 C649.9844,1726.25 650.1563,1726.2813 650.5938,1726.2813 L651.6719,1726.2813 L649.0313,1732.7969 C648.6094,1732.7969 648.4531,1732.8125 648.2969,1732.9219 C648.0469,1733.0781 647.8906,1733.3594 647.8906,1733.6563 C647.8906,1734.2188 648.2656,1734.5 649.0156,1734.5 L651.2813,1734.5 C651.6406,1734.5 651.8594,1734.4688 651.9844,1734.375 C652.25,1734.2344 652.3906,1733.9375 652.3906,1733.6563 C652.3906,1733.375 652.2656,1733.125 652.0469,1732.9531 C651.875,1732.8281 651.7344,1732.7969 651.2813,1732.7969 L650.8906,1732.7969 L651.2813,1731.8125 L655.3281,1731.8125 Z M654.625,1730.1094 L651.9531,1730.1094 L653.2969,1726.8438 L654.625,1730.1094 Z " fill="#000000"/><text fill="#000000" font-family="sans-serif" font-size="14" font-style="italic" lengthAdjust="spacing" textLength="31" x="673.75" y="1734.8467">Side</text><line style="stroke:#181818;stroke-width:0.5;" x1="503.5" x2="842.5" y1="1746" y2="1746"/><polygon fill="none" points="513.5,1754.6484,517.5,1758.6484,513.5,1762.6484,509.5,1758.6484" style="stroke:#B38D22;stroke-width:1.0;"/><text fill="#000000" font-family="sans-serif" font-size="14" lengthAdjust="spacing" textLength="202" x="522.5" y="1762.9951">Optional&lt;Corner&gt; topRight</text><polygon fill="none" points="513.5,1770.9453,517.5,1774.9453,513.5,1778.9453,509.5,1774.9453" style="stroke:#B38D22;stroke-width:1.0;"/><text fill="#000000" font-family="sans-serif" font-size="14" lengthAdjust="spacing" textLength="193" x="522.5" y="1779.292">Optional&lt;Corner&gt; topLeft</text><polygon fill="none" points="513.5,1787.2422,517.5,1791.2422,513.5,1795.2422,509.5,1791.2422" style="stroke:#B38D22;stroke-width:1.0;"/><text fill="#000000" font-family="sans-serif" font-size="14" lengthAdjust="spacing" textLength="223" x="522.5" y="1795.5889">Optional&lt;Corner&gt; bottomLeft</text><polygon fill="none" points="513.5,1803.5391,517.5,1807.5391,513.5,1811.5391,509.5,1807.5391" style="stroke:#B38D22;stroke-width:1.0;"/><text fill="#000000" font-family="sans-serif" font-size="14" lengthAdjust="spacing" textLength="232" x="522.5" y="1811.8857">Optional&lt;Corner&gt; bottomRight</text><line style="stroke:#181818;stroke-width:0.5;" x1="503.5" x2="842.5" y1="1819.1875" y2="1819.1875"/><ellipse cx="513.5" cy="1832.8359" fill="#84BE84" rx="3" ry="3" style="stroke:#038048;stroke-width:1.0;"/><text fill="#000000" font-family="sans-serif" font-size="14" lengthAdjust="spacing" textLength="191" x="522.5" y="1836.1826">getCorner(CornerPosition)</text><ellipse cx="513.5" cy="1849.1328" fill="#84BE84" rx="3" ry="3" style="stroke:#038048;stroke-width:1.0;"/><text fill="#000000" font-family="sans-serif" font-size="14" lengthAdjust="spacing" textLength="315" x="522.5" y="1852.4795">setCornerCovered(CornerPosition, boolean)</text><ellipse cx="513.5" cy="1865.4297" fill="#84BE84" rx="3" ry="3" style="stroke:#038048;stroke-width:1.0;"/><text fill="#000000" font-family="sans-serif" font-size="14" lengthAdjust="spacing" textLength="271" x="522.5" y="1868.7764">GameItemStore getGameItemStore()</text><ellipse cx="513.5" cy="1881.7266" fill="#84BE84" rx="3" ry="3" style="stroke:#038048;stroke-width:1.0;"/><text fill="#000000" font-family="sans-serif" font-size="14" lengthAdjust="spacing" textLength="166" x="522.5" y="1885.0732">getPoints(PlayerBoard)</text><ellipse cx="513.5" cy="1898.0234" fill="#84BE84" rx="3" ry="3" style="stroke:#038048;stroke-width:1.0;"/><text fill="#000000" font-family="sans-serif" font-size="14" lengthAdjust="spacing" textLength="284" x="522.5" y="1901.3701">GameItemStore getNeededItemStore()</text></g><!--class Front--><g id="elem_Front"><rect codeLine="163" fill="#F1F1F1" height="96.8906" id="Front" rx="2.5" ry="2.5" style="stroke:#181818;stroke-width:0.5;" width="192" x="262" y="2001.5"/><ellipse cx="334.25" cy="2017.5" fill="#ADD1B2" rx="11" ry="11" style="stroke:#181818;stroke-width:1.0;"/><path d="M336.5938,2013.1719 C335.6563,2012.7344 335.0625,2012.5938 334.1875,2012.5938 C331.5625,2012.5938 329.5625,2014.6719 329.5625,2017.3906 L329.5625,2018.5156 C329.5625,2021.0938 331.6719,2022.9844 334.5625,2022.9844 C335.7813,2022.9844 336.9375,2022.6875 337.6875,2022.1406 C338.2656,2021.7344 338.5938,2021.2813 338.5938,2020.8906 C338.5938,2020.4375 338.2031,2020.0469 337.7344,2020.0469 C337.5156,2020.0469 337.3125,2020.125 337.125,2020.3125 C336.6719,2020.7969 336.6719,2020.7969 336.4844,2020.8906 C336.0625,2021.1563 335.375,2021.2813 334.6094,2021.2813 C332.5625,2021.2813 331.2656,2020.1875 331.2656,2018.4844 L331.2656,2017.3906 C331.2656,2015.6094 332.5156,2014.2969 334.25,2014.2969 C334.8281,2014.2969 335.4375,2014.4531 335.9063,2014.7031 C336.3906,2014.9844 336.5625,2015.2031 336.6563,2015.6094 C336.7188,2016.0156 336.75,2016.1406 336.8906,2016.2656 C337.0313,2016.4063 337.2656,2016.5156 337.4844,2016.5156 C337.75,2016.5156 338.0156,2016.375 338.1875,2016.1563 C338.2969,2016 338.3281,2015.8125 338.3281,2015.3906 L338.3281,2013.9688 C338.3281,2013.5313 338.3125,2013.4063 338.2188,2013.25 C338.0625,2012.9844 337.7813,2012.8438 337.4844,2012.8438 C337.1875,2012.8438 336.9844,2012.9375 336.7656,2013.25 L336.5938,2013.1719 Z " fill="#000000"/><text fill="#000000" font-family="sans-serif" font-size="14" lengthAdjust="spacing" textLength="39" x="354.75" y="2022.3467">Front</text><line style="stroke:#181818;stroke-width:0.5;" x1="263" x2="453" y1="2033.5" y2="2033.5"/><polygon fill="none" points="273,2042.1484,277,2046.1484,273,2050.1484,269,2046.1484" style="stroke:#B38D22;stroke-width:1.0;"/><text fill="#000000" font-family="sans-serif" font-size="14" lengthAdjust="spacing" textLength="70" x="282" y="2050.4951">int points</text><line style="stroke:#181818;stroke-width:0.5;" x1="263" x2="453" y1="2057.7969" y2="2057.7969"/><ellipse cx="273" cy="2071.4453" fill="#84BE84" rx="3" ry="3" style="stroke:#038048;stroke-width:1.0;"/><text fill="#000000" font-family="sans-serif" font-size="14" lengthAdjust="spacing" textLength="151" x="282" y="2074.792">getGameItemStore()</text><ellipse cx="273" cy="2087.7422" fill="#84BE84" rx="3" ry="3" style="stroke:#038048;stroke-width:1.0;"/><text fill="#000000" font-family="sans-serif" font-size="14" lengthAdjust="spacing" textLength="166" x="282" y="2091.0889">getPoints(PlayerBoard)</text></g><!--class Back--><g id="elem_Back"><rect codeLine="192" fill="#F1F1F1" height="96.8906" id="Back" rx="2.5" ry="2.5" style="stroke:#181818;stroke-width:0.5;" width="215" x="489.5" y="2001.5"/><ellipse cx="575.25" cy="2017.5" fill="#ADD1B2" rx="11" ry="11" style="stroke:#181818;stroke-width:1.0;"/><path d="M577.5938,2013.1719 C576.6563,2012.7344 576.0625,2012.5938 575.1875,2012.5938 C572.5625,2012.5938 570.5625,2014.6719 570.5625,2017.3906 L570.5625,2018.5156 C570.5625,2021.0938 572.6719,2022.9844 575.5625,2022.9844 C576.7813,2022.9844 577.9375,2022.6875 578.6875,2022.1406 C579.2656,2021.7344 579.5938,2021.2813 579.5938,2020.8906 C579.5938,2020.4375 579.2031,2020.0469 578.7344,2020.0469 C578.5156,2020.0469 578.3125,2020.125 578.125,2020.3125 C577.6719,2020.7969 577.6719,2020.7969 577.4844,2020.8906 C577.0625,2021.1563 576.375,2021.2813 575.6094,2021.2813 C573.5625,2021.2813 572.2656,2020.1875 572.2656,2018.4844 L572.2656,2017.3906 C572.2656,2015.6094 573.5156,2014.2969 575.25,2014.2969 C575.8281,2014.2969 576.4375,2014.4531 576.9063,2014.7031 C577.3906,2014.9844 577.5625,2015.2031 577.6563,2015.6094 C577.7188,2016.0156 577.75,2016.1406 577.8906,2016.2656 C578.0313,2016.4063 578.2656,2016.5156 578.4844,2016.5156 C578.75,2016.5156 579.0156,2016.375 579.1875,2016.1563 C579.2969,2016 579.3281,2015.8125 579.3281,2015.3906 L579.3281,2013.9688 C579.3281,2013.5313 579.3125,2013.4063 579.2188,2013.25 C579.0625,2012.9844 578.7813,2012.8438 578.4844,2012.8438 C578.1875,2012.8438 577.9844,2012.9375 577.7656,2013.25 L577.5938,2013.1719 Z " fill="#000000"/><text fill="#000000" font-family="sans-serif" font-size="14" lengthAdjust="spacing" textLength="35" x="595.75" y="2022.3467">Back</text><line style="stroke:#181818;stroke-width:0.5;" x1="490.5" x2="703.5" y1="2033.5" y2="2033.5"/><polygon fill="none" points="500.5,2042.1484,504.5,2046.1484,500.5,2050.1484,496.5,2046.1484" style="stroke:#B38D22;stroke-width:1.0;"/><text fill="#000000" font-family="sans-serif" font-size="14" lengthAdjust="spacing" textLength="189" x="509.5" y="2050.4951">GameItemStore resources</text><line style="stroke:#181818;stroke-width:0.5;" x1="490.5" x2="703.5" y1="2057.7969" y2="2057.7969"/><ellipse cx="500.5" cy="2071.4453" fill="#84BE84" rx="3" ry="3" style="stroke:#038048;stroke-width:1.0;"/><text fill="#000000" font-family="sans-serif" font-size="14" lengthAdjust="spacing" textLength="151" x="509.5" y="2074.792">getGameItemStore()</text><ellipse cx="500.5" cy="2087.7422" fill="#84BE84" rx="3" ry="3" style="stroke:#038048;stroke-width:1.0;"/><text fill="#000000" font-family="sans-serif" font-size="14" lengthAdjust="spacing" textLength="166" x="509.5" y="2091.0889">getPoints(PlayerBoard)</text></g><!--class Corner--><g id="elem_Corner"><rect codeLine="153" fill="#F1F1F1" height="113.1875" id="Corner" rx="2.5" ry="2.5" style="stroke:#181818;stroke-width:0.5;" width="257" x="739.5" y="1993.5"/><ellipse cx="839.25" cy="2009.5" fill="#ADD1B2" rx="11" ry="11" style="stroke:#181818;stroke-width:1.0;"/><path d="M841.5938,2005.1719 C840.6563,2004.7344 840.0625,2004.5938 839.1875,2004.5938 C836.5625,2004.5938 834.5625,2006.6719 834.5625,2009.3906 L834.5625,2010.5156 C834.5625,2013.0938 836.6719,2014.9844 839.5625,2014.9844 C840.7813,2014.9844 841.9375,2014.6875 842.6875,2014.1406 C843.2656,2013.7344 843.5938,2013.2813 843.5938,2012.8906 C843.5938,2012.4375 843.2031,2012.0469 842.7344,2012.0469 C842.5156,2012.0469 842.3125,2012.125 842.125,2012.3125 C841.6719,2012.7969 841.6719,2012.7969 841.4844,2012.8906 C841.0625,2013.1563 840.375,2013.2813 839.6094,2013.2813 C837.5625,2013.2813 836.2656,2012.1875 836.2656,2010.4844 L836.2656,2009.3906 C836.2656,2007.6094 837.5156,2006.2969 839.25,2006.2969 C839.8281,2006.2969 840.4375,2006.4531 840.9063,2006.7031 C841.3906,2006.9844 841.5625,2007.2031 841.6563,2007.6094 C841.7188,2008.0156 841.75,2008.1406 841.8906,2008.2656 C842.0313,2008.4063 842.2656,2008.5156 842.4844,2008.5156 C842.75,2008.5156 843.0156,2008.375 843.1875,2008.1563 C843.2969,2008 843.3281,2007.8125 843.3281,2007.3906 L843.3281,2005.9688 C843.3281,2005.5313 843.3125,2005.4063 843.2188,2005.25 C843.0625,2004.9844 842.7813,2004.8438 842.4844,2004.8438 C842.1875,2004.8438 841.9844,2004.9375 841.7656,2005.25 L841.5938,2005.1719 Z " fill="#000000"/><text fill="#000000" font-family="sans-serif" font-size="14" lengthAdjust="spacing" textLength="49" x="859.75" y="2014.3467">Corner</text><line style="stroke:#181818;stroke-width:0.5;" x1="740.5" x2="995.5" y1="2025.5" y2="2025.5"/><rect fill="none" height="6" style="stroke:#C82930;stroke-width:1.0;" width="6" x="747.5" y="2036.1484"/><text fill="#000000" font-family="sans-serif" font-size="14" lengthAdjust="spacing" textLength="133" x="759.5" y="2042.4951">boolean isCovered</text><rect fill="none" height="6" style="stroke:#C82930;stroke-width:1.0;" width="6" x="747.5" y="2052.4453"/><text fill="#000000" font-family="sans-serif" font-size="14" lengthAdjust="spacing" textLength="154" x="759.5" y="2058.792">GameItem gameItem</text><line style="stroke:#181818;stroke-width:0.5;" x1="740.5" x2="995.5" y1="2066.0938" y2="2066.0938"/><ellipse cx="750.5" cy="2079.7422" fill="#84BE84" rx="3" ry="3" style="stroke:#038048;stroke-width:1.0;"/><text fill="#000000" font-family="sans-serif" font-size="14" lengthAdjust="spacing" textLength="191" x="759.5" y="2083.0889">GameItem getGameItem()</text><ellipse cx="750.5" cy="2096.0391" fill="#84BE84" rx="3" ry="3" style="stroke:#038048;stroke-width:1.0;"/><text fill="#000000" font-family="sans-serif" font-size="14" lengthAdjust="spacing" textLength="231" x="759.5" y="2099.3857">GameItem setCovered(Boolean)</text></g><!--class FrontGoldCard--><g id="elem_FrontGoldCard"><rect codeLine="171" fill="#F1F1F1" height="80.5938" id="FrontGoldCard" rx="2.5" ry="2.5" style="stroke:#181818;stroke-width:0.5;" width="241" x="237.5" y="2191"/><ellipse cx="301.25" cy="2207" fill="#ADD1B2" rx="11" ry="11" style="stroke:#181818;stroke-width:1.0;"/><path d="M303.5938,2202.6719 C302.6563,2202.2344 302.0625,2202.0938 301.1875,2202.0938 C298.5625,2202.0938 296.5625,2204.1719 296.5625,2206.8906 L296.5625,2208.0156 C296.5625,2210.5938 298.6719,2212.4844 301.5625,2212.4844 C302.7813,2212.4844 303.9375,2212.1875 304.6875,2211.6406 C305.2656,2211.2344 305.5938,2210.7813 305.5938,2210.3906 C305.5938,2209.9375 305.2031,2209.5469 304.7344,2209.5469 C304.5156,2209.5469 304.3125,2209.625 304.125,2209.8125 C303.6719,2210.2969 303.6719,2210.2969 303.4844,2210.3906 C303.0625,2210.6563 302.375,2210.7813 301.6094,2210.7813 C299.5625,2210.7813 298.2656,2209.6875 298.2656,2207.9844 L298.2656,2206.8906 C298.2656,2205.1094 299.5156,2203.7969 301.25,2203.7969 C301.8281,2203.7969 302.4375,2203.9531 302.9063,2204.2031 C303.3906,2204.4844 303.5625,2204.7031 303.6563,2205.1094 C303.7188,2205.5156 303.75,2205.6406 303.8906,2205.7656 C304.0313,2205.9063 304.2656,2206.0156 304.4844,2206.0156 C304.75,2206.0156 305.0156,2205.875 305.1875,2205.6563 C305.2969,2205.5 305.3281,2205.3125 305.3281,2204.8906 L305.3281,2203.4688 C305.3281,2203.0313 305.3125,2202.9063 305.2188,2202.75 C305.0625,2202.4844 304.7813,2202.3438 304.4844,2202.3438 C304.1875,2202.3438 303.9844,2202.4375 303.7656,2202.75 L303.5938,2202.6719 Z " fill="#000000"/><text fill="#000000" font-family="sans-serif" font-size="14" lengthAdjust="spacing" textLength="105" x="321.75" y="2211.8467">FrontGoldCard</text><line style="stroke:#181818;stroke-width:0.5;" x1="238.5" x2="477.5" y1="2223" y2="2223"/><polygon fill="none" points="248.5,2231.6484,252.5,2235.6484,248.5,2239.6484,244.5,2235.6484" style="stroke:#B38D22;stroke-width:1.0;"/><text fill="#000000" font-family="sans-serif" font-size="14" lengthAdjust="spacing" textLength="215" x="257.5" y="2239.9951">GameItemStore neededItems</text><line style="stroke:#181818;stroke-width:0.5;" x1="238.5" x2="477.5" y1="2247.2969" y2="2247.2969"/><ellipse cx="248.5" cy="2260.9453" fill="#84BE84" rx="3" ry="3" style="stroke:#038048;stroke-width:1.0;"/><text fill="#000000" font-family="sans-serif" font-size="14" lengthAdjust="spacing" textLength="164" x="257.5" y="2264.292">getNeededItemStore()</text></g><!--class FrontPositionalGoldCard--><g id="elem_FrontPositionalGoldCard"><rect codeLine="180" fill="#F1F1F1" height="64.2969" id="FrontPositionalGoldCard" rx="2.5" ry="2.5" style="stroke:#181818;stroke-width:0.5;" width="207" x="137.5" y="2340.5"/><ellipse cx="152.5" cy="2356.5" fill="#ADD1B2" rx="11" ry="11" style="stroke:#181818;stroke-width:1.0;"/><path d="M154.8438,2352.1719 C153.9063,2351.7344 153.3125,2351.5938 152.4375,2351.5938 C149.8125,2351.5938 147.8125,2353.6719 147.8125,2356.3906 L147.8125,2357.5156 C147.8125,2360.0938 149.9219,2361.9844 152.8125,2361.9844 C154.0313,2361.9844 155.1875,2361.6875 155.9375,2361.1406 C156.5156,2360.7344 156.8438,2360.2813 156.8438,2359.8906 C156.8438,2359.4375 156.4531,2359.0469 155.9844,2359.0469 C155.7656,2359.0469 155.5625,2359.125 155.375,2359.3125 C154.9219,2359.7969 154.9219,2359.7969 154.7344,2359.8906 C154.3125,2360.1563 153.625,2360.2813 152.8594,2360.2813 C150.8125,2360.2813 149.5156,2359.1875 149.5156,2357.4844 L149.5156,2356.3906 C149.5156,2354.6094 150.7656,2353.2969 152.5,2353.2969 C153.0781,2353.2969 153.6875,2353.4531 154.1563,2353.7031 C154.6406,2353.9844 154.8125,2354.2031 154.9063,2354.6094 C154.9688,2355.0156 155,2355.1406 155.1406,2355.2656 C155.2813,2355.4063 155.5156,2355.5156 155.7344,2355.5156 C156,2355.5156 156.2656,2355.375 156.4375,2355.1563 C156.5469,2355 156.5781,2354.8125 156.5781,2354.3906 L156.5781,2352.9688 C156.5781,2352.5313 156.5625,2352.4063 156.4688,2352.25 C156.3125,2351.9844 156.0313,2351.8438 155.7344,2351.8438 C155.4375,2351.8438 155.2344,2351.9375 155.0156,2352.25 L154.8438,2352.1719 Z " fill="#000000"/><text fill="#000000" font-family="sans-serif" font-size="14" lengthAdjust="spacing" textLength="175" x="166.5" y="2361.3467">FrontPositionalGoldCard</text><line style="stroke:#181818;stroke-width:0.5;" x1="138.5" x2="343.5" y1="2372.5" y2="2372.5"/><line style="stroke:#181818;stroke-width:0.5;" x1="138.5" x2="343.5" y1="2380.5" y2="2380.5"/><ellipse cx="148.5" cy="2394.1484" fill="#84BE84" rx="3" ry="3" style="stroke:#038048;stroke-width:1.0;"/><text fill="#000000" font-family="sans-serif" font-size="14" lengthAdjust="spacing" textLength="166" x="157.5" y="2397.4951">getPoints(PlayerBoard)</text></g><!--class FrontItemGoldCard--><g id="elem_FrontItemGoldCard"><rect codeLine="185" fill="#F1F1F1" height="80.5938" id="FrontItemGoldCard" rx="2.5" ry="2.5" style="stroke:#181818;stroke-width:0.5;" width="192" x="380" y="2332"/><ellipse cx="404.45" cy="2348" fill="#ADD1B2" rx="11" ry="11" style="stroke:#181818;stroke-width:1.0;"/><path d="M406.7938,2343.6719 C405.8563,2343.2344 405.2625,2343.0938 404.3875,2343.0938 C401.7625,2343.0938 399.7625,2345.1719 399.7625,2347.8906 L399.7625,2349.0156 C399.7625,2351.5938 401.8719,2353.4844 404.7625,2353.4844 C405.9813,2353.4844 407.1375,2353.1875 407.8875,2352.6406 C408.4656,2352.2344 408.7938,2351.7813 408.7938,2351.3906 C408.7938,2350.9375 408.4031,2350.5469 407.9344,2350.5469 C407.7156,2350.5469 407.5125,2350.625 407.325,2350.8125 C406.8719,2351.2969 406.8719,2351.2969 406.6844,2351.3906 C406.2625,2351.6563 405.575,2351.7813 404.8094,2351.7813 C402.7625,2351.7813 401.4656,2350.6875 401.4656,2348.9844 L401.4656,2347.8906 C401.4656,2346.1094 402.7156,2344.7969 404.45,2344.7969 C405.0281,2344.7969 405.6375,2344.9531 406.1063,2345.2031 C406.5906,2345.4844 406.7625,2345.7031 406.8563,2346.1094 C406.9188,2346.5156 406.95,2346.6406 407.0906,2346.7656 C407.2313,2346.9063 407.4656,2347.0156 407.6844,2347.0156 C407.95,2347.0156 408.2156,2346.875 408.3875,2346.6563 C408.4969,2346.5 408.5281,2346.3125 408.5281,2345.8906 L408.5281,2344.4688 C408.5281,2344.0313 408.5125,2343.9063 408.4188,2343.75 C408.2625,2343.4844 407.9813,2343.3438 407.6844,2343.3438 C407.3875,2343.3438 407.1844,2343.4375 406.9656,2343.75 L406.7938,2343.6719 Z " fill="#000000"/><text fill="#000000" font-family="sans-serif" font-size="14" lengthAdjust="spacing" textLength="139" x="420.55" y="2352.8467">FrontItemGoldCard</text><line style="stroke:#181818;stroke-width:0.5;" x1="381" x2="571" y1="2364" y2="2364"/><rect fill="none" height="6" style="stroke:#C82930;stroke-width:1.0;" width="6" x="388" y="2374.6484"/><text fill="#000000" font-family="sans-serif" font-size="14" lengthAdjust="spacing" textLength="150" x="400" y="2380.9951">GameItem multiplier</text><line style="stroke:#181818;stroke-width:0.5;" x1="381" x2="571" y1="2388.2969" y2="2388.2969"/><ellipse cx="391" cy="2401.9453" fill="#84BE84" rx="3" ry="3" style="stroke:#038048;stroke-width:1.0;"/><text fill="#000000" font-family="sans-serif" font-size="14" lengthAdjust="spacing" textLength="166" x="400" y="2405.292">getPoints(PlayerBoard)</text></g><!--class PositionalObjectiveCard--><g id="elem_PositionalObjectiveCard"><rect codeLine="229" fill="#F1F1F1" height="80.5938" id="PositionalObjectiveCard" rx="2.5" ry="2.5" style="stroke:#181818;stroke-width:0.5;" width="325" x="909.5" y="1771"/><ellipse cx="981.25" cy="1787" fill="#ADD1B2" rx="11" ry="11" style="stroke:#181818;stroke-width:1.0;"/><path d="M983.5938,1782.6719 C982.6563,1782.2344 982.0625,1782.0938 981.1875,1782.0938 C978.5625,1782.0938 976.5625,1784.1719 976.5625,1786.8906 L976.5625,1788.0156 C976.5625,1790.5938 978.6719,1792.4844 981.5625,1792.4844 C982.7813,1792.4844 983.9375,1792.1875 984.6875,1791.6406 C985.2656,1791.2344 985.5938,1790.7813 985.5938,1790.3906 C985.5938,1789.9375 985.2031,1789.5469 984.7344,1789.5469 C984.5156,1789.5469 984.3125,1789.625 984.125,1789.8125 C983.6719,1790.2969 983.6719,1790.2969 983.4844,1790.3906 C983.0625,1790.6563 982.375,1790.7813 981.6094,1790.7813 C979.5625,1790.7813 978.2656,1789.6875 978.2656,1787.9844 L978.2656,1786.8906 C978.2656,1785.1094 979.5156,1783.7969 981.25,1783.7969 C981.8281,1783.7969 982.4375,1783.9531 982.9063,1784.2031 C983.3906,1784.4844 983.5625,1784.7031 983.6563,1785.1094 C983.7188,1785.5156 983.75,1785.6406 983.8906,1785.7656 C984.0313,1785.9063 984.2656,1786.0156 984.4844,1786.0156 C984.75,1786.0156 985.0156,1785.875 985.1875,1785.6563 C985.2969,1785.5 985.3281,1785.3125 985.3281,1784.8906 L985.3281,1783.4688 C985.3281,1783.0313 985.3125,1782.9063 985.2188,1782.75 C985.0625,1782.4844 984.7813,1782.3438 984.4844,1782.3438 C984.1875,1782.3438 983.9844,1782.4375 983.7656,1782.75 L983.5938,1782.6719 Z " fill="#000000"/><text fill="#000000" font-family="sans-serif" font-size="14" lengthAdjust="spacing" textLength="173" x="1001.75" y="1791.8467">PositionalObjectiveCard</text><line style="stroke:#181818;stroke-width:0.5;" x1="910.5" x2="1233.5" y1="1803" y2="1803"/><rect fill="none" height="6" style="stroke:#C82930;stroke-width:1.0;" width="6" x="917.5" y="1813.6484"/><text fill="#000000" font-family="sans-serif" font-size="14" lengthAdjust="spacing" textLength="299" x="929.5" y="1819.9951">ArrayList&lt;PositionalData&gt; positionalData</text><line style="stroke:#181818;stroke-width:0.5;" x1="910.5" x2="1233.5" y1="1827.2969" y2="1827.2969"/><ellipse cx="920.5" cy="1840.9453" fill="#84BE84" rx="3" ry="3" style="stroke:#038048;stroke-width:1.0;"/><text fill="#000000" font-family="sans-serif" font-size="14" lengthAdjust="spacing" textLength="166" x="929.5" y="1844.292">getPoints(PlayerBoard)</text></g><!--class ItemObjectiveCard--><g id="elem_ItemObjectiveCard"><rect codeLine="211" fill="#F1F1F1" height="80.5938" id="ItemObjectiveCard" rx="2.5" ry="2.5" style="stroke:#181818;stroke-width:0.5;" width="216" x="1270" y="1771"/><ellipse cx="1306.15" cy="1787" fill="#ADD1B2" rx="11" ry="11" style="stroke:#181818;stroke-width:1.0;"/><path d="M1308.4938,1782.6719 C1307.5563,1782.2344 1306.9625,1782.0938 1306.0875,1782.0938 C1303.4625,1782.0938 1301.4625,1784.1719 1301.4625,1786.8906 L1301.4625,1788.0156 C1301.4625,1790.5938 1303.5719,1792.4844 1306.4625,1792.4844 C1307.6813,1792.4844 1308.8375,1792.1875 1309.5875,1791.6406 C1310.1656,1791.2344 1310.4938,1790.7813 1310.4938,1790.3906 C1310.4938,1789.9375 1310.1031,1789.5469 1309.6344,1789.5469 C1309.4156,1789.5469 1309.2125,1789.625 1309.025,1789.8125 C1308.5719,1790.2969 1308.5719,1790.2969 1308.3844,1790.3906 C1307.9625,1790.6563 1307.275,1790.7813 1306.5094,1790.7813 C1304.4625,1790.7813 1303.1656,1789.6875 1303.1656,1787.9844 L1303.1656,1786.8906 C1303.1656,1785.1094 1304.4156,1783.7969 1306.15,1783.7969 C1306.7281,1783.7969 1307.3375,1783.9531 1307.8063,1784.2031 C1308.2906,1784.4844 1308.4625,1784.7031 1308.5563,1785.1094 C1308.6188,1785.5156 1308.65,1785.6406 1308.7906,1785.7656 C1308.9313,1785.9063 1309.1656,1786.0156 1309.3844,1786.0156 C1309.65,1786.0156 1309.9156,1785.875 1310.0875,1785.6563 C1310.1969,1785.5 1310.2281,1785.3125 1310.2281,1784.8906 L1310.2281,1783.4688 C1310.2281,1783.0313 1310.2125,1782.9063 1310.1188,1782.75 C1309.9625,1782.4844 1309.6813,1782.3438 1309.3844,1782.3438 C1309.0875,1782.3438 1308.8844,1782.4375 1308.6656,1782.75 L1308.4938,1782.6719 Z " fill="#000000"/><text fill="#000000" font-family="sans-serif" font-size="14" lengthAdjust="spacing" textLength="137" x="1324.85" y="1791.8467">ItemObjectiveCard</text><line style="stroke:#181818;stroke-width:0.5;" x1="1271" x2="1485" y1="1803" y2="1803"/><rect fill="none" height="6" style="stroke:#C82930;stroke-width:1.0;" width="6" x="1278" y="1813.6484"/><text fill="#000000" font-family="sans-serif" font-size="14" lengthAdjust="spacing" textLength="190" x="1290" y="1819.9951">GameItemStore multiplier</text><line style="stroke:#181818;stroke-width:0.5;" x1="1271" x2="1485" y1="1827.2969" y2="1827.2969"/><ellipse cx="1281" cy="1840.9453" fill="#84BE84" rx="3" ry="3" style="stroke:#038048;stroke-width:1.0;"/><text fill="#000000" font-family="sans-serif" font-size="14" lengthAdjust="spacing" textLength="166" x="1290" y="1844.292">getPoints(PlayerBoard)</text></g><!--class PositionalData--><g id="elem_PositionalData"><rect codeLine="218" fill="#F1F1F1" height="162.0781" id="PositionalData" rx="2.5" ry="2.5" style="stroke:#181818;stroke-width:0.5;" width="235" x="1031.5" y="1969"/><ellipse cx="1092.75" cy="1985" fill="#ADD1B2" rx="11" ry="11" style="stroke:#181818;stroke-width:1.0;"/><path d="M1095.0938,1980.6719 C1094.1563,1980.2344 1093.5625,1980.0938 1092.6875,1980.0938 C1090.0625,1980.0938 1088.0625,1982.1719 1088.0625,1984.8906 L1088.0625,1986.0156 C1088.0625,1988.5938 1090.1719,1990.4844 1093.0625,1990.4844 C1094.2813,1990.4844 1095.4375,1990.1875 1096.1875,1989.6406 C1096.7656,1989.2344 1097.0938,1988.7813 1097.0938,1988.3906 C1097.0938,1987.9375 1096.7031,1987.5469 1096.2344,1987.5469 C1096.0156,1987.5469 1095.8125,1987.625 1095.625,1987.8125 C1095.1719,1988.2969 1095.1719,1988.2969 1094.9844,1988.3906 C1094.5625,1988.6563 1093.875,1988.7813 1093.1094,1988.7813 C1091.0625,1988.7813 1089.7656,1987.6875 1089.7656,1985.9844 L1089.7656,1984.8906 C1089.7656,1983.1094 1091.0156,1981.7969 1092.75,1981.7969 C1093.3281,1981.7969 1093.9375,1981.9531 1094.4063,1982.2031 C1094.8906,1982.4844 1095.0625,1982.7031 1095.1563,1983.1094 C1095.2188,1983.5156 1095.25,1983.6406 1095.3906,1983.7656 C1095.5313,1983.9063 1095.7656,1984.0156 1095.9844,1984.0156 C1096.25,1984.0156 1096.5156,1983.875 1096.6875,1983.6563 C1096.7969,1983.5 1096.8281,1983.3125 1096.8281,1982.8906 L1096.8281,1981.4688 C1096.8281,1981.0313 1096.8125,1980.9063 1096.7188,1980.75 C1096.5625,1980.4844 1096.2813,1980.3438 1095.9844,1980.3438 C1095.6875,1980.3438 1095.4844,1980.4375 1095.2656,1980.75 L1095.0938,1980.6719 Z " fill="#000000"/><text fill="#000000" font-family="sans-serif" font-size="14" lengthAdjust="spacing" textLength="104" x="1113.25" y="1989.8467">PositionalData</text><line style="stroke:#181818;stroke-width:0.5;" x1="1032.5" x2="1265.5" y1="2001" y2="2001"/><rect fill="none" height="6" style="stroke:#C82930;stroke-width:1.0;" width="6" x="1039.5" y="2011.6484"/><text fill="#000000" font-family="sans-serif" font-size="14" lengthAdjust="spacing" textLength="81" x="1051.5" y="2017.9951">Point point</text><rect fill="none" height="6" style="stroke:#C82930;stroke-width:1.0;" width="6" x="1039.5" y="2027.9453"/><text fill="#000000" font-family="sans-serif" font-size="14" lengthAdjust="spacing" textLength="144" x="1051.5" y="2034.292">CardColor cardColor</text><line style="stroke:#181818;stroke-width:0.5;" x1="1032.5" x2="1265.5" y1="2041.5938" y2="2041.5938"/><ellipse cx="1042.5" cy="2055.2422" fill="#84BE84" rx="3" ry="3" style="stroke:#038048;stroke-width:1.0;"/><text fill="#000000" font-family="sans-serif" font-size="14" lengthAdjust="spacing" textLength="115" x="1051.5" y="2058.5889">Point getPoint()</text><ellipse cx="1042.5" cy="2071.5391" fill="#84BE84" rx="3" ry="3" style="stroke:#038048;stroke-width:1.0;"/><text fill="#000000" font-family="sans-serif" font-size="14" lengthAdjust="spacing" textLength="181" x="1051.5" y="2074.8857">CardColor getCardColor()</text><ellipse cx="1042.5" cy="2087.8359" fill="#84BE84" rx="3" ry="3" style="stroke:#038048;stroke-width:1.0;"/><text fill="#000000" font-family="sans-serif" font-size="14" lengthAdjust="spacing" textLength="191" x="1051.5" y="2091.1826">GameItem getGameItem()</text><ellipse cx="1042.5" cy="2104.1328" fill="#84BE84" rx="3" ry="3" style="stroke:#038048;stroke-width:1.0;"/><text fill="#000000" font-family="sans-serif" font-size="14" lengthAdjust="spacing" textLength="129" x="1051.5" y="2107.4795">void setPoint(x, y)</text><ellipse cx="1042.5" cy="2120.4297" fill="#84BE84" rx="3" ry="3" style="stroke:#038048;stroke-width:1.0;"/><text fill="#000000" font-family="sans-serif" font-size="14" lengthAdjust="spacing" textLength="209" x="1051.5" y="2123.7764">void setCardColor(CardColor)</text></g><!--class CornerPosition--><g id="elem_CornerPosition"><rect codeLine="236" fill="#F1F1F1" height="113.1875" id="CornerPosition" rx="2.5" ry="2.5" style="stroke:#181818;stroke-width:0.5;" width="139" x="377.5" y="31.5"/><ellipse cx="392.5" cy="47.5" fill="#EB937F" rx="11" ry="11" style="stroke:#181818;stroke-width:1.0;"/><path d="M391.2969,48.375 L392.75,48.375 L392.75,48.4844 C392.75,48.8906 392.7813,49.0469 392.8594,49.2031 C393.0156,49.4531 393.2969,49.6094 393.5938,49.6094 C393.8438,49.6094 394.1094,49.4688 394.2656,49.25 C394.3906,49.0938 394.4219,48.9375 394.4219,48.4844 L394.4219,46.5625 C394.4219,46.4063 394.4219,46.3594 394.4063,46.2031 C394.3438,45.7344 394.0313,45.4219 393.5781,45.4219 C393.3281,45.4219 393.0625,45.5625 392.8906,45.7813 C392.7813,45.9531 392.75,46.1094 392.75,46.5625 L392.75,46.6875 L391.2969,46.6875 L391.2969,44.2813 L395.2813,44.2813 L395.2813,45.1406 C395.2813,45.5469 395.3125,45.7188 395.3906,45.875 C395.5625,46.125 395.8438,46.2813 396.125,46.2813 C396.3906,46.2813 396.6563,46.1406 396.8281,45.9219 C396.9375,45.75 396.9688,45.6094 396.9688,45.1406 L396.9688,42.5938 L389.3438,42.5938 C388.9063,42.5938 388.7813,42.6094 388.625,42.7031 C388.375,42.8594 388.2188,43.1563 388.2188,43.4375 C388.2188,43.7188 388.3594,43.9688 388.5781,44.1406 C388.7344,44.25 388.9219,44.2813 389.3438,44.2813 L389.5938,44.2813 L389.5938,50.7969 L389.3438,50.7969 C388.9375,50.7969 388.7813,50.8125 388.625,50.9219 C388.375,51.0938 388.2188,51.3594 388.2188,51.6563 C388.2188,51.9219 388.3594,52.1719 388.5781,52.3281 C388.7188,52.4531 388.9531,52.5 389.3438,52.5 L397.3438,52.5 L397.3438,49.9219 C397.3438,49.4844 397.3125,49.3438 397.2344,49.1875 C397.0625,48.9375 396.7813,48.7813 396.5,48.7813 C396.2344,48.7813 395.9688,48.8906 395.7969,49.1406 C395.6875,49.2969 395.6563,49.4375 395.6563,49.9219 L395.6563,50.7969 L391.2969,50.7969 L391.2969,48.375 Z " fill="#000000"/><text fill="#000000" font-family="sans-serif" font-size="14" lengthAdjust="spacing" textLength="107" x="406.5" y="52.3467">CornerPosition</text><line style="stroke:#181818;stroke-width:0.5;" x1="378.5" x2="515.5" y1="63.5" y2="63.5"/><text fill="#000000" font-family="sans-serif" font-size="14" lengthAdjust="spacing" textLength="80" x="383.5" y="80.4951">TOP_RIGHT</text><text fill="#000000" font-family="sans-serif" font-size="14" lengthAdjust="spacing" textLength="70" x="383.5" y="96.792">TOP_LEFT</text><text fill="#000000" font-family="sans-serif" font-size="14" lengthAdjust="spacing" textLength="103" x="383.5" y="113.0889">BOTTOM_LEFT</text><text fill="#000000" font-family="sans-serif" font-size="14" lengthAdjust="spacing" textLength="113" x="383.5" y="129.3857">BOTTOM_RIGHT</text><line style="stroke:#181818;stroke-width:0.5;" x1="378.5" x2="515.5" y1="136.6875" y2="136.6875"/></g><!--class GameItem--><g id="elem_GameItem"><rect codeLine="243" fill="#F1F1F1" height="162.0781" id="GameItem" rx="2.5" ry="2.5" style="stroke:#181818;stroke-width:0.5;" width="108" x="552" y="7"/><ellipse cx="567" cy="23" fill="#EB937F" rx="11" ry="11" style="stroke:#181818;stroke-width:1.0;"/><path d="M565.7969,23.875 L567.25,23.875 L567.25,23.9844 C567.25,24.3906 567.2813,24.5469 567.3594,24.7031 C567.5156,24.9531 567.7969,25.1094 568.0938,25.1094 C568.3438,25.1094 568.6094,24.9688 568.7656,24.75 C568.8906,24.5938 568.9219,24.4375 568.9219,23.9844 L568.9219,22.0625 C568.9219,21.9063 568.9219,21.8594 568.9063,21.7031 C568.8438,21.2344 568.5313,20.9219 568.0781,20.9219 C567.8281,20.9219 567.5625,21.0625 567.3906,21.2813 C567.2813,21.4531 567.25,21.6094 567.25,22.0625 L567.25,22.1875 L565.7969,22.1875 L565.7969,19.7813 L569.7813,19.7813 L569.7813,20.6406 C569.7813,21.0469 569.8125,21.2188 569.8906,21.375 C570.0625,21.625 570.3438,21.7813 570.625,21.7813 C570.8906,21.7813 571.1563,21.6406 571.3281,21.4219 C571.4375,21.25 571.4688,21.1094 571.4688,20.6406 L571.4688,18.0938 L563.8438,18.0938 C563.4063,18.0938 563.2813,18.1094 563.125,18.2031 C562.875,18.3594 562.7188,18.6563 562.7188,18.9375 C562.7188,19.2188 562.8594,19.4688 563.0781,19.6406 C563.2344,19.75 563.4219,19.7813 563.8438,19.7813 L564.0938,19.7813 L564.0938,26.2969 L563.8438,26.2969 C563.4375,26.2969 563.2813,26.3125 563.125,26.4219 C562.875,26.5938 562.7188,26.8594 562.7188,27.1563 C562.7188,27.4219 562.8594,27.6719 563.0781,27.8281 C563.2188,27.9531 563.4531,28 563.8438,28 L571.8438,28 L571.8438,25.4219 C571.8438,24.9844 571.8125,24.8438 571.7344,24.6875 C571.5625,24.4375 571.2813,24.2813 571,24.2813 C570.7344,24.2813 570.4688,24.3906 570.2969,24.6406 C570.1875,24.7969 570.1563,24.9375 570.1563,25.4219 L570.1563,26.2969 L565.7969,26.2969 L565.7969,23.875 Z " fill="#000000"/><text fill="#000000" font-family="sans-serif" font-size="14" lengthAdjust="spacing" textLength="76" x="581" y="27.8467">GameItem</text><line style="stroke:#181818;stroke-width:0.5;" x1="553" x2="659" y1="39" y2="39"/><text fill="#000000" font-family="sans-serif" font-size="14" lengthAdjust="spacing" textLength="46" x="558" y="55.9951">PLANT</text><text fill="#000000" font-family="sans-serif" font-size="14" lengthAdjust="spacing" textLength="54" x="558" y="72.292">ANIMAL</text><text fill="#000000" font-family="sans-serif" font-size="14" lengthAdjust="spacing" textLength="42" x="558" y="88.5889">FUNGI</text><text fill="#000000" font-family="sans-serif" font-size="14" lengthAdjust="spacing" textLength="51" x="558" y="104.8857">INSECT</text><text fill="#000000" font-family="sans-serif" font-size="14" lengthAdjust="spacing" textLength="40" x="558" y="121.1826">QUILL</text><text fill="#000000" font-family="sans-serif" font-size="14" lengthAdjust="spacing" textLength="63" x="558" y="137.4795">INKWELL</text><text fill="#000000" font-family="sans-serif" font-size="14" lengthAdjust="spacing" textLength="92" x="558" y="153.7764">MANUSCRIPT</text><line style="stroke:#181818;stroke-width:0.5;" x1="553" x2="659" y1="161.0781" y2="161.0781"/></g><!--class CardColor--><g id="elem_CardColor"><rect codeLine="253" fill="#F1F1F1" height="129.4844" id="CardColor" rx="2.5" ry="2.5" style="stroke:#181818;stroke-width:0.5;" width="103" x="395.5" y="294.5"/><ellipse cx="410.5" cy="310.5" fill="#EB937F" rx="11" ry="11" style="stroke:#181818;stroke-width:1.0;"/><path d="M409.2969,311.375 L410.75,311.375 L410.75,311.4844 C410.75,311.8906 410.7813,312.0469 410.8594,312.2031 C411.0156,312.4531 411.2969,312.6094 411.5938,312.6094 C411.8438,312.6094 412.1094,312.4688 412.2656,312.25 C412.3906,312.0938 412.4219,311.9375 412.4219,311.4844 L412.4219,309.5625 C412.4219,309.4063 412.4219,309.3594 412.4063,309.2031 C412.3438,308.7344 412.0313,308.4219 411.5781,308.4219 C411.3281,308.4219 411.0625,308.5625 410.8906,308.7813 C410.7813,308.9531 410.75,309.1094 410.75,309.5625 L410.75,309.6875 L409.2969,309.6875 L409.2969,307.2813 L413.2813,307.2813 L413.2813,308.1406 C413.2813,308.5469 413.3125,308.7188 413.3906,308.875 C413.5625,309.125 413.8438,309.2813 414.125,309.2813 C414.3906,309.2813 414.6563,309.1406 414.8281,308.9219 C414.9375,308.75 414.9688,308.6094 414.9688,308.1406 L414.9688,305.5938 L407.3438,305.5938 C406.9063,305.5938 406.7813,305.6094 406.625,305.7031 C406.375,305.8594 406.2188,306.1563 406.2188,306.4375 C406.2188,306.7188 406.3594,306.9688 406.5781,307.1406 C406.7344,307.25 406.9219,307.2813 407.3438,307.2813 L407.5938,307.2813 L407.5938,313.7969 L407.3438,313.7969 C406.9375,313.7969 406.7813,313.8125 406.625,313.9219 C406.375,314.0938 406.2188,314.3594 406.2188,314.6563 C406.2188,314.9219 406.3594,315.1719 406.5781,315.3281 C406.7188,315.4531 406.9531,315.5 407.3438,315.5 L415.3438,315.5 L415.3438,312.9219 C415.3438,312.4844 415.3125,312.3438 415.2344,312.1875 C415.0625,311.9375 414.7813,311.7813 414.5,311.7813 C414.2344,311.7813 413.9688,311.8906 413.7969,312.1406 C413.6875,312.2969 413.6563,312.4375 413.6563,312.9219 L413.6563,313.7969 L409.2969,313.7969 L409.2969,311.375 Z " fill="#000000"/><text fill="#000000" font-family="sans-serif" font-size="14" lengthAdjust="spacing" textLength="71" x="424.5" y="315.3467">CardColor</text><line style="stroke:#181818;stroke-width:0.5;" x1="396.5" x2="497.5" y1="326.5" y2="326.5"/><text fill="#000000" font-family="sans-serif" font-size="14" lengthAdjust="spacing" textLength="28" x="401.5" y="343.4951">Red</text><text fill="#000000" font-family="sans-serif" font-size="14" lengthAdjust="spacing" textLength="31" x="401.5" y="359.792">Blue</text><text fill="#000000" font-family="sans-serif" font-size="14" lengthAdjust="spacing" textLength="44" x="401.5" y="376.0889">Green</text><text fill="#000000" font-family="sans-serif" font-size="14" lengthAdjust="spacing" textLength="46" x="401.5" y="392.3857">Purple</text><text fill="#000000" font-family="sans-serif" font-size="14" lengthAdjust="spacing" textLength="52" x="401.5" y="408.6826">Neutral</text><line style="stroke:#181818;stroke-width:0.5;" x1="396.5" x2="497.5" y1="415.9844" y2="415.9844"/></g><!--reverse link GameManager to Game--><g id="link_GameManager_Game"><path codeLine="8" d="M919,164.75 C919,187.67 919,202.41 919,228.88 " fill="none" id="GameManager-backto-Game" style="stroke:#181818;stroke-width:1.0;"/><polygon fill="#181818" points="919,152.75,915,158.75,919,164.75,923,158.75,919,152.75" style="stroke:#181818;stroke-width:1.0;"/><text fill="#000000" font-family="sans-serif" font-size="13" lengthAdjust="spacing" textLength="25" x="892.5547" y="173.1505">1..N</text><text fill="#000000" font-family="sans-serif" font-size="13" lengthAdjust="spacing" textLength="8" x="910.7688" y="217.9986">1</text></g><!--reverse link Game to Player--><g id="link_Game_Player"><path codeLine="27" d="M878.7031,500.7162 C845.6731,616.0462 800.961,772.18 768.661,884.97 " fill="none" id="Game-backto-Player" style="stroke:#181818;stroke-width:1.0;"/><polygon fill="#181818" points="882.007,489.18,876.5096,493.8468,878.7031,500.7162,884.2004,496.0494,882.007,489.18" style="stroke:#181818;stroke-width:1.0;"/><text fill="#000000" font-family="sans-serif" font-size="13" lengthAdjust="spacing" textLength="24" x="855.3277" y="508.7837">2..4</text><text fill="#000000" font-family="sans-serif" font-size="13" lengthAdjust="spacing" textLength="8" x="762.6252" y="873.7571">1</text></g><!--reverse link Game to GlobalBoard--><g id="link_Game_GlobalBoard"><path codeLine="28" d="M972.0246,500.538 C979.4016,520.098 982.801,529.1 990.239,548.81 " fill="none" id="Game-backto-GlobalBoard" style="stroke:#181818;stroke-width:1.0;"/><polygon fill="#181818" points="967.79,489.31,966.1646,496.3355,972.0246,500.538,973.65,493.5125,967.79,489.31" style="stroke:#181818;stroke-width:1.0;"/><text fill="#000000" font-family="sans-serif" font-size="13" lengthAdjust="spacing" textLength="8" x="962.2395" y="508.9209">1</text><text fill="#000000" font-family="sans-serif" font-size="13" lengthAdjust="spacing" textLength="8" x="979.1896" y="537.9088">1</text></g><!--reverse link GlobalBoard to Deck--><g id="link_GlobalBoard_Deck"><path codeLine="49" d="M1042,837.17 C1042,888.44 1042,930.8 1042,966.37 " fill="none" id="GlobalBoard-backto-Deck" style="stroke:#181818;stroke-width:1.0;"/><polygon fill="#181818" points="1042,825.17,1038,831.17,1042,837.17,1046,831.17,1042,825.17" style="stroke:#181818;stroke-width:1.0;"/><text fill="#000000" font-family="sans-serif" font-size="13" lengthAdjust="spacing" textLength="8" x="1033.7813" y="845.2026">3</text><text fill="#000000" font-family="sans-serif" font-size="13" lengthAdjust="spacing" textLength="8" x="1033.3375" y="955.51">1</text></g><!--reverse link Player to PlayerBoard--><g id="link_Player_PlayerBoard"><path codeLine="68" d="M591.2114,1096.3008 C540.6054,1127.5908 492.93,1157.08 441.443,1188.91 " fill="none" id="Player-backto-PlayerBoard" style="stroke:#181818;stroke-width:1.0;"/><polygon fill="#181818" points="601.418,1089.99,594.2111,1089.7432,591.2114,1096.3008,598.4183,1096.5476,601.418,1089.99" style="stroke:#181818;stroke-width:1.0;"/><text fill="#000000" font-family="sans-serif" font-size="13" lengthAdjust="spacing" textLength="8" x="585.5219" y="1091.4376">1</text><text fill="#000000" font-family="sans-serif" font-size="13" lengthAdjust="spacing" textLength="8" x="444.9078" y="1177.968">1</text></g><!--reverse link Player to Hand--><g id="link_Player_Hand"><path codeLine="83" d="M710.2795,1140.9335 C704.5315,1173.1535 700.706,1194.58 695.926,1221.37 " fill="none" id="Player-backto-Hand" style="stroke:#181818;stroke-width:1.0;"/><polygon fill="#181818" points="712.387,1129.12,707.3954,1134.3242,710.2795,1140.9335,715.2711,1135.7292,712.387,1129.12" style="stroke:#181818;stroke-width:1.0;"/><text fill="#000000" font-family="sans-serif" font-size="13" lengthAdjust="spacing" textLength="8" x="702.9062" y="1148.697">1</text><text fill="#000000" font-family="sans-serif" font-size="13" lengthAdjust="spacing" textLength="8" x="688.6482" y="1210.6177">1</text></g><!--link PlayerBoard to GameCard--><g id="link_PlayerBoard_GameCard"><path codeLine="96" d="M425.359,1367.01 C452.917,1386.21 482.446,1406.77 511.168,1426.78 " fill="none" id="PlayerBoard-GameCard" style="stroke:#181818;stroke-width:1.0;"/><text fill="#000000" font-family="sans-serif" font-size="13" lengthAdjust="spacing" textLength="25" x="410.1438" y="1387.3603">1..N</text><text fill="#000000" font-family="sans-serif" font-size="13" lengthAdjust="spacing" textLength="8" x="492.5444" y="1416.077">1</text></g><!--reverse link Store to GameItemStore--><g id="link_Store_GameItemStore"><path d="M268.3069,1631.3184 C259.4969,1681.7414 251.158,1729.471 243.946,1770.745 " fill="none" id="Store-backto-GameItemStore" style="stroke:#181818;stroke-width:1.0;"/><polygon fill="none" points="271.405,1613.587,262.3965,1630.2857,274.2174,1632.3511,271.405,1613.587" style="stroke:#181818;stroke-width:1.0;"/></g><!--reverse link PlayerBoard to Store--><g id="link_PlayerBoard_Store"><path codeLine="113" d="M293.2319,1379.1701 C291.3529,1411.7901 289.938,1436.377 288.152,1467.401 " fill="none" id="PlayerBoard-backto-Store" style="stroke:#181818;stroke-width:1.0;"/><polygon fill="#181818" points="293.922,1367.19,289.5836,1372.95,293.2319,1379.1701,297.5703,1373.4101,293.922,1367.19" style="stroke:#181818;stroke-width:1.0;"/><text fill="#000000" font-family="sans-serif" font-size="13" lengthAdjust="spacing" textLength="8" x="285.1419" y="1387.5558">2</text><text fill="#000000" font-family="sans-serif" font-size="13" lengthAdjust="spacing" textLength="8" x="280.167" y="1456.5512">1</text></g><!--reverse link Card to GameCard--><g id="link_Card_GameCard"><path codeLine="118" d="M983.1519,1320.5422 C942.0229,1349.5822 892.857,1384.29 832.597,1426.831 " fill="none" id="Card-backto-GameCard" style="stroke:#181818;stroke-width:1.0;"/><polygon fill="none" points="997.856,1310.16,979.6912,1315.6408,986.6126,1325.4435,997.856,1310.16" style="stroke:#181818;stroke-width:1.0;"/></g><!--reverse link Card to ObjectiveCard--><g id="link_Card_ObjectiveCard"><path codeLine="119" d="M1047.6494,1328.0418 C1053.1094,1375.4518 1061.43,1447.757 1067.43,1499.792 " fill="none" id="Card-backto-ObjectiveCard" style="stroke:#181818;stroke-width:1.0;"/><polygon fill="none" points="1045.59,1310.16,1041.6888,1328.7283,1053.61,1327.3554,1045.59,1310.16" style="stroke:#181818;stroke-width:1.0;"/></g><!--reverse link GameCard to Side--><g id="link_GameCard_Side"><path codeLine="135" d="M673,1666.022 C673,1685.89 673,1694.415 673,1713.8 " fill="none" id="GameCard-backto-Side" style="stroke:#181818;stroke-width:1.0;"/><polygon fill="#181818" points="673,1654.022,669,1660.022,673,1666.022,677,1660.022,673,1654.022" style="stroke:#181818;stroke-width:1.0;"/><text fill="#000000" font-family="sans-serif" font-size="13" lengthAdjust="spacing" textLength="8" x="664.7313" y="1674.2156">2</text><text fill="#000000" font-family="sans-serif" font-size="13" lengthAdjust="spacing" textLength="8" x="664.6938" y="1702.8302">1</text></g><!--reverse link Side to Front--><g id="link_Side_Front"><path codeLine="149" d="M530.0284,1919.8422 C487.6684,1951.6452 456.813,1974.812 421.503,2001.322 " fill="none" id="Side-backto-Front" style="stroke:#181818;stroke-width:1.0;"/><polygon fill="none" points="544.423,1909.035,526.426,1915.044,533.6308,1924.6404,544.423,1909.035" style="stroke:#181818;stroke-width:1.0;"/></g><!--reverse link Side to Back--><g id="link_Side_Back"><path codeLine="150" d="M636.471,1926.1719 C626.251,1957.9749 620.841,1974.812 612.321,2001.322 " fill="none" id="Side-backto-Back" style="stroke:#181818;stroke-width:1.0;"/><polygon fill="none" points="641.978,1909.035,630.7587,1924.3362,642.1833,1928.0076,641.978,1909.035" style="stroke:#181818;stroke-width:1.0;"/></g><!--reverse link Side to Corner--><g id="link_Side_Corner"><path codeLine="151" d="M760.2289,1918.2937 C783.9239,1947.0317 801.447,1968.283 822.204,1993.457 " fill="none" id="Side-backto-Corner" style="stroke:#181818;stroke-width:1.0;"/><polygon fill="#181818" points="752.595,1909.035,753.3257,1916.209,760.2289,1918.2937,759.4982,1911.1197,752.595,1909.035" style="stroke:#181818;stroke-width:1.0;"/><text fill="#000000" font-family="sans-serif" font-size="13" lengthAdjust="spacing" textLength="24" x="733.559" y="1928.8323">1..4</text><text fill="#000000" font-family="sans-serif" font-size="13" lengthAdjust="spacing" textLength="8" x="807.8239" y="1982.3149">1</text></g><!--reverse link Front to FrontGoldCard--><g id="link_Front_FrontGoldCard"><path codeLine="169" d="M358,2116.631 C358,2145.401 358,2163.639 358,2190.843 " fill="none" id="Front-backto-FrontGoldCard" style="stroke:#181818;stroke-width:1.0;"/><polygon fill="none" points="358,2098.631,352,2116.631,364,2116.631,358,2098.631" style="stroke:#181818;stroke-width:1.0;"/></g><!--reverse link FrontGoldCard to FrontPositionalGoldCard--><g id="link_FrontGoldCard_FrontPositionalGoldCard"><path codeLine="176" d="M312.8805,2286.1029 C294.6485,2307.7629 284.025,2320.3853 267.097,2340.4962 " fill="none" id="FrontGoldCard-backto-FrontPositionalGoldCard" style="stroke:#181818;stroke-width:1.0;"/><polygon fill="none" points="324.472,2272.332,308.2902,2282.2391,317.4708,2289.9667,324.472,2272.332" style="stroke:#181818;stroke-width:1.0;"/></g><!--reverse link FrontGoldCard to FrontItemGoldCard--><g id="link_FrontGoldCard_FrontItemGoldCard"><path codeLine="177" d="M403.463,2286.0543 C419.263,2304.6663 426.38,2313.0499 442.181,2331.6624 " fill="none" id="FrontGoldCard-backto-FrontItemGoldCard" style="stroke:#181818;stroke-width:1.0;"/><polygon fill="none" points="391.814,2272.332,398.8889,2289.9373,408.0371,2282.1712,391.814,2272.332" style="stroke:#181818;stroke-width:1.0;"/></g><!--reverse link Player to ObjectiveCard--><g id="link_Player_ObjectiveCard"><path codeLine="206" d="M829.0121,1139.429 C841.6611,1158.939 847.422,1169.17 858,1189 C898.091,1264.15 885.513,1293.77 929,1367 C958.395,1416.503 1001.597,1466.422 1032.82,1499.732 " fill="none" id="Player-backto-ObjectiveCard" style="stroke:#181818;stroke-width:1.0;"/><polygon fill="#181818" points="822.484,1129.36,822.3917,1136.5705,829.0121,1139.429,829.1044,1132.2185,822.484,1129.36" style="stroke:#181818;stroke-width:1.0;"/></g><!--reverse link GlobalBoard to ObjectiveCard--><g id="link_GlobalBoard_ObjectiveCard"><path codeLine="207" d="M1135.6671,836.1043 C1144.8271,855.5343 1147.62,864.9 1153,885 C1208.38,1091.94 1204.12,1158.25 1156,1367 C1144.81,1415.526 1118.04,1466.204 1097.71,1499.971 " fill="none" id="GlobalBoard-backto-ObjectiveCard" style="stroke:#181818;stroke-width:1.0;"/><polygon fill="#181818" points="1130.55,825.25,1129.4905,832.3828,1135.6671,836.1043,1136.7266,828.9714,1130.55,825.25" style="stroke:#181818;stroke-width:1.0;"/></g><!--reverse link ObjectiveCard to PositionalObjectiveCard--><g id="link_ObjectiveCard_PositionalObjectiveCard"><path codeLine="208" d="M1072,1599.192 C1072,1650.051 1072,1719.708 1072,1770.645 " fill="none" id="ObjectiveCard-backto-PositionalObjectiveCard" style="stroke:#181818;stroke-width:1.0;"/><polygon fill="none" points="1072,1581.192,1066,1599.192,1078,1599.192,1072,1581.192" style="stroke:#181818;stroke-width:1.0;"/></g><!--reverse link Deck to Card--><g id="link_Deck_Card"><path codeLine="209" d="M1042,1059.69 C1042,1113.62 1042,1196.92 1042,1245.95 " fill="none" id="Deck-backto-Card" style="stroke:#181818;stroke-width:1.0;"/><polygon fill="#181818" points="1042,1047.69,1038,1053.69,1042,1059.69,1046,1053.69,1042,1047.69" style="stroke:#181818;stroke-width:1.0;"/></g><!--reverse link ObjectiveCard to ItemObjectiveCard--><g id="link_ObjectiveCard_ItemObjectiveCard"><path codeLine="216" d="M1130.6695,1593.0757 C1188.5295,1643.9347 1274.72,1719.708 1332.66,1770.645 " fill="none" id="ObjectiveCard-backto-ItemObjectiveCard" style="stroke:#181818;stroke-width:1.0;"/><polygon fill="none" points="1117.15,1581.192,1126.7083,1597.5822,1134.6308,1588.5692,1117.15,1581.192" style="stroke:#181818;stroke-width:1.0;"/></g><!--reverse link PositionalObjectiveCard to PositionalData--><g id="link_PositionalObjectiveCard_PositionalData"><path codeLine="227" d="M1088.6058,1863.4952 C1098.9258,1895.1852 1110.02,1929.261 1122.8,1968.534 " fill="none" id="PositionalObjectiveCard-backto-PositionalData" style="stroke:#181818;stroke-width:1.0;"/><polygon fill="#181818" points="1084.89,1852.085,1082.9445,1859.0287,1088.6058,1863.4952,1090.5513,1856.5515,1084.89,1852.085" style="stroke:#181818;stroke-width:1.0;"/><text fill="#000000" font-family="sans-serif" font-size="13" lengthAdjust="spacing" textLength="25" x="1059.9497" y="1871.5562">1..N</text><text fill="#000000" font-family="sans-serif" font-size="13" lengthAdjust="spacing" textLength="8" x="1112.2047" y="1957.9577">1</text></g><!--SRC=[jLXBRnit4Bxlho3SWpUnx29kZuO0MR5b8RAaIZ9oA8g2sXtBJ5TBWQISEAd_U_b-xAwgj4LziCcPuJo-cI5dNLIOSpJ2MxZ7DTu0Gzyo97_E1upXbmdXuaen-sWZVtFDEYiOO06Ad2y58_K6rNBTGwGMg9vN-0KOxo7BskdzL0gyCQTBgA1zsZ9RLa6e1SyjNstG9qhgjlKEUwzP7DZ9kukBwGbwUtukboSwvYmhVFpe6z8sJaV01Q4re0sX1HQK4GGoDlALq1yVYQJlC1D4O8EJDQlWKKODCKQY2QSXzwsZbZsgw1fNrnIp4ct2sZ3D2LJi6ODQc9s1WmkwqqXOU71P6dPkpnWZbijWIv_XRmGasjRfl4d93wLJIapXYvCAn2WYHoLyAIHqe0YlcSuDEhcykFWv9CK6PrZlecH5cBYSHP3PcdqFnHzeGwjIBI8I0qxth806cQu_GI78SvFEjPSiK6TES2YD_NhvMpZfqYVzTRn70bKvaauemY7-mdeKP09mrly8oqNaVqIUnVvtqUCqtYPkDHc9FuvPClnP4MuPtMgftCMXytSQPm39HA44foncd_mKSgbnjKcqLMZoTtg7KOKHtsDBrsTxZlQ4QxaXbTnGLE-tm2Wg2MA4KyO1OI7sk29UV4UvQbdPhtnV8O7NK5Lg1qu5NHCGqbjwaNHogF3GouOsfpnkI1FPBgmxYYLKoj0BtCauT32D5fj6ZUo9IGDvglIaHLDgkufW62dWJNgoyvV8CwuB29OK0bp0ZXk1qwd7VYTpIDIYs1E4vR6lc86g3PlNk8MZU5psTRUrtXlbIXyLlZDy7PfhmvxLA7Q-LUPy0BYBQz-LfDoVAIcHl46rgL3fWMVkpmQxErZbNLhZoKLrX_dJFTvTpULB9dee-DMg9iKQ2zWkvJi4-fLHEmlCRASUAbnr1vPhxMyQefgOoCaK4yLinlozk8rh0UfzjJpbts1BzxN8tJO6aJST3E5RiJMb5U0Q4IwHAm2lAsXBUjZj_MBUzkXf7qPrfi6xMlKj_3yu-5SzP9tlomANChvxyXKIeMVKpek6fxQBR6gaYwCUIbhVR7VYvGEyS5FCOVm8IPQlATIbzTgwV9Q8nDDG8Bge73KApjUDwQ04kSjGjLfFbaceWJrAwD4mrAo-Q5GMU1uTL_gqqDMVKeV7FP3I9o6ADr9zlYGbkF56hICg5K_00asT6jAACdq_w9NnJWjB5uT1IzBN_3CHnLDC3ghKCRN8cxqofApMy2a1jSpD7zSnZJIesZO2Gra3JCuvgNWFsTBkIb_SFacIe_RgmhzRqnIWX3BMPGUkOIld2jiChxbWk138Den2qpPB2mqvSox8vaaSPa_WyH1tJOMWswC2mS3P4V3_5yp_EzOQGTq1SdggHRI_ndByqLjrQKMpht7SzOZPsIJ8oW-teWtKCNprkIRFB2VKPHIcZR1LjGQxwu2L6l2qwzhLfMfYMZldDCCLY1wGD5fXXlq7e4f3Hbr0ousfYJb7T6RJFDG-2JpwBkb8JAehs7G5Wojl_P2eqXXSZ7riApboU-h9_pNH4Mjt5wJFrNPV2RAhYFi0F8pfgQgphjmfUZU6xZFfN-VnD9rzlU76xP9AsTbVlJK2mb1k77INdwclZrBP4HViBFQs-VIWv7EanSvIOPthaCnKL4-jIaDSeWgbhhWQ0zptvw_3ePODFs5wJzzZWPrbhTWWT-JnD9BEb-u7qcsQiqV7vU87FQFkIm-zD1X1cr-fe0yWtlpFJHfk6uJEF4J_W4cEz_M7OgJkM8tVo4_FKDgWTkcJOoskPlFV5-FHtShl9ZUtPdCzMwrczwszaNwrIZt0HjryCfWQwS5qV3-OwENjmtGqrglnT7apDFnV7iQJYIL- -7XZr_U3wSDok1ZFWuMGO6DYOH-LwsflngqH0p0TDz-pNMM8KzZBPgworxy0]--></g></svg>