<?xml version="1.0" encoding="us-ascii" standalone="no"?><svg xmlns="http://www.w3.org/2000/svg" xmlns:xlink="http://www.w3.org/1999/xlink" contentStyleType="text/css" height="2148px" preserveAspectRatio="none" style="width:2007px;height:2148px;background:#FFFFFF;" version="1.1" viewBox="0 0 2007 2148" width="2007px" zoomAndPan="magnify"><defs/><g><!--class GameManager--><g id="elem_GameManager"><rect codeLine="1" fill="#F1F1F1" height="194.6719" id="GameManager" rx="2.5" ry="2.5" style="stroke:#181818;stroke-width:0.5;" width="534" x="1108" y="7"/><ellipse cx="1319.25" cy="23" fill="#ADD1B2" rx="11" ry="11" style="stroke:#181818;stroke-width:1.0;"/><path d="M1321.5938,18.6719 C1320.6563,18.2344 1320.0625,18.0938 1319.1875,18.0938 C1316.5625,18.0938 1314.5625,20.1719 1314.5625,22.8906 L1314.5625,24.0156 C1314.5625,26.5938 1316.6719,28.4844 1319.5625,28.4844 C1320.7813,28.4844 1321.9375,28.1875 1322.6875,27.6406 C1323.2656,27.2344 1323.5938,26.7813 1323.5938,26.3906 C1323.5938,25.9375 1323.2031,25.5469 1322.7344,25.5469 C1322.5156,25.5469 1322.3125,25.625 1322.125,25.8125 C1321.6719,26.2969 1321.6719,26.2969 1321.4844,26.3906 C1321.0625,26.6563 1320.375,26.7813 1319.6094,26.7813 C1317.5625,26.7813 1316.2656,25.6875 1316.2656,23.9844 L1316.2656,22.8906 C1316.2656,21.1094 1317.5156,19.7969 1319.25,19.7969 C1319.8281,19.7969 1320.4375,19.9531 1320.9063,20.2031 C1321.3906,20.4844 1321.5625,20.7031 1321.6563,21.1094 C1321.7188,21.5156 1321.75,21.6406 1321.8906,21.7656 C1322.0313,21.9063 1322.2656,22.0156 1322.4844,22.0156 C1322.75,22.0156 1323.0156,21.875 1323.1875,21.6563 C1323.2969,21.5 1323.3281,21.3125 1323.3281,20.8906 L1323.3281,19.4688 C1323.3281,19.0313 1323.3125,18.9063 1323.2188,18.75 C1323.0625,18.4844 1322.7813,18.3438 1322.4844,18.3438 C1322.1875,18.3438 1321.9844,18.4375 1321.7656,18.75 L1321.5938,18.6719 Z " fill="#000000"/><text fill="#000000" font-family="sans-serif" font-size="14" lengthAdjust="spacing" textLength="103" x="1339.75" y="27.8467">GameManager</text><line style="stroke:#181818;stroke-width:0.5;" x1="1109" x2="1641" y1="39" y2="39"/><rect fill="none" height="6" style="stroke:#C82930;stroke-width:1.0;" width="6" x="1116" y="49.6484"/><text fill="#000000" font-family="sans-serif" font-size="14" lengthAdjust="spacing" textLength="179" x="1128" y="55.9951">ArrayList&lt;Game&gt; games</text><rect fill="none" height="6" style="stroke:#C82930;stroke-width:1.0;" width="6" x="1116" y="65.9453"/><text fill="#000000" font-family="sans-serif" font-size="14" lengthAdjust="spacing" textLength="286" x="1128" y="72.292">ArrayList&lt;GameCard&gt; defaultGoldDeck</text><rect fill="none" height="6" style="stroke:#C82930;stroke-width:1.0;" width="6" x="1116" y="82.2422"/><text fill="#000000" font-family="sans-serif" font-size="14" lengthAdjust="spacing" textLength="319" x="1128" y="88.5889">ArrayList&lt;GameCard&gt; defaultResourceDeck</text><rect fill="none" height="6" style="stroke:#C82930;stroke-width:1.0;" width="6" x="1116" y="98.5391"/><text fill="#000000" font-family="sans-serif" font-size="14" lengthAdjust="spacing" textLength="351" x="1128" y="104.8857">ArrayList&lt;ObjectiveCard&gt; defaultObjectiveDeck</text><rect fill="none" height="6" style="stroke:#C82930;stroke-width:1.0;" width="6" x="1116" y="114.8359"/><text fill="#000000" font-family="sans-serif" font-size="14" lengthAdjust="spacing" textLength="305" x="1128" y="121.1826">ArrayList&lt;GameCard&gt; defaultStarterDeck</text><line style="stroke:#181818;stroke-width:0.5;" x1="1109" x2="1641" y1="128.4844" y2="128.4844"/><ellipse cx="1119" cy="142.1328" fill="#84BE84" rx="3" ry="3" style="stroke:#038048;stroke-width:1.0;"/><text fill="#000000" font-family="sans-serif" font-size="14" lengthAdjust="spacing" textLength="216" x="1128" y="145.4795">ArrayList&lt;Game&gt; getGames()</text><ellipse cx="1119" cy="158.4297" fill="#84BE84" rx="3" ry="3" style="stroke:#038048;stroke-width:1.0;"/><text fill="#000000" font-family="sans-serif" font-size="14" lengthAdjust="spacing" textLength="508" x="1128" y="161.7764">Game createGame(String gameName, int nPlayers, String playerName)</text><ellipse cx="1119" cy="174.7266" fill="#84BE84" rx="3" ry="3" style="stroke:#038048;stroke-width:1.0;"/><text fill="#000000" font-family="sans-serif" font-size="14" lengthAdjust="spacing" textLength="228" x="1128" y="178.0732">deleteGame(String gameName)</text><ellipse cx="1119" cy="191.0234" fill="#84BE84" rx="3" ry="3" style="stroke:#038048;stroke-width:1.0;"/><text fill="#000000" font-family="sans-serif" font-size="14" lengthAdjust="spacing" textLength="395" x="1128" y="194.3701">Game joinGame(String gameName, String playerName)</text></g><!--class Game--><g id="elem_Game"><rect codeLine="14" fill="#F1F1F1" height="259.8594" id="Game" rx="2.5" ry="2.5" style="stroke:#181818;stroke-width:0.5;" width="287" x="1231.5" y="262"/><ellipse cx="1349.75" cy="278" fill="#ADD1B2" rx="11" ry="11" style="stroke:#181818;stroke-width:1.0;"/><path d="M1352.0938,273.6719 C1351.1563,273.2344 1350.5625,273.0938 1349.6875,273.0938 C1347.0625,273.0938 1345.0625,275.1719 1345.0625,277.8906 L1345.0625,279.0156 C1345.0625,281.5938 1347.1719,283.4844 1350.0625,283.4844 C1351.2813,283.4844 1352.4375,283.1875 1353.1875,282.6406 C1353.7656,282.2344 1354.0938,281.7813 1354.0938,281.3906 C1354.0938,280.9375 1353.7031,280.5469 1353.2344,280.5469 C1353.0156,280.5469 1352.8125,280.625 1352.625,280.8125 C1352.1719,281.2969 1352.1719,281.2969 1351.9844,281.3906 C1351.5625,281.6563 1350.875,281.7813 1350.1094,281.7813 C1348.0625,281.7813 1346.7656,280.6875 1346.7656,278.9844 L1346.7656,277.8906 C1346.7656,276.1094 1348.0156,274.7969 1349.75,274.7969 C1350.3281,274.7969 1350.9375,274.9531 1351.4063,275.2031 C1351.8906,275.4844 1352.0625,275.7031 1352.1563,276.1094 C1352.2188,276.5156 1352.25,276.6406 1352.3906,276.7656 C1352.5313,276.9063 1352.7656,277.0156 1352.9844,277.0156 C1353.25,277.0156 1353.5156,276.875 1353.6875,276.6563 C1353.7969,276.5 1353.8281,276.3125 1353.8281,275.8906 L1353.8281,274.4688 C1353.8281,274.0313 1353.8125,273.9063 1353.7188,273.75 C1353.5625,273.4844 1353.2813,273.3438 1352.9844,273.3438 C1352.6875,273.3438 1352.4844,273.4375 1352.2656,273.75 L1352.0938,273.6719 Z " fill="#000000"/><text fill="#000000" font-family="sans-serif" font-size="14" lengthAdjust="spacing" textLength="42" x="1370.25" y="282.8467">Game</text><line style="stroke:#181818;stroke-width:0.5;" x1="1232.5" x2="1517.5" y1="294" y2="294"/><rect fill="none" height="6" style="stroke:#C82930;stroke-width:1.0;" width="6" x="1239.5" y="304.6484"/><text fill="#000000" font-family="sans-serif" font-size="14" lengthAdjust="spacing" textLength="129" x="1251.5" y="310.9951">String gameName</text><rect fill="none" height="6" style="stroke:#C82930;stroke-width:1.0;" width="6" x="1239.5" y="320.9453"/><text fill="#000000" font-family="sans-serif" font-size="14" lengthAdjust="spacing" textLength="84" x="1251.5" y="327.292">int nPlayers</text><rect fill="none" height="6" style="stroke:#C82930;stroke-width:1.0;" width="6" x="1239.5" y="337.2422"/><text fill="#000000" font-family="sans-serif" font-size="14" lengthAdjust="spacing" textLength="186" x="1251.5" y="343.5889">ArrayList&lt;Player&gt; players</text><rect fill="none" height="6" style="stroke:#C82930;stroke-width:1.0;" width="6" x="1239.5" y="353.5391"/><text fill="#000000" font-family="sans-serif" font-size="14" lengthAdjust="spacing" textLength="178" x="1251.5" y="359.8857">GlobalBoard globalBoard</text><rect fill="none" height="6" style="stroke:#C82930;stroke-width:1.0;" width="6" x="1239.5" y="369.8359"/><text fill="#000000" font-family="sans-serif" font-size="14" lengthAdjust="spacing" textLength="145" x="1251.5" y="376.1826">Player currentPlayer</text><line style="stroke:#181818;stroke-width:0.5;" x1="1232.5" x2="1517.5" y1="383.4844" y2="383.4844"/><ellipse cx="1242.5" cy="397.1328" fill="#84BE84" rx="3" ry="3" style="stroke:#038048;stroke-width:1.0;"/><text fill="#000000" font-family="sans-serif" font-size="14" lengthAdjust="spacing" textLength="166" x="1251.5" y="400.4795">String getGameName()</text><ellipse cx="1242.5" cy="413.4297" fill="#84BE84" rx="3" ry="3" style="stroke:#038048;stroke-width:1.0;"/><text fill="#000000" font-family="sans-serif" font-size="14" lengthAdjust="spacing" textLength="220" x="1251.5" y="416.7764">ArrayList&lt;Player&gt; getPlayers()</text><ellipse cx="1242.5" cy="429.7266" fill="#84BE84" rx="3" ry="3" style="stroke:#038048;stroke-width:1.0;"/><text fill="#000000" font-family="sans-serif" font-size="14" lengthAdjust="spacing" textLength="261" x="1251.5" y="433.0732">Player getPlayer(String playerName)</text><ellipse cx="1242.5" cy="446.0234" fill="#84BE84" rx="3" ry="3" style="stroke:#038048;stroke-width:1.0;"/><text fill="#000000" font-family="sans-serif" font-size="14" lengthAdjust="spacing" textLength="215" x="1251.5" y="449.3701">GlobalBoard getGlobalBoard()</text><ellipse cx="1242.5" cy="462.3203" fill="#84BE84" rx="3" ry="3" style="stroke:#038048;stroke-width:1.0;"/><text fill="#000000" font-family="sans-serif" font-size="14" lengthAdjust="spacing" textLength="173" x="1251.5" y="465.667">addPlayer(Player player)</text><ellipse cx="1242.5" cy="478.6172" fill="#84BE84" rx="3" ry="3" style="stroke:#038048;stroke-width:1.0;"/><text fill="#000000" font-family="sans-serif" font-size="14" lengthAdjust="spacing" textLength="161" x="1251.5" y="481.9639">Player getNextPlayer()</text><ellipse cx="1242.5" cy="494.9141" fill="#84BE84" rx="3" ry="3" style="stroke:#038048;stroke-width:1.0;"/><text fill="#000000" font-family="sans-serif" font-size="14" lengthAdjust="spacing" textLength="138" x="1251.5" y="498.2607">boolean isStarted()</text><ellipse cx="1242.5" cy="511.2109" fill="#84BE84" rx="3" ry="3" style="stroke:#038048;stroke-width:1.0;"/><text fill="#000000" font-family="sans-serif" font-size="14" lengthAdjust="spacing" textLength="220" x="1251.5" y="514.5576">ArrayList&lt;Player&gt; getWinner()</text></g><g id="elem_GMN5"><path d="M937.5,379.5 L937.5,404.6328 A0,0 0 0 0 937.5,404.6328 L1196.5,404.6328 A0,0 0 0 0 1196.5,404.6328 L1196.5,397.5 L1231.47,392 L1196.5,389.5 L1196.5,389.5 L1186.5,379.5 L937.5,379.5 A0,0 0 0 0 937.5,379.5 " fill="#FEFFDD" style="stroke:#181818;stroke-width:0.5;"/><path d="M1186.5,379.5 L1186.5,389.5 L1196.5,389.5 L1186.5,379.5 " fill="#FEFFDD" style="stroke:#181818;stroke-width:0.5;"/><text fill="#000000" font-family="sans-serif" font-size="13" lengthAdjust="spacing" textLength="238" x="943.5" y="396.5669">Gestione giocatori e inizio/fine partita</text></g><!--class Player--><g id="elem_Player"><rect codeLine="60" fill="#F1F1F1" height="243.5625" id="Player" rx="2.5" ry="2.5" style="stroke:#181818;stroke-width:0.5;" width="265" x="1064.5" y="622.5"/><ellipse cx="1170.75" cy="638.5" fill="#ADD1B2" rx="11" ry="11" style="stroke:#181818;stroke-width:1.0;"/><path d="M1173.0938,634.1719 C1172.1563,633.7344 1171.5625,633.5938 1170.6875,633.5938 C1168.0625,633.5938 1166.0625,635.6719 1166.0625,638.3906 L1166.0625,639.5156 C1166.0625,642.0938 1168.1719,643.9844 1171.0625,643.9844 C1172.2813,643.9844 1173.4375,643.6875 1174.1875,643.1406 C1174.7656,642.7344 1175.0938,642.2813 1175.0938,641.8906 C1175.0938,641.4375 1174.7031,641.0469 1174.2344,641.0469 C1174.0156,641.0469 1173.8125,641.125 1173.625,641.3125 C1173.1719,641.7969 1173.1719,641.7969 1172.9844,641.8906 C1172.5625,642.1563 1171.875,642.2813 1171.1094,642.2813 C1169.0625,642.2813 1167.7656,641.1875 1167.7656,639.4844 L1167.7656,638.3906 C1167.7656,636.6094 1169.0156,635.2969 1170.75,635.2969 C1171.3281,635.2969 1171.9375,635.4531 1172.4063,635.7031 C1172.8906,635.9844 1173.0625,636.2031 1173.1563,636.6094 C1173.2188,637.0156 1173.25,637.1406 1173.3906,637.2656 C1173.5313,637.4063 1173.7656,637.5156 1173.9844,637.5156 C1174.25,637.5156 1174.5156,637.375 1174.6875,637.1563 C1174.7969,637 1174.8281,636.8125 1174.8281,636.3906 L1174.8281,634.9688 C1174.8281,634.5313 1174.8125,634.4063 1174.7188,634.25 C1174.5625,633.9844 1174.2813,633.8438 1173.9844,633.8438 C1173.6875,633.8438 1173.4844,633.9375 1173.2656,634.25 L1173.0938,634.1719 Z " fill="#000000"/><text fill="#000000" font-family="sans-serif" font-size="14" lengthAdjust="spacing" textLength="44" x="1191.25" y="643.3467">Player</text><line style="stroke:#181818;stroke-width:0.5;" x1="1065.5" x2="1328.5" y1="654.5" y2="654.5"/><rect fill="none" height="6" style="stroke:#C82930;stroke-width:1.0;" width="6" x="1072.5" y="665.1484"/><text fill="#000000" font-family="sans-serif" font-size="14" lengthAdjust="spacing" textLength="134" x="1084.5" y="671.4951">String playerName</text><rect fill="none" height="6" style="stroke:#C82930;stroke-width:1.0;" width="6" x="1072.5" y="681.4453"/><text fill="#000000" font-family="sans-serif" font-size="14" lengthAdjust="spacing" textLength="94" x="1084.5" y="687.792">int playerPos</text><rect fill="none" height="6" style="stroke:#C82930;stroke-width:1.0;" width="6" x="1072.5" y="697.7422"/><text fill="#000000" font-family="sans-serif" font-size="14" lengthAdjust="spacing" textLength="177" x="1084.5" y="704.0889">PlayerBoard playerBoard</text><rect fill="none" height="6" style="stroke:#C82930;stroke-width:1.0;" width="6" x="1072.5" y="714.0391"/><text fill="#000000" font-family="sans-serif" font-size="14" lengthAdjust="spacing" textLength="208" x="1084.5" y="720.3857">ObjectiveCard objectiveCard</text><rect fill="none" height="6" style="stroke:#C82930;stroke-width:1.0;" width="6" x="1072.5" y="730.3359"/><text fill="#000000" font-family="sans-serif" font-size="14" lengthAdjust="spacing" textLength="75" x="1084.5" y="736.6826">Hand hand</text><line style="stroke:#181818;stroke-width:0.5;" x1="1065.5" x2="1328.5" y1="743.9844" y2="743.9844"/><ellipse cx="1075.5" cy="757.6328" fill="#84BE84" rx="3" ry="3" style="stroke:#038048;stroke-width:1.0;"/><text fill="#000000" font-family="sans-serif" font-size="14" lengthAdjust="spacing" textLength="120" x="1084.5" y="760.9795">getPlayerName()</text><ellipse cx="1075.5" cy="773.9297" fill="#84BE84" rx="3" ry="3" style="stroke:#038048;stroke-width:1.0;"/><text fill="#000000" font-family="sans-serif" font-size="14" lengthAdjust="spacing" textLength="121" x="1084.5" y="777.2764">getPlayerBoard()</text><ellipse cx="1075.5" cy="790.2266" fill="#84BE84" rx="3" ry="3" style="stroke:#038048;stroke-width:1.0;"/><text fill="#000000" font-family="sans-serif" font-size="14" lengthAdjust="spacing" textLength="104" x="1084.5" y="793.5732">getPlayerPos()</text><ellipse cx="1075.5" cy="806.5234" fill="#84BE84" rx="3" ry="3" style="stroke:#038048;stroke-width:1.0;"/><text fill="#000000" font-family="sans-serif" font-size="14" lengthAdjust="spacing" textLength="115" x="1084.5" y="809.8701">getPlayerHand()</text><ellipse cx="1075.5" cy="822.8203" fill="#84BE84" rx="3" ry="3" style="stroke:#038048;stroke-width:1.0;"/><text fill="#000000" font-family="sans-serif" font-size="14" lengthAdjust="spacing" textLength="138" x="1084.5" y="826.167">getObjectiveCard()</text><ellipse cx="1075.5" cy="839.1172" fill="#84BE84" rx="3" ry="3" style="stroke:#038048;stroke-width:1.0;"/><text fill="#000000" font-family="sans-serif" font-size="14" lengthAdjust="spacing" textLength="239" x="1084.5" y="842.4639">setObjectiveCard(ObjectiveCard)</text><ellipse cx="1075.5" cy="855.4141" fill="#84BE84" rx="3" ry="3" style="stroke:#038048;stroke-width:1.0;"/><text fill="#000000" font-family="sans-serif" font-size="14" lengthAdjust="spacing" textLength="202" x="1084.5" y="858.7607">advancePlayerPos(int steps)</text></g><!--class GlobalBoard--><g id="elem_GlobalBoard"><rect codeLine="37" fill="#F1F1F1" height="325.0469" id="GlobalBoard" rx="2.5" ry="2.5" style="stroke:#181818;stroke-width:0.5;" width="377" x="1364.5" y="582"/><ellipse cx="1504.75" cy="598" fill="#ADD1B2" rx="11" ry="11" style="stroke:#181818;stroke-width:1.0;"/><path d="M1507.0938,593.6719 C1506.1563,593.2344 1505.5625,593.0938 1504.6875,593.0938 C1502.0625,593.0938 1500.0625,595.1719 1500.0625,597.8906 L1500.0625,599.0156 C1500.0625,601.5938 1502.1719,603.4844 1505.0625,603.4844 C1506.2813,603.4844 1507.4375,603.1875 1508.1875,602.6406 C1508.7656,602.2344 1509.0938,601.7813 1509.0938,601.3906 C1509.0938,600.9375 1508.7031,600.5469 1508.2344,600.5469 C1508.0156,600.5469 1507.8125,600.625 1507.625,600.8125 C1507.1719,601.2969 1507.1719,601.2969 1506.9844,601.3906 C1506.5625,601.6563 1505.875,601.7813 1505.1094,601.7813 C1503.0625,601.7813 1501.7656,600.6875 1501.7656,598.9844 L1501.7656,597.8906 C1501.7656,596.1094 1503.0156,594.7969 1504.75,594.7969 C1505.3281,594.7969 1505.9375,594.9531 1506.4063,595.2031 C1506.8906,595.4844 1507.0625,595.7031 1507.1563,596.1094 C1507.2188,596.5156 1507.25,596.6406 1507.3906,596.7656 C1507.5313,596.9063 1507.7656,597.0156 1507.9844,597.0156 C1508.25,597.0156 1508.5156,596.875 1508.6875,596.6563 C1508.7969,596.5 1508.8281,596.3125 1508.8281,595.8906 L1508.8281,594.4688 C1508.8281,594.0313 1508.8125,593.9063 1508.7188,593.75 C1508.5625,593.4844 1508.2813,593.3438 1507.9844,593.3438 C1507.6875,593.3438 1507.4844,593.4375 1507.2656,593.75 L1507.0938,593.6719 Z " fill="#000000"/><text fill="#000000" font-family="sans-serif" font-size="14" lengthAdjust="spacing" textLength="88" x="1525.25" y="602.8467">GlobalBoard</text><line style="stroke:#181818;stroke-width:0.5;" x1="1365.5" x2="1740.5" y1="614" y2="614"/><rect fill="none" height="6" style="stroke:#C82930;stroke-width:1.0;" width="6" x="1372.5" y="624.6484"/><text fill="#000000" font-family="sans-serif" font-size="14" lengthAdjust="spacing" textLength="206" x="1384.5" y="630.9951">Deck&lt;GameCard&gt; goldDeck</text><rect fill="none" height="6" style="stroke:#C82930;stroke-width:1.0;" width="6" x="1372.5" y="640.9453"/><text fill="#000000" font-family="sans-serif" font-size="14" lengthAdjust="spacing" textLength="237" x="1384.5" y="647.292">Deck&lt;GameCard&gt; resourceDeck</text><rect fill="none" height="6" style="stroke:#C82930;stroke-width:1.0;" width="6" x="1372.5" y="657.2422"/><text fill="#000000" font-family="sans-serif" font-size="14" lengthAdjust="spacing" textLength="271" x="1384.5" y="663.5889">Deck&lt;ObjectiveCard&gt; objectiveDeck</text><rect fill="none" height="6" style="stroke:#C82930;stroke-width:1.0;" width="6" x="1372.5" y="673.5391"/><text fill="#000000" font-family="sans-serif" font-size="14" lengthAdjust="spacing" textLength="225" x="1384.5" y="679.8857">Deck&lt;GameCard&gt; starterDeck</text><rect fill="none" height="6" style="stroke:#C82930;stroke-width:1.0;" width="6" x="1372.5" y="689.8359"/><text fill="#000000" font-family="sans-serif" font-size="14" lengthAdjust="spacing" textLength="314" x="1384.5" y="696.1826">ArrayList&lt;ObjectiveCard&gt; globalObjectives</text><rect fill="none" height="6" style="stroke:#C82930;stroke-width:1.0;" width="6" x="1372.5" y="706.1328"/><text fill="#000000" font-family="sans-serif" font-size="14" lengthAdjust="spacing" textLength="270" x="1384.5" y="712.4795">ArrayList&lt;GameCard&gt; fieldGoldCards</text><rect fill="none" height="6" style="stroke:#C82930;stroke-width:1.0;" width="6" x="1372.5" y="722.4297"/><text fill="#000000" font-family="sans-serif" font-size="14" lengthAdjust="spacing" textLength="303" x="1384.5" y="728.7764">ArrayList&lt;GameCard&gt; fieldResourceCards</text><line style="stroke:#181818;stroke-width:0.5;" x1="1365.5" x2="1740.5" y1="736.0781" y2="736.0781"/><ellipse cx="1375.5" cy="749.7266" fill="#84BE84" rx="3" ry="3" style="stroke:#038048;stroke-width:1.0;"/><text fill="#000000" font-family="sans-serif" font-size="14" lengthAdjust="spacing" textLength="243" x="1384.5" y="753.0732">Deck&lt;GameCard&gt; getGoldDeck()</text><ellipse cx="1375.5" cy="766.0234" fill="#84BE84" rx="3" ry="3" style="stroke:#038048;stroke-width:1.0;"/><text fill="#000000" font-family="sans-serif" font-size="14" lengthAdjust="spacing" textLength="276" x="1384.5" y="769.3701">Deck&lt;GameCard&gt; getResourceDeck()</text><ellipse cx="1375.5" cy="782.3203" fill="#84BE84" rx="3" ry="3" style="stroke:#038048;stroke-width:1.0;"/><text fill="#000000" font-family="sans-serif" font-size="14" lengthAdjust="spacing" textLength="308" x="1384.5" y="785.667">Deck&lt;ObjectiveCard&gt; getObjectiveDeck()</text><ellipse cx="1375.5" cy="798.6172" fill="#84BE84" rx="3" ry="3" style="stroke:#038048;stroke-width:1.0;"/><text fill="#000000" font-family="sans-serif" font-size="14" lengthAdjust="spacing" textLength="262" x="1384.5" y="801.9639">Deck&lt;GameCard&gt; getStarterDeck()</text><ellipse cx="1375.5" cy="814.9141" fill="#84BE84" rx="3" ry="3" style="stroke:#038048;stroke-width:1.0;"/><text fill="#000000" font-family="sans-serif" font-size="14" lengthAdjust="spacing" textLength="351" x="1384.5" y="818.2607">ArrayList&lt;ObjectiveCard&gt; getGlobalObjectives()</text><ellipse cx="1375.5" cy="831.2109" fill="#84BE84" rx="3" ry="3" style="stroke:#038048;stroke-width:1.0;"/><text fill="#000000" font-family="sans-serif" font-size="14" lengthAdjust="spacing" textLength="307" x="1384.5" y="834.5576">ArrayList&lt;GameCard&gt; getFieldGoldCards()</text><ellipse cx="1375.5" cy="847.5078" fill="#84BE84" rx="3" ry="3" style="stroke:#038048;stroke-width:1.0;"/><text fill="#000000" font-family="sans-serif" font-size="14" lengthAdjust="spacing" textLength="340" x="1384.5" y="850.8545">ArrayList&lt;GameCard&gt; getFieldResourceCards()</text><ellipse cx="1375.5" cy="863.8047" fill="#84BE84" rx="3" ry="3" style="stroke:#038048;stroke-width:1.0;"/><text fill="#000000" font-family="sans-serif" font-size="14" lengthAdjust="spacing" textLength="201" x="1384.5" y="867.1514">boolean isGoldDeckEmpty()</text><ellipse cx="1375.5" cy="880.1016" fill="#84BE84" rx="3" ry="3" style="stroke:#038048;stroke-width:1.0;"/><text fill="#000000" font-family="sans-serif" font-size="14" lengthAdjust="spacing" textLength="234" x="1384.5" y="883.4482">boolean isResourceDeckEmpty()</text><ellipse cx="1375.5" cy="896.3984" fill="#84BE84" rx="3" ry="3" style="stroke:#038048;stroke-width:1.0;"/><text fill="#000000" font-family="sans-serif" font-size="14" lengthAdjust="spacing" textLength="258" x="1384.5" y="899.7451">drawCardFromField(GameCard card)</text></g><!--class Deck--><g id="elem_Deck"><rect codeLine="79" fill="#F1F1F1" height="113.1875" id="Deck" rx="2.5" ry="2.5" style="stroke:#181818;stroke-width:0.5;" width="160" x="1637" y="991.5"/><ellipse cx="1688.75" cy="1007.5" fill="#ADD1B2" rx="11" ry="11" style="stroke:#181818;stroke-width:1.0;"/><path d="M1691.0938,1003.1719 C1690.1563,1002.7344 1689.5625,1002.5938 1688.6875,1002.5938 C1686.0625,1002.5938 1684.0625,1004.6719 1684.0625,1007.3906 L1684.0625,1008.5156 C1684.0625,1011.0938 1686.1719,1012.9844 1689.0625,1012.9844 C1690.2813,1012.9844 1691.4375,1012.6875 1692.1875,1012.1406 C1692.7656,1011.7344 1693.0938,1011.2813 1693.0938,1010.8906 C1693.0938,1010.4375 1692.7031,1010.0469 1692.2344,1010.0469 C1692.0156,1010.0469 1691.8125,1010.125 1691.625,1010.3125 C1691.1719,1010.7969 1691.1719,1010.7969 1690.9844,1010.8906 C1690.5625,1011.1563 1689.875,1011.2813 1689.1094,1011.2813 C1687.0625,1011.2813 1685.7656,1010.1875 1685.7656,1008.4844 L1685.7656,1007.3906 C1685.7656,1005.6094 1687.0156,1004.2969 1688.75,1004.2969 C1689.3281,1004.2969 1689.9375,1004.4531 1690.4063,1004.7031 C1690.8906,1004.9844 1691.0625,1005.2031 1691.1563,1005.6094 C1691.2188,1006.0156 1691.25,1006.1406 1691.3906,1006.2656 C1691.5313,1006.4063 1691.7656,1006.5156 1691.9844,1006.5156 C1692.25,1006.5156 1692.5156,1006.375 1692.6875,1006.1563 C1692.7969,1006 1692.8281,1005.8125 1692.8281,1005.3906 L1692.8281,1003.9688 C1692.8281,1003.5313 1692.8125,1003.4063 1692.7188,1003.25 C1692.5625,1002.9844 1692.2813,1002.8438 1691.9844,1002.8438 C1691.6875,1002.8438 1691.4844,1002.9375 1691.2656,1003.25 L1691.0938,1003.1719 Z " fill="#000000"/><text fill="#000000" font-family="sans-serif" font-size="14" lengthAdjust="spacing" textLength="37" x="1709.25" y="1012.3467">Deck</text><rect fill="#FFFFFF" height="15.9688" style="stroke:#181818;stroke-width:1.0;stroke-dasharray:2.0,2.0;" width="9" x="1791" y="988.5"/><text fill="#000000" font-family="sans-serif" font-size="12" font-style="italic" lengthAdjust="spacing" textLength="7" x="1792" y="1000.6387">T</text><line style="stroke:#181818;stroke-width:0.5;" x1="1638" x2="1796" y1="1023.5" y2="1023.5"/><rect fill="none" height="6" style="stroke:#C82930;stroke-width:1.0;" width="6" x="1645" y="1034.1484"/><text fill="#000000" font-family="sans-serif" font-size="14" lengthAdjust="spacing" textLength="134" x="1657" y="1040.4951">ArrayList&lt;T&gt; deck</text><rect fill="none" height="6" style="stroke:#C82930;stroke-width:1.0;" width="6" x="1645" y="1050.4453"/><text fill="#000000" font-family="sans-serif" font-size="14" lengthAdjust="spacing" textLength="123" x="1657" y="1056.792">Random random;</text><line style="stroke:#181818;stroke-width:0.5;" x1="1638" x2="1796" y1="1064.0938" y2="1064.0938"/><ellipse cx="1648" cy="1077.7422" fill="#84BE84" rx="3" ry="3" style="stroke:#038048;stroke-width:1.0;"/><text fill="#000000" font-family="sans-serif" font-size="14" lengthAdjust="spacing" textLength="131" x="1657" y="1081.0889">boolean isEmpty()</text><ellipse cx="1648" cy="1094.0391" fill="#84BE84" rx="3" ry="3" style="stroke:#038048;stroke-width:1.0;"/><text fill="#000000" font-family="sans-serif" font-size="14" lengthAdjust="spacing" textLength="57" x="1657" y="1097.3857">T draw()</text></g><!--class PlayerBoard--><g id="elem_PlayerBoard"><rect codeLine="96" fill="#F1F1F1" height="162.0781" id="PlayerBoard" rx="2.5" ry="2.5" style="stroke:#181818;stroke-width:0.5;" width="395" x="612.5" y="967"/><ellipse cx="762.75" cy="983" fill="#ADD1B2" rx="11" ry="11" style="stroke:#181818;stroke-width:1.0;"/><path d="M765.0938,978.6719 C764.1563,978.2344 763.5625,978.0938 762.6875,978.0938 C760.0625,978.0938 758.0625,980.1719 758.0625,982.8906 L758.0625,984.0156 C758.0625,986.5938 760.1719,988.4844 763.0625,988.4844 C764.2813,988.4844 765.4375,988.1875 766.1875,987.6406 C766.7656,987.2344 767.0938,986.7813 767.0938,986.3906 C767.0938,985.9375 766.7031,985.5469 766.2344,985.5469 C766.0156,985.5469 765.8125,985.625 765.625,985.8125 C765.1719,986.2969 765.1719,986.2969 764.9844,986.3906 C764.5625,986.6563 763.875,986.7813 763.1094,986.7813 C761.0625,986.7813 759.7656,985.6875 759.7656,983.9844 L759.7656,982.8906 C759.7656,981.1094 761.0156,979.7969 762.75,979.7969 C763.3281,979.7969 763.9375,979.9531 764.4063,980.2031 C764.8906,980.4844 765.0625,980.7031 765.1563,981.1094 C765.2188,981.5156 765.25,981.6406 765.3906,981.7656 C765.5313,981.9063 765.7656,982.0156 765.9844,982.0156 C766.25,982.0156 766.5156,981.875 766.6875,981.6563 C766.7969,981.5 766.8281,981.3125 766.8281,980.8906 L766.8281,979.4688 C766.8281,979.0313 766.8125,978.9063 766.7188,978.75 C766.5625,978.4844 766.2813,978.3438 765.9844,978.3438 C765.6875,978.3438 765.4844,978.4375 765.2656,978.75 L765.0938,978.6719 Z " fill="#000000"/><text fill="#000000" font-family="sans-serif" font-size="14" lengthAdjust="spacing" textLength="86" x="783.25" y="987.8467">PlayerBoard</text><line style="stroke:#181818;stroke-width:0.5;" x1="613.5" x2="1006.5" y1="999" y2="999"/><rect fill="none" height="6" style="stroke:#C82930;stroke-width:1.0;" width="6" x="620.5" y="1009.6484"/><text fill="#000000" font-family="sans-serif" font-size="14" lengthAdjust="spacing" textLength="298" x="632.5" y="1015.9951">HashMap&lt;Point, GameCard&gt; playerBoard</text><rect fill="none" height="6" style="stroke:#C82930;stroke-width:1.0;" width="6" x="620.5" y="1025.9453"/><text fill="#000000" font-family="sans-serif" font-size="14" lengthAdjust="spacing" textLength="201" x="632.5" y="1032.292">GameItemStore gameItems</text><line style="stroke:#181818;stroke-width:0.5;" x1="613.5" x2="1006.5" y1="1039.5938" y2="1039.5938"/><ellipse cx="623.5" cy="1053.2422" fill="#84BE84" rx="3" ry="3" style="stroke:#038048;stroke-width:1.0;"/><text fill="#000000" font-family="sans-serif" font-size="14" lengthAdjust="spacing" textLength="311" x="632.5" y="1056.5889">Optional&lt;GameCard&gt; getGameCard(Point)</text><ellipse cx="623.5" cy="1069.5391" fill="#84BE84" rx="3" ry="3" style="stroke:#038048;stroke-width:1.0;"/><text fill="#000000" font-family="sans-serif" font-size="14" lengthAdjust="spacing" textLength="369" x="632.5" y="1072.8857">Optional&lt;Point&gt; getGameCardPosition(GameCard)</text><ellipse cx="623.5" cy="1085.8359" fill="#84BE84" rx="3" ry="3" style="stroke:#038048;stroke-width:1.0;"/><text fill="#000000" font-family="sans-serif" font-size="14" lengthAdjust="spacing" textLength="282" x="632.5" y="1089.1826">ArrayList&lt;GameCard&gt; getGameCards()</text><ellipse cx="623.5" cy="1102.1328" fill="#84BE84" rx="3" ry="3" style="stroke:#038048;stroke-width:1.0;"/><text fill="#000000" font-family="sans-serif" font-size="14" lengthAdjust="spacing" textLength="301" x="632.5" y="1105.4795">Integer getGameItemAmount(GameItem)</text><ellipse cx="623.5" cy="1118.4297" fill="#84BE84" rx="3" ry="3" style="stroke:#038048;stroke-width:1.0;"/><text fill="#000000" font-family="sans-serif" font-size="14" lengthAdjust="spacing" textLength="263" x="632.5" y="1121.7764">void setGameCard(Point, GameCard)</text></g><!--class Hand--><g id="elem_Hand"><rect codeLine="87" fill="#F1F1F1" height="113.1875" id="Hand" rx="2.5" ry="2.5" style="stroke:#181818;stroke-width:0.5;" width="308" x="1043" y="991.5"/><ellipse cx="1174.75" cy="1007.5" fill="#ADD1B2" rx="11" ry="11" style="stroke:#181818;stroke-width:1.0;"/><path d="M1177.0938,1003.1719 C1176.1563,1002.7344 1175.5625,1002.5938 1174.6875,1002.5938 C1172.0625,1002.5938 1170.0625,1004.6719 1170.0625,1007.3906 L1170.0625,1008.5156 C1170.0625,1011.0938 1172.1719,1012.9844 1175.0625,1012.9844 C1176.2813,1012.9844 1177.4375,1012.6875 1178.1875,1012.1406 C1178.7656,1011.7344 1179.0938,1011.2813 1179.0938,1010.8906 C1179.0938,1010.4375 1178.7031,1010.0469 1178.2344,1010.0469 C1178.0156,1010.0469 1177.8125,1010.125 1177.625,1010.3125 C1177.1719,1010.7969 1177.1719,1010.7969 1176.9844,1010.8906 C1176.5625,1011.1563 1175.875,1011.2813 1175.1094,1011.2813 C1173.0625,1011.2813 1171.7656,1010.1875 1171.7656,1008.4844 L1171.7656,1007.3906 C1171.7656,1005.6094 1173.0156,1004.2969 1174.75,1004.2969 C1175.3281,1004.2969 1175.9375,1004.4531 1176.4063,1004.7031 C1176.8906,1004.9844 1177.0625,1005.2031 1177.1563,1005.6094 C1177.2188,1006.0156 1177.25,1006.1406 1177.3906,1006.2656 C1177.5313,1006.4063 1177.7656,1006.5156 1177.9844,1006.5156 C1178.25,1006.5156 1178.5156,1006.375 1178.6875,1006.1563 C1178.7969,1006 1178.8281,1005.8125 1178.8281,1005.3906 L1178.8281,1003.9688 C1178.8281,1003.5313 1178.8125,1003.4063 1178.7188,1003.25 C1178.5625,1002.9844 1178.2813,1002.8438 1177.9844,1002.8438 C1177.6875,1002.8438 1177.4844,1002.9375 1177.2656,1003.25 L1177.0938,1003.1719 Z " fill="#000000"/><text fill="#000000" font-family="sans-serif" font-size="14" lengthAdjust="spacing" textLength="36" x="1195.25" y="1012.3467">Hand</text><line style="stroke:#181818;stroke-width:0.5;" x1="1044" x2="1350" y1="1023.5" y2="1023.5"/><rect fill="none" height="6" style="stroke:#C82930;stroke-width:1.0;" width="6" x="1051" y="1034.1484"/><text fill="#000000" font-family="sans-serif" font-size="14" lengthAdjust="spacing" textLength="200" x="1063" y="1040.4951">ArrayList&lt;GameCard&gt; hand</text><line style="stroke:#181818;stroke-width:0.5;" x1="1044" x2="1350" y1="1047.7969" y2="1047.7969"/><ellipse cx="1054" cy="1061.4453" fill="#84BE84" rx="3" ry="3" style="stroke:#038048;stroke-width:1.0;"/><text fill="#000000" font-family="sans-serif" font-size="14" lengthAdjust="spacing" textLength="282" x="1063" y="1064.792">ArrayList&lt;GameCard&gt; getGameCards()</text><ellipse cx="1054" cy="1077.7422" fill="#84BE84" rx="3" ry="3" style="stroke:#038048;stroke-width:1.0;"/><text fill="#000000" font-family="sans-serif" font-size="14" lengthAdjust="spacing" textLength="178" x="1063" y="1081.0889">void addCard(GameCard)</text><ellipse cx="1054" cy="1094.0391" fill="#84BE84" rx="3" ry="3" style="stroke:#038048;stroke-width:1.0;"/><text fill="#000000" font-family="sans-serif" font-size="14" lengthAdjust="spacing" textLength="207" x="1063" y="1097.3857">void removeCard(GameCard)</text></g><!--class GameCard--><g id="elem_GameCard"><rect codeLine="127" fill="#F1F1F1" height="227.2656" id="GameCard" rx="2.5" ry="2.5" style="stroke:#181818;stroke-width:0.5;" width="395" x="312.5" y="1189"/><ellipse cx="468.25" cy="1205" fill="#ADD1B2" rx="11" ry="11" style="stroke:#181818;stroke-width:1.0;"/><path d="M470.5938,1200.6719 C469.6563,1200.2344 469.0625,1200.0938 468.1875,1200.0938 C465.5625,1200.0938 463.5625,1202.1719 463.5625,1204.8906 L463.5625,1206.0156 C463.5625,1208.5938 465.6719,1210.4844 468.5625,1210.4844 C469.7813,1210.4844 470.9375,1210.1875 471.6875,1209.6406 C472.2656,1209.2344 472.5938,1208.7813 472.5938,1208.3906 C472.5938,1207.9375 472.2031,1207.5469 471.7344,1207.5469 C471.5156,1207.5469 471.3125,1207.625 471.125,1207.8125 C470.6719,1208.2969 470.6719,1208.2969 470.4844,1208.3906 C470.0625,1208.6563 469.375,1208.7813 468.6094,1208.7813 C466.5625,1208.7813 465.2656,1207.6875 465.2656,1205.9844 L465.2656,1204.8906 C465.2656,1203.1094 466.5156,1201.7969 468.25,1201.7969 C468.8281,1201.7969 469.4375,1201.9531 469.9063,1202.2031 C470.3906,1202.4844 470.5625,1202.7031 470.6563,1203.1094 C470.7188,1203.5156 470.75,1203.6406 470.8906,1203.7656 C471.0313,1203.9063 471.2656,1204.0156 471.4844,1204.0156 C471.75,1204.0156 472.0156,1203.875 472.1875,1203.6563 C472.2969,1203.5 472.3281,1203.3125 472.3281,1202.8906 L472.3281,1201.4688 C472.3281,1201.0313 472.3125,1200.9063 472.2188,1200.75 C472.0625,1200.4844 471.7813,1200.3438 471.4844,1200.3438 C471.1875,1200.3438 470.9844,1200.4375 470.7656,1200.75 L470.5938,1200.6719 Z " fill="#000000"/><text fill="#000000" font-family="sans-serif" font-size="14" lengthAdjust="spacing" textLength="75" x="488.75" y="1209.8467">GameCard</text><line style="stroke:#181818;stroke-width:0.5;" x1="313.5" x2="706.5" y1="1221" y2="1221"/><rect fill="none" height="6" style="stroke:#C82930;stroke-width:1.0;" width="6" x="320.5" y="1231.6484"/><text fill="#000000" font-family="sans-serif" font-size="14" lengthAdjust="spacing" textLength="119" x="332.5" y="1237.9951">Side currentSide</text><rect fill="none" height="6" style="stroke:#C82930;stroke-width:1.0;" width="6" x="320.5" y="1247.9453"/><text fill="#000000" font-family="sans-serif" font-size="14" lengthAdjust="spacing" textLength="106" x="332.5" y="1254.292">Side otherSide</text><rect fill="none" height="6" style="stroke:#C82930;stroke-width:1.0;" width="6" x="320.5" y="1264.2422"/><text fill="#000000" font-family="sans-serif" font-size="14" lengthAdjust="spacing" textLength="142" x="332.5" y="1270.5889">cardColor cardColor</text><line style="stroke:#181818;stroke-width:0.5;" x1="313.5" x2="706.5" y1="1277.8906" y2="1277.8906"/><ellipse cx="323.5" cy="1291.5391" fill="#84BE84" rx="3" ry="3" style="stroke:#038048;stroke-width:1.0;"/><text fill="#000000" font-family="sans-serif" font-size="14" lengthAdjust="spacing" textLength="156" x="332.5" y="1294.8857">Side getCurrentSide()</text><ellipse cx="323.5" cy="1307.8359" fill="#84BE84" rx="3" ry="3" style="stroke:#038048;stroke-width:1.0;"/><text fill="#000000" font-family="sans-serif" font-size="14" lengthAdjust="spacing" textLength="121" x="332.5" y="1311.1826">void switchSide()</text><ellipse cx="323.5" cy="1324.1328" fill="#84BE84" rx="3" ry="3" style="stroke:#038048;stroke-width:1.0;"/><text fill="#000000" font-family="sans-serif" font-size="14" lengthAdjust="spacing" textLength="181" x="332.5" y="1327.4795">CardColor getCardColor()</text><ellipse cx="323.5" cy="1340.4297" fill="#84BE84" rx="3" ry="3" style="stroke:#038048;stroke-width:1.0;"/><text fill="#000000" font-family="sans-serif" font-size="14" lengthAdjust="spacing" textLength="324" x="332.5" y="1343.7764">Optional&lt;Corner&gt;getCorner(CornerPosition)</text><ellipse cx="323.5" cy="1356.7266" fill="#84BE84" rx="3" ry="3" style="stroke:#038048;stroke-width:1.0;"/><text fill="#000000" font-family="sans-serif" font-size="14" lengthAdjust="spacing" textLength="369" x="332.5" y="1360.0732">GameItemEnum setCornerCovered(CornerPosition)</text><ellipse cx="323.5" cy="1373.0234" fill="#84BE84" rx="3" ry="3" style="stroke:#038048;stroke-width:1.0;"/><text fill="#000000" font-family="sans-serif" font-size="14" lengthAdjust="spacing" textLength="271" x="332.5" y="1376.3701">GameItemStore getGameItemStore()</text><ellipse cx="323.5" cy="1389.3203" fill="#84BE84" rx="3" ry="3" style="stroke:#038048;stroke-width:1.0;"/><text fill="#000000" font-family="sans-serif" font-size="14" lengthAdjust="spacing" textLength="190" x="332.5" y="1392.667">int getPoints(PlayerBoard)</text><ellipse cx="323.5" cy="1405.6172" fill="#84BE84" rx="3" ry="3" style="stroke:#038048;stroke-width:1.0;"/><text fill="#000000" font-family="sans-serif" font-size="14" lengthAdjust="spacing" textLength="284" x="332.5" y="1408.9639">GameItemStore getNeededItemStore()</text></g><!--class Store--><g id="elem_Store"><rect codeLine="108" fill="#F1F1F1" height="145.7813" id="Store" rx="2.5" ry="2.5" style="stroke:#181818;stroke-width:0.5;" width="224" x="762" y="1229.5"/><ellipse cx="844.25" cy="1245.5" fill="#ADD1B2" rx="11" ry="11" style="stroke:#181818;stroke-width:1.0;"/><path d="M846.5938,1241.1719 C845.6563,1240.7344 845.0625,1240.5938 844.1875,1240.5938 C841.5625,1240.5938 839.5625,1242.6719 839.5625,1245.3906 L839.5625,1246.5156 C839.5625,1249.0938 841.6719,1250.9844 844.5625,1250.9844 C845.7813,1250.9844 846.9375,1250.6875 847.6875,1250.1406 C848.2656,1249.7344 848.5938,1249.2813 848.5938,1248.8906 C848.5938,1248.4375 848.2031,1248.0469 847.7344,1248.0469 C847.5156,1248.0469 847.3125,1248.125 847.125,1248.3125 C846.6719,1248.7969 846.6719,1248.7969 846.4844,1248.8906 C846.0625,1249.1563 845.375,1249.2813 844.6094,1249.2813 C842.5625,1249.2813 841.2656,1248.1875 841.2656,1246.4844 L841.2656,1245.3906 C841.2656,1243.6094 842.5156,1242.2969 844.25,1242.2969 C844.8281,1242.2969 845.4375,1242.4531 845.9063,1242.7031 C846.3906,1242.9844 846.5625,1243.2031 846.6563,1243.6094 C846.7188,1244.0156 846.75,1244.1406 846.8906,1244.2656 C847.0313,1244.4063 847.2656,1244.5156 847.4844,1244.5156 C847.75,1244.5156 848.0156,1244.375 848.1875,1244.1563 C848.2969,1244 848.3281,1243.8125 848.3281,1243.3906 L848.3281,1241.9688 C848.3281,1241.5313 848.3125,1241.4063 848.2188,1241.25 C848.0625,1240.9844 847.7813,1240.8438 847.4844,1240.8438 C847.1875,1240.8438 846.9844,1240.9375 846.7656,1241.25 L846.5938,1241.1719 Z " fill="#000000"/><text fill="#000000" font-family="sans-serif" font-size="14" lengthAdjust="spacing" textLength="40" x="864.75" y="1250.3467">Store</text><rect fill="#FFFFFF" height="15.9688" style="stroke:#181818;stroke-width:1.0;stroke-dasharray:2.0,2.0;" width="9" x="980" y="1226.5"/><text fill="#000000" font-family="sans-serif" font-size="12" font-style="italic" lengthAdjust="spacing" textLength="7" x="981" y="1238.6387">T</text><line style="stroke:#181818;stroke-width:0.5;" x1="763" x2="985" y1="1261.5" y2="1261.5"/><polygon fill="none" points="773,1270.1484,777,1274.1484,773,1278.1484,769,1274.1484" style="stroke:#B38D22;stroke-width:1.0;"/><text fill="#000000" font-family="sans-serif" font-size="14" lengthAdjust="spacing" textLength="198" x="782" y="1278.4951">HashMap&lt;T, Integer&gt; store</text><line style="stroke:#181818;stroke-width:0.5;" x1="763" x2="985" y1="1285.7969" y2="1285.7969"/><ellipse cx="773" cy="1299.4453" fill="#84BE84" rx="3" ry="3" style="stroke:#038048;stroke-width:1.0;"/><text fill="#000000" font-family="sans-serif" font-size="14" lengthAdjust="spacing" textLength="55" x="782" y="1302.792">get(T t)</text><ellipse cx="773" cy="1315.7422" fill="#84BE84" rx="3" ry="3" style="stroke:#038048;stroke-width:1.0;"/><text fill="#000000" font-family="sans-serif" font-size="14" lengthAdjust="spacing" textLength="114" x="782" y="1319.0889">set(T t, Integer)</text><ellipse cx="773" cy="1332.0391" fill="#84BE84" rx="3" ry="3" style="stroke:#038048;stroke-width:1.0;"/><text fill="#000000" font-family="sans-serif" font-size="14" lengthAdjust="spacing" textLength="166" x="782" y="1335.3857">increment(T t, Integer)</text><ellipse cx="773" cy="1348.3359" fill="#84BE84" rx="3" ry="3" style="stroke:#038048;stroke-width:1.0;"/><text fill="#000000" font-family="sans-serif" font-size="14" lengthAdjust="spacing" textLength="171" x="782" y="1351.6826">decrement(T t, Integer)</text><ellipse cx="773" cy="1364.6328" fill="#84BE84" rx="3" ry="3" style="stroke:#038048;stroke-width:1.0;"/><text fill="#000000" font-family="sans-serif" font-size="14" lengthAdjust="spacing" textLength="145" x="782" y="1367.9795">getNonEmptyKeys()</text></g><!--class GameItemStore--><g id="elem_GameItemStore"><rect codeLine="117" fill="#F1F1F1" height="80.5938" id="GameItemStore" rx="2.5" ry="2.5" style="stroke:#181818;stroke-width:0.5;" width="460" x="681" y="1533"/><ellipse cx="848.75" cy="1549" fill="#ADD1B2" rx="11" ry="11" style="stroke:#181818;stroke-width:1.0;"/><path d="M851.0938,1544.6719 C850.1563,1544.2344 849.5625,1544.0938 848.6875,1544.0938 C846.0625,1544.0938 844.0625,1546.1719 844.0625,1548.8906 L844.0625,1550.0156 C844.0625,1552.5938 846.1719,1554.4844 849.0625,1554.4844 C850.2813,1554.4844 851.4375,1554.1875 852.1875,1553.6406 C852.7656,1553.2344 853.0938,1552.7813 853.0938,1552.3906 C853.0938,1551.9375 852.7031,1551.5469 852.2344,1551.5469 C852.0156,1551.5469 851.8125,1551.625 851.625,1551.8125 C851.1719,1552.2969 851.1719,1552.2969 850.9844,1552.3906 C850.5625,1552.6563 849.875,1552.7813 849.1094,1552.7813 C847.0625,1552.7813 845.7656,1551.6875 845.7656,1549.9844 L845.7656,1548.8906 C845.7656,1547.1094 847.0156,1545.7969 848.75,1545.7969 C849.3281,1545.7969 849.9375,1545.9531 850.4063,1546.2031 C850.8906,1546.4844 851.0625,1546.7031 851.1563,1547.1094 C851.2188,1547.5156 851.25,1547.6406 851.3906,1547.7656 C851.5313,1547.9063 851.7656,1548.0156 851.9844,1548.0156 C852.25,1548.0156 852.5156,1547.875 852.6875,1547.6563 C852.7969,1547.5 852.8281,1547.3125 852.8281,1546.8906 L852.8281,1545.4688 C852.8281,1545.0313 852.8125,1544.9063 852.7188,1544.75 C852.5625,1544.4844 852.2813,1544.3438 851.9844,1544.3438 C851.6875,1544.3438 851.4844,1544.4375 851.2656,1544.75 L851.0938,1544.6719 Z " fill="#000000"/><text fill="#000000" font-family="sans-serif" font-size="14" lengthAdjust="spacing" textLength="116" x="869.25" y="1553.8467">GameItemStore</text><line style="stroke:#181818;stroke-width:0.5;" x1="682" x2="1140" y1="1565" y2="1565"/><line style="stroke:#181818;stroke-width:0.5;" x1="682" x2="1140" y1="1573" y2="1573"/><ellipse cx="692" cy="1586.6484" fill="#84BE84" rx="3" ry="3" style="stroke:#038048;stroke-width:1.0;"/><text fill="#000000" font-family="sans-serif" font-size="14" lengthAdjust="spacing" textLength="126" x="701" y="1589.9951">GameItemStore()</text><ellipse cx="692" cy="1602.9453" fill="#84BE84" rx="3" ry="3" style="stroke:#038048;stroke-width:1.0;"/><text fill="#000000" font-family="sans-serif" font-size="14" lengthAdjust="spacing" textLength="434" x="701" y="1606.292">GameItemStore(HashMap&lt;GameItem, Integer&gt; gameItems)</text></g><!--class Side--><g id="elem_Side"><rect codeLine="143" fill="#F1F1F1" height="194.6719" id="Side" rx="2.5" ry="2.5" style="stroke:#181818;stroke-width:0.5;" width="310" x="336" y="1476"/><ellipse cx="471.25" cy="1492" fill="#A9DCDF" rx="11" ry="11" style="stroke:#181818;stroke-width:1.0;"/><path d="M473.3281,1493.8125 L473.7188,1494.7969 L473.3281,1494.7969 C472.875,1494.7969 472.7656,1494.8125 472.6094,1494.9219 C472.3594,1495.0781 472.2031,1495.3594 472.2031,1495.6563 C472.2031,1495.9219 472.3438,1496.1719 472.5625,1496.3281 C472.7031,1496.4531 472.9063,1496.5 473.3281,1496.5 L475.6875,1496.5 C476.0469,1496.5 476.2656,1496.4688 476.4063,1496.375 C476.6563,1496.2344 476.8125,1495.9375 476.8125,1495.6563 C476.8125,1495.375 476.6719,1495.125 476.4531,1494.9688 C476.2813,1494.8281 476.125,1494.7969 475.6563,1494.7969 L472.2656,1486.5938 L468.5938,1486.5938 C468.1406,1486.5938 468.0156,1486.6094 467.8594,1486.7031 C467.6094,1486.875 467.4531,1487.1563 467.4531,1487.4375 C467.4531,1487.7188 467.5938,1487.9688 467.8125,1488.1406 C467.9844,1488.25 468.1563,1488.2813 468.5938,1488.2813 L469.6719,1488.2813 L467.0313,1494.7969 C466.6094,1494.7969 466.4531,1494.8125 466.2969,1494.9219 C466.0469,1495.0781 465.8906,1495.3594 465.8906,1495.6563 C465.8906,1496.2188 466.2656,1496.5 467.0156,1496.5 L469.2813,1496.5 C469.6406,1496.5 469.8594,1496.4688 469.9844,1496.375 C470.25,1496.2344 470.3906,1495.9375 470.3906,1495.6563 C470.3906,1495.375 470.2656,1495.125 470.0469,1494.9531 C469.875,1494.8281 469.7344,1494.7969 469.2813,1494.7969 L468.8906,1494.7969 L469.2813,1493.8125 L473.3281,1493.8125 Z M472.625,1492.1094 L469.9531,1492.1094 L471.2969,1488.8438 L472.625,1492.1094 Z " fill="#000000"/><text fill="#000000" font-family="sans-serif" font-size="14" font-style="italic" lengthAdjust="spacing" textLength="31" x="491.75" y="1496.8467">Side</text><line style="stroke:#181818;stroke-width:0.5;" x1="337" x2="645" y1="1508" y2="1508"/><polygon fill="none" points="347,1516.6484,351,1520.6484,347,1524.6484,343,1520.6484" style="stroke:#B38D22;stroke-width:1.0;"/><text fill="#000000" font-family="sans-serif" font-size="14" lengthAdjust="spacing" textLength="198" x="356" y="1524.9951">Optional&lt;Corner&gt;topRight</text><polygon fill="none" points="347,1532.9453,351,1536.9453,347,1540.9453,343,1536.9453" style="stroke:#B38D22;stroke-width:1.0;"/><text fill="#000000" font-family="sans-serif" font-size="14" lengthAdjust="spacing" textLength="189" x="356" y="1541.292">Optional&lt;Corner&gt;topLeft</text><polygon fill="none" points="347,1549.2422,351,1553.2422,347,1557.2422,343,1553.2422" style="stroke:#B38D22;stroke-width:1.0;"/><text fill="#000000" font-family="sans-serif" font-size="14" lengthAdjust="spacing" textLength="219" x="356" y="1557.5889">Optional&lt;Corner&gt;bottomLeft</text><polygon fill="none" points="347,1565.5391,351,1569.5391,347,1573.5391,343,1569.5391" style="stroke:#B38D22;stroke-width:1.0;"/><text fill="#000000" font-family="sans-serif" font-size="14" lengthAdjust="spacing" textLength="228" x="356" y="1573.8857">Optional&lt;Corner&gt;bottomRight</text><line style="stroke:#181818;stroke-width:0.5;" x1="337" x2="645" y1="1581.1875" y2="1581.1875"/><ellipse cx="347" cy="1594.8359" fill="#84BE84" rx="3" ry="3" style="stroke:#038048;stroke-width:1.0;"/><text fill="#000000" font-family="sans-serif" font-size="14" lengthAdjust="spacing" textLength="191" x="356" y="1598.1826">getCorner(CornerPosition)</text><ellipse cx="347" cy="1611.1328" fill="#84BE84" rx="3" ry="3" style="stroke:#038048;stroke-width:1.0;"/><text fill="#000000" font-family="sans-serif" font-size="14" lengthAdjust="spacing" textLength="249" x="356" y="1614.4795">setCornerCovered(CornerPosition)</text><ellipse cx="347" cy="1627.4297" fill="#84BE84" rx="3" ry="3" style="stroke:#038048;stroke-width:1.0;"/><text fill="#000000" font-family="sans-serif" font-size="14" lengthAdjust="spacing" textLength="271" x="356" y="1630.7764">GameItemStore getGameItemStore()</text><ellipse cx="347" cy="1643.7266" fill="#84BE84" rx="3" ry="3" style="stroke:#038048;stroke-width:1.0;"/><text fill="#000000" font-family="sans-serif" font-size="14" lengthAdjust="spacing" textLength="190" x="356" y="1647.0732">int getPoints(PlayerBoard)</text><ellipse cx="347" cy="1660.0234" fill="#84BE84" rx="3" ry="3" style="stroke:#038048;stroke-width:1.0;"/><text fill="#000000" font-family="sans-serif" font-size="14" lengthAdjust="spacing" textLength="284" x="356" y="1663.3701">GameItemStore getNeededItemStore()</text></g><!--class Front--><g id="elem_Front"><rect codeLine="179" fill="#F1F1F1" height="96.8906" id="Front" rx="2.5" ry="2.5" style="stroke:#181818;stroke-width:0.5;" width="216" x="132" y="1747"/><ellipse cx="216.25" cy="1763" fill="#ADD1B2" rx="11" ry="11" style="stroke:#181818;stroke-width:1.0;"/><path d="M218.5938,1758.6719 C217.6563,1758.2344 217.0625,1758.0938 216.1875,1758.0938 C213.5625,1758.0938 211.5625,1760.1719 211.5625,1762.8906 L211.5625,1764.0156 C211.5625,1766.5938 213.6719,1768.4844 216.5625,1768.4844 C217.7813,1768.4844 218.9375,1768.1875 219.6875,1767.6406 C220.2656,1767.2344 220.5938,1766.7813 220.5938,1766.3906 C220.5938,1765.9375 220.2031,1765.5469 219.7344,1765.5469 C219.5156,1765.5469 219.3125,1765.625 219.125,1765.8125 C218.6719,1766.2969 218.6719,1766.2969 218.4844,1766.3906 C218.0625,1766.6563 217.375,1766.7813 216.6094,1766.7813 C214.5625,1766.7813 213.2656,1765.6875 213.2656,1763.9844 L213.2656,1762.8906 C213.2656,1761.1094 214.5156,1759.7969 216.25,1759.7969 C216.8281,1759.7969 217.4375,1759.9531 217.9063,1760.2031 C218.3906,1760.4844 218.5625,1760.7031 218.6563,1761.1094 C218.7188,1761.5156 218.75,1761.6406 218.8906,1761.7656 C219.0313,1761.9063 219.2656,1762.0156 219.4844,1762.0156 C219.75,1762.0156 220.0156,1761.875 220.1875,1761.6563 C220.2969,1761.5 220.3281,1761.3125 220.3281,1760.8906 L220.3281,1759.4688 C220.3281,1759.0313 220.3125,1758.9063 220.2188,1758.75 C220.0625,1758.4844 219.7813,1758.3438 219.4844,1758.3438 C219.1875,1758.3438 218.9844,1758.4375 218.7656,1758.75 L218.5938,1758.6719 Z " fill="#000000"/><text fill="#000000" font-family="sans-serif" font-size="14" lengthAdjust="spacing" textLength="39" x="236.75" y="1767.8467">Front</text><line style="stroke:#181818;stroke-width:0.5;" x1="133" x2="347" y1="1779" y2="1779"/><polygon fill="none" points="143,1787.6484,147,1791.6484,143,1795.6484,139,1791.6484" style="stroke:#B38D22;stroke-width:1.0;"/><text fill="#000000" font-family="sans-serif" font-size="14" lengthAdjust="spacing" textLength="70" x="152" y="1795.9951">int points</text><line style="stroke:#181818;stroke-width:0.5;" x1="133" x2="347" y1="1803.2969" y2="1803.2969"/><ellipse cx="143" cy="1816.9453" fill="#84BE84" rx="3" ry="3" style="stroke:#038048;stroke-width:1.0;"/><text fill="#000000" font-family="sans-serif" font-size="14" lengthAdjust="spacing" textLength="151" x="152" y="1820.292">getGameItemStore()</text><ellipse cx="143" cy="1833.2422" fill="#84BE84" rx="3" ry="3" style="stroke:#038048;stroke-width:1.0;"/><text fill="#000000" font-family="sans-serif" font-size="14" lengthAdjust="spacing" textLength="190" x="152" y="1836.5889">int getPoints(PlayerBoard)</text></g><!--class Back--><g id="elem_Back"><rect codeLine="209" fill="#F1F1F1" height="96.8906" id="Back" rx="2.5" ry="2.5" style="stroke:#181818;stroke-width:0.5;" width="216" x="383" y="1747"/><ellipse cx="469.25" cy="1763" fill="#ADD1B2" rx="11" ry="11" style="stroke:#181818;stroke-width:1.0;"/><path d="M471.5938,1758.6719 C470.6563,1758.2344 470.0625,1758.0938 469.1875,1758.0938 C466.5625,1758.0938 464.5625,1760.1719 464.5625,1762.8906 L464.5625,1764.0156 C464.5625,1766.5938 466.6719,1768.4844 469.5625,1768.4844 C470.7813,1768.4844 471.9375,1768.1875 472.6875,1767.6406 C473.2656,1767.2344 473.5938,1766.7813 473.5938,1766.3906 C473.5938,1765.9375 473.2031,1765.5469 472.7344,1765.5469 C472.5156,1765.5469 472.3125,1765.625 472.125,1765.8125 C471.6719,1766.2969 471.6719,1766.2969 471.4844,1766.3906 C471.0625,1766.6563 470.375,1766.7813 469.6094,1766.7813 C467.5625,1766.7813 466.2656,1765.6875 466.2656,1763.9844 L466.2656,1762.8906 C466.2656,1761.1094 467.5156,1759.7969 469.25,1759.7969 C469.8281,1759.7969 470.4375,1759.9531 470.9063,1760.2031 C471.3906,1760.4844 471.5625,1760.7031 471.6563,1761.1094 C471.7188,1761.5156 471.75,1761.6406 471.8906,1761.7656 C472.0313,1761.9063 472.2656,1762.0156 472.4844,1762.0156 C472.75,1762.0156 473.0156,1761.875 473.1875,1761.6563 C473.2969,1761.5 473.3281,1761.3125 473.3281,1760.8906 L473.3281,1759.4688 C473.3281,1759.0313 473.3125,1758.9063 473.2188,1758.75 C473.0625,1758.4844 472.7813,1758.3438 472.4844,1758.3438 C472.1875,1758.3438 471.9844,1758.4375 471.7656,1758.75 L471.5938,1758.6719 Z " fill="#000000"/><text fill="#000000" font-family="sans-serif" font-size="14" lengthAdjust="spacing" textLength="35" x="489.75" y="1767.8467">Back</text><line style="stroke:#181818;stroke-width:0.5;" x1="384" x2="598" y1="1779" y2="1779"/><polygon fill="none" points="394,1787.6484,398,1791.6484,394,1795.6484,390,1791.6484" style="stroke:#B38D22;stroke-width:1.0;"/><text fill="#000000" font-family="sans-serif" font-size="14" lengthAdjust="spacing" textLength="189" x="403" y="1795.9951">GameItemStore resources</text><line style="stroke:#181818;stroke-width:0.5;" x1="384" x2="598" y1="1803.2969" y2="1803.2969"/><ellipse cx="394" cy="1816.9453" fill="#84BE84" rx="3" ry="3" style="stroke:#038048;stroke-width:1.0;"/><text fill="#000000" font-family="sans-serif" font-size="14" lengthAdjust="spacing" textLength="151" x="403" y="1820.292">getGameItemStore()</text><ellipse cx="394" cy="1833.2422" fill="#84BE84" rx="3" ry="3" style="stroke:#038048;stroke-width:1.0;"/><text fill="#000000" font-family="sans-serif" font-size="14" lengthAdjust="spacing" textLength="190" x="403" y="1836.5889">int getPoints(PlayerBoard)</text></g><!--class Corner--><g id="elem_Corner"><rect codeLine="159" fill="#F1F1F1" height="129.4844" id="Corner" rx="2.5" ry="2.5" style="stroke:#181818;stroke-width:0.5;" width="257" x="634.5" y="1731"/><ellipse cx="734.25" cy="1747" fill="#ADD1B2" rx="11" ry="11" style="stroke:#181818;stroke-width:1.0;"/><path d="M736.5938,1742.6719 C735.6563,1742.2344 735.0625,1742.0938 734.1875,1742.0938 C731.5625,1742.0938 729.5625,1744.1719 729.5625,1746.8906 L729.5625,1748.0156 C729.5625,1750.5938 731.6719,1752.4844 734.5625,1752.4844 C735.7813,1752.4844 736.9375,1752.1875 737.6875,1751.6406 C738.2656,1751.2344 738.5938,1750.7813 738.5938,1750.3906 C738.5938,1749.9375 738.2031,1749.5469 737.7344,1749.5469 C737.5156,1749.5469 737.3125,1749.625 737.125,1749.8125 C736.6719,1750.2969 736.6719,1750.2969 736.4844,1750.3906 C736.0625,1750.6563 735.375,1750.7813 734.6094,1750.7813 C732.5625,1750.7813 731.2656,1749.6875 731.2656,1747.9844 L731.2656,1746.8906 C731.2656,1745.1094 732.5156,1743.7969 734.25,1743.7969 C734.8281,1743.7969 735.4375,1743.9531 735.9063,1744.2031 C736.3906,1744.4844 736.5625,1744.7031 736.6563,1745.1094 C736.7188,1745.5156 736.75,1745.6406 736.8906,1745.7656 C737.0313,1745.9063 737.2656,1746.0156 737.4844,1746.0156 C737.75,1746.0156 738.0156,1745.875 738.1875,1745.6563 C738.2969,1745.5 738.3281,1745.3125 738.3281,1744.8906 L738.3281,1743.4688 C738.3281,1743.0313 738.3125,1742.9063 738.2188,1742.75 C738.0625,1742.4844 737.7813,1742.3438 737.4844,1742.3438 C737.1875,1742.3438 736.9844,1742.4375 736.7656,1742.75 L736.5938,1742.6719 Z " fill="#000000"/><text fill="#000000" font-family="sans-serif" font-size="14" lengthAdjust="spacing" textLength="49" x="754.75" y="1751.8467">Corner</text><line style="stroke:#181818;stroke-width:0.5;" x1="635.5" x2="890.5" y1="1763" y2="1763"/><rect fill="none" height="6" style="stroke:#C82930;stroke-width:1.0;" width="6" x="642.5" y="1773.6484"/><text fill="#000000" font-family="sans-serif" font-size="14" lengthAdjust="spacing" textLength="133" x="654.5" y="1779.9951">boolean isCovered</text><rect fill="none" height="6" style="stroke:#C82930;stroke-width:1.0;" width="6" x="642.5" y="1789.9453"/><text fill="#000000" font-family="sans-serif" font-size="14" lengthAdjust="spacing" textLength="194" x="654.5" y="1796.292">GameItemEnum gameItem</text><line style="stroke:#181818;stroke-width:0.5;" x1="635.5" x2="890.5" y1="1803.5938" y2="1803.5938"/><ellipse cx="645.5" cy="1817.2422" fill="#84BE84" rx="3" ry="3" style="stroke:#038048;stroke-width:1.0;"/><text fill="#000000" font-family="sans-serif" font-size="14" lengthAdjust="spacing" textLength="231" x="654.5" y="1820.5889">GameItemEnum getGameItem()</text><ellipse cx="645.5" cy="1833.5391" fill="#84BE84" rx="3" ry="3" style="stroke:#038048;stroke-width:1.0;"/><text fill="#000000" font-family="sans-serif" font-size="14" lengthAdjust="spacing" textLength="213" x="654.5" y="1836.8857">GameItemEnum setCovered()</text><ellipse cx="645.5" cy="1849.8359" fill="#84BE84" rx="3" ry="3" style="stroke:#038048;stroke-width:1.0;"/><text fill="#000000" font-family="sans-serif" font-size="14" lengthAdjust="spacing" textLength="131" x="654.5" y="1853.1826">Boolean isEmpty()</text></g><g id="elem_GMN32"><path d="M440.5,1933 L440.5,1988.3984 A0,0 0 0 0 440.5,1988.3984 L1085.5,1988.3984 A0,0 0 0 0 1085.5,1988.3984 L1085.5,1943 L1075.5,1933 L767,1933 L763,1860.454 L759,1933 L440.5,1933 A0,0 0 0 0 440.5,1933 " fill="#FEFFDD" style="stroke:#181818;stroke-width:0.5;"/><path d="M1075.5,1933 L1075.5,1943 L1085.5,1943 L1075.5,1933 " fill="#FEFFDD" style="stroke:#181818;stroke-width:0.5;"/><text fill="#000000" font-family="sans-serif" font-size="13" lengthAdjust="spacing" textLength="514" x="446.5" y="1950.0669">Nel caso in cui un Corner &#232; vuoto, allora risulter&#224; avere GameItemEnum = NONE</text><text fill="#000000" font-family="sans-serif" font-size="13" lengthAdjust="spacing" textLength="420" x="446.5" y="1965.1997">Se invece il Corner non esiste, il getter restituir&#224; Optional.empty()</text><text fill="#000000" font-family="sans-serif" font-size="13" lengthAdjust="spacing" textLength="624" x="446.5" y="1980.3325">Se la carta &#232; piazzata, significa che non devo preoccuparmi di accesso a Corner Optional.empty()</text></g><!--class FrontGoldCard--><g id="elem_FrontGoldCard"><rect codeLine="187" fill="#F1F1F1" height="80.5938" id="FrontGoldCard" rx="2.5" ry="2.5" style="stroke:#181818;stroke-width:0.5;" width="241" x="119.5" y="1920"/><ellipse cx="183.25" cy="1936" fill="#ADD1B2" rx="11" ry="11" style="stroke:#181818;stroke-width:1.0;"/><path d="M185.5938,1931.6719 C184.6563,1931.2344 184.0625,1931.0938 183.1875,1931.0938 C180.5625,1931.0938 178.5625,1933.1719 178.5625,1935.8906 L178.5625,1937.0156 C178.5625,1939.5938 180.6719,1941.4844 183.5625,1941.4844 C184.7813,1941.4844 185.9375,1941.1875 186.6875,1940.6406 C187.2656,1940.2344 187.5938,1939.7813 187.5938,1939.3906 C187.5938,1938.9375 187.2031,1938.5469 186.7344,1938.5469 C186.5156,1938.5469 186.3125,1938.625 186.125,1938.8125 C185.6719,1939.2969 185.6719,1939.2969 185.4844,1939.3906 C185.0625,1939.6563 184.375,1939.7813 183.6094,1939.7813 C181.5625,1939.7813 180.2656,1938.6875 180.2656,1936.9844 L180.2656,1935.8906 C180.2656,1934.1094 181.5156,1932.7969 183.25,1932.7969 C183.8281,1932.7969 184.4375,1932.9531 184.9063,1933.2031 C185.3906,1933.4844 185.5625,1933.7031 185.6563,1934.1094 C185.7188,1934.5156 185.75,1934.6406 185.8906,1934.7656 C186.0313,1934.9063 186.2656,1935.0156 186.4844,1935.0156 C186.75,1935.0156 187.0156,1934.875 187.1875,1934.6563 C187.2969,1934.5 187.3281,1934.3125 187.3281,1933.8906 L187.3281,1932.4688 C187.3281,1932.0313 187.3125,1931.9063 187.2188,1931.75 C187.0625,1931.4844 186.7813,1931.3438 186.4844,1931.3438 C186.1875,1931.3438 185.9844,1931.4375 185.7656,1931.75 L185.5938,1931.6719 Z " fill="#000000"/><text fill="#000000" font-family="sans-serif" font-size="14" lengthAdjust="spacing" textLength="105" x="203.75" y="1940.8467">FrontGoldCard</text><line style="stroke:#181818;stroke-width:0.5;" x1="120.5" x2="359.5" y1="1952" y2="1952"/><polygon fill="none" points="130.5,1960.6484,134.5,1964.6484,130.5,1968.6484,126.5,1964.6484" style="stroke:#B38D22;stroke-width:1.0;"/><text fill="#000000" font-family="sans-serif" font-size="14" lengthAdjust="spacing" textLength="215" x="139.5" y="1968.9951">GameItemStore neededItems</text><line style="stroke:#181818;stroke-width:0.5;" x1="120.5" x2="359.5" y1="1976.2969" y2="1976.2969"/><ellipse cx="130.5" cy="1989.9453" fill="#84BE84" rx="3" ry="3" style="stroke:#038048;stroke-width:1.0;"/><text fill="#000000" font-family="sans-serif" font-size="14" lengthAdjust="spacing" textLength="164" x="139.5" y="1993.292">getNeededItemStore()</text></g><!--class FrontPositionalGoldCard--><g id="elem_FrontPositionalGoldCard"><rect codeLine="196" fill="#F1F1F1" height="64.2969" id="FrontPositionalGoldCard" rx="2.5" ry="2.5" style="stroke:#181818;stroke-width:0.5;" width="216" x="7" y="2069.5"/><ellipse cx="26.05" cy="2085.5" fill="#ADD1B2" rx="11" ry="11" style="stroke:#181818;stroke-width:1.0;"/><path d="M28.3938,2081.1719 C27.4563,2080.7344 26.8625,2080.5938 25.9875,2080.5938 C23.3625,2080.5938 21.3625,2082.6719 21.3625,2085.3906 L21.3625,2086.5156 C21.3625,2089.0938 23.4719,2090.9844 26.3625,2090.9844 C27.5813,2090.9844 28.7375,2090.6875 29.4875,2090.1406 C30.0656,2089.7344 30.3938,2089.2813 30.3938,2088.8906 C30.3938,2088.4375 30.0031,2088.0469 29.5344,2088.0469 C29.3156,2088.0469 29.1125,2088.125 28.925,2088.3125 C28.4719,2088.7969 28.4719,2088.7969 28.2844,2088.8906 C27.8625,2089.1563 27.175,2089.2813 26.4094,2089.2813 C24.3625,2089.2813 23.0656,2088.1875 23.0656,2086.4844 L23.0656,2085.3906 C23.0656,2083.6094 24.3156,2082.2969 26.05,2082.2969 C26.6281,2082.2969 27.2375,2082.4531 27.7063,2082.7031 C28.1906,2082.9844 28.3625,2083.2031 28.4563,2083.6094 C28.5188,2084.0156 28.55,2084.1406 28.6906,2084.2656 C28.8313,2084.4063 29.0656,2084.5156 29.2844,2084.5156 C29.55,2084.5156 29.8156,2084.375 29.9875,2084.1563 C30.0969,2084 30.1281,2083.8125 30.1281,2083.3906 L30.1281,2081.9688 C30.1281,2081.5313 30.1125,2081.4063 30.0188,2081.25 C29.8625,2080.9844 29.5813,2080.8438 29.2844,2080.8438 C28.9875,2080.8438 28.7844,2080.9375 28.5656,2081.25 L28.3938,2081.1719 Z " fill="#000000"/><text fill="#000000" font-family="sans-serif" font-size="14" lengthAdjust="spacing" textLength="175" x="40.95" y="2090.3467">FrontPositionalGoldCard</text><line style="stroke:#181818;stroke-width:0.5;" x1="8" x2="222" y1="2101.5" y2="2101.5"/><line style="stroke:#181818;stroke-width:0.5;" x1="8" x2="222" y1="2109.5" y2="2109.5"/><ellipse cx="18" cy="2123.1484" fill="#84BE84" rx="3" ry="3" style="stroke:#038048;stroke-width:1.0;"/><text fill="#000000" font-family="sans-serif" font-size="14" lengthAdjust="spacing" textLength="190" x="27" y="2126.4951">int getPoints(PlayerBoard)</text></g><!--class FrontItemGoldCard--><g id="elem_FrontItemGoldCard"><rect codeLine="202" fill="#F1F1F1" height="80.5938" id="FrontItemGoldCard" rx="2.5" ry="2.5" style="stroke:#181818;stroke-width:0.5;" width="216" x="258" y="2061"/><ellipse cx="293.25" cy="2077" fill="#ADD1B2" rx="11" ry="11" style="stroke:#181818;stroke-width:1.0;"/><path d="M295.5938,2072.6719 C294.6563,2072.2344 294.0625,2072.0938 293.1875,2072.0938 C290.5625,2072.0938 288.5625,2074.1719 288.5625,2076.8906 L288.5625,2078.0156 C288.5625,2080.5938 290.6719,2082.4844 293.5625,2082.4844 C294.7813,2082.4844 295.9375,2082.1875 296.6875,2081.6406 C297.2656,2081.2344 297.5938,2080.7813 297.5938,2080.3906 C297.5938,2079.9375 297.2031,2079.5469 296.7344,2079.5469 C296.5156,2079.5469 296.3125,2079.625 296.125,2079.8125 C295.6719,2080.2969 295.6719,2080.2969 295.4844,2080.3906 C295.0625,2080.6563 294.375,2080.7813 293.6094,2080.7813 C291.5625,2080.7813 290.2656,2079.6875 290.2656,2077.9844 L290.2656,2076.8906 C290.2656,2075.1094 291.5156,2073.7969 293.25,2073.7969 C293.8281,2073.7969 294.4375,2073.9531 294.9063,2074.2031 C295.3906,2074.4844 295.5625,2074.7031 295.6563,2075.1094 C295.7188,2075.5156 295.75,2075.6406 295.8906,2075.7656 C296.0313,2075.9063 296.2656,2076.0156 296.4844,2076.0156 C296.75,2076.0156 297.0156,2075.875 297.1875,2075.6563 C297.2969,2075.5 297.3281,2075.3125 297.3281,2074.8906 L297.3281,2073.4688 C297.3281,2073.0313 297.3125,2072.9063 297.2188,2072.75 C297.0625,2072.4844 296.7813,2072.3438 296.4844,2072.3438 C296.1875,2072.3438 295.9844,2072.4375 295.7656,2072.75 L295.5938,2072.6719 Z " fill="#000000"/><text fill="#000000" font-family="sans-serif" font-size="14" lengthAdjust="spacing" textLength="139" x="311.75" y="2081.8467">FrontItemGoldCard</text><line style="stroke:#181818;stroke-width:0.5;" x1="259" x2="473" y1="2093" y2="2093"/><rect fill="none" height="6" style="stroke:#C82930;stroke-width:1.0;" width="6" x="266" y="2103.6484"/><text fill="#000000" font-family="sans-serif" font-size="14" lengthAdjust="spacing" textLength="190" x="278" y="2109.9951">GameItemEnum multiplier</text><line style="stroke:#181818;stroke-width:0.5;" x1="259" x2="473" y1="2117.2969" y2="2117.2969"/><ellipse cx="269" cy="2130.9453" fill="#84BE84" rx="3" ry="3" style="stroke:#038048;stroke-width:1.0;"/><text fill="#000000" font-family="sans-serif" font-size="14" lengthAdjust="spacing" textLength="190" x="278" y="2134.292">int getPoints(PlayerBoard)</text></g><!--class ObjectiveCard--><g id="elem_ObjectiveCard"><rect codeLine="217" fill="#F1F1F1" height="80.5938" id="ObjectiveCard" rx="2.5" ry="2.5" style="stroke:#181818;stroke-width:0.5;" width="216" x="1386" y="1007.5"/><ellipse cx="1439.25" cy="1023.5" fill="#A9DCDF" rx="11" ry="11" style="stroke:#181818;stroke-width:1.0;"/><path d="M1441.3281,1025.3125 L1441.7188,1026.2969 L1441.3281,1026.2969 C1440.875,1026.2969 1440.7656,1026.3125 1440.6094,1026.4219 C1440.3594,1026.5781 1440.2031,1026.8594 1440.2031,1027.1563 C1440.2031,1027.4219 1440.3438,1027.6719 1440.5625,1027.8281 C1440.7031,1027.9531 1440.9063,1028 1441.3281,1028 L1443.6875,1028 C1444.0469,1028 1444.2656,1027.9688 1444.4063,1027.875 C1444.6563,1027.7344 1444.8125,1027.4375 1444.8125,1027.1563 C1444.8125,1026.875 1444.6719,1026.625 1444.4531,1026.4688 C1444.2813,1026.3281 1444.125,1026.2969 1443.6563,1026.2969 L1440.2656,1018.0938 L1436.5938,1018.0938 C1436.1406,1018.0938 1436.0156,1018.1094 1435.8594,1018.2031 C1435.6094,1018.375 1435.4531,1018.6563 1435.4531,1018.9375 C1435.4531,1019.2188 1435.5938,1019.4688 1435.8125,1019.6406 C1435.9844,1019.75 1436.1563,1019.7813 1436.5938,1019.7813 L1437.6719,1019.7813 L1435.0313,1026.2969 C1434.6094,1026.2969 1434.4531,1026.3125 1434.2969,1026.4219 C1434.0469,1026.5781 1433.8906,1026.8594 1433.8906,1027.1563 C1433.8906,1027.7188 1434.2656,1028 1435.0156,1028 L1437.2813,1028 C1437.6406,1028 1437.8594,1027.9688 1437.9844,1027.875 C1438.25,1027.7344 1438.3906,1027.4375 1438.3906,1027.1563 C1438.3906,1026.875 1438.2656,1026.625 1438.0469,1026.4531 C1437.875,1026.3281 1437.7344,1026.2969 1437.2813,1026.2969 L1436.8906,1026.2969 L1437.2813,1025.3125 L1441.3281,1025.3125 Z M1440.625,1023.6094 L1437.9531,1023.6094 L1439.2969,1020.3438 L1440.625,1023.6094 Z " fill="#000000"/><text fill="#000000" font-family="sans-serif" font-size="14" font-style="italic" lengthAdjust="spacing" textLength="101" x="1459.75" y="1028.3467">ObjectiveCard</text><line style="stroke:#181818;stroke-width:0.5;" x1="1387" x2="1601" y1="1039.5" y2="1039.5"/><polygon fill="none" points="1397,1048.1484,1401,1052.1484,1397,1056.1484,1393,1052.1484" style="stroke:#B38D22;stroke-width:1.0;"/><text fill="#000000" font-family="sans-serif" font-size="14" lengthAdjust="spacing" textLength="135" x="1406" y="1056.4951">Integer pointsWon</text><line style="stroke:#181818;stroke-width:0.5;" x1="1387" x2="1601" y1="1063.7969" y2="1063.7969"/><ellipse cx="1397" cy="1077.4453" fill="#84BE84" rx="3" ry="3" style="stroke:#038048;stroke-width:1.0;"/><text fill="#000000" font-family="sans-serif" font-size="14" lengthAdjust="spacing" textLength="190" x="1406" y="1080.792">int getPoints(PlayerBoard)</text></g><!--class PositionalObjectiveCard--><g id="elem_PositionalObjectiveCard"><rect codeLine="245" fill="#F1F1F1" height="80.5938" id="PositionalObjectiveCard" rx="2.5" ry="2.5" style="stroke:#181818;stroke-width:0.5;" width="325" x="1205.5" y="1262"/><ellipse cx="1277.25" cy="1278" fill="#ADD1B2" rx="11" ry="11" style="stroke:#181818;stroke-width:1.0;"/><path d="M1279.5938,1273.6719 C1278.6563,1273.2344 1278.0625,1273.0938 1277.1875,1273.0938 C1274.5625,1273.0938 1272.5625,1275.1719 1272.5625,1277.8906 L1272.5625,1279.0156 C1272.5625,1281.5938 1274.6719,1283.4844 1277.5625,1283.4844 C1278.7813,1283.4844 1279.9375,1283.1875 1280.6875,1282.6406 C1281.2656,1282.2344 1281.5938,1281.7813 1281.5938,1281.3906 C1281.5938,1280.9375 1281.2031,1280.5469 1280.7344,1280.5469 C1280.5156,1280.5469 1280.3125,1280.625 1280.125,1280.8125 C1279.6719,1281.2969 1279.6719,1281.2969 1279.4844,1281.3906 C1279.0625,1281.6563 1278.375,1281.7813 1277.6094,1281.7813 C1275.5625,1281.7813 1274.2656,1280.6875 1274.2656,1278.9844 L1274.2656,1277.8906 C1274.2656,1276.1094 1275.5156,1274.7969 1277.25,1274.7969 C1277.8281,1274.7969 1278.4375,1274.9531 1278.9063,1275.2031 C1279.3906,1275.4844 1279.5625,1275.7031 1279.6563,1276.1094 C1279.7188,1276.5156 1279.75,1276.6406 1279.8906,1276.7656 C1280.0313,1276.9063 1280.2656,1277.0156 1280.4844,1277.0156 C1280.75,1277.0156 1281.0156,1276.875 1281.1875,1276.6563 C1281.2969,1276.5 1281.3281,1276.3125 1281.3281,1275.8906 L1281.3281,1274.4688 C1281.3281,1274.0313 1281.3125,1273.9063 1281.2188,1273.75 C1281.0625,1273.4844 1280.7813,1273.3438 1280.4844,1273.3438 C1280.1875,1273.3438 1279.9844,1273.4375 1279.7656,1273.75 L1279.5938,1273.6719 Z " fill="#000000"/><text fill="#000000" font-family="sans-serif" font-size="14" lengthAdjust="spacing" textLength="173" x="1297.75" y="1282.8467">PositionalObjectiveCard</text><line style="stroke:#181818;stroke-width:0.5;" x1="1206.5" x2="1529.5" y1="1294" y2="1294"/><rect fill="none" height="6" style="stroke:#C82930;stroke-width:1.0;" width="6" x="1213.5" y="1304.6484"/><text fill="#000000" font-family="sans-serif" font-size="14" lengthAdjust="spacing" textLength="299" x="1225.5" y="1310.9951">ArrayList&lt;PositionalData&gt; positionalData</text><line style="stroke:#181818;stroke-width:0.5;" x1="1206.5" x2="1529.5" y1="1318.2969" y2="1318.2969"/><ellipse cx="1216.5" cy="1331.9453" fill="#84BE84" rx="3" ry="3" style="stroke:#038048;stroke-width:1.0;"/><text fill="#000000" font-family="sans-serif" font-size="14" lengthAdjust="spacing" textLength="190" x="1225.5" y="1335.292">int getPoints(PlayerBoard)</text></g><!--class ItemObjectiveCard--><g id="elem_ItemObjectiveCard"><rect codeLine="227" fill="#F1F1F1" height="80.5938" id="ItemObjectiveCard" rx="2.5" ry="2.5" style="stroke:#181818;stroke-width:0.5;" width="216" x="1566" y="1262"/><ellipse cx="1602.15" cy="1278" fill="#ADD1B2" rx="11" ry="11" style="stroke:#181818;stroke-width:1.0;"/><path d="M1604.4938,1273.6719 C1603.5563,1273.2344 1602.9625,1273.0938 1602.0875,1273.0938 C1599.4625,1273.0938 1597.4625,1275.1719 1597.4625,1277.8906 L1597.4625,1279.0156 C1597.4625,1281.5938 1599.5719,1283.4844 1602.4625,1283.4844 C1603.6813,1283.4844 1604.8375,1283.1875 1605.5875,1282.6406 C1606.1656,1282.2344 1606.4938,1281.7813 1606.4938,1281.3906 C1606.4938,1280.9375 1606.1031,1280.5469 1605.6344,1280.5469 C1605.4156,1280.5469 1605.2125,1280.625 1605.025,1280.8125 C1604.5719,1281.2969 1604.5719,1281.2969 1604.3844,1281.3906 C1603.9625,1281.6563 1603.275,1281.7813 1602.5094,1281.7813 C1600.4625,1281.7813 1599.1656,1280.6875 1599.1656,1278.9844 L1599.1656,1277.8906 C1599.1656,1276.1094 1600.4156,1274.7969 1602.15,1274.7969 C1602.7281,1274.7969 1603.3375,1274.9531 1603.8063,1275.2031 C1604.2906,1275.4844 1604.4625,1275.7031 1604.5563,1276.1094 C1604.6188,1276.5156 1604.65,1276.6406 1604.7906,1276.7656 C1604.9313,1276.9063 1605.1656,1277.0156 1605.3844,1277.0156 C1605.65,1277.0156 1605.9156,1276.875 1606.0875,1276.6563 C1606.1969,1276.5 1606.2281,1276.3125 1606.2281,1275.8906 L1606.2281,1274.4688 C1606.2281,1274.0313 1606.2125,1273.9063 1606.1188,1273.75 C1605.9625,1273.4844 1605.6813,1273.3438 1605.3844,1273.3438 C1605.0875,1273.3438 1604.8844,1273.4375 1604.6656,1273.75 L1604.4938,1273.6719 Z " fill="#000000"/><text fill="#000000" font-family="sans-serif" font-size="14" lengthAdjust="spacing" textLength="137" x="1620.85" y="1282.8467">ItemObjectiveCard</text><line style="stroke:#181818;stroke-width:0.5;" x1="1567" x2="1781" y1="1294" y2="1294"/><rect fill="none" height="6" style="stroke:#C82930;stroke-width:1.0;" width="6" x="1574" y="1304.6484"/><text fill="#000000" font-family="sans-serif" font-size="14" lengthAdjust="spacing" textLength="190" x="1586" y="1310.9951">GameItemStore multiplier</text><line style="stroke:#181818;stroke-width:0.5;" x1="1567" x2="1781" y1="1318.2969" y2="1318.2969"/><ellipse cx="1577" cy="1331.9453" fill="#84BE84" rx="3" ry="3" style="stroke:#038048;stroke-width:1.0;"/><text fill="#000000" font-family="sans-serif" font-size="14" lengthAdjust="spacing" textLength="190" x="1586" y="1335.292">int getPoints(PlayerBoard)</text></g><!--class PositionalData--><g id="elem_PositionalData"><rect codeLine="234" fill="#F1F1F1" height="162.0781" id="PositionalData" rx="2.5" ry="2.5" style="stroke:#181818;stroke-width:0.5;" width="257" x="1239.5" y="1492.5"/><ellipse cx="1311.75" cy="1508.5" fill="#ADD1B2" rx="11" ry="11" style="stroke:#181818;stroke-width:1.0;"/><path d="M1314.0938,1504.1719 C1313.1563,1503.7344 1312.5625,1503.5938 1311.6875,1503.5938 C1309.0625,1503.5938 1307.0625,1505.6719 1307.0625,1508.3906 L1307.0625,1509.5156 C1307.0625,1512.0938 1309.1719,1513.9844 1312.0625,1513.9844 C1313.2813,1513.9844 1314.4375,1513.6875 1315.1875,1513.1406 C1315.7656,1512.7344 1316.0938,1512.2813 1316.0938,1511.8906 C1316.0938,1511.4375 1315.7031,1511.0469 1315.2344,1511.0469 C1315.0156,1511.0469 1314.8125,1511.125 1314.625,1511.3125 C1314.1719,1511.7969 1314.1719,1511.7969 1313.9844,1511.8906 C1313.5625,1512.1563 1312.875,1512.2813 1312.1094,1512.2813 C1310.0625,1512.2813 1308.7656,1511.1875 1308.7656,1509.4844 L1308.7656,1508.3906 C1308.7656,1506.6094 1310.0156,1505.2969 1311.75,1505.2969 C1312.3281,1505.2969 1312.9375,1505.4531 1313.4063,1505.7031 C1313.8906,1505.9844 1314.0625,1506.2031 1314.1563,1506.6094 C1314.2188,1507.0156 1314.25,1507.1406 1314.3906,1507.2656 C1314.5313,1507.4063 1314.7656,1507.5156 1314.9844,1507.5156 C1315.25,1507.5156 1315.5156,1507.375 1315.6875,1507.1563 C1315.7969,1507 1315.8281,1506.8125 1315.8281,1506.3906 L1315.8281,1504.9688 C1315.8281,1504.5313 1315.8125,1504.4063 1315.7188,1504.25 C1315.5625,1503.9844 1315.2813,1503.8438 1314.9844,1503.8438 C1314.6875,1503.8438 1314.4844,1503.9375 1314.2656,1504.25 L1314.0938,1504.1719 Z " fill="#000000"/><text fill="#000000" font-family="sans-serif" font-size="14" lengthAdjust="spacing" textLength="104" x="1332.25" y="1513.3467">PositionalData</text><line style="stroke:#181818;stroke-width:0.5;" x1="1240.5" x2="1495.5" y1="1524.5" y2="1524.5"/><rect fill="none" height="6" style="stroke:#C82930;stroke-width:1.0;" width="6" x="1247.5" y="1535.1484"/><text fill="#000000" font-family="sans-serif" font-size="14" lengthAdjust="spacing" textLength="81" x="1259.5" y="1541.4951">Point point</text><rect fill="none" height="6" style="stroke:#C82930;stroke-width:1.0;" width="6" x="1247.5" y="1551.4453"/><text fill="#000000" font-family="sans-serif" font-size="14" lengthAdjust="spacing" textLength="144" x="1259.5" y="1557.792">CardColor cardColor</text><line style="stroke:#181818;stroke-width:0.5;" x1="1240.5" x2="1495.5" y1="1565.0938" y2="1565.0938"/><ellipse cx="1250.5" cy="1578.7422" fill="#84BE84" rx="3" ry="3" style="stroke:#038048;stroke-width:1.0;"/><text fill="#000000" font-family="sans-serif" font-size="14" lengthAdjust="spacing" textLength="115" x="1259.5" y="1582.0889">Point getPoint()</text><ellipse cx="1250.5" cy="1595.0391" fill="#84BE84" rx="3" ry="3" style="stroke:#038048;stroke-width:1.0;"/><text fill="#000000" font-family="sans-serif" font-size="14" lengthAdjust="spacing" textLength="181" x="1259.5" y="1598.3857">CardColor getCardColor()</text><ellipse cx="1250.5" cy="1611.3359" fill="#84BE84" rx="3" ry="3" style="stroke:#038048;stroke-width:1.0;"/><text fill="#000000" font-family="sans-serif" font-size="14" lengthAdjust="spacing" textLength="231" x="1259.5" y="1614.6826">GameItemEnum getGameItem()</text><ellipse cx="1250.5" cy="1627.6328" fill="#84BE84" rx="3" ry="3" style="stroke:#038048;stroke-width:1.0;"/><text fill="#000000" font-family="sans-serif" font-size="14" lengthAdjust="spacing" textLength="129" x="1259.5" y="1630.9795">void setPoint(x, y)</text><ellipse cx="1250.5" cy="1643.9297" fill="#84BE84" rx="3" ry="3" style="stroke:#038048;stroke-width:1.0;"/><text fill="#000000" font-family="sans-serif" font-size="14" lengthAdjust="spacing" textLength="209" x="1259.5" y="1647.2764">void setCardColor(CardColor)</text></g><!--class CornerPosition--><g id="elem_CornerPosition"><rect codeLine="252" fill="#F1F1F1" height="113.1875" id="CornerPosition" rx="2.5" ry="2.5" style="stroke:#181818;stroke-width:0.5;" width="139" x="1677.5" y="48"/><ellipse cx="1692.5" cy="64" fill="#EB937F" rx="11" ry="11" style="stroke:#181818;stroke-width:1.0;"/><path d="M1691.2969,64.875 L1692.75,64.875 L1692.75,64.9844 C1692.75,65.3906 1692.7813,65.5469 1692.8594,65.7031 C1693.0156,65.9531 1693.2969,66.1094 1693.5938,66.1094 C1693.8438,66.1094 1694.1094,65.9688 1694.2656,65.75 C1694.3906,65.5938 1694.4219,65.4375 1694.4219,64.9844 L1694.4219,63.0625 C1694.4219,62.9063 1694.4219,62.8594 1694.4063,62.7031 C1694.3438,62.2344 1694.0313,61.9219 1693.5781,61.9219 C1693.3281,61.9219 1693.0625,62.0625 1692.8906,62.2813 C1692.7813,62.4531 1692.75,62.6094 1692.75,63.0625 L1692.75,63.1875 L1691.2969,63.1875 L1691.2969,60.7813 L1695.2813,60.7813 L1695.2813,61.6406 C1695.2813,62.0469 1695.3125,62.2188 1695.3906,62.375 C1695.5625,62.625 1695.8438,62.7813 1696.125,62.7813 C1696.3906,62.7813 1696.6563,62.6406 1696.8281,62.4219 C1696.9375,62.25 1696.9688,62.1094 1696.9688,61.6406 L1696.9688,59.0938 L1689.3438,59.0938 C1688.9063,59.0938 1688.7813,59.1094 1688.625,59.2031 C1688.375,59.3594 1688.2188,59.6563 1688.2188,59.9375 C1688.2188,60.2188 1688.3594,60.4688 1688.5781,60.6406 C1688.7344,60.75 1688.9219,60.7813 1689.3438,60.7813 L1689.5938,60.7813 L1689.5938,67.2969 L1689.3438,67.2969 C1688.9375,67.2969 1688.7813,67.3125 1688.625,67.4219 C1688.375,67.5938 1688.2188,67.8594 1688.2188,68.1563 C1688.2188,68.4219 1688.3594,68.6719 1688.5781,68.8281 C1688.7188,68.9531 1688.9531,69 1689.3438,69 L1697.3438,69 L1697.3438,66.4219 C1697.3438,65.9844 1697.3125,65.8438 1697.2344,65.6875 C1697.0625,65.4375 1696.7813,65.2813 1696.5,65.2813 C1696.2344,65.2813 1695.9688,65.3906 1695.7969,65.6406 C1695.6875,65.7969 1695.6563,65.9375 1695.6563,66.4219 L1695.6563,67.2969 L1691.2969,67.2969 L1691.2969,64.875 Z " fill="#000000"/><text fill="#000000" font-family="sans-serif" font-size="14" lengthAdjust="spacing" textLength="107" x="1706.5" y="68.8467">CornerPosition</text><line style="stroke:#181818;stroke-width:0.5;" x1="1678.5" x2="1815.5" y1="80" y2="80"/><text fill="#000000" font-family="sans-serif" font-size="14" lengthAdjust="spacing" textLength="80" x="1683.5" y="96.9951">TOP_RIGHT</text><text fill="#000000" font-family="sans-serif" font-size="14" lengthAdjust="spacing" textLength="70" x="1683.5" y="113.292">TOP_LEFT</text><text fill="#000000" font-family="sans-serif" font-size="14" lengthAdjust="spacing" textLength="103" x="1683.5" y="129.5889">BOTTOM_LEFT</text><text fill="#000000" font-family="sans-serif" font-size="14" lengthAdjust="spacing" textLength="113" x="1683.5" y="145.8857">BOTTOM_RIGHT</text><line style="stroke:#181818;stroke-width:0.5;" x1="1678.5" x2="1815.5" y1="153.1875" y2="153.1875"/></g><!--class GameItemEnum--><g id="elem_GameItemEnum"><rect codeLine="259" fill="#F1F1F1" height="178.375" id="GameItemEnum" rx="2.5" ry="2.5" style="stroke:#181818;stroke-width:0.5;" width="148" x="1852" y="15.5"/><ellipse cx="1867" cy="31.5" fill="#EB937F" rx="11" ry="11" style="stroke:#181818;stroke-width:1.0;"/><path d="M1865.7969,32.375 L1867.25,32.375 L1867.25,32.4844 C1867.25,32.8906 1867.2813,33.0469 1867.3594,33.2031 C1867.5156,33.4531 1867.7969,33.6094 1868.0938,33.6094 C1868.3438,33.6094 1868.6094,33.4688 1868.7656,33.25 C1868.8906,33.0938 1868.9219,32.9375 1868.9219,32.4844 L1868.9219,30.5625 C1868.9219,30.4063 1868.9219,30.3594 1868.9063,30.2031 C1868.8438,29.7344 1868.5313,29.4219 1868.0781,29.4219 C1867.8281,29.4219 1867.5625,29.5625 1867.3906,29.7813 C1867.2813,29.9531 1867.25,30.1094 1867.25,30.5625 L1867.25,30.6875 L1865.7969,30.6875 L1865.7969,28.2813 L1869.7813,28.2813 L1869.7813,29.1406 C1869.7813,29.5469 1869.8125,29.7188 1869.8906,29.875 C1870.0625,30.125 1870.3438,30.2813 1870.625,30.2813 C1870.8906,30.2813 1871.1563,30.1406 1871.3281,29.9219 C1871.4375,29.75 1871.4688,29.6094 1871.4688,29.1406 L1871.4688,26.5938 L1863.8438,26.5938 C1863.4063,26.5938 1863.2813,26.6094 1863.125,26.7031 C1862.875,26.8594 1862.7188,27.1563 1862.7188,27.4375 C1862.7188,27.7188 1862.8594,27.9688 1863.0781,28.1406 C1863.2344,28.25 1863.4219,28.2813 1863.8438,28.2813 L1864.0938,28.2813 L1864.0938,34.7969 L1863.8438,34.7969 C1863.4375,34.7969 1863.2813,34.8125 1863.125,34.9219 C1862.875,35.0938 1862.7188,35.3594 1862.7188,35.6563 C1862.7188,35.9219 1862.8594,36.1719 1863.0781,36.3281 C1863.2188,36.4531 1863.4531,36.5 1863.8438,36.5 L1871.8438,36.5 L1871.8438,33.9219 C1871.8438,33.4844 1871.8125,33.3438 1871.7344,33.1875 C1871.5625,32.9375 1871.2813,32.7813 1871,32.7813 C1870.7344,32.7813 1870.4688,32.8906 1870.2969,33.1406 C1870.1875,33.2969 1870.1563,33.4375 1870.1563,33.9219 L1870.1563,34.7969 L1865.7969,34.7969 L1865.7969,32.375 Z " fill="#000000"/><text fill="#000000" font-family="sans-serif" font-size="14" lengthAdjust="spacing" textLength="116" x="1881" y="36.3467">GameItemEnum</text><line style="stroke:#181818;stroke-width:0.5;" x1="1853" x2="1999" y1="47.5" y2="47.5"/><text fill="#000000" font-family="sans-serif" font-size="14" lengthAdjust="spacing" textLength="46" x="1858" y="64.4951">PLANT</text><text fill="#000000" font-family="sans-serif" font-size="14" lengthAdjust="spacing" textLength="54" x="1858" y="80.792">ANIMAL</text><text fill="#000000" font-family="sans-serif" font-size="14" lengthAdjust="spacing" textLength="42" x="1858" y="97.0889">FUNGI</text><text fill="#000000" font-family="sans-serif" font-size="14" lengthAdjust="spacing" textLength="51" x="1858" y="113.3857">INSECT</text><text fill="#000000" font-family="sans-serif" font-size="14" lengthAdjust="spacing" textLength="40" x="1858" y="129.6826">QUILL</text><text fill="#000000" font-family="sans-serif" font-size="14" lengthAdjust="spacing" textLength="63" x="1858" y="145.9795">INKWELL</text><text fill="#000000" font-family="sans-serif" font-size="14" lengthAdjust="spacing" textLength="92" x="1858" y="162.2764">MANUSCRIPT</text><text fill="#000000" font-family="sans-serif" font-size="14" lengthAdjust="spacing" textLength="40" x="1858" y="178.5732">NONE</text><line style="stroke:#181818;stroke-width:0.5;" x1="1853" x2="1999" y1="185.875" y2="185.875"/></g><!--class CardColor--><g id="elem_CardColor"><rect codeLine="270" fill="#F1F1F1" height="129.4844" id="CardColor" rx="2.5" ry="2.5" style="stroke:#181818;stroke-width:0.5;" width="103" x="1695.5" y="327.5"/><ellipse cx="1710.5" cy="343.5" fill="#EB937F" rx="11" ry="11" style="stroke:#181818;stroke-width:1.0;"/><path d="M1709.2969,344.375 L1710.75,344.375 L1710.75,344.4844 C1710.75,344.8906 1710.7813,345.0469 1710.8594,345.2031 C1711.0156,345.4531 1711.2969,345.6094 1711.5938,345.6094 C1711.8438,345.6094 1712.1094,345.4688 1712.2656,345.25 C1712.3906,345.0938 1712.4219,344.9375 1712.4219,344.4844 L1712.4219,342.5625 C1712.4219,342.4063 1712.4219,342.3594 1712.4063,342.2031 C1712.3438,341.7344 1712.0313,341.4219 1711.5781,341.4219 C1711.3281,341.4219 1711.0625,341.5625 1710.8906,341.7813 C1710.7813,341.9531 1710.75,342.1094 1710.75,342.5625 L1710.75,342.6875 L1709.2969,342.6875 L1709.2969,340.2813 L1713.2813,340.2813 L1713.2813,341.1406 C1713.2813,341.5469 1713.3125,341.7188 1713.3906,341.875 C1713.5625,342.125 1713.8438,342.2813 1714.125,342.2813 C1714.3906,342.2813 1714.6563,342.1406 1714.8281,341.9219 C1714.9375,341.75 1714.9688,341.6094 1714.9688,341.1406 L1714.9688,338.5938 L1707.3438,338.5938 C1706.9063,338.5938 1706.7813,338.6094 1706.625,338.7031 C1706.375,338.8594 1706.2188,339.1563 1706.2188,339.4375 C1706.2188,339.7188 1706.3594,339.9688 1706.5781,340.1406 C1706.7344,340.25 1706.9219,340.2813 1707.3438,340.2813 L1707.5938,340.2813 L1707.5938,346.7969 L1707.3438,346.7969 C1706.9375,346.7969 1706.7813,346.8125 1706.625,346.9219 C1706.375,347.0938 1706.2188,347.3594 1706.2188,347.6563 C1706.2188,347.9219 1706.3594,348.1719 1706.5781,348.3281 C1706.7188,348.4531 1706.9531,348.5 1707.3438,348.5 L1715.3438,348.5 L1715.3438,345.9219 C1715.3438,345.4844 1715.3125,345.3438 1715.2344,345.1875 C1715.0625,344.9375 1714.7813,344.7813 1714.5,344.7813 C1714.2344,344.7813 1713.9688,344.8906 1713.7969,345.1406 C1713.6875,345.2969 1713.6563,345.4375 1713.6563,345.9219 L1713.6563,346.7969 L1709.2969,346.7969 L1709.2969,344.375 Z " fill="#000000"/><text fill="#000000" font-family="sans-serif" font-size="14" lengthAdjust="spacing" textLength="71" x="1724.5" y="348.3467">CardColor</text><line style="stroke:#181818;stroke-width:0.5;" x1="1696.5" x2="1797.5" y1="359.5" y2="359.5"/><text fill="#000000" font-family="sans-serif" font-size="14" lengthAdjust="spacing" textLength="28" x="1701.5" y="376.4951">Red</text><text fill="#000000" font-family="sans-serif" font-size="14" lengthAdjust="spacing" textLength="31" x="1701.5" y="392.792">Blue</text><text fill="#000000" font-family="sans-serif" font-size="14" lengthAdjust="spacing" textLength="44" x="1701.5" y="409.0889">Green</text><text fill="#000000" font-family="sans-serif" font-size="14" lengthAdjust="spacing" textLength="46" x="1701.5" y="425.3857">Purple</text><text fill="#000000" font-family="sans-serif" font-size="14" lengthAdjust="spacing" textLength="52" x="1701.5" y="441.6826">Neutral</text><line style="stroke:#181818;stroke-width:0.5;" x1="1696.5" x2="1797.5" y1="448.9844" y2="448.9844"/></g><!--reverse link GameManager to Game--><g id="link_GameManager_Game"><path codeLine="12" d="M1375,214.16 C1375,233.33 1375,241.74 1375,261.79 " fill="none" id="GameManager-backto-Game" style="stroke:#181818;stroke-width:1.0;"/><polygon fill="#181818" points="1375,202.16,1371,208.16,1375,214.16,1379,208.16,1375,202.16" style="stroke:#181818;stroke-width:1.0;"/><text fill="#000000" font-family="sans-serif" font-size="13" lengthAdjust="spacing" textLength="25" x="1349.1211" y="221.6372">1..N</text><text fill="#000000" font-family="sans-serif" font-size="13" lengthAdjust="spacing" textLength="8" x="1366.7688" y="250.9034">1</text></g><!--reverse link Game to Player--><g id="link_Game_Player"><path codeLine="34" d="M1304.0444,532.7183 C1287.3844,565.5083 1274.99,589.93 1258.54,622.32 " fill="none" id="Game-backto-Player" style="stroke:#181818;stroke-width:1.0;"/><polygon fill="#181818" points="1309.48,522.02,1303.1961,525.5573,1304.0444,532.7183,1310.3283,529.181,1309.48,522.02" style="stroke:#181818;stroke-width:1.0;"/><text fill="#000000" font-family="sans-serif" font-size="13" lengthAdjust="spacing" textLength="24" x="1280.9984" y="542.0452">2..4</text><text fill="#000000" font-family="sans-serif" font-size="13" lengthAdjust="spacing" textLength="8" x="1254.0463" y="611.5019">1</text></g><!--reverse link Game to GlobalBoard--><g id="link_Game_GlobalBoard"><path codeLine="35" d="M1445.9566,532.7178 C1455.8766,552.2378 1460.77,561.88 1470.97,581.98 " fill="none" id="Game-backto-GlobalBoard" style="stroke:#181818;stroke-width:1.0;"/><polygon fill="#181818" points="1440.52,522.02,1439.6724,529.1811,1445.9566,532.7178,1446.8042,525.5567,1440.52,522.02" style="stroke:#181818;stroke-width:1.0;"/><text fill="#000000" font-family="sans-serif" font-size="13" lengthAdjust="spacing" textLength="8" x="1436.0766" y="542.0452">1</text><text fill="#000000" font-family="sans-serif" font-size="13" lengthAdjust="spacing" textLength="8" x="1458.8029" y="570.8136">1</text></g><!--reverse link GlobalBoard to Deck--><g id="link_GlobalBoard_Deck"><path codeLine="58" d="M1646.7333,917.8218 C1663.2233,948.1418 1673.65,967.31 1686.81,991.49 " fill="none" id="GlobalBoard-backto-Deck" style="stroke:#181818;stroke-width:1.0;"/><polygon fill="#181818" points="1641,907.28,1640.3527,914.462,1646.7333,917.8218,1647.3806,910.6398,1641,907.28" style="stroke:#181818;stroke-width:1.0;"/><text fill="#000000" font-family="sans-serif" font-size="13" lengthAdjust="spacing" textLength="8" x="1636.8063" y="927.0647">3</text><text fill="#000000" font-family="sans-serif" font-size="13" lengthAdjust="spacing" textLength="8" x="1674.4294" y="980.3521">1</text></g><!--reverse link Player to PlayerBoard--><g id="link_Player_PlayerBoard"><path codeLine="77" d="M1054.8936,856.2148 C1005.3336,894.8248 959.309,930.68 912.835,966.88 " fill="none" id="Player-backto-PlayerBoard" style="stroke:#181818;stroke-width:1.0;"/><polygon fill="#181818" points="1064.36,848.84,1057.1685,849.372,1054.8936,856.2148,1062.0851,855.6829,1064.36,848.84" style="stroke:#181818;stroke-width:1.0;"/><text fill="#000000" font-family="sans-serif" font-size="13" lengthAdjust="spacing" textLength="8" x="1048.4605" y="851.5219">1</text><text fill="#000000" font-family="sans-serif" font-size="13" lengthAdjust="spacing" textLength="8" x="913.6375" y="956.0566">1</text></g><!--reverse link Player to Hand--><g id="link_Player_Hand"><path codeLine="94" d="M1197,878.83 C1197,921.86 1197,956.23 1197,991.14 " fill="none" id="Player-backto-Hand" style="stroke:#181818;stroke-width:1.0;"/><polygon fill="#181818" points="1197,866.83,1193,872.83,1197,878.83,1201,872.83,1197,866.83" style="stroke:#181818;stroke-width:1.0;"/><text fill="#000000" font-family="sans-serif" font-size="13" lengthAdjust="spacing" textLength="8" x="1188.7813" y="886.0126">1</text><text fill="#000000" font-family="sans-serif" font-size="13" lengthAdjust="spacing" textLength="8" x="1188.5125" y="980.3597">1</text></g><!--reverse link PlayerBoard to GameCard--><g id="link_PlayerBoard_GameCard"><path codeLine="106" d="M705.4849,1136.9671 C682.9229,1155.9561 667.631,1168.827 643.717,1188.955 " fill="none" id="PlayerBoard-backto-GameCard" style="stroke:#181818;stroke-width:1.0;"/><polygon fill="#181818" points="714.666,1129.24,707.4998,1130.0432,705.4849,1136.9671,712.6512,1136.1639,714.666,1129.24" style="stroke:#181818;stroke-width:1.0;"/><text fill="#000000" font-family="sans-serif" font-size="13" lengthAdjust="spacing" textLength="25" x="680.062" y="1149.2127">1..N</text><text fill="#000000" font-family="sans-serif" font-size="13" lengthAdjust="spacing" textLength="8" x="644.4324" y="1177.8847">1</text></g><!--reverse link Store to GameItemStore--><g id="link_Store_GameItemStore"><path d="M886.3679,1393.4191 C893.3039,1443.8421 899.855,1491.471 905.532,1532.745 " fill="none" id="Store-backto-GameItemStore" style="stroke:#181818;stroke-width:1.0;"/><polygon fill="none" points="883.915,1375.587,880.4239,1394.2367,892.3119,1392.6014,883.915,1375.587" style="stroke:#181818;stroke-width:1.0;"/></g><!--reverse link PlayerBoard to Store--><g id="link_PlayerBoard_Store"><path codeLine="123" d="M833.2865,1140.8721 C841.4125,1172.9301 847.751,1197.941 855.666,1229.166 " fill="none" id="PlayerBoard-backto-Store" style="stroke:#181818;stroke-width:1.0;"/><polygon fill="#181818" points="830.338,1129.24,827.9349,1136.0389,833.2865,1140.8721,835.6896,1134.0732,830.338,1129.24" style="stroke:#181818;stroke-width:1.0;"/><text fill="#000000" font-family="sans-serif" font-size="13" lengthAdjust="spacing" textLength="8" x="823.7931" y="1149.2127">2</text><text fill="#000000" font-family="sans-serif" font-size="13" lengthAdjust="spacing" textLength="8" x="845.5373" y="1218.5452">1</text></g><!--reverse link GameCard to Side--><g id="link_GameCard_Side"><path codeLine="141" d="M501.2067,1427.9922 C499.8037,1447.8602 499.199,1456.415 497.83,1475.8 " fill="none" id="GameCard-backto-Side" style="stroke:#181818;stroke-width:1.0;"/><polygon fill="#181818" points="502.052,1416.022,497.6393,1421.7253,501.2067,1427.9922,505.6194,1422.2889,502.052,1416.022" style="stroke:#181818;stroke-width:1.0;"/><text fill="#000000" font-family="sans-serif" font-size="13" lengthAdjust="spacing" textLength="8" x="493.2492" y="1436.2156">2</text><text fill="#000000" font-family="sans-serif" font-size="13" lengthAdjust="spacing" textLength="8" x="490.0467" y="1464.8302">1</text></g><!--reverse link Side to Front--><g id="link_Side_Front"><path codeLine="155" d="M367.0059,1683.1799 C337.1509,1709.3489 319.678,1724.662 294.408,1746.811 " fill="none" id="Side-backto-Front" style="stroke:#181818;stroke-width:1.0;"/><polygon fill="none" points="380.542,1671.315,363.051,1678.6678,370.9609,1687.6919,380.542,1671.315" style="stroke:#181818;stroke-width:1.0;"/></g><!--reverse link Side to Back--><g id="link_Side_Back"><path codeLine="156" d="M491,1689.315 C491,1715.484 491,1724.662 491,1746.811 " fill="none" id="Side-backto-Back" style="stroke:#181818;stroke-width:1.0;"/><polygon fill="none" points="491,1671.315,485,1689.315,497,1689.315,491,1671.315" style="stroke:#181818;stroke-width:1.0;"/></g><!--reverse link Side to Corner--><g id="link_Side_Corner"><path codeLine="157" d="M620.0291,1678.8615 C644.9711,1699.0355 661.326,1712.264 684.331,1730.871 " fill="none" id="Side-backto-Corner" style="stroke:#181818;stroke-width:1.0;"/><polygon fill="#181818" points="610.699,1671.315,612.8485,1678.1983,620.0291,1678.8615,617.8795,1671.9782,610.699,1671.315" style="stroke:#181818;stroke-width:1.0;"/><text fill="#000000" font-family="sans-serif" font-size="13" lengthAdjust="spacing" textLength="24" x="594.2716" y="1690.8031">1..4</text><text fill="#000000" font-family="sans-serif" font-size="13" lengthAdjust="spacing" textLength="8" x="667.2891" y="1720.0296">1</text></g><!--reverse link Front to FrontGoldCard--><g id="link_Front_FrontGoldCard"><path codeLine="185" d="M240,1862.085 C240,1886.14 240,1896.994 240,1919.834 " fill="none" id="Front-backto-FrontGoldCard" style="stroke:#181818;stroke-width:1.0;"/><polygon fill="none" points="240,1844.085,234,1862.085,246,1862.085,240,1844.085" style="stroke:#181818;stroke-width:1.0;"/></g><!--reverse link FrontGoldCard to FrontPositionalGoldCard--><g id="link_FrontGoldCard_FrontPositionalGoldCard"><path codeLine="192" d="M192.1438,2014.7159 C172.6648,2036.3759 160.966,2049.3853 142.881,2069.4962 " fill="none" id="FrontGoldCard-backto-FrontPositionalGoldCard" style="stroke:#181818;stroke-width:1.0;"/><polygon fill="none" points="204.18,2001.332,187.6825,2010.7038,196.6051,2018.728,204.18,2001.332" style="stroke:#181818;stroke-width:1.0;"/></g><!--reverse link FrontGoldCard to FrontItemGoldCard--><g id="link_FrontGoldCard_FrontItemGoldCard"><path codeLine="193" d="M288.1959,2014.6684 C305.0669,2033.2804 313.016,2042.0499 329.888,2060.6624 " fill="none" id="FrontGoldCard-backto-FrontItemGoldCard" style="stroke:#181818;stroke-width:1.0;"/><polygon fill="none" points="276.107,2001.332,283.7504,2018.698,292.6413,2010.6388,276.107,2001.332" style="stroke:#181818;stroke-width:1.0;"/></g><!--reverse link Player to ObjectiveCard--><g id="link_Player_ObjectiveCard"><path codeLine="223" d="M1316.2703,875.3544 C1329.2903,889.0744 1334.23,894.07 1347,907 C1381.17,941.6 1421.22,979.58 1450.88,1007.24 " fill="none" id="Player-backto-ObjectiveCard" style="stroke:#181818;stroke-width:1.0;"/><polygon fill="#181818" points="1308.01,866.65,1309.2387,873.7557,1316.2703,875.3544,1315.0416,868.2488,1308.01,866.65" style="stroke:#181818;stroke-width:1.0;"/></g><!--reverse link GlobalBoard to ObjectiveCard--><g id="link_GlobalBoard_ObjectiveCard"><path codeLine="224" d="M1519.0352,919.0566 C1511.7352,956.3566 1506.92,980.97 1501.78,1007.26 " fill="none" id="GlobalBoard-backto-ObjectiveCard" style="stroke:#181818;stroke-width:1.0;"/><polygon fill="#181818" points="1521.34,907.28,1516.2621,912.4,1519.0352,919.0566,1524.1131,913.9366,1521.34,907.28" style="stroke:#181818;stroke-width:1.0;"/></g><!--reverse link ObjectiveCard to PositionalObjectiveCard--><g id="link_ObjectiveCard_PositionalObjectiveCard"><path codeLine="225" d="M1466.1338,1104.8365 C1442.5738,1152.0565 1411.52,1214.283 1387.92,1261.584 " fill="none" id="ObjectiveCard-backto-PositionalObjectiveCard" style="stroke:#181818;stroke-width:1.0;"/><polygon fill="none" points="1474.17,1088.73,1460.765,1102.1578,1471.5026,1107.5152,1474.17,1088.73" style="stroke:#181818;stroke-width:1.0;"/></g><!--reverse link ObjectiveCard to ItemObjectiveCard--><g id="link_ObjectiveCard_ItemObjectiveCard"><path codeLine="232" d="M1532.7682,1103.3873 C1566.4282,1150.6073 1611.83,1214.283 1645.55,1261.584 " fill="none" id="ObjectiveCard-backto-ItemObjectiveCard" style="stroke:#181818;stroke-width:1.0;"/><polygon fill="none" points="1522.32,1088.73,1527.8824,1106.87,1537.6539,1099.9045,1522.32,1088.73" style="stroke:#181818;stroke-width:1.0;"/></g><!--reverse link PositionalObjectiveCard to PositionalData--><g id="link_PositionalObjectiveCard_PositionalData"><path codeLine="243" d="M1368,1355.192 C1368,1394.286 1368,1443.123 1368,1492.312 " fill="none" id="PositionalObjectiveCard-backto-PositionalData" style="stroke:#181818;stroke-width:1.0;"/><polygon fill="#181818" points="1368,1343.192,1364,1349.192,1368,1355.192,1372,1349.192,1368,1343.192" style="stroke:#181818;stroke-width:1.0;"/><text fill="#000000" font-family="sans-serif" font-size="13" lengthAdjust="spacing" textLength="25" x="1341.0859" y="1362.6796">1..N</text><text fill="#000000" font-family="sans-serif" font-size="13" lengthAdjust="spacing" textLength="8" x="1359.6438" y="1481.4826">1</text></g><!--SRC=[pLZDKXmt4BxFKwZ8WNLOaxAJMnogO0thBSD2s7Nvc18ppI9dThGbQR31uLrop7lunTBwbsPc0LSkSPL1KlVqxzUj5cLDfIHJkeOpsj0L2FAr8FZlvQ4GzEwKIVL64m_82d_A8TA4Ykg0L71DsrfDULszXVBF9nalGV9Mb334V7xr2Kh5RlClmkcpv2yK5Gf4uDth-GDAB-JeXQNh3Ia5K0LwELeemPgLSNkE_yU4DOeq5pMz0o77n94tPgyPd9WAQXYMaEhvn5aph6L0xaEHfcVdrVx-V8Vy-F8bBdTCvegY35dqwUi8jeUf2zq8skC3fzcHfpM_elKHnyYILLnRels2bAqGq2YxipvwvJR4Mh-FSbyVCZcBF8-J6mYZRR7Eh4DTSUj5qQfoCfnGAwEdQ0vVl397k-Ay1jeG9YsIgaSz-CYQndpxK1GDLq1gk5Q4NzlqJ44gnXiWAyPBghXW111Ex9xndwuPdczG0rEqWAOY-lF2P9pilDxV_oMcsaNOabub44WIuv6GHCO1GbT2KYQhh50xHD4hJiFGgKlUByYE7DafmkqrRi4L3XzfDDSCwagt6RrzYiztcSYxruq3X9xbCzpdI9jLnjNr0l8kjLrYqfxwmEfBdNR2q_ycatwInUWvp5cW-ZNWGtIytgYxFZcDJyPI2VfPYpmHV6tqZBngKk8FKo-xALW9Offa_XSfUUVd27k3AeTtLyaMwhllAAafaIrrv-RRiJ-xeGrkM8qRJffs3OAJYX7191SI25MgfJKBx1ikTQ5YbSgs9efUGLth7NWH_8g1GclvVjPvOxUAlTUUNN2PDb3hsIQkBJ4BGgorIM1uXtuOPsoeGxjCssqupBfYE4LBUcTQR7AOcU7FPVSysuNUUqkR4g8c7G6fO2Cjm-uyn7w3EMHwKRQCKFpidWhGs71vJRjTue_FlYclvK5_SbdgSS3tdajqZA-9CBz-xK8uW-sIQE3QTkvqc6X_tTvkOYAsb9dVX8ZVSbOHlA1C03qrfGbOSnVVI1uEYhOkhuMizx-ZykQCRjvSuDYXnYJQrKET9iqKh1TuIu6P7lJEjSxpZRx6Q3tisCX8Vz5XDOSP7qA1QMBNv-V6RTOeMDbhsrjxkEPjeqP-cmPHTWsCxYV1TDsbFrfD4fYPc4IS_U2ZkXmJPvE-yP0d5CzeILGi6RqBhEwODJXohd5y6Y8YThSJzTJ26mFRzt0dBLZZ71YJYACDpXNEV6VxNiQIZi3nqBldJnCl0oviXMGnV1q3QEGKHMhM947bWbNWfqUzJawvkW4Hp_HTCU4r5oIitA2fcJ4IaoWbAo_vcQdo9ZsU157wCxyPTM4xuG87kWFDOrOZ-yjZjnEmOxn6DD8iqmIhLk30-EWdhi0YXhDCw5QfEx86h1mbyTqcPGvGGPNAUR13vAIN51tLWbv99MYfY8EsZgE3TJS6YcyksUf6RQMUugmxJBpYIl7rK_GeVU-9UF__Gcm2z-OlZ2sEE8rAzaSKBnwprMqb6UEjpRuexCx57g4URoJdeoTaMFC5M3XgZiJ4PUVj85Pj20F3KUykH8ekR_nbtZGsM_fLurpGdysXngAK7DypvlPk6-_Ijt_8RSiL7nEA4vEWUiB2Xpc8Rt_Z7O-wIMRIRsH-FZysCXVwTNGBfHcndBI6DmGatWvWPZTq4INfXme-d5gcPNfmxKDobQCedEEmQoYg3TemUdzF5HqJoLODksOb4c_0IA_WbfED05wMBJx8rcOWeMK94hsZteu1BV7Ljcj0O9A-qFCGRtoQ3S5Nc1a53Uu2whyNefWNAp9Ypy_xcKf_w5Ndg6u2fACbWp3FPKMTll9e7RHlOzKIeucfZNqX_fPweaQJyQodmbyo6SRMY3-sgPd_EyNZ0TxL9JoKJ7q-753_SFvFYTtDH_-WlDEpSoxtz24J_QwCRn9hf1-PBEW-eh1dcE76JDssSbNPYwn7Bd9c0u2OuPpLnLF7PyYRpZJwVTaRCAEd9upCmRwts1oyTYFOnimUJBQD8PRJs_AyKUE9ZXscLoloovZSTGXHObXfnxV4kZlSvYxt0p6OZ-HlNzdd1-QLd8Xx3igDum7Se7VvTUwqBiyl_hYSJTyjm-xq-CHkZiwNo_EptjvoFpYXMQ2jo8lJmxdzud0-EpiyDSkJ3_FfpAncyyNnnD9__p0xFNM7xpyUk_NPuVp3Od8vkx1CvkBowcBMhQvBTuKVrQsTPgS2m1RWHIisDRXhjCNQhek7Vm40]--></g></svg>