<?xml version="1.0" encoding="us-ascii" standalone="no"?><svg xmlns="http://www.w3.org/2000/svg" xmlns:xlink="http://www.w3.org/1999/xlink" contentStyleType="text/css" height="2148px" preserveAspectRatio="none" style="width:2348px;height:2148px;background:#FFFFFF;" version="1.1" viewBox="0 0 2348 2148" width="2348px" zoomAndPan="magnify"><defs/><g><!--class GameManager--><g id="elem_GameManager"><rect codeLine="1" fill="#F1F1F1" height="194.6719" id="GameManager" rx="2.5" ry="2.5" style="stroke:#181818;stroke-width:0.5;" width="534" x="1449" y="7"/><ellipse cx="1660.25" cy="23" fill="#ADD1B2" rx="11" ry="11" style="stroke:#181818;stroke-width:1.0;"/><path d="M1662.5938,18.6719 C1661.6563,18.2344 1661.0625,18.0938 1660.1875,18.0938 C1657.5625,18.0938 1655.5625,20.1719 1655.5625,22.8906 L1655.5625,24.0156 C1655.5625,26.5938 1657.6719,28.4844 1660.5625,28.4844 C1661.7813,28.4844 1662.9375,28.1875 1663.6875,27.6406 C1664.2656,27.2344 1664.5938,26.7813 1664.5938,26.3906 C1664.5938,25.9375 1664.2031,25.5469 1663.7344,25.5469 C1663.5156,25.5469 1663.3125,25.625 1663.125,25.8125 C1662.6719,26.2969 1662.6719,26.2969 1662.4844,26.3906 C1662.0625,26.6563 1661.375,26.7813 1660.6094,26.7813 C1658.5625,26.7813 1657.2656,25.6875 1657.2656,23.9844 L1657.2656,22.8906 C1657.2656,21.1094 1658.5156,19.7969 1660.25,19.7969 C1660.8281,19.7969 1661.4375,19.9531 1661.9063,20.2031 C1662.3906,20.4844 1662.5625,20.7031 1662.6563,21.1094 C1662.7188,21.5156 1662.75,21.6406 1662.8906,21.7656 C1663.0313,21.9063 1663.2656,22.0156 1663.4844,22.0156 C1663.75,22.0156 1664.0156,21.875 1664.1875,21.6563 C1664.2969,21.5 1664.3281,21.3125 1664.3281,20.8906 L1664.3281,19.4688 C1664.3281,19.0313 1664.3125,18.9063 1664.2188,18.75 C1664.0625,18.4844 1663.7813,18.3438 1663.4844,18.3438 C1663.1875,18.3438 1662.9844,18.4375 1662.7656,18.75 L1662.5938,18.6719 Z " fill="#000000"/><text fill="#000000" font-family="sans-serif" font-size="14" lengthAdjust="spacing" textLength="103" x="1680.75" y="27.8467">GameManager</text><line style="stroke:#181818;stroke-width:0.5;" x1="1450" x2="1982" y1="39" y2="39"/><rect fill="none" height="6" style="stroke:#C82930;stroke-width:1.0;" width="6" x="1457" y="49.6484"/><text fill="#000000" font-family="sans-serif" font-size="14" lengthAdjust="spacing" textLength="179" x="1469" y="55.9951">ArrayList&lt;Game&gt; games</text><rect fill="none" height="6" style="stroke:#C82930;stroke-width:1.0;" width="6" x="1457" y="65.9453"/><text fill="#000000" font-family="sans-serif" font-size="14" lengthAdjust="spacing" textLength="286" x="1469" y="72.292">ArrayList&lt;GameCard&gt; defaultGoldDeck</text><rect fill="none" height="6" style="stroke:#C82930;stroke-width:1.0;" width="6" x="1457" y="82.2422"/><text fill="#000000" font-family="sans-serif" font-size="14" lengthAdjust="spacing" textLength="319" x="1469" y="88.5889">ArrayList&lt;GameCard&gt; defaultResourceDeck</text><rect fill="none" height="6" style="stroke:#C82930;stroke-width:1.0;" width="6" x="1457" y="98.5391"/><text fill="#000000" font-family="sans-serif" font-size="14" lengthAdjust="spacing" textLength="351" x="1469" y="104.8857">ArrayList&lt;ObjectiveCard&gt; defaultObjectiveDeck</text><rect fill="none" height="6" style="stroke:#C82930;stroke-width:1.0;" width="6" x="1457" y="114.8359"/><text fill="#000000" font-family="sans-serif" font-size="14" lengthAdjust="spacing" textLength="305" x="1469" y="121.1826">ArrayList&lt;GameCard&gt; defaultStarterDeck</text><line style="stroke:#181818;stroke-width:0.5;" x1="1450" x2="1982" y1="128.4844" y2="128.4844"/><ellipse cx="1460" cy="142.1328" fill="#84BE84" rx="3" ry="3" style="stroke:#038048;stroke-width:1.0;"/><text fill="#000000" font-family="sans-serif" font-size="14" lengthAdjust="spacing" textLength="216" x="1469" y="145.4795">ArrayList&lt;Game&gt; getGames()</text><ellipse cx="1460" cy="158.4297" fill="#84BE84" rx="3" ry="3" style="stroke:#038048;stroke-width:1.0;"/><text fill="#000000" font-family="sans-serif" font-size="14" lengthAdjust="spacing" textLength="508" x="1469" y="161.7764">Game createGame(String gameName, int nPlayers, String playerName)</text><ellipse cx="1460" cy="174.7266" fill="#84BE84" rx="3" ry="3" style="stroke:#038048;stroke-width:1.0;"/><text fill="#000000" font-family="sans-serif" font-size="14" lengthAdjust="spacing" textLength="228" x="1469" y="178.0732">deleteGame(String gameName)</text><ellipse cx="1460" cy="191.0234" fill="#84BE84" rx="3" ry="3" style="stroke:#038048;stroke-width:1.0;"/><text fill="#000000" font-family="sans-serif" font-size="14" lengthAdjust="spacing" textLength="395" x="1469" y="194.3701">Game joinGame(String gameName, String playerName)</text></g><!--class Game--><g id="elem_Game"><rect codeLine="14" fill="#F1F1F1" height="259.8594" id="Game" rx="2.5" ry="2.5" style="stroke:#181818;stroke-width:0.5;" width="287" x="1572.5" y="262"/><ellipse cx="1690.75" cy="278" fill="#ADD1B2" rx="11" ry="11" style="stroke:#181818;stroke-width:1.0;"/><path d="M1693.0938,273.6719 C1692.1563,273.2344 1691.5625,273.0938 1690.6875,273.0938 C1688.0625,273.0938 1686.0625,275.1719 1686.0625,277.8906 L1686.0625,279.0156 C1686.0625,281.5938 1688.1719,283.4844 1691.0625,283.4844 C1692.2813,283.4844 1693.4375,283.1875 1694.1875,282.6406 C1694.7656,282.2344 1695.0938,281.7813 1695.0938,281.3906 C1695.0938,280.9375 1694.7031,280.5469 1694.2344,280.5469 C1694.0156,280.5469 1693.8125,280.625 1693.625,280.8125 C1693.1719,281.2969 1693.1719,281.2969 1692.9844,281.3906 C1692.5625,281.6563 1691.875,281.7813 1691.1094,281.7813 C1689.0625,281.7813 1687.7656,280.6875 1687.7656,278.9844 L1687.7656,277.8906 C1687.7656,276.1094 1689.0156,274.7969 1690.75,274.7969 C1691.3281,274.7969 1691.9375,274.9531 1692.4063,275.2031 C1692.8906,275.4844 1693.0625,275.7031 1693.1563,276.1094 C1693.2188,276.5156 1693.25,276.6406 1693.3906,276.7656 C1693.5313,276.9063 1693.7656,277.0156 1693.9844,277.0156 C1694.25,277.0156 1694.5156,276.875 1694.6875,276.6563 C1694.7969,276.5 1694.8281,276.3125 1694.8281,275.8906 L1694.8281,274.4688 C1694.8281,274.0313 1694.8125,273.9063 1694.7188,273.75 C1694.5625,273.4844 1694.2813,273.3438 1693.9844,273.3438 C1693.6875,273.3438 1693.4844,273.4375 1693.2656,273.75 L1693.0938,273.6719 Z " fill="#000000"/><text fill="#000000" font-family="sans-serif" font-size="14" lengthAdjust="spacing" textLength="42" x="1711.25" y="282.8467">Game</text><line style="stroke:#181818;stroke-width:0.5;" x1="1573.5" x2="1858.5" y1="294" y2="294"/><rect fill="none" height="6" style="stroke:#C82930;stroke-width:1.0;" width="6" x="1580.5" y="304.6484"/><text fill="#000000" font-family="sans-serif" font-size="14" lengthAdjust="spacing" textLength="129" x="1592.5" y="310.9951">String gameName</text><rect fill="none" height="6" style="stroke:#C82930;stroke-width:1.0;" width="6" x="1580.5" y="320.9453"/><text fill="#000000" font-family="sans-serif" font-size="14" lengthAdjust="spacing" textLength="84" x="1592.5" y="327.292">int nPlayers</text><rect fill="none" height="6" style="stroke:#C82930;stroke-width:1.0;" width="6" x="1580.5" y="337.2422"/><text fill="#000000" font-family="sans-serif" font-size="14" lengthAdjust="spacing" textLength="186" x="1592.5" y="343.5889">ArrayList&lt;Player&gt; players</text><rect fill="none" height="6" style="stroke:#C82930;stroke-width:1.0;" width="6" x="1580.5" y="353.5391"/><text fill="#000000" font-family="sans-serif" font-size="14" lengthAdjust="spacing" textLength="178" x="1592.5" y="359.8857">GlobalBoard globalBoard</text><rect fill="none" height="6" style="stroke:#C82930;stroke-width:1.0;" width="6" x="1580.5" y="369.8359"/><text fill="#000000" font-family="sans-serif" font-size="14" lengthAdjust="spacing" textLength="145" x="1592.5" y="376.1826">Player currentPlayer</text><line style="stroke:#181818;stroke-width:0.5;" x1="1573.5" x2="1858.5" y1="383.4844" y2="383.4844"/><ellipse cx="1583.5" cy="397.1328" fill="#84BE84" rx="3" ry="3" style="stroke:#038048;stroke-width:1.0;"/><text fill="#000000" font-family="sans-serif" font-size="14" lengthAdjust="spacing" textLength="166" x="1592.5" y="400.4795">String getGameName()</text><ellipse cx="1583.5" cy="413.4297" fill="#84BE84" rx="3" ry="3" style="stroke:#038048;stroke-width:1.0;"/><text fill="#000000" font-family="sans-serif" font-size="14" lengthAdjust="spacing" textLength="220" x="1592.5" y="416.7764">ArrayList&lt;Player&gt; getPlayers()</text><ellipse cx="1583.5" cy="429.7266" fill="#84BE84" rx="3" ry="3" style="stroke:#038048;stroke-width:1.0;"/><text fill="#000000" font-family="sans-serif" font-size="14" lengthAdjust="spacing" textLength="261" x="1592.5" y="433.0732">Player getPlayer(String playerName)</text><ellipse cx="1583.5" cy="446.0234" fill="#84BE84" rx="3" ry="3" style="stroke:#038048;stroke-width:1.0;"/><text fill="#000000" font-family="sans-serif" font-size="14" lengthAdjust="spacing" textLength="215" x="1592.5" y="449.3701">GlobalBoard getGlobalBoard()</text><ellipse cx="1583.5" cy="462.3203" fill="#84BE84" rx="3" ry="3" style="stroke:#038048;stroke-width:1.0;"/><text fill="#000000" font-family="sans-serif" font-size="14" lengthAdjust="spacing" textLength="173" x="1592.5" y="465.667">addPlayer(Player player)</text><ellipse cx="1583.5" cy="478.6172" fill="#84BE84" rx="3" ry="3" style="stroke:#038048;stroke-width:1.0;"/><text fill="#000000" font-family="sans-serif" font-size="14" lengthAdjust="spacing" textLength="161" x="1592.5" y="481.9639">Player getNextPlayer()</text><ellipse cx="1583.5" cy="494.9141" fill="#84BE84" rx="3" ry="3" style="stroke:#038048;stroke-width:1.0;"/><text fill="#000000" font-family="sans-serif" font-size="14" lengthAdjust="spacing" textLength="138" x="1592.5" y="498.2607">boolean isStarted()</text><ellipse cx="1583.5" cy="511.2109" fill="#84BE84" rx="3" ry="3" style="stroke:#038048;stroke-width:1.0;"/><text fill="#000000" font-family="sans-serif" font-size="14" lengthAdjust="spacing" textLength="220" x="1592.5" y="514.5576">ArrayList&lt;Player&gt; getWinner()</text></g><g id="elem_GMN5"><path d="M1278.5,379.5 L1278.5,404.6328 A0,0 0 0 0 1278.5,404.6328 L1537.5,404.6328 A0,0 0 0 0 1537.5,404.6328 L1537.5,397.5 L1572.47,392 L1537.5,389.5 L1537.5,389.5 L1527.5,379.5 L1278.5,379.5 A0,0 0 0 0 1278.5,379.5 " fill="#FEFFDD" style="stroke:#181818;stroke-width:0.5;"/><path d="M1527.5,379.5 L1527.5,389.5 L1537.5,389.5 L1527.5,379.5 " fill="#FEFFDD" style="stroke:#181818;stroke-width:0.5;"/><text fill="#000000" font-family="sans-serif" font-size="13" lengthAdjust="spacing" textLength="238" x="1284.5" y="396.5669">Gestione giocatori e inizio/fine partita</text></g><!--class Player--><g id="elem_Player"><rect codeLine="60" fill="#F1F1F1" height="243.5625" id="Player" rx="2.5" ry="2.5" style="stroke:#181818;stroke-width:0.5;" width="265" x="1395.5" y="622.5"/><ellipse cx="1501.75" cy="638.5" fill="#ADD1B2" rx="11" ry="11" style="stroke:#181818;stroke-width:1.0;"/><path d="M1504.0938,634.1719 C1503.1563,633.7344 1502.5625,633.5938 1501.6875,633.5938 C1499.0625,633.5938 1497.0625,635.6719 1497.0625,638.3906 L1497.0625,639.5156 C1497.0625,642.0938 1499.1719,643.9844 1502.0625,643.9844 C1503.2813,643.9844 1504.4375,643.6875 1505.1875,643.1406 C1505.7656,642.7344 1506.0938,642.2813 1506.0938,641.8906 C1506.0938,641.4375 1505.7031,641.0469 1505.2344,641.0469 C1505.0156,641.0469 1504.8125,641.125 1504.625,641.3125 C1504.1719,641.7969 1504.1719,641.7969 1503.9844,641.8906 C1503.5625,642.1563 1502.875,642.2813 1502.1094,642.2813 C1500.0625,642.2813 1498.7656,641.1875 1498.7656,639.4844 L1498.7656,638.3906 C1498.7656,636.6094 1500.0156,635.2969 1501.75,635.2969 C1502.3281,635.2969 1502.9375,635.4531 1503.4063,635.7031 C1503.8906,635.9844 1504.0625,636.2031 1504.1563,636.6094 C1504.2188,637.0156 1504.25,637.1406 1504.3906,637.2656 C1504.5313,637.4063 1504.7656,637.5156 1504.9844,637.5156 C1505.25,637.5156 1505.5156,637.375 1505.6875,637.1563 C1505.7969,637 1505.8281,636.8125 1505.8281,636.3906 L1505.8281,634.9688 C1505.8281,634.5313 1505.8125,634.4063 1505.7188,634.25 C1505.5625,633.9844 1505.2813,633.8438 1504.9844,633.8438 C1504.6875,633.8438 1504.4844,633.9375 1504.2656,634.25 L1504.0938,634.1719 Z " fill="#000000"/><text fill="#000000" font-family="sans-serif" font-size="14" lengthAdjust="spacing" textLength="44" x="1522.25" y="643.3467">Player</text><line style="stroke:#181818;stroke-width:0.5;" x1="1396.5" x2="1659.5" y1="654.5" y2="654.5"/><rect fill="none" height="6" style="stroke:#C82930;stroke-width:1.0;" width="6" x="1403.5" y="665.1484"/><text fill="#000000" font-family="sans-serif" font-size="14" lengthAdjust="spacing" textLength="134" x="1415.5" y="671.4951">String playerName</text><rect fill="none" height="6" style="stroke:#C82930;stroke-width:1.0;" width="6" x="1403.5" y="681.4453"/><text fill="#000000" font-family="sans-serif" font-size="14" lengthAdjust="spacing" textLength="94" x="1415.5" y="687.792">int playerPos</text><rect fill="none" height="6" style="stroke:#C82930;stroke-width:1.0;" width="6" x="1403.5" y="697.7422"/><text fill="#000000" font-family="sans-serif" font-size="14" lengthAdjust="spacing" textLength="177" x="1415.5" y="704.0889">PlayerBoard playerBoard</text><rect fill="none" height="6" style="stroke:#C82930;stroke-width:1.0;" width="6" x="1403.5" y="714.0391"/><text fill="#000000" font-family="sans-serif" font-size="14" lengthAdjust="spacing" textLength="208" x="1415.5" y="720.3857">ObjectiveCard objectiveCard</text><rect fill="none" height="6" style="stroke:#C82930;stroke-width:1.0;" width="6" x="1403.5" y="730.3359"/><text fill="#000000" font-family="sans-serif" font-size="14" lengthAdjust="spacing" textLength="75" x="1415.5" y="736.6826">Hand hand</text><line style="stroke:#181818;stroke-width:0.5;" x1="1396.5" x2="1659.5" y1="743.9844" y2="743.9844"/><ellipse cx="1406.5" cy="757.6328" fill="#84BE84" rx="3" ry="3" style="stroke:#038048;stroke-width:1.0;"/><text fill="#000000" font-family="sans-serif" font-size="14" lengthAdjust="spacing" textLength="120" x="1415.5" y="760.9795">getPlayerName()</text><ellipse cx="1406.5" cy="773.9297" fill="#84BE84" rx="3" ry="3" style="stroke:#038048;stroke-width:1.0;"/><text fill="#000000" font-family="sans-serif" font-size="14" lengthAdjust="spacing" textLength="121" x="1415.5" y="777.2764">getPlayerBoard()</text><ellipse cx="1406.5" cy="790.2266" fill="#84BE84" rx="3" ry="3" style="stroke:#038048;stroke-width:1.0;"/><text fill="#000000" font-family="sans-serif" font-size="14" lengthAdjust="spacing" textLength="104" x="1415.5" y="793.5732">getPlayerPos()</text><ellipse cx="1406.5" cy="806.5234" fill="#84BE84" rx="3" ry="3" style="stroke:#038048;stroke-width:1.0;"/><text fill="#000000" font-family="sans-serif" font-size="14" lengthAdjust="spacing" textLength="115" x="1415.5" y="809.8701">getPlayerHand()</text><ellipse cx="1406.5" cy="822.8203" fill="#84BE84" rx="3" ry="3" style="stroke:#038048;stroke-width:1.0;"/><text fill="#000000" font-family="sans-serif" font-size="14" lengthAdjust="spacing" textLength="138" x="1415.5" y="826.167">getObjectiveCard()</text><ellipse cx="1406.5" cy="839.1172" fill="#84BE84" rx="3" ry="3" style="stroke:#038048;stroke-width:1.0;"/><text fill="#000000" font-family="sans-serif" font-size="14" lengthAdjust="spacing" textLength="239" x="1415.5" y="842.4639">setObjectiveCard(ObjectiveCard)</text><ellipse cx="1406.5" cy="855.4141" fill="#84BE84" rx="3" ry="3" style="stroke:#038048;stroke-width:1.0;"/><text fill="#000000" font-family="sans-serif" font-size="14" lengthAdjust="spacing" textLength="202" x="1415.5" y="858.7607">advancePlayerPos(int steps)</text></g><!--class GlobalBoard--><g id="elem_GlobalBoard"><rect codeLine="37" fill="#F1F1F1" height="325.0469" id="GlobalBoard" rx="2.5" ry="2.5" style="stroke:#181818;stroke-width:0.5;" width="377" x="1706.5" y="582"/><ellipse cx="1846.75" cy="598" fill="#ADD1B2" rx="11" ry="11" style="stroke:#181818;stroke-width:1.0;"/><path d="M1849.0938,593.6719 C1848.1563,593.2344 1847.5625,593.0938 1846.6875,593.0938 C1844.0625,593.0938 1842.0625,595.1719 1842.0625,597.8906 L1842.0625,599.0156 C1842.0625,601.5938 1844.1719,603.4844 1847.0625,603.4844 C1848.2813,603.4844 1849.4375,603.1875 1850.1875,602.6406 C1850.7656,602.2344 1851.0938,601.7813 1851.0938,601.3906 C1851.0938,600.9375 1850.7031,600.5469 1850.2344,600.5469 C1850.0156,600.5469 1849.8125,600.625 1849.625,600.8125 C1849.1719,601.2969 1849.1719,601.2969 1848.9844,601.3906 C1848.5625,601.6563 1847.875,601.7813 1847.1094,601.7813 C1845.0625,601.7813 1843.7656,600.6875 1843.7656,598.9844 L1843.7656,597.8906 C1843.7656,596.1094 1845.0156,594.7969 1846.75,594.7969 C1847.3281,594.7969 1847.9375,594.9531 1848.4063,595.2031 C1848.8906,595.4844 1849.0625,595.7031 1849.1563,596.1094 C1849.2188,596.5156 1849.25,596.6406 1849.3906,596.7656 C1849.5313,596.9063 1849.7656,597.0156 1849.9844,597.0156 C1850.25,597.0156 1850.5156,596.875 1850.6875,596.6563 C1850.7969,596.5 1850.8281,596.3125 1850.8281,595.8906 L1850.8281,594.4688 C1850.8281,594.0313 1850.8125,593.9063 1850.7188,593.75 C1850.5625,593.4844 1850.2813,593.3438 1849.9844,593.3438 C1849.6875,593.3438 1849.4844,593.4375 1849.2656,593.75 L1849.0938,593.6719 Z " fill="#000000"/><text fill="#000000" font-family="sans-serif" font-size="14" lengthAdjust="spacing" textLength="88" x="1867.25" y="602.8467">GlobalBoard</text><line style="stroke:#181818;stroke-width:0.5;" x1="1707.5" x2="2082.5" y1="614" y2="614"/><rect fill="none" height="6" style="stroke:#C82930;stroke-width:1.0;" width="6" x="1714.5" y="624.6484"/><text fill="#000000" font-family="sans-serif" font-size="14" lengthAdjust="spacing" textLength="206" x="1726.5" y="630.9951">Deck&lt;GameCard&gt; goldDeck</text><rect fill="none" height="6" style="stroke:#C82930;stroke-width:1.0;" width="6" x="1714.5" y="640.9453"/><text fill="#000000" font-family="sans-serif" font-size="14" lengthAdjust="spacing" textLength="237" x="1726.5" y="647.292">Deck&lt;GameCard&gt; resourceDeck</text><rect fill="none" height="6" style="stroke:#C82930;stroke-width:1.0;" width="6" x="1714.5" y="657.2422"/><text fill="#000000" font-family="sans-serif" font-size="14" lengthAdjust="spacing" textLength="271" x="1726.5" y="663.5889">Deck&lt;ObjectiveCard&gt; objectiveDeck</text><rect fill="none" height="6" style="stroke:#C82930;stroke-width:1.0;" width="6" x="1714.5" y="673.5391"/><text fill="#000000" font-family="sans-serif" font-size="14" lengthAdjust="spacing" textLength="225" x="1726.5" y="679.8857">Deck&lt;GameCard&gt; starterDeck</text><rect fill="none" height="6" style="stroke:#C82930;stroke-width:1.0;" width="6" x="1714.5" y="689.8359"/><text fill="#000000" font-family="sans-serif" font-size="14" lengthAdjust="spacing" textLength="314" x="1726.5" y="696.1826">ArrayList&lt;ObjectiveCard&gt; globalObjectives</text><rect fill="none" height="6" style="stroke:#C82930;stroke-width:1.0;" width="6" x="1714.5" y="706.1328"/><text fill="#000000" font-family="sans-serif" font-size="14" lengthAdjust="spacing" textLength="270" x="1726.5" y="712.4795">ArrayList&lt;GameCard&gt; fieldGoldCards</text><rect fill="none" height="6" style="stroke:#C82930;stroke-width:1.0;" width="6" x="1714.5" y="722.4297"/><text fill="#000000" font-family="sans-serif" font-size="14" lengthAdjust="spacing" textLength="303" x="1726.5" y="728.7764">ArrayList&lt;GameCard&gt; fieldResourceCards</text><line style="stroke:#181818;stroke-width:0.5;" x1="1707.5" x2="2082.5" y1="736.0781" y2="736.0781"/><ellipse cx="1717.5" cy="749.7266" fill="#84BE84" rx="3" ry="3" style="stroke:#038048;stroke-width:1.0;"/><text fill="#000000" font-family="sans-serif" font-size="14" lengthAdjust="spacing" textLength="243" x="1726.5" y="753.0732">Deck&lt;GameCard&gt; getGoldDeck()</text><ellipse cx="1717.5" cy="766.0234" fill="#84BE84" rx="3" ry="3" style="stroke:#038048;stroke-width:1.0;"/><text fill="#000000" font-family="sans-serif" font-size="14" lengthAdjust="spacing" textLength="276" x="1726.5" y="769.3701">Deck&lt;GameCard&gt; getResourceDeck()</text><ellipse cx="1717.5" cy="782.3203" fill="#84BE84" rx="3" ry="3" style="stroke:#038048;stroke-width:1.0;"/><text fill="#000000" font-family="sans-serif" font-size="14" lengthAdjust="spacing" textLength="308" x="1726.5" y="785.667">Deck&lt;ObjectiveCard&gt; getObjectiveDeck()</text><ellipse cx="1717.5" cy="798.6172" fill="#84BE84" rx="3" ry="3" style="stroke:#038048;stroke-width:1.0;"/><text fill="#000000" font-family="sans-serif" font-size="14" lengthAdjust="spacing" textLength="262" x="1726.5" y="801.9639">Deck&lt;GameCard&gt; getStarterDeck()</text><ellipse cx="1717.5" cy="814.9141" fill="#84BE84" rx="3" ry="3" style="stroke:#038048;stroke-width:1.0;"/><text fill="#000000" font-family="sans-serif" font-size="14" lengthAdjust="spacing" textLength="351" x="1726.5" y="818.2607">ArrayList&lt;ObjectiveCard&gt; getGlobalObjectives()</text><ellipse cx="1717.5" cy="831.2109" fill="#84BE84" rx="3" ry="3" style="stroke:#038048;stroke-width:1.0;"/><text fill="#000000" font-family="sans-serif" font-size="14" lengthAdjust="spacing" textLength="307" x="1726.5" y="834.5576">ArrayList&lt;GameCard&gt; getFieldGoldCards()</text><ellipse cx="1717.5" cy="847.5078" fill="#84BE84" rx="3" ry="3" style="stroke:#038048;stroke-width:1.0;"/><text fill="#000000" font-family="sans-serif" font-size="14" lengthAdjust="spacing" textLength="340" x="1726.5" y="850.8545">ArrayList&lt;GameCard&gt; getFieldResourceCards()</text><ellipse cx="1717.5" cy="863.8047" fill="#84BE84" rx="3" ry="3" style="stroke:#038048;stroke-width:1.0;"/><text fill="#000000" font-family="sans-serif" font-size="14" lengthAdjust="spacing" textLength="201" x="1726.5" y="867.1514">boolean isGoldDeckEmpty()</text><ellipse cx="1717.5" cy="880.1016" fill="#84BE84" rx="3" ry="3" style="stroke:#038048;stroke-width:1.0;"/><text fill="#000000" font-family="sans-serif" font-size="14" lengthAdjust="spacing" textLength="234" x="1726.5" y="883.4482">boolean isResourceDeckEmpty()</text><ellipse cx="1717.5" cy="896.3984" fill="#84BE84" rx="3" ry="3" style="stroke:#038048;stroke-width:1.0;"/><text fill="#000000" font-family="sans-serif" font-size="14" lengthAdjust="spacing" textLength="258" x="1726.5" y="899.7451">drawCardFromField(GameCard card)</text></g><!--class Deck--><g id="elem_Deck"><rect codeLine="79" fill="#F1F1F1" height="113.1875" id="Deck" rx="2.5" ry="2.5" style="stroke:#181818;stroke-width:0.5;" width="160" x="2118" y="991.5"/><ellipse cx="2169.75" cy="1007.5" fill="#ADD1B2" rx="11" ry="11" style="stroke:#181818;stroke-width:1.0;"/><path d="M2172.0938,1003.1719 C2171.1563,1002.7344 2170.5625,1002.5938 2169.6875,1002.5938 C2167.0625,1002.5938 2165.0625,1004.6719 2165.0625,1007.3906 L2165.0625,1008.5156 C2165.0625,1011.0938 2167.1719,1012.9844 2170.0625,1012.9844 C2171.2813,1012.9844 2172.4375,1012.6875 2173.1875,1012.1406 C2173.7656,1011.7344 2174.0938,1011.2813 2174.0938,1010.8906 C2174.0938,1010.4375 2173.7031,1010.0469 2173.2344,1010.0469 C2173.0156,1010.0469 2172.8125,1010.125 2172.625,1010.3125 C2172.1719,1010.7969 2172.1719,1010.7969 2171.9844,1010.8906 C2171.5625,1011.1563 2170.875,1011.2813 2170.1094,1011.2813 C2168.0625,1011.2813 2166.7656,1010.1875 2166.7656,1008.4844 L2166.7656,1007.3906 C2166.7656,1005.6094 2168.0156,1004.2969 2169.75,1004.2969 C2170.3281,1004.2969 2170.9375,1004.4531 2171.4063,1004.7031 C2171.8906,1004.9844 2172.0625,1005.2031 2172.1563,1005.6094 C2172.2188,1006.0156 2172.25,1006.1406 2172.3906,1006.2656 C2172.5313,1006.4063 2172.7656,1006.5156 2172.9844,1006.5156 C2173.25,1006.5156 2173.5156,1006.375 2173.6875,1006.1563 C2173.7969,1006 2173.8281,1005.8125 2173.8281,1005.3906 L2173.8281,1003.9688 C2173.8281,1003.5313 2173.8125,1003.4063 2173.7188,1003.25 C2173.5625,1002.9844 2173.2813,1002.8438 2172.9844,1002.8438 C2172.6875,1002.8438 2172.4844,1002.9375 2172.2656,1003.25 L2172.0938,1003.1719 Z " fill="#000000"/><text fill="#000000" font-family="sans-serif" font-size="14" lengthAdjust="spacing" textLength="37" x="2190.25" y="1012.3467">Deck</text><rect fill="#FFFFFF" height="15.9688" style="stroke:#181818;stroke-width:1.0;stroke-dasharray:2.0,2.0;" width="9" x="2272" y="988.5"/><text fill="#000000" font-family="sans-serif" font-size="12" font-style="italic" lengthAdjust="spacing" textLength="7" x="2273" y="1000.6387">T</text><line style="stroke:#181818;stroke-width:0.5;" x1="2119" x2="2277" y1="1023.5" y2="1023.5"/><rect fill="none" height="6" style="stroke:#C82930;stroke-width:1.0;" width="6" x="2126" y="1034.1484"/><text fill="#000000" font-family="sans-serif" font-size="14" lengthAdjust="spacing" textLength="134" x="2138" y="1040.4951">ArrayList&lt;T&gt; deck</text><rect fill="none" height="6" style="stroke:#C82930;stroke-width:1.0;" width="6" x="2126" y="1050.4453"/><text fill="#000000" font-family="sans-serif" font-size="14" lengthAdjust="spacing" textLength="123" x="2138" y="1056.792">Random random;</text><line style="stroke:#181818;stroke-width:0.5;" x1="2119" x2="2277" y1="1064.0938" y2="1064.0938"/><ellipse cx="2129" cy="1077.7422" fill="#84BE84" rx="3" ry="3" style="stroke:#038048;stroke-width:1.0;"/><text fill="#000000" font-family="sans-serif" font-size="14" lengthAdjust="spacing" textLength="131" x="2138" y="1081.0889">boolean isEmpty()</text><ellipse cx="2129" cy="1094.0391" fill="#84BE84" rx="3" ry="3" style="stroke:#038048;stroke-width:1.0;"/><text fill="#000000" font-family="sans-serif" font-size="14" lengthAdjust="spacing" textLength="57" x="2138" y="1097.3857">T draw()</text></g><!--class PlayerBoard--><g id="elem_PlayerBoard"><rect codeLine="96" fill="#F1F1F1" height="162.0781" id="PlayerBoard" rx="2.5" ry="2.5" style="stroke:#181818;stroke-width:0.5;" width="395" x="933.5" y="967"/><ellipse cx="1083.75" cy="983" fill="#ADD1B2" rx="11" ry="11" style="stroke:#181818;stroke-width:1.0;"/><path d="M1086.0938,978.6719 C1085.1563,978.2344 1084.5625,978.0938 1083.6875,978.0938 C1081.0625,978.0938 1079.0625,980.1719 1079.0625,982.8906 L1079.0625,984.0156 C1079.0625,986.5938 1081.1719,988.4844 1084.0625,988.4844 C1085.2813,988.4844 1086.4375,988.1875 1087.1875,987.6406 C1087.7656,987.2344 1088.0938,986.7813 1088.0938,986.3906 C1088.0938,985.9375 1087.7031,985.5469 1087.2344,985.5469 C1087.0156,985.5469 1086.8125,985.625 1086.625,985.8125 C1086.1719,986.2969 1086.1719,986.2969 1085.9844,986.3906 C1085.5625,986.6563 1084.875,986.7813 1084.1094,986.7813 C1082.0625,986.7813 1080.7656,985.6875 1080.7656,983.9844 L1080.7656,982.8906 C1080.7656,981.1094 1082.0156,979.7969 1083.75,979.7969 C1084.3281,979.7969 1084.9375,979.9531 1085.4063,980.2031 C1085.8906,980.4844 1086.0625,980.7031 1086.1563,981.1094 C1086.2188,981.5156 1086.25,981.6406 1086.3906,981.7656 C1086.5313,981.9063 1086.7656,982.0156 1086.9844,982.0156 C1087.25,982.0156 1087.5156,981.875 1087.6875,981.6563 C1087.7969,981.5 1087.8281,981.3125 1087.8281,980.8906 L1087.8281,979.4688 C1087.8281,979.0313 1087.8125,978.9063 1087.7188,978.75 C1087.5625,978.4844 1087.2813,978.3438 1086.9844,978.3438 C1086.6875,978.3438 1086.4844,978.4375 1086.2656,978.75 L1086.0938,978.6719 Z " fill="#000000"/><text fill="#000000" font-family="sans-serif" font-size="14" lengthAdjust="spacing" textLength="86" x="1104.25" y="987.8467">PlayerBoard</text><line style="stroke:#181818;stroke-width:0.5;" x1="934.5" x2="1327.5" y1="999" y2="999"/><rect fill="none" height="6" style="stroke:#C82930;stroke-width:1.0;" width="6" x="941.5" y="1009.6484"/><text fill="#000000" font-family="sans-serif" font-size="14" lengthAdjust="spacing" textLength="298" x="953.5" y="1015.9951">HashMap&lt;Point, GameCard&gt; playerBoard</text><rect fill="none" height="6" style="stroke:#C82930;stroke-width:1.0;" width="6" x="941.5" y="1025.9453"/><text fill="#000000" font-family="sans-serif" font-size="14" lengthAdjust="spacing" textLength="201" x="953.5" y="1032.292">GameItemStore gameItems</text><line style="stroke:#181818;stroke-width:0.5;" x1="934.5" x2="1327.5" y1="1039.5938" y2="1039.5938"/><ellipse cx="944.5" cy="1053.2422" fill="#84BE84" rx="3" ry="3" style="stroke:#038048;stroke-width:1.0;"/><text fill="#000000" font-family="sans-serif" font-size="14" lengthAdjust="spacing" textLength="311" x="953.5" y="1056.5889">Optional&lt;GameCard&gt; getGameCard(Point)</text><ellipse cx="944.5" cy="1069.5391" fill="#84BE84" rx="3" ry="3" style="stroke:#038048;stroke-width:1.0;"/><text fill="#000000" font-family="sans-serif" font-size="14" lengthAdjust="spacing" textLength="369" x="953.5" y="1072.8857">Optional&lt;Point&gt; getGameCardPosition(GameCard)</text><ellipse cx="944.5" cy="1085.8359" fill="#84BE84" rx="3" ry="3" style="stroke:#038048;stroke-width:1.0;"/><text fill="#000000" font-family="sans-serif" font-size="14" lengthAdjust="spacing" textLength="282" x="953.5" y="1089.1826">ArrayList&lt;GameCard&gt; getGameCards()</text><ellipse cx="944.5" cy="1102.1328" fill="#84BE84" rx="3" ry="3" style="stroke:#038048;stroke-width:1.0;"/><text fill="#000000" font-family="sans-serif" font-size="14" lengthAdjust="spacing" textLength="301" x="953.5" y="1105.4795">Integer getGameItemAmount(GameItem)</text><ellipse cx="944.5" cy="1118.4297" fill="#84BE84" rx="3" ry="3" style="stroke:#038048;stroke-width:1.0;"/><text fill="#000000" font-family="sans-serif" font-size="14" lengthAdjust="spacing" textLength="263" x="953.5" y="1121.7764">void setGameCard(Point, GameCard)</text></g><!--class Hand--><g id="elem_Hand"><rect codeLine="87" fill="#F1F1F1" height="113.1875" id="Hand" rx="2.5" ry="2.5" style="stroke:#181818;stroke-width:0.5;" width="308" x="1364" y="991.5"/><ellipse cx="1495.75" cy="1007.5" fill="#ADD1B2" rx="11" ry="11" style="stroke:#181818;stroke-width:1.0;"/><path d="M1498.0938,1003.1719 C1497.1563,1002.7344 1496.5625,1002.5938 1495.6875,1002.5938 C1493.0625,1002.5938 1491.0625,1004.6719 1491.0625,1007.3906 L1491.0625,1008.5156 C1491.0625,1011.0938 1493.1719,1012.9844 1496.0625,1012.9844 C1497.2813,1012.9844 1498.4375,1012.6875 1499.1875,1012.1406 C1499.7656,1011.7344 1500.0938,1011.2813 1500.0938,1010.8906 C1500.0938,1010.4375 1499.7031,1010.0469 1499.2344,1010.0469 C1499.0156,1010.0469 1498.8125,1010.125 1498.625,1010.3125 C1498.1719,1010.7969 1498.1719,1010.7969 1497.9844,1010.8906 C1497.5625,1011.1563 1496.875,1011.2813 1496.1094,1011.2813 C1494.0625,1011.2813 1492.7656,1010.1875 1492.7656,1008.4844 L1492.7656,1007.3906 C1492.7656,1005.6094 1494.0156,1004.2969 1495.75,1004.2969 C1496.3281,1004.2969 1496.9375,1004.4531 1497.4063,1004.7031 C1497.8906,1004.9844 1498.0625,1005.2031 1498.1563,1005.6094 C1498.2188,1006.0156 1498.25,1006.1406 1498.3906,1006.2656 C1498.5313,1006.4063 1498.7656,1006.5156 1498.9844,1006.5156 C1499.25,1006.5156 1499.5156,1006.375 1499.6875,1006.1563 C1499.7969,1006 1499.8281,1005.8125 1499.8281,1005.3906 L1499.8281,1003.9688 C1499.8281,1003.5313 1499.8125,1003.4063 1499.7188,1003.25 C1499.5625,1002.9844 1499.2813,1002.8438 1498.9844,1002.8438 C1498.6875,1002.8438 1498.4844,1002.9375 1498.2656,1003.25 L1498.0938,1003.1719 Z " fill="#000000"/><text fill="#000000" font-family="sans-serif" font-size="14" lengthAdjust="spacing" textLength="36" x="1516.25" y="1012.3467">Hand</text><line style="stroke:#181818;stroke-width:0.5;" x1="1365" x2="1671" y1="1023.5" y2="1023.5"/><rect fill="none" height="6" style="stroke:#C82930;stroke-width:1.0;" width="6" x="1372" y="1034.1484"/><text fill="#000000" font-family="sans-serif" font-size="14" lengthAdjust="spacing" textLength="200" x="1384" y="1040.4951">ArrayList&lt;GameCard&gt; hand</text><line style="stroke:#181818;stroke-width:0.5;" x1="1365" x2="1671" y1="1047.7969" y2="1047.7969"/><ellipse cx="1375" cy="1061.4453" fill="#84BE84" rx="3" ry="3" style="stroke:#038048;stroke-width:1.0;"/><text fill="#000000" font-family="sans-serif" font-size="14" lengthAdjust="spacing" textLength="282" x="1384" y="1064.792">ArrayList&lt;GameCard&gt; getGameCards()</text><ellipse cx="1375" cy="1077.7422" fill="#84BE84" rx="3" ry="3" style="stroke:#038048;stroke-width:1.0;"/><text fill="#000000" font-family="sans-serif" font-size="14" lengthAdjust="spacing" textLength="178" x="1384" y="1081.0889">void addCard(GameCard)</text><ellipse cx="1375" cy="1094.0391" fill="#84BE84" rx="3" ry="3" style="stroke:#038048;stroke-width:1.0;"/><text fill="#000000" font-family="sans-serif" font-size="14" lengthAdjust="spacing" textLength="207" x="1384" y="1097.3857">void removeCard(GameCard)</text></g><!--class GameCard--><g id="elem_GameCard"><rect codeLine="127" fill="#F1F1F1" height="227.2656" id="GameCard" rx="2.5" ry="2.5" style="stroke:#181818;stroke-width:0.5;" width="395" x="640.5" y="1189"/><ellipse cx="796.25" cy="1205" fill="#ADD1B2" rx="11" ry="11" style="stroke:#181818;stroke-width:1.0;"/><path d="M798.5938,1200.6719 C797.6563,1200.2344 797.0625,1200.0938 796.1875,1200.0938 C793.5625,1200.0938 791.5625,1202.1719 791.5625,1204.8906 L791.5625,1206.0156 C791.5625,1208.5938 793.6719,1210.4844 796.5625,1210.4844 C797.7813,1210.4844 798.9375,1210.1875 799.6875,1209.6406 C800.2656,1209.2344 800.5938,1208.7813 800.5938,1208.3906 C800.5938,1207.9375 800.2031,1207.5469 799.7344,1207.5469 C799.5156,1207.5469 799.3125,1207.625 799.125,1207.8125 C798.6719,1208.2969 798.6719,1208.2969 798.4844,1208.3906 C798.0625,1208.6563 797.375,1208.7813 796.6094,1208.7813 C794.5625,1208.7813 793.2656,1207.6875 793.2656,1205.9844 L793.2656,1204.8906 C793.2656,1203.1094 794.5156,1201.7969 796.25,1201.7969 C796.8281,1201.7969 797.4375,1201.9531 797.9063,1202.2031 C798.3906,1202.4844 798.5625,1202.7031 798.6563,1203.1094 C798.7188,1203.5156 798.75,1203.6406 798.8906,1203.7656 C799.0313,1203.9063 799.2656,1204.0156 799.4844,1204.0156 C799.75,1204.0156 800.0156,1203.875 800.1875,1203.6563 C800.2969,1203.5 800.3281,1203.3125 800.3281,1202.8906 L800.3281,1201.4688 C800.3281,1201.0313 800.3125,1200.9063 800.2188,1200.75 C800.0625,1200.4844 799.7813,1200.3438 799.4844,1200.3438 C799.1875,1200.3438 798.9844,1200.4375 798.7656,1200.75 L798.5938,1200.6719 Z " fill="#000000"/><text fill="#000000" font-family="sans-serif" font-size="14" lengthAdjust="spacing" textLength="75" x="816.75" y="1209.8467">GameCard</text><line style="stroke:#181818;stroke-width:0.5;" x1="641.5" x2="1034.5" y1="1221" y2="1221"/><rect fill="none" height="6" style="stroke:#C82930;stroke-width:1.0;" width="6" x="648.5" y="1231.6484"/><text fill="#000000" font-family="sans-serif" font-size="14" lengthAdjust="spacing" textLength="119" x="660.5" y="1237.9951">Side currentSide</text><rect fill="none" height="6" style="stroke:#C82930;stroke-width:1.0;" width="6" x="648.5" y="1247.9453"/><text fill="#000000" font-family="sans-serif" font-size="14" lengthAdjust="spacing" textLength="106" x="660.5" y="1254.292">Side otherSide</text><rect fill="none" height="6" style="stroke:#C82930;stroke-width:1.0;" width="6" x="648.5" y="1264.2422"/><text fill="#000000" font-family="sans-serif" font-size="14" lengthAdjust="spacing" textLength="142" x="660.5" y="1270.5889">cardColor cardColor</text><line style="stroke:#181818;stroke-width:0.5;" x1="641.5" x2="1034.5" y1="1277.8906" y2="1277.8906"/><ellipse cx="651.5" cy="1291.5391" fill="#84BE84" rx="3" ry="3" style="stroke:#038048;stroke-width:1.0;"/><text fill="#000000" font-family="sans-serif" font-size="14" lengthAdjust="spacing" textLength="156" x="660.5" y="1294.8857">Side getCurrentSide()</text><ellipse cx="651.5" cy="1307.8359" fill="#84BE84" rx="3" ry="3" style="stroke:#038048;stroke-width:1.0;"/><text fill="#000000" font-family="sans-serif" font-size="14" lengthAdjust="spacing" textLength="121" x="660.5" y="1311.1826">void switchSide()</text><ellipse cx="651.5" cy="1324.1328" fill="#84BE84" rx="3" ry="3" style="stroke:#038048;stroke-width:1.0;"/><text fill="#000000" font-family="sans-serif" font-size="14" lengthAdjust="spacing" textLength="181" x="660.5" y="1327.4795">CardColor getCardColor()</text><ellipse cx="651.5" cy="1340.4297" fill="#84BE84" rx="3" ry="3" style="stroke:#038048;stroke-width:1.0;"/><text fill="#000000" font-family="sans-serif" font-size="14" lengthAdjust="spacing" textLength="324" x="660.5" y="1343.7764">Optional&lt;Corner&gt;getCorner(CornerPosition)</text><ellipse cx="651.5" cy="1356.7266" fill="#84BE84" rx="3" ry="3" style="stroke:#038048;stroke-width:1.0;"/><text fill="#000000" font-family="sans-serif" font-size="14" lengthAdjust="spacing" textLength="369" x="660.5" y="1360.0732">GameItemEnum setCornerCovered(CornerPosition)</text><ellipse cx="651.5" cy="1373.0234" fill="#84BE84" rx="3" ry="3" style="stroke:#038048;stroke-width:1.0;"/><text fill="#000000" font-family="sans-serif" font-size="14" lengthAdjust="spacing" textLength="271" x="660.5" y="1376.3701">GameItemStore getGameItemStore()</text><ellipse cx="651.5" cy="1389.3203" fill="#84BE84" rx="3" ry="3" style="stroke:#038048;stroke-width:1.0;"/><text fill="#000000" font-family="sans-serif" font-size="14" lengthAdjust="spacing" textLength="350" x="660.5" y="1392.667">int getPoints(Optional&lt;Point&gt; pos, PlayerBoard)</text><ellipse cx="651.5" cy="1405.6172" fill="#84BE84" rx="3" ry="3" style="stroke:#038048;stroke-width:1.0;"/><text fill="#000000" font-family="sans-serif" font-size="14" lengthAdjust="spacing" textLength="284" x="660.5" y="1408.9639">GameItemStore getNeededItemStore()</text></g><!--class Store--><g id="elem_Store"><rect codeLine="108" fill="#F1F1F1" height="145.7813" id="Store" rx="2.5" ry="2.5" style="stroke:#181818;stroke-width:0.5;" width="224" x="1098" y="1229.5"/><ellipse cx="1180.25" cy="1245.5" fill="#ADD1B2" rx="11" ry="11" style="stroke:#181818;stroke-width:1.0;"/><path d="M1182.5938,1241.1719 C1181.6563,1240.7344 1181.0625,1240.5938 1180.1875,1240.5938 C1177.5625,1240.5938 1175.5625,1242.6719 1175.5625,1245.3906 L1175.5625,1246.5156 C1175.5625,1249.0938 1177.6719,1250.9844 1180.5625,1250.9844 C1181.7813,1250.9844 1182.9375,1250.6875 1183.6875,1250.1406 C1184.2656,1249.7344 1184.5938,1249.2813 1184.5938,1248.8906 C1184.5938,1248.4375 1184.2031,1248.0469 1183.7344,1248.0469 C1183.5156,1248.0469 1183.3125,1248.125 1183.125,1248.3125 C1182.6719,1248.7969 1182.6719,1248.7969 1182.4844,1248.8906 C1182.0625,1249.1563 1181.375,1249.2813 1180.6094,1249.2813 C1178.5625,1249.2813 1177.2656,1248.1875 1177.2656,1246.4844 L1177.2656,1245.3906 C1177.2656,1243.6094 1178.5156,1242.2969 1180.25,1242.2969 C1180.8281,1242.2969 1181.4375,1242.4531 1181.9063,1242.7031 C1182.3906,1242.9844 1182.5625,1243.2031 1182.6563,1243.6094 C1182.7188,1244.0156 1182.75,1244.1406 1182.8906,1244.2656 C1183.0313,1244.4063 1183.2656,1244.5156 1183.4844,1244.5156 C1183.75,1244.5156 1184.0156,1244.375 1184.1875,1244.1563 C1184.2969,1244 1184.3281,1243.8125 1184.3281,1243.3906 L1184.3281,1241.9688 C1184.3281,1241.5313 1184.3125,1241.4063 1184.2188,1241.25 C1184.0625,1240.9844 1183.7813,1240.8438 1183.4844,1240.8438 C1183.1875,1240.8438 1182.9844,1240.9375 1182.7656,1241.25 L1182.5938,1241.1719 Z " fill="#000000"/><text fill="#000000" font-family="sans-serif" font-size="14" lengthAdjust="spacing" textLength="40" x="1200.75" y="1250.3467">Store</text><rect fill="#FFFFFF" height="15.9688" style="stroke:#181818;stroke-width:1.0;stroke-dasharray:2.0,2.0;" width="9" x="1316" y="1226.5"/><text fill="#000000" font-family="sans-serif" font-size="12" font-style="italic" lengthAdjust="spacing" textLength="7" x="1317" y="1238.6387">T</text><line style="stroke:#181818;stroke-width:0.5;" x1="1099" x2="1321" y1="1261.5" y2="1261.5"/><polygon fill="none" points="1109,1270.1484,1113,1274.1484,1109,1278.1484,1105,1274.1484" style="stroke:#B38D22;stroke-width:1.0;"/><text fill="#000000" font-family="sans-serif" font-size="14" lengthAdjust="spacing" textLength="198" x="1118" y="1278.4951">HashMap&lt;T, Integer&gt; store</text><line style="stroke:#181818;stroke-width:0.5;" x1="1099" x2="1321" y1="1285.7969" y2="1285.7969"/><ellipse cx="1109" cy="1299.4453" fill="#84BE84" rx="3" ry="3" style="stroke:#038048;stroke-width:1.0;"/><text fill="#000000" font-family="sans-serif" font-size="14" lengthAdjust="spacing" textLength="55" x="1118" y="1302.792">get(T t)</text><ellipse cx="1109" cy="1315.7422" fill="#84BE84" rx="3" ry="3" style="stroke:#038048;stroke-width:1.0;"/><text fill="#000000" font-family="sans-serif" font-size="14" lengthAdjust="spacing" textLength="114" x="1118" y="1319.0889">set(T t, Integer)</text><ellipse cx="1109" cy="1332.0391" fill="#84BE84" rx="3" ry="3" style="stroke:#038048;stroke-width:1.0;"/><text fill="#000000" font-family="sans-serif" font-size="14" lengthAdjust="spacing" textLength="166" x="1118" y="1335.3857">increment(T t, Integer)</text><ellipse cx="1109" cy="1348.3359" fill="#84BE84" rx="3" ry="3" style="stroke:#038048;stroke-width:1.0;"/><text fill="#000000" font-family="sans-serif" font-size="14" lengthAdjust="spacing" textLength="171" x="1118" y="1351.6826">decrement(T t, Integer)</text><ellipse cx="1109" cy="1364.6328" fill="#84BE84" rx="3" ry="3" style="stroke:#038048;stroke-width:1.0;"/><text fill="#000000" font-family="sans-serif" font-size="14" lengthAdjust="spacing" textLength="145" x="1118" y="1367.9795">getNonEmptyKeys()</text></g><!--class GameItemStore--><g id="elem_GameItemStore"><rect codeLine="117" fill="#F1F1F1" height="80.5938" id="GameItemStore" rx="2.5" ry="2.5" style="stroke:#181818;stroke-width:0.5;" width="460" x="1034" y="1533"/><ellipse cx="1201.75" cy="1549" fill="#ADD1B2" rx="11" ry="11" style="stroke:#181818;stroke-width:1.0;"/><path d="M1204.0938,1544.6719 C1203.1563,1544.2344 1202.5625,1544.0938 1201.6875,1544.0938 C1199.0625,1544.0938 1197.0625,1546.1719 1197.0625,1548.8906 L1197.0625,1550.0156 C1197.0625,1552.5938 1199.1719,1554.4844 1202.0625,1554.4844 C1203.2813,1554.4844 1204.4375,1554.1875 1205.1875,1553.6406 C1205.7656,1553.2344 1206.0938,1552.7813 1206.0938,1552.3906 C1206.0938,1551.9375 1205.7031,1551.5469 1205.2344,1551.5469 C1205.0156,1551.5469 1204.8125,1551.625 1204.625,1551.8125 C1204.1719,1552.2969 1204.1719,1552.2969 1203.9844,1552.3906 C1203.5625,1552.6563 1202.875,1552.7813 1202.1094,1552.7813 C1200.0625,1552.7813 1198.7656,1551.6875 1198.7656,1549.9844 L1198.7656,1548.8906 C1198.7656,1547.1094 1200.0156,1545.7969 1201.75,1545.7969 C1202.3281,1545.7969 1202.9375,1545.9531 1203.4063,1546.2031 C1203.8906,1546.4844 1204.0625,1546.7031 1204.1563,1547.1094 C1204.2188,1547.5156 1204.25,1547.6406 1204.3906,1547.7656 C1204.5313,1547.9063 1204.7656,1548.0156 1204.9844,1548.0156 C1205.25,1548.0156 1205.5156,1547.875 1205.6875,1547.6563 C1205.7969,1547.5 1205.8281,1547.3125 1205.8281,1546.8906 L1205.8281,1545.4688 C1205.8281,1545.0313 1205.8125,1544.9063 1205.7188,1544.75 C1205.5625,1544.4844 1205.2813,1544.3438 1204.9844,1544.3438 C1204.6875,1544.3438 1204.4844,1544.4375 1204.2656,1544.75 L1204.0938,1544.6719 Z " fill="#000000"/><text fill="#000000" font-family="sans-serif" font-size="14" lengthAdjust="spacing" textLength="116" x="1222.25" y="1553.8467">GameItemStore</text><line style="stroke:#181818;stroke-width:0.5;" x1="1035" x2="1493" y1="1565" y2="1565"/><line style="stroke:#181818;stroke-width:0.5;" x1="1035" x2="1493" y1="1573" y2="1573"/><ellipse cx="1045" cy="1586.6484" fill="#84BE84" rx="3" ry="3" style="stroke:#038048;stroke-width:1.0;"/><text fill="#000000" font-family="sans-serif" font-size="14" lengthAdjust="spacing" textLength="126" x="1054" y="1589.9951">GameItemStore()</text><ellipse cx="1045" cy="1602.9453" fill="#84BE84" rx="3" ry="3" style="stroke:#038048;stroke-width:1.0;"/><text fill="#000000" font-family="sans-serif" font-size="14" lengthAdjust="spacing" textLength="434" x="1054" y="1606.292">GameItemStore(HashMap&lt;GameItem, Integer&gt; gameItems)</text></g><!--class Side--><g id="elem_Side"><rect codeLine="143" fill="#F1F1F1" height="194.6719" id="Side" rx="2.5" ry="2.5" style="stroke:#181818;stroke-width:0.5;" width="376" x="623" y="1476"/><ellipse cx="791.25" cy="1492" fill="#A9DCDF" rx="11" ry="11" style="stroke:#181818;stroke-width:1.0;"/><path d="M793.3281,1493.8125 L793.7188,1494.7969 L793.3281,1494.7969 C792.875,1494.7969 792.7656,1494.8125 792.6094,1494.9219 C792.3594,1495.0781 792.2031,1495.3594 792.2031,1495.6563 C792.2031,1495.9219 792.3438,1496.1719 792.5625,1496.3281 C792.7031,1496.4531 792.9063,1496.5 793.3281,1496.5 L795.6875,1496.5 C796.0469,1496.5 796.2656,1496.4688 796.4063,1496.375 C796.6563,1496.2344 796.8125,1495.9375 796.8125,1495.6563 C796.8125,1495.375 796.6719,1495.125 796.4531,1494.9688 C796.2813,1494.8281 796.125,1494.7969 795.6563,1494.7969 L792.2656,1486.5938 L788.5938,1486.5938 C788.1406,1486.5938 788.0156,1486.6094 787.8594,1486.7031 C787.6094,1486.875 787.4531,1487.1563 787.4531,1487.4375 C787.4531,1487.7188 787.5938,1487.9688 787.8125,1488.1406 C787.9844,1488.25 788.1563,1488.2813 788.5938,1488.2813 L789.6719,1488.2813 L787.0313,1494.7969 C786.6094,1494.7969 786.4531,1494.8125 786.2969,1494.9219 C786.0469,1495.0781 785.8906,1495.3594 785.8906,1495.6563 C785.8906,1496.2188 786.2656,1496.5 787.0156,1496.5 L789.2813,1496.5 C789.6406,1496.5 789.8594,1496.4688 789.9844,1496.375 C790.25,1496.2344 790.3906,1495.9375 790.3906,1495.6563 C790.3906,1495.375 790.2656,1495.125 790.0469,1494.9531 C789.875,1494.8281 789.7344,1494.7969 789.2813,1494.7969 L788.8906,1494.7969 L789.2813,1493.8125 L793.3281,1493.8125 Z M792.625,1492.1094 L789.9531,1492.1094 L791.2969,1488.8438 L792.625,1492.1094 Z " fill="#000000"/><text fill="#000000" font-family="sans-serif" font-size="14" font-style="italic" lengthAdjust="spacing" textLength="31" x="811.75" y="1496.8467">Side</text><line style="stroke:#181818;stroke-width:0.5;" x1="624" x2="998" y1="1508" y2="1508"/><polygon fill="none" points="634,1516.6484,638,1520.6484,634,1524.6484,630,1520.6484" style="stroke:#B38D22;stroke-width:1.0;"/><text fill="#000000" font-family="sans-serif" font-size="14" lengthAdjust="spacing" textLength="198" x="643" y="1524.9951">Optional&lt;Corner&gt;topRight</text><polygon fill="none" points="634,1532.9453,638,1536.9453,634,1540.9453,630,1536.9453" style="stroke:#B38D22;stroke-width:1.0;"/><text fill="#000000" font-family="sans-serif" font-size="14" lengthAdjust="spacing" textLength="189" x="643" y="1541.292">Optional&lt;Corner&gt;topLeft</text><polygon fill="none" points="634,1549.2422,638,1553.2422,634,1557.2422,630,1553.2422" style="stroke:#B38D22;stroke-width:1.0;"/><text fill="#000000" font-family="sans-serif" font-size="14" lengthAdjust="spacing" textLength="219" x="643" y="1557.5889">Optional&lt;Corner&gt;bottomLeft</text><polygon fill="none" points="634,1565.5391,638,1569.5391,634,1573.5391,630,1569.5391" style="stroke:#B38D22;stroke-width:1.0;"/><text fill="#000000" font-family="sans-serif" font-size="14" lengthAdjust="spacing" textLength="228" x="643" y="1573.8857">Optional&lt;Corner&gt;bottomRight</text><line style="stroke:#181818;stroke-width:0.5;" x1="624" x2="998" y1="1581.1875" y2="1581.1875"/><ellipse cx="634" cy="1594.8359" fill="#84BE84" rx="3" ry="3" style="stroke:#038048;stroke-width:1.0;"/><text fill="#000000" font-family="sans-serif" font-size="14" lengthAdjust="spacing" textLength="191" x="643" y="1598.1826">getCorner(CornerPosition)</text><ellipse cx="634" cy="1611.1328" fill="#84BE84" rx="3" ry="3" style="stroke:#038048;stroke-width:1.0;"/><text fill="#000000" font-family="sans-serif" font-size="14" lengthAdjust="spacing" textLength="249" x="643" y="1614.4795">setCornerCovered(CornerPosition)</text><ellipse cx="634" cy="1627.4297" fill="#84BE84" rx="3" ry="3" style="stroke:#038048;stroke-width:1.0;"/><text fill="#000000" font-family="sans-serif" font-size="14" lengthAdjust="spacing" textLength="271" x="643" y="1630.7764">GameItemStore getGameItemStore()</text><ellipse cx="634" cy="1643.7266" fill="#84BE84" rx="3" ry="3" style="stroke:#038048;stroke-width:1.0;"/><text fill="#000000" font-family="sans-serif" font-size="14" lengthAdjust="spacing" textLength="350" x="643" y="1647.0732">int getPoints(Optional&lt;Point&gt; pos, PlayerBoard)</text><ellipse cx="634" cy="1660.0234" fill="#84BE84" rx="3" ry="3" style="stroke:#038048;stroke-width:1.0;"/><text fill="#000000" font-family="sans-serif" font-size="14" lengthAdjust="spacing" textLength="284" x="643" y="1663.3701">GameItemStore getNeededItemStore()</text></g><!--class Front--><g id="elem_Front"><rect codeLine="179" fill="#F1F1F1" height="96.8906" id="Front" rx="2.5" ry="2.5" style="stroke:#181818;stroke-width:0.5;" width="376" x="212" y="1747"/><ellipse cx="376.25" cy="1763" fill="#ADD1B2" rx="11" ry="11" style="stroke:#181818;stroke-width:1.0;"/><path d="M378.5938,1758.6719 C377.6563,1758.2344 377.0625,1758.0938 376.1875,1758.0938 C373.5625,1758.0938 371.5625,1760.1719 371.5625,1762.8906 L371.5625,1764.0156 C371.5625,1766.5938 373.6719,1768.4844 376.5625,1768.4844 C377.7813,1768.4844 378.9375,1768.1875 379.6875,1767.6406 C380.2656,1767.2344 380.5938,1766.7813 380.5938,1766.3906 C380.5938,1765.9375 380.2031,1765.5469 379.7344,1765.5469 C379.5156,1765.5469 379.3125,1765.625 379.125,1765.8125 C378.6719,1766.2969 378.6719,1766.2969 378.4844,1766.3906 C378.0625,1766.6563 377.375,1766.7813 376.6094,1766.7813 C374.5625,1766.7813 373.2656,1765.6875 373.2656,1763.9844 L373.2656,1762.8906 C373.2656,1761.1094 374.5156,1759.7969 376.25,1759.7969 C376.8281,1759.7969 377.4375,1759.9531 377.9063,1760.2031 C378.3906,1760.4844 378.5625,1760.7031 378.6563,1761.1094 C378.7188,1761.5156 378.75,1761.6406 378.8906,1761.7656 C379.0313,1761.9063 379.2656,1762.0156 379.4844,1762.0156 C379.75,1762.0156 380.0156,1761.875 380.1875,1761.6563 C380.2969,1761.5 380.3281,1761.3125 380.3281,1760.8906 L380.3281,1759.4688 C380.3281,1759.0313 380.3125,1758.9063 380.2188,1758.75 C380.0625,1758.4844 379.7813,1758.3438 379.4844,1758.3438 C379.1875,1758.3438 378.9844,1758.4375 378.7656,1758.75 L378.5938,1758.6719 Z " fill="#000000"/><text fill="#000000" font-family="sans-serif" font-size="14" lengthAdjust="spacing" textLength="39" x="396.75" y="1767.8467">Front</text><line style="stroke:#181818;stroke-width:0.5;" x1="213" x2="587" y1="1779" y2="1779"/><polygon fill="none" points="223,1787.6484,227,1791.6484,223,1795.6484,219,1791.6484" style="stroke:#B38D22;stroke-width:1.0;"/><text fill="#000000" font-family="sans-serif" font-size="14" lengthAdjust="spacing" textLength="70" x="232" y="1795.9951">int points</text><line style="stroke:#181818;stroke-width:0.5;" x1="213" x2="587" y1="1803.2969" y2="1803.2969"/><ellipse cx="223" cy="1816.9453" fill="#84BE84" rx="3" ry="3" style="stroke:#038048;stroke-width:1.0;"/><text fill="#000000" font-family="sans-serif" font-size="14" lengthAdjust="spacing" textLength="151" x="232" y="1820.292">getGameItemStore()</text><ellipse cx="223" cy="1833.2422" fill="#84BE84" rx="3" ry="3" style="stroke:#038048;stroke-width:1.0;"/><text fill="#000000" font-family="sans-serif" font-size="14" lengthAdjust="spacing" textLength="350" x="232" y="1836.5889">int getPoints(Optional&lt;Point&gt; pos, PlayerBoard)</text></g><!--class Back--><g id="elem_Back"><rect codeLine="209" fill="#F1F1F1" height="96.8906" id="Back" rx="2.5" ry="2.5" style="stroke:#181818;stroke-width:0.5;" width="376" x="623" y="1747"/><ellipse cx="789.25" cy="1763" fill="#ADD1B2" rx="11" ry="11" style="stroke:#181818;stroke-width:1.0;"/><path d="M791.5938,1758.6719 C790.6563,1758.2344 790.0625,1758.0938 789.1875,1758.0938 C786.5625,1758.0938 784.5625,1760.1719 784.5625,1762.8906 L784.5625,1764.0156 C784.5625,1766.5938 786.6719,1768.4844 789.5625,1768.4844 C790.7813,1768.4844 791.9375,1768.1875 792.6875,1767.6406 C793.2656,1767.2344 793.5938,1766.7813 793.5938,1766.3906 C793.5938,1765.9375 793.2031,1765.5469 792.7344,1765.5469 C792.5156,1765.5469 792.3125,1765.625 792.125,1765.8125 C791.6719,1766.2969 791.6719,1766.2969 791.4844,1766.3906 C791.0625,1766.6563 790.375,1766.7813 789.6094,1766.7813 C787.5625,1766.7813 786.2656,1765.6875 786.2656,1763.9844 L786.2656,1762.8906 C786.2656,1761.1094 787.5156,1759.7969 789.25,1759.7969 C789.8281,1759.7969 790.4375,1759.9531 790.9063,1760.2031 C791.3906,1760.4844 791.5625,1760.7031 791.6563,1761.1094 C791.7188,1761.5156 791.75,1761.6406 791.8906,1761.7656 C792.0313,1761.9063 792.2656,1762.0156 792.4844,1762.0156 C792.75,1762.0156 793.0156,1761.875 793.1875,1761.6563 C793.2969,1761.5 793.3281,1761.3125 793.3281,1760.8906 L793.3281,1759.4688 C793.3281,1759.0313 793.3125,1758.9063 793.2188,1758.75 C793.0625,1758.4844 792.7813,1758.3438 792.4844,1758.3438 C792.1875,1758.3438 791.9844,1758.4375 791.7656,1758.75 L791.5938,1758.6719 Z " fill="#000000"/><text fill="#000000" font-family="sans-serif" font-size="14" lengthAdjust="spacing" textLength="35" x="809.75" y="1767.8467">Back</text><line style="stroke:#181818;stroke-width:0.5;" x1="624" x2="998" y1="1779" y2="1779"/><polygon fill="none" points="634,1787.6484,638,1791.6484,634,1795.6484,630,1791.6484" style="stroke:#B38D22;stroke-width:1.0;"/><text fill="#000000" font-family="sans-serif" font-size="14" lengthAdjust="spacing" textLength="189" x="643" y="1795.9951">GameItemStore resources</text><line style="stroke:#181818;stroke-width:0.5;" x1="624" x2="998" y1="1803.2969" y2="1803.2969"/><ellipse cx="634" cy="1816.9453" fill="#84BE84" rx="3" ry="3" style="stroke:#038048;stroke-width:1.0;"/><text fill="#000000" font-family="sans-serif" font-size="14" lengthAdjust="spacing" textLength="151" x="643" y="1820.292">getGameItemStore()</text><ellipse cx="634" cy="1833.2422" fill="#84BE84" rx="3" ry="3" style="stroke:#038048;stroke-width:1.0;"/><text fill="#000000" font-family="sans-serif" font-size="14" lengthAdjust="spacing" textLength="350" x="643" y="1836.5889">int getPoints(Optional&lt;Point&gt; pos, PlayerBoard)</text></g><!--class Corner--><g id="elem_Corner"><rect codeLine="159" fill="#F1F1F1" height="129.4844" id="Corner" rx="2.5" ry="2.5" style="stroke:#181818;stroke-width:0.5;" width="257" x="1034.5" y="1731"/><ellipse cx="1134.25" cy="1747" fill="#ADD1B2" rx="11" ry="11" style="stroke:#181818;stroke-width:1.0;"/><path d="M1136.5938,1742.6719 C1135.6563,1742.2344 1135.0625,1742.0938 1134.1875,1742.0938 C1131.5625,1742.0938 1129.5625,1744.1719 1129.5625,1746.8906 L1129.5625,1748.0156 C1129.5625,1750.5938 1131.6719,1752.4844 1134.5625,1752.4844 C1135.7813,1752.4844 1136.9375,1752.1875 1137.6875,1751.6406 C1138.2656,1751.2344 1138.5938,1750.7813 1138.5938,1750.3906 C1138.5938,1749.9375 1138.2031,1749.5469 1137.7344,1749.5469 C1137.5156,1749.5469 1137.3125,1749.625 1137.125,1749.8125 C1136.6719,1750.2969 1136.6719,1750.2969 1136.4844,1750.3906 C1136.0625,1750.6563 1135.375,1750.7813 1134.6094,1750.7813 C1132.5625,1750.7813 1131.2656,1749.6875 1131.2656,1747.9844 L1131.2656,1746.8906 C1131.2656,1745.1094 1132.5156,1743.7969 1134.25,1743.7969 C1134.8281,1743.7969 1135.4375,1743.9531 1135.9063,1744.2031 C1136.3906,1744.4844 1136.5625,1744.7031 1136.6563,1745.1094 C1136.7188,1745.5156 1136.75,1745.6406 1136.8906,1745.7656 C1137.0313,1745.9063 1137.2656,1746.0156 1137.4844,1746.0156 C1137.75,1746.0156 1138.0156,1745.875 1138.1875,1745.6563 C1138.2969,1745.5 1138.3281,1745.3125 1138.3281,1744.8906 L1138.3281,1743.4688 C1138.3281,1743.0313 1138.3125,1742.9063 1138.2188,1742.75 C1138.0625,1742.4844 1137.7813,1742.3438 1137.4844,1742.3438 C1137.1875,1742.3438 1136.9844,1742.4375 1136.7656,1742.75 L1136.5938,1742.6719 Z " fill="#000000"/><text fill="#000000" font-family="sans-serif" font-size="14" lengthAdjust="spacing" textLength="49" x="1154.75" y="1751.8467">Corner</text><line style="stroke:#181818;stroke-width:0.5;" x1="1035.5" x2="1290.5" y1="1763" y2="1763"/><rect fill="none" height="6" style="stroke:#C82930;stroke-width:1.0;" width="6" x="1042.5" y="1773.6484"/><text fill="#000000" font-family="sans-serif" font-size="14" lengthAdjust="spacing" textLength="133" x="1054.5" y="1779.9951">boolean isCovered</text><rect fill="none" height="6" style="stroke:#C82930;stroke-width:1.0;" width="6" x="1042.5" y="1789.9453"/><text fill="#000000" font-family="sans-serif" font-size="14" lengthAdjust="spacing" textLength="194" x="1054.5" y="1796.292">GameItemEnum gameItem</text><line style="stroke:#181818;stroke-width:0.5;" x1="1035.5" x2="1290.5" y1="1803.5938" y2="1803.5938"/><ellipse cx="1045.5" cy="1817.2422" fill="#84BE84" rx="3" ry="3" style="stroke:#038048;stroke-width:1.0;"/><text fill="#000000" font-family="sans-serif" font-size="14" lengthAdjust="spacing" textLength="231" x="1054.5" y="1820.5889">GameItemEnum getGameItem()</text><ellipse cx="1045.5" cy="1833.5391" fill="#84BE84" rx="3" ry="3" style="stroke:#038048;stroke-width:1.0;"/><text fill="#000000" font-family="sans-serif" font-size="14" lengthAdjust="spacing" textLength="213" x="1054.5" y="1836.8857">GameItemEnum setCovered()</text><ellipse cx="1045.5" cy="1849.8359" fill="#84BE84" rx="3" ry="3" style="stroke:#038048;stroke-width:1.0;"/><text fill="#000000" font-family="sans-serif" font-size="14" lengthAdjust="spacing" textLength="131" x="1054.5" y="1853.1826">Boolean isEmpty()</text></g><g id="elem_GMN32"><path d="M840.5,1933 L840.5,1988.3984 A0,0 0 0 0 840.5,1988.3984 L1485.5,1988.3984 A0,0 0 0 0 1485.5,1988.3984 L1485.5,1943 L1475.5,1933 L1167,1933 L1163,1860.454 L1159,1933 L840.5,1933 A0,0 0 0 0 840.5,1933 " fill="#FEFFDD" style="stroke:#181818;stroke-width:0.5;"/><path d="M1475.5,1933 L1475.5,1943 L1485.5,1943 L1475.5,1933 " fill="#FEFFDD" style="stroke:#181818;stroke-width:0.5;"/><text fill="#000000" font-family="sans-serif" font-size="13" lengthAdjust="spacing" textLength="514" x="846.5" y="1950.0669">Nel caso in cui un Corner &#232; vuoto, allora risulter&#224; avere GameItemEnum = NONE</text><text fill="#000000" font-family="sans-serif" font-size="13" lengthAdjust="spacing" textLength="420" x="846.5" y="1965.1997">Se invece il Corner non esiste, il getter restituir&#224; Optional.empty()</text><text fill="#000000" font-family="sans-serif" font-size="13" lengthAdjust="spacing" textLength="624" x="846.5" y="1980.3325">Se la carta &#232; piazzata, significa che non devo preoccuparmi di accesso a Corner Optional.empty()</text></g><!--class FrontGoldCard--><g id="elem_FrontGoldCard"><rect codeLine="187" fill="#F1F1F1" height="80.5938" id="FrontGoldCard" rx="2.5" ry="2.5" style="stroke:#181818;stroke-width:0.5;" width="241" x="279.5" y="1920"/><ellipse cx="343.25" cy="1936" fill="#ADD1B2" rx="11" ry="11" style="stroke:#181818;stroke-width:1.0;"/><path d="M345.5938,1931.6719 C344.6563,1931.2344 344.0625,1931.0938 343.1875,1931.0938 C340.5625,1931.0938 338.5625,1933.1719 338.5625,1935.8906 L338.5625,1937.0156 C338.5625,1939.5938 340.6719,1941.4844 343.5625,1941.4844 C344.7813,1941.4844 345.9375,1941.1875 346.6875,1940.6406 C347.2656,1940.2344 347.5938,1939.7813 347.5938,1939.3906 C347.5938,1938.9375 347.2031,1938.5469 346.7344,1938.5469 C346.5156,1938.5469 346.3125,1938.625 346.125,1938.8125 C345.6719,1939.2969 345.6719,1939.2969 345.4844,1939.3906 C345.0625,1939.6563 344.375,1939.7813 343.6094,1939.7813 C341.5625,1939.7813 340.2656,1938.6875 340.2656,1936.9844 L340.2656,1935.8906 C340.2656,1934.1094 341.5156,1932.7969 343.25,1932.7969 C343.8281,1932.7969 344.4375,1932.9531 344.9063,1933.2031 C345.3906,1933.4844 345.5625,1933.7031 345.6563,1934.1094 C345.7188,1934.5156 345.75,1934.6406 345.8906,1934.7656 C346.0313,1934.9063 346.2656,1935.0156 346.4844,1935.0156 C346.75,1935.0156 347.0156,1934.875 347.1875,1934.6563 C347.2969,1934.5 347.3281,1934.3125 347.3281,1933.8906 L347.3281,1932.4688 C347.3281,1932.0313 347.3125,1931.9063 347.2188,1931.75 C347.0625,1931.4844 346.7813,1931.3438 346.4844,1931.3438 C346.1875,1931.3438 345.9844,1931.4375 345.7656,1931.75 L345.5938,1931.6719 Z " fill="#000000"/><text fill="#000000" font-family="sans-serif" font-size="14" lengthAdjust="spacing" textLength="105" x="363.75" y="1940.8467">FrontGoldCard</text><line style="stroke:#181818;stroke-width:0.5;" x1="280.5" x2="519.5" y1="1952" y2="1952"/><polygon fill="none" points="290.5,1960.6484,294.5,1964.6484,290.5,1968.6484,286.5,1964.6484" style="stroke:#B38D22;stroke-width:1.0;"/><text fill="#000000" font-family="sans-serif" font-size="14" lengthAdjust="spacing" textLength="215" x="299.5" y="1968.9951">GameItemStore neededItems</text><line style="stroke:#181818;stroke-width:0.5;" x1="280.5" x2="519.5" y1="1976.2969" y2="1976.2969"/><ellipse cx="290.5" cy="1989.9453" fill="#84BE84" rx="3" ry="3" style="stroke:#038048;stroke-width:1.0;"/><text fill="#000000" font-family="sans-serif" font-size="14" lengthAdjust="spacing" textLength="164" x="299.5" y="1993.292">getNeededItemStore()</text></g><!--class FrontPositionalGoldCard--><g id="elem_FrontPositionalGoldCard"><rect codeLine="196" fill="#F1F1F1" height="64.2969" id="FrontPositionalGoldCard" rx="2.5" ry="2.5" style="stroke:#181818;stroke-width:0.5;" width="376" x="7" y="2069.5"/><ellipse cx="103.25" cy="2085.5" fill="#ADD1B2" rx="11" ry="11" style="stroke:#181818;stroke-width:1.0;"/><path d="M105.5938,2081.1719 C104.6563,2080.7344 104.0625,2080.5938 103.1875,2080.5938 C100.5625,2080.5938 98.5625,2082.6719 98.5625,2085.3906 L98.5625,2086.5156 C98.5625,2089.0938 100.6719,2090.9844 103.5625,2090.9844 C104.7813,2090.9844 105.9375,2090.6875 106.6875,2090.1406 C107.2656,2089.7344 107.5938,2089.2813 107.5938,2088.8906 C107.5938,2088.4375 107.2031,2088.0469 106.7344,2088.0469 C106.5156,2088.0469 106.3125,2088.125 106.125,2088.3125 C105.6719,2088.7969 105.6719,2088.7969 105.4844,2088.8906 C105.0625,2089.1563 104.375,2089.2813 103.6094,2089.2813 C101.5625,2089.2813 100.2656,2088.1875 100.2656,2086.4844 L100.2656,2085.3906 C100.2656,2083.6094 101.5156,2082.2969 103.25,2082.2969 C103.8281,2082.2969 104.4375,2082.4531 104.9063,2082.7031 C105.3906,2082.9844 105.5625,2083.2031 105.6563,2083.6094 C105.7188,2084.0156 105.75,2084.1406 105.8906,2084.2656 C106.0313,2084.4063 106.2656,2084.5156 106.4844,2084.5156 C106.75,2084.5156 107.0156,2084.375 107.1875,2084.1563 C107.2969,2084 107.3281,2083.8125 107.3281,2083.3906 L107.3281,2081.9688 C107.3281,2081.5313 107.3125,2081.4063 107.2188,2081.25 C107.0625,2080.9844 106.7813,2080.8438 106.4844,2080.8438 C106.1875,2080.8438 105.9844,2080.9375 105.7656,2081.25 L105.5938,2081.1719 Z " fill="#000000"/><text fill="#000000" font-family="sans-serif" font-size="14" lengthAdjust="spacing" textLength="175" x="123.75" y="2090.3467">FrontPositionalGoldCard</text><line style="stroke:#181818;stroke-width:0.5;" x1="8" x2="382" y1="2101.5" y2="2101.5"/><line style="stroke:#181818;stroke-width:0.5;" x1="8" x2="382" y1="2109.5" y2="2109.5"/><ellipse cx="18" cy="2123.1484" fill="#84BE84" rx="3" ry="3" style="stroke:#038048;stroke-width:1.0;"/><text fill="#000000" font-family="sans-serif" font-size="14" lengthAdjust="spacing" textLength="350" x="27" y="2126.4951">int getPoints(Optional&lt;Point&gt; pos, PlayerBoard)</text></g><!--class FrontItemGoldCard--><g id="elem_FrontItemGoldCard"><rect codeLine="202" fill="#F1F1F1" height="80.5938" id="FrontItemGoldCard" rx="2.5" ry="2.5" style="stroke:#181818;stroke-width:0.5;" width="376" x="418" y="2061"/><ellipse cx="532.25" cy="2077" fill="#ADD1B2" rx="11" ry="11" style="stroke:#181818;stroke-width:1.0;"/><path d="M534.5938,2072.6719 C533.6563,2072.2344 533.0625,2072.0938 532.1875,2072.0938 C529.5625,2072.0938 527.5625,2074.1719 527.5625,2076.8906 L527.5625,2078.0156 C527.5625,2080.5938 529.6719,2082.4844 532.5625,2082.4844 C533.7813,2082.4844 534.9375,2082.1875 535.6875,2081.6406 C536.2656,2081.2344 536.5938,2080.7813 536.5938,2080.3906 C536.5938,2079.9375 536.2031,2079.5469 535.7344,2079.5469 C535.5156,2079.5469 535.3125,2079.625 535.125,2079.8125 C534.6719,2080.2969 534.6719,2080.2969 534.4844,2080.3906 C534.0625,2080.6563 533.375,2080.7813 532.6094,2080.7813 C530.5625,2080.7813 529.2656,2079.6875 529.2656,2077.9844 L529.2656,2076.8906 C529.2656,2075.1094 530.5156,2073.7969 532.25,2073.7969 C532.8281,2073.7969 533.4375,2073.9531 533.9063,2074.2031 C534.3906,2074.4844 534.5625,2074.7031 534.6563,2075.1094 C534.7188,2075.5156 534.75,2075.6406 534.8906,2075.7656 C535.0313,2075.9063 535.2656,2076.0156 535.4844,2076.0156 C535.75,2076.0156 536.0156,2075.875 536.1875,2075.6563 C536.2969,2075.5 536.3281,2075.3125 536.3281,2074.8906 L536.3281,2073.4688 C536.3281,2073.0313 536.3125,2072.9063 536.2188,2072.75 C536.0625,2072.4844 535.7813,2072.3438 535.4844,2072.3438 C535.1875,2072.3438 534.9844,2072.4375 534.7656,2072.75 L534.5938,2072.6719 Z " fill="#000000"/><text fill="#000000" font-family="sans-serif" font-size="14" lengthAdjust="spacing" textLength="139" x="552.75" y="2081.8467">FrontItemGoldCard</text><line style="stroke:#181818;stroke-width:0.5;" x1="419" x2="793" y1="2093" y2="2093"/><rect fill="none" height="6" style="stroke:#C82930;stroke-width:1.0;" width="6" x="426" y="2103.6484"/><text fill="#000000" font-family="sans-serif" font-size="14" lengthAdjust="spacing" textLength="190" x="438" y="2109.9951">GameItemEnum multiplier</text><line style="stroke:#181818;stroke-width:0.5;" x1="419" x2="793" y1="2117.2969" y2="2117.2969"/><ellipse cx="429" cy="2130.9453" fill="#84BE84" rx="3" ry="3" style="stroke:#038048;stroke-width:1.0;"/><text fill="#000000" font-family="sans-serif" font-size="14" lengthAdjust="spacing" textLength="350" x="438" y="2134.292">int getPoints(Optional&lt;Point&gt; pos, PlayerBoard)</text></g><!--class ObjectiveCard--><g id="elem_ObjectiveCard"><rect codeLine="217" fill="#F1F1F1" height="80.5938" id="ObjectiveCard" rx="2.5" ry="2.5" style="stroke:#181818;stroke-width:0.5;" width="376" x="1707" y="1007.5"/><ellipse cx="1840.25" cy="1023.5" fill="#A9DCDF" rx="11" ry="11" style="stroke:#181818;stroke-width:1.0;"/><path d="M1842.3281,1025.3125 L1842.7188,1026.2969 L1842.3281,1026.2969 C1841.875,1026.2969 1841.7656,1026.3125 1841.6094,1026.4219 C1841.3594,1026.5781 1841.2031,1026.8594 1841.2031,1027.1563 C1841.2031,1027.4219 1841.3438,1027.6719 1841.5625,1027.8281 C1841.7031,1027.9531 1841.9063,1028 1842.3281,1028 L1844.6875,1028 C1845.0469,1028 1845.2656,1027.9688 1845.4063,1027.875 C1845.6563,1027.7344 1845.8125,1027.4375 1845.8125,1027.1563 C1845.8125,1026.875 1845.6719,1026.625 1845.4531,1026.4688 C1845.2813,1026.3281 1845.125,1026.2969 1844.6563,1026.2969 L1841.2656,1018.0938 L1837.5938,1018.0938 C1837.1406,1018.0938 1837.0156,1018.1094 1836.8594,1018.2031 C1836.6094,1018.375 1836.4531,1018.6563 1836.4531,1018.9375 C1836.4531,1019.2188 1836.5938,1019.4688 1836.8125,1019.6406 C1836.9844,1019.75 1837.1563,1019.7813 1837.5938,1019.7813 L1838.6719,1019.7813 L1836.0313,1026.2969 C1835.6094,1026.2969 1835.4531,1026.3125 1835.2969,1026.4219 C1835.0469,1026.5781 1834.8906,1026.8594 1834.8906,1027.1563 C1834.8906,1027.7188 1835.2656,1028 1836.0156,1028 L1838.2813,1028 C1838.6406,1028 1838.8594,1027.9688 1838.9844,1027.875 C1839.25,1027.7344 1839.3906,1027.4375 1839.3906,1027.1563 C1839.3906,1026.875 1839.2656,1026.625 1839.0469,1026.4531 C1838.875,1026.3281 1838.7344,1026.2969 1838.2813,1026.2969 L1837.8906,1026.2969 L1838.2813,1025.3125 L1842.3281,1025.3125 Z M1841.625,1023.6094 L1838.9531,1023.6094 L1840.2969,1020.3438 L1841.625,1023.6094 Z " fill="#000000"/><text fill="#000000" font-family="sans-serif" font-size="14" font-style="italic" lengthAdjust="spacing" textLength="101" x="1860.75" y="1028.3467">ObjectiveCard</text><line style="stroke:#181818;stroke-width:0.5;" x1="1708" x2="2082" y1="1039.5" y2="1039.5"/><polygon fill="none" points="1718,1048.1484,1722,1052.1484,1718,1056.1484,1714,1052.1484" style="stroke:#B38D22;stroke-width:1.0;"/><text fill="#000000" font-family="sans-serif" font-size="14" lengthAdjust="spacing" textLength="135" x="1727" y="1056.4951">Integer pointsWon</text><line style="stroke:#181818;stroke-width:0.5;" x1="1708" x2="2082" y1="1063.7969" y2="1063.7969"/><ellipse cx="1718" cy="1077.4453" fill="#84BE84" rx="3" ry="3" style="stroke:#038048;stroke-width:1.0;"/><text fill="#000000" font-family="sans-serif" font-size="14" lengthAdjust="spacing" textLength="350" x="1727" y="1080.792">int getPoints(Optional&lt;Point&gt; pos, PlayerBoard)</text></g><!--class PositionalObjectiveCard--><g id="elem_PositionalObjectiveCard"><rect codeLine="245" fill="#F1F1F1" height="80.5938" id="PositionalObjectiveCard" rx="2.5" ry="2.5" style="stroke:#181818;stroke-width:0.5;" width="376" x="1549" y="1262"/><ellipse cx="1646.25" cy="1278" fill="#ADD1B2" rx="11" ry="11" style="stroke:#181818;stroke-width:1.0;"/><path d="M1648.5938,1273.6719 C1647.6563,1273.2344 1647.0625,1273.0938 1646.1875,1273.0938 C1643.5625,1273.0938 1641.5625,1275.1719 1641.5625,1277.8906 L1641.5625,1279.0156 C1641.5625,1281.5938 1643.6719,1283.4844 1646.5625,1283.4844 C1647.7813,1283.4844 1648.9375,1283.1875 1649.6875,1282.6406 C1650.2656,1282.2344 1650.5938,1281.7813 1650.5938,1281.3906 C1650.5938,1280.9375 1650.2031,1280.5469 1649.7344,1280.5469 C1649.5156,1280.5469 1649.3125,1280.625 1649.125,1280.8125 C1648.6719,1281.2969 1648.6719,1281.2969 1648.4844,1281.3906 C1648.0625,1281.6563 1647.375,1281.7813 1646.6094,1281.7813 C1644.5625,1281.7813 1643.2656,1280.6875 1643.2656,1278.9844 L1643.2656,1277.8906 C1643.2656,1276.1094 1644.5156,1274.7969 1646.25,1274.7969 C1646.8281,1274.7969 1647.4375,1274.9531 1647.9063,1275.2031 C1648.3906,1275.4844 1648.5625,1275.7031 1648.6563,1276.1094 C1648.7188,1276.5156 1648.75,1276.6406 1648.8906,1276.7656 C1649.0313,1276.9063 1649.2656,1277.0156 1649.4844,1277.0156 C1649.75,1277.0156 1650.0156,1276.875 1650.1875,1276.6563 C1650.2969,1276.5 1650.3281,1276.3125 1650.3281,1275.8906 L1650.3281,1274.4688 C1650.3281,1274.0313 1650.3125,1273.9063 1650.2188,1273.75 C1650.0625,1273.4844 1649.7813,1273.3438 1649.4844,1273.3438 C1649.1875,1273.3438 1648.9844,1273.4375 1648.7656,1273.75 L1648.5938,1273.6719 Z " fill="#000000"/><text fill="#000000" font-family="sans-serif" font-size="14" lengthAdjust="spacing" textLength="173" x="1666.75" y="1282.8467">PositionalObjectiveCard</text><line style="stroke:#181818;stroke-width:0.5;" x1="1550" x2="1924" y1="1294" y2="1294"/><rect fill="none" height="6" style="stroke:#C82930;stroke-width:1.0;" width="6" x="1557" y="1304.6484"/><text fill="#000000" font-family="sans-serif" font-size="14" lengthAdjust="spacing" textLength="299" x="1569" y="1310.9951">ArrayList&lt;PositionalData&gt; positionalData</text><line style="stroke:#181818;stroke-width:0.5;" x1="1550" x2="1924" y1="1318.2969" y2="1318.2969"/><ellipse cx="1560" cy="1331.9453" fill="#84BE84" rx="3" ry="3" style="stroke:#038048;stroke-width:1.0;"/><text fill="#000000" font-family="sans-serif" font-size="14" lengthAdjust="spacing" textLength="350" x="1569" y="1335.292">int getPoints(Optional&lt;Point&gt; pos, PlayerBoard)</text></g><!--class ItemObjectiveCard--><g id="elem_ItemObjectiveCard"><rect codeLine="227" fill="#F1F1F1" height="80.5938" id="ItemObjectiveCard" rx="2.5" ry="2.5" style="stroke:#181818;stroke-width:0.5;" width="376" x="1960" y="1262"/><ellipse cx="2075.25" cy="1278" fill="#ADD1B2" rx="11" ry="11" style="stroke:#181818;stroke-width:1.0;"/><path d="M2077.5938,1273.6719 C2076.6563,1273.2344 2076.0625,1273.0938 2075.1875,1273.0938 C2072.5625,1273.0938 2070.5625,1275.1719 2070.5625,1277.8906 L2070.5625,1279.0156 C2070.5625,1281.5938 2072.6719,1283.4844 2075.5625,1283.4844 C2076.7813,1283.4844 2077.9375,1283.1875 2078.6875,1282.6406 C2079.2656,1282.2344 2079.5938,1281.7813 2079.5938,1281.3906 C2079.5938,1280.9375 2079.2031,1280.5469 2078.7344,1280.5469 C2078.5156,1280.5469 2078.3125,1280.625 2078.125,1280.8125 C2077.6719,1281.2969 2077.6719,1281.2969 2077.4844,1281.3906 C2077.0625,1281.6563 2076.375,1281.7813 2075.6094,1281.7813 C2073.5625,1281.7813 2072.2656,1280.6875 2072.2656,1278.9844 L2072.2656,1277.8906 C2072.2656,1276.1094 2073.5156,1274.7969 2075.25,1274.7969 C2075.8281,1274.7969 2076.4375,1274.9531 2076.9063,1275.2031 C2077.3906,1275.4844 2077.5625,1275.7031 2077.6563,1276.1094 C2077.7188,1276.5156 2077.75,1276.6406 2077.8906,1276.7656 C2078.0313,1276.9063 2078.2656,1277.0156 2078.4844,1277.0156 C2078.75,1277.0156 2079.0156,1276.875 2079.1875,1276.6563 C2079.2969,1276.5 2079.3281,1276.3125 2079.3281,1275.8906 L2079.3281,1274.4688 C2079.3281,1274.0313 2079.3125,1273.9063 2079.2188,1273.75 C2079.0625,1273.4844 2078.7813,1273.3438 2078.4844,1273.3438 C2078.1875,1273.3438 2077.9844,1273.4375 2077.7656,1273.75 L2077.5938,1273.6719 Z " fill="#000000"/><text fill="#000000" font-family="sans-serif" font-size="14" lengthAdjust="spacing" textLength="137" x="2095.75" y="1282.8467">ItemObjectiveCard</text><line style="stroke:#181818;stroke-width:0.5;" x1="1961" x2="2335" y1="1294" y2="1294"/><rect fill="none" height="6" style="stroke:#C82930;stroke-width:1.0;" width="6" x="1968" y="1304.6484"/><text fill="#000000" font-family="sans-serif" font-size="14" lengthAdjust="spacing" textLength="190" x="1980" y="1310.9951">GameItemStore multiplier</text><line style="stroke:#181818;stroke-width:0.5;" x1="1961" x2="2335" y1="1318.2969" y2="1318.2969"/><ellipse cx="1971" cy="1331.9453" fill="#84BE84" rx="3" ry="3" style="stroke:#038048;stroke-width:1.0;"/><text fill="#000000" font-family="sans-serif" font-size="14" lengthAdjust="spacing" textLength="350" x="1980" y="1335.292">int getPoints(Optional&lt;Point&gt; pos, PlayerBoard)</text></g><!--class PositionalData--><g id="elem_PositionalData"><rect codeLine="234" fill="#F1F1F1" height="162.0781" id="PositionalData" rx="2.5" ry="2.5" style="stroke:#181818;stroke-width:0.5;" width="257" x="1608.5" y="1492.5"/><ellipse cx="1680.75" cy="1508.5" fill="#ADD1B2" rx="11" ry="11" style="stroke:#181818;stroke-width:1.0;"/><path d="M1683.0938,1504.1719 C1682.1563,1503.7344 1681.5625,1503.5938 1680.6875,1503.5938 C1678.0625,1503.5938 1676.0625,1505.6719 1676.0625,1508.3906 L1676.0625,1509.5156 C1676.0625,1512.0938 1678.1719,1513.9844 1681.0625,1513.9844 C1682.2813,1513.9844 1683.4375,1513.6875 1684.1875,1513.1406 C1684.7656,1512.7344 1685.0938,1512.2813 1685.0938,1511.8906 C1685.0938,1511.4375 1684.7031,1511.0469 1684.2344,1511.0469 C1684.0156,1511.0469 1683.8125,1511.125 1683.625,1511.3125 C1683.1719,1511.7969 1683.1719,1511.7969 1682.9844,1511.8906 C1682.5625,1512.1563 1681.875,1512.2813 1681.1094,1512.2813 C1679.0625,1512.2813 1677.7656,1511.1875 1677.7656,1509.4844 L1677.7656,1508.3906 C1677.7656,1506.6094 1679.0156,1505.2969 1680.75,1505.2969 C1681.3281,1505.2969 1681.9375,1505.4531 1682.4063,1505.7031 C1682.8906,1505.9844 1683.0625,1506.2031 1683.1563,1506.6094 C1683.2188,1507.0156 1683.25,1507.1406 1683.3906,1507.2656 C1683.5313,1507.4063 1683.7656,1507.5156 1683.9844,1507.5156 C1684.25,1507.5156 1684.5156,1507.375 1684.6875,1507.1563 C1684.7969,1507 1684.8281,1506.8125 1684.8281,1506.3906 L1684.8281,1504.9688 C1684.8281,1504.5313 1684.8125,1504.4063 1684.7188,1504.25 C1684.5625,1503.9844 1684.2813,1503.8438 1683.9844,1503.8438 C1683.6875,1503.8438 1683.4844,1503.9375 1683.2656,1504.25 L1683.0938,1504.1719 Z " fill="#000000"/><text fill="#000000" font-family="sans-serif" font-size="14" lengthAdjust="spacing" textLength="104" x="1701.25" y="1513.3467">PositionalData</text><line style="stroke:#181818;stroke-width:0.5;" x1="1609.5" x2="1864.5" y1="1524.5" y2="1524.5"/><rect fill="none" height="6" style="stroke:#C82930;stroke-width:1.0;" width="6" x="1616.5" y="1535.1484"/><text fill="#000000" font-family="sans-serif" font-size="14" lengthAdjust="spacing" textLength="81" x="1628.5" y="1541.4951">Point point</text><rect fill="none" height="6" style="stroke:#C82930;stroke-width:1.0;" width="6" x="1616.5" y="1551.4453"/><text fill="#000000" font-family="sans-serif" font-size="14" lengthAdjust="spacing" textLength="144" x="1628.5" y="1557.792">CardColor cardColor</text><line style="stroke:#181818;stroke-width:0.5;" x1="1609.5" x2="1864.5" y1="1565.0938" y2="1565.0938"/><ellipse cx="1619.5" cy="1578.7422" fill="#84BE84" rx="3" ry="3" style="stroke:#038048;stroke-width:1.0;"/><text fill="#000000" font-family="sans-serif" font-size="14" lengthAdjust="spacing" textLength="115" x="1628.5" y="1582.0889">Point getPoint()</text><ellipse cx="1619.5" cy="1595.0391" fill="#84BE84" rx="3" ry="3" style="stroke:#038048;stroke-width:1.0;"/><text fill="#000000" font-family="sans-serif" font-size="14" lengthAdjust="spacing" textLength="181" x="1628.5" y="1598.3857">CardColor getCardColor()</text><ellipse cx="1619.5" cy="1611.3359" fill="#84BE84" rx="3" ry="3" style="stroke:#038048;stroke-width:1.0;"/><text fill="#000000" font-family="sans-serif" font-size="14" lengthAdjust="spacing" textLength="231" x="1628.5" y="1614.6826">GameItemEnum getGameItem()</text><ellipse cx="1619.5" cy="1627.6328" fill="#84BE84" rx="3" ry="3" style="stroke:#038048;stroke-width:1.0;"/><text fill="#000000" font-family="sans-serif" font-size="14" lengthAdjust="spacing" textLength="129" x="1628.5" y="1630.9795">void setPoint(x, y)</text><ellipse cx="1619.5" cy="1643.9297" fill="#84BE84" rx="3" ry="3" style="stroke:#038048;stroke-width:1.0;"/><text fill="#000000" font-family="sans-serif" font-size="14" lengthAdjust="spacing" textLength="209" x="1628.5" y="1647.2764">void setCardColor(CardColor)</text></g><!--class CornerPosition--><g id="elem_CornerPosition"><rect codeLine="252" fill="#F1F1F1" height="113.1875" id="CornerPosition" rx="2.5" ry="2.5" style="stroke:#181818;stroke-width:0.5;" width="139" x="2018.5" y="48"/><ellipse cx="2033.5" cy="64" fill="#EB937F" rx="11" ry="11" style="stroke:#181818;stroke-width:1.0;"/><path d="M2032.2969,64.875 L2033.75,64.875 L2033.75,64.9844 C2033.75,65.3906 2033.7813,65.5469 2033.8594,65.7031 C2034.0156,65.9531 2034.2969,66.1094 2034.5938,66.1094 C2034.8438,66.1094 2035.1094,65.9688 2035.2656,65.75 C2035.3906,65.5938 2035.4219,65.4375 2035.4219,64.9844 L2035.4219,63.0625 C2035.4219,62.9063 2035.4219,62.8594 2035.4063,62.7031 C2035.3438,62.2344 2035.0313,61.9219 2034.5781,61.9219 C2034.3281,61.9219 2034.0625,62.0625 2033.8906,62.2813 C2033.7813,62.4531 2033.75,62.6094 2033.75,63.0625 L2033.75,63.1875 L2032.2969,63.1875 L2032.2969,60.7813 L2036.2813,60.7813 L2036.2813,61.6406 C2036.2813,62.0469 2036.3125,62.2188 2036.3906,62.375 C2036.5625,62.625 2036.8438,62.7813 2037.125,62.7813 C2037.3906,62.7813 2037.6563,62.6406 2037.8281,62.4219 C2037.9375,62.25 2037.9688,62.1094 2037.9688,61.6406 L2037.9688,59.0938 L2030.3438,59.0938 C2029.9063,59.0938 2029.7813,59.1094 2029.625,59.2031 C2029.375,59.3594 2029.2188,59.6563 2029.2188,59.9375 C2029.2188,60.2188 2029.3594,60.4688 2029.5781,60.6406 C2029.7344,60.75 2029.9219,60.7813 2030.3438,60.7813 L2030.5938,60.7813 L2030.5938,67.2969 L2030.3438,67.2969 C2029.9375,67.2969 2029.7813,67.3125 2029.625,67.4219 C2029.375,67.5938 2029.2188,67.8594 2029.2188,68.1563 C2029.2188,68.4219 2029.3594,68.6719 2029.5781,68.8281 C2029.7188,68.9531 2029.9531,69 2030.3438,69 L2038.3438,69 L2038.3438,66.4219 C2038.3438,65.9844 2038.3125,65.8438 2038.2344,65.6875 C2038.0625,65.4375 2037.7813,65.2813 2037.5,65.2813 C2037.2344,65.2813 2036.9688,65.3906 2036.7969,65.6406 C2036.6875,65.7969 2036.6563,65.9375 2036.6563,66.4219 L2036.6563,67.2969 L2032.2969,67.2969 L2032.2969,64.875 Z " fill="#000000"/><text fill="#000000" font-family="sans-serif" font-size="14" lengthAdjust="spacing" textLength="107" x="2047.5" y="68.8467">CornerPosition</text><line style="stroke:#181818;stroke-width:0.5;" x1="2019.5" x2="2156.5" y1="80" y2="80"/><text fill="#000000" font-family="sans-serif" font-size="14" lengthAdjust="spacing" textLength="80" x="2024.5" y="96.9951">TOP_RIGHT</text><text fill="#000000" font-family="sans-serif" font-size="14" lengthAdjust="spacing" textLength="70" x="2024.5" y="113.292">TOP_LEFT</text><text fill="#000000" font-family="sans-serif" font-size="14" lengthAdjust="spacing" textLength="103" x="2024.5" y="129.5889">BOTTOM_LEFT</text><text fill="#000000" font-family="sans-serif" font-size="14" lengthAdjust="spacing" textLength="113" x="2024.5" y="145.8857">BOTTOM_RIGHT</text><line style="stroke:#181818;stroke-width:0.5;" x1="2019.5" x2="2156.5" y1="153.1875" y2="153.1875"/></g><!--class GameItemEnum--><g id="elem_GameItemEnum"><rect codeLine="259" fill="#F1F1F1" height="178.375" id="GameItemEnum" rx="2.5" ry="2.5" style="stroke:#181818;stroke-width:0.5;" width="148" x="2193" y="15.5"/><ellipse cx="2208" cy="31.5" fill="#EB937F" rx="11" ry="11" style="stroke:#181818;stroke-width:1.0;"/><path d="M2206.7969,32.375 L2208.25,32.375 L2208.25,32.4844 C2208.25,32.8906 2208.2813,33.0469 2208.3594,33.2031 C2208.5156,33.4531 2208.7969,33.6094 2209.0938,33.6094 C2209.3438,33.6094 2209.6094,33.4688 2209.7656,33.25 C2209.8906,33.0938 2209.9219,32.9375 2209.9219,32.4844 L2209.9219,30.5625 C2209.9219,30.4063 2209.9219,30.3594 2209.9063,30.2031 C2209.8438,29.7344 2209.5313,29.4219 2209.0781,29.4219 C2208.8281,29.4219 2208.5625,29.5625 2208.3906,29.7813 C2208.2813,29.9531 2208.25,30.1094 2208.25,30.5625 L2208.25,30.6875 L2206.7969,30.6875 L2206.7969,28.2813 L2210.7813,28.2813 L2210.7813,29.1406 C2210.7813,29.5469 2210.8125,29.7188 2210.8906,29.875 C2211.0625,30.125 2211.3438,30.2813 2211.625,30.2813 C2211.8906,30.2813 2212.1563,30.1406 2212.3281,29.9219 C2212.4375,29.75 2212.4688,29.6094 2212.4688,29.1406 L2212.4688,26.5938 L2204.8438,26.5938 C2204.4063,26.5938 2204.2813,26.6094 2204.125,26.7031 C2203.875,26.8594 2203.7188,27.1563 2203.7188,27.4375 C2203.7188,27.7188 2203.8594,27.9688 2204.0781,28.1406 C2204.2344,28.25 2204.4219,28.2813 2204.8438,28.2813 L2205.0938,28.2813 L2205.0938,34.7969 L2204.8438,34.7969 C2204.4375,34.7969 2204.2813,34.8125 2204.125,34.9219 C2203.875,35.0938 2203.7188,35.3594 2203.7188,35.6563 C2203.7188,35.9219 2203.8594,36.1719 2204.0781,36.3281 C2204.2188,36.4531 2204.4531,36.5 2204.8438,36.5 L2212.8438,36.5 L2212.8438,33.9219 C2212.8438,33.4844 2212.8125,33.3438 2212.7344,33.1875 C2212.5625,32.9375 2212.2813,32.7813 2212,32.7813 C2211.7344,32.7813 2211.4688,32.8906 2211.2969,33.1406 C2211.1875,33.2969 2211.1563,33.4375 2211.1563,33.9219 L2211.1563,34.7969 L2206.7969,34.7969 L2206.7969,32.375 Z " fill="#000000"/><text fill="#000000" font-family="sans-serif" font-size="14" lengthAdjust="spacing" textLength="116" x="2222" y="36.3467">GameItemEnum</text><line style="stroke:#181818;stroke-width:0.5;" x1="2194" x2="2340" y1="47.5" y2="47.5"/><text fill="#000000" font-family="sans-serif" font-size="14" lengthAdjust="spacing" textLength="46" x="2199" y="64.4951">PLANT</text><text fill="#000000" font-family="sans-serif" font-size="14" lengthAdjust="spacing" textLength="54" x="2199" y="80.792">ANIMAL</text><text fill="#000000" font-family="sans-serif" font-size="14" lengthAdjust="spacing" textLength="42" x="2199" y="97.0889">FUNGI</text><text fill="#000000" font-family="sans-serif" font-size="14" lengthAdjust="spacing" textLength="51" x="2199" y="113.3857">INSECT</text><text fill="#000000" font-family="sans-serif" font-size="14" lengthAdjust="spacing" textLength="40" x="2199" y="129.6826">QUILL</text><text fill="#000000" font-family="sans-serif" font-size="14" lengthAdjust="spacing" textLength="63" x="2199" y="145.9795">INKWELL</text><text fill="#000000" font-family="sans-serif" font-size="14" lengthAdjust="spacing" textLength="92" x="2199" y="162.2764">MANUSCRIPT</text><text fill="#000000" font-family="sans-serif" font-size="14" lengthAdjust="spacing" textLength="40" x="2199" y="178.5732">NONE</text><line style="stroke:#181818;stroke-width:0.5;" x1="2194" x2="2340" y1="185.875" y2="185.875"/></g><!--class CardColor--><g id="elem_CardColor"><rect codeLine="270" fill="#F1F1F1" height="129.4844" id="CardColor" rx="2.5" ry="2.5" style="stroke:#181818;stroke-width:0.5;" width="103" x="2036.5" y="327.5"/><ellipse cx="2051.5" cy="343.5" fill="#EB937F" rx="11" ry="11" style="stroke:#181818;stroke-width:1.0;"/><path d="M2050.2969,344.375 L2051.75,344.375 L2051.75,344.4844 C2051.75,344.8906 2051.7813,345.0469 2051.8594,345.2031 C2052.0156,345.4531 2052.2969,345.6094 2052.5938,345.6094 C2052.8438,345.6094 2053.1094,345.4688 2053.2656,345.25 C2053.3906,345.0938 2053.4219,344.9375 2053.4219,344.4844 L2053.4219,342.5625 C2053.4219,342.4063 2053.4219,342.3594 2053.4063,342.2031 C2053.3438,341.7344 2053.0313,341.4219 2052.5781,341.4219 C2052.3281,341.4219 2052.0625,341.5625 2051.8906,341.7813 C2051.7813,341.9531 2051.75,342.1094 2051.75,342.5625 L2051.75,342.6875 L2050.2969,342.6875 L2050.2969,340.2813 L2054.2813,340.2813 L2054.2813,341.1406 C2054.2813,341.5469 2054.3125,341.7188 2054.3906,341.875 C2054.5625,342.125 2054.8438,342.2813 2055.125,342.2813 C2055.3906,342.2813 2055.6563,342.1406 2055.8281,341.9219 C2055.9375,341.75 2055.9688,341.6094 2055.9688,341.1406 L2055.9688,338.5938 L2048.3438,338.5938 C2047.9063,338.5938 2047.7813,338.6094 2047.625,338.7031 C2047.375,338.8594 2047.2188,339.1563 2047.2188,339.4375 C2047.2188,339.7188 2047.3594,339.9688 2047.5781,340.1406 C2047.7344,340.25 2047.9219,340.2813 2048.3438,340.2813 L2048.5938,340.2813 L2048.5938,346.7969 L2048.3438,346.7969 C2047.9375,346.7969 2047.7813,346.8125 2047.625,346.9219 C2047.375,347.0938 2047.2188,347.3594 2047.2188,347.6563 C2047.2188,347.9219 2047.3594,348.1719 2047.5781,348.3281 C2047.7188,348.4531 2047.9531,348.5 2048.3438,348.5 L2056.3438,348.5 L2056.3438,345.9219 C2056.3438,345.4844 2056.3125,345.3438 2056.2344,345.1875 C2056.0625,344.9375 2055.7813,344.7813 2055.5,344.7813 C2055.2344,344.7813 2054.9688,344.8906 2054.7969,345.1406 C2054.6875,345.2969 2054.6563,345.4375 2054.6563,345.9219 L2054.6563,346.7969 L2050.2969,346.7969 L2050.2969,344.375 Z " fill="#000000"/><text fill="#000000" font-family="sans-serif" font-size="14" lengthAdjust="spacing" textLength="71" x="2065.5" y="348.3467">CardColor</text><line style="stroke:#181818;stroke-width:0.5;" x1="2037.5" x2="2138.5" y1="359.5" y2="359.5"/><text fill="#000000" font-family="sans-serif" font-size="14" lengthAdjust="spacing" textLength="28" x="2042.5" y="376.4951">Red</text><text fill="#000000" font-family="sans-serif" font-size="14" lengthAdjust="spacing" textLength="31" x="2042.5" y="392.792">Blue</text><text fill="#000000" font-family="sans-serif" font-size="14" lengthAdjust="spacing" textLength="44" x="2042.5" y="409.0889">Green</text><text fill="#000000" font-family="sans-serif" font-size="14" lengthAdjust="spacing" textLength="46" x="2042.5" y="425.3857">Purple</text><text fill="#000000" font-family="sans-serif" font-size="14" lengthAdjust="spacing" textLength="52" x="2042.5" y="441.6826">Neutral</text><line style="stroke:#181818;stroke-width:0.5;" x1="2037.5" x2="2138.5" y1="448.9844" y2="448.9844"/></g><!--reverse link GameManager to Game--><g id="link_GameManager_Game"><path codeLine="12" d="M1716,214.16 C1716,233.33 1716,241.74 1716,261.79 " fill="none" id="GameManager-backto-Game" style="stroke:#181818;stroke-width:1.0;"/><polygon fill="#181818" points="1716,202.16,1712,208.16,1716,214.16,1720,208.16,1716,202.16" style="stroke:#181818;stroke-width:1.0;"/><text fill="#000000" font-family="sans-serif" font-size="13" lengthAdjust="spacing" textLength="25" x="1690.1211" y="221.6372">1..N</text><text fill="#000000" font-family="sans-serif" font-size="13" lengthAdjust="spacing" textLength="8" x="1707.7688" y="250.9034">1</text></g><!--reverse link Game to Player--><g id="link_Game_Player"><path codeLine="34" d="M1641.1273,532.5945 C1623.5373,565.3845 1610.37,589.93 1593,622.32 " fill="none" id="Game-backto-Player" style="stroke:#181818;stroke-width:1.0;"/><polygon fill="#181818" points="1646.8,522.02,1640.4388,525.4164,1641.1273,532.5945,1647.4885,529.1982,1646.8,522.02" style="stroke:#181818;stroke-width:1.0;"/><text fill="#000000" font-family="sans-serif" font-size="13" lengthAdjust="spacing" textLength="24" x="1618.1056" y="542.0452">2..4</text><text fill="#000000" font-family="sans-serif" font-size="13" lengthAdjust="spacing" textLength="8" x="1588.7172" y="611.5019">1</text></g><!--reverse link Game to GlobalBoard--><g id="link_Game_GlobalBoard"><path codeLine="35" d="M1787.3483,532.7067 C1797.3183,552.2267 1802.25,561.88 1812.51,581.98 " fill="none" id="Game-backto-GlobalBoard" style="stroke:#181818;stroke-width:1.0;"/><polygon fill="#181818" points="1781.89,522.02,1781.0569,529.1828,1787.3483,532.7067,1788.1814,525.5439,1781.89,522.02" style="stroke:#181818;stroke-width:1.0;"/><text fill="#000000" font-family="sans-serif" font-size="13" lengthAdjust="spacing" textLength="8" x="1777.468" y="542.0452">1</text><text fill="#000000" font-family="sans-serif" font-size="13" lengthAdjust="spacing" textLength="8" x="1800.3206" y="570.8136">1</text></g><!--reverse link GlobalBoard to Deck--><g id="link_GlobalBoard_Deck"><path codeLine="58" d="M2066.0948,915.7457 C2096.5548,946.0657 2117.92,967.31 2142.21,991.49 " fill="none" id="GlobalBoard-backto-Deck" style="stroke:#181818;stroke-width:1.0;"/><polygon fill="#181818" points="2057.59,907.28,2059.0205,914.3478,2066.0948,915.7457,2064.6643,908.6779,2057.59,907.28" style="stroke:#181818;stroke-width:1.0;"/><text fill="#000000" font-family="sans-serif" font-size="13" lengthAdjust="spacing" textLength="8" x="2056.7761" y="927.0647">3</text><text fill="#000000" font-family="sans-serif" font-size="13" lengthAdjust="spacing" textLength="8" x="2126.5494" y="980.3521">1</text></g><!--reverse link Player to PlayerBoard--><g id="link_Player_PlayerBoard"><path codeLine="77" d="M1385.6942,853.5685 C1334.0742,892.7785 1285.33,929.8 1236.64,966.77 " fill="none" id="Player-backto-PlayerBoard" style="stroke:#181818;stroke-width:1.0;"/><polygon fill="#181818" points="1395.25,846.31,1388.0526,846.754,1385.6942,853.5685,1392.8916,853.1245,1395.25,846.31" style="stroke:#181818;stroke-width:1.0;"/><text fill="#000000" font-family="sans-serif" font-size="13" lengthAdjust="spacing" textLength="8" x="1379.3441" y="848.8457">1</text><text fill="#000000" font-family="sans-serif" font-size="13" lengthAdjust="spacing" textLength="8" x="1237.6923" y="955.9368">1</text></g><!--reverse link Player to Hand--><g id="link_Player_Hand"><path codeLine="94" d="M1523.5814,878.8234 C1522.1514,921.8534 1521.01,956.23 1519.85,991.14 " fill="none" id="Player-backto-Hand" style="stroke:#181818;stroke-width:1.0;"/><polygon fill="#181818" points="1523.98,866.83,1519.7829,872.6938,1523.5814,878.8234,1527.7785,872.9595,1523.98,866.83" style="stroke:#181818;stroke-width:1.0;"/><text fill="#000000" font-family="sans-serif" font-size="13" lengthAdjust="spacing" textLength="8" x="1515.5414" y="886.0126">1</text><text fill="#000000" font-family="sans-serif" font-size="13" lengthAdjust="spacing" textLength="8" x="1511.588" y="980.3597">1</text></g><!--reverse link PlayerBoard to GameCard--><g id="link_PlayerBoard_GameCard"><path codeLine="106" d="M1028.8006,1137.0747 C1006.7706,1156.0637 991.953,1168.827 968.597,1188.955 " fill="none" id="PlayerBoard-backto-GameCard" style="stroke:#181818;stroke-width:1.0;"/><polygon fill="#181818" points="1037.89,1129.24,1030.7337,1130.1276,1028.8006,1137.0747,1035.9569,1136.1872,1037.89,1129.24" style="stroke:#181818;stroke-width:1.0;"/><text fill="#000000" font-family="sans-serif" font-size="13" lengthAdjust="spacing" textLength="25" x="1003.4841" y="1149.2127">1..N</text><text fill="#000000" font-family="sans-serif" font-size="13" lengthAdjust="spacing" textLength="8" x="969.1027" y="1177.8847">1</text></g><!--reverse link Store to GameItemStore--><g id="link_Store_GameItemStore"><path d="M1228.012,1393.2351 C1238.132,1443.6581 1247.73,1491.471 1256.02,1532.745 " fill="none" id="Store-backto-GameItemStore" style="stroke:#181818;stroke-width:1.0;"/><polygon fill="none" points="1224.47,1375.587,1222.1293,1394.4157,1233.8947,1392.0544,1224.47,1375.587" style="stroke:#181818;stroke-width:1.0;"/></g><!--reverse link PlayerBoard to Store--><g id="link_PlayerBoard_Store"><path codeLine="123" d="M1159.6832,1140.6926 C1169.7132,1172.7506 1177.6,1197.941 1187.37,1229.166 " fill="none" id="PlayerBoard-backto-Store" style="stroke:#181818;stroke-width:1.0;"/><polygon fill="#181818" points="1156.1,1129.24,1154.0741,1136.1607,1159.6832,1140.6926,1161.7091,1133.7719,1156.1,1129.24" style="stroke:#181818;stroke-width:1.0;"/><text fill="#000000" font-family="sans-serif" font-size="13" lengthAdjust="spacing" textLength="8" x="1149.9792" y="1149.2127">2</text><text fill="#000000" font-family="sans-serif" font-size="13" lengthAdjust="spacing" textLength="8" x="1176.8318" y="1218.5452">1</text></g><!--reverse link GameCard to Side--><g id="link_GameCard_Side"><path codeLine="141" d="M825.5077,1427.962 C823.5137,1447.83 822.652,1456.415 820.706,1475.8 " fill="none" id="GameCard-backto-Side" style="stroke:#181818;stroke-width:1.0;"/><polygon fill="#181818" points="826.706,1416.022,822.1268,1421.5926,825.5077,1427.962,830.0868,1422.3915,826.706,1416.022" style="stroke:#181818;stroke-width:1.0;"/><text fill="#000000" font-family="sans-serif" font-size="13" lengthAdjust="spacing" textLength="8" x="817.6784" y="1436.2156">2</text><text fill="#000000" font-family="sans-serif" font-size="13" lengthAdjust="spacing" textLength="8" x="813.1429" y="1464.8302">1</text></g><!--reverse link Side to Front--><g id="link_Side_Front"><path codeLine="155" d="M614.5606,1679.6498 C565.5296,1705.8958 530.445,1724.675 488.958,1746.882 " fill="none" id="Side-backto-Front" style="stroke:#181818;stroke-width:1.0;"/><polygon fill="none" points="630.43,1671.155,611.729,1674.36,617.3922,1684.9396,630.43,1671.155" style="stroke:#181818;stroke-width:1.0;"/></g><!--reverse link Side to Back--><g id="link_Side_Back"><path codeLine="156" d="M811,1689.315 C811,1715.484 811,1724.662 811,1746.811 " fill="none" id="Side-backto-Back" style="stroke:#181818;stroke-width:1.0;"/><polygon fill="none" points="811,1671.315,805,1689.315,817,1689.315,811,1671.315" style="stroke:#181818;stroke-width:1.0;"/></g><!--reverse link Side to Corner--><g id="link_Side_Corner"><path codeLine="157" d="M975.824,1677.515 C1008.219,1697.762 1031.42,1712.261 1061.29,1730.933 " fill="none" id="Side-backto-Corner" style="stroke:#181818;stroke-width:1.0;"/><polygon fill="#181818" points="965.648,1671.155,968.616,1677.727,975.824,1677.515,972.856,1670.943,965.648,1671.155" style="stroke:#181818;stroke-width:1.0;"/><text fill="#000000" font-family="sans-serif" font-size="13" lengthAdjust="spacing" textLength="24" x="951.6779" y="1690.6318">1..4</text><text fill="#000000" font-family="sans-serif" font-size="13" lengthAdjust="spacing" textLength="8" x="1041.728" y="1720.0983">1</text></g><!--reverse link Front to FrontGoldCard--><g id="link_Front_FrontGoldCard"><path codeLine="185" d="M400,1862.085 C400,1886.14 400,1896.994 400,1919.834 " fill="none" id="Front-backto-FrontGoldCard" style="stroke:#181818;stroke-width:1.0;"/><polygon fill="none" points="400,1844.085,394,1862.085,406,1862.085,400,1844.085" style="stroke:#181818;stroke-width:1.0;"/></g><!--reverse link FrontGoldCard to FrontPositionalGoldCard--><g id="link_FrontGoldCard_FrontPositionalGoldCard"><path codeLine="192" d="M326.6319,2011.2478 C294.6789,2032.9138 270.575,2049.2562 240.845,2069.4145 " fill="none" id="FrontGoldCard-backto-FrontPositionalGoldCard" style="stroke:#181818;stroke-width:1.0;"/><polygon fill="none" points="341.53,2001.146,323.2646,2006.2818,329.9991,2016.2138,341.53,2001.146" style="stroke:#181818;stroke-width:1.0;"/></g><!--reverse link FrontGoldCard to FrontItemGoldCard--><g id="link_FrontGoldCard_FrontItemGoldCard"><path codeLine="193" d="M473.6767,2011.2143 C501.3847,2029.9113 519.448,2042.0982 547.166,2060.8015 " fill="none" id="FrontGoldCard-backto-FrontItemGoldCard" style="stroke:#181818;stroke-width:1.0;"/><polygon fill="none" points="458.756,2001.146,470.3206,2016.1879,477.0329,2006.2407,458.756,2001.146" style="stroke:#181818;stroke-width:1.0;"/></g><!--reverse link Player to ObjectiveCard--><g id="link_Player_ObjectiveCard"><path codeLine="223" d="M1652.5418,875.0414 C1667.3718,889.0214 1673.91,894.5 1689,907 C1733.78,944.11 1788.37,980.87 1830.1,1007.4 " fill="none" id="Player-backto-ObjectiveCard" style="stroke:#181818;stroke-width:1.0;"/><polygon fill="#181818" points="1643.81,866.81,1645.4321,873.8363,1652.5418,875.0414,1650.9197,868.0151,1643.81,866.81" style="stroke:#181818;stroke-width:1.0;"/></g><!--reverse link GlobalBoard to ObjectiveCard--><g id="link_GlobalBoard_ObjectiveCard"><path codeLine="224" d="M1895,919.28 C1895,956.58 1895,980.97 1895,1007.26 " fill="none" id="GlobalBoard-backto-ObjectiveCard" style="stroke:#181818;stroke-width:1.0;"/><polygon fill="#181818" points="1895,907.28,1891,913.28,1895,919.28,1899,913.28,1895,907.28" style="stroke:#181818;stroke-width:1.0;"/></g><!--reverse link ObjectiveCard to PositionalObjectiveCard--><g id="link_ObjectiveCard_PositionalObjectiveCard"><path codeLine="225" d="M1860.5913,1103.9885 C1831.0413,1151.2085 1791.58,1214.283 1761.98,1261.584 " fill="none" id="ObjectiveCard-backto-PositionalObjectiveCard" style="stroke:#181818;stroke-width:1.0;"/><polygon fill="none" points="1870.14,1088.73,1855.5051,1100.8056,1865.6775,1107.1714,1870.14,1088.73" style="stroke:#181818;stroke-width:1.0;"/></g><!--reverse link ObjectiveCard to ItemObjectiveCard--><g id="link_ObjectiveCard_ItemObjectiveCard"><path codeLine="232" d="M1947.55,1101.4458 C1994.86,1148.6658 2060.61,1214.283 2108.01,1261.584 " fill="none" id="ObjectiveCard-backto-ItemObjectiveCard" style="stroke:#181818;stroke-width:1.0;"/><polygon fill="none" points="1934.81,1088.73,1943.3114,1105.6925,1951.7886,1097.1991,1934.81,1088.73" style="stroke:#181818;stroke-width:1.0;"/></g><!--reverse link PositionalObjectiveCard to PositionalData--><g id="link_PositionalObjectiveCard_PositionalData"><path codeLine="243" d="M1737,1355.192 C1737,1394.286 1737,1443.123 1737,1492.312 " fill="none" id="PositionalObjectiveCard-backto-PositionalData" style="stroke:#181818;stroke-width:1.0;"/><polygon fill="#181818" points="1737,1343.192,1733,1349.192,1737,1355.192,1741,1349.192,1737,1343.192" style="stroke:#181818;stroke-width:1.0;"/><text fill="#000000" font-family="sans-serif" font-size="13" lengthAdjust="spacing" textLength="25" x="1710.0859" y="1362.6796">1..N</text><text fill="#000000" font-family="sans-serif" font-size="13" lengthAdjust="spacing" textLength="8" x="1728.6438" y="1481.4826">1</text></g><!--SRC=[rLZDKXmt4BxFKwZ8WKrOaxAJMnogO0thBSD2s7Nvc18ppI9dThGbQR31uLrop7lunTBwbsPc3KNv4bSPfEwULlzytMfHrbHACgLhEACDNO4WNmg2_ruS2a7lJfbKhpNpWApmfnnYJQYe3aW5rxIjrPJNrHie_tfKy18aRqK9GyBdLn-XLEms_o9GdwH_eQXG88BiNiyVK7eXHpzQljwGKW1Le9UZXHAiMHctv_X_J5YZI7DHqpiGSamSUsFsMi2fgQ26OGtfEHyvQuPF6T3xKAJfsNcvlp_V8J-zU87B7PEveYX35dtwEeejCNMX6q5BFd0dE_QqvbUqFk8OMRAAQykqNv2o5G8QPNVMHt-u3R4-tqUvVnuAEOkyZDCR6ADjiSwimxFYrgkYLULqEALMH- -WENpsXpdU5USrq8OmQP5KVTE33wnfpBSFHT5m1QI6QqNujKtF5AHYl06oOhoaYWj60E74xXd_-PeXVOCdC4KBQ2gYFozCnidEg_tzNsEgNOGjwsK2WIGn7Wb9P1mWT2KaPRBA2hN35BtYD0ATkkJzWkpeaPqYt5xZ5bo1-8r6SysWhdIRqTl7v7oNYR9xtJX0w5a-mts9j5bbKbql8EzIspKcxQaFhBxMQISy_MyoxITPZ9uYd0MgNmC-HCVhZRhhizFuP2ALe9-qoXF1r-QSaJ-QbFZ3rCjk2bQ2c2QP_qNAtlabmjwWok7TLRA5-kvRIcfAP4iTtNmxzhGRsk26rRZXf6dN83Yf615CSY61KALQMhCWlk5I5ofMgMnhekWLrBNUWLV1hnWej9RlPvqtTglOUotjWikqWLhFDd5jcLaGOgrDWi1RzCCuOqCTscNQRWCnwug1YfRqQ5fjGipCy7JPfMUxq7jlQLD2F4b7G2hOI2kmEm-nts0EcLwKBICKFxkd0ZGsN5xJRfVuuxDlocjvq9zSbdeSyBtd4XtZQoBChz-w4CvWkoGQkBQTkpDCjBziRpSn4LlAp6z2n6yvgmXUK2Q0dflo1AovYsza3mT5MvVNGjRxtr9vSqOthozmx51Z4ktgeKwpPWhM2xobm4mFUkTQv_b6NsEq7dPiPBJ_s14rn4mEeS0qi-lpK-CsQnIixBNjhJrSyxPH8xzDWoYx1aRtas2wxj8VhIO9p4nC8iv-y55TZecpITzuA1EAPxGaAfQCtWLHHsODZfnh79-6c8ZTxKmzjV36mFOTt4aBrZW7nYJYQ8DpXJFVsRwNYQGZS2HwzpmryJBWmbP85iDNCO16Jr6aPaqIL2vO1NvwrEk4ojKDY4ZJTyM4rroGi7A3fXR6I4oYbgoyv2UcofkKF0cgz6T-C-h2Ti853dG7MiQiHlQNnsudOCTuZMYaMQ49Lgt0WV6RdxW2YnZECg5RfUx86h1or2qcl9B6QPblKpq7gA1AbJ_OoNBIovGETK6lf1AqLCJXNGVNORqR6CKtbsnrexPoJt407cPUSQNu-Z5-rBxtI1B-9t4tqNpzDmOSXw569ViZYbUKsUe6b0pyrX5VFdRd4e954UykvxXdPAZqfLeuRexP90uk18Eejd4D0aUzMnCvkX7WB_FwiIdKxn_dWlvi3ZMMh-JuyZ7tVDjubxx-IsvRhlYOK9oj1DMp63xXGNpz1wS1F9ja9lrEvkVpOwDpeTzHjr2QOSnfQtX3GE8z0cRAGnTHatxIu1EhPLgdp-i-99S-giA93_kBejgW3QFtzrJHCP5irR1hLYBp1eps2cuvsGZWPTdYqsrjHXTQbY3HE-hj63Wblkzs3GXCqXTwSkADJxDX-B8pGwC1OoY5xu9RJ9Oz9mBIFnSoEppHsvD3lGauZ-ODOZ_N5S_qDKhhSFesKQqncfZQs5VYBxddL7CoylNEzHTNXiOr8fLjQkR_zl6CLEpg3Z241KqV3hr_eNz_NEpc3uzWKUTooANSmujCzAisleYivNvWiq3-WCgUQvkRV7L_pC_F7eazTf4B6r15rEIYBl8waaCkTWRaxv3y0TjwXuVHFXZz1bkJDybejz6rXCcsSSbAUWEVDX8zSb-4ATkg_3mcTnr6r1XMsl4j2UWEuRdB_K0C9Ydv6rtskKb1gkxPHMAY4Me3z2uVEvmfo_EBFozdqxVBi3izFh6Re_FbyloijxVI3qvf5dshykBqS6w_E9pFpWvFpVBa_NmwCwlPV74yiVm_tizEJntntOTZjpuxdBzVJ2vd5rR8tAN-k0W5UzQbcogEwjQEubC1OElteXMR6jpDtc9hg8k7_m00]--></g></svg>