<?xml version="1.0" encoding="us-ascii" standalone="no"?><svg xmlns="http://www.w3.org/2000/svg" xmlns:xlink="http://www.w3.org/1999/xlink" contentStyleType="text/css" height="449px" preserveAspectRatio="none" style="width:623px;height:449px;background:#FFFFFF;" version="1.1" viewBox="0 0 623 449" width="623px" zoomAndPan="magnify"><defs/><g><rect fill="none" height="75.3984" style="stroke:#000000;stroke-width:1.5;" width="607" x="10" y="53.2969"/><rect fill="none" height="75.3984" style="stroke:#000000;stroke-width:1.5;" width="607" x="10" y="142.6953"/><rect fill="none" height="75.3984" style="stroke:#000000;stroke-width:1.5;" width="607" x="10" y="232.0938"/><rect fill="none" height="75.3984" style="stroke:#000000;stroke-width:1.5;" width="607" x="10" y="321.4922"/><line style="stroke:#181818;stroke-width:0.5;stroke-dasharray:5.0,5.0;" x1="51" x2="51" y1="36.2969" y2="413.8906"/><line style="stroke:#181818;stroke-width:0.5;stroke-dasharray:5.0,5.0;" x1="578" x2="578" y1="36.2969" y2="413.8906"/><rect fill="#E2E2F0" height="30.2969" rx="2.5" ry="2.5" style="stroke:#181818;stroke-width:0.5;" width="62" x="20" y="5"/><text fill="#000000" font-family="sans-serif" font-size="14" lengthAdjust="spacing" textLength="48" x="27" y="24.9951">ClientA</text><rect fill="#E2E2F0" height="30.2969" rx="2.5" ry="2.5" style="stroke:#181818;stroke-width:0.5;" width="62" x="20" y="412.8906"/><text fill="#000000" font-family="sans-serif" font-size="14" lengthAdjust="spacing" textLength="48" x="27" y="432.8857">ClientA</text><rect fill="#E2E2F0" height="30.2969" rx="2.5" ry="2.5" style="stroke:#181818;stroke-width:0.5;" width="58" x="549" y="5"/><text fill="#000000" font-family="sans-serif" font-size="14" lengthAdjust="spacing" textLength="44" x="556" y="24.9951">Server</text><rect fill="#E2E2F0" height="30.2969" rx="2.5" ry="2.5" style="stroke:#181818;stroke-width:0.5;" width="58" x="549" y="412.8906"/><text fill="#000000" font-family="sans-serif" font-size="14" lengthAdjust="spacing" textLength="44" x="556" y="432.8857">Server</text><path d="M10,53.2969 L134,53.2969 L134,60.4297 L124,70.4297 L10,70.4297 L10,53.2969 " fill="#EEEEEE" style="stroke:#000000;stroke-width:1.5;"/><rect fill="none" height="75.3984" style="stroke:#000000;stroke-width:1.5;" width="607" x="10" y="53.2969"/><text fill="#000000" font-family="sans-serif" font-size="13" font-weight="bold" lengthAdjust="spacing" textLength="74" x="25" y="66.3638">Join Game</text><text fill="#000000" font-family="sans-serif" font-size="11" font-weight="bold" lengthAdjust="spacing" textLength="25" x="149" y="65.5073">[ok]</text><polygon fill="#181818" points="566,87.5625,576,91.5625,566,95.5625,570,91.5625" style="stroke:#181818;stroke-width:1.0;"/><line style="stroke:#181818;stroke-width:1.0;" x1="51" x2="572" y1="91.5625" y2="91.5625"/><text fill="#000000" font-family="sans-serif" font-size="13" lengthAdjust="spacing" textLength="233" x="58" y="86.4966">joinGame(gameName, playerName)</text><polygon fill="#181818" points="62,116.6953,52,120.6953,62,124.6953,58,120.6953" style="stroke:#181818;stroke-width:1.0;"/><line style="stroke:#181818;stroke-width:1.0;" x1="56" x2="577" y1="120.6953" y2="120.6953"/><text fill="#000000" font-family="sans-serif" font-size="13" lengthAdjust="spacing" textLength="125" x="68" y="115.6294">{status: "success"}</text><path d="M10,142.6953 L134,142.6953 L134,149.8281 L124,159.8281 L10,159.8281 L10,142.6953 " fill="#EEEEEE" style="stroke:#000000;stroke-width:1.5;"/><rect fill="none" height="75.3984" style="stroke:#000000;stroke-width:1.5;" width="607" x="10" y="142.6953"/><text fill="#000000" font-family="sans-serif" font-size="13" font-weight="bold" lengthAdjust="spacing" textLength="74" x="25" y="155.7622">Join Game</text><text fill="#000000" font-family="sans-serif" font-size="11" font-weight="bold" lengthAdjust="spacing" textLength="156" x="149" y="154.9058">[failed due to game full]</text><polygon fill="#181818" points="566,176.9609,576,180.9609,566,184.9609,570,180.9609" style="stroke:#181818;stroke-width:1.0;"/><line style="stroke:#181818;stroke-width:1.0;" x1="51" x2="572" y1="180.9609" y2="180.9609"/><text fill="#000000" font-family="sans-serif" font-size="13" lengthAdjust="spacing" textLength="233" x="58" y="175.895">joinGame(gameName, playerName)</text><polygon fill="#181818" points="62,206.0938,52,210.0938,62,214.0938,58,210.0938" style="stroke:#181818;stroke-width:1.0;"/><line style="stroke:#181818;stroke-width:1.0;" x1="56" x2="577" y1="210.0938" y2="210.0938"/><text fill="#000000" font-family="sans-serif" font-size="13" lengthAdjust="spacing" textLength="293" x="68" y="205.0278">{status: "failed", message: "The game is full"}</text><path d="M10,232.0938 L134,232.0938 L134,239.2266 L124,249.2266 L10,249.2266 L10,232.0938 " fill="#EEEEEE" style="stroke:#000000;stroke-width:1.5;"/><rect fill="none" height="75.3984" style="stroke:#000000;stroke-width:1.5;" width="607" x="10" y="232.0938"/><text fill="#000000" font-family="sans-serif" font-size="13" font-weight="bold" lengthAdjust="spacing" textLength="74" x="25" y="245.1606">Join Game</text><text fill="#000000" font-family="sans-serif" font-size="11" font-weight="bold" lengthAdjust="spacing" textLength="243" x="149" y="244.3042">[failed due to player already existing]</text><polygon fill="#181818" points="566,266.3594,576,270.3594,566,274.3594,570,270.3594" style="stroke:#181818;stroke-width:1.0;"/><line style="stroke:#181818;stroke-width:1.0;" x1="51" x2="572" y1="270.3594" y2="270.3594"/><text fill="#000000" font-family="sans-serif" font-size="13" lengthAdjust="spacing" textLength="233" x="58" y="265.2935">joinGame(gameName, playerName)</text><polygon fill="#181818" points="62,295.4922,52,299.4922,62,303.4922,58,299.4922" style="stroke:#181818;stroke-width:1.0;"/><line style="stroke:#181818;stroke-width:1.0;" x1="56" x2="577" y1="299.4922" y2="299.4922"/><text fill="#000000" font-family="sans-serif" font-size="13" lengthAdjust="spacing" textLength="485" x="68" y="294.4263">{status: "failed", message: "The game already has the player playerName"}</text><path d="M10,321.4922 L134,321.4922 L134,328.625 L124,338.625 L10,338.625 L10,321.4922 " fill="#EEEEEE" style="stroke:#000000;stroke-width:1.5;"/><rect fill="none" height="75.3984" style="stroke:#000000;stroke-width:1.5;" width="607" x="10" y="321.4922"/><text fill="#000000" font-family="sans-serif" font-size="13" font-weight="bold" lengthAdjust="spacing" textLength="74" x="25" y="334.5591">Join Game</text><text fill="#000000" font-family="sans-serif" font-size="11" font-weight="bold" lengthAdjust="spacing" textLength="211" x="149" y="333.7026">[failed due to game not existing]</text><polygon fill="#181818" points="566,355.7578,576,359.7578,566,363.7578,570,359.7578" style="stroke:#181818;stroke-width:1.0;"/><line style="stroke:#181818;stroke-width:1.0;" x1="51" x2="572" y1="359.7578" y2="359.7578"/><text fill="#000000" font-family="sans-serif" font-size="13" lengthAdjust="spacing" textLength="233" x="58" y="354.6919">joinGame(gameName, playerName)</text><polygon fill="#181818" points="62,384.8906,52,388.8906,62,392.8906,58,388.8906" style="stroke:#181818;stroke-width:1.0;"/><line style="stroke:#181818;stroke-width:1.0;" x1="56" x2="577" y1="388.8906" y2="388.8906"/><text fill="#000000" font-family="sans-serif" font-size="13" lengthAdjust="spacing" textLength="503" x="68" y="383.8247">{status: "failed", message: "A game with the name gameName doesn't exist"}</text><!--SRC=[nP6zgW8n44RxVOgFRLJG5zX240lX5hUvjnEBOCPiD2QIIVn1V7Upcrq4Aot4G48opCmvGvHtyO0VfoqMOazOkjsgG5fpeyc66IPJ_94_aaU5RKfhieOg7RzfZt4muaA-kO_QiYutLVKDAbmvY12vGibnlIRcybQGbKMXdk4ReGr9o4W83Wq5csZC1uqoiHnZdxo4eXJwhocZDRVq5sqp5y9u4l82EciEsgelkVSQjM245Epi7e1t_i2wyALvPbdWf4FTZc6RLzyVqX7RGUUM1xe3]--></g></svg>