<svg xmlns="http://www.w3.org/2000/svg" xmlns:xlink="http://www.w3.org/1999/xlink" contentStyleType="text/css" height="704px" preserveAspectRatio="none" style="width:862px;height:704px;background:#FFFFFF;" version="1.1" viewBox="0 0 862 704" width="862px" zoomAndPan="magnify"><defs/><g><rect fill="none" height="108.5313" style="stroke:#000000;stroke-width:1.5;" width="846" x="10" y="53.2969"/><rect fill="none" height="108.5313" style="stroke:#000000;stroke-width:1.5;" width="846" x="10" y="175.8281"/><rect fill="none" height="108.5313" style="stroke:#000000;stroke-width:1.5;" width="846" x="10" y="298.3594"/><rect fill="none" height="108.5313" style="stroke:#000000;stroke-width:1.5;" width="846" x="10" y="420.8906"/><rect fill="none" height="108.5313" style="stroke:#000000;stroke-width:1.5;" width="846" x="10" y="543.4219"/><line style="stroke:#181818;stroke-width:0.5;stroke-dasharray:5.0,5.0;" x1="51" x2="51" y1="36.2969" y2="668.9531"/><line style="stroke:#181818;stroke-width:0.5;stroke-dasharray:5.0,5.0;" x1="578" x2="578" y1="36.2969" y2="668.9531"/><rect fill="#E2E2F0" height="30.2969" rx="2.5" ry="2.5" style="stroke:#181818;stroke-width:0.5;" width="62" x="20" y="5"/><text fill="#000000" font-family="sans-serif" font-size="14" lengthAdjust="spacing" textLength="48" x="27" y="24.9951">ClientA</text><rect fill="#E2E2F0" height="30.2969" rx="2.5" ry="2.5" style="stroke:#181818;stroke-width:0.5;" width="62" x="20" y="667.9531"/><text fill="#000000" font-family="sans-serif" font-size="14" lengthAdjust="spacing" textLength="48" x="27" y="687.9482">ClientA</text><rect fill="#E2E2F0" height="30.2969" rx="2.5" ry="2.5" style="stroke:#181818;stroke-width:0.5;" width="58" x="549" y="5"/><text fill="#000000" font-family="sans-serif" font-size="14" lengthAdjust="spacing" textLength="44" x="556" y="24.9951">Server</text><rect fill="#E2E2F0" height="30.2969" rx="2.5" ry="2.5" style="stroke:#181818;stroke-width:0.5;" width="58" x="549" y="667.9531"/><text fill="#000000" font-family="sans-serif" font-size="14" lengthAdjust="spacing" textLength="44" x="556" y="687.9482">Server</text><path d="M10,53.2969 L134,53.2969 L134,60.4297 L124,70.4297 L10,70.4297 L10,53.2969 " fill="#EEEEEE" style="stroke:#000000;stroke-width:1.5;"/><rect fill="none" height="108.5313" style="stroke:#000000;stroke-width:1.5;" width="846" x="10" y="53.2969"/><text fill="#000000" font-family="sans-serif" font-size="13" font-weight="bold" lengthAdjust="spacing" textLength="74" x="25" y="66.3638">Join Game</text><text fill="#000000" font-family="sans-serif" font-size="11" font-weight="bold" lengthAdjust="spacing" textLength="25" x="149" y="65.5073">[ok]</text><polygon fill="#181818" points="566,87.5625,576,91.5625,566,95.5625,570,91.5625" style="stroke:#181818;stroke-width:1.0;"/><line style="stroke:#181818;stroke-width:1.0;" x1="51" x2="572" y1="91.5625" y2="91.5625"/><text fill="#000000" font-family="sans-serif" font-size="13" lengthAdjust="spacing" textLength="233" x="58" y="86.4966">joinGame(gameName, playerName)</text><rect fill="#D3D3D3" height="23" style="stroke:#181818;stroke-width:0.5;" width="537" x="309" y="104.5625"/><text fill="#000000" font-family="sans-serif" font-size="13" lengthAdjust="spacing" textLength="529" x="313" y="120.6294">MainController.gameControllerMiddleWares[x].joinGame(gameName, playerName)</text><polygon fill="#181818" points="62,149.8281,52,153.8281,62,157.8281,58,153.8281" style="stroke:#181818;stroke-width:1.0;"/><line style="stroke:#181818;stroke-width:1.0;" x1="56" x2="577" y1="153.8281" y2="153.8281"/><text fill="#000000" font-family="sans-serif" font-size="13" lengthAdjust="spacing" textLength="250" x="68" y="148.7622">{status: "success"}, VirtualViewUpdate</text><path d="M10,175.8281 L134,175.8281 L134,182.9609 L124,192.9609 L10,192.9609 L10,175.8281 " fill="#EEEEEE" style="stroke:#000000;stroke-width:1.5;"/><rect fill="none" height="108.5313" style="stroke:#000000;stroke-width:1.5;" width="846" x="10" y="175.8281"/><text fill="#000000" font-family="sans-serif" font-size="13" font-weight="bold" lengthAdjust="spacing" textLength="74" x="25" y="188.895">Join Game</text><text fill="#000000" font-family="sans-serif" font-size="11" font-weight="bold" lengthAdjust="spacing" textLength="156" x="149" y="188.0386">[failed due to game full]</text><polygon fill="#181818" points="566,210.0938,576,214.0938,566,218.0938,570,214.0938" style="stroke:#181818;stroke-width:1.0;"/><line style="stroke:#181818;stroke-width:1.0;" x1="51" x2="572" y1="214.0938" y2="214.0938"/><text fill="#000000" font-family="sans-serif" font-size="13" lengthAdjust="spacing" textLength="233" x="58" y="209.0278">joinGame(gameName, playerName)</text><rect fill="#D3D3D3" height="23" style="stroke:#181818;stroke-width:0.5;" width="537" x="309" y="227.0938"/><text fill="#000000" font-family="sans-serif" font-size="13" lengthAdjust="spacing" textLength="529" x="313" y="243.1606">MainController.gameControllerMiddleWares[x].joinGame(gameName, playerName)</text><polygon fill="#181818" points="62,272.3594,52,276.3594,62,280.3594,58,276.3594" style="stroke:#181818;stroke-width:1.0;"/><line style="stroke:#181818;stroke-width:1.0;" x1="56" x2="577" y1="276.3594" y2="276.3594"/><text fill="#000000" font-family="sans-serif" font-size="13" lengthAdjust="spacing" textLength="293" x="68" y="271.2935">{status: "failed", message: "The game is full"}</text><path d="M10,298.3594 L134,298.3594 L134,305.4922 L124,315.4922 L10,315.4922 L10,298.3594 " fill="#EEEEEE" style="stroke:#000000;stroke-width:1.5;"/><rect fill="none" height="108.5313" style="stroke:#000000;stroke-width:1.5;" width="846" x="10" y="298.3594"/><text fill="#000000" font-family="sans-serif" font-size="13" font-weight="bold" lengthAdjust="spacing" textLength="74" x="25" y="311.4263">Join Game</text><text fill="#000000" font-family="sans-serif" font-size="11" font-weight="bold" lengthAdjust="spacing" textLength="243" x="149" y="310.5698">[failed due to player already existing]</text><polygon fill="#181818" points="566,332.625,576,336.625,566,340.625,570,336.625" style="stroke:#181818;stroke-width:1.0;"/><line style="stroke:#181818;stroke-width:1.0;" x1="51" x2="572" y1="336.625" y2="336.625"/><text fill="#000000" font-family="sans-serif" font-size="13" lengthAdjust="spacing" textLength="233" x="58" y="331.5591">joinGame(gameName, playerName)</text><rect fill="#D3D3D3" height="23" style="stroke:#181818;stroke-width:0.5;" width="537" x="309" y="349.625"/><text fill="#000000" font-family="sans-serif" font-size="13" lengthAdjust="spacing" textLength="529" x="313" y="365.6919">MainController.gameControllerMiddleWares[x].joinGame(gameName, playerName)</text><polygon fill="#181818" points="62,394.8906,52,398.8906,62,402.8906,58,398.8906" style="stroke:#181818;stroke-width:1.0;"/><line style="stroke:#181818;stroke-width:1.0;" x1="56" x2="577" y1="398.8906" y2="398.8906"/><text fill="#000000" font-family="sans-serif" font-size="13" lengthAdjust="spacing" textLength="485" x="68" y="393.8247">{status: "failed", message: "The game already has the player playerName"}</text><path d="M10,420.8906 L134,420.8906 L134,428.0234 L124,438.0234 L10,438.0234 L10,420.8906 " fill="#EEEEEE" style="stroke:#000000;stroke-width:1.5;"/><rect fill="none" height="108.5313" style="stroke:#000000;stroke-width:1.5;" width="846" x="10" y="420.8906"/><text fill="#000000" font-family="sans-serif" font-size="13" font-weight="bold" lengthAdjust="spacing" textLength="74" x="25" y="433.9575">Join Game</text><text fill="#000000" font-family="sans-serif" font-size="11" font-weight="bold" lengthAdjust="spacing" textLength="211" x="149" y="433.1011">[failed due to game not existing]</text><polygon fill="#181818" points="566,455.1563,576,459.1563,566,463.1563,570,459.1563" style="stroke:#181818;stroke-width:1.0;"/><line style="stroke:#181818;stroke-width:1.0;" x1="51" x2="572" y1="459.1563" y2="459.1563"/><text fill="#000000" font-family="sans-serif" font-size="13" lengthAdjust="spacing" textLength="233" x="58" y="454.0903">joinGame(gameName, playerName)</text><rect fill="#D3D3D3" height="23" style="stroke:#181818;stroke-width:0.5;" width="537" x="309" y="472.1563"/><text fill="#000000" font-family="sans-serif" font-size="13" lengthAdjust="spacing" textLength="529" x="313" y="488.2231">MainController.gameControllerMiddleWares[x].joinGame(gameName, playerName)</text><polygon fill="#181818" points="62,517.4219,52,521.4219,62,525.4219,58,521.4219" style="stroke:#181818;stroke-width:1.0;"/><line style="stroke:#181818;stroke-width:1.0;" x1="56" x2="577" y1="521.4219" y2="521.4219"/><text fill="#000000" font-family="sans-serif" font-size="13" lengthAdjust="spacing" textLength="503" x="68" y="516.356">{status: "failed", message: "A game with the name gameName doesn't exist"}</text><path d="M10,543.4219 L134,543.4219 L134,550.5547 L124,560.5547 L10,560.5547 L10,543.4219 " fill="#EEEEEE" style="stroke:#000000;stroke-width:1.5;"/><rect fill="none" height="108.5313" style="stroke:#000000;stroke-width:1.5;" width="846" x="10" y="543.4219"/><text fill="#000000" font-family="sans-serif" font-size="13" font-weight="bold" lengthAdjust="spacing" textLength="74" x="25" y="556.4888">Join Game</text><text fill="#000000" font-family="sans-serif" font-size="11" font-weight="bold" lengthAdjust="spacing" textLength="211" x="149" y="555.6323">[failed due to game not existing]</text><polygon fill="#181818" points="566,577.6875,576,581.6875,566,585.6875,570,581.6875" style="stroke:#181818;stroke-width:1.0;"/><line style="stroke:#181818;stroke-width:1.0;" x1="51" x2="572" y1="581.6875" y2="581.6875"/><text fill="#000000" font-family="sans-serif" font-size="13" lengthAdjust="spacing" textLength="233" x="58" y="576.6216">joinGame(gameName, playerName)</text><rect fill="#D3D3D3" height="23" style="stroke:#181818;stroke-width:0.5;" width="537" x="309" y="594.6875"/><text fill="#000000" font-family="sans-serif" font-size="13" lengthAdjust="spacing" textLength="529" x="313" y="610.7544">MainController.gameControllerMiddleWares[x].joinGame(gameName, playerName)</text><polygon fill="#181818" points="62,639.9531,52,643.9531,62,647.9531,58,643.9531" style="stroke:#181818;stroke-width:1.0;"/><line style="stroke:#181818;stroke-width:1.0;" x1="56" x2="577" y1="643.9531" y2="643.9531"/><text fill="#000000" font-family="sans-serif" font-size="13" lengthAdjust="spacing" textLength="458" x="68" y="638.8872">{status: "failed", message: "Cannot join game in current Game status"}</text><!--SRC=[xPF1IWCn48Rl-nJ3Ub1XxGFq89Gz24AzgFLGUXWsqsmqJSeaiLsaxswosQMWbprR0mb9cFd__1z4iWrxUBJAm0Fk2DRsOrD07BLMPFm2xkxXcVYJ6ERm7ijIrOsCorES5UmrTiHfVzktiR6UmARweUrAAzbwoTH5XIKgKrlZsMfDF4iwv-DI2Q7f3PdS-hYPJN0RBE8Rn-VEuSjvzC7DeNIXQSYvybJ1Ih4Fg5UA3gzxWPuACg8evC_qMrIQ18X0u2qaOzW6hVyCafolh60NmQ2aUFNIKWwgN9-rF4rYatq1DHEA3kYed5T6NWIfCNIB3doy75YS3IOoxCLYvekWjyXn3ygtFJIJJgC-24lEN0ya_l7znbUZIL6JzF1T3JI1EVPcEBave_i6]--></g></svg>