<?xml version="1.0" encoding="us-ascii" standalone="no"?><svg xmlns="http://www.w3.org/2000/svg" xmlns:xlink="http://www.w3.org/1999/xlink" contentStyleType="text/css" height="948px" preserveAspectRatio="none" style="width:3166px;height:948px;background:#FFFFFF;" version="1.1" viewBox="0 0 3166 948" width="3166px" zoomAndPan="magnify"><defs/><g><!--cluster Network--><g id="cluster_Network"><path d="M8.5,6 L76.5,6 A3.75,3.75 0 0 1 79,8.5 L86,28.2969 L3156.5,28.2969 A2.5,2.5 0 0 1 3159,30.7969 L3159,938.52 A2.5,2.5 0 0 1 3156.5,941.02 L8.5,941.02 A2.5,2.5 0 0 1 6,938.52 L6,8.5 A2.5,2.5 0 0 1 8.5,6 " fill="none" style="stroke:#000000;stroke-width:1.5;"/><line style="stroke:#000000;stroke-width:1.5;" x1="6" x2="86" y1="28.2969" y2="28.2969"/><text fill="#000000" font-family="sans-serif" font-size="14" font-weight="bold" lengthAdjust="spacing" textLength="67" x="10" y="20.9951">Network</text></g><!--cluster message--><g id="cluster_message"><path d="M32.5,49 L104.5,49 A3.75,3.75 0 0 1 107,51.5 L114,71.2969 L734.5,71.2969 A2.5,2.5 0 0 1 737,73.7969 L737,656.92 A2.5,2.5 0 0 1 734.5,659.42 L32.5,659.42 A2.5,2.5 0 0 1 30,656.92 L30,51.5 A2.5,2.5 0 0 1 32.5,49 " fill="none" style="stroke:#000000;stroke-width:1.5;"/><line style="stroke:#000000;stroke-width:1.5;" x1="30" x2="114" y1="71.2969" y2="71.2969"/><text fill="#000000" font-family="sans-serif" font-size="14" font-weight="bold" lengthAdjust="spacing" textLength="71" x="34" y="63.9951">message</text></g><!--cluster Server--><g id="cluster_Server"><path d="M763.5,49 L817.5,49 A3.75,3.75 0 0 1 820,51.5 L827,71.2969 L2007.5,71.2969 A2.5,2.5 0 0 1 2010,73.7969 L2010,665.07 A2.5,2.5 0 0 1 2007.5,667.57 L763.5,667.57 A2.5,2.5 0 0 1 761,665.07 L761,51.5 A2.5,2.5 0 0 1 763.5,49 " fill="none" style="stroke:#000000;stroke-width:1.5;"/><line style="stroke:#000000;stroke-width:1.5;" x1="761" x2="827" y1="71.2969" y2="71.2969"/><text fill="#000000" font-family="sans-serif" font-size="14" font-weight="bold" lengthAdjust="spacing" textLength="53" x="765" y="63.9951">Server</text></g><!--cluster Client--><g id="cluster_Client"><path d="M2036.5,49 L2082.5,49 A3.75,3.75 0 0 1 2085,51.5 L2092,71.2969 L2782.5,71.2969 A2.5,2.5 0 0 1 2785,73.7969 L2785,656.92 A2.5,2.5 0 0 1 2782.5,659.42 L2036.5,659.42 A2.5,2.5 0 0 1 2034,656.92 L2034,51.5 A2.5,2.5 0 0 1 2036.5,49 " fill="none" style="stroke:#000000;stroke-width:1.5;"/><line style="stroke:#000000;stroke-width:1.5;" x1="2034" x2="2092" y1="71.2969" y2="71.2969"/><text fill="#000000" font-family="sans-serif" font-size="14" font-weight="bold" lengthAdjust="spacing" textLength="45" x="2038" y="63.9951">Client</text></g><!--class TCPObservable--><g id="elem_TCPObservable"><rect codeLine="22" fill="#F1F1F1" height="80.5938" id="TCPObservable" rx="2.5" ry="2.5" style="stroke:#181818;stroke-width:0.5;" width="339" x="2804.5" y="562.82"/><ellipse cx="2916.75" cy="578.82" fill="#B4A7E5" rx="11" ry="11" style="stroke:#181818;stroke-width:1.0;"/><path d="M2912.6719,574.5856 L2912.6719,572.4294 L2920.0625,572.4294 L2920.0625,574.5856 L2917.5938,574.5856 L2917.5938,582.6637 L2920.0625,582.6637 L2920.0625,584.82 L2912.6719,584.82 L2912.6719,582.6637 L2915.1406,582.6637 L2915.1406,574.5856 L2912.6719,574.5856 Z " fill="#000000"/><text fill="#000000" font-family="sans-serif" font-size="14" font-style="italic" lengthAdjust="spacing" textLength="106" x="2937.25" y="583.6667">TCPObservable</text><line style="stroke:#181818;stroke-width:0.5;" x1="2805.5" x2="3142.5" y1="594.82" y2="594.82"/><line style="stroke:#181818;stroke-width:0.5;" x1="2805.5" x2="3142.5" y1="602.82" y2="602.82"/><ellipse cx="2815.5" cy="616.4684" fill="#84BE84" rx="3" ry="3" style="stroke:#038048;stroke-width:1.0;"/><text fill="#000000" font-family="sans-serif" font-size="14" lengthAdjust="spacing" textLength="283" x="2824.5" y="619.8151">void setObserver(TCPObserver observer)</text><ellipse cx="2815.5" cy="632.7653" fill="#84BE84" rx="3" ry="3" style="stroke:#038048;stroke-width:1.0;"/><text fill="#000000" font-family="sans-serif" font-size="14" lengthAdjust="spacing" textLength="313" x="2824.5" y="636.112">void removeObserver(TCPObserver observer)</text></g><!--class TCPConnectionHandler--><g id="elem_TCPConnectionHandler"><rect codeLine="26" fill="#F1F1F1" height="113.1875" id="TCPConnectionHandler" rx="2.5" ry="2.5" style="stroke:#181818;stroke-width:0.5;" width="339" x="2431.5" y="711.57"/><ellipse cx="2516.25" cy="727.57" fill="#ADD1B2" rx="11" ry="11" style="stroke:#181818;stroke-width:1.0;"/><path d="M2519.2188,733.2106 Q2518.6406,733.5075 2518,733.6481 Q2517.3594,733.8044 2516.6563,733.8044 Q2514.1563,733.8044 2512.8281,732.1637 Q2511.5156,730.5075 2511.5156,727.3825 Q2511.5156,724.2575 2512.8281,722.6012 Q2514.1563,720.945 2516.6563,720.945 Q2517.3594,720.945 2518,721.1012 Q2518.6563,721.2575 2519.2188,721.5544 L2519.2188,724.2731 Q2518.5938,723.695 2518,723.4294 Q2517.4063,723.1481 2516.7813,723.1481 Q2515.4375,723.1481 2514.75,724.2262 Q2514.0625,725.2887 2514.0625,727.3825 Q2514.0625,729.4762 2514.75,730.5544 Q2515.4375,731.6169 2516.7813,731.6169 Q2517.4063,731.6169 2518,731.3512 Q2518.5938,731.07 2519.2188,730.4919 L2519.2188,733.2106 Z " fill="#000000"/><text fill="#000000" font-family="sans-serif" font-size="14" lengthAdjust="spacing" textLength="161" x="2536.75" y="732.4167">TCPConnectionHandler</text><line style="stroke:#181818;stroke-width:0.5;" x1="2432.5" x2="2769.5" y1="743.57" y2="743.57"/><rect fill="none" height="6" style="stroke:#C82930;stroke-width:1.0;" width="6" x="2439.5" y="754.2184"/><text fill="#000000" font-family="sans-serif" font-size="14" lengthAdjust="spacing" textLength="245" x="2451.5" y="760.5651">ArrayList&lt;TCPObserver&gt; observers</text><line style="stroke:#181818;stroke-width:0.5;" x1="2432.5" x2="2769.5" y1="767.8669" y2="767.8669"/><ellipse cx="2442.5" cy="781.5153" fill="#84BE84" rx="3" ry="3" style="stroke:#038048;stroke-width:1.0;"/><text fill="#000000" font-family="sans-serif" font-size="14" lengthAdjust="spacing" textLength="283" x="2451.5" y="784.862">void setObserver(TCPObserver observer)</text><ellipse cx="2442.5" cy="797.8122" fill="#84BE84" rx="3" ry="3" style="stroke:#038048;stroke-width:1.0;"/><text fill="#000000" font-family="sans-serif" font-size="14" lengthAdjust="spacing" textLength="313" x="2451.5" y="801.1589">void removeObserver(TCPObserver observer)</text><ellipse cx="2442.5" cy="814.1091" fill="#84BE84" rx="3" ry="3" style="stroke:#038048;stroke-width:1.0;"/><text fill="#000000" font-family="sans-serif" font-size="14" lengthAdjust="spacing" textLength="214" x="2451.5" y="817.4557">void sendMessage(String msg)</text></g><!--class TCPObserver--><g id="elem_TCPObserver"><rect codeLine="33" fill="#F1F1F1" height="64.2969" id="TCPObserver" rx="2.5" ry="2.5" style="stroke:#181818;stroke-width:0.5;" width="179" x="1787.5" y="736.01"/><ellipse cx="1827.7" cy="752.01" fill="#B4A7E5" rx="11" ry="11" style="stroke:#181818;stroke-width:1.0;"/><path d="M1823.6219,747.7756 L1823.6219,745.6194 L1831.0125,745.6194 L1831.0125,747.7756 L1828.5438,747.7756 L1828.5438,755.8538 L1831.0125,755.8538 L1831.0125,758.01 L1823.6219,758.01 L1823.6219,755.8538 L1826.0906,755.8538 L1826.0906,747.7756 L1823.6219,747.7756 Z " fill="#000000"/><text fill="#000000" font-family="sans-serif" font-size="14" font-style="italic" lengthAdjust="spacing" textLength="91" x="1847.3" y="756.8567">TCPObserver</text><line style="stroke:#181818;stroke-width:0.5;" x1="1788.5" x2="1965.5" y1="768.01" y2="768.01"/><line style="stroke:#181818;stroke-width:0.5;" x1="1788.5" x2="1965.5" y1="776.01" y2="776.01"/><ellipse cx="1798.5" cy="789.6584" fill="#84BE84" rx="3" ry="3" style="stroke:#038048;stroke-width:1.0;"/><text fill="#000000" font-family="sans-serif" font-size="14" lengthAdjust="spacing" textLength="153" x="1807.5" y="793.0051">void notify(String msg)</text></g><g id="elem_GMN19"><path d="M2350.5,884.75 L2350.5,925.0156 A0,0 0 0 0 2350.5,925.0156 L2851.5,925.0156 A0,0 0 0 0 2851.5,925.0156 L2851.5,894.75 L2841.5,884.75 L2605,884.75 L2601,825.13 L2597,884.75 L2350.5,884.75 A0,0 0 0 0 2350.5,884.75 " fill="#FEFFDD" style="stroke:#181818;stroke-width:0.5;"/><path d="M2841.5,884.75 L2841.5,894.75 L2851.5,894.75 L2841.5,884.75 " fill="#FEFFDD" style="stroke:#181818;stroke-width:0.5;"/><text fill="#000000" font-family="sans-serif" font-size="13" lengthAdjust="spacing" textLength="468" x="2356.5" y="901.8169">TCPConnectionHandler is the main class that handles the TCP connection</text><text fill="#000000" font-family="sans-serif" font-size="13" lengthAdjust="spacing" textLength="480" x="2356.5" y="916.9497">It is Observable because it has to notify a class when it receives a message</text></g><!--class Message--><g id="elem_Message"><rect codeLine="3" fill="#F1F1F1" height="48" id="Message" rx="2.5" ry="2.5" style="stroke:#181818;stroke-width:0.5;" width="95" x="373.5" y="84"/><ellipse cx="388.5" cy="100" fill="#B4A7E5" rx="11" ry="11" style="stroke:#181818;stroke-width:1.0;"/><path d="M384.4219,95.7656 L384.4219,93.6094 L391.8125,93.6094 L391.8125,95.7656 L389.3438,95.7656 L389.3438,103.8438 L391.8125,103.8438 L391.8125,106 L384.4219,106 L384.4219,103.8438 L386.8906,103.8438 L386.8906,95.7656 L384.4219,95.7656 Z " fill="#000000"/><text fill="#000000" font-family="sans-serif" font-size="14" font-style="italic" lengthAdjust="spacing" textLength="63" x="402.5" y="104.8467">Message</text><line style="stroke:#181818;stroke-width:0.5;" x1="374.5" x2="467.5" y1="116" y2="116"/><line style="stroke:#181818;stroke-width:0.5;" x1="374.5" x2="467.5" y1="124" y2="124"/></g><!--class ServerMessage--><g id="elem_ServerMessage"><rect codeLine="4" fill="#F1F1F1" height="80.5938" id="ServerMessage" rx="2.5" ry="2.5" style="stroke:#181818;stroke-width:0.5;" width="220" x="205" y="232.75"/><ellipse cx="257.25" cy="248.75" fill="#A9DCDF" rx="11" ry="11" style="stroke:#181818;stroke-width:1.0;"/><path d="M257.3594,244.0938 L256.2031,249.1719 L258.5313,249.1719 L257.3594,244.0938 Z M255.875,241.8594 L258.8594,241.8594 L262.2188,254.25 L259.7656,254.25 L259,251.1875 L255.7188,251.1875 L254.9688,254.25 L252.5313,254.25 L255.875,241.8594 Z " fill="#000000"/><text fill="#000000" font-family="sans-serif" font-size="14" font-style="italic" lengthAdjust="spacing" textLength="107" x="277.75" y="253.5967">ServerMessage</text><line style="stroke:#181818;stroke-width:0.5;" x1="206" x2="424" y1="264.75" y2="264.75"/><rect fill="none" height="6" style="stroke:#C82930;stroke-width:1.0;" width="6" x="213" y="275.3984"/><text fill="#000000" font-family="sans-serif" font-size="14" lengthAdjust="spacing" textLength="194" x="225" y="281.7451">MessageStatusEnum status</text><line style="stroke:#181818;stroke-width:0.5;" x1="206" x2="424" y1="289.0469" y2="289.0469"/><ellipse cx="216" cy="302.6953" fill="#84BE84" rx="3" ry="3" style="stroke:#038048;stroke-width:1.0;"/><text fill="#000000" font-family="sans-serif" font-size="14" lengthAdjust="spacing" textLength="140" x="225" y="306.042">getMessageStatus()</text></g><!--class ErrorServerMessage--><g id="elem_ErrorServerMessage"><rect codeLine="8" fill="#F1F1F1" height="80.5938" id="ErrorServerMessage" rx="2.5" ry="2.5" style="stroke:#181818;stroke-width:0.5;" width="284" x="46" y="414.08"/><ellipse cx="113.75" cy="430.08" fill="#ADD1B2" rx="11" ry="11" style="stroke:#181818;stroke-width:1.0;"/><path d="M116.7188,435.7206 Q116.1406,436.0175 115.5,436.1581 Q114.8594,436.3144 114.1563,436.3144 Q111.6563,436.3144 110.3281,434.6737 Q109.0156,433.0175 109.0156,429.8925 Q109.0156,426.7675 110.3281,425.1112 Q111.6563,423.455 114.1563,423.455 Q114.8594,423.455 115.5,423.6112 Q116.1563,423.7675 116.7188,424.0644 L116.7188,426.7831 Q116.0938,426.205 115.5,425.9394 Q114.9063,425.6581 114.2813,425.6581 Q112.9375,425.6581 112.25,426.7362 Q111.5625,427.7987 111.5625,429.8925 Q111.5625,431.9862 112.25,433.0644 Q112.9375,434.1269 114.2813,434.1269 Q114.9063,434.1269 115.5,433.8612 Q116.0938,433.58 116.7188,433.0019 L116.7188,435.7206 Z " fill="#000000"/><text fill="#000000" font-family="sans-serif" font-size="14" lengthAdjust="spacing" textLength="140" x="134.25" y="434.9267">ErrorServerMessage</text><line style="stroke:#181818;stroke-width:0.5;" x1="47" x2="329" y1="446.08" y2="446.08"/><rect fill="none" height="6" style="stroke:#C82930;stroke-width:1.0;" width="6" x="54" y="456.7284"/><text fill="#000000" font-family="sans-serif" font-size="14" lengthAdjust="spacing" textLength="108" x="66" y="463.0751">String message</text><line style="stroke:#181818;stroke-width:0.5;" x1="47" x2="329" y1="470.3769" y2="470.3769"/><ellipse cx="57" cy="484.0253" fill="#84BE84" rx="3" ry="3" style="stroke:#038048;stroke-width:1.0;"/><text fill="#000000" font-family="sans-serif" font-size="14" lengthAdjust="spacing" textLength="258" x="66" y="487.372">ErrorServerMessage(String message)</text></g><!--class SuccessServerMessage--><g id="elem_SuccessServerMessage"><rect codeLine="12" fill="#F1F1F1" height="80.5938" id="SuccessServerMessage" rx="2.5" ry="2.5" style="stroke:#181818;stroke-width:0.5;" width="357" x="364.5" y="414.08"/><ellipse cx="455.75" cy="430.08" fill="#ADD1B2" rx="11" ry="11" style="stroke:#181818;stroke-width:1.0;"/><path d="M458.7188,435.7206 Q458.1406,436.0175 457.5,436.1581 Q456.8594,436.3144 456.1563,436.3144 Q453.6563,436.3144 452.3281,434.6737 Q451.0156,433.0175 451.0156,429.8925 Q451.0156,426.7675 452.3281,425.1112 Q453.6563,423.455 456.1563,423.455 Q456.8594,423.455 457.5,423.6112 Q458.1563,423.7675 458.7188,424.0644 L458.7188,426.7831 Q458.0938,426.205 457.5,425.9394 Q456.9063,425.6581 456.2813,425.6581 Q454.9375,425.6581 454.25,426.7362 Q453.5625,427.7987 453.5625,429.8925 Q453.5625,431.9862 454.25,433.0644 Q454.9375,434.1269 456.2813,434.1269 Q456.9063,434.1269 457.5,433.8612 Q458.0938,433.58 458.7188,433.0019 L458.7188,435.7206 Z " fill="#000000"/><text fill="#000000" font-family="sans-serif" font-size="14" lengthAdjust="spacing" textLength="166" x="476.25" y="434.9267">SuccessServerMessage</text><line style="stroke:#181818;stroke-width:0.5;" x1="365.5" x2="720.5" y1="446.08" y2="446.08"/><rect fill="none" height="6" style="stroke:#C82930;stroke-width:1.0;" width="6" x="372.5" y="456.7284"/><text fill="#000000" font-family="sans-serif" font-size="14" lengthAdjust="spacing" textLength="173" x="384.5" y="463.0751">ServerActionEnum action</text><line style="stroke:#181818;stroke-width:0.5;" x1="365.5" x2="720.5" y1="470.3769" y2="470.3769"/><ellipse cx="375.5" cy="484.0253" fill="#84BE84" rx="3" ry="3" style="stroke:#038048;stroke-width:1.0;"/><text fill="#000000" font-family="sans-serif" font-size="14" lengthAdjust="spacing" textLength="331" x="384.5" y="487.372">GameServerMessage(ServerActionEnum action)</text></g><!--class ViewUpdateMessage--><g id="elem_ViewUpdateMessage"><rect codeLine="16" fill="#F1F1F1" height="80.5938" id="ViewUpdateMessage" rx="2.5" ry="2.5" style="stroke:#181818;stroke-width:0.5;" width="399" x="321.5" y="562.82"/><ellipse cx="444.25" cy="578.82" fill="#ADD1B2" rx="11" ry="11" style="stroke:#181818;stroke-width:1.0;"/><path d="M447.2188,584.4606 Q446.6406,584.7575 446,584.8981 Q445.3594,585.0544 444.6563,585.0544 Q442.1563,585.0544 440.8281,583.4137 Q439.5156,581.7575 439.5156,578.6325 Q439.5156,575.5075 440.8281,573.8512 Q442.1563,572.195 444.6563,572.195 Q445.3594,572.195 446,572.3512 Q446.6563,572.5075 447.2188,572.8044 L447.2188,575.5231 Q446.5938,574.945 446,574.6794 Q445.4063,574.3981 444.7813,574.3981 Q443.4375,574.3981 442.75,575.4762 Q442.0625,576.5387 442.0625,578.6325 Q442.0625,580.7262 442.75,581.8044 Q443.4375,582.8669 444.7813,582.8669 Q445.4063,582.8669 446,582.6012 Q446.5938,582.32 447.2188,581.7419 L447.2188,584.4606 Z " fill="#000000"/><text fill="#000000" font-family="sans-serif" font-size="14" lengthAdjust="spacing" textLength="145" x="464.75" y="583.6667">ViewUpdateMessage</text><line style="stroke:#181818;stroke-width:0.5;" x1="322.5" x2="719.5" y1="594.82" y2="594.82"/><rect fill="none" height="6" style="stroke:#C82930;stroke-width:1.0;" width="6" x="329.5" y="605.4684"/><text fill="#000000" font-family="sans-serif" font-size="14" lengthAdjust="spacing" textLength="174" x="341.5" y="611.8151">GameControllerView view</text><line style="stroke:#181818;stroke-width:0.5;" x1="322.5" x2="719.5" y1="619.1169" y2="619.1169"/><ellipse cx="332.5" cy="632.7653" fill="#84BE84" rx="3" ry="3" style="stroke:#038048;stroke-width:1.0;"/><text fill="#000000" font-family="sans-serif" font-size="14" lengthAdjust="spacing" textLength="373" x="341.5" y="636.112">ViewUpdateServerMessage(GameControllerView view)</text></g><!--class ClientMessage--><g id="elem_ClientMessage"><rect codeLine="20" fill="#F1F1F1" height="48" id="ClientMessage" rx="2.5" ry="2.5" style="stroke:#181818;stroke-width:0.5;" width="134" x="460" y="249.04"/><ellipse cx="475" cy="265.04" fill="#ADD1B2" rx="11" ry="11" style="stroke:#181818;stroke-width:1.0;"/><path d="M477.9688,270.6806 Q477.3906,270.9775 476.75,271.1181 Q476.1094,271.2744 475.4063,271.2744 Q472.9063,271.2744 471.5781,269.6337 Q470.2656,267.9775 470.2656,264.8525 Q470.2656,261.7275 471.5781,260.0712 Q472.9063,258.415 475.4063,258.415 Q476.1094,258.415 476.75,258.5712 Q477.4063,258.7275 477.9688,259.0244 L477.9688,261.7431 Q477.3438,261.165 476.75,260.8994 Q476.1563,260.6181 475.5313,260.6181 Q474.1875,260.6181 473.5,261.6962 Q472.8125,262.7587 472.8125,264.8525 Q472.8125,266.9462 473.5,268.0244 Q474.1875,269.0869 475.5313,269.0869 Q476.1563,269.0869 476.75,268.8212 Q477.3438,268.54 477.9688,267.9619 L477.9688,270.6806 Z " fill="#000000"/><text fill="#000000" font-family="sans-serif" font-size="14" lengthAdjust="spacing" textLength="102" x="489" y="269.8867">ClientMessage</text><line style="stroke:#181818;stroke-width:0.5;" x1="461" x2="593" y1="281.04" y2="281.04"/><line style="stroke:#181818;stroke-width:0.5;" x1="461" x2="593" y1="289.04" y2="289.04"/></g><!--class ServerMessageHandler--><g id="elem_ServerMessageHandler"><rect codeLine="45" fill="#F1F1F1" height="80.5938" id="ServerMessageHandler" rx="2.5" ry="2.5" style="stroke:#181818;stroke-width:0.5;" width="341" x="1421.5" y="414.08"/><ellipse cx="1507.75" cy="430.08" fill="#B4A7E5" rx="11" ry="11" style="stroke:#181818;stroke-width:1.0;"/><path d="M1503.6719,425.8456 L1503.6719,423.6894 L1511.0625,423.6894 L1511.0625,425.8456 L1508.5938,425.8456 L1508.5938,433.9237 L1511.0625,433.9237 L1511.0625,436.08 L1503.6719,436.08 L1503.6719,433.9237 L1506.1406,433.9237 L1506.1406,425.8456 L1503.6719,425.8456 Z " fill="#000000"/><text fill="#000000" font-family="sans-serif" font-size="14" font-style="italic" lengthAdjust="spacing" textLength="160" x="1528.25" y="434.9267">ServerMessageHandler</text><line style="stroke:#181818;stroke-width:0.5;" x1="1422.5" x2="1761.5" y1="446.08" y2="446.08"/><line style="stroke:#181818;stroke-width:0.5;" x1="1422.5" x2="1761.5" y1="454.08" y2="454.08"/><ellipse cx="1432.5" cy="467.7284" fill="#84BE84" rx="3" ry="3" style="stroke:#038048;stroke-width:1.0;"/><text fill="#000000" font-family="sans-serif" font-size="14" lengthAdjust="spacing" textLength="315" x="1441.5" y="471.0751">void sendMessage(ServerMessage message)</text><ellipse cx="1432.5" cy="484.0253" fill="#84BE84" rx="3" ry="3" style="stroke:#038048;stroke-width:1.0;"/><text fill="#000000" font-family="sans-serif" font-size="14" lengthAdjust="spacing" textLength="159" x="1441.5" y="487.372">void closeConnection()</text></g><g id="elem_GMN24"><path d="M909.5,441.81 L909.5,466.9428 A0,0 0 0 0 909.5,466.9428 L1386.5,466.9428 A0,0 0 0 0 1386.5,466.9428 L1386.5,459.81 L1421.36,454.38 L1386.5,451.81 L1386.5,451.81 L1376.5,441.81 L909.5,441.81 A0,0 0 0 0 909.5,441.81 " fill="#FEFFDD" style="stroke:#181818;stroke-width:0.5;"/><path d="M1376.5,441.81 L1376.5,451.81 L1386.5,451.81 L1376.5,441.81 " fill="#FEFFDD" style="stroke:#181818;stroke-width:0.5;"/><text fill="#000000" font-family="sans-serif" font-size="13" lengthAdjust="spacing" textLength="456" x="915.5" y="458.8769">Interface that is implemented by the classes that handle the messages</text></g><!--class TCPServerAdapter--><g id="elem_TCPServerAdapter"><rect codeLine="54" fill="#F1F1F1" height="96.8906" id="TCPServerAdapter" rx="2.5" ry="2.5" style="stroke:#181818;stroke-width:0.5;" width="341" x="1277.5" y="554.68"/><ellipse cx="1380.75" cy="570.68" fill="#ADD1B2" rx="11" ry="11" style="stroke:#181818;stroke-width:1.0;"/><path d="M1383.7188,576.3206 Q1383.1406,576.6175 1382.5,576.7581 Q1381.8594,576.9144 1381.1563,576.9144 Q1378.6563,576.9144 1377.3281,575.2738 Q1376.0156,573.6175 1376.0156,570.4925 Q1376.0156,567.3675 1377.3281,565.7113 Q1378.6563,564.055 1381.1563,564.055 Q1381.8594,564.055 1382.5,564.2113 Q1383.1563,564.3675 1383.7188,564.6644 L1383.7188,567.3831 Q1383.0938,566.805 1382.5,566.5394 Q1381.9063,566.2581 1381.2813,566.2581 Q1379.9375,566.2581 1379.25,567.3363 Q1378.5625,568.3988 1378.5625,570.4925 Q1378.5625,572.5863 1379.25,573.6644 Q1379.9375,574.7269 1381.2813,574.7269 Q1381.9063,574.7269 1382.5,574.4613 Q1383.0938,574.18 1383.7188,573.6019 L1383.7188,576.3206 Z " fill="#000000"/><text fill="#000000" font-family="sans-serif" font-size="14" lengthAdjust="spacing" textLength="126" x="1401.25" y="575.5267">TCPServerAdapter</text><line style="stroke:#181818;stroke-width:0.5;" x1="1278.5" x2="1617.5" y1="586.68" y2="586.68"/><rect fill="none" height="6" style="stroke:#C82930;stroke-width:1.0;" width="6" x="1285.5" y="597.3284"/><text fill="#000000" font-family="sans-serif" font-size="14" lengthAdjust="spacing" textLength="243" x="1297.5" y="603.6751">TCPConnectionHandler connection</text><line style="stroke:#181818;stroke-width:0.5;" x1="1278.5" x2="1617.5" y1="610.9769" y2="610.9769"/><ellipse cx="1288.5" cy="624.6253" fill="#84BE84" rx="3" ry="3" style="stroke:#038048;stroke-width:1.0;"/><text fill="#000000" font-family="sans-serif" font-size="14" lengthAdjust="spacing" textLength="153" x="1297.5" y="627.972">void notify(String msg)</text><ellipse cx="1288.5" cy="640.9222" fill="#84BE84" rx="3" ry="3" style="stroke:#038048;stroke-width:1.0;"/><text fill="#000000" font-family="sans-serif" font-size="14" lengthAdjust="spacing" textLength="315" x="1297.5" y="644.2689">void sendMessage(ServerMessage message)</text></g><g id="elem_GMN31"><path d="M777,582.99 L777,623.2556 A0,0 0 0 0 777,623.2556 L1243,623.2556 A0,0 0 0 0 1243,623.2556 L1243,607.12 L1277.13,603.12 L1243,599.12 L1243,592.99 L1233,582.99 L777,582.99 A0,0 0 0 0 777,582.99 " fill="#FEFFDD" style="stroke:#181818;stroke-width:0.5;"/><path d="M1233,582.99 L1233,592.99 L1243,592.99 L1233,582.99 " fill="#FEFFDD" style="stroke:#181818;stroke-width:0.5;"/><text fill="#000000" font-family="sans-serif" font-size="13" lengthAdjust="spacing" textLength="445" x="783" y="600.0569">This class converts the messages from text to objects and vice versa.</text><text fill="#000000" font-family="sans-serif" font-size="13" lengthAdjust="spacing" textLength="262" x="783" y="615.1897">It also sends the messages to the clients</text></g><!--class RMIConnectionHandler--><g id="elem_RMIConnectionHandler"><rect codeLine="67" fill="#F1F1F1" height="64.2969" id="RMIConnectionHandler" rx="2.5" ry="2.5" style="stroke:#181818;stroke-width:0.5;" width="341" x="1653.5" y="570.97"/><ellipse cx="1740.75" cy="586.97" fill="#ADD1B2" rx="11" ry="11" style="stroke:#181818;stroke-width:1.0;"/><path d="M1743.7188,592.6106 Q1743.1406,592.9075 1742.5,593.0481 Q1741.8594,593.2044 1741.1563,593.2044 Q1738.6563,593.2044 1737.3281,591.5638 Q1736.0156,589.9075 1736.0156,586.7825 Q1736.0156,583.6575 1737.3281,582.0013 Q1738.6563,580.345 1741.1563,580.345 Q1741.8594,580.345 1742.5,580.5013 Q1743.1563,580.6575 1743.7188,580.9544 L1743.7188,583.6731 Q1743.0938,583.095 1742.5,582.8294 Q1741.9063,582.5481 1741.2813,582.5481 Q1739.9375,582.5481 1739.25,583.6263 Q1738.5625,584.6888 1738.5625,586.7825 Q1738.5625,588.8763 1739.25,589.9544 Q1739.9375,591.0169 1741.2813,591.0169 Q1741.9063,591.0169 1742.5,590.7513 Q1743.0938,590.47 1743.7188,589.8919 L1743.7188,592.6106 Z " fill="#000000"/><text fill="#000000" font-family="sans-serif" font-size="14" lengthAdjust="spacing" textLength="158" x="1761.25" y="591.8167">RMIConnectionHandler</text><line style="stroke:#181818;stroke-width:0.5;" x1="1654.5" x2="1993.5" y1="602.97" y2="602.97"/><line style="stroke:#181818;stroke-width:0.5;" x1="1654.5" x2="1993.5" y1="610.97" y2="610.97"/><ellipse cx="1664.5" cy="624.6184" fill="#84BE84" rx="3" ry="3" style="stroke:#038048;stroke-width:1.0;"/><text fill="#000000" font-family="sans-serif" font-size="14" lengthAdjust="spacing" textLength="315" x="1673.5" y="627.9651">void sendMessage(ServerMessage message)</text></g><!--class NetworkCommandMapper--><g id="elem_NetworkCommandMapper"><rect codeLine="72" fill="#F1F1F1" height="162.0781" id="NetworkCommandMapper" rx="2.5" ry="2.5" style="stroke:#181818;stroke-width:0.5;" width="573" x="1305.5" y="192"/><ellipse cx="1497.75" cy="208" fill="#ADD1B2" rx="11" ry="11" style="stroke:#181818;stroke-width:1.0;"/><path d="M1500.7188,213.6406 Q1500.1406,213.9375 1499.5,214.0781 Q1498.8594,214.2344 1498.1563,214.2344 Q1495.6563,214.2344 1494.3281,212.5938 Q1493.0156,210.9375 1493.0156,207.8125 Q1493.0156,204.6875 1494.3281,203.0313 Q1495.6563,201.375 1498.1563,201.375 Q1498.8594,201.375 1499.5,201.5313 Q1500.1563,201.6875 1500.7188,201.9844 L1500.7188,204.7031 Q1500.0938,204.125 1499.5,203.8594 Q1498.9063,203.5781 1498.2813,203.5781 Q1496.9375,203.5781 1496.25,204.6563 Q1495.5625,205.7188 1495.5625,207.8125 Q1495.5625,209.9063 1496.25,210.9844 Q1496.9375,212.0469 1498.2813,212.0469 Q1498.9063,212.0469 1499.5,211.7813 Q1500.0938,211.5 1500.7188,210.9219 L1500.7188,213.6406 Z " fill="#000000"/><text fill="#000000" font-family="sans-serif" font-size="14" lengthAdjust="spacing" textLength="180" x="1518.25" y="212.8467">NetworkCommandMapper</text><line style="stroke:#181818;stroke-width:0.5;" x1="1306.5" x2="1877.5" y1="224" y2="224"/><rect fill="none" height="6" style="stroke:#C82930;stroke-width:1.0;" width="6" x="1313.5" y="234.6484"/><text fill="#000000" font-family="sans-serif" font-size="14" lengthAdjust="spacing" textLength="332" x="1325.5" y="240.9951">HashSet&lt;ServerMessageHandler&gt; connections</text><rect fill="none" height="6" style="stroke:#C82930;stroke-width:1.0;" width="6" x="1313.5" y="250.9453"/><text fill="#000000" font-family="sans-serif" font-size="14" lengthAdjust="spacing" textLength="490" x="1325.5" y="257.292">HashMap&lt;String gameName, ServerMessageHandler&gt; connectionMap</text><rect fill="none" height="6" style="stroke:#C82930;stroke-width:1.0;" width="6" x="1313.5" y="267.2422"/><text fill="#000000" font-family="sans-serif" font-size="14" lengthAdjust="spacing" textLength="203" x="1325.5" y="273.5889">MainController mainController</text><line style="stroke:#181818;stroke-width:0.5;" x1="1306.5" x2="1877.5" y1="280.8906" y2="280.8906"/><rect fill="#F24D5C" height="6" style="stroke:#C82930;stroke-width:1.0;" width="6" x="1313.5" y="291.5391"/><text fill="#000000" font-family="sans-serif" font-size="14" lengthAdjust="spacing" textLength="446" x="1325.5" y="297.8857">void broadcastMessage(ServerMessage msg, String gameName)</text><ellipse cx="1316.5" cy="310.8359" fill="#84BE84" rx="3" ry="3" style="stroke:#038048;stroke-width:1.0;"/><text fill="#000000" font-family="sans-serif" font-size="14" lengthAdjust="spacing" textLength="521" x="1325.5" y="314.1826">void addConnection(ServerMessageHandler connection, String gameName)</text><ellipse cx="1316.5" cy="327.1328" fill="#84BE84" rx="3" ry="3" style="stroke:#038048;stroke-width:1.0;"/><text fill="#000000" font-family="sans-serif" font-size="14" lengthAdjust="spacing" textLength="547" x="1325.5" y="330.4795">void removeConnection(ServerMessageHandler connection, String gameName)</text><ellipse cx="1316.5" cy="343.4297" fill="#84BE84" rx="3" ry="3" style="stroke:#038048;stroke-width:1.0;"/><text fill="#000000" font-family="sans-serif" font-size="14" lengthAdjust="spacing" textLength="446" x="1325.5" y="346.7764">void broadcastMessage(ServerMessage msg, String gameName)</text></g><!--class ClientActions--><g id="elem_ClientActions"><rect fill="#F1F1F1" height="48" id="ClientActions" rx="2.5" ry="2.5" style="stroke:#181818;stroke-width:0.5;" width="122" x="1531" y="84"/><ellipse cx="1546" cy="100" fill="#B4A7E5" rx="11" ry="11" style="stroke:#181818;stroke-width:1.0;"/><path d="M1541.9219,95.7656 L1541.9219,93.6094 L1549.3125,93.6094 L1549.3125,95.7656 L1546.8438,95.7656 L1546.8438,103.8438 L1549.3125,103.8438 L1549.3125,106 L1541.9219,106 L1541.9219,103.8438 L1544.3906,103.8438 L1544.3906,95.7656 L1541.9219,95.7656 Z " fill="#000000"/><text fill="#000000" font-family="sans-serif" font-size="14" font-style="italic" lengthAdjust="spacing" textLength="90" x="1560" y="104.8467">ClientActions</text><line style="stroke:#181818;stroke-width:0.5;" x1="1532" x2="1652" y1="116" y2="116"/><line style="stroke:#181818;stroke-width:0.5;" x1="1532" x2="1652" y1="124" y2="124"/></g><g id="elem_GMN40"><path d="M893,245.34 L893,300.7384 A0,0 0 0 0 893,300.7384 L1271,300.7384 A0,0 0 0 0 1271,300.7384 L1271,277.04 L1305.09,273.04 L1271,269.04 L1271,255.34 L1261,245.34 L893,245.34 A0,0 0 0 0 893,245.34 " fill="#FEFFDD" style="stroke:#181818;stroke-width:0.5;"/><path d="M1261,245.34 L1261,255.34 L1271,255.34 L1261,245.34 " fill="#FEFFDD" style="stroke:#181818;stroke-width:0.5;"/><text fill="#000000" font-family="sans-serif" font-size="13" lengthAdjust="spacing" textLength="344" x="899" y="262.4069">Executes actions on the controllers, retrieves the view</text><text fill="#000000" font-family="sans-serif" font-size="13" lengthAdjust="spacing" textLength="357" x="899" y="277.5397">and sends it performing .sendMessage(ServerMessage)</text><text fill="#000000" font-family="sans-serif" font-size="13" lengthAdjust="spacing" textLength="325" x="899" y="292.6725">on all the clients that need to receive the message</text></g><!--class ClientMessageHandler--><g id="elem_ClientMessageHandler"><rect codeLine="90" fill="#F1F1F1" height="80.5938" id="ClientMessageHandler" rx="2.5" ry="2.5" style="stroke:#181818;stroke-width:0.5;" width="348" x="2366" y="414.08"/><ellipse cx="2458.25" cy="430.08" fill="#B4A7E5" rx="11" ry="11" style="stroke:#181818;stroke-width:1.0;"/><path d="M2454.1719,425.8456 L2454.1719,423.6894 L2461.5625,423.6894 L2461.5625,425.8456 L2459.0938,425.8456 L2459.0938,433.9237 L2461.5625,433.9237 L2461.5625,436.08 L2454.1719,436.08 L2454.1719,433.9237 L2456.6406,433.9237 L2456.6406,425.8456 L2454.1719,425.8456 Z " fill="#000000"/><text fill="#000000" font-family="sans-serif" font-size="14" font-style="italic" lengthAdjust="spacing" textLength="155" x="2478.75" y="434.9267">ClientMessageHandler</text><line style="stroke:#181818;stroke-width:0.5;" x1="2367" x2="2713" y1="446.08" y2="446.08"/><line style="stroke:#181818;stroke-width:0.5;" x1="2367" x2="2713" y1="454.08" y2="454.08"/><ellipse cx="2377" cy="467.7284" fill="#84BE84" rx="3" ry="3" style="stroke:#038048;stroke-width:1.0;"/><text fill="#000000" font-family="sans-serif" font-size="14" lengthAdjust="spacing" textLength="322" x="2386" y="471.0751">void handleMessage(ClientMessage message)</text><ellipse cx="2377" cy="484.0253" fill="#84BE84" rx="3" ry="3" style="stroke:#038048;stroke-width:1.0;"/><text fill="#000000" font-family="sans-serif" font-size="14" lengthAdjust="spacing" textLength="159" x="2386" y="487.372">void closeConnection()</text></g><!--class ClientCommandMapper--><g id="elem_ClientCommandMapper"><rect codeLine="94" fill="#F1F1F1" height="48" id="ClientCommandMapper" rx="2.5" ry="2.5" style="stroke:#181818;stroke-width:0.5;" width="194" x="2443" y="249.04"/><ellipse cx="2458" cy="265.04" fill="#ADD1B2" rx="11" ry="11" style="stroke:#181818;stroke-width:1.0;"/><path d="M2460.9688,270.6806 Q2460.3906,270.9775 2459.75,271.1181 Q2459.1094,271.2744 2458.4063,271.2744 Q2455.9063,271.2744 2454.5781,269.6337 Q2453.2656,267.9775 2453.2656,264.8525 Q2453.2656,261.7275 2454.5781,260.0712 Q2455.9063,258.415 2458.4063,258.415 Q2459.1094,258.415 2459.75,258.5712 Q2460.4063,258.7275 2460.9688,259.0244 L2460.9688,261.7431 Q2460.3438,261.165 2459.75,260.8994 Q2459.1563,260.6181 2458.5313,260.6181 Q2457.1875,260.6181 2456.5,261.6962 Q2455.8125,262.7587 2455.8125,264.8525 Q2455.8125,266.9462 2456.5,268.0244 Q2457.1875,269.0869 2458.5313,269.0869 Q2459.1563,269.0869 2459.75,268.8212 Q2460.3438,268.54 2460.9688,267.9619 L2460.9688,270.6806 Z " fill="#000000"/><text fill="#000000" font-family="sans-serif" font-size="14" lengthAdjust="spacing" textLength="162" x="2472" y="269.8867">ClientCommandMapper</text><line style="stroke:#181818;stroke-width:0.5;" x1="2444" x2="2636" y1="281.04" y2="281.04"/><line style="stroke:#181818;stroke-width:0.5;" x1="2444" x2="2636" y1="289.04" y2="289.04"/></g><!--class ClientActions--><g id="elem_ClientActions"><rect fill="#F1F1F1" height="48" id="ClientActions" rx="2.5" ry="2.5" style="stroke:#181818;stroke-width:0.5;" width="122" x="2479" y="84"/><ellipse cx="2494" cy="100" fill="#B4A7E5" rx="11" ry="11" style="stroke:#181818;stroke-width:1.0;"/><path d="M2489.9219,95.7656 L2489.9219,93.6094 L2497.3125,93.6094 L2497.3125,95.7656 L2494.8438,95.7656 L2494.8438,103.8438 L2497.3125,103.8438 L2497.3125,106 L2489.9219,106 L2489.9219,103.8438 L2492.3906,103.8438 L2492.3906,95.7656 L2489.9219,95.7656 Z " fill="#000000"/><text fill="#000000" font-family="sans-serif" font-size="14" font-style="italic" lengthAdjust="spacing" textLength="90" x="2508" y="104.8467">ClientActions</text><line style="stroke:#181818;stroke-width:0.5;" x1="2480" x2="2600" y1="116" y2="116"/><line style="stroke:#181818;stroke-width:0.5;" x1="2480" x2="2600" y1="124" y2="124"/></g><!--class RMIConnectionHandler--><g id="elem_RMIConnectionHandler"><rect codeLine="97" fill="#F1F1F1" height="64.2969" id="RMIConnectionHandler" rx="2.5" ry="2.5" style="stroke:#181818;stroke-width:0.5;" width="348" x="2050" y="570.97"/><ellipse cx="2140.75" cy="586.97" fill="#ADD1B2" rx="11" ry="11" style="stroke:#181818;stroke-width:1.0;"/><path d="M2143.7188,592.6106 Q2143.1406,592.9075 2142.5,593.0481 Q2141.8594,593.2044 2141.1563,593.2044 Q2138.6563,593.2044 2137.3281,591.5638 Q2136.0156,589.9075 2136.0156,586.7825 Q2136.0156,583.6575 2137.3281,582.0013 Q2138.6563,580.345 2141.1563,580.345 Q2141.8594,580.345 2142.5,580.5013 Q2143.1563,580.6575 2143.7188,580.9544 L2143.7188,583.6731 Q2143.0938,583.095 2142.5,582.8294 Q2141.9063,582.5481 2141.2813,582.5481 Q2139.9375,582.5481 2139.25,583.6263 Q2138.5625,584.6888 2138.5625,586.7825 Q2138.5625,588.8763 2139.25,589.9544 Q2139.9375,591.0169 2141.2813,591.0169 Q2141.9063,591.0169 2142.5,590.7513 Q2143.0938,590.47 2143.7188,589.8919 L2143.7188,592.6106 Z " fill="#000000"/><text fill="#000000" font-family="sans-serif" font-size="14" lengthAdjust="spacing" textLength="158" x="2161.25" y="591.8167">RMIConnectionHandler</text><line style="stroke:#181818;stroke-width:0.5;" x1="2051" x2="2397" y1="602.97" y2="602.97"/><line style="stroke:#181818;stroke-width:0.5;" x1="2051" x2="2397" y1="610.97" y2="610.97"/><ellipse cx="2061" cy="624.6184" fill="#84BE84" rx="3" ry="3" style="stroke:#038048;stroke-width:1.0;"/><text fill="#000000" font-family="sans-serif" font-size="14" lengthAdjust="spacing" textLength="322" x="2070" y="627.9651">void handleMessage(ClientMessage message)</text></g><!--class TCPClientAdapter--><g id="elem_TCPClientAdapter"><rect codeLine="101" fill="#F1F1F1" height="80.5938" id="TCPClientAdapter" rx="2.5" ry="2.5" style="stroke:#181818;stroke-width:0.5;" width="336" x="2433" y="562.82"/><ellipse cx="2536.25" cy="578.82" fill="#ADD1B2" rx="11" ry="11" style="stroke:#181818;stroke-width:1.0;"/><path d="M2539.2188,584.4606 Q2538.6406,584.7575 2538,584.8981 Q2537.3594,585.0544 2536.6563,585.0544 Q2534.1563,585.0544 2532.8281,583.4137 Q2531.5156,581.7575 2531.5156,578.6325 Q2531.5156,575.5075 2532.8281,573.8512 Q2534.1563,572.195 2536.6563,572.195 Q2537.3594,572.195 2538,572.3512 Q2538.6563,572.5075 2539.2188,572.8044 L2539.2188,575.5231 Q2538.5938,574.945 2538,574.6794 Q2537.4063,574.3981 2536.7813,574.3981 Q2535.4375,574.3981 2534.75,575.4762 Q2534.0625,576.5387 2534.0625,578.6325 Q2534.0625,580.7262 2534.75,581.8044 Q2535.4375,582.8669 2536.7813,582.8669 Q2537.4063,582.8669 2538,582.6012 Q2538.5938,582.32 2539.2188,581.7419 L2539.2188,584.4606 Z " fill="#000000"/><text fill="#000000" font-family="sans-serif" font-size="14" lengthAdjust="spacing" textLength="121" x="2556.75" y="583.6667">TCPClientAdapter</text><line style="stroke:#181818;stroke-width:0.5;" x1="2434" x2="2768" y1="594.82" y2="594.82"/><rect fill="none" height="6" style="stroke:#C82930;stroke-width:1.0;" width="6" x="2441" y="605.4684"/><text fill="#000000" font-family="sans-serif" font-size="14" lengthAdjust="spacing" textLength="243" x="2453" y="611.8151">TCPConnectionHandler connection</text><line style="stroke:#181818;stroke-width:0.5;" x1="2434" x2="2768" y1="619.1169" y2="619.1169"/><ellipse cx="2444" cy="632.7653" fill="#84BE84" rx="3" ry="3" style="stroke:#038048;stroke-width:1.0;"/><text fill="#000000" font-family="sans-serif" font-size="14" lengthAdjust="spacing" textLength="310" x="2453" y="636.112">void sendMessage(ClientMessage message)</text></g><g id="elem_GMN55"><path d="M2103.5,252.91 L2103.5,293.1756 A0,0 0 0 0 2103.5,293.1756 L2408.5,293.1756 A0,0 0 0 0 2408.5,293.1756 L2408.5,277.04 L2442.64,273.04 L2408.5,269.04 L2408.5,262.91 L2398.5,252.91 L2103.5,252.91 A0,0 0 0 0 2103.5,252.91 " fill="#FEFFDD" style="stroke:#181818;stroke-width:0.5;"/><path d="M2398.5,252.91 L2398.5,262.91 L2408.5,262.91 L2398.5,252.91 " fill="#FEFFDD" style="stroke:#181818;stroke-width:0.5;"/><text fill="#000000" font-family="sans-serif" font-size="13" lengthAdjust="spacing" textLength="284" x="2109.5" y="269.9769">This class sends the messages to the server</text><text fill="#000000" font-family="sans-serif" font-size="13" lengthAdjust="spacing" textLength="136" x="2109.5" y="285.1097">and updates the view</text></g><!--reverse link Message to ServerMessage--><g id="link_Message_ServerMessage"><path d="M396.0024,147.4534 C379.0624,173.5234 361.16,201.04 340.8,232.35 " fill="none" id="Message-backto-ServerMessage" style="stroke:#181818;stroke-width:1.0;stroke-dasharray:7.0,7.0;"/><polygon fill="none" points="405.81,132.36,390.9713,144.1843,401.0336,150.7226,405.81,132.36" style="stroke:#181818;stroke-width:1.0;"/></g><!--reverse link ServerMessage to ErrorServerMessage--><g id="link_ServerMessage_ErrorServerMessage"><path d="M276.7284,328.0904 C255.6284,357.8904 237.16,383.95 216.02,413.81 " fill="none" id="ServerMessage-backto-ErrorServerMessage" style="stroke:#181818;stroke-width:1.0;"/><polygon fill="none" points="287.13,313.4,271.8316,324.6232,281.6252,331.5576,287.13,313.4" style="stroke:#181818;stroke-width:1.0;"/></g><!--reverse link ServerMessage to SuccessServerMessage--><g id="link_ServerMessage_SuccessServerMessage"><path d="M379.4676,324.7486 C417.2376,354.4586 454.58,383.84 492.42,413.59 " fill="none" id="ServerMessage-backto-SuccessServerMessage" style="stroke:#181818;stroke-width:1.0;"/><polygon fill="none" points="365.32,313.62,375.7581,329.4644,383.1771,320.0327,365.32,313.62" style="stroke:#181818;stroke-width:1.0;"/></g><!--reverse link SuccessServerMessage to ViewUpdateMessage--><g id="link_SuccessServerMessage_ViewUpdateMessage"><path d="M534.3815,512.8911 C531.2515,533.7711 530.09,541.49 526.96,562.38 " fill="none" id="SuccessServerMessage-backto-ViewUpdateMessage" style="stroke:#181818;stroke-width:1.0;"/><polygon fill="none" points="537.05,495.09,528.4478,512.0016,540.3152,513.7806,537.05,495.09" style="stroke:#181818;stroke-width:1.0;"/></g><!--reverse link Message to ClientMessage--><g id="link_Message_ClientMessage"><path d="M445.9998,147.452 C466.1498,178.452 491.7,217.76 511.84,248.73 " fill="none" id="Message-backto-ClientMessage" style="stroke:#181818;stroke-width:1.0;stroke-dasharray:7.0,7.0;"/><polygon fill="none" points="436.19,132.36,440.9691,150.7219,451.0305,144.1821,436.19,132.36" style="stroke:#181818;stroke-width:1.0;"/></g><!--reverse link TCPObservable to TCPConnectionHandler--><g id="link_TCPObservable_TCPConnectionHandler"><path d="M2866.7373,651.0104 C2820.4873,671.2304 2779.94,688.94 2729.28,711.09 " fill="none" id="TCPObservable-backto-TCPConnectionHandler" style="stroke:#181818;stroke-width:1.0;stroke-dasharray:7.0,7.0;"/><polygon fill="none" points="2883.23,643.8,2864.3338,645.5129,2869.1408,656.508,2883.23,643.8" style="stroke:#181818;stroke-width:1.0;"/></g><!--reverse link ServerMessageHandler to TCPServerAdapter--><g id="link_ServerMessageHandler_TCPServerAdapter"><path d="M1540.4223,507.937 C1522.5123,526.187 1513.73,535.14 1494.95,554.28 " fill="none" id="ServerMessageHandler-backto-TCPServerAdapter" style="stroke:#181818;stroke-width:1.0;stroke-dasharray:7.0,7.0;"/><polygon fill="none" points="1553.03,495.09,1536.14,503.7345,1544.7047,512.1396,1553.03,495.09" style="stroke:#181818;stroke-width:1.0;"/></g><!--reverse link TCPServerAdapter to TCPObserver--><g id="link_TCPServerAdapter_TCPObserver"><path codeLine="59" d="M1590.9262,658.4437 C1661.8762,685.4037 1731.63,711.91 1794.03,735.63 " fill="none" id="TCPServerAdapter-backto-TCPObserver" style="stroke:#181818;stroke-width:1.0;stroke-dasharray:7.0,7.0;"/><polygon fill="none" points="1574.1,652.05,1588.7949,664.0524,1593.0574,652.835,1574.1,652.05" style="stroke:#181818;stroke-width:1.0;"/></g><!--reverse link TCPServerAdapter to TCPConnectionHandler--><g id="link_TCPServerAdapter_TCPConnectionHandler"><path codeLine="60" d="M1570.5673,656.1689 C1595.4273,665.2789 1610.67,669.66 1636,675.57 C1655.12,680.02 2159.21,726.66 2431.02,751.61 " fill="none" id="TCPServerAdapter-backto-TCPConnectionHandler" style="stroke:#181818;stroke-width:1.0;"/><polygon fill="#181818" points="1559.3,652.04,1563.5573,657.8602,1570.5673,656.1689,1566.31,650.3487,1559.3,652.04" style="stroke:#181818;stroke-width:1.0;"/></g><!--reverse link ServerMessageHandler to RMIConnectionHandler--><g id="link_ServerMessageHandler_RMIConnectionHandler"><path d="M1669.9926,504.7117 C1707.4326,528.3917 1739.11,548.43 1774.02,570.51 " fill="none" id="ServerMessageHandler-backto-RMIConnectionHandler" style="stroke:#181818;stroke-width:1.0;stroke-dasharray:7.0,7.0;"/><polygon fill="none" points="1654.78,495.09,1666.7854,509.7825,1673.1998,499.6408,1654.78,495.09" style="stroke:#181818;stroke-width:1.0;"/></g><!--reverse link ClientActions to NetworkCommandMapper--><g id="link_ClientActions_NetworkCommandMapper"><path d="M1592,150.36 C1592,166.12 1592,169.94 1592,191.65 " fill="none" id="ClientActions-backto-NetworkCommandMapper" style="stroke:#181818;stroke-width:1.0;stroke-dasharray:7.0,7.0;"/><polygon fill="none" points="1592,132.36,1586,150.36,1598,150.36,1592,132.36" style="stroke:#181818;stroke-width:1.0;"/></g><!--reverse link NetworkCommandMapper to ServerMessageHandler--><g id="link_NetworkCommandMapper_ServerMessageHandler"><path codeLine="81" d="M1592,366.53 C1592,387.02 1592,396.15 1592,413.59 " fill="none" id="NetworkCommandMapper-backto-ServerMessageHandler" style="stroke:#181818;stroke-width:1.0;"/><polygon fill="#181818" points="1592,354.53,1588,360.53,1592,366.53,1596,360.53,1592,354.53" style="stroke:#181818;stroke-width:1.0;"/></g><!--reverse link ClientActions to ClientCommandMapper--><g id="link_ClientActions_ClientCommandMapper"><path d="M2540,150.36 C2540,181.36 2540,217.76 2540,248.73 " fill="none" id="ClientActions-backto-ClientCommandMapper" style="stroke:#181818;stroke-width:1.0;stroke-dasharray:7.0,7.0;"/><polygon fill="none" points="2540,132.36,2534,150.36,2546,150.36,2540,132.36" style="stroke:#181818;stroke-width:1.0;"/></g><!--reverse link ClientMessageHandler to RMIConnectionHandler--><g id="link_ClientMessageHandler_RMIConnectionHandler"><path d="M2438.164,502.6704 C2387.164,526.3504 2339.63,548.43 2292.07,570.51 " fill="none" id="ClientMessageHandler-backto-RMIConnectionHandler" style="stroke:#181818;stroke-width:1.0;stroke-dasharray:7.0,7.0;"/><polygon fill="none" points="2454.49,495.09,2435.6372,497.2284,2440.6908,508.1124,2454.49,495.09" style="stroke:#181818;stroke-width:1.0;"/></g><!--reverse link ClientCommandMapper to ClientMessageHandler--><g id="link_ClientCommandMapper_ClientMessageHandler"><path codeLine="100" d="M2540,309.49 C2540,339.02 2540,378.19 2540,413.82 " fill="none" id="ClientCommandMapper-backto-ClientMessageHandler" style="stroke:#181818;stroke-width:1.0;"/><polygon fill="#181818" points="2540,297.49,2536,303.49,2540,309.49,2544,303.49,2540,297.49" style="stroke:#181818;stroke-width:1.0;"/></g><!--reverse link ClientMessageHandler to TCPClientAdapter--><g id="link_ClientMessageHandler_TCPClientAdapter"><path d="M2563.4195,511.711 C2572.0995,532.591 2575.8,541.49 2584.48,562.38 " fill="none" id="ClientMessageHandler-backto-TCPClientAdapter" style="stroke:#181818;stroke-width:1.0;stroke-dasharray:7.0,7.0;"/><polygon fill="none" points="2556.51,495.09,2557.8792,514.0142,2568.9599,509.4079,2556.51,495.09" style="stroke:#181818;stroke-width:1.0;"/></g><!--reverse link TCPClientAdapter to TCPObserver--><g id="link_TCPClientAdapter_TCPObserver"><path codeLine="105" d="M2491.7746,650.3315 C2462.2946,661.8515 2446.02,667.06 2415,675.57 C2260.12,718.04 2074.48,744.43 1966.71,757.4 " fill="none" id="TCPClientAdapter-backto-TCPObserver" style="stroke:#181818;stroke-width:1.0;stroke-dasharray:7.0,7.0;"/><polygon fill="none" points="2508.54,643.78,2489.5908,644.743,2493.9584,655.9199,2508.54,643.78" style="stroke:#181818;stroke-width:1.0;"/></g><!--reverse link TCPClientAdapter to TCPConnectionHandler--><g id="link_TCPClientAdapter_TCPConnectionHandler"><path codeLine="106" d="M2601,655.59 C2601,675.85 2601,688.89 2601,711.11 " fill="none" id="TCPClientAdapter-backto-TCPConnectionHandler" style="stroke:#181818;stroke-width:1.0;"/><polygon fill="#181818" points="2601,643.59,2597,649.59,2601,655.59,2605,649.59,2601,643.59" style="stroke:#181818;stroke-width:1.0;"/></g><!--SRC=[jLTHJzim47xdLrXzeXljBwYGK8K0QMNJkktTIQvjHc97jbj0hFzzPpjDSebDAHkH26djEt_ttTrtQSNJ1xu6TW_cKQe7zdB6yAhgRqlGslxttzeh5mRKYgV05eUrVRF84sqKJmrB2wurMuBQWJhioykgW1A4qQrfOsclIVtrqd2prTTYMpBj7ickpsimPEFvk5blaNW0rqf9HL70am6HzR7rW2oDoiNw43qzVkZpd6wFmrbkqnJtl0UGMxnAJIw58uQxHuhiXfVG0nOsYoFybSFZpohZ1WRmGjXxA2s0kHH6oQ80PNsn7TueolO8YZLY7CSwBt8ifjUgorluUrktF-RVlYOQp-P9qG_18Tp9F6CQZDy5whon0CLa_J2Es2aevGvECFNmV4Yu6oaGuB9qoqM6J7GZYq6VN2d5dx_asimw1rus9xOTT6fmxmZgS8J8-lsXr-Cw8x6KeCENdYCXJRvwZld0LM29D4QMJAw211AsmmnhPZOeTZmNTIBCXXksSSj-3UrOsXWIbtV6EkZa9O6KRpMMf7M1vhAEWV7Q- -C6X5rLa4A-mnFuG6gGFHVR6P7ZaM-P4P9q5b1aqb27u6Y11v93EdgWOQrHMaWDBNb4Tfj7buy2LiPc8uI7KjT0TuGZZKsnGyQIPqUzumn8Jdowl5yTuOnqLIs46QyCxQWtKEOQB5WtaO8uMhl_b91M1WTnpVvCfzrUYk_yD9c4UoMSoBuzRQaDviqpZOJW9gD9VjXAONCQ72Is5MJo6q_4aiTaxNBCl9KdFkrt52-qTApqVA47NnDM-u-d_llYxbL1_OYEsJUzwJ6CwbUhkInBF671gygsS0V5o8yoFwVrA51_M86tN6-MO6OXo9UTKjGnOpnuLbVY6cVjFVvTi6FUq2ZaRu5IsGvhfvpjnv218p5HacSfroR2f5uZ88fm773cCyAph2D6mKIsOPpWry-w3t7z7-BVzpw7QijrzwlQIvexv68GmlKJf5jZHvKlCYQ5RyGcw_e2gKFmiAj7vk3Lp_r245dTrZZ_yA2LLAMDTnfji26TU3GlYguE-DaW08S62aGzLhl2GNmqOX6ONysazIqvegtOZbhoyXcV6pxlVcWTegFlhMKiocD3TrWDjTnu_wUepL6VnsJqOzcWY0BXkO8FOGY4OgUUZt_uCl36CDxvCj2jy9EZ7i2EplhWxkYyxreHLGZGF8YhC_dZepe0xo04M_SpCA8MWIxrz_rV]--></g></svg>