<?xml version="1.0" encoding="us-ascii" standalone="no"?><svg xmlns="http://www.w3.org/2000/svg" xmlns:xlink="http://www.w3.org/1999/xlink" contentStyleType="text/css" height="931px" preserveAspectRatio="none" style="width:3125px;height:931px;background:#FFFFFF;" version="1.1" viewBox="0 0 3125 931" width="3125px" zoomAndPan="magnify"><defs/><g><!--cluster Network--><g id="cluster_Network"><path d="M8.5,6 L76.5,6 A3.75,3.75 0 0 1 79,8.5 L86,28.2969 L3115.5,28.2969 A2.5,2.5 0 0 1 3118,30.7969 L3118,922.22 A2.5,2.5 0 0 1 3115.5,924.72 L8.5,924.72 A2.5,2.5 0 0 1 6,922.22 L6,8.5 A2.5,2.5 0 0 1 8.5,6 " fill="none" style="stroke:#000000;stroke-width:1.5;"/><line style="stroke:#000000;stroke-width:1.5;" x1="6" x2="86" y1="28.2969" y2="28.2969"/><text fill="#000000" font-family="sans-serif" font-size="14" font-weight="bold" lengthAdjust="spacing" textLength="67" x="10" y="20.9951">Network</text></g><!--cluster message--><g id="cluster_message"><path d="M32.5,49 L104.5,49 A3.75,3.75 0 0 1 107,51.5 L114,71.2969 L734.5,71.2969 A2.5,2.5 0 0 1 737,73.7969 L737,640.62 A2.5,2.5 0 0 1 734.5,643.12 L32.5,643.12 A2.5,2.5 0 0 1 30,640.62 L30,51.5 A2.5,2.5 0 0 1 32.5,49 " fill="none" style="stroke:#000000;stroke-width:1.5;"/><line style="stroke:#000000;stroke-width:1.5;" x1="30" x2="114" y1="71.2969" y2="71.2969"/><text fill="#000000" font-family="sans-serif" font-size="14" font-weight="bold" lengthAdjust="spacing" textLength="71" x="34" y="63.9951">message</text></g><!--cluster Server--><g id="cluster_Server"><path d="M763.5,49 L817.5,49 A3.75,3.75 0 0 1 820,51.5 L827,71.2969 L2007.5,71.2969 A2.5,2.5 0 0 1 2010,73.7969 L2010,648.77 A2.5,2.5 0 0 1 2007.5,651.27 L763.5,651.27 A2.5,2.5 0 0 1 761,648.77 L761,51.5 A2.5,2.5 0 0 1 763.5,49 " fill="none" style="stroke:#000000;stroke-width:1.5;"/><line style="stroke:#000000;stroke-width:1.5;" x1="761" x2="827" y1="71.2969" y2="71.2969"/><text fill="#000000" font-family="sans-serif" font-size="14" font-weight="bold" lengthAdjust="spacing" textLength="53" x="765" y="63.9951">Server</text></g><!--cluster Client--><g id="cluster_Client"><path d="M2036.5,49 L2082.5,49 A3.75,3.75 0 0 1 2085,51.5 L2092,71.2969 L2770.5,71.2969 A2.5,2.5 0 0 1 2773,73.7969 L2773,640.62 A2.5,2.5 0 0 1 2770.5,643.12 L2036.5,643.12 A2.5,2.5 0 0 1 2034,640.62 L2034,51.5 A2.5,2.5 0 0 1 2036.5,49 " fill="none" style="stroke:#000000;stroke-width:1.5;"/><line style="stroke:#000000;stroke-width:1.5;" x1="2034" x2="2092" y1="71.2969" y2="71.2969"/><text fill="#000000" font-family="sans-serif" font-size="14" font-weight="bold" lengthAdjust="spacing" textLength="45" x="2038" y="63.9951">Client</text></g><!--class Observable--><g id="elem_Observable"><rect codeLine="22" fill="#F1F1F1" height="80.5938" id="Observable" rx="2.5" ry="2.5" style="stroke:#181818;stroke-width:0.5;" width="311" x="2791.5" y="546.52"/><ellipse cx="2903.75" cy="562.52" fill="#B4A7E5" rx="11" ry="11" style="stroke:#181818;stroke-width:1.0;"/><path d="M2899.6719,558.2856 L2899.6719,556.1294 L2907.0625,556.1294 L2907.0625,558.2856 L2904.5938,558.2856 L2904.5938,566.3638 L2907.0625,566.3638 L2907.0625,568.52 L2899.6719,568.52 L2899.6719,566.3638 L2902.1406,566.3638 L2902.1406,558.2856 L2899.6719,558.2856 Z " fill="#000000"/><text fill="#000000" font-family="sans-serif" font-size="14" font-style="italic" lengthAdjust="spacing" textLength="78" x="2924.25" y="567.3667">Observable</text><line style="stroke:#181818;stroke-width:0.5;" x1="2792.5" x2="3101.5" y1="578.52" y2="578.52"/><line style="stroke:#181818;stroke-width:0.5;" x1="2792.5" x2="3101.5" y1="586.52" y2="586.52"/><ellipse cx="2802.5" cy="600.1684" fill="#84BE84" rx="3" ry="3" style="stroke:#038048;stroke-width:1.0;"/><text fill="#000000" font-family="sans-serif" font-size="14" lengthAdjust="spacing" textLength="255" x="2811.5" y="603.5151">void setObserver(Observer observer)</text><ellipse cx="2802.5" cy="616.4653" fill="#84BE84" rx="3" ry="3" style="stroke:#038048;stroke-width:1.0;"/><text fill="#000000" font-family="sans-serif" font-size="14" lengthAdjust="spacing" textLength="285" x="2811.5" y="619.812">void removeObserver(Observer observer)</text></g><!--class TCPConnectionHandler--><g id="elem_TCPConnectionHandler"><rect codeLine="26" fill="#F1F1F1" height="113.1875" id="TCPConnectionHandler" rx="2.5" ry="2.5" style="stroke:#181818;stroke-width:0.5;" width="311" x="2433.5" y="695.27"/><ellipse cx="2504.25" cy="711.27" fill="#ADD1B2" rx="11" ry="11" style="stroke:#181818;stroke-width:1.0;"/><path d="M2507.2188,716.9106 Q2506.6406,717.2075 2506,717.3481 Q2505.3594,717.5044 2504.6563,717.5044 Q2502.1563,717.5044 2500.8281,715.8638 Q2499.5156,714.2075 2499.5156,711.0825 Q2499.5156,707.9575 2500.8281,706.3013 Q2502.1563,704.645 2504.6563,704.645 Q2505.3594,704.645 2506,704.8013 Q2506.6563,704.9575 2507.2188,705.2544 L2507.2188,707.9731 Q2506.5938,707.395 2506,707.1294 Q2505.4063,706.8481 2504.7813,706.8481 Q2503.4375,706.8481 2502.75,707.9263 Q2502.0625,708.9888 2502.0625,711.0825 Q2502.0625,713.1763 2502.75,714.2544 Q2503.4375,715.3169 2504.7813,715.3169 Q2505.4063,715.3169 2506,715.0513 Q2506.5938,714.77 2507.2188,714.1919 L2507.2188,716.9106 Z " fill="#000000"/><text fill="#000000" font-family="sans-serif" font-size="14" lengthAdjust="spacing" textLength="161" x="2524.75" y="716.1167">TCPConnectionHandler</text><line style="stroke:#181818;stroke-width:0.5;" x1="2434.5" x2="2743.5" y1="727.27" y2="727.27"/><rect fill="none" height="6" style="stroke:#C82930;stroke-width:1.0;" width="6" x="2441.5" y="737.9184"/><text fill="#000000" font-family="sans-serif" font-size="14" lengthAdjust="spacing" textLength="217" x="2453.5" y="744.2651">ArrayList&lt;Observer&gt; observers</text><line style="stroke:#181818;stroke-width:0.5;" x1="2434.5" x2="2743.5" y1="751.5669" y2="751.5669"/><ellipse cx="2444.5" cy="765.2153" fill="#84BE84" rx="3" ry="3" style="stroke:#038048;stroke-width:1.0;"/><text fill="#000000" font-family="sans-serif" font-size="14" lengthAdjust="spacing" textLength="255" x="2453.5" y="768.562">void setObserver(Observer observer)</text><ellipse cx="2444.5" cy="781.5122" fill="#84BE84" rx="3" ry="3" style="stroke:#038048;stroke-width:1.0;"/><text fill="#000000" font-family="sans-serif" font-size="14" lengthAdjust="spacing" textLength="285" x="2453.5" y="784.8589">void removeObserver(Observer observer)</text><ellipse cx="2444.5" cy="797.8091" fill="#84BE84" rx="3" ry="3" style="stroke:#038048;stroke-width:1.0;"/><text fill="#000000" font-family="sans-serif" font-size="14" lengthAdjust="spacing" textLength="214" x="2453.5" y="801.1557">void sendMessage(String msg)</text></g><!--class Observer--><g id="elem_Observer"><rect codeLine="33" fill="#F1F1F1" height="64.2969" id="Observer" rx="2.5" ry="2.5" style="stroke:#181818;stroke-width:0.5;" width="148" x="1812" y="719.71"/><ellipse cx="1845.9" cy="735.71" fill="#B4A7E5" rx="11" ry="11" style="stroke:#181818;stroke-width:1.0;"/><path d="M1841.8219,731.4756 L1841.8219,729.3194 L1849.2125,729.3194 L1849.2125,731.4756 L1846.7438,731.4756 L1846.7438,739.5538 L1849.2125,739.5538 L1849.2125,741.71 L1841.8219,741.71 L1841.8219,739.5538 L1844.2906,739.5538 L1844.2906,731.4756 L1841.8219,731.4756 Z " fill="#000000"/><text fill="#000000" font-family="sans-serif" font-size="14" font-style="italic" lengthAdjust="spacing" textLength="63" x="1864.1" y="740.5567">Observer</text><rect fill="#FFFFFF" height="15.9688" style="stroke:#181818;stroke-width:1.0;stroke-dasharray:2.0,2.0;" width="9" x="1954" y="716.71"/><text fill="#000000" font-family="sans-serif" font-size="12" font-style="italic" lengthAdjust="spacing" textLength="7" x="1955" y="728.8487">T</text><line style="stroke:#181818;stroke-width:0.5;" x1="1813" x2="1959" y1="751.71" y2="751.71"/><line style="stroke:#181818;stroke-width:0.5;" x1="1813" x2="1959" y1="759.71" y2="759.71"/><ellipse cx="1823" cy="773.3584" fill="#84BE84" rx="3" ry="3" style="stroke:#038048;stroke-width:1.0;"/><text fill="#000000" font-family="sans-serif" font-size="14" lengthAdjust="spacing" textLength="122" x="1832" y="776.7051">void notify(T msg)</text></g><g id="elem_GMN19"><path d="M2338.5,868.45 L2338.5,908.7156 A0,0 0 0 0 2338.5,908.7156 L2839.5,908.7156 A0,0 0 0 0 2839.5,908.7156 L2839.5,878.45 L2829.5,868.45 L2593,868.45 L2589,808.83 L2585,868.45 L2338.5,868.45 A0,0 0 0 0 2338.5,868.45 " fill="#FEFFDD" style="stroke:#181818;stroke-width:0.5;"/><path d="M2829.5,868.45 L2829.5,878.45 L2839.5,878.45 L2829.5,868.45 " fill="#FEFFDD" style="stroke:#181818;stroke-width:0.5;"/><text fill="#000000" font-family="sans-serif" font-size="13" lengthAdjust="spacing" textLength="468" x="2344.5" y="885.5169">TCPConnectionHandler is the main class that handles the TCP connection</text><text fill="#000000" font-family="sans-serif" font-size="13" lengthAdjust="spacing" textLength="480" x="2344.5" y="900.6497">It is Observable because it has to notify a class when it receives a message</text></g><!--class Message--><g id="elem_Message"><rect codeLine="3" fill="#F1F1F1" height="48" id="Message" rx="2.5" ry="2.5" style="stroke:#181818;stroke-width:0.5;" width="95" x="373.5" y="84"/><ellipse cx="388.5" cy="100" fill="#B4A7E5" rx="11" ry="11" style="stroke:#181818;stroke-width:1.0;"/><path d="M384.4219,95.7656 L384.4219,93.6094 L391.8125,93.6094 L391.8125,95.7656 L389.3438,95.7656 L389.3438,103.8438 L391.8125,103.8438 L391.8125,106 L384.4219,106 L384.4219,103.8438 L386.8906,103.8438 L386.8906,95.7656 L384.4219,95.7656 Z " fill="#000000"/><text fill="#000000" font-family="sans-serif" font-size="14" font-style="italic" lengthAdjust="spacing" textLength="63" x="402.5" y="104.8467">Message</text><line style="stroke:#181818;stroke-width:0.5;" x1="374.5" x2="467.5" y1="116" y2="116"/><line style="stroke:#181818;stroke-width:0.5;" x1="374.5" x2="467.5" y1="124" y2="124"/></g><!--class ServerMessage--><g id="elem_ServerMessage"><rect codeLine="4" fill="#F1F1F1" height="80.5938" id="ServerMessage" rx="2.5" ry="2.5" style="stroke:#181818;stroke-width:0.5;" width="220" x="205" y="224.59"/><ellipse cx="257.25" cy="240.59" fill="#A9DCDF" rx="11" ry="11" style="stroke:#181818;stroke-width:1.0;"/><path d="M257.3594,235.9338 L256.2031,241.0119 L258.5313,241.0119 L257.3594,235.9338 Z M255.875,233.6994 L258.8594,233.6994 L262.2188,246.09 L259.7656,246.09 L259,243.0275 L255.7188,243.0275 L254.9688,246.09 L252.5313,246.09 L255.875,233.6994 Z " fill="#000000"/><text fill="#000000" font-family="sans-serif" font-size="14" font-style="italic" lengthAdjust="spacing" textLength="107" x="277.75" y="245.4367">ServerMessage</text><line style="stroke:#181818;stroke-width:0.5;" x1="206" x2="424" y1="256.59" y2="256.59"/><rect fill="none" height="6" style="stroke:#C82930;stroke-width:1.0;" width="6" x="213" y="267.2384"/><text fill="#000000" font-family="sans-serif" font-size="14" lengthAdjust="spacing" textLength="194" x="225" y="273.5851">MessageStatusEnum status</text><line style="stroke:#181818;stroke-width:0.5;" x1="206" x2="424" y1="280.8869" y2="280.8869"/><ellipse cx="216" cy="294.5353" fill="#84BE84" rx="3" ry="3" style="stroke:#038048;stroke-width:1.0;"/><text fill="#000000" font-family="sans-serif" font-size="14" lengthAdjust="spacing" textLength="140" x="225" y="297.882">getMessageStatus()</text></g><!--class ErrorServerMessage--><g id="elem_ErrorServerMessage"><rect codeLine="8" fill="#F1F1F1" height="80.5938" id="ErrorServerMessage" rx="2.5" ry="2.5" style="stroke:#181818;stroke-width:0.5;" width="284" x="46" y="397.78"/><ellipse cx="113.75" cy="413.78" fill="#ADD1B2" rx="11" ry="11" style="stroke:#181818;stroke-width:1.0;"/><path d="M116.7188,419.4206 Q116.1406,419.7175 115.5,419.8581 Q114.8594,420.0144 114.1563,420.0144 Q111.6563,420.0144 110.3281,418.3738 Q109.0156,416.7175 109.0156,413.5925 Q109.0156,410.4675 110.3281,408.8113 Q111.6563,407.155 114.1563,407.155 Q114.8594,407.155 115.5,407.3113 Q116.1563,407.4675 116.7188,407.7644 L116.7188,410.4831 Q116.0938,409.905 115.5,409.6394 Q114.9063,409.3581 114.2813,409.3581 Q112.9375,409.3581 112.25,410.4363 Q111.5625,411.4988 111.5625,413.5925 Q111.5625,415.6863 112.25,416.7644 Q112.9375,417.8269 114.2813,417.8269 Q114.9063,417.8269 115.5,417.5613 Q116.0938,417.28 116.7188,416.7019 L116.7188,419.4206 Z " fill="#000000"/><text fill="#000000" font-family="sans-serif" font-size="14" lengthAdjust="spacing" textLength="140" x="134.25" y="418.6267">ErrorServerMessage</text><line style="stroke:#181818;stroke-width:0.5;" x1="47" x2="329" y1="429.78" y2="429.78"/><rect fill="none" height="6" style="stroke:#C82930;stroke-width:1.0;" width="6" x="54" y="440.4284"/><text fill="#000000" font-family="sans-serif" font-size="14" lengthAdjust="spacing" textLength="108" x="66" y="446.7751">String message</text><line style="stroke:#181818;stroke-width:0.5;" x1="47" x2="329" y1="454.0769" y2="454.0769"/><ellipse cx="57" cy="467.7253" fill="#84BE84" rx="3" ry="3" style="stroke:#038048;stroke-width:1.0;"/><text fill="#000000" font-family="sans-serif" font-size="14" lengthAdjust="spacing" textLength="258" x="66" y="471.072">ErrorServerMessage(String message)</text></g><!--class SuccessServerMessage--><g id="elem_SuccessServerMessage"><rect codeLine="12" fill="#F1F1F1" height="80.5938" id="SuccessServerMessage" rx="2.5" ry="2.5" style="stroke:#181818;stroke-width:0.5;" width="357" x="364.5" y="397.78"/><ellipse cx="455.75" cy="413.78" fill="#ADD1B2" rx="11" ry="11" style="stroke:#181818;stroke-width:1.0;"/><path d="M458.7188,419.4206 Q458.1406,419.7175 457.5,419.8581 Q456.8594,420.0144 456.1563,420.0144 Q453.6563,420.0144 452.3281,418.3738 Q451.0156,416.7175 451.0156,413.5925 Q451.0156,410.4675 452.3281,408.8113 Q453.6563,407.155 456.1563,407.155 Q456.8594,407.155 457.5,407.3113 Q458.1563,407.4675 458.7188,407.7644 L458.7188,410.4831 Q458.0938,409.905 457.5,409.6394 Q456.9063,409.3581 456.2813,409.3581 Q454.9375,409.3581 454.25,410.4363 Q453.5625,411.4988 453.5625,413.5925 Q453.5625,415.6863 454.25,416.7644 Q454.9375,417.8269 456.2813,417.8269 Q456.9063,417.8269 457.5,417.5613 Q458.0938,417.28 458.7188,416.7019 L458.7188,419.4206 Z " fill="#000000"/><text fill="#000000" font-family="sans-serif" font-size="14" lengthAdjust="spacing" textLength="166" x="476.25" y="418.6267">SuccessServerMessage</text><line style="stroke:#181818;stroke-width:0.5;" x1="365.5" x2="720.5" y1="429.78" y2="429.78"/><rect fill="none" height="6" style="stroke:#C82930;stroke-width:1.0;" width="6" x="372.5" y="440.4284"/><text fill="#000000" font-family="sans-serif" font-size="14" lengthAdjust="spacing" textLength="173" x="384.5" y="446.7751">ServerActionEnum action</text><line style="stroke:#181818;stroke-width:0.5;" x1="365.5" x2="720.5" y1="454.0769" y2="454.0769"/><ellipse cx="375.5" cy="467.7253" fill="#84BE84" rx="3" ry="3" style="stroke:#038048;stroke-width:1.0;"/><text fill="#000000" font-family="sans-serif" font-size="14" lengthAdjust="spacing" textLength="331" x="384.5" y="471.072">GameServerMessage(ServerActionEnum action)</text></g><!--class ViewUpdateMessage--><g id="elem_ViewUpdateMessage"><rect codeLine="16" fill="#F1F1F1" height="80.5938" id="ViewUpdateMessage" rx="2.5" ry="2.5" style="stroke:#181818;stroke-width:0.5;" width="399" x="321.5" y="546.52"/><ellipse cx="444.25" cy="562.52" fill="#ADD1B2" rx="11" ry="11" style="stroke:#181818;stroke-width:1.0;"/><path d="M447.2188,568.1606 Q446.6406,568.4575 446,568.5981 Q445.3594,568.7544 444.6563,568.7544 Q442.1563,568.7544 440.8281,567.1138 Q439.5156,565.4575 439.5156,562.3325 Q439.5156,559.2075 440.8281,557.5513 Q442.1563,555.895 444.6563,555.895 Q445.3594,555.895 446,556.0513 Q446.6563,556.2075 447.2188,556.5044 L447.2188,559.2231 Q446.5938,558.645 446,558.3794 Q445.4063,558.0981 444.7813,558.0981 Q443.4375,558.0981 442.75,559.1763 Q442.0625,560.2388 442.0625,562.3325 Q442.0625,564.4263 442.75,565.5044 Q443.4375,566.5669 444.7813,566.5669 Q445.4063,566.5669 446,566.3013 Q446.5938,566.02 447.2188,565.4419 L447.2188,568.1606 Z " fill="#000000"/><text fill="#000000" font-family="sans-serif" font-size="14" lengthAdjust="spacing" textLength="145" x="464.75" y="567.3667">ViewUpdateMessage</text><line style="stroke:#181818;stroke-width:0.5;" x1="322.5" x2="719.5" y1="578.52" y2="578.52"/><rect fill="none" height="6" style="stroke:#C82930;stroke-width:1.0;" width="6" x="329.5" y="589.1684"/><text fill="#000000" font-family="sans-serif" font-size="14" lengthAdjust="spacing" textLength="174" x="341.5" y="595.5151">GameControllerView view</text><line style="stroke:#181818;stroke-width:0.5;" x1="322.5" x2="719.5" y1="602.8169" y2="602.8169"/><ellipse cx="332.5" cy="616.4653" fill="#84BE84" rx="3" ry="3" style="stroke:#038048;stroke-width:1.0;"/><text fill="#000000" font-family="sans-serif" font-size="14" lengthAdjust="spacing" textLength="373" x="341.5" y="619.812">ViewUpdateServerMessage(GameControllerView view)</text></g><!--class ClientMessage--><g id="elem_ClientMessage"><rect codeLine="20" fill="#F1F1F1" height="48" id="ClientMessage" rx="2.5" ry="2.5" style="stroke:#181818;stroke-width:0.5;" width="134" x="460" y="240.89"/><ellipse cx="475" cy="256.89" fill="#ADD1B2" rx="11" ry="11" style="stroke:#181818;stroke-width:1.0;"/><path d="M477.9688,262.5306 Q477.3906,262.8275 476.75,262.9681 Q476.1094,263.1244 475.4063,263.1244 Q472.9063,263.1244 471.5781,261.4838 Q470.2656,259.8275 470.2656,256.7025 Q470.2656,253.5775 471.5781,251.9213 Q472.9063,250.265 475.4063,250.265 Q476.1094,250.265 476.75,250.4213 Q477.4063,250.5775 477.9688,250.8744 L477.9688,253.5931 Q477.3438,253.015 476.75,252.7494 Q476.1563,252.4681 475.5313,252.4681 Q474.1875,252.4681 473.5,253.5463 Q472.8125,254.6088 472.8125,256.7025 Q472.8125,258.7963 473.5,259.8744 Q474.1875,260.9369 475.5313,260.9369 Q476.1563,260.9369 476.75,260.6713 Q477.3438,260.39 477.9688,259.8119 L477.9688,262.5306 Z " fill="#000000"/><text fill="#000000" font-family="sans-serif" font-size="14" lengthAdjust="spacing" textLength="102" x="489" y="261.7367">ClientMessage</text><line style="stroke:#181818;stroke-width:0.5;" x1="461" x2="593" y1="272.89" y2="272.89"/><line style="stroke:#181818;stroke-width:0.5;" x1="461" x2="593" y1="280.89" y2="280.89"/></g><!--class ServerMessageHandler--><g id="elem_ServerMessageHandler"><rect codeLine="45" fill="#F1F1F1" height="80.5938" id="ServerMessageHandler" rx="2.5" ry="2.5" style="stroke:#181818;stroke-width:0.5;" width="341" x="1331.5" y="397.78"/><ellipse cx="1417.75" cy="413.78" fill="#B4A7E5" rx="11" ry="11" style="stroke:#181818;stroke-width:1.0;"/><path d="M1413.6719,409.5456 L1413.6719,407.3894 L1421.0625,407.3894 L1421.0625,409.5456 L1418.5938,409.5456 L1418.5938,417.6238 L1421.0625,417.6238 L1421.0625,419.78 L1413.6719,419.78 L1413.6719,417.6238 L1416.1406,417.6238 L1416.1406,409.5456 L1413.6719,409.5456 Z " fill="#000000"/><text fill="#000000" font-family="sans-serif" font-size="14" font-style="italic" lengthAdjust="spacing" textLength="160" x="1438.25" y="418.6267">ServerMessageHandler</text><line style="stroke:#181818;stroke-width:0.5;" x1="1332.5" x2="1671.5" y1="429.78" y2="429.78"/><line style="stroke:#181818;stroke-width:0.5;" x1="1332.5" x2="1671.5" y1="437.78" y2="437.78"/><ellipse cx="1342.5" cy="451.4284" fill="#84BE84" rx="3" ry="3" style="stroke:#038048;stroke-width:1.0;"/><text fill="#000000" font-family="sans-serif" font-size="14" lengthAdjust="spacing" textLength="315" x="1351.5" y="454.7751">void sendMessage(ServerMessage message)</text><ellipse cx="1342.5" cy="467.7253" fill="#84BE84" rx="3" ry="3" style="stroke:#038048;stroke-width:1.0;"/><text fill="#000000" font-family="sans-serif" font-size="14" lengthAdjust="spacing" textLength="159" x="1351.5" y="471.072">void closeConnection()</text></g><g id="elem_GMN24"><path d="M819.5,425.51 L819.5,450.6428 A0,0 0 0 0 819.5,450.6428 L1296.5,450.6428 A0,0 0 0 0 1296.5,450.6428 L1296.5,443.51 L1331.36,438.08 L1296.5,435.51 L1296.5,435.51 L1286.5,425.51 L819.5,425.51 A0,0 0 0 0 819.5,425.51 " fill="#FEFFDD" style="stroke:#181818;stroke-width:0.5;"/><path d="M1286.5,425.51 L1286.5,435.51 L1296.5,435.51 L1286.5,425.51 " fill="#FEFFDD" style="stroke:#181818;stroke-width:0.5;"/><text fill="#000000" font-family="sans-serif" font-size="13" lengthAdjust="spacing" textLength="456" x="825.5" y="442.5769">Interface that is implemented by the classes that handle the messages</text></g><!--class TCPServerAdapter--><g id="elem_TCPServerAdapter"><rect codeLine="54" fill="#F1F1F1" height="96.8906" id="TCPServerAdapter" rx="2.5" ry="2.5" style="stroke:#181818;stroke-width:0.5;" width="341" x="1277.5" y="538.38"/><ellipse cx="1380.75" cy="554.38" fill="#ADD1B2" rx="11" ry="11" style="stroke:#181818;stroke-width:1.0;"/><path d="M1383.7188,560.0206 Q1383.1406,560.3175 1382.5,560.4581 Q1381.8594,560.6144 1381.1563,560.6144 Q1378.6563,560.6144 1377.3281,558.9738 Q1376.0156,557.3175 1376.0156,554.1925 Q1376.0156,551.0675 1377.3281,549.4113 Q1378.6563,547.755 1381.1563,547.755 Q1381.8594,547.755 1382.5,547.9113 Q1383.1563,548.0675 1383.7188,548.3644 L1383.7188,551.0831 Q1383.0938,550.505 1382.5,550.2394 Q1381.9063,549.9581 1381.2813,549.9581 Q1379.9375,549.9581 1379.25,551.0363 Q1378.5625,552.0988 1378.5625,554.1925 Q1378.5625,556.2863 1379.25,557.3644 Q1379.9375,558.4269 1381.2813,558.4269 Q1381.9063,558.4269 1382.5,558.1613 Q1383.0938,557.88 1383.7188,557.3019 L1383.7188,560.0206 Z " fill="#000000"/><text fill="#000000" font-family="sans-serif" font-size="14" lengthAdjust="spacing" textLength="126" x="1401.25" y="559.2267">TCPServerAdapter</text><line style="stroke:#181818;stroke-width:0.5;" x1="1278.5" x2="1617.5" y1="570.38" y2="570.38"/><rect fill="none" height="6" style="stroke:#C82930;stroke-width:1.0;" width="6" x="1285.5" y="581.0284"/><text fill="#000000" font-family="sans-serif" font-size="14" lengthAdjust="spacing" textLength="243" x="1297.5" y="587.3751">TCPConnectionHandler connection</text><line style="stroke:#181818;stroke-width:0.5;" x1="1278.5" x2="1617.5" y1="594.6769" y2="594.6769"/><ellipse cx="1288.5" cy="608.3253" fill="#84BE84" rx="3" ry="3" style="stroke:#038048;stroke-width:1.0;"/><text fill="#000000" font-family="sans-serif" font-size="14" lengthAdjust="spacing" textLength="153" x="1297.5" y="611.672">void notify(String msg)</text><ellipse cx="1288.5" cy="624.6222" fill="#84BE84" rx="3" ry="3" style="stroke:#038048;stroke-width:1.0;"/><text fill="#000000" font-family="sans-serif" font-size="14" lengthAdjust="spacing" textLength="315" x="1297.5" y="627.9689">void sendMessage(ServerMessage message)</text></g><g id="elem_GMN31"><path d="M777,566.69 L777,606.9556 A0,0 0 0 0 777,606.9556 L1243,606.9556 A0,0 0 0 0 1243,606.9556 L1243,590.82 L1277.13,586.82 L1243,582.82 L1243,576.69 L1233,566.69 L777,566.69 A0,0 0 0 0 777,566.69 " fill="#FEFFDD" style="stroke:#181818;stroke-width:0.5;"/><path d="M1233,566.69 L1233,576.69 L1243,576.69 L1233,566.69 " fill="#FEFFDD" style="stroke:#181818;stroke-width:0.5;"/><text fill="#000000" font-family="sans-serif" font-size="13" lengthAdjust="spacing" textLength="445" x="783" y="583.7569">This class converts the messages from text to objects and vice versa.</text><text fill="#000000" font-family="sans-serif" font-size="13" lengthAdjust="spacing" textLength="262" x="783" y="598.8897">It also sends the messages to the clients</text></g><!--class RMIClientConnectionHandler--><g id="elem_RMIClientConnectionHandler"><rect codeLine="67" fill="#F1F1F1" height="64.2969" id="RMIClientConnectionHandler" rx="2.5" ry="2.5" style="stroke:#181818;stroke-width:0.5;" width="341" x="1653.5" y="554.67"/><ellipse cx="1721.25" cy="570.67" fill="#ADD1B2" rx="11" ry="11" style="stroke:#181818;stroke-width:1.0;"/><path d="M1724.2188,576.3106 Q1723.6406,576.6075 1723,576.7481 Q1722.3594,576.9044 1721.6563,576.9044 Q1719.1563,576.9044 1717.8281,575.2638 Q1716.5156,573.6075 1716.5156,570.4825 Q1716.5156,567.3575 1717.8281,565.7013 Q1719.1563,564.045 1721.6563,564.045 Q1722.3594,564.045 1723,564.2013 Q1723.6563,564.3575 1724.2188,564.6544 L1724.2188,567.3731 Q1723.5938,566.795 1723,566.5294 Q1722.4063,566.2481 1721.7813,566.2481 Q1720.4375,566.2481 1719.75,567.3263 Q1719.0625,568.3888 1719.0625,570.4825 Q1719.0625,572.5763 1719.75,573.6544 Q1720.4375,574.7169 1721.7813,574.7169 Q1722.4063,574.7169 1723,574.4513 Q1723.5938,574.17 1724.2188,573.5919 L1724.2188,576.3106 Z " fill="#000000"/><text fill="#000000" font-family="sans-serif" font-size="14" lengthAdjust="spacing" textLength="197" x="1741.75" y="575.5167">RMIClientConnectionHandler</text><line style="stroke:#181818;stroke-width:0.5;" x1="1654.5" x2="1993.5" y1="586.67" y2="586.67"/><line style="stroke:#181818;stroke-width:0.5;" x1="1654.5" x2="1993.5" y1="594.67" y2="594.67"/><ellipse cx="1664.5" cy="608.3184" fill="#84BE84" rx="3" ry="3" style="stroke:#038048;stroke-width:1.0;"/><text fill="#000000" font-family="sans-serif" font-size="14" lengthAdjust="spacing" textLength="315" x="1673.5" y="611.6651">void sendMessage(ServerMessage message)</text></g><!--class ClientActions--><g id="elem_ClientActions"><rect fill="#F1F1F1" height="48" id="ClientActions" rx="2.5" ry="2.5" style="stroke:#181818;stroke-width:0.5;" width="122" x="1602" y="84"/><ellipse cx="1617" cy="100" fill="#B4A7E5" rx="11" ry="11" style="stroke:#181818;stroke-width:1.0;"/><path d="M1612.9219,95.7656 L1612.9219,93.6094 L1620.3125,93.6094 L1620.3125,95.7656 L1617.8438,95.7656 L1617.8438,103.8438 L1620.3125,103.8438 L1620.3125,106 L1612.9219,106 L1612.9219,103.8438 L1615.3906,103.8438 L1615.3906,95.7656 L1612.9219,95.7656 Z " fill="#000000"/><text fill="#000000" font-family="sans-serif" font-size="14" font-style="italic" lengthAdjust="spacing" textLength="90" x="1631" y="104.8467">ClientActions</text><line style="stroke:#181818;stroke-width:0.5;" x1="1603" x2="1723" y1="116" y2="116"/><line style="stroke:#181818;stroke-width:0.5;" x1="1603" x2="1723" y1="124" y2="124"/></g><!--class NetworkCommandMapper--><g id="elem_NetworkCommandMapper"><rect codeLine="72" fill="#F1F1F1" height="145.7813" id="NetworkCommandMapper" rx="2.5" ry="2.5" style="stroke:#181818;stroke-width:0.5;" width="573" x="1215.5" y="192"/><ellipse cx="1407.75" cy="208" fill="#ADD1B2" rx="11" ry="11" style="stroke:#181818;stroke-width:1.0;"/><path d="M1410.7188,213.6406 Q1410.1406,213.9375 1409.5,214.0781 Q1408.8594,214.2344 1408.1563,214.2344 Q1405.6563,214.2344 1404.3281,212.5938 Q1403.0156,210.9375 1403.0156,207.8125 Q1403.0156,204.6875 1404.3281,203.0313 Q1405.6563,201.375 1408.1563,201.375 Q1408.8594,201.375 1409.5,201.5313 Q1410.1563,201.6875 1410.7188,201.9844 L1410.7188,204.7031 Q1410.0938,204.125 1409.5,203.8594 Q1408.9063,203.5781 1408.2813,203.5781 Q1406.9375,203.5781 1406.25,204.6563 Q1405.5625,205.7188 1405.5625,207.8125 Q1405.5625,209.9063 1406.25,210.9844 Q1406.9375,212.0469 1408.2813,212.0469 Q1408.9063,212.0469 1409.5,211.7813 Q1410.0938,211.5 1410.7188,210.9219 L1410.7188,213.6406 Z " fill="#000000"/><text fill="#000000" font-family="sans-serif" font-size="14" lengthAdjust="spacing" textLength="180" x="1428.25" y="212.8467">NetworkCommandMapper</text><line style="stroke:#181818;stroke-width:0.5;" x1="1216.5" x2="1787.5" y1="224" y2="224"/><rect fill="none" height="6" style="stroke:#C82930;stroke-width:1.0;" width="6" x="1223.5" y="234.6484"/><text fill="#000000" font-family="sans-serif" font-size="14" lengthAdjust="spacing" textLength="332" x="1235.5" y="240.9951">HashSet&lt;ServerMessageHandler&gt; connections</text><rect fill="none" height="6" style="stroke:#C82930;stroke-width:1.0;" width="6" x="1223.5" y="250.9453"/><text fill="#000000" font-family="sans-serif" font-size="14" lengthAdjust="spacing" textLength="490" x="1235.5" y="257.292">HashMap&lt;String gameName, ServerMessageHandler&gt; connectionMap</text><rect fill="none" height="6" style="stroke:#C82930;stroke-width:1.0;" width="6" x="1223.5" y="267.2422"/><text fill="#000000" font-family="sans-serif" font-size="14" lengthAdjust="spacing" textLength="203" x="1235.5" y="273.5889">MainController mainController</text><line style="stroke:#181818;stroke-width:0.5;" x1="1216.5" x2="1787.5" y1="280.8906" y2="280.8906"/><rect fill="#F24D5C" height="6" style="stroke:#C82930;stroke-width:1.0;" width="6" x="1223.5" y="291.5391"/><text fill="#000000" font-family="sans-serif" font-size="14" lengthAdjust="spacing" textLength="446" x="1235.5" y="297.8857">void broadcastMessage(ServerMessage msg, String gameName)</text><ellipse cx="1226.5" cy="310.8359" fill="#84BE84" rx="3" ry="3" style="stroke:#038048;stroke-width:1.0;"/><text fill="#000000" font-family="sans-serif" font-size="14" lengthAdjust="spacing" textLength="521" x="1235.5" y="314.1826">void addConnection(ServerMessageHandler connection, String gameName)</text><ellipse cx="1226.5" cy="327.1328" fill="#84BE84" rx="3" ry="3" style="stroke:#038048;stroke-width:1.0;"/><text fill="#000000" font-family="sans-serif" font-size="14" lengthAdjust="spacing" textLength="547" x="1235.5" y="330.4795">void removeConnection(ServerMessageHandler connection, String gameName)</text></g><g id="elem_GMN41"><path d="M803,237.19 L803,292.5884 A0,0 0 0 0 803,292.5884 L1181,292.5884 A0,0 0 0 0 1181,292.5884 L1181,268.89 L1215.09,264.89 L1181,260.89 L1181,247.19 L1171,237.19 L803,237.19 A0,0 0 0 0 803,237.19 " fill="#FEFFDD" style="stroke:#181818;stroke-width:0.5;"/><path d="M1171,237.19 L1171,247.19 L1181,247.19 L1171,237.19 " fill="#FEFFDD" style="stroke:#181818;stroke-width:0.5;"/><text fill="#000000" font-family="sans-serif" font-size="13" lengthAdjust="spacing" textLength="344" x="809" y="254.2569">Executes actions on the controllers, retrieves the view</text><text fill="#000000" font-family="sans-serif" font-size="13" lengthAdjust="spacing" textLength="357" x="809" y="269.3897">and sends it performing .sendMessage(ServerMessage)</text><text fill="#000000" font-family="sans-serif" font-size="13" lengthAdjust="spacing" textLength="325" x="809" y="284.5225">on all the clients that need to receive the message</text></g><!--class ClientMessageHandler--><g id="elem_ClientMessageHandler"><rect codeLine="89" fill="#F1F1F1" height="80.5938" id="ClientMessageHandler" rx="2.5" ry="2.5" style="stroke:#181818;stroke-width:0.5;" width="336" x="2421" y="397.78"/><ellipse cx="2507.25" cy="413.78" fill="#B4A7E5" rx="11" ry="11" style="stroke:#181818;stroke-width:1.0;"/><path d="M2503.1719,409.5456 L2503.1719,407.3894 L2510.5625,407.3894 L2510.5625,409.5456 L2508.0938,409.5456 L2508.0938,417.6238 L2510.5625,417.6238 L2510.5625,419.78 L2503.1719,419.78 L2503.1719,417.6238 L2505.6406,417.6238 L2505.6406,409.5456 L2503.1719,409.5456 Z " fill="#000000"/><text fill="#000000" font-family="sans-serif" font-size="14" font-style="italic" lengthAdjust="spacing" textLength="155" x="2527.75" y="418.6267">ClientMessageHandler</text><line style="stroke:#181818;stroke-width:0.5;" x1="2422" x2="2756" y1="429.78" y2="429.78"/><line style="stroke:#181818;stroke-width:0.5;" x1="2422" x2="2756" y1="437.78" y2="437.78"/><ellipse cx="2432" cy="451.4284" fill="#84BE84" rx="3" ry="3" style="stroke:#038048;stroke-width:1.0;"/><text fill="#000000" font-family="sans-serif" font-size="14" lengthAdjust="spacing" textLength="310" x="2441" y="454.7751">void sendMessage(ClientMessage message)</text><ellipse cx="2432" cy="467.7253" fill="#84BE84" rx="3" ry="3" style="stroke:#038048;stroke-width:1.0;"/><text fill="#000000" font-family="sans-serif" font-size="14" lengthAdjust="spacing" textLength="159" x="2441" y="471.072">void closeConnection()</text></g><!--class ClientCommandMapper--><g id="elem_ClientCommandMapper"><rect codeLine="93" fill="#F1F1F1" height="64.2969" id="ClientCommandMapper" rx="2.5" ry="2.5" style="stroke:#181818;stroke-width:0.5;" width="263" x="2426.5" y="232.74"/><ellipse cx="2472.75" cy="248.74" fill="#ADD1B2" rx="11" ry="11" style="stroke:#181818;stroke-width:1.0;"/><path d="M2475.7188,254.3806 Q2475.1406,254.6775 2474.5,254.8181 Q2473.8594,254.9744 2473.1563,254.9744 Q2470.6563,254.9744 2469.3281,253.3338 Q2468.0156,251.6775 2468.0156,248.5525 Q2468.0156,245.4275 2469.3281,243.7713 Q2470.6563,242.115 2473.1563,242.115 Q2473.8594,242.115 2474.5,242.2713 Q2475.1563,242.4275 2475.7188,242.7244 L2475.7188,245.4431 Q2475.0938,244.865 2474.5,244.5994 Q2473.9063,244.3181 2473.2813,244.3181 Q2471.9375,244.3181 2471.25,245.3963 Q2470.5625,246.4588 2470.5625,248.5525 Q2470.5625,250.6463 2471.25,251.7244 Q2471.9375,252.7869 2473.2813,252.7869 Q2473.9063,252.7869 2474.5,252.5213 Q2475.0938,252.24 2475.7188,251.6619 L2475.7188,254.3806 Z " fill="#000000"/><text fill="#000000" font-family="sans-serif" font-size="14" lengthAdjust="spacing" textLength="162" x="2493.25" y="253.5867">ClientCommandMapper</text><line style="stroke:#181818;stroke-width:0.5;" x1="2427.5" x2="2688.5" y1="264.74" y2="264.74"/><rect fill="none" height="6" style="stroke:#C82930;stroke-width:1.0;" width="6" x="2434.5" y="275.3884"/><text fill="#000000" font-family="sans-serif" font-size="14" lengthAdjust="spacing" textLength="237" x="2446.5" y="281.7351">ClientMessageHandler connection</text><line style="stroke:#181818;stroke-width:0.5;" x1="2427.5" x2="2688.5" y1="289.0369" y2="289.0369"/></g><!--class ServerActions--><g id="elem_ServerActions"><rect fill="#F1F1F1" height="48" id="ServerActions" rx="2.5" ry="2.5" style="stroke:#181818;stroke-width:0.5;" width="127" x="2410.5" y="84"/><ellipse cx="2425.5" cy="100" fill="#B4A7E5" rx="11" ry="11" style="stroke:#181818;stroke-width:1.0;"/><path d="M2421.4219,95.7656 L2421.4219,93.6094 L2428.8125,93.6094 L2428.8125,95.7656 L2426.3438,95.7656 L2426.3438,103.8438 L2428.8125,103.8438 L2428.8125,106 L2421.4219,106 L2421.4219,103.8438 L2423.8906,103.8438 L2423.8906,95.7656 L2421.4219,95.7656 Z " fill="#000000"/><text fill="#000000" font-family="sans-serif" font-size="14" font-style="italic" lengthAdjust="spacing" textLength="95" x="2439.5" y="104.8467">ServerActions</text><line style="stroke:#181818;stroke-width:0.5;" x1="2411.5" x2="2536.5" y1="116" y2="116"/><line style="stroke:#181818;stroke-width:0.5;" x1="2411.5" x2="2536.5" y1="124" y2="124"/></g><!--class RMIServerConnectionHandler--><g id="elem_RMIServerConnectionHandler"><rect codeLine="96" fill="#F1F1F1" height="64.2969" id="RMIServerConnectionHandler" rx="2.5" ry="2.5" style="stroke:#181818;stroke-width:0.5;" width="336" x="2050" y="554.67"/><ellipse cx="2112.75" cy="570.67" fill="#ADD1B2" rx="11" ry="11" style="stroke:#181818;stroke-width:1.0;"/><path d="M2115.7188,576.3106 Q2115.1406,576.6075 2114.5,576.7481 Q2113.8594,576.9044 2113.1563,576.9044 Q2110.6563,576.9044 2109.3281,575.2638 Q2108.0156,573.6075 2108.0156,570.4825 Q2108.0156,567.3575 2109.3281,565.7013 Q2110.6563,564.045 2113.1563,564.045 Q2113.8594,564.045 2114.5,564.2013 Q2115.1563,564.3575 2115.7188,564.6544 L2115.7188,567.3731 Q2115.0938,566.795 2114.5,566.5294 Q2113.9063,566.2481 2113.2813,566.2481 Q2111.9375,566.2481 2111.25,567.3263 Q2110.5625,568.3888 2110.5625,570.4825 Q2110.5625,572.5763 2111.25,573.6544 Q2111.9375,574.7169 2113.2813,574.7169 Q2113.9063,574.7169 2114.5,574.4513 Q2115.0938,574.17 2115.7188,573.5919 L2115.7188,576.3106 Z " fill="#000000"/><text fill="#000000" font-family="sans-serif" font-size="14" lengthAdjust="spacing" textLength="202" x="2133.25" y="575.5167">RMIServerConnectionHandler</text><line style="stroke:#181818;stroke-width:0.5;" x1="2051" x2="2385" y1="586.67" y2="586.67"/><line style="stroke:#181818;stroke-width:0.5;" x1="2051" x2="2385" y1="594.67" y2="594.67"/><ellipse cx="2061" cy="608.3184" fill="#84BE84" rx="3" ry="3" style="stroke:#038048;stroke-width:1.0;"/><text fill="#000000" font-family="sans-serif" font-size="14" lengthAdjust="spacing" textLength="310" x="2070" y="611.6651">void sendMessage(ClientMessage message)</text></g><!--class TCPClientAdapter--><g id="elem_TCPClientAdapter"><rect codeLine="100" fill="#F1F1F1" height="80.5938" id="TCPClientAdapter" rx="2.5" ry="2.5" style="stroke:#181818;stroke-width:0.5;" width="336" x="2421" y="546.52"/><ellipse cx="2524.25" cy="562.52" fill="#ADD1B2" rx="11" ry="11" style="stroke:#181818;stroke-width:1.0;"/><path d="M2527.2188,568.1606 Q2526.6406,568.4575 2526,568.5981 Q2525.3594,568.7544 2524.6563,568.7544 Q2522.1563,568.7544 2520.8281,567.1138 Q2519.5156,565.4575 2519.5156,562.3325 Q2519.5156,559.2075 2520.8281,557.5513 Q2522.1563,555.895 2524.6563,555.895 Q2525.3594,555.895 2526,556.0513 Q2526.6563,556.2075 2527.2188,556.5044 L2527.2188,559.2231 Q2526.5938,558.645 2526,558.3794 Q2525.4063,558.0981 2524.7813,558.0981 Q2523.4375,558.0981 2522.75,559.1763 Q2522.0625,560.2388 2522.0625,562.3325 Q2522.0625,564.4263 2522.75,565.5044 Q2523.4375,566.5669 2524.7813,566.5669 Q2525.4063,566.5669 2526,566.3013 Q2526.5938,566.02 2527.2188,565.4419 L2527.2188,568.1606 Z " fill="#000000"/><text fill="#000000" font-family="sans-serif" font-size="14" lengthAdjust="spacing" textLength="121" x="2544.75" y="567.3667">TCPClientAdapter</text><line style="stroke:#181818;stroke-width:0.5;" x1="2422" x2="2756" y1="578.52" y2="578.52"/><rect fill="none" height="6" style="stroke:#C82930;stroke-width:1.0;" width="6" x="2429" y="589.1684"/><text fill="#000000" font-family="sans-serif" font-size="14" lengthAdjust="spacing" textLength="243" x="2441" y="595.5151">TCPConnectionHandler connection</text><line style="stroke:#181818;stroke-width:0.5;" x1="2422" x2="2756" y1="602.8169" y2="602.8169"/><ellipse cx="2432" cy="616.4653" fill="#84BE84" rx="3" ry="3" style="stroke:#038048;stroke-width:1.0;"/><text fill="#000000" font-family="sans-serif" font-size="14" lengthAdjust="spacing" textLength="310" x="2441" y="619.812">void sendMessage(ClientMessage message)</text></g><g id="elem_GMN57"><path d="M2049.5,244.76 L2049.5,285.0256 A0,0 0 0 0 2049.5,285.0256 L2354.5,285.0256 A0,0 0 0 0 2354.5,285.0256 L2354.5,268.89 L2426.35,264.89 L2354.5,260.89 L2354.5,254.76 L2344.5,244.76 L2049.5,244.76 A0,0 0 0 0 2049.5,244.76 " fill="#FEFFDD" style="stroke:#181818;stroke-width:0.5;"/><path d="M2344.5,244.76 L2344.5,254.76 L2354.5,254.76 L2344.5,244.76 " fill="#FEFFDD" style="stroke:#181818;stroke-width:0.5;"/><text fill="#000000" font-family="sans-serif" font-size="13" lengthAdjust="spacing" textLength="284" x="2055.5" y="261.8269">This class sends the messages to the server</text><text fill="#000000" font-family="sans-serif" font-size="13" lengthAdjust="spacing" textLength="136" x="2055.5" y="276.9597">and updates the view</text></g><!--reverse link Message to ServerMessage--><g id="link_Message_ServerMessage"><path d="M394.967,147.0464 C378.337,171.3564 362.06,195.13 342.11,224.28 " fill="none" id="Message-backto-ServerMessage" style="stroke:#181818;stroke-width:1.0;stroke-dasharray:7.0,7.0;"/><polygon fill="none" points="405.13,132.19,390.0149,143.6588,399.9191,150.4341,405.13,132.19" style="stroke:#181818;stroke-width:1.0;"/></g><!--reverse link ServerMessage to ErrorServerMessage--><g id="link_ServerMessage_ErrorServerMessage"><path d="M274.8149,320.0558 C254.3749,347.6058 237.97,369.72 217.52,397.29 " fill="none" id="ServerMessage-backto-ErrorServerMessage" style="stroke:#181818;stroke-width:1.0;"/><polygon fill="none" points="285.54,305.6,269.9962,316.4808,279.6335,323.6309,285.54,305.6" style="stroke:#181818;stroke-width:1.0;"/></g><!--reverse link ServerMessage to SuccessServerMessage--><g id="link_ServerMessage_SuccessServerMessage"><path d="M382.2753,316.4063 C418.9753,343.9563 453.29,369.72 490.01,397.29 " fill="none" id="ServerMessage-backto-SuccessServerMessage" style="stroke:#181818;stroke-width:1.0;"/><polygon fill="none" points="367.88,305.6,378.6732,321.2047,385.8774,311.6078,367.88,305.6" style="stroke:#181818;stroke-width:1.0;"/></g><!--reverse link SuccessServerMessage to ViewUpdateMessage--><g id="link_SuccessServerMessage_ViewUpdateMessage"><path d="M534.3815,496.5911 C531.2515,517.4711 530.09,525.19 526.96,546.08 " fill="none" id="SuccessServerMessage-backto-ViewUpdateMessage" style="stroke:#181818;stroke-width:1.0;"/><polygon fill="none" points="537.05,478.79,528.4478,495.7016,540.3152,497.4806,537.05,478.79" style="stroke:#181818;stroke-width:1.0;"/></g><!--reverse link Message to ClientMessage--><g id="link_Message_ClientMessage"><path d="M447.0347,147.0453 C467.0147,176.2453 490.99,211.27 511.02,240.54 " fill="none" id="Message-backto-ClientMessage" style="stroke:#181818;stroke-width:1.0;stroke-dasharray:7.0,7.0;"/><polygon fill="none" points="436.87,132.19,442.0829,150.4335,451.9864,143.6571,436.87,132.19" style="stroke:#181818;stroke-width:1.0;"/></g><!--reverse link Observable to TCPConnectionHandler--><g id="link_Observable_TCPConnectionHandler"><path d="M2843.4993,634.9615 C2799.1093,655.1815 2760.75,672.64 2712.12,694.79 " fill="none" id="Observable-backto-TCPConnectionHandler" style="stroke:#181818;stroke-width:1.0;stroke-dasharray:7.0,7.0;"/><polygon fill="none" points="2859.88,627.5,2841.0122,629.5013,2845.9865,640.4217,2859.88,627.5" style="stroke:#181818;stroke-width:1.0;"/></g><!--reverse link ServerMessageHandler to TCPServerAdapter--><g id="link_ServerMessageHandler_TCPServerAdapter"><path d="M1481.1703,495.6813 C1474.4503,513.9313 1472.65,518.84 1465.6,537.98 " fill="none" id="ServerMessageHandler-backto-TCPServerAdapter" style="stroke:#181818;stroke-width:1.0;stroke-dasharray:7.0,7.0;"/><polygon fill="none" points="1487.39,478.79,1475.5399,493.6081,1486.8007,497.7545,1487.39,478.79" style="stroke:#181818;stroke-width:1.0;"/></g><!--reverse link TCPServerAdapter to Observer--><g id="link_TCPServerAdapter_Observer"><path codeLine="59" d="M1590.153,642.0558 C1611.063,649.9758 1615.72,651.7 1636,659.27 C1694.9,681.25 1761.77,705.72 1811.53,723.84 " fill="none" id="TCPServerAdapter-backto-Observer" style="stroke:#181818;stroke-width:1.0;stroke-dasharray:7.0,7.0;"/><polygon fill="none" points="1573.32,635.68,1588.0277,647.6668,1592.2782,636.4448,1573.32,635.68" style="stroke:#181818;stroke-width:1.0;"/></g><!--reverse link TCPServerAdapter to TCPConnectionHandler--><g id="link_TCPServerAdapter_TCPConnectionHandler"><path codeLine="60" d="M1570.5658,639.8429 C1595.4258,648.9629 1610.67,653.35 1636,659.27 C1674.14,668.18 2172.81,713.63 2433.13,736.97 " fill="none" id="TCPServerAdapter-backto-TCPConnectionHandler" style="stroke:#181818;stroke-width:1.0;"/><polygon fill="#181818" points="1559.3,635.71,1563.5553,641.5317,1570.5658,639.8429,1566.3106,634.0212,1559.3,635.71" style="stroke:#181818;stroke-width:1.0;"/></g><!--reverse link ServerMessageHandler to RMIClientConnectionHandler--><g id="link_ServerMessageHandler_RMIClientConnectionHandler"><path d="M1605.5192,486.2546 C1657.4792,509.9346 1706.17,532.13 1754.64,554.21 " fill="none" id="ServerMessageHandler-backto-RMIClientConnectionHandler" style="stroke:#181818;stroke-width:1.0;stroke-dasharray:7.0,7.0;"/><polygon fill="none" points="1589.14,478.79,1603.031,491.7143,1608.0074,480.7949,1589.14,478.79" style="stroke:#181818;stroke-width:1.0;"/></g><!--reverse link ClientActions to RMIClientConnectionHandler--><g id="link_ClientActions_RMIClientConnectionHandler"><path d="M1740.748,135.8023 C1770.748,148.7923 1787.76,161.94 1806,192 C1877,309.04 1848.05,483.57 1831.98,554.33 " fill="none" id="ClientActions-backto-RMIClientConnectionHandler" style="stroke:#181818;stroke-width:1.0;stroke-dasharray:7.0,7.0;"/><polygon fill="none" points="1724.23,128.65,1738.3639,141.3083,1743.1321,130.2963,1724.23,128.65" style="stroke:#181818;stroke-width:1.0;"/></g><!--reverse link ClientActions to NetworkCommandMapper--><g id="link_ClientActions_NetworkCommandMapper"><path d="M1625.928,144.6691 C1609.348,160.6191 1599.32,170.26 1576.91,191.82 " fill="none" id="ClientActions-backto-NetworkCommandMapper" style="stroke:#181818;stroke-width:1.0;stroke-dasharray:7.0,7.0;"/><polygon fill="none" points="1638.9,132.19,1621.7683,140.3451,1630.0877,148.9931,1638.9,132.19" style="stroke:#181818;stroke-width:1.0;"/></g><!--reverse link NetworkCommandMapper to ServerMessageHandler--><g id="link_NetworkCommandMapper_ServerMessageHandler"><path codeLine="80" d="M1502,349.99 C1502,370.46 1502,379.99 1502,397.72 " fill="none" id="NetworkCommandMapper-backto-ServerMessageHandler" style="stroke:#181818;stroke-width:1.0;"/><polygon fill="#181818" points="1502,337.99,1498,343.99,1502,349.99,1506,343.99,1502,337.99" style="stroke:#181818;stroke-width:1.0;"/></g><!--reverse link ServerActions to ClientCommandMapper--><g id="link_ServerActions_ClientCommandMapper"><path d="M2495.1594,148.0138 C2509.6194,174.6838 2524.86,202.78 2540.97,232.49 " fill="none" id="ServerActions-backto-ClientCommandMapper" style="stroke:#181818;stroke-width:1.0;stroke-dasharray:7.0,7.0;"/><polygon fill="none" points="2486.58,132.19,2489.8848,150.8736,2500.434,145.154,2486.58,132.19" style="stroke:#181818;stroke-width:1.0;"/></g><!--reverse link ClientMessageHandler to RMIServerConnectionHandler--><g id="link_ClientMessageHandler_RMIServerConnectionHandler"><path d="M2471.8617,485.4104 C2411.9917,509.0904 2353.76,532.13 2297.92,554.21 " fill="none" id="ClientMessageHandler-backto-RMIServerConnectionHandler" style="stroke:#181818;stroke-width:1.0;stroke-dasharray:7.0,7.0;"/><polygon fill="none" points="2488.6,478.79,2469.6549,479.831,2474.0685,490.9898,2488.6,478.79" style="stroke:#181818;stroke-width:1.0;"/></g><!--reverse link ServerActions to RMIServerConnectionHandler--><g id="link_ServerActions_RMIServerConnectionHandler"><path d="M2439.4417,145.6401 C2425.3517,161.3501 2419.89,169.82 2409,192 C2379.54,252 2398.16,276.27 2372,337.78 C2336.59,421.04 2275.69,508.79 2242.06,554.28 " fill="none" id="ServerActions-backto-RMIServerConnectionHandler" style="stroke:#181818;stroke-width:1.0;stroke-dasharray:7.0,7.0;"/><polygon fill="none" points="2451.46,132.24,2434.9751,141.634,2443.9084,149.6461,2451.46,132.24" style="stroke:#181818;stroke-width:1.0;"/></g><!--reverse link ClientCommandMapper to ClientMessageHandler--><g id="link_ClientCommandMapper_ClientMessageHandler"><path codeLine="99" d="M2565.8263,309.0983 C2570.9263,337.2883 2576.31,366.98 2581.82,397.44 " fill="none" id="ClientCommandMapper-backto-ClientMessageHandler" style="stroke:#181818;stroke-width:1.0;"/><polygon fill="#181818" points="2563.69,297.29,2560.822,303.9063,2565.8263,309.0983,2568.6943,302.4821,2563.69,297.29" style="stroke:#181818;stroke-width:1.0;"/></g><!--reverse link ClientMessageHandler to TCPClientAdapter--><g id="link_ClientMessageHandler_TCPClientAdapter"><path d="M2589,496.79 C2589,517.67 2589,525.19 2589,546.08 " fill="none" id="ClientMessageHandler-backto-TCPClientAdapter" style="stroke:#181818;stroke-width:1.0;stroke-dasharray:7.0,7.0;"/><polygon fill="none" points="2589,478.79,2583,496.79,2595,496.79,2589,478.79" style="stroke:#181818;stroke-width:1.0;"/></g><!--reverse link TCPClientAdapter to Observer--><g id="link_TCPClientAdapter_Observer"><path codeLine="104" d="M2479.7935,634.1341 C2450.5835,645.5941 2434.68,650.72 2404,659.27 C2248.95,702.48 2061.86,729.6 1960.35,742.31 " fill="none" id="TCPClientAdapter-backto-Observer" style="stroke:#181818;stroke-width:1.0;stroke-dasharray:7.0,7.0;"/><polygon fill="none" points="2496.55,627.56,2477.6021,628.5486,2481.9848,639.7196,2496.55,627.56" style="stroke:#181818;stroke-width:1.0;"/></g><!--reverse link TCPClientAdapter to TCPConnectionHandler--><g id="link_TCPClientAdapter_TCPConnectionHandler"><path codeLine="105" d="M2589,639.29 C2589,659.55 2589,672.59 2589,694.81 " fill="none" id="TCPClientAdapter-backto-TCPConnectionHandler" style="stroke:#181818;stroke-width:1.0;"/><polygon fill="#181818" points="2589,627.29,2585,633.29,2589,639.29,2593,633.29,2589,627.29" style="stroke:#181818;stroke-width:1.0;"/></g><!--SRC=[hLVRRXen47tFLrWyGHlu0XGfYg8cKachalRTx0wmpQwDR4CIjVnxnvUzU7TCRaKABDWpFdCvPvmTpnxu1jWTc4Uf7jYVCuQlNVYr0gtjf__LlWfXGArv1cnHhnsRHRxIHl7CiApaMhCbg0EeUbzHxKgeG1ZTcZQMzZKDFoyDDtjzBVOLq-unslLv0oRQE9uqwoqI3-1QAQbY5F1aGEHzR3qWIwCAiQcZZuyV-Xp7szDmbliimptl0UGMBpDJIE4ImzrZZEmBhw07Z3PB8_nLmEFFNSuD3E1Hs7ieBO0hAOoIPGdA-c87V8jHjaV4M1F6QQnNPO7DTAgxl8L_R_lssqhZmNnLzl4xU0TPv4o3yRj0ZUi79iF3966ae987UAsTH-KZkR_wZf4BSCMvuIB717G38X5FBvNYpryBRURrKHVDMIrbtXJGMmEfdOkyJmMzcOJaaza7DR-_w0JZ7GbfYlNp-7vWZWl0Lj8OMJ6v9lCL9PTEg6PcYvB62n7oRhRSiArRzcjenxB6C79vQwo3JYLMaF6zniQpBj1S1lYC1- -FMn1sLK46nG5Fu0D1mSIvsCuYqHrvOemmFsU4xaQqgOEBEvceIyJRWLArHbafDRJ9YyIrUNJrA65jR3KeF77g6kWkuPZ6fhSXPwjdbtgNCuXguilb_Uf4pY8I1RdB-Sx417f5oXoboBv9DCIWRVkj_w62j68tY6l-TpPhQ9JUzcawfOb2Lx5l7_DfYqNpQSPiu2QZe-AmjK9c6fmLbWTozHjFn7x7IXqABBiL93xhqucNMhgKz7oX1zyGLjvVhlkFnQsV12SbbEg0yp12_7pK7-NGiM6h1pOALwehMLLuu8BlTfRK7L2ZwFmHqP7OapTSRvTWvbG45vtcr2bZF7WUUdE3C_OE_yxPIzxGYFAtGF5iXxJJqlOhPU2Ik5AIvndN9f59lK50CS89uSnNXETvHvv8PhTXlC6ldth_qVMnzvrg1yVIam8QaPHoCGZe-WcolR7p9lIr59vGJQ7qEKQBuE4GvjxWbkOkyo8FzCGXXWUjfQfilBCa9uR9nQDvMNRvx0LU02e_4ZtCngu0H3uQqXD3g1cNdaMZc3tjl8pkYMdn7_8zlc1MgHXVcfl3NWZwKCjMKXwwrtTI7gPaR8c1HM50yVI7d1HFwfHQGcZnV7T2Ov14XXnZA414T7RyUOKTNWbUsHNll19yAEe1R7hYarkJKxzh5MaAaUD1K9tvdnxO1BnQHlRk_xs4rX0Sz-_7Vm00]--></g></svg>