<?xml version="1.0" encoding="us-ascii" standalone="no"?>
<svg xmlns="http://www.w3.org/2000/svg" contentStyleType="text/css" height="550px" preserveAspectRatio="none"
     style="width:943px;height:550px;background:#FFFFFF;" version="1.1" viewBox="0 0 943 550" width="943px"
     zoomAndPan="magnify"><defs/><g><rect fill="none" height="199.9297" style="stroke:#000000;stroke-width:1.5;" width="927.5" x="10" y="53.2969"/><rect fill="none" height="108.5313" style="stroke:#000000;stroke-width:1.5;" width="837" x="10" y="267.2266"/><rect fill="none" height="108.5313" style="stroke:#000000;stroke-width:1.5;" width="837" x="10" y="389.7578"/><line style="stroke:#181818;stroke-width:0.5;stroke-dasharray:5.0,5.0;" x1="51" x2="51" y1="36.2969" y2="515.2891"/><line style="stroke:#181818;stroke-width:0.5;stroke-dasharray:5.0,5.0;" x1="557" x2="557" y1="36.2969" y2="515.2891"/><line style="stroke:#181818;stroke-width:0.5;stroke-dasharray:5.0,5.0;" x1="895.5" x2="895.5" y1="36.2969" y2="515.2891"/><rect fill="#E2E2F0" height="30.2969" rx="2.5" ry="2.5" style="stroke:#181818;stroke-width:0.5;" width="62" x="20" y="5"/><text fill="#000000" font-family="sans-serif" font-size="14" lengthAdjust="spacing" textLength="48" x="27" y="24.9951">ClientA</text><rect fill="#E2E2F0" height="30.2969" rx="2.5" ry="2.5" style="stroke:#181818;stroke-width:0.5;" width="62" x="20" y="514.2891"/><text fill="#000000" font-family="sans-serif" font-size="14" lengthAdjust="spacing" textLength="48" x="27" y="534.2842">ClientA</text><rect fill="#E2E2F0" height="30.2969" rx="2.5" ry="2.5" style="stroke:#181818;stroke-width:0.5;" width="58" x="528" y="5"/><text fill="#000000" font-family="sans-serif" font-size="14" lengthAdjust="spacing" textLength="44" x="535" y="24.9951">Server</text><rect fill="#E2E2F0" height="30.2969" rx="2.5" ry="2.5" style="stroke:#181818;stroke-width:0.5;" width="58" x="528" y="514.2891"/><text fill="#000000" font-family="sans-serif" font-size="14" lengthAdjust="spacing" textLength="44" x="535" y="534.2842">Server</text><rect fill="#E2E2F0" height="30.2969" rx="2.5" ry="2.5" style="stroke:#181818;stroke-width:0.5;" width="63" x="864.5" y="5"/><text fill="#000000" font-family="sans-serif" font-size="14" lengthAdjust="spacing" textLength="49" x="871.5" y="24.9951">ClientB</text><rect fill="#E2E2F0" height="30.2969" rx="2.5" ry="2.5" style="stroke:#181818;stroke-width:0.5;" width="63" x="864.5" y="514.2891"/><text fill="#000000" font-family="sans-serif" font-size="14" lengthAdjust="spacing" textLength="49" x="871.5" y="534.2842">ClientB</text><path d="M10,53.2969 L140,53.2969 L140,60.4297 L130,70.4297 L10,70.4297 L10,53.2969 " fill="#EEEEEE" style="stroke:#000000;stroke-width:1.5;"/><rect fill="none" height="199.9297" style="stroke:#000000;stroke-width:1.5;" width="927.5" x="10" y="53.2969"/><text fill="#000000" font-family="sans-serif" font-size="13" font-weight="bold" lengthAdjust="spacing" textLength="80" x="25" y="66.3638">Place Card</text><text fill="#000000" font-family="sans-serif" font-size="11" font-weight="bold" lengthAdjust="spacing" textLength="25" x="155" y="65.5073">[ok]</text><polygon fill="#181818" points="545,87.5625,555,91.5625,545,95.5625,549,91.5625" style="stroke:#181818;stroke-width:1.0;"/><line style="stroke:#181818;stroke-width:1.0;" x1="51" x2="551" y1="91.5625" y2="91.5625"/><text fill="#000000" font-family="sans-serif" font-size="13" lengthAdjust="spacing" textLength="256" x="58" y="86.4966">placeCard(playerName,coordinate,card)</text><rect fill="#D3D3D3" height="23" style="stroke:#181818;stroke-width:0.5;" width="560" x="277" y="104.5625"/><text fill="#000000" font-family="sans-serif" font-size="13" lengthAdjust="spacing" textLength="552" x="281" y="120.6294">MainController.gameControllerMiddleWares[x].placeCard(playerName,coordinate,card)</text><polygon fill="#181818" points="62,149.8281,52,153.8281,62,157.8281,58,153.8281" style="stroke:#181818;stroke-width:1.0;"/><line style="stroke:#181818;stroke-width:1.0;" x1="56" x2="556" y1="153.8281" y2="153.8281"/><text fill="#000000" font-family="sans-serif" font-size="13" lengthAdjust="spacing" textLength="143" x="68" y="148.7622">{status: "success", []}</text><polygon fill="#181818" points="568,178.9609,558,182.9609,568,186.9609,564,182.9609" style="stroke:#181818;stroke-width:1.0;"/><line style="stroke:#181818;stroke-width:1.0;" x1="562" x2="895" y1="182.9609" y2="182.9609"/><text fill="#000000" font-family="sans-serif" font-size="13" lengthAdjust="spacing" textLength="256" x="574" y="177.895">placeCard(playerName,coordinate,card)</text><rect fill="#D3D3D3" height="23" style="stroke:#181818;stroke-width:0.5;" width="509" x="302" y="195.9609"/><text fill="#000000" font-family="sans-serif" font-size="13" lengthAdjust="spacing" textLength="501" x="306" y="212.0278">MainController.gameControllerMiddleWares[x].validatePlayerTurn(playerName)</text><polygon fill="#181818" points="884,241.2266,894,245.2266,884,249.2266,888,245.2266" style="stroke:#181818;stroke-width:1.0;"/><line style="stroke:#181818;stroke-width:1.0;" x1="557" x2="890" y1="245.2266" y2="245.2266"/><text fill="#000000" font-family="sans-serif" font-size="13" lengthAdjust="spacing" textLength="315" x="564" y="240.1606">{status: failed, message: "It's not ClientB's turn"}</text><path d="M10,267.2266 L140,267.2266 L140,274.3594 L130,284.3594 L10,284.3594 L10,267.2266 " fill="#EEEEEE" style="stroke:#000000;stroke-width:1.5;"/><rect fill="none" height="108.5313" style="stroke:#000000;stroke-width:1.5;" width="837" x="10" y="267.2266"/><text fill="#000000" font-family="sans-serif" font-size="13" font-weight="bold" lengthAdjust="spacing" textLength="80" x="25" y="280.2935">Place Card</text><text fill="#000000" font-family="sans-serif" font-size="11" font-weight="bold" lengthAdjust="spacing" textLength="192" x="155" y="279.437">[failed due to wrong position]</text><polygon fill="#181818" points="545,301.4922,555,305.4922,545,309.4922,549,305.4922" style="stroke:#181818;stroke-width:1.0;"/><line style="stroke:#181818;stroke-width:1.0;" x1="51" x2="551" y1="305.4922" y2="305.4922"/><text fill="#000000" font-family="sans-serif" font-size="13" lengthAdjust="spacing" textLength="256" x="58" y="300.4263">placeCard(playerName,coordinate,card)</text><rect fill="#D3D3D3" height="23" style="stroke:#181818;stroke-width:0.5;" width="560" x="277" y="318.4922"/><text fill="#000000" font-family="sans-serif" font-size="13" lengthAdjust="spacing" textLength="552" x="281" y="334.5591">MainController.gameControllerMiddleWares[x].placeCard(playerName,coordinate,card)</text><polygon fill="#181818" points="62,363.7578,52,367.7578,62,371.7578,58,367.7578" style="stroke:#181818;stroke-width:1.0;"/><line style="stroke:#181818;stroke-width:1.0;" x1="56" x2="556" y1="367.7578" y2="367.7578"/><text fill="#000000" font-family="sans-serif" font-size="13" lengthAdjust="spacing" textLength="366" x="68" y="362.6919">{status: "failed", message: "You can't place a card here"}</text><path d="M10,389.7578 L140,389.7578 L140,396.8906 L130,406.8906 L10,406.8906 L10,389.7578 " fill="#EEEEEE" style="stroke:#000000;stroke-width:1.5;"/><rect fill="none" height="108.5313" style="stroke:#000000;stroke-width:1.5;" width="837" x="10" y="389.7578"/><text fill="#000000" font-family="sans-serif" font-size="13" font-weight="bold" lengthAdjust="spacing" textLength="80" x="25" y="402.8247">Place Card</text><text fill="#000000" font-family="sans-serif" font-size="11" font-weight="bold" lengthAdjust="spacing" textLength="219" x="155" y="401.9683">[failed due to wrong game status]</text><polygon fill="#181818" points="545,424.0234,555,428.0234,545,432.0234,549,428.0234" style="stroke:#181818;stroke-width:1.0;"/><line style="stroke:#181818;stroke-width:1.0;" x1="51" x2="551" y1="428.0234" y2="428.0234"/><text fill="#000000" font-family="sans-serif" font-size="13" lengthAdjust="spacing" textLength="256" x="58" y="422.9575">placeCard(playerName,coordinate,card)</text><rect fill="#D3D3D3" height="23" style="stroke:#181818;stroke-width:0.5;" width="560" x="277" y="441.0234"/><text fill="#000000" font-family="sans-serif" font-size="13" lengthAdjust="spacing" textLength="552" x="281" y="457.0903">MainController.gameControllerMiddleWares[x].placeCard(playerName,coordinate,card)</text><polygon fill="#181818" points="62,486.2891,52,490.2891,62,494.2891,58,490.2891" style="stroke:#181818;stroke-width:1.0;"/><line style="stroke:#181818;stroke-width:1.0;" x1="56" x2="556" y1="490.2891" y2="490.2891"/><text fill="#000000" font-family="sans-serif" font-size="13" lengthAdjust="spacing" textLength="482" x="68" y="485.2231">{status: "failed", message: "Cannot setGameCard in current game status"}</text><!--SRC=[vLB1IWCn4BtlLmpheGgr7z23OFSW7Ye51P7IGzYCQJ3DbCcaMgJ_xgJRueA2YWSFvZGXC-_DUtcEAQzX5aoBq1YsCAUdHGLwck0noYMSNy0jyWOPnh0kVQNjLAijyerPuR0bOkkZ4ItrwMm_pP44WShOOVeaUBSKnxXLeAdniQ4eJ24WZvpYl5-dtjg0zuOnpLyMe- -J7fXqu-FoOtXDOYIdCTGfjoscL0zXljZr94x-NkB616yLVRQdlCiSU-oVQvlqjJqQ7z0EOQNwZ4CLUos31BhWiLjleh3rhi9egyfz-FOE0cn6489dfkXWJScBfzW5ufU9-9j8V969JdNTT-w1ChGc3gJJ1WOA6YoHyMVk5GNGCVqh0niJI_0IobLPeVZZ8xIPMQVxhdHslW40]--></g></svg>